<svg width="140" height="185" viewBox="0 0 140 185" fill="none" xmlns="http://www.w3.org/2000/svg">
<path d="M64.0156 3.21238C65.7364 2.26509 67.3528 1.12466 69.1656 0.339844C71.4906 1.10626 73.469 2.6575 75.7204 3.61705C74.6775 3.83472 73.6255 4.05545 72.5887 4.26698C72.4476 4.7115 72.1685 5.60055 72.0335 6.04507C71.2729 5.63427 70.5183 5.22654 69.7668 4.82187C69.1932 5.00887 68.6196 5.19588 68.0522 5.38902C67.1749 5.4534 66.313 5.50551 65.448 5.55763C64.9634 4.77282 64.488 3.99107 64.0187 3.21238H64.0156Z" fill="#F0C99D"/>
<path d="M51.3203 10.3611C55.5409 7.95759 59.7953 5.60927 64.0159 3.21191C64.4852 3.9906 64.9636 4.76928 65.4452 5.55716C66.3102 5.50504 67.1721 5.45293 68.0494 5.38855C63.8748 8.1262 59.375 10.309 55.0318 12.7615C53.6208 12.2526 52.3509 11.4555 51.3203 10.358V10.3611Z" fill="#EBC28D"/>
<path d="M75.7142 3.61719C82.4991 7.09367 89.0263 11.0637 95.71 14.7395C99.4337 16.7996 103.289 18.6176 106.995 20.7175C105.286 21.7537 103.516 20.8586 101.891 20.1688C101.639 20.2914 101.142 20.5428 100.897 20.6654C101.237 21.3215 101.587 21.9714 101.933 22.6367C99.5563 21.4901 97.2804 20.0676 94.6916 19.43C90.974 17.7868 87.37 15.8799 84.0389 13.55C80.4808 10.3801 76.1191 8.39658 72.0273 6.04827C72.1623 5.60375 72.4384 4.7147 72.5825 4.27018C73.6193 4.05865 74.6714 3.83792 75.7142 3.62025V3.61719Z" fill="#F4D4B3"/>
<path d="M68.047 5.38942C68.6145 5.19628 69.1881 5.00927 69.7617 4.82227C70.5162 5.22694 71.2708 5.63467 72.0284 6.04547C76.1202 8.39685 80.4819 10.3803 84.0399 13.5472C82.3713 13.3081 80.3408 12.4834 78.8593 13.6514C77.1324 15.2609 78.3102 17.787 77.7305 19.8012C77.0802 20.7301 76.2091 21.4873 75.4239 22.2936C74.6571 21.8613 73.8964 21.429 73.148 20.9937C71.5959 20.1384 70.1267 19.0991 68.4366 18.5197C63.6301 20.632 59.2101 23.5382 54.5755 26.0092C52.2228 27.309 49.8518 28.5843 47.4992 29.8873C47.2231 29.5838 46.668 28.9798 46.3919 28.6763C43.7172 29.8413 41.0425 31.1687 38.1562 31.6837C36.0091 31.2852 35.1717 28.5598 35.7085 26.7051C37.1133 24.6174 39.8126 23.4708 40.3095 20.773C45.2448 18.158 50.1371 15.4602 55.0264 12.7624C59.3697 10.3098 63.8663 8.124 68.044 5.38942H68.047Z" fill="#FCF48C"/>
<path d="M29.7841 21.8576C36.8665 17.8385 44.1544 14.218 51.3196 10.3613C52.3502 11.4558 53.6201 12.2559 55.031 12.7648C50.1387 15.4626 45.2494 18.1604 40.3141 20.7754C36.8082 22.4248 33.4648 24.4021 29.9773 26.0944C29.3209 25.7541 28.6706 25.4107 28.0234 25.0705C28.732 24.4451 29.4467 23.8135 30.1705 23.1912C30.0724 22.8632 29.8792 22.1918 29.7841 21.8576Z" fill="#E4B881"/>
<path d="M78.8612 13.6511C80.3427 12.4861 82.3732 13.3108 84.0418 13.5468C87.3729 15.8798 90.9739 17.7836 94.6945 19.4268C99.1206 22.376 103.679 25.2025 108.51 27.4466C115.064 29.3995 120.469 33.7711 126.65 36.5456C124.015 36.4689 121.61 38.0845 120.684 40.5401C119.807 40.675 118.938 40.8099 118.074 40.9509C119.052 42.7873 121.193 42.1619 122.886 42.168C123.447 43.7254 124.122 45.2459 124.929 46.7021C124.484 47.024 124.046 47.3459 123.607 47.674C120.831 45.9296 117.794 44.6727 114.868 43.2165C105.841 38.7712 97.1085 33.7803 88.1459 29.2278C83.8854 26.9469 79.6464 24.6415 75.4258 22.2901C76.211 21.4839 77.0821 20.7266 77.7324 19.7977C78.3121 17.7805 77.1343 15.2575 78.8612 13.648V13.6511Z" fill="#FCD67F"/>
<path d="M54.5808 26.0119C59.2155 23.5379 63.6354 20.6347 68.4419 18.5225C70.1289 19.1019 71.5981 20.1381 73.1533 20.9965C71.2853 21.2785 69.3836 21.723 68.0247 23.121C64.5127 26.1284 60.0222 27.5662 56.0193 29.7858C54.3875 30.5767 52.7711 31.4014 51.1791 32.272C50.8325 32.4069 50.1485 32.6706 49.8081 32.8055C49.3449 32.2322 48.9063 31.6405 48.4922 31.0396C50.0565 29.6877 52.1208 29.1389 53.7955 27.9341C54.5225 27.5723 54.6145 26.7293 54.5808 26.0088V26.0119Z" fill="#A36224"/>
<path d="M94.6953 19.4297C97.2872 20.0673 99.56 21.4898 101.937 22.6364C101.591 21.9742 101.241 21.3212 100.9 20.6652C101.146 20.5425 101.643 20.2911 101.894 20.1685C103.517 20.8583 105.29 21.7535 106.998 20.7173C113.964 24.3685 121.046 27.8143 128.095 31.3061C131.981 33.2436 135.653 35.5766 139.616 37.3486L139.475 37.7471C137.812 40.0924 137.625 43.0078 136.432 45.5401C136.374 43.8264 136.374 42.1126 136.309 40.402L136.116 40.2916C133.061 38.7925 129.828 37.741 126.65 36.5484C120.47 33.774 115.065 29.3993 108.51 27.4495C103.676 25.2085 99.1214 22.3819 94.6953 19.4297Z" fill="#EACEAF"/>
<path d="M29.9778 26.0943C33.4653 24.399 36.8086 22.4247 40.3146 20.7754C39.8177 23.4732 37.1184 24.6198 35.7136 26.7075C35.1799 28.5622 36.0173 31.2876 38.1613 31.6861C41.0477 31.1711 43.7223 29.8437 46.397 28.6787C46.6731 28.9822 47.2282 29.5862 47.5043 29.8897C40.8544 33.6237 34.1063 37.186 27.3982 40.8188C26.2387 41.4503 25.0793 42.088 23.9199 42.7195C23.6039 42.3578 22.9782 41.6435 22.6684 41.2909C19.7483 41.6711 17.043 43.2621 14.0217 42.882C13.8469 42.6 13.488 42.0175 13.3131 41.7354C12.6629 41.343 11.9973 40.9751 11.393 40.5306C11.4175 39.3841 11.6445 38.2651 11.8194 37.1369C10.8593 37.2013 9.89924 37.2657 8.94531 37.3546C15.9817 33.6451 22.877 29.6781 29.9778 26.0974V26.0943Z" fill="#FAE56F"/>
<path d="M68.0234 23.1206C69.3823 21.7227 71.284 21.2781 73.152 20.9961C73.9004 21.4345 74.6611 21.8667 75.4279 22.2959C79.6485 24.6473 83.8875 26.9527 88.148 29.2336C88.1725 29.5095 88.2369 30.0582 88.2645 30.3342C90.2736 32.008 92.4146 33.5746 94.7028 34.8683C94.7273 35.1135 94.7856 35.601 94.8132 35.8401C93.8777 35.8217 92.9329 35.8003 92.0097 35.7635C91.4177 35.4814 90.838 35.1963 90.2583 34.9143C87.3382 33.4581 84.5684 31.7382 81.6545 30.2636C78.5289 28.32 75.2163 26.7228 72.0723 24.8098C70.8085 24.0771 69.5264 23.2371 68.0265 23.1237L68.0234 23.1206Z" fill="#A65D33"/>
<path d="M12.7126 30.6559C18.3963 27.719 24.126 24.8465 29.7821 21.8574C29.8803 22.1916 30.0735 22.863 30.1686 23.191C29.4478 23.8164 28.7331 24.4479 28.0215 25.0703C28.6656 25.4105 29.3159 25.7539 29.9753 26.0942C22.8746 29.6749 15.9793 33.6419 8.94289 37.3514C7.28654 38.1699 5.69462 39.1233 4.03828 39.9327C3.89718 39.8039 3.61804 39.5464 3.48308 39.4176L3.33586 39.9572C2.35125 40.0032 1.36358 40.0338 0.385117 40.0553C0.461799 38.9271 -0.188472 37.2073 1.26236 36.7137C5.03207 34.6076 8.89073 32.6639 12.7126 30.6529V30.6559Z" fill="#D6AB6D"/>
<path d="M68.0235 23.1211C69.5234 23.2376 70.8086 24.0745 72.0693 24.8072C75.2133 26.7202 78.526 28.3174 81.6515 30.2611C80.3173 30.12 78.9952 29.9269 77.7192 29.5284C75.1795 28.5443 72.4987 29.5284 69.9528 29.8962C69.6615 29.7491 69.0817 29.4517 68.7934 29.3046L68.8824 28.9367C64.3336 31.4107 59.8676 34.038 55.2206 36.3311C54.2667 36.4139 53.3189 36.4783 52.3711 36.5426C54.5489 34.8872 56.515 32.9558 57.9659 30.6228C57.3156 30.3408 56.6653 30.0618 56.012 29.7859C60.0148 27.5633 64.5053 26.1285 68.0174 23.1211H68.0235Z" fill="#889798"/>
<path d="M47.5055 29.8898C49.8581 28.59 52.2292 27.3146 54.5818 26.0117C54.6155 26.7322 54.5235 27.5752 53.7966 27.937C52.1218 29.1418 50.0606 29.6875 48.4932 31.0425C48.9042 31.6403 49.3428 32.235 49.8091 32.8083C42.4629 36.202 35.4909 40.3836 28.6478 44.6786L28.0926 44.7369C26.7123 44.7614 25.3351 44.8135 23.9609 44.9239C24.7278 43.2102 27.7245 42.8944 27.4025 40.822C34.1106 37.1892 40.8587 33.6269 47.5086 29.8929L47.5055 29.8898Z" fill="#935419"/>
<path d="M69.957 29.8963C72.5029 29.5284 75.1837 28.5443 77.7234 29.5284C78.9994 29.9269 80.3214 30.1201 81.6557 30.2611C84.5696 31.7357 87.3394 33.4555 90.2595 34.9117C90.2073 35.1938 90.0908 35.7486 90.0325 36.0337C90.9987 36.7664 91.9588 37.5206 92.9188 38.2748C95.6242 39.6666 98.486 41.3404 100.09 44.0137C102.308 44.9671 104.053 46.6747 104.71 49.0384C103.774 48.5816 102.829 48.1493 101.894 47.7048C91.2226 41.8248 80.4411 36.1043 69.957 29.8963Z" fill="#7F99A4"/>
<path d="M55.2266 36.328C59.8736 34.0349 64.3396 31.4076 68.8884 28.9336L68.7994 29.3015C68.4896 30.4235 68.2442 31.5609 68.1154 32.7228C60.2417 37.8241 51.779 41.9535 43.3777 46.1137C43.9973 45.2185 44.5831 44.3049 45.1751 43.3821C44.0525 43.5048 42.9329 43.6274 41.8164 43.7868C46.2701 41.2699 50.7422 38.7898 55.2266 36.328Z" fill="#94E6D0"/>
<path d="M51.1791 32.2724C52.771 31.4017 54.3874 30.5771 56.0192 29.7861C56.6695 30.062 57.3198 30.341 57.9731 30.6231C56.5223 32.953 54.5592 34.8874 52.3784 36.5429C53.3262 36.4785 54.2739 36.4141 55.2279 36.3314C50.7435 38.7931 46.2714 41.2702 41.8177 43.7902C40.5999 44.4156 39.3945 45.0532 38.2013 45.7154C38.0326 45.3874 37.6921 44.7374 37.5234 44.4094C40.3852 41.4848 43.9862 39.443 46.8357 36.5061C48.2866 35.102 49.7497 33.7102 51.1791 32.2755V32.2724Z" fill="#70878D"/>
<path d="M68.1133 32.7231C68.2421 31.5642 68.4875 30.4238 68.7973 29.3018C69.0887 29.4489 69.6684 29.7463 69.9567 29.8934C80.4408 36.1014 91.2223 41.822 101.893 47.702C101.424 48.4561 100.958 49.2164 100.495 49.9767C92.6854 45.6418 84.5264 41.9446 76.7937 37.4626C73.843 35.9819 71.2205 33.8941 68.1133 32.7231Z" fill="#B8F0DF"/>
<path d="M88.265 30.334C88.2405 30.0581 88.176 29.5093 88.1484 29.2334C97.1111 33.7859 105.844 38.7769 114.871 43.2221C117.797 44.6783 120.83 45.9321 123.609 47.6796C123.511 48.1302 123.327 49.0438 123.229 49.5037C123.042 50.3988 122.867 51.294 122.745 52.2015C122.153 52.8054 121.567 53.4247 120.984 54.0378C120.656 53.1488 120.327 52.2658 120.03 51.3768C119.932 51.0304 119.748 50.3406 119.65 49.9911C116.776 48.5043 113.773 47.2994 110.892 45.8371C104.476 42.7071 98.2307 39.249 92.0041 35.7633C92.9242 35.8031 93.872 35.8215 94.8075 35.8399C94.783 35.6008 94.7247 35.1134 94.6971 34.8681C92.4089 33.5744 90.271 32.0078 88.2589 30.334H88.265Z" fill="#9B512D"/>
<path d="M49.8074 32.8049C50.1479 32.67 50.8319 32.4064 51.1785 32.2715C49.7492 33.7062 48.2861 35.098 46.8352 36.5021C43.9857 39.439 40.3847 41.4808 37.5229 44.4054C37.6916 44.7335 38.0321 45.3834 38.2008 45.7114C36.8082 46.484 35.4371 47.2964 34.0507 48.0812C31.9312 49.2799 29.7718 50.405 27.6523 51.6037C28.4713 49.3933 29.5909 47.045 28.6461 44.6722C35.4893 40.3771 42.4613 36.1956 49.8074 32.8018V32.8049Z" fill="#5A7682"/>
<path d="M43.3762 46.1135C51.7775 41.9534 60.2402 37.8239 68.1139 32.7227C71.2211 33.8937 73.8437 35.9815 76.7944 37.4622C84.527 41.9442 92.6861 45.6414 100.495 49.9763C104.112 52.1591 107.964 53.9065 111.786 55.6877C111.805 56.1077 111.838 56.9446 111.851 57.3615C107.081 55.5466 102.958 52.4534 98.3636 50.2767C93.6983 47.5973 88.9348 45.0988 84.1743 42.6125C78.7667 39.927 73.8651 36.3126 68.4759 33.6485C65.6724 35.0127 63.0958 36.8031 60.3383 38.2654C57.0441 40.0956 53.6884 41.8277 50.48 43.8051C46.833 45.4268 43.4958 47.631 40.0267 49.5961C37.4042 51.0002 34.7356 52.3399 32.3063 54.072C30.6745 55.0439 29.0335 55.9973 27.4538 57.0396C27.3833 62.6161 27.3772 68.1956 27.2606 73.7721L26.5705 73.5391C26.3251 67.3618 26.8097 61.1722 26.3711 55.0101C29.7666 53.3608 33.1099 51.6103 36.4165 49.774C38.7231 48.5324 41.0941 47.4042 43.3762 46.1105V46.1135Z" fill="#53A397"/>
<path d="M60.3361 38.2683C63.0936 36.8059 65.6732 35.0156 68.4737 33.6514C73.8598 36.3185 78.7645 39.9299 84.1721 42.6154C83.5525 46.892 79.062 48.713 75.51 50.1171C75.2984 49.3844 75.099 48.6487 74.8966 47.916C74.3046 48.5076 73.7188 49.1085 73.1298 49.7063C73.2004 49.038 73.2832 48.3789 73.3691 47.7167C72.3507 47.0974 71.3324 46.4659 70.3785 45.7577C70.0748 45.3316 69.765 44.9147 69.4583 44.5069C69.3294 44.418 69.0595 44.2494 68.9307 44.1666C68.6485 44.0042 68.0872 43.6761 67.8019 43.5167C65.7131 46.9687 64.4371 50.8253 62.7255 54.4735C61.9587 54.5317 61.198 54.5961 60.4373 54.6605C60.5079 53.4894 60.5723 52.3091 60.6367 51.1319C58.1675 49.2587 58.3178 45.9662 57.4805 43.2684C58.4528 41.6252 60.1367 40.2671 60.3361 38.2713V38.2683Z" fill="#9DE8CB"/>
<path d="M90.2552 34.9111C90.8349 35.1932 91.4146 35.4783 92.0066 35.7603C98.2301 39.246 104.475 42.7041 110.895 45.8341C110.785 46.1499 110.573 46.7753 110.469 47.0911C112.229 48.9857 113.646 51.2205 113.922 53.8478C110.926 52.0973 107.748 50.6932 104.708 49.0378C104.052 46.6741 102.304 44.9666 100.089 44.0131C98.4847 41.3399 95.6229 39.666 92.9176 38.2742C91.9575 37.52 90.9974 36.7659 90.0312 36.0332C90.0895 35.7511 90.2061 35.1962 90.2582 34.9111H90.2552Z" fill="#7A8899"/>
<path d="M8.94595 37.3544C9.89988 37.2655 10.8599 37.2011 11.82 37.1367C11.6452 38.2649 11.4212 39.3839 11.3936 40.5304C11.9979 40.9749 12.6635 41.3428 13.3138 41.7352C13.4886 42.0173 13.8475 42.5998 14.0223 42.8818C17.0436 43.2619 19.752 41.6709 22.669 41.2907C22.9788 41.6463 23.6046 42.3606 23.9205 42.7193C21.8777 43.8199 19.8226 44.9143 17.8196 46.0885C17.3565 46.3399 16.4148 46.8488 15.9516 47.1002C14.7861 47.5447 14.372 48.6085 14.4517 49.798C11.6666 51.8397 8.21899 48.8783 5.3204 50.3314C4.70694 51.4136 4.41247 52.6429 4.09041 53.8355C4.06587 49.2032 3.96771 44.5741 4.04439 39.9357C5.70073 39.1233 7.29268 38.1699 8.94902 37.3544H8.94595Z" fill="#F3D15C"/>
<path d="M120.684 40.5402C121.614 38.0876 124.016 36.4689 126.65 36.5456C129.828 37.7381 133.061 38.7866 136.116 40.2888C136.226 45.4544 136.392 50.6262 136.285 55.798C135.383 54.348 134.892 52.668 133.926 51.27C132.165 50.3565 130.138 50.2277 128.23 49.8261C128.12 50.2645 128.018 50.709 127.914 51.1474C127.129 51.5092 126.341 51.8678 125.561 52.2357C125.393 52.904 125.239 53.5816 125.098 54.2652C124.887 54.0138 124.448 53.5172 124.227 53.2719C123.957 53.3179 123.42 53.4007 123.151 53.4467C123.151 52.1254 123.157 50.8132 123.227 49.4981C123.325 49.0413 123.509 48.1277 123.608 47.674C124.046 47.346 124.485 47.0241 124.93 46.7022C124.123 45.246 123.448 43.7254 122.887 42.168C121.191 42.1619 119.053 42.7873 118.074 40.951C118.939 40.8099 119.807 40.675 120.684 40.5402Z" fill="#FBCA80"/>
<path d="M136.43 45.54C137.623 43.0078 137.81 40.0923 139.472 37.7471C139.666 40.4142 139.877 43.1059 139.319 45.7454C138.874 47.9037 138.874 50.111 138.926 52.309C138.874 60.8286 138.933 69.3573 138.54 77.8645C138.264 78.7781 137.948 79.6794 137.644 80.5838C137.497 77.886 137.611 75.1146 136.651 72.5395C136.368 63.5478 136.54 54.5439 136.433 45.54H136.43Z" fill="#D4BDA7"/>
<path d="M50.4738 43.8082C53.6822 41.8309 57.0409 40.0988 60.3321 38.2686C60.1328 40.2643 58.4519 41.6255 57.4765 43.2656C58.3139 45.9634 58.1666 49.2559 60.6327 51.1291C60.5683 52.3063 60.5039 53.4866 60.4334 54.6577C61.1941 54.5933 61.9547 54.5289 62.7216 54.4707C61.4333 57.7111 59.8352 60.8197 58.3783 63.9896C55.9428 63.8271 54.8539 66.3011 52.9123 67.2883C52.3572 66.2643 51.8173 65.2465 51.2805 64.2226C50.6886 64.0172 50.0935 63.8118 49.5077 63.6095C49.4555 63.0239 49.4034 62.4322 49.3604 61.8436C48.9739 61.7394 48.5875 61.6382 48.2071 61.534C48.1182 59.48 46.4158 58.269 45.2625 56.7822C44.8239 55.4946 44.8515 54.1089 44.7227 52.7753C44.968 52.7048 45.4711 52.5577 45.7165 52.4841C44.738 48.7409 48.2224 46.1841 50.4708 43.8021L50.4738 43.8082Z" fill="#91E1C5"/>
<path d="M28.7086 77.7939C29.4754 78.3212 30.1073 78.9988 30.6747 79.7315C29.4233 80.3047 28.1412 79.0478 28.7086 77.7939Z" fill="#91E1C5"/>
<path d="M3.48805 39.4209C3.62302 39.5497 3.89907 39.8072 4.04324 39.9359C3.96655 44.5743 4.06165 49.2035 4.08925 53.8357C3.92669 60.4821 4.09539 67.1346 4.24262 73.781C3.85614 77.8001 4.39598 81.8376 4.01564 85.8567C3.20894 89.1278 3.40218 92.5277 2.97889 95.8508C2.97276 96.5529 2.29489 96.933 1.90841 97.4297C1.69063 95.9306 1.69063 94.2935 0.601736 93.1132C0.518919 83.4532 0.620134 73.7902 0.672278 64.1303C2.51572 67.4872 0.614001 71.6013 2.53413 74.9307C3.59235 71.5553 3.10772 67.9808 3.42365 64.5104C3.68744 56.3312 3.74571 48.1336 3.34083 39.9605L3.48805 39.4209Z" fill="#B68A41"/>
<path d="M0.386719 40.059C1.36519 40.0406 2.35286 40.0069 3.33746 39.9609C3.74234 48.134 3.68407 56.3317 3.42028 64.5109C3.10435 67.9812 3.58897 71.5558 2.53076 74.9311C0.610628 71.6018 2.51235 67.4846 0.668905 64.1307C0.3223 56.1109 0.721054 48.0758 0.386719 40.056V40.059Z" fill="#C9A35B"/>
<path d="M136.113 40.2891L136.307 40.3994C136.371 42.1131 136.371 43.8269 136.429 45.5375C136.54 54.5414 136.365 63.5453 136.647 72.5369C136.402 80.7989 136.248 89.0885 136.794 97.3383C137.021 100.134 137.935 102.857 137.748 105.698C137.607 111.539 137.846 117.388 137.543 123.228C137.15 127.511 137.497 131.827 137.11 136.116C136.865 134.939 136.626 133.759 136.448 132.575C136.816 128.17 136.711 123.74 136.776 119.328C136.757 118.059 136.745 116.796 136.693 115.542C136.546 110.095 136.727 104.644 136.57 99.2022C136.448 96.44 136.273 93.684 136.294 90.9187C136.3 88.6134 136.346 86.3018 136.307 83.9964C136.417 74.6001 136.423 65.1977 136.282 55.8014C136.392 50.6296 136.224 45.4578 136.113 40.2921V40.2891Z" fill="#772407"/>
<path d="M71.4509 168.618C76.4966 165.939 81.4595 163.106 86.3948 160.228C86.3426 160.654 86.2414 161.503 86.1954 161.929C85.2997 162.469 84.3458 162.953 83.6679 163.771C83.9501 164.608 84.7967 164.989 85.447 165.516C86.0973 167.371 86.723 169.244 87.4131 171.092C86.5757 171.846 85.7445 172.601 84.9194 173.358C85.3642 173.585 86.2475 174.026 86.6923 174.253C80.8276 177.775 74.8495 181.086 68.8682 184.397C61.9914 180.642 55.4396 176.335 48.7192 172.322C48.7774 170.304 47.5413 168.631 46.6641 166.917C48.7253 166.111 50.8141 165.344 52.9152 164.636C52.6637 163.695 52.4061 162.763 52.1361 161.828C52.6514 161.564 53.1667 161.307 53.6882 161.049C55.8537 162.318 58.0069 163.618 60.197 164.848C63.2765 166.567 66.4205 168.171 69.6504 169.587C70.1013 169.348 71.0031 168.861 71.454 168.615L71.4509 168.618Z" fill="#772407"/>
<path d="M23.9227 42.7201C25.0822 42.0885 26.2416 41.4509 27.401 40.8193C27.7231 42.8917 24.7264 43.2075 23.9595 44.9212C25.3306 44.8108 26.7109 44.7587 28.0912 44.7342C25.6097 46.4142 22.9688 47.8459 20.3708 49.3266C19.1009 50.0164 17.8127 49.578 16.7422 48.7717C17.1348 47.8888 17.5489 47.012 17.8188 46.0862C19.8218 44.9151 21.8799 43.8206 23.9197 42.717L23.9227 42.7201Z" fill="#7B4C15"/>
<path d="M84.1742 42.6152C88.9377 45.1015 93.6982 47.6 98.3636 50.2794C96.6612 51.7234 96.2256 53.9828 96.7256 56.0828C96.4097 58.8511 97.0415 61.88 95.1981 64.2436C95.0294 64.0964 94.7012 63.7929 94.5356 63.6397C93.5356 65.4944 92.3179 67.2142 91.0879 68.9218C91.4345 69.63 91.7903 70.332 92.1461 71.0463C89.1432 71.7147 86.0361 71.2517 83.0086 71.6901C82.1069 71.684 81.2173 71.6963 80.3278 71.684C80.7971 71.1046 80.8953 70.4731 80.6192 69.7833C77.92 61.4814 73.5644 53.8693 70.3867 45.7606C71.3406 46.4688 72.359 47.1003 73.3773 47.7196C73.2945 48.3818 73.2086 49.0409 73.1381 49.7092C73.7239 49.1114 74.3098 48.5105 74.9048 47.9189C75.1042 48.6516 75.3036 49.3873 75.5183 50.12C79.0702 48.7159 83.5608 46.8919 84.1804 42.6183L84.1742 42.6152Z" fill="#95D8CF"/>
<path d="M25.5454 83.1771C25.5914 80.3107 24.889 77.432 25.4687 74.584C25.9656 75.1818 26.4871 75.7765 27.033 76.3498C26.6711 77.8581 26.6404 79.4032 26.6926 80.9483C26.6987 82.6988 26.6803 84.4585 26.7386 86.2152C26.6558 88.7076 26.5852 91.1938 26.4411 93.6862C26.254 93.441 25.8797 92.9535 25.6926 92.7083C25.5393 89.5322 25.5393 86.3501 25.5454 83.1771Z" fill="#95D8CF"/>
<path d="M41.818 43.7865C42.9314 43.624 44.0541 43.5045 45.1767 43.3818C44.5847 44.3015 43.9989 45.2182 43.3793 46.1134C41.0972 47.4071 38.7262 48.5352 36.4196 49.7768C36.5239 49.2036 36.6312 48.6303 36.7478 48.057C35.846 48.0631 34.9503 48.0754 34.0547 48.0815C35.4411 47.2967 36.8122 46.4843 38.2047 45.7117C39.3979 45.0496 40.6034 44.4119 41.8211 43.7865H41.818Z" fill="#78D6CA"/>
<path d="M122.743 52.1988C122.865 51.2913 123.04 50.3962 123.227 49.501C123.157 50.8162 123.151 52.1283 123.151 53.4496C123.203 69.762 122.964 86.0776 123.356 102.39C123.362 104.864 123.344 107.335 123.408 109.809C123.04 108.803 122.635 107.813 122.273 106.808C122.298 99.9743 122.899 93.147 122.614 86.3136C123.059 78.4502 122.654 70.5591 122.743 62.6895C122.819 59.1916 122.865 55.6936 122.743 52.1988Z" fill="#4E302A"/>
<path d="M40.0237 49.5958C43.4898 47.6307 46.827 45.4295 50.4771 43.8047C48.2288 46.1867 44.7412 48.7435 45.7228 52.4867C45.4774 52.5572 44.9744 52.7044 44.729 52.7779C44.8578 54.1115 44.8333 55.4972 45.2688 56.7848C46.4221 58.2716 48.1245 59.4826 48.2134 61.5366C48.5938 61.6408 48.9802 61.742 49.3667 61.8462C49.4127 62.4318 49.4649 63.0234 49.514 63.612C50.0998 63.8113 50.6918 64.0167 51.2869 64.2252C51.8206 65.2491 52.3635 66.2669 52.9187 67.2908C54.8572 66.3068 55.9461 63.8328 58.3846 63.9922C57.3785 66.2332 56.3602 68.4742 55.5044 70.7796C55.8326 70.9727 56.4829 71.3529 56.8049 71.546C52.7653 71.592 48.7901 72.4013 44.7627 72.6405C43.9253 72.7048 43.0941 72.7692 42.2629 72.8336C40.1802 71.9905 38.4747 70.5343 37.3398 68.603C37.5392 67.4901 37.6957 66.362 37.8153 65.2399C38.4073 64.1639 39.4716 63.1399 39.2078 61.8002C38.8674 59.7125 38.165 57.6646 38.4287 55.5217C38.1527 54.9423 37.8797 54.3629 37.6098 53.7896C38.4471 52.41 39.2661 51.0152 40.0268 49.5958H40.0237Z" fill="#81D2C0"/>
<path d="M62.7243 54.4733C64.4389 50.8282 65.7149 46.9716 67.8007 43.5166C67.3743 47.4897 65.8744 51.2329 64.5279 54.9608C62.7765 59.7463 60.9913 64.5196 58.8135 69.1242C58.3227 70.0317 57.8013 70.9207 57.2615 71.7975L56.8044 71.5461C56.4824 71.353 55.8321 70.9728 55.5039 70.7797C56.3597 68.4743 57.378 66.2333 58.3841 63.9923C59.8411 60.8224 61.4391 57.7138 62.7274 54.4733H62.7243Z" fill="#55B4BA"/>
<path d="M67.8036 43.5167C68.0858 43.6792 68.6471 44.0072 68.9324 44.1667C69.5949 45.9815 70.2912 47.7872 70.9568 49.6082C69.9568 50.019 68.9661 50.4329 67.9723 50.8437C66.9018 56.834 67.095 62.9531 66.9417 69.0109C66.9938 73.6554 66.6503 78.3245 67.2975 82.9352C67.1625 84.1462 66.9877 85.3571 66.8865 86.5742C66.4172 83.2449 64.3467 80.4827 63.399 77.3128C62.4573 74.2992 60.6077 71.6842 58.8164 69.1213C60.9942 64.5166 62.7794 59.7434 64.5308 54.9579C65.8773 51.23 67.3803 47.4868 67.8036 43.5137V43.5167Z" fill="#CAFDFB"/>
<path d="M68.9319 44.167C69.0607 44.2498 69.3307 44.4184 69.4595 44.5073C69.7693 44.912 70.0791 45.332 70.3797 45.7581C73.5574 53.8668 77.913 61.4789 80.6122 69.7807C80.8882 70.4705 80.7931 71.102 80.3208 71.6815L79.7595 71.3994C76.4989 64.2748 73.677 56.9539 70.9502 49.6116C70.2877 47.7876 69.5914 45.9849 68.9258 44.1701L68.9319 44.167Z" fill="#6FB1C6"/>
<path d="M20.3711 49.3264C22.9691 47.8457 25.61 46.414 28.0915 44.734L28.6467 44.6758C29.5945 47.0456 28.4718 49.3969 27.6529 51.6073C27.0731 51.9476 26.5118 52.3093 25.972 52.7017L25.5333 53.088C25.5333 59.3726 25.4168 65.6665 25.4628 71.9511C23.4721 66.393 25.7266 60.2801 23.9476 54.7343C21.6348 55.7 21.5888 58.3732 21.2269 60.4855C20.8925 60.1053 20.5705 59.7313 20.2484 59.3573C20.1441 56.0096 20.3466 52.6649 20.3711 49.3233V49.3264Z" fill="#457580"/>
<path d="M110.895 45.835C113.775 47.2973 116.778 48.5021 119.652 49.989C119.75 50.3354 119.934 51.0252 120.033 51.3746C119.928 53.7444 119.898 56.1264 120.143 58.4993C120.103 60.2007 120.008 61.8991 119.916 63.5944C119.33 65.7465 118.968 67.9477 118.441 70.1059C118.266 70.1059 117.925 70.1182 117.757 70.1182C117.143 68.4045 116.827 66.5559 115.772 65.0353C114.643 68.7202 115.116 72.6167 114.315 76.3507C114.199 68.849 114.116 61.3504 113.923 53.8486C113.646 51.2214 112.226 48.9865 110.469 47.0919C110.573 46.7761 110.785 46.1507 110.895 45.835Z" fill="#7B7C99"/>
<path d="M138.924 52.3097C138.872 50.1147 138.872 47.9043 139.317 45.7461C138.842 74.4439 139.415 103.157 139.213 131.867C137.648 126.836 139.194 121.484 138.047 116.392C137.885 114.144 137.86 111.891 138.035 109.647C138.415 105.101 138.087 100.533 138.48 95.9864C138.707 89.9532 139.299 83.877 138.538 77.8621C138.93 69.3549 138.872 60.8262 138.924 52.3066V52.3097Z" fill="#86463E"/>
<path d="M15.9492 47.0976C16.4124 46.8462 17.354 46.3373 17.8172 46.0859C17.5473 47.0148 17.1332 47.8886 16.7406 48.7715C17.8111 49.5777 19.0993 50.0131 20.3692 49.3264C20.3447 52.668 20.1422 56.0126 20.2465 59.3603C20.3447 68.6616 20.3569 77.9721 20.222 87.2733C18.9276 89.6768 19.6024 92.5678 18.3325 94.9896C17.9 94.3213 17.4767 93.6438 17.0504 92.9724C16.9982 95.5476 16.7406 98.1258 16.5872 100.701C16.5995 98.6194 16.3602 96.5593 15.9738 94.5237C16.2836 78.7201 16.3541 62.9012 15.9492 47.0945V47.0976ZM17.6117 52.7783C17.1087 59.6822 17.67 66.6199 17.5718 73.536C17.6362 76.9696 17.5013 80.4154 17.6945 83.8459C17.5964 84.6706 18.0227 85.3144 18.6423 85.811C18.9337 84.9741 19.2987 84.1371 19.2742 83.2297C19.2282 74.4067 19.2098 65.5837 19.4551 56.7668C19.584 55.2401 19.0564 53.5202 17.6117 52.7814V52.7783Z" fill="#544529"/>
<path d="M14.4482 49.7955C14.3715 48.6029 14.7825 47.5422 15.9481 47.0977C16.353 62.9012 16.2824 78.7201 15.9726 94.5268C15.7733 98.5857 15.9542 102.648 15.7273 106.707C15.0126 109.683 15.6291 112.872 14.2182 115.686C14.1537 113.053 14.0556 110.41 14.1415 107.77C14.212 105.858 14.2304 103.945 14.3102 102.032C14.7672 96.8291 14.8838 91.5531 14.1415 86.3751C13.6844 81.8226 14.1415 77.2363 13.936 72.6777C14.0402 65.0533 14.2335 57.4259 14.4451 49.8016L14.4482 49.7955Z" fill="#FFFB7B"/>
<path d="M27.6496 51.6075C29.7691 50.4089 31.9285 49.2838 34.048 48.0851C34.9437 48.0789 35.8393 48.0667 36.7411 48.0605C36.6245 48.6338 36.5141 49.2071 36.4129 49.7804C33.1063 51.6167 29.763 53.3672 26.3675 55.0166C26.2448 54.244 26.1037 53.4715 25.9688 52.705C26.5086 52.3126 27.0699 51.9509 27.6496 51.6106V51.6075Z" fill="#67C9C6"/>
<path d="M101.891 47.7041C102.826 48.1486 103.771 48.5809 104.707 49.0377C107.749 50.6931 110.924 52.0972 113.921 53.8477C113.307 54.2585 112.62 54.4793 111.918 54.6203C111.86 54.9759 111.814 55.3284 111.783 55.6902C107.961 53.906 104.109 52.1616 100.492 49.9788C100.955 49.2185 101.422 48.4583 101.891 47.7041Z" fill="#AADBD4"/>
<path d="M94.6985 123.173C94.266 120.19 92.6434 117.492 92.625 114.438C93.0636 115.744 93.5268 117.041 93.9715 118.347C94.8212 121.18 96.1095 123.853 97.3855 126.52C96.5788 125.328 95.6892 124.209 94.6985 123.173Z" fill="#F4F9FA"/>
<path d="M79.9058 146.352C83.4639 144.421 86.9238 142.327 90.4543 140.355C88.4176 142.345 85.7705 143.486 83.3903 144.988C78.7433 147.603 74.2068 150.399 69.4985 152.897C69.3298 152.787 69.0016 152.563 68.8359 152.447C72.5995 150.552 76.2281 148.409 79.9058 146.355V146.352Z" fill="#F4F9FA"/>
<path d="M73.4805 152.244C73.4866 151.003 74.8147 150.537 75.8055 151.079C75.1429 151.665 74.3485 152.085 73.4805 152.244Z" fill="#F4F9FA"/>
<path d="M5.31988 50.3323C8.21848 48.8761 11.6661 51.8406 14.4512 49.7988C14.2396 57.4232 14.0463 65.0506 13.9421 72.6749C13.8838 73.1256 13.7611 74.0269 13.6967 74.4837C12.4391 70.2071 13.6139 65.3909 11.1631 61.43C10.6938 61.7213 10.2153 62.0094 9.74599 62.3007C8.74605 61.896 7.76759 61.381 6.68484 61.2369C5.80759 61.8623 4.77697 62.6532 4.84139 63.858C4.5776 67.1628 5.03462 70.5228 4.24326 73.7816C4.09603 67.1352 3.92733 60.4827 4.08989 53.8363C4.41196 52.6438 4.70949 51.4144 5.31988 50.3323Z" fill="#E0B647"/>
<path d="M32.3037 54.0716C34.733 52.3395 37.4015 50.9998 40.0241 49.5957C39.2634 51.012 38.4444 52.41 37.607 53.7896C37.877 54.3628 38.1469 54.9422 38.426 55.5217C38.1622 57.6676 38.8646 59.7155 39.2051 61.8002C39.4689 63.1399 38.4046 64.1638 37.8126 65.2399C37.6899 66.3619 37.5365 67.487 37.3371 68.6029C38.472 70.5343 40.1775 71.9905 42.2601 72.8335C39.9198 72.9684 37.6009 73.3302 35.2606 73.4252C33.3588 72.9225 31.3958 72.8642 29.4419 72.9807C29.2671 72.8703 28.9205 72.6465 28.7456 72.5362C28.8162 70.0898 29.5585 67.7629 30.1044 65.4054C30.6443 63.2349 28.2794 61.5917 28.6935 59.4151C29.6535 57.4898 31.1872 55.911 32.3006 54.0685L32.3037 54.0716Z" fill="#75C6B7"/>
<path d="M67.9701 50.8468C68.9639 50.436 69.9547 50.0221 70.9546 49.6113C73.6814 56.9536 76.5033 64.2775 79.7639 71.3991L80.3252 71.6812C81.2147 71.6934 82.1042 71.6812 83.006 71.6873C90.1068 72.6468 97.2782 73.1619 104.425 73.6953C106.544 73.9406 108.664 74.1521 110.771 74.52C107.593 75.6849 104.701 77.4569 101.603 78.7782C98.4652 80.1884 95.3335 81.6323 92.0607 82.7145C86.1439 84.8207 80.1718 86.7459 74.2121 88.711C72.1692 89.4069 70.1264 90.0691 68.0468 90.6301C68.0775 89.6 68.6971 88.806 69.5467 88.2849C69.378 87.7361 69.2185 87.1966 69.0559 86.6539C68.8106 86.8593 68.3136 87.2671 68.0713 87.4725C67.9088 85.9458 67.6511 84.4313 67.2984 82.9383C66.6542 78.3275 66.9947 73.6585 66.9426 69.014C67.0959 62.9532 66.9027 56.8341 67.9732 50.8468H67.9701Z" fill="#F9FDFC"/>
<path d="M128.229 49.8291C130.136 50.2276 132.167 50.3564 133.925 51.273C134.891 52.671 135.381 54.351 136.283 55.801C136.424 65.1973 136.418 74.5998 136.308 83.9961C135.658 82.8557 134.903 81.7857 134.142 80.7311C132.17 81.4577 130.167 82.2517 128.032 82.2456C127.511 81.4608 126.995 80.6729 126.48 79.8942C126.364 81.9022 126.17 83.9072 125.925 85.9029C125.9 85.3113 125.848 84.1248 125.821 83.5332C125.95 73.769 125.48 64.0171 125.094 54.2682C125.235 53.5846 125.391 52.9101 125.557 52.2387C126.336 51.8708 127.121 51.5122 127.91 51.1504C128.014 50.712 128.115 50.2675 128.225 49.8291H128.229Z" fill="#F5B778"/>
<path d="M98.3627 50.2794C102.958 52.4561 107.08 55.5463 111.85 57.3642C112.616 62.7292 112.043 68.1523 112.276 73.5479C109.66 73.6123 107.043 73.6368 104.427 73.6951C97.28 73.1617 90.1086 72.6466 83.0078 71.6871C86.0352 71.2487 89.1424 71.7116 92.1453 71.0433C91.7895 70.329 91.4367 69.6269 91.0871 68.9188C92.3171 67.2112 93.5348 65.4913 94.5347 63.6366C94.7034 63.7899 95.0316 64.0934 95.1973 64.2405C97.0407 61.8769 96.4088 58.8511 96.7248 56.0797C96.2217 53.9797 96.6604 51.7203 98.3627 50.2764V50.2794Z" fill="#8FC2C0"/>
<path d="M120.033 51.3742C120.331 52.2632 120.659 53.1461 120.987 54.0352C121.567 53.422 122.153 52.8058 122.748 52.1988C122.871 55.6968 122.825 59.1947 122.748 62.6896C122.156 62.8183 121.561 62.9471 120.975 63.0759C120.717 61.543 120.414 60.0224 120.144 58.4957C119.898 56.126 119.932 53.7439 120.033 51.3711V51.3742Z" fill="#8A5247"/>
<path d="M17.6109 52.7785C19.0556 53.5203 19.5831 55.2402 19.4543 56.7638C19.2089 65.5807 19.2273 74.4037 19.2733 83.2268C19.2979 84.1342 18.9329 84.9711 18.6415 85.8081C18.0219 85.3114 17.5986 84.6676 17.6937 83.843C17.5004 80.4094 17.6354 76.9636 17.571 73.5331C17.6692 66.6169 17.1078 59.6793 17.6109 52.7754V52.7785Z" fill="#645032"/>
<path d="M25.5336 53.0874L25.9722 52.7012C26.1072 53.4676 26.2483 54.2401 26.371 55.0127C26.8096 61.1778 26.3249 67.3643 26.5703 73.5417L27.2605 73.7746C28.1377 73.793 29.0211 73.7808 29.9014 73.7287C30.8799 73.6765 31.8676 73.6122 32.8522 73.5815C33.4012 73.8145 33.9472 74.0506 34.4962 74.3019C34.8183 75.66 35.1588 77.012 35.5084 78.367L34.8827 78.0635C32.6589 76.9936 30.4627 75.8685 28.1868 74.9151C27.3034 74.5748 26.3955 74.2897 25.4998 74.0076C25.506 73.324 25.4876 72.6373 25.46 71.9536C25.414 65.669 25.5305 59.3752 25.5305 53.0905L25.5336 53.0874Z" fill="#B9FCF4"/>
<path d="M123.151 53.4501C123.421 53.4042 123.958 53.3214 124.228 53.2754C124.445 53.5206 124.884 54.0173 125.099 54.2687C125.485 64.0206 125.955 73.7695 125.826 83.5336C125.614 83.7973 125.194 84.3338 124.982 84.6036C124.556 86.4583 124.691 88.3713 124.7 90.2659C124.804 95.6431 124.243 101.008 124.225 106.385C123.909 105.058 123.587 103.73 123.36 102.391C122.967 86.0782 123.206 69.7626 123.154 53.4501H123.151Z" fill="#FBDB9D"/>
<path d="M113.921 53.8486C114.115 61.3503 114.197 68.849 114.314 76.3507C114.179 83.3589 114.283 90.3731 114.139 97.3782C114.121 100.058 113.964 102.743 114.151 105.429C114.157 105.861 114.164 106.716 114.17 107.149C113.912 107.237 113.397 107.412 113.139 107.504C113.133 105.726 113.115 103.948 113.115 102.17C113.133 95.1188 112.593 88.0708 112.793 81.0136C112.179 80.9032 111.569 80.7959 110.961 80.6917C112.139 78.9259 112.547 76.829 112.366 74.7351L112.378 74.079C111.829 74.2139 111.296 74.3611 110.768 74.5236C108.661 74.1557 106.541 73.9442 104.422 73.6989C107.038 73.6407 109.655 73.6161 112.271 73.5517C112.038 68.1562 112.612 62.733 111.845 57.368C111.832 56.948 111.799 56.1111 111.78 55.6942C111.814 55.3324 111.857 54.9799 111.915 54.6242C112.618 54.4832 113.308 54.2625 113.918 53.8517L113.921 53.8486Z" fill="#B4D0D1"/>
<path d="M27.4519 57.0428C29.0315 56.0004 30.6726 55.047 32.3044 54.0752C31.1909 55.9177 29.6573 57.4965 28.6972 59.4217C28.2862 61.5984 30.6511 63.2416 30.1082 65.4121C29.5591 67.7696 28.8199 70.0934 28.7494 72.5428C28.9242 72.6532 29.2708 72.877 29.4456 72.9874L29.9027 73.7354C29.0193 73.7875 28.1359 73.7998 27.2617 73.7814C27.3783 68.2049 27.3844 62.6254 27.455 57.0489L27.4519 57.0428Z" fill="#68B8AF"/>
<path d="M21.2296 60.4885C21.5915 58.3763 21.6345 55.703 23.9503 54.7373C25.7293 60.2831 23.4748 66.3961 25.4655 71.9542C25.4901 72.6378 25.5115 73.3245 25.5054 74.0082L25.4747 74.5876C24.895 77.4356 25.5974 80.3143 25.5514 83.1807C25.5453 86.3567 25.5453 89.5389 25.6986 92.7119C25.7692 94.3735 25.7876 96.0412 25.7692 97.7089C24.2601 96.0228 24.7692 93.5948 24.3643 91.5316C24.1466 92.626 23.9319 93.7143 23.7202 94.8088C22.7663 92.2704 21.9811 89.6768 21.0977 87.1201C20.8523 88.659 20.5946 90.198 20.4014 91.7431C20.383 90.2501 20.2787 88.7602 20.2266 87.2734C20.3615 77.9721 20.3493 68.6616 20.2511 59.3603C20.5732 59.7344 20.8952 60.1084 21.2296 60.4885Z" fill="#378998"/>
<path d="M120.138 58.499C120.408 60.0257 120.712 61.5463 120.969 63.0791C121.555 62.9504 122.147 62.8216 122.742 62.6929C122.653 70.5625 123.058 78.4535 122.613 86.317C122.291 87.0068 121.963 87.7027 121.629 88.3894C121.383 87.764 121.153 87.1478 120.92 86.5285C120.733 88.2729 120.445 90.0142 120.141 91.7463C120.083 82.3623 120.423 72.9721 119.914 63.5942C120.003 61.8989 120.101 60.2005 120.141 58.499H120.138Z" fill="#7F5460"/>
<path d="M4.84156 63.8546C4.77715 62.6497 5.80777 61.8588 6.68501 61.2334C7.76777 61.3744 8.74623 61.8895 9.74617 62.2972C10.2155 62.0059 10.694 61.7178 11.1633 61.4265C13.611 65.3874 12.4393 70.2036 13.6969 74.4802C13.7735 76.246 13.795 78.0211 13.6846 79.793C13.4085 80.397 13.1233 81.004 12.8349 81.6079C12.4362 81.2921 12.0436 80.9825 11.6479 80.6729C10.7124 81.1879 9.77991 81.7029 8.84439 82.218C8.45177 81.7551 8.06528 81.2891 7.68494 80.8262C6.82916 81.0959 5.97646 81.3749 5.12682 81.6569C4.8753 83.0794 4.49496 84.4835 4.01953 85.8508C4.39988 81.8317 3.85696 77.7942 4.24651 73.7751C5.03787 70.5163 4.58085 67.1532 4.84464 63.8515L4.84156 63.8546Z" fill="#D6A739"/>
<path d="M118.442 70.1023C118.969 67.9441 119.331 65.7429 119.917 63.5908C120.426 72.9687 120.086 82.3589 120.144 91.7429C120.009 93.2114 119.933 94.686 119.969 96.1606C119.383 95.7927 118.804 95.4279 118.224 95.06C116.853 95.8142 115.491 96.5867 114.145 97.3777C114.286 90.3695 114.184 83.3552 114.319 76.3502C115.12 72.6162 114.648 68.7197 115.776 65.0348C116.835 66.5553 117.147 68.4039 117.761 70.1176C117.93 70.1176 118.27 70.1054 118.445 70.1054L118.442 70.1023Z" fill="#8782A3"/>
<path d="M57.2617 71.7973C57.8016 70.9205 58.3261 70.0315 58.8138 69.124C60.6051 71.6869 62.4547 74.302 63.3963 77.3155C64.3441 80.4854 66.4115 83.2476 66.8838 86.5769C66.9084 87.3617 66.9421 88.1404 66.9728 88.9283C63.9454 84.2531 61.056 79.4738 58.3445 74.6055C57.8599 73.7164 57.5592 72.7569 57.2617 71.7973Z" fill="#9EFCFB"/>
<path d="M44.7599 72.6403C48.7872 72.4012 52.7625 71.5919 56.8021 71.5459L57.2591 71.7973C57.5566 72.7568 57.8572 73.7164 58.3419 74.6054C61.0534 79.4737 63.9428 84.2531 66.9702 88.9283C66.9395 88.1435 66.9058 87.3617 66.8812 86.5769C66.9855 85.3598 67.1573 84.1489 67.2922 82.938C67.6481 84.4309 67.9057 85.9454 68.0652 87.4721C68.3106 87.2667 68.8075 86.859 69.0498 86.6536C69.2124 87.1931 69.3719 87.7357 69.5406 88.2845C68.6909 88.8057 68.0713 89.5997 68.0407 90.6298L68.0928 91.249C67.099 90.9149 66.0745 90.6757 65.0715 90.4305C62.4551 89.6457 59.8786 88.7352 57.345 87.7266C52.9189 85.8136 48.5695 83.7412 44.0513 82.0459L44.0391 81.9416C44.2568 81.9171 44.6955 81.8711 44.9163 81.8435C43.5115 78.8821 45.5942 75.7122 44.7629 72.6403H44.7599Z" fill="#EFFDFC"/>
<path d="M13.6937 74.4836C13.7581 74.0268 13.8808 73.1255 13.939 72.6748C14.1445 77.2335 13.6875 81.8197 14.1445 86.3723C14.8868 91.5502 14.7703 96.8262 14.3133 102.029C14.301 94.6097 13.5065 87.2092 13.6814 79.7964C13.7918 78.0244 13.7703 76.2463 13.6937 74.4836Z" fill="#FAF7C8"/>
<path d="M68.5391 167.064C70.2721 166.491 71.9346 165.73 73.5142 164.811C72.7597 166.368 71.0911 167.012 69.6341 167.735C69.3642 167.567 68.8151 167.232 68.5391 167.067V167.064Z" fill="#FAF7C8"/>
<path d="M29.4414 72.9815C31.3953 72.865 33.3584 72.9233 35.2601 73.426C34.662 73.4659 33.4565 73.5425 32.8492 73.5793C31.8646 73.613 30.8769 73.6774 29.8984 73.7265L29.4414 72.9784V72.9815Z" fill="#59A29D"/>
<path d="M35.2625 73.4254C37.6028 73.3273 39.9217 72.9686 42.262 72.8338C43.0933 72.7694 43.9245 72.705 44.7619 72.6406C45.5931 75.7124 43.5104 78.8823 44.9152 81.8438C44.6975 81.8683 44.2588 81.9143 44.038 81.9419C42.2129 81.3931 40.4554 80.6543 38.7162 79.8879C37.6335 79.3974 36.563 78.8885 35.5078 78.3673C35.1612 77.0154 34.8177 75.6634 34.4956 74.3022C33.9466 74.0508 33.4006 73.8117 32.8516 73.5818C33.4558 73.5419 34.6613 73.4653 35.2625 73.4285V73.4254Z" fill="#D4FCF9"/>
<path d="M136.651 72.5361C137.611 75.1113 137.494 77.8827 137.645 80.5805C137.948 79.6792 138.264 78.7779 138.54 77.8612C139.301 83.8761 138.709 89.9492 138.482 95.9855C138.353 97.1259 138.12 98.2449 137.942 99.3731C137.543 98.7048 137.163 98.0211 136.801 97.3375C136.252 89.0877 136.409 80.7981 136.654 72.5361H136.651Z" fill="#BB8D75"/>
<path d="M25.4994 74.0049C26.3951 74.2869 27.303 74.572 28.1864 74.9123C29.5084 77.4047 31.7812 79.1062 34.051 80.6758C35.4681 81.7335 36.8607 82.834 38.1674 84.0389C42.2008 88.5147 46.8846 92.3714 50.7279 97.022C49.0777 97.2673 48.8968 99.0239 48.4397 100.315C47.4337 103.304 46.4736 106.299 45.5596 109.312C44.1486 113.12 43.1302 117.059 41.7009 120.867C41.8297 118.994 42.1702 117.151 42.6149 115.327C43.4339 111.406 44.897 107.657 45.7589 103.748C45.9338 103.08 45.9123 102.421 45.7068 101.771C45.3786 101.455 44.7222 100.823 44.3909 100.502C44.4492 100.284 44.5596 99.8332 44.6179 99.6064C45.2743 99.6064 45.9338 99.6186 46.5963 99.637C44.6578 94.9741 40.9187 91.4057 37.6398 87.6717C35.1921 85.1272 33.4591 81.9603 30.6739 79.7316C30.1065 78.9989 29.4746 78.3214 28.7078 77.7941C28.1342 77.3311 27.5729 76.8468 27.0331 76.3501C26.484 75.7768 25.9626 75.1852 25.4688 74.5843L25.4994 74.0049Z" fill="#19868D"/>
<path d="M110.773 74.5197C111.301 74.3572 111.838 74.2101 112.384 74.0752L112.371 74.7313C108.273 77.4873 105.264 81.4175 101.933 84.9768C99.5347 87.23 97.3508 89.6918 95.1484 92.132C94.4583 92.0156 93.7773 91.8991 93.0933 91.7856C92.7191 91.2001 92.3511 90.6207 91.9922 90.0413C95.5349 86.3716 98.7249 82.1839 103.191 79.5628C102.792 79.3696 101.998 78.9772 101.605 78.778C104.703 77.4566 107.599 75.6877 110.773 74.5197Z" fill="#625F82"/>
<path d="M28.1836 74.916C30.4595 75.8694 32.6557 76.9976 34.8795 78.0645C34.5973 78.9351 34.3182 79.8027 34.0483 80.6795C31.7815 79.1068 29.5056 77.4084 28.1836 74.916Z" fill="#12BABF"/>
<path d="M101.928 84.9799C105.259 81.4176 108.268 77.4904 112.366 74.7344C112.546 76.8282 112.139 78.9282 110.961 80.691C108.222 85.0504 104.891 89.0327 101.204 92.6195C100.553 90.4184 100.952 88.1375 102.305 86.2767C102.216 85.9486 102.023 85.3048 101.924 84.9829L101.928 84.9799Z" fill="#7EA5B0"/>
<path d="M25.6914 92.7091C25.8785 92.9544 26.2527 93.4418 26.4398 93.6871C26.3049 95.876 26.2589 98.0741 26.3294 100.269C26.3478 101.597 26.3938 102.915 26.4705 104.242C26.446 106.18 26.4368 108.12 26.5932 110.052C26.3355 116.085 26.4705 122.121 26.5625 128.154C29.0808 129.991 31.8597 131.426 34.5283 133.023C37.2797 134.678 40.1138 136.193 42.9112 137.768C43.7946 138.277 44.678 138.786 45.5859 139.277C45.2638 139.452 44.6258 139.804 44.3038 139.979C43.1811 139.283 42.08 138.569 40.9604 137.879C36.1018 134.703 30.78 132.232 26.1638 128.716C25.6024 125.76 26.0595 122.673 25.9123 119.666C25.9307 114.926 25.9521 110.187 25.9368 105.444C25.9828 102.863 25.8264 100.278 25.7619 97.7031C25.7804 96.0354 25.762 94.3677 25.6914 92.7061V92.7091Z" fill="#96EFFA"/>
<path d="M26.6913 80.9491C26.6392 79.404 26.6729 77.8589 27.0318 76.3506C27.5716 76.8472 28.1329 77.3285 28.7065 77.7945C28.1391 79.0514 29.4212 80.3053 30.6727 79.732C33.4578 81.9608 35.1908 85.1276 37.6385 87.6721C40.9174 91.4061 44.6565 94.9746 46.595 99.6375C45.9325 99.6191 45.273 99.6068 44.6166 99.6068C44.5583 99.8337 44.4479 100.284 44.3896 100.502C43.3069 99.4903 42.2118 98.5001 41.1751 97.4486C38.4299 94.6404 36.0711 91.492 33.3658 88.6501C31.0193 86.1822 29.4488 83.0154 26.6913 80.946V80.9491Z" fill="#4AA1A0"/>
<path d="M34.882 78.0645L35.5077 78.368C36.566 78.8891 37.6334 79.398 38.7161 79.8885C38.5168 81.2742 38.3358 82.6507 38.1671 84.0425C36.8604 82.8377 35.4679 81.7371 34.0508 80.6795C34.3207 79.8027 34.5998 78.9351 34.882 78.0645Z" fill="#17D6D2"/>
<path d="M92.0599 82.7147C95.3327 81.6325 98.4644 80.1885 101.602 78.7783C101.995 78.9776 102.789 79.37 103.188 79.5631C98.7221 82.1843 95.5321 86.372 91.9894 90.0416C89.8576 92.3409 87.5418 94.4777 85.5634 96.9149C79.7202 95.2594 74.0855 92.954 68.2178 91.3813L68.0951 91.2464L68.043 90.6272C70.1257 90.0661 72.1685 89.404 74.2082 88.708C73.8033 89.499 73.4107 90.2869 73.0212 91.084C75.3462 91.6174 77.5884 90.5628 79.8061 90.0018C83.8917 88.7264 88.1583 87.9539 92.0936 86.2402C93.2807 85.8478 93.615 84.597 94.0721 83.5792C93.3942 83.2879 92.7255 82.9998 92.0538 82.7085L92.0599 82.7147Z" fill="#788DB3"/>
<path d="M15.7297 106.703C15.9566 102.644 15.7757 98.5824 15.975 94.5234C16.3615 96.559 16.6008 98.6192 16.5885 100.701V102.332C16.2204 113.255 16.156 124.19 15.9904 135.113C15.1929 132.035 15.5978 128.841 15.5456 125.704C15.5579 119.368 15.926 113.037 15.7327 106.706L15.7297 106.703Z" fill="#70340B"/>
<path d="M0.239045 141.851C0.245179 131.468 0.232911 121.081 0.450689 110.704C1.48744 115.438 0.122481 120.41 1.78496 125.039C2.3064 125.272 2.85545 125.484 3.34929 125.787C5.41051 129.022 5.45651 133.007 6.82759 136.511C7.61896 136.407 8.41952 136.306 9.21701 136.207C10.2354 136.741 11.2537 137.277 12.272 137.817C12.2905 135.027 12.1678 132.149 13.3303 129.549C13.6339 130.959 13.9744 132.369 14.3425 133.767C14.505 134.751 14.6461 135.751 14.8977 136.729C16.5785 138.988 19.1888 140.239 21.523 141.695C32.3935 147.897 42.8714 154.749 53.6836 161.049C53.1622 161.306 52.6469 161.564 52.1316 161.827C52.4015 162.762 52.6592 163.694 52.9107 164.636C50.8096 165.344 48.7207 166.11 46.6595 166.916C47.5368 168.63 48.7729 170.304 48.7146 172.321C41.62 168.051 34.5713 163.71 27.4951 159.409C19.2225 154.442 10.9868 149.433 2.699 144.491C1.79108 143.749 0.122484 143.28 0.235974 141.851H0.239045Z" fill="#70340B"/>
<path d="M12.8295 81.6108C13.1209 81.0068 13.4031 80.3998 13.6791 79.7959C13.5043 87.2087 14.2987 94.6093 14.311 102.028C14.2343 103.941 14.2128 105.854 14.1423 107.767L13.8509 107.761C13.8202 106.691 13.7926 105.624 13.7404 104.56C13.6576 102.841 13.6576 101.127 13.6362 99.4132C13.5963 97.353 13.719 95.112 12.5289 93.3155C10.3756 92.1628 7.74082 92.6074 5.40968 92.8894C4.96492 93.5669 4.51403 94.2414 4.09381 94.9312C4.01099 91.9115 3.70733 88.8764 4.01099 85.8568C4.48642 84.4925 4.86676 83.0884 5.11828 81.6629C5.96792 81.3809 6.82064 81.1019 7.67641 80.8321C8.05676 81.295 8.44323 81.761 8.83584 82.2239C9.77137 81.7089 10.7038 81.1938 11.6394 80.6788C12.032 80.9884 12.4246 81.2981 12.8264 81.6139L12.8295 81.6108Z" fill="#C89126"/>
<path d="M38.7162 79.8848C40.4553 80.6512 42.216 81.3931 44.0379 81.9388L44.0502 82.043C44.0625 85.1148 46.1114 87.9874 48.8628 89.2565C50.5007 90.0873 52.3626 89.5386 54.0895 89.4252C55.0189 90.1395 55.939 90.9059 57.0402 91.3627C58.1414 91.7305 59.2579 92.077 60.3651 92.451C60.0738 92.9599 59.7916 93.4688 59.5155 93.9777C56.6016 95.0599 53.7551 96.3107 50.7246 97.025C46.8844 92.3743 42.2006 88.5177 38.1641 84.0418C38.3328 82.65 38.5107 81.2735 38.7131 79.8878L38.7162 79.8848Z" fill="#1CECE1"/>
<path d="M126.483 79.8945C126.998 80.6732 127.514 81.458 128.035 82.2459C130.167 82.252 132.173 81.4611 134.145 80.7315C134.906 81.7891 135.66 82.856 136.311 83.9964C136.351 86.3018 136.305 88.6133 136.298 90.9187C134.467 90.9003 132.547 90.6551 130.842 91.4675C129.572 92.0653 128.185 92.2278 126.808 92.1572C126.474 91.2437 126.14 90.3424 125.836 89.4196C125.818 88.2485 125.867 87.0744 125.934 85.9033C126.179 83.9075 126.373 81.9026 126.489 79.8945H126.483Z" fill="#EB9D63"/>
<path d="M110.965 80.6915C111.569 80.7958 112.182 80.9031 112.796 81.0134C112.597 88.0737 113.136 95.1186 113.118 102.17L112.428 102.789C112.403 101.005 112.265 99.2266 112.13 97.4577C109.649 96.5687 107.014 96.9366 104.508 97.4823C102.162 98.0801 99.8764 97.0439 97.7109 96.2958C98.9225 95.1186 100.057 93.8556 101.211 92.617C104.898 89.0302 108.229 85.0509 110.968 80.6885L110.965 80.6915Z" fill="#98BBBB"/>
<path d="M26.6906 80.9492C29.4481 83.0155 31.0216 86.1854 33.365 88.6533C36.0704 91.4921 38.4291 94.6436 41.1743 97.4518C38.5395 99.0551 35.0735 98.7669 32.4693 97.2525C30.5891 96.2868 27.939 95.7258 27.4482 93.3223C27.1016 90.9648 27.1568 88.5705 26.7335 86.2191C26.6752 84.4594 26.6936 82.7028 26.6875 80.9523L26.6906 80.9492Z" fill="#72B9A7"/>
<path d="M44.0508 82.043C48.5689 83.7383 52.9183 85.8107 57.3445 87.7237C57.1267 88.9224 57.0224 90.1394 57.0408 91.3626C55.9396 90.9058 55.0164 90.1394 54.0901 89.4251C52.3632 89.5416 50.5013 90.0873 48.8634 89.2565C46.112 87.9873 44.0631 85.1148 44.0508 82.043Z" fill="#2BF8EA"/>
<path d="M74.2113 88.7113C80.1711 86.7462 86.1462 84.821 92.0599 82.7148C92.7286 83.0061 93.4003 83.2943 94.0782 83.5855C93.6212 84.6033 93.2868 85.851 92.0998 86.2465C88.1614 87.9602 83.8978 88.7328 79.8122 90.0081C77.5945 90.5691 75.3524 91.6237 73.0273 91.0903C73.4138 90.2901 73.8064 89.5053 74.2144 88.7144L74.2113 88.7113Z" fill="#83A1C2"/>
<path d="M124.98 84.6002C125.192 84.3304 125.612 83.7939 125.824 83.5303C125.849 84.1219 125.901 85.3084 125.928 85.9C125.864 87.0711 125.812 88.2453 125.83 89.4164C125.849 92.013 125.753 94.6004 125.83 97.1971C125.913 100.778 125.812 104.365 125.714 107.945C124.619 100.211 125.281 92.3778 124.98 84.5971V84.6002Z" fill="#FFECA4"/>
<path d="M124.699 90.2619C124.693 88.3673 124.558 86.4543 124.981 84.5996C125.285 92.3803 124.619 100.21 125.714 107.948C125.754 108.288 125.843 108.978 125.883 109.318C125.877 113.052 125.883 116.789 125.748 120.523C125.046 121.192 124.343 121.869 123.647 122.547C123.641 120.744 123.601 118.947 123.582 117.148C123.57 114.702 123.524 112.252 123.408 109.806C123.343 107.332 123.362 104.861 123.355 102.387C123.582 103.726 123.904 105.054 124.22 106.381C124.239 101.004 124.8 95.6391 124.696 90.2619H124.699Z" fill="#FDAA61"/>
<path d="M95.1441 92.1358C97.3464 89.6955 99.5334 87.2337 101.929 84.9805C102.027 85.3024 102.22 85.9462 102.309 86.2742C100.957 88.1351 100.558 90.4159 101.208 92.6171C100.055 93.8525 98.92 95.1156 97.7084 96.2959C95.6901 98.1445 94.2362 100.533 92.0001 102.136C91.9817 99.475 93.7914 97.047 93.1227 94.3737C93.8068 93.6318 94.4693 92.8807 95.1472 92.1327L95.1441 92.1358Z" fill="#7393A1"/>
<path d="M2.97908 95.8515C3.40543 92.5283 3.21219 89.1285 4.01583 85.8574C3.71216 88.8771 4.01581 91.9121 4.09863 94.9318C4.03422 95.9619 3.96981 96.9981 3.92993 98.0374C3.88392 99.4997 3.87779 100.968 3.8962 102.43C4.09557 103.911 3.68455 105.754 4.81639 106.931C7.72112 107.955 10.8283 107.697 13.8496 107.762L14.141 107.768C14.0582 110.407 14.1532 113.05 14.2177 115.683C14.0704 119.709 14.3404 123.734 14.2361 127.765C13.6441 124.267 13.7974 120.714 13.5275 117.198C12.4141 117.572 11.3252 118.004 10.2608 118.498C9.59217 118.234 8.92043 117.97 8.26403 117.707C7.62603 118.01 6.99417 118.305 6.36844 118.608C4.27961 117.017 3.50052 114.454 3.07416 111.98C2.63554 111.87 2.19692 111.769 1.7583 111.664C1.47611 109.353 1.50064 106.949 0.540573 104.785C0.411746 100.895 0.604981 97.0042 0.592712 93.1139C1.6816 94.2911 1.68161 95.9282 1.89938 97.4304C2.28586 96.9337 2.96373 96.5536 2.96987 95.8515H2.97908Z" fill="#90510D"/>
<path d="M26.7377 86.2188C27.164 88.5701 27.1057 90.9644 27.4523 93.3219C27.9431 95.7254 30.5902 96.2834 32.4735 97.2521C35.0776 98.7666 38.5437 99.0548 41.1785 97.4514C42.2152 98.4999 43.3103 99.4931 44.393 100.505C44.7212 100.827 45.3776 101.458 45.7089 101.774C44.7151 103.506 44.071 105.536 42.5711 106.912C41.6693 107.639 40.5344 107.274 39.5559 106.976C37.2155 107.761 34.047 106.906 33.9489 104.015C33.3569 104.49 32.771 104.968 32.1821 105.45C30.9 105.232 29.6179 105.011 28.348 104.772C27.9431 103.163 27.4401 101.544 26.3297 100.272C26.2592 98.0768 26.3052 95.8787 26.4401 93.6898C26.5812 91.1974 26.6518 88.7111 26.7377 86.2188Z" fill="#64A99D"/>
<path d="M120.141 91.7428C120.444 90.0107 120.733 88.2724 120.92 86.525C121.153 87.1443 121.383 87.7605 121.628 88.3859C121.963 87.6961 122.291 87.0002 122.613 86.3135C122.895 93.1469 122.297 99.9741 122.272 106.808C121.487 109.849 120.263 112.835 120.346 116.035C120.386 119.901 119.843 123.745 120 127.614C119.901 129.322 120.303 131.621 118.313 132.366C110.926 136.514 103.737 140.984 96.409 145.227C93.173 147.115 89.9185 148.976 86.6457 150.803C86.5629 150.352 86.3819 149.445 86.2991 148.994C84.3146 149.914 82.2656 150.837 80.0234 150.726C80.9068 149.632 81.7749 148.531 82.6582 147.434C89.2376 143.384 95.9212 139.518 102.519 135.505C106.307 133.2 110.292 131.177 113.939 128.647C114.184 123.552 113.997 118.42 114.273 113.313C114.543 114.8 114.963 116.256 115.374 117.712C116.359 116.682 117.334 115.652 118.313 114.613C118.803 114.594 119.297 114.579 119.8 114.573C119.84 112.7 119.852 110.83 119.825 108.957C119.714 104.686 120.217 100.422 119.966 96.1543C119.926 94.6797 120.006 93.2051 120.141 91.7367V91.7428Z" fill="#6E3D73"/>
<path d="M20.3987 91.7432C20.5919 90.1981 20.8496 88.6591 21.0949 87.1201C21.9783 89.6769 22.7635 92.2735 23.7175 94.8088C23.9291 93.7144 24.1438 92.6261 24.3616 91.5316C24.7665 93.5918 24.2573 96.0198 25.7664 97.709C25.8308 100.284 25.9842 102.869 25.9413 105.45C25.1162 106.578 24.3616 107.755 23.6408 108.948C22.9844 107.761 22.3464 106.572 21.7207 105.379C21.417 105.438 20.825 105.56 20.5214 105.625C20.5091 104.285 20.4508 102.945 20.4171 101.612C20.5582 98.319 20.3342 95.0357 20.3987 91.7462V91.7432Z" fill="#25738A"/>
<path d="M18.3312 94.9897C19.6011 92.5679 18.9232 89.6769 20.2207 87.2734C20.2728 88.7603 20.374 90.2502 20.3955 91.7432C20.3311 95.0357 20.5581 98.3191 20.4139 101.609C19.9047 105.143 19.8587 108.788 18.3895 112.121C17.4049 108.932 17.1012 105.609 16.5859 102.332V100.701C16.7393 98.1259 16.997 95.5477 17.0491 92.9725C17.4755 93.6409 17.8987 94.3184 18.3312 94.9897Z" fill="#3D3722"/>
<path d="M57.3457 87.7238C59.8793 88.7354 62.4558 89.6429 65.0722 90.4277C65.5875 90.7557 66.1089 91.0838 66.6396 91.4118C64.2502 92.2242 61.9037 93.1623 59.5204 93.9747C59.7964 93.4658 60.0817 92.9569 60.37 92.448C59.2627 92.074 58.1463 91.7275 57.0451 91.3597C57.0267 90.1365 57.1279 88.9194 57.3488 87.7207L57.3457 87.7238Z" fill="#3FDEDC"/>
<path d="M125.83 89.4191C126.134 90.3388 126.468 91.2432 126.803 92.1567C128.183 92.2272 129.566 92.0678 130.836 91.467C132.545 90.6546 134.465 90.8998 136.293 90.9182C136.274 93.6804 136.446 96.4364 136.569 99.2017C133.535 98.3893 130.569 99.2722 127.723 100.302C127.079 99.2722 126.428 98.2482 125.827 97.1967C125.751 94.6001 125.846 92.0126 125.827 89.416L125.83 89.4191Z" fill="#E18752"/>
<path d="M65.0725 90.4307C66.0786 90.6759 67.1031 90.915 68.0938 91.2492L68.2165 91.3841C68.6674 92.0156 69.1183 92.6533 69.5569 93.3032C73.0353 98.4566 76.7405 103.466 80.6851 108.276C80.2158 108.714 79.7496 109.159 79.2925 109.603C80.8906 112.206 83.3843 114.355 83.964 117.479C80.6053 115.836 77.216 114.251 73.7622 112.816C73.845 112.513 74.0137 111.903 74.1027 111.599C71.9648 109.334 69.4557 107.485 67.097 105.468C67.4528 103 67.2381 100.523 67.1368 98.0489L67.2718 97.5277C67.7994 95.7772 68.284 93.9286 67.5233 92.1566C67.5172 91.9451 67.4988 91.5128 67.4834 91.2921L66.6338 91.4148C66.1062 91.0867 65.5848 90.7587 65.0664 90.4307H65.0725Z" fill="#6479AF"/>
<path d="M85.5625 96.9152C87.5409 94.4811 89.8536 92.3413 91.9885 90.042C92.3504 90.6214 92.7154 91.2008 93.0896 91.7864C93.7736 91.9029 94.4546 92.0194 95.1447 92.1328C94.4669 92.8808 93.8043 93.6319 93.1203 94.3738C91.0131 96.3052 89.0929 98.5278 88.4427 101.388C87.8691 99.7019 87.4182 97.6387 85.5625 96.9122V96.9152Z" fill="#5D4F7A"/>
<path d="M59.5174 93.9775C61.9007 93.1651 64.2472 92.227 66.6366 91.4146L67.4863 91.292C67.4985 91.5097 67.5169 91.9419 67.5261 92.1565C66.7133 93.1222 65.8821 94.0634 65.149 95.0873C64.0724 96.6508 63.0019 98.2174 61.9406 99.7901C59.6462 102.663 57.2875 105.483 55.0208 108.374C53.1466 108.966 51.2633 109.573 49.3892 110.17C48.5334 106.951 48.6745 103.607 48.4414 100.317C48.8984 99.0298 49.0794 97.2701 50.7296 97.0248C53.757 96.3105 56.6066 95.0597 59.5205 93.9775H59.5174Z" fill="#B9FEFC"/>
<path d="M68.2148 91.381C74.0857 92.9537 79.7172 95.2591 85.5604 96.9146C87.4161 97.6411 87.867 99.7043 88.4406 101.39C89.781 105.756 91.4373 110.026 92.6213 114.438C92.6397 117.491 94.2654 120.189 94.6948 123.172C93.8513 122.651 92.9925 122.16 92.1244 121.691C92.4066 121.556 92.9802 121.281 93.2655 121.143C91.6091 119.656 89.7411 118.445 88.0664 116.995C85.6678 114.778 83.7691 112.099 81.7907 109.524C82.6557 109.928 83.5421 110.308 84.4255 110.695C84.7414 109.407 84.6586 108.009 85.1279 106.774C86.315 105.275 87.2812 103.619 87.6615 101.725C87.2689 101.608 86.8763 101.485 86.4898 101.369C86.0972 100.504 85.9499 99.3518 84.9163 99.0115C82.8796 97.9538 80.8122 96.841 78.5179 96.467C75.2635 96.0991 73.0612 92.4356 69.5553 93.297C69.1166 92.6471 68.6657 92.0095 68.2148 91.3779V91.381Z" fill="#98D1F7"/>
<path d="M5.41427 92.8894C7.74848 92.6074 10.3833 92.1629 12.5335 93.3156C13.7266 95.1121 13.604 97.3531 13.6408 99.4132C13.3494 98.8093 13.0212 98.2268 12.6623 97.675C9.72382 97.6872 6.7332 96.651 3.92969 98.0367C3.96956 97.0005 4.03397 95.9643 4.09839 94.9312C4.5186 94.2414 4.96951 93.567 5.41427 92.8894Z" fill="#B97F18"/>
<path d="M65.1484 95.0851C65.8815 94.0612 66.7158 93.12 67.5256 92.1543C68.2863 93.9263 67.8016 95.7749 67.2741 97.5254C66.5594 96.713 65.8508 95.9036 65.1484 95.0851Z" fill="#4FADD0"/>
<path d="M69.5586 93.3034C73.0645 92.4389 75.2668 96.1054 78.5212 96.4733C80.8156 96.8473 82.8829 97.9602 84.9196 99.0178C85.9502 99.3581 86.0975 100.511 86.4931 101.375C86.8796 101.492 87.2722 101.614 87.6649 101.731C87.2845 103.626 86.3183 105.281 85.1313 106.78C84.662 108.016 84.7448 109.414 84.4288 110.701C83.5455 110.315 82.656 109.935 81.7941 109.53C81.4137 109.119 81.0456 108.699 80.6867 108.279C76.7422 103.469 73.0369 98.4568 69.5586 93.3065V93.3034Z" fill="#86C7F2"/>
<path d="M88.4414 101.391C89.0917 98.5309 91.0118 96.3083 93.119 94.377C93.7877 97.0502 91.978 99.4782 91.9964 102.139C91.8339 104.773 93.027 107.213 93.5301 109.751C93.8583 112.418 94.1619 115.098 94.8766 117.698L93.9687 118.347C93.5239 117.042 93.0608 115.745 92.6221 114.439C91.4351 110.027 89.7818 105.757 88.4414 101.391Z" fill="#647C96"/>
<path d="M118.221 95.0597C118.8 95.4276 119.38 95.7924 119.966 96.1603C120.218 100.431 119.715 104.695 119.825 108.963C119.31 108.558 118.8 108.156 118.291 107.758C117.42 108.886 116.506 109.986 115.534 111.029C115.187 109.134 114.813 107.237 114.153 105.425C113.966 102.739 114.123 100.054 114.141 97.3743C115.488 96.5834 116.847 95.8108 118.221 95.0566V95.0597Z" fill="#816790"/>
<path d="M61.9398 99.7877C63.0042 98.215 64.0716 96.6515 65.1482 95.085C65.8507 95.9035 66.5592 96.7159 67.2739 97.5252L67.1389 98.0464C65.9917 100.048 64.1544 101.511 62.8416 103.387C61.1608 105.75 59.7743 108.319 57.8726 110.524C56.0813 112.725 53.7808 114.607 52.8208 117.369C49.1615 119.322 45.7568 121.698 42.2969 123.964C42.8306 121.407 45.3887 120.279 46.9806 118.464L47.315 118.102C49.0817 118.967 50.0203 117.118 51.1491 116.137C56.0844 111.778 59.9768 106.075 61.9368 99.7846L61.9398 99.7877Z" fill="#21AFCD"/>
<path d="M91.9986 102.139C94.2347 100.536 95.6917 98.1444 97.7069 96.2988C99.8724 97.0469 102.161 98.0831 104.504 97.4852C107.01 96.9365 109.645 96.5717 112.126 97.4607C112.261 99.2327 112.396 101.011 112.424 102.792C112.27 104.254 112.172 105.723 112.166 107.197C108.771 107.737 105.246 107.602 101.958 108.742C99.2528 109.754 96.2928 108.96 93.5292 109.754C93.0262 107.216 91.833 104.775 91.9956 102.142L91.9986 102.139Z" fill="#8CA5AB"/>
<path d="M137.941 99.3768C138.122 98.2487 138.352 97.1297 138.481 95.9893C138.088 100.536 138.416 105.104 138.036 109.65C137.861 111.891 137.889 114.144 138.048 116.394C137.92 118.675 137.766 120.953 137.545 123.234C137.849 117.394 137.61 111.545 137.751 105.704C137.938 102.866 137.024 100.14 136.797 97.3443C137.159 98.0279 137.539 98.7085 137.938 99.3799L137.941 99.3768Z" fill="#F9BF8F"/>
<path d="M3.93095 98.037C6.73446 96.6513 9.72509 97.6906 12.6636 97.6752C13.0255 98.2301 13.3537 98.8095 13.642 99.4135C13.6604 101.127 13.6604 102.841 13.7463 104.561C13.1604 103.632 12.6513 102.292 11.3569 102.286C8.88158 102.047 6.32345 101.682 3.90029 102.427C3.88188 100.965 3.88801 99.4962 3.93402 98.0339L3.93095 98.037Z" fill="#AD7115"/>
<path d="M125.831 97.2002C126.43 98.2487 127.083 99.2726 127.727 100.306C130.577 99.2757 133.54 98.3927 136.573 99.2051C136.726 104.647 136.549 110.098 136.696 115.545C136.006 114.206 135.696 111.572 133.705 111.836C131.288 112.274 128.853 112.648 126.393 112.636C126.276 111.523 126.071 110.426 125.884 109.325C125.844 108.985 125.755 108.295 125.715 107.955C125.813 104.374 125.914 100.787 125.831 97.2063V97.2002Z" fill="#D0673E"/>
<path d="M62.8412 103.386C64.157 101.513 65.9913 100.051 67.1385 98.0459C67.2427 100.52 67.4544 103 67.0986 105.465C63.6755 107.66 60.6419 110.747 58.8107 114.404C57.5102 115.018 56.2526 115.71 55.0165 116.44C54.2834 116.75 53.5473 117.059 52.8203 117.369C53.7804 114.607 56.0808 112.724 57.8721 110.523C59.7739 108.322 61.1572 105.75 62.8412 103.386Z" fill="#2991BA"/>
<path d="M55.0184 108.371C57.2851 105.48 59.6439 102.66 61.9382 99.7871C59.9782 106.081 56.0858 111.78 51.1505 116.139C50.0218 117.117 49.0832 118.966 47.3164 118.105C49.8623 114.84 52.5492 111.691 55.0153 108.374L55.0184 108.371Z" fill="#23C9E6"/>
<path d="M26.3281 100.271C27.4354 101.547 27.9385 103.162 28.3464 104.772C29.6163 105.011 30.8984 105.229 32.1805 105.449C32.7664 104.965 33.3522 104.49 33.9473 104.015C34.0454 106.906 37.214 107.764 39.5543 106.976C40.5328 107.273 41.6677 107.638 42.5695 106.912C44.0694 105.532 44.7166 103.506 45.7073 101.774C45.9128 102.424 45.9343 103.08 45.7594 103.751C44.8945 107.66 43.4344 111.409 42.6155 115.33C40.8364 116.084 39.0329 117.114 37.0422 117.01C35.7355 116.964 34.8828 115.818 33.8583 115.168C32.0916 113.77 29.3801 113.537 28.3035 111.354C27.3955 109.073 27.1256 106.602 26.4723 104.245C26.3956 102.917 26.3496 101.599 26.3312 100.271H26.3281Z" fill="#529594"/>
<path d="M45.5574 109.312C46.4715 106.299 47.4315 103.303 48.4376 100.314C48.6707 103.607 48.5266 106.949 49.3854 110.168C51.2595 109.57 53.1428 108.963 55.017 108.371C52.5478 111.688 49.8608 114.837 47.318 118.102L46.9837 118.463C45.4961 115.68 45.3611 112.396 45.5605 109.312H45.5574Z" fill="#92FBFC"/>
<path d="M3.89844 102.427C6.3216 101.679 8.87973 102.047 11.355 102.286C12.6494 102.292 13.1586 103.632 13.7445 104.561C13.7966 105.624 13.8212 106.691 13.8549 107.761C10.8336 107.697 7.72643 107.954 4.8217 106.93C3.6868 105.753 4.10088 103.911 3.90151 102.43L3.89844 102.427Z" fill="#A3630F"/>
<path d="M18.3914 112.121C19.8606 108.791 19.9066 105.146 20.4158 101.608C20.4495 102.942 20.5047 104.282 20.5201 105.621C20.4955 109.208 20.5599 112.795 20.609 116.382C20.4679 120.993 20.4986 125.603 20.5569 130.217C20.2225 133.393 24.0935 133.862 25.8909 135.653C27.1424 137.532 28.63 139.233 29.952 141.064C32.55 144.111 36.8289 145.494 38.7337 149.179C32.8813 145.72 27.1148 142.134 21.155 138.875C19.7901 138.121 18.5141 137.232 17.2626 136.312C17.0111 136.41 16.5019 136.594 16.2443 136.686C16.1798 136.71 16.0449 136.75 15.9805 136.769C15.9805 136.214 15.9805 135.662 15.9866 135.113C16.1553 124.19 16.2197 113.255 16.5847 102.332C17.1 105.609 17.4037 108.932 18.3883 112.121H18.3914Z" fill="#382518"/>
<path d="M112.43 102.788L113.121 102.169C113.121 103.947 113.139 105.725 113.145 107.503C113.403 107.414 113.918 107.24 114.176 107.148C114.188 109.202 114.228 111.262 114.274 113.319C113.998 118.426 114.185 123.558 113.939 128.653C110.292 131.186 106.311 133.206 102.52 135.511C102.422 134.797 102.339 134.083 102.25 133.374C103.551 132.626 104.866 131.9 106.173 131.158C108.293 129.837 110.657 128.761 112.384 126.921C112.688 124.699 112.473 122.458 112.495 120.223C112.605 115.876 112.302 111.541 112.173 107.194C112.179 105.719 112.277 104.251 112.43 102.788Z" fill="#9E98A7"/>
<path d="M26.4751 104.245C27.1254 106.603 27.3953 109.077 28.3063 111.354C29.3829 113.537 32.0944 113.77 33.8611 115.168C34.8856 115.818 35.7353 116.965 37.045 117.011C39.0357 117.115 40.8392 116.082 42.6183 115.331C42.1735 117.155 41.8331 118.994 41.7042 120.87C41.1705 122.556 40.6215 124.252 39.9835 125.907C39.8945 126.088 39.7013 126.447 39.6031 126.628C39.5786 126.152 39.5142 125.211 39.4804 124.739C38.7474 125.447 38.0235 126.156 37.3026 126.87C35.2997 126.373 33.1863 125.962 31.5361 124.641C30.1497 123.495 28.3001 122.471 27.9351 120.551C27.1162 117.112 27.337 113.519 26.6009 110.055C26.4475 108.123 26.4536 106.183 26.4782 104.245H26.4751Z" fill="#377F87"/>
<path d="M0.547445 104.784C1.50751 106.949 1.48296 109.349 1.76515 111.664C2.20378 111.768 2.64239 111.869 3.08102 111.979C3.50737 114.453 4.28648 117.016 6.37531 118.607C7.00104 118.304 7.6329 118.01 8.2709 117.706C8.9273 117.97 9.59904 118.233 10.2677 118.497C11.3321 118 12.4209 117.568 13.5344 117.197C13.8043 120.713 13.6509 124.27 14.2429 127.765C14.4239 129.754 14.4362 131.765 14.3472 133.767C13.9791 132.369 13.6387 130.959 13.335 129.549C12.1756 132.151 12.2983 135.03 12.2768 137.817C11.2584 137.277 10.2401 136.741 9.22175 136.207C8.42119 136.305 7.6237 136.407 6.83234 136.511C5.46125 133.007 5.41524 129.021 3.35401 125.787C2.85711 125.484 2.31114 125.272 1.7897 125.039C0.127222 120.407 1.49216 115.437 0.455411 110.704C0.403267 108.727 0.473818 106.755 0.553567 104.784H0.547445Z" fill="#7C3D0C"/>
<path d="M20.5153 105.621C20.8189 105.557 21.4109 105.434 21.7146 105.376C22.3403 106.569 22.9783 107.758 23.6347 108.944C24.3555 107.752 25.1101 106.575 25.9352 105.446C25.9474 110.186 25.9291 114.926 25.9107 119.668C25.564 120.37 25.2082 121.066 24.8401 121.762C23.3893 120.002 22.1011 118.111 20.6073 116.385C20.5551 112.798 20.4907 109.211 20.5183 105.624L20.5153 105.621Z" fill="#1D5E76"/>
<path d="M58.8164 114.407C60.6476 110.75 63.6811 107.663 67.1043 105.468C67.1564 106.789 67.2331 108.107 67.2729 109.435C65.0492 111.915 61.7058 112.927 58.8195 114.407H58.8164Z" fill="#2D71A4"/>
<path d="M67.1016 105.468C69.4603 107.485 71.9663 109.334 74.1073 111.599C74.0183 111.903 73.8496 112.513 73.7668 112.816C71.5062 111.875 69.399 110.633 67.2703 109.435C67.2304 108.107 67.1537 106.789 67.1016 105.468Z" fill="#5B6393"/>
<path d="M114.156 105.429C114.813 107.237 115.187 109.138 115.537 111.033C116.509 109.99 117.426 108.887 118.294 107.762C118.803 108.16 119.312 108.562 119.828 108.967C119.852 110.84 119.84 112.71 119.803 114.583C119.3 114.589 118.803 114.601 118.315 114.623C117.337 115.659 116.362 116.689 115.377 117.722C114.966 116.266 114.546 114.81 114.276 113.323C114.23 111.269 114.193 109.209 114.178 107.152C114.172 106.719 114.165 105.864 114.159 105.432L114.156 105.429Z" fill="#795183"/>
<path d="M14.2221 115.682C15.633 112.868 15.0134 109.68 15.7312 106.703C15.9244 113.034 15.5563 119.364 15.5441 125.701C15.5962 128.837 15.1883 132.032 15.9888 135.11C15.9827 135.658 15.9827 136.21 15.9827 136.765L14.8999 136.725C14.6484 135.747 14.5073 134.748 14.3448 133.764C14.4337 131.762 14.4214 129.751 14.2405 127.761C14.3448 123.73 14.0718 119.705 14.2221 115.679V115.682Z" fill="#E6B737"/>
<path d="M101.961 108.739C105.246 107.599 108.773 107.734 112.169 107.194C112.298 111.541 112.601 115.876 112.491 120.223C108.862 119.141 104.863 119.187 101.265 120.371C99.5194 120.815 97.7067 120.751 95.9307 120.846C95.5688 119.797 95.2037 118.752 94.8817 117.697C94.167 115.095 93.8634 112.415 93.5352 109.751C96.2988 108.96 99.2587 109.751 101.964 108.739H101.961Z" fill="#7D899A"/>
<path d="M120.347 116.035C120.264 112.835 121.488 109.846 122.273 106.808C122.635 107.813 123.04 108.803 123.408 109.809C123.524 112.255 123.571 114.705 123.583 117.151C123.307 118.767 122.727 120.327 121.739 121.652C120.353 123.325 120.819 125.606 120.767 127.608L120 127.614C119.847 123.742 120.387 119.898 120.347 116.035Z" fill="#6B243E"/>
<path d="M80.6847 108.276C81.0466 108.696 81.4116 109.113 81.792 109.527C83.7704 112.102 85.6721 114.782 88.0677 116.998C89.7424 118.448 91.6104 119.659 93.2668 121.146C92.9846 121.281 92.411 121.557 92.1257 121.695C89.8835 120.554 87.7057 119.313 85.4421 118.224C85.0679 118.037 84.3348 117.67 83.9606 117.483C83.3808 114.359 80.8871 112.207 79.2891 109.607C79.7461 109.162 80.2093 108.718 80.6816 108.279L80.6847 108.276Z" fill="#6E88CC"/>
<path d="M41.7012 120.867C43.1306 117.059 44.1489 113.12 45.5599 109.312C45.3605 112.397 45.4955 115.683 46.9831 118.464C45.3912 120.278 42.8331 121.407 42.2993 123.963C41.508 124.589 40.7412 125.239 39.9805 125.901C40.6185 124.245 41.1675 122.553 41.7012 120.864V120.867Z" fill="#7CF2FC"/>
<path d="M67.2676 109.436C69.3932 110.634 71.5005 111.876 73.7641 112.817C77.2179 114.252 80.6073 115.837 83.966 117.48C84.3402 117.667 85.0732 118.035 85.4475 118.222C83.9782 119.246 82.3741 118.519 80.8343 118.157C79.727 118.905 80.3588 120.328 80.3772 121.41C77.8252 120.316 75.2088 119.374 72.6906 118.203C71.2397 117.578 69.8042 116.723 68.1663 116.851C65.4088 118.231 62.6759 119.653 59.8785 120.935C57.2099 121.959 54.5352 122.971 51.8943 124.053C51.3146 123.673 50.7533 123.299 50.1797 122.918C51.4311 120.503 53.1304 118.397 55.0199 116.447C56.256 115.72 57.5136 115.024 58.8141 114.411C61.7004 112.93 65.0469 111.919 67.2676 109.439V109.436Z" fill="#402E55"/>
<path d="M125.884 109.319C126.071 110.419 126.276 111.514 126.393 112.63C126.58 114.138 125.767 116.216 127.429 117.13C129.126 118.58 131.187 117.084 133.067 116.995C134.711 116.79 135.73 118.329 136.779 119.325C136.714 123.737 136.818 128.166 136.45 132.572C135.665 136.622 135.788 140.763 136.159 144.847C134.644 145.76 133.104 146.625 131.552 147.468C132.285 146.239 133.402 145.337 134.368 144.298C134.414 142.005 134.334 139.712 134.214 137.419C133.377 138.191 132.721 139.267 131.656 139.724C129.702 139.834 129.052 137.262 127.16 137.342C124.632 138.501 122.43 140.91 119.445 140.613C120.657 139.807 121.862 138.982 123.052 138.151C123.982 137.416 125.264 136.729 125.23 135.355C125.779 130.435 125.687 125.463 125.746 120.518C125.881 116.784 125.874 113.046 125.88 109.312L125.884 109.319Z" fill="#B83C1A"/>
<path d="M26.5966 110.055C27.3328 113.519 27.1119 117.115 27.9309 120.552C28.299 122.471 30.1486 123.495 31.5319 124.641C33.1821 125.962 35.2955 126.373 37.2984 126.87C37.3444 127.354 37.4334 128.32 37.4794 128.795C36.6021 129.859 35.7126 130.907 34.774 131.913C34.7096 132.189 34.5931 132.75 34.5287 133.026C31.8601 131.429 29.0842 129.994 26.5629 128.158C26.4739 122.124 26.3359 116.088 26.5936 110.055H26.5966Z" fill="#1B6B7A"/>
<path d="M133.706 111.833C135.697 111.569 136.007 114.203 136.697 115.542C136.749 116.799 136.761 118.059 136.78 119.328C135.731 118.329 134.712 116.79 133.068 116.999C131.188 117.087 129.124 118.583 127.431 117.133C125.768 116.22 126.581 114.138 126.394 112.633C128.857 112.645 131.292 112.271 133.706 111.833Z" fill="#C6502B"/>
<path d="M20.6105 116.385C22.1043 118.111 23.3956 120.005 24.8434 121.762C25.2115 121.066 25.5642 120.37 25.9139 119.668C26.0611 122.676 25.6041 125.76 26.1654 128.718C30.7786 132.234 36.1004 134.708 40.9621 137.881C40.505 138.519 40.0603 139.157 39.6155 139.794C40.9682 141.082 42.2381 142.455 43.3975 143.93C42.6245 144.028 41.8454 144.123 41.0725 144.194C35.8734 141.597 31.0332 138.366 25.8986 135.653C24.1011 133.862 20.2271 133.393 20.5645 130.217C20.5063 125.606 20.4756 120.996 20.6167 116.382L20.6105 116.385Z" fill="#194A65"/>
<path d="M52.822 117.369C53.5489 117.06 54.2851 116.75 55.0182 116.44C53.1287 118.393 51.4294 120.499 50.178 122.912C50.7515 123.292 51.3129 123.666 51.8926 124.046C51.0429 124.402 50.1902 124.755 49.3345 125.104C45.9206 126.392 42.4668 127.695 38.832 128.222C39.0835 127.688 39.3412 127.152 39.5989 126.625C39.697 126.444 39.8902 126.085 39.9792 125.904C40.7399 125.242 41.5067 124.589 42.2981 123.967C45.758 121.698 49.1596 119.322 52.822 117.372V117.369Z" fill="#2F4162"/>
<path d="M59.8783 120.931C62.6757 119.65 65.4087 118.227 68.1662 116.848C68.7704 117.357 69.3839 117.865 70.0035 118.38C69.0894 118.773 68.1784 119.181 67.2705 119.585C67.6693 120.113 68.0619 120.655 68.4698 121.189C65.1326 122.832 61.8782 124.647 58.5195 126.244C58.6361 124.236 59.9366 122.728 61.277 121.354C60.9304 121.25 60.228 121.038 59.8783 120.928V120.931Z" fill="#546C83"/>
<path d="M68.1644 116.848C69.8023 116.719 71.2378 117.575 72.6886 118.2C75.2069 119.371 77.8233 120.312 80.3753 121.407C81.3813 121.827 82.3844 122.244 83.4088 122.63C82.7708 123.905 82.1022 125.156 81.3844 126.385C77.035 124.754 72.8911 122.605 68.4649 121.189C68.0601 120.656 67.6674 120.113 67.2656 119.586C68.1735 119.181 69.0815 118.773 69.9986 118.381C69.379 117.866 68.7686 117.357 68.1613 116.848H68.1644Z" fill="#656B84"/>
<path d="M138.049 116.391C139.196 121.486 137.65 126.839 139.215 131.866C139.368 135.594 139.35 139.337 139.285 143.071C138.215 143.62 137.178 144.224 136.16 144.849C135.786 140.766 135.663 136.624 136.451 132.574C136.632 133.761 136.871 134.938 137.114 136.115C137.5 131.826 137.154 127.51 137.546 123.227C137.764 120.946 137.92 118.669 138.049 116.388V116.391Z" fill="#A53921"/>
<path d="M123.579 117.151C123.598 118.948 123.638 120.744 123.644 122.55C123.65 126.551 123.779 130.555 123.49 134.549C120.816 137.725 116.66 139.019 113.258 141.241C112.795 139.141 114.856 138.439 116.202 137.379C118.813 134.797 121.494 131.569 120.764 127.615C120.816 125.613 120.353 123.332 121.736 121.658C122.721 120.33 123.303 118.773 123.579 117.158V117.151Z" fill="#761930"/>
<path d="M80.8328 118.157C82.3725 118.519 83.9768 119.246 85.446 118.222C87.7066 119.31 89.8843 120.555 92.1296 121.692C93.0007 122.161 93.8565 122.652 94.7 123.173C95.6938 124.209 96.5803 125.331 97.387 126.521L97.7152 127.189C97.0772 127.06 95.795 126.796 95.1509 126.662C91.2646 125.245 87.314 123.994 83.4093 122.63C82.3848 122.244 81.3787 121.824 80.3757 121.407C80.3573 120.325 79.7255 118.902 80.8328 118.154V118.157Z" fill="#4B3A63"/>
<path d="M93.9718 118.35L94.8797 117.7C95.2018 118.758 95.5699 119.8 95.9288 120.849C97.7078 120.751 99.5175 120.818 101.263 120.373C104.858 119.187 108.86 119.144 112.489 120.226C112.471 122.461 112.682 124.702 112.379 126.925C110.652 128.767 108.287 129.843 106.167 131.162C105.109 130.208 104.112 129.08 102.732 128.617C100.548 127.688 98.1893 129.537 96.0361 128.412C95.2693 128.136 95.2632 127.329 95.1466 126.667C95.7908 126.802 97.0729 127.066 97.7109 127.195L97.3827 126.526C96.1067 123.859 94.8184 121.186 93.9688 118.353L93.9718 118.35Z" fill="#716984"/>
<path d="M123.647 122.547C124.343 121.869 125.045 121.195 125.748 120.523C125.689 125.468 125.782 130.441 125.232 135.361C125.263 136.732 123.981 137.421 123.055 138.157C123.208 136.952 123.377 135.748 123.493 134.543C123.785 130.548 123.656 126.544 123.647 122.544V122.547Z" fill="#FE933B"/>
<path d="M51.8918 124.049C54.5327 122.967 57.2074 121.956 59.876 120.932C60.2226 121.042 60.925 121.254 61.2747 121.358C59.9343 122.728 58.6337 124.236 58.5172 126.248L58.4006 126.306C56.7627 127.02 55.1401 127.774 53.5359 128.553C52.1372 129.215 50.7078 129.804 49.2969 130.42C49.7815 128.688 50.2324 126.793 49.3368 125.107C50.1925 124.761 51.0452 124.405 51.8949 124.049H51.8918Z" fill="#3A657B"/>
<path d="M58.5189 126.244C61.8776 124.647 65.1289 122.832 68.4692 121.188C72.8953 122.605 77.0392 124.757 81.3887 126.385C82.1156 126.648 82.8518 126.912 83.591 127.163C82.1463 129.45 79.6679 130.68 77.4441 132.072C75.4657 133.378 73.0058 133.043 70.7881 133.494C70.1102 133.172 69.4354 132.85 68.7637 132.535C68.9753 132.124 69.1962 131.716 69.4201 131.317C69.1808 130.796 68.9446 130.281 68.7177 129.772C67.641 130.499 66.635 131.403 65.3682 131.762C63.8591 132.167 62.3469 131.287 60.8439 131.685C60.0249 130.726 59.2336 129.754 58.4545 128.782C58.4668 127.951 58.4361 127.127 58.4023 126.302L58.5189 126.244Z" fill="#80919D"/>
<path d="M83.412 122.633C87.3167 123.997 91.2673 125.248 95.1536 126.664C95.2701 127.326 95.2763 128.133 96.0431 128.409C98.1963 129.537 100.555 127.688 102.739 128.614C104.119 129.077 105.116 130.205 106.174 131.158C104.868 131.9 103.552 132.627 102.251 133.375C101.426 133.838 100.601 134.31 99.7822 134.785C97.1259 131.989 93.1782 131.235 89.8257 129.595C87.7767 128.7 85.7155 127.857 83.5929 127.167C82.8507 126.916 82.1176 126.652 81.3906 126.388C82.1053 125.159 82.7771 123.908 83.4151 122.633H83.412Z" fill="#65607E"/>
<path d="M37.2963 126.87C38.0171 126.156 38.741 125.447 39.4741 124.739C39.5078 125.208 39.5722 126.149 39.5968 126.628C39.3391 127.155 39.0815 127.692 38.8299 128.225C42.4647 127.698 45.9185 126.395 49.3324 125.107C50.228 126.793 49.7771 128.688 49.2925 130.42C48.2741 130.864 47.2742 131.334 46.2712 131.778C45.2007 132.21 44.0934 132.59 43.1579 133.277C43.1456 134.776 43.3327 136.297 42.9064 137.771C40.109 136.193 37.2748 134.681 34.5234 133.026C34.5879 132.75 34.7044 132.189 34.7688 131.913C35.7105 130.907 36.6 129.859 37.4742 128.795C37.4282 128.32 37.3392 127.351 37.2932 126.87H37.2963Z" fill="#2B6679"/>
<path d="M53.5352 128.55C55.1394 127.771 56.765 127.017 58.3999 126.303C58.4336 127.127 58.4643 127.952 58.452 128.783C57.7557 131.3 58.8078 133.691 60.2188 135.739C59.1943 135.57 58.2588 135.107 57.3325 134.681C57.3908 134.255 57.5073 133.418 57.5656 132.995C56.4767 132.897 55.3939 132.802 54.3112 132.713C54.4277 131.922 54.5443 131.134 54.667 130.349C54.2866 129.752 53.9124 129.151 53.5382 128.553L53.5352 128.55Z" fill="#5E8596"/>
<path d="M83.5904 127.167C85.7099 127.857 87.7711 128.7 89.8232 129.595C89.0563 131.425 88.1791 133.228 86.8724 134.748C83.7223 136.649 80.0814 137.281 76.6338 138.452C73.7475 138.927 70.7814 138.728 67.8889 139.206C66.9595 138.136 65.751 138.259 64.61 138.844C64.3401 137.872 64.0702 136.907 63.8125 135.941C66.2541 135.515 68.5116 134.442 70.7906 133.501C73.0083 133.05 75.4682 133.384 77.4466 132.078C79.6704 130.686 82.1519 129.457 83.5935 127.17L83.5904 127.167Z" fill="#75788C"/>
<path d="M119.999 127.617L120.766 127.611C121.493 131.566 118.812 134.791 116.205 137.376C114.859 138.439 112.797 139.141 113.26 141.238C105.206 146.217 96.8995 150.803 88.9491 155.935C88.5564 155.708 87.7559 155.267 87.3633 155.046C88.6331 154.062 89.7159 152.851 90.2772 151.318C91.271 148.608 94.5868 148.246 96.4118 146.3V145.23C103.74 140.987 110.929 136.517 118.315 132.369C120.306 131.621 119.907 129.322 120.002 127.617H119.999Z" fill="#5F0F2C"/>
<path d="M49.2978 130.42C50.7088 129.8 52.1381 129.215 53.5368 128.553C53.911 129.151 54.2852 129.751 54.6656 130.349C54.5429 131.134 54.4263 131.922 54.3098 132.713C55.3925 132.802 56.4753 132.9 57.5642 132.995C57.5059 133.421 57.3893 134.258 57.3311 134.681C57.1133 135.027 56.6808 135.729 56.4599 136.079C54.6165 135.401 52.6718 135.073 50.7057 135.113C50.1076 134.083 49.5125 133.053 48.9205 132.029C48.031 131.94 47.1476 131.842 46.2734 131.778C47.2795 131.333 48.2764 130.864 49.2947 130.42H49.2978Z" fill="#49778B"/>
<path d="M60.2216 135.738C58.8107 133.69 57.7586 131.302 58.4549 128.782C59.234 129.754 60.0284 130.726 60.8443 131.685C62.3442 131.287 63.8594 132.17 65.3686 131.762C66.6384 131.4 67.6445 130.499 68.7181 129.772C68.945 130.281 69.1812 130.796 69.4205 131.318C69.1935 131.716 68.9757 132.124 68.7641 132.535C69.4327 132.85 70.1106 133.172 70.7885 133.494C68.5064 134.435 66.2519 135.511 63.8104 135.934C62.6111 135.895 61.4117 135.824 60.2216 135.735V135.738Z" fill="#738493"/>
<path d="M89.821 129.595C93.1704 131.238 97.1211 131.992 99.7774 134.785C96.6641 136.628 93.3913 138.231 90.4528 140.356C86.9224 142.327 83.4625 144.421 79.9044 146.352C79.8645 146.082 79.7878 145.552 79.7418 145.288C80.205 144.914 80.662 144.54 81.1344 144.166C80.6191 143.535 80.1927 142.679 79.2787 142.615C76.4169 142.002 73.5305 141.493 70.6626 140.913C69.6903 140.405 68.767 139.831 67.8867 139.2C70.7792 138.725 73.7453 138.924 76.6316 138.446C80.0792 137.275 83.7201 136.643 86.8702 134.742C88.1769 133.222 89.0541 131.419 89.821 129.589V129.595Z" fill="#6B6B81"/>
<path d="M43.1617 133.276C44.0972 132.587 45.2045 132.207 46.275 131.777C47.1522 131.842 48.0356 131.94 48.9221 132.029C49.514 133.053 50.1091 134.083 50.7072 135.113C52.6734 135.073 54.618 135.404 56.4615 136.078C57.6086 137.752 58.9307 139.297 60.2833 140.806C60.2588 141.41 60.2373 142.011 60.2251 142.621L60.2128 143.041C60.7281 143.51 61.2833 143.942 61.7924 144.439C61.6237 144.987 61.4458 145.533 61.2434 146.076C61.4704 146.836 61.6943 147.596 61.9335 148.357C56.5412 145.233 51.1213 142.142 45.5848 139.282C44.6769 138.792 43.7935 138.283 42.9102 137.774C43.3365 136.299 43.1494 134.779 43.1617 133.28V133.276Z" fill="#456F83"/>
<path d="M99.7773 134.785C100.596 134.31 101.421 133.838 102.246 133.375C102.335 134.083 102.421 134.797 102.516 135.512C95.9186 139.525 89.235 143.388 82.6556 147.44C81.3612 148.142 80.027 148.78 78.6866 149.405L78.6467 149.188C78.6007 149.271 78.4994 149.439 78.4473 149.522C77.5915 150.089 76.7081 150.604 75.8064 151.079C74.8126 150.54 73.4875 151.003 73.4813 152.244C73.3403 152.342 73.055 152.526 72.9139 152.618L72.8372 152.336L72.5857 152.471L72.6256 152.805C72.4446 152.928 72.0857 153.179 71.9048 153.302L71.7299 152.811C71.1625 152.965 70.595 153.109 70.0337 153.25L69.5 152.894C74.2114 150.396 78.7479 147.6 83.3918 144.985C85.7689 143.486 88.4191 142.345 90.4558 140.352C93.3943 138.228 96.6671 136.625 99.7804 134.782L99.7773 134.785Z" fill="#8999B4"/>
<path d="M56.464 136.079C56.6818 135.732 57.1143 135.03 57.3351 134.681C58.2645 135.107 59.197 135.57 60.2214 135.738C61.4146 135.827 62.6109 135.901 63.8102 135.938C64.0678 136.903 64.3378 137.869 64.6077 138.841C65.7487 138.255 66.9603 138.133 67.8866 139.203C68.77 139.834 69.6902 140.407 70.6625 140.916C68.1749 140.625 65.6935 141.079 63.8777 142.924C63.1231 142.467 62.3839 142.017 61.6477 141.56C61.1631 141.9 60.6877 142.256 60.2245 142.624C60.2368 142.011 60.2552 141.413 60.2828 140.809C58.9301 139.301 57.6081 137.756 56.4609 136.082L56.464 136.079Z" fill="#617485"/>
<path d="M123.491 134.546C123.375 135.751 123.209 136.956 123.053 138.16C121.86 138.991 120.654 139.816 119.446 140.622C115.998 142.71 112.544 144.77 109.091 146.836C103.747 150.006 98.355 153.072 93.0117 156.239C90.7818 157.526 88.6041 158.906 86.3925 160.224C81.4573 163.103 76.4944 165.936 71.4486 168.615C70.8352 168.333 70.2309 168.036 69.6328 167.732C71.0898 167.012 72.7584 166.368 73.513 164.807C74.4209 164.259 75.3502 163.737 76.3164 163.274C78.5924 163.299 80.3131 161.671 82.175 160.613C84.4417 159.068 87.1869 158.133 88.9476 155.932C96.898 150.8 105.204 146.214 113.259 141.235C116.661 139.013 120.817 137.719 123.491 134.543V134.546Z" fill="#E3A242"/>
<path d="M25.8937 135.656C31.0284 138.366 35.8685 141.6 41.0676 144.197C43.5675 145.588 45.9139 147.238 48.3954 148.66C52.8491 151.171 57.2691 153.755 61.6706 156.349C63.0571 157.213 64.4281 158.087 65.8084 158.964C67.0016 159.654 68.1488 160.543 69.5199 160.843C73.2773 159.228 76.6667 156.87 80.1726 154.782C81.4087 154.01 82.6724 153.268 83.9177 152.508C83.4669 154.273 82.332 155.791 82.1326 157.633C80.4456 158.768 78.6788 159.786 76.912 160.788C77.5746 161.122 78.2463 161.456 78.9211 161.8C78.05 162.296 77.1881 162.799 76.317 163.274C75.3508 163.737 74.4214 164.258 73.5135 164.807C71.9338 165.727 70.2714 166.487 68.5383 167.06C66.2072 165.218 63.5325 163.89 61.0173 162.333C56.5575 159.905 52.3062 157.103 47.7942 154.779L47.5672 154.663C44.7637 152.615 41.632 151.076 38.7334 149.175C36.8255 145.49 32.5467 144.108 29.9517 141.06C28.6297 139.23 27.1421 137.532 25.8906 135.649L25.8937 135.656Z" fill="#27141E"/>
<path d="M14.8984 136.728L15.9812 136.768C16.0456 136.75 16.1806 136.71 16.245 136.686C16.5026 136.597 17.0118 136.41 17.2633 136.312C18.5148 137.231 19.7908 138.12 21.1557 138.874C27.1155 142.133 32.8851 145.72 38.7344 149.178C41.633 151.079 44.7647 152.618 47.5682 154.666C47.6142 154.749 47.7093 154.905 47.7615 154.988L47.7952 154.782C52.3072 157.106 56.5585 159.908 61.0183 162.336C61.2238 162.915 61.4385 163.501 61.6563 164.096C61.2944 164.283 60.5613 164.657 60.1932 164.85C58.0032 163.621 55.8499 162.318 53.6844 161.052C42.8722 154.752 32.3943 147.9 21.5238 141.698C19.1927 140.242 16.5824 138.994 14.8984 136.732V136.728Z" fill="#CDA932"/>
<path d="M119.447 140.619C122.432 140.917 124.634 138.507 127.161 137.348C129.057 137.272 129.707 139.841 131.658 139.73C132.722 139.274 133.379 138.198 134.216 137.425C134.339 139.718 134.416 142.011 134.37 144.304C133.403 145.341 132.287 146.242 131.554 147.474C125.425 151.306 119.208 155.01 112.997 158.707C112.714 158.597 112.147 158.385 111.862 158.275C111.552 156.935 111.27 155.595 110.862 154.289C111.009 154.044 111.165 153.799 111.319 153.563C110.564 153.44 109.804 153.324 109.058 153.207C110.469 152.615 112.079 152.254 113.104 151.024C111.267 150.709 109.451 151.037 107.788 151.837C107.396 151.61 107.009 151.392 106.629 151.175C107.595 150.197 108.537 149.197 109.445 148.161C109.356 147.833 109.181 147.168 109.089 146.84C112.543 144.773 115.996 142.71 119.444 140.626L119.447 140.619Z" fill="#BC310C"/>
<path d="M40.959 137.885C42.0816 138.575 43.1828 139.289 44.3023 139.985C45.9188 141.067 47.5506 142.137 49.2315 143.115C48.5045 143.526 47.7745 143.939 47.0537 144.35C47.9494 145.478 48.8573 146.604 49.7805 147.719C49.4339 147.959 48.7377 148.422 48.3941 148.661C45.9127 147.238 43.5662 145.589 41.0663 144.197C41.8393 144.126 42.6184 144.028 43.3914 143.933C42.2319 142.459 40.9621 141.085 39.6094 139.798C40.0541 139.16 40.4989 138.522 40.9559 137.885H40.959Z" fill="#1B5C80"/>
<path d="M45.5868 139.279C51.1233 142.14 56.5402 145.23 61.9355 148.354C64.2237 149.733 66.6714 150.858 68.8369 152.443C69.0056 152.56 69.3338 152.784 69.4995 152.894L70.0332 153.25C70.5945 153.109 71.162 152.968 71.7294 152.811L71.9042 153.302C71.1129 153.804 70.3062 154.295 69.4933 154.752C66.5242 153.308 63.7912 151.422 60.865 149.883C56.9604 147.673 53.0925 145.401 49.2338 143.114C47.553 142.137 45.9212 141.067 44.3047 139.984C44.6268 139.81 45.2647 139.457 45.5868 139.282V139.279Z" fill="#8BCFE0"/>
<path d="M63.8803 142.924C65.6961 141.076 68.1776 140.625 70.6651 140.916C73.5331 141.496 76.4194 142.005 79.2812 142.618C80.1952 142.682 80.6216 143.537 81.1369 144.169C80.6676 144.543 80.2075 144.917 79.7443 145.291C79.7904 145.555 79.867 146.082 79.9069 146.355C76.2261 148.409 72.6006 150.555 68.837 152.446C66.6715 150.861 64.2238 149.736 61.9356 148.357C61.6964 147.596 61.4725 146.836 61.2455 146.076C61.4448 145.536 61.6258 144.988 61.7945 144.439C61.2853 143.942 60.7301 143.51 60.2148 143.041L60.2271 142.621C60.6903 142.253 61.1688 141.9 61.6503 141.557C62.3834 142.014 63.1257 142.464 63.8803 142.921V142.924Z" fill="#5C677B"/>
<path d="M49.2316 143.111C53.0903 145.398 56.9581 147.67 60.8628 149.88C60.2494 150.279 59.6512 150.699 59.0531 151.104C59.4795 151.465 59.9089 151.824 60.3475 152.192C60.3475 152.495 60.3598 153.099 60.3659 153.403C61.0346 154.273 62.0744 155.104 61.6664 156.346C57.2649 153.749 52.8449 151.168 48.3912 148.657C48.7317 148.418 49.4279 147.955 49.7776 147.716C48.8574 146.603 47.9464 145.475 47.0508 144.347C47.7716 143.936 48.5016 143.522 49.2286 143.111H49.2316Z" fill="#2B6086"/>
<path d="M86.6458 150.81C89.9186 148.98 93.173 147.119 96.409 145.233V146.303C94.5839 148.247 91.2682 148.609 90.2744 151.322C89.7131 152.855 88.6303 154.066 87.3605 155.05C87.7531 155.267 88.5536 155.712 88.9462 155.939C85.5231 157.763 82.3025 159.924 78.9193 161.806C78.2414 161.466 77.5727 161.129 76.9102 160.795C78.6769 159.789 80.4406 158.771 82.1307 157.64C82.3301 155.798 83.465 154.277 83.9159 152.514C84.8176 151.935 85.7194 151.356 86.6488 150.813L86.6458 150.81Z" fill="#460C24"/>
<path d="M93.0106 156.238C98.3539 153.068 103.746 150.003 109.089 146.836C109.178 147.164 109.353 147.829 109.445 148.157C108.537 149.193 107.596 150.193 106.629 151.171C107.01 151.388 107.396 151.609 107.789 151.833C109.451 151.033 111.267 150.705 113.104 151.021C112.08 152.25 110.47 152.612 109.059 153.203C109.807 153.32 110.568 153.436 111.319 153.559C111.166 153.798 111.01 154.043 110.862 154.286C111.267 155.592 111.552 156.931 111.862 158.271C112.144 158.381 112.712 158.593 112.997 158.703C108.298 161.413 103.685 164.274 98.9888 166.981C97.8355 167.109 96.7006 167.198 95.5534 167.29C95.8878 166.588 96.2313 165.886 96.5779 165.19C96.2098 165.074 95.4767 164.844 95.1086 164.727C95.4184 164.264 95.7344 163.808 96.0565 163.348C94.6977 161.603 92.615 160.54 90.385 160.644C90.2685 160.567 90.0384 160.426 89.9219 160.353C91.6886 159.65 93.3695 158.394 93.0137 156.238H93.0106Z" fill="#AB270C"/>
<path d="M78.69 149.406C80.0304 148.78 81.3647 148.142 82.6591 147.44C81.7757 148.535 80.9077 149.635 80.0243 150.733C82.2665 150.843 84.3154 149.921 86.2999 149.001C86.3828 149.452 86.5637 150.359 86.6466 150.81C85.7172 151.349 84.8154 151.932 83.9136 152.511C82.6714 153.271 81.4076 154.01 80.1684 154.786C79.8003 154.617 79.0734 154.283 78.7053 154.124C75.6258 155.181 72.5707 157.272 69.1875 156.242C69.4145 155.938 69.8654 155.328 70.0893 155.025C69.9421 154.961 69.6384 154.826 69.4912 154.755C70.304 154.298 71.1076 153.808 71.9021 153.305C72.083 153.182 72.4419 152.931 72.6229 152.808L72.9143 152.621C73.0554 152.533 73.3406 152.346 73.4817 152.247C74.3528 152.085 75.1442 151.668 75.8067 151.082C76.7085 150.607 77.5919 150.089 78.4477 149.525L78.6869 149.409L78.69 149.406Z" fill="#57437F"/>
<path d="M78.4492 149.522C78.5014 149.439 78.6026 149.27 78.6486 149.188L78.6885 149.405L78.4492 149.522Z" fill="#CDDCF4"/>
<path d="M59.0508 151.107C59.6489 150.702 60.2501 150.282 60.8605 149.884C63.7867 151.423 66.5196 153.311 69.4888 154.752C69.636 154.823 69.9397 154.957 70.0869 155.022C69.8599 155.325 69.409 155.935 69.1851 156.239C68.2373 157.352 67.0135 158.176 65.8019 158.964C64.4216 158.088 63.0505 157.214 61.6641 156.349C62.069 155.108 61.0322 154.277 60.3636 153.406C60.3574 153.103 60.3452 152.499 60.3452 152.195C59.9065 151.827 59.4741 151.469 59.0508 151.107Z" fill="#3E5481"/>
<path d="M72.5859 152.471L72.8375 152.336L72.9141 152.618L72.6258 152.805L72.5859 152.471Z" fill="#CBE3EC"/>
<path d="M69.1879 156.239C72.5711 157.269 75.6262 155.175 78.7057 154.12C79.0738 154.283 79.8008 154.617 80.1688 154.782C76.6629 156.87 73.2736 159.228 69.5161 160.843C68.145 160.54 66.9979 159.651 65.8047 158.964C67.0163 158.179 68.2401 157.354 69.1879 156.239Z" fill="#433F73"/>
<path d="M47.5703 154.666L47.7973 154.783L47.7636 154.988C47.7114 154.905 47.6163 154.749 47.5703 154.666Z" fill="#FDD983"/>
<path d="M78.9167 161.803C82.2999 159.924 85.5205 157.76 88.9436 155.936C87.183 158.137 84.4409 159.072 82.1711 160.617C80.3092 161.674 78.5884 163.302 76.3125 163.278C77.1836 162.803 78.0455 162.3 78.9167 161.803Z" fill="#FBF4A5"/>
<path d="M86.3917 160.225C88.6033 158.903 90.781 157.527 93.0109 156.239C93.3668 158.397 91.6828 159.651 89.9191 160.353C90.0357 160.424 90.2657 160.565 90.3823 160.645C92.6122 160.54 94.6918 161.604 96.0537 163.349C95.7317 163.805 95.4157 164.262 95.1059 164.728C95.474 164.845 96.2071 165.075 96.5751 165.191C96.2285 165.887 95.885 166.589 95.5507 167.291C96.6978 167.202 97.8327 167.11 98.986 166.981C94.9341 169.486 90.7688 171.807 86.6923 174.253C86.2476 174.026 85.3642 173.585 84.9194 173.358C85.7445 172.598 86.5758 171.844 87.4131 171.092C86.723 169.244 86.0972 167.371 85.447 165.516C84.7967 164.989 83.9532 164.609 83.668 163.772C84.3458 162.953 85.2998 162.472 86.1954 161.929C86.2414 161.503 86.3427 160.654 86.3948 160.228L86.3917 160.225Z" fill="#922208"/>
<path d="M61.0165 162.336C63.5286 163.893 66.2033 165.221 68.5375 167.063C68.8136 167.232 69.3626 167.566 69.6326 167.732C70.2307 168.035 70.838 168.329 71.4484 168.615C70.9975 168.86 70.0957 169.35 69.6448 169.586C66.415 168.17 63.271 166.567 60.1914 164.847C60.5595 164.654 61.2926 164.28 61.6545 164.093C61.4367 163.501 61.222 162.915 61.0165 162.333V162.336Z" fill="#DBB256"/>
</svg>
