<svg width="159" height="161" viewBox="0 0 159 161" fill="none" xmlns="http://www.w3.org/2000/svg">
<path d="M15.7951 92.3564C18.8685 92.9757 21.3806 94.996 24.3283 95.9893C26.9447 96.8722 29.6071 97.9666 32.4229 97.8133C35.4258 97.6386 38.3765 98.2977 41.3671 98.3682C40.8825 99.573 40.4071 100.778 39.858 101.955C39.1801 102.697 38.7691 103.571 39.0513 104.582C39.5359 103.926 40.0052 103.267 40.4745 102.605C43.3302 103.068 45.8668 104.917 48.8973 104.343C49.1795 104.84 49.4771 105.343 49.7685 105.852C50.2531 105.413 50.7408 104.981 51.2254 104.558C51.572 105.202 51.9156 105.858 52.2622 106.511C51.1917 110.671 49.9678 114.788 48.9372 118.954C47.1214 118.399 45.3485 116.867 43.3639 117.428C40.7935 118.117 38.0422 116.989 36.1067 115.297C33.6191 115.058 31.5456 113.513 29.1347 112.964C26.9815 112.455 25.319 110.619 23.0247 110.625C21.7732 110.606 20.7886 109.788 19.7641 109.181C19.2243 109.625 18.6814 110.076 18.1415 110.527C17.1355 109.791 15.5895 109.276 15.4607 107.853C15.0497 104.935 15.1448 101.967 15.2552 99.0243C15.8227 96.8477 15.8748 94.5944 15.7951 92.3595V92.3564Z" fill="#463A2D"/>
<path d="M55.5085 101.155C56.944 96.6208 57.1649 91.6176 59.5942 87.4482C58.6525 94.392 56.2569 101.032 53.8798 107.593C53.616 108.255 53.3399 108.914 53.0547 109.576L53.159 108.81C53.9963 106.272 54.9043 103.761 55.5116 101.152L55.5085 101.155Z" fill="#FCF48C"/>
<path d="M150.82 37.7356C150.872 37.1807 150.924 36.635 150.961 36.0801C151.259 37.5087 151.277 38.9649 151.219 40.4211C150.814 47.512 150.992 54.6274 151.072 61.7276C150.903 66.2801 150.918 70.8418 151.059 75.3943C151.007 76.5532 150.918 77.712 150.885 78.8862L150.78 78.365C150.762 75.7837 150.793 73.1932 150.67 70.618C150.618 65.155 150.753 59.695 150.63 54.232C150.596 48.7321 150.541 43.2323 150.817 37.7386L150.82 37.7356Z" fill="#772407"/>
<path d="M64.1775 115.635C65.8461 115.288 67.5147 114.957 69.1588 114.488C69.7968 116.208 68.9717 117.851 68.2048 119.369C71.2476 121.831 74.959 123.084 78.4251 124.78C78.9588 126.99 79.514 129.378 78.1797 131.438C77.6245 132.668 77.1368 133.925 76.7043 135.212C77.2902 135.553 77.8699 135.908 78.4557 136.27C77.0509 137.177 75.4007 137.545 73.8241 138.008C72.9407 137.61 72.0328 137.26 71.1372 136.895C67.8245 135.362 64.5977 133.655 61.285 132.116C61.6776 131.601 62.0702 131.092 62.4629 130.583C60.3802 128.722 57.5981 127.821 55.678 125.779C54.3959 124.522 54.6075 122.643 54.6351 121.018C55.8528 120.181 56.9295 119.17 57.865 118.035C59.9262 117.122 62.0334 116.322 64.1805 115.632L64.1775 115.635Z" fill="#4E302A"/>
<path d="M53.4714 12.0393C57.143 10.1447 61.0047 8.32982 65.072 7.49902C61.0968 9.44266 56.9528 11.0154 52.8672 12.7168L53.4714 12.0393Z" fill="#70340B"/>
<path d="M69.073 45.6633C70.2784 43.3242 71.8581 41.1813 72.766 38.7012C71.6434 43.1249 68.4104 46.7057 66.9657 51.0405C65.3861 52.8493 64.4904 55.1056 63.3003 57.1596C61.9998 57.2884 60.7023 57.4233 59.4141 57.6103C60.6011 57.27 61.7728 56.896 62.9507 56.5404C64.9812 52.9075 67.113 49.333 69.073 45.6633Z" fill="#70340B"/>
<path d="M44.0792 60.4457C47.7078 59.9307 51.2904 59.1827 54.9037 58.6094C54.2013 59.1643 53.5326 59.756 52.8608 60.3476C46.4349 61.0619 40.0242 61.9694 33.5859 62.5304C37.052 61.7057 40.5518 61.0037 44.0761 60.4427L44.0792 60.4457Z" fill="#FCED7F"/>
<path d="M101.529 31.0244C107.928 33.5352 114.274 36.2085 120.642 38.8112C121.062 39.6758 121.485 40.5495 121.912 41.4201C121.62 41.7543 121.338 42.1038 121.056 42.4502C121.675 42.7782 122.298 43.1185 122.918 43.4619C122.028 44.3509 121.056 45.1419 120.108 45.9604C119.084 46.7268 119.354 48.5754 117.97 48.9372C116.706 49.4583 115.501 48.5754 114.323 48.2229C108.37 49.8262 102.247 48.5509 96.223 48.2351C95.0881 48.2873 95.0759 46.8433 94.5851 46.1413C94.4379 46.6318 94.2814 47.1192 94.1342 47.622C93.8367 47.5515 93.2508 47.4043 92.9563 47.3308C90.9963 43.3699 88.5302 39.685 86.4414 35.7946C89.2817 38.1828 92.9809 36.8308 96.2752 37.5604C97.8548 37.7934 99.8915 38.3514 100.793 36.5947C101.631 36.2269 102.48 35.8805 103.333 35.531C102.784 34.9914 102.244 34.4488 101.701 33.9092C101.643 32.9435 101.585 31.984 101.533 31.0244H101.529Z" fill="#FCD487"/>
<path d="M72.0827 49.1917C74.8984 44.2468 76.6652 38.8297 78.708 33.5537H80.8919C80.8521 36.7359 80.5699 39.9119 80.6466 43.091C80.254 52.3524 79.435 61.62 80.1619 70.8937C80.1037 72.3223 79.981 73.754 79.8644 75.1887C79.5546 75.4064 78.9504 75.8386 78.6467 76.0594C76.6499 75.2991 74.6009 74.6798 72.5305 74.1648C66.0401 72.2457 59.4883 70.5718 52.8507 69.2443C54.0807 68.9408 55.2923 68.6005 56.51 68.2664C56.8137 67.2026 57.1879 66.1357 57.2185 65.0198C55.2984 64.5048 53.3445 64.1063 51.4766 63.4349C56.2707 62.7788 61.1754 62.9137 65.8929 61.7396C66.5953 61.9848 67.2333 62.3711 67.8713 62.7574C69.3466 64.8512 71.5827 66.1971 73.5949 67.7238C73.2268 65.915 72.4998 64.2074 72.1133 62.4109C71.6931 59.4035 71.7514 56.3501 71.3987 53.3365C71.1533 53.1097 70.6717 52.6468 70.4263 52.423C70.9754 51.3408 71.5214 50.2586 72.0827 49.1887V49.1917Z" fill="#FAE077"/>
<path d="M101.109 87.5831C103.544 90.5783 103.765 94.7783 105.013 98.3529C105.832 101.483 106.593 104.619 107.332 107.768C107.771 109.739 108.222 111.704 108.761 113.648C107.59 112.277 107.403 110.413 106.86 108.758C104.964 101.691 101.826 94.9224 101.105 87.5801L101.109 87.5831Z" fill="#FCDC97"/>
<path d="M77.0586 0.882992C78.1352 0.334235 79.3713 -0.229851 80.5062 0.536568C89.2879 4.57407 98.3364 7.98311 107.287 11.6343C120.298 16.6651 133.12 22.1711 146.266 26.8462C148.573 27.7475 150.971 28.4189 153.213 29.4858C155.327 30.4576 156.434 32.6342 157.627 34.5166C157.235 35.0561 156.842 35.5987 156.456 36.1536C155.256 33.8298 154.143 31.0064 151.392 30.1848C136.095 24.9946 121.182 18.759 106.207 12.7257C99.2229 9.87769 92.1344 7.27188 85.3403 3.97934C83.3312 2.99526 81.2485 2.06022 78.9879 1.88547C78.3377 1.56358 77.6935 1.23555 77.0617 0.88606L77.0586 0.882992Z" fill="#C69663"/>
<path d="M55.129 10.0553C62.4997 7.14292 69.8397 4.15696 77.0571 0.882812C77.6889 1.22923 78.3331 1.56033 78.9833 1.88223C76.0633 3.04105 73.2046 4.32864 70.3305 5.58557C69.5698 5.89521 68.8091 6.17111 68.0423 6.46235C67.07 5.35564 65.6253 6.08833 65.4259 7.41577C65.3369 7.43417 65.1621 7.48016 65.0701 7.49855C61.0029 8.32935 57.1442 10.1442 53.4696 12.0388L52.8653 12.7163C52.7365 12.8267 52.4911 13.0505 52.3623 13.1609C51.9052 11.5391 50.0618 12.6274 50.0373 13.8874C49.8195 13.9763 49.387 14.1633 49.1661 14.2553C49.1017 14.2032 48.9668 14.1143 48.9024 14.0622L48.8901 14.3718C48.7613 14.4423 48.5097 14.5772 48.3809 14.6477C47.2153 14.4944 46.0559 14.3135 44.875 14.3319C48.2582 12.8236 51.712 11.4778 55.1259 10.0553H55.129Z" fill="#B3914F"/>
<path d="M70.3303 5.58616C73.2044 4.32923 76.0662 3.04164 78.9832 1.88281C81.2438 2.05756 83.3265 2.98953 85.3356 3.97668C92.1266 7.26922 99.2151 9.87503 106.202 12.723C121.177 18.7563 136.09 24.9919 151.387 30.1821C154.138 31.0068 155.255 33.8272 156.451 36.151C156.528 36.3257 156.684 36.6721 156.761 36.8469C156.843 39.0634 156.779 41.2768 156.785 43.4994C155.92 40.9947 154.994 38.5085 153.841 36.1326C153.12 37.647 152.319 39.14 151.218 40.4215C151.276 38.9653 151.258 37.5091 150.96 36.0805C150.503 35.7892 150.006 35.5593 149.516 35.3447C142.17 32.9044 134.876 30.3354 127.683 27.469C126.839 27.1287 125.996 26.7792 125.149 26.4634C119.008 23.7963 112.705 21.5246 106.534 18.9341C97.8808 15.3197 89.0317 12.113 80.615 7.95285C79.6089 7.44395 78.5906 7.87009 77.6581 8.30848C77.4465 8.40658 77.0079 8.59052 76.787 8.68249C75.4405 6.32498 72.7781 5.88046 70.3242 5.58616H70.3303Z" fill="#FAF4A5"/>
<path d="M68.0433 6.45979C68.8101 6.16855 69.5708 5.89264 70.3315 5.58301C72.7853 5.88038 75.4478 6.32489 76.7943 8.67934C73.089 10.2949 69.3316 11.7849 65.6079 13.3422C63.0375 12.4287 60.234 11.4875 57.5133 12.3244C55.7986 12.5758 54.1055 13.9462 52.3633 13.1552C52.4921 13.0449 52.7375 12.8211 52.8663 12.7107C56.952 11.0093 61.0959 9.43963 65.0711 7.49292C65.16 7.47453 65.3349 7.42855 65.4269 7.41016C66.3563 7.26914 67.2243 6.90737 68.0433 6.45672V6.45979Z" fill="#F7ED8A"/>
<path d="M65.4258 7.4132C65.6252 6.08576 67.0699 5.35307 68.0422 6.45978C67.2232 6.91044 66.3552 7.27218 65.4258 7.4132Z" fill="#8E7233"/>
<path d="M77.6657 8.3079C78.6012 7.86951 79.6195 7.44337 80.6225 7.95227C80.2545 8.35694 79.8956 8.7708 79.5398 9.19387C77.8313 11.7568 75.3376 13.6115 73.3653 15.9568C72.0065 17.4375 70.298 18.5319 68.7122 19.749C69.0098 19.9605 69.6017 20.3928 69.8993 20.6135C67.3473 21.6712 64.8014 22.7319 62.2709 23.8264C61.9243 23.6087 61.2403 23.1764 60.8906 22.9557C62.6635 21.2052 64.7002 19.7735 66.7492 18.3817C68.4699 17.2934 69.203 15.2823 70.6937 13.9702C71.7642 12.9984 72.8654 12.0633 73.9604 11.1161C75.4174 10.4968 76.7516 9.62307 77.6657 8.30176V8.3079Z" fill="#D1711B"/>
<path d="M80.6218 7.95508C89.0385 12.1152 97.8846 15.3219 106.54 18.9363C112.715 21.5268 119.015 23.7985 125.156 26.4656C123.095 26.717 121.147 26.0334 119.285 25.2547C116.153 23.9211 112.881 22.8328 109.485 22.4404C108.55 22.2411 107.945 23.1486 107.274 23.6268C107.298 22.5845 105.191 20.4201 105.212 22.5201C103.479 19.3073 99.4397 19.6721 96.8417 17.5997C94.7038 16.0485 92.3512 14.8375 89.9648 13.7155C86.6797 11.8086 83.1799 10.2819 79.5391 9.19974C79.8949 8.77361 80.2537 8.36282 80.6218 7.95815V7.95508Z" fill="#D17730"/>
<path d="M76.7917 8.68162C77.0095 8.59272 77.4481 8.40572 77.6628 8.30762C76.7488 9.62892 75.4145 10.5026 73.9575 11.1219C70.6326 11.7075 67.7463 13.4917 64.7618 14.954C61.1608 15.9779 57.9248 17.8909 54.6888 19.7273C54.109 23.4551 50.9007 25.6195 48.6002 28.2744C48.9345 28.4798 49.6062 28.8937 49.9406 29.0991C48.1738 29.8471 46.3887 30.5614 44.5851 31.245C43.1925 31.7723 41.8092 32.3088 40.4105 32.8238C39.2449 32.8882 38.064 32.8882 36.8984 32.9005C37.1438 31.7539 37.426 30.6196 37.7419 29.5007C38.3677 29.2186 38.9995 28.9396 39.6222 28.6637C39.8614 27.6459 39.978 26.5637 40.4994 25.6502C45.2476 21.8886 51.8331 21.2969 56.3635 17.2134C59.3848 15.7848 62.5318 14.6505 65.6053 13.3506C69.329 11.7933 73.0864 10.3034 76.7917 8.68776V8.68162Z" fill="#944B0C"/>
<path d="M79.5385 9.19727C83.1794 10.2795 86.6792 11.8062 89.9642 13.713C86.8724 13.2041 83.5199 12.6891 80.6151 14.2158C79.7777 14.5898 79.9373 15.6444 79.7379 16.374C76.4773 17.8364 73.1831 19.2128 69.898 20.6169C69.6005 20.3993 69.0085 19.967 68.7109 19.7524C70.2967 18.5353 72.0052 17.4409 73.364 15.9602C75.3363 13.6149 77.83 11.7602 79.5385 9.19727Z" fill="#E27F2C"/>
<path d="M64.7615 14.9542C67.746 13.4918 70.6324 11.7076 73.9573 11.1221C72.8623 12.0694 71.7611 13.0013 70.6906 13.9762C69.203 15.2914 68.4668 17.2994 66.7461 18.3877C64.6971 19.7796 62.6604 21.2082 60.8875 22.9617C61.2342 23.1794 61.9182 23.6116 62.2678 23.8324C61.4366 24.188 60.6115 24.5528 59.7864 24.9207C58.0258 25.6534 56.2805 26.4198 54.5229 27.1678C54.1947 26.9287 53.5383 26.4535 53.207 26.2144C57.7834 23.253 60.6943 18.4981 64.7615 14.9572V14.9542Z" fill="#BD6513"/>
<path d="M57.5118 12.3276C60.2325 11.4906 63.033 12.4318 65.6064 13.3454C62.533 14.6452 59.389 15.7795 56.3647 17.2081C55.9966 17.3491 55.2574 17.6281 54.8832 17.7691C51.411 16.7268 47.7364 17.0671 44.1875 16.5643C45.6107 15.991 47.0155 15.3595 48.3836 14.6452C48.5124 14.5747 48.7639 14.4398 48.8927 14.3693L49.1688 14.2528C49.3866 14.1639 49.8191 13.9769 50.0399 13.8849C50.8313 13.7041 51.6318 13.5048 52.3649 13.1584C54.1041 13.9493 55.8003 12.5789 57.5149 12.3276H57.5118Z" fill="#F6E37C"/>
<path d="M50.0391 13.8877C50.0636 12.6246 51.9071 11.5363 52.3641 13.1611C51.631 13.5076 50.8304 13.7099 50.0391 13.8877Z" fill="#856525"/>
<path d="M80.6155 14.2159C83.5203 12.6892 86.8728 13.2043 89.9647 13.7132C92.3479 14.8352 94.7006 16.0431 96.8415 17.5974C99.4395 19.6698 103.479 19.3049 105.212 22.5178C105.645 23.1616 106.39 23.4528 107.022 23.8513C108.614 25.7459 110.013 27.7999 111.147 29.995C100.869 26.0525 90.7069 21.782 80.8609 16.8677C80.5787 16.7451 80.0174 16.4937 79.7383 16.3711C79.9377 15.6445 79.7782 14.5869 80.6155 14.2128V14.2159Z" fill="#EC8B39"/>
<path d="M48.9068 14.0596C48.9712 14.1117 49.1062 14.2006 49.1706 14.2527L48.8945 14.3692L48.9068 14.0596Z" fill="#6D4B15"/>
<path d="M38.8272 16.8801C40.7719 15.8684 42.8361 15.1142 44.879 14.3294C46.0568 14.311 47.2193 14.4919 48.3849 14.6452C47.0199 15.3595 45.6151 15.991 44.1888 16.5643C36.1924 19.6606 28.2266 22.8305 20.1842 25.8073C19.4235 25.1298 18.5155 24.8294 17.4727 24.8876C19.8191 24.0446 22.1442 23.1555 24.463 22.2481C28.5671 20.611 32.7509 19.1947 36.815 17.4626L36.769 18.4865C37.588 18.1401 38.2965 17.6036 38.8241 16.8831L38.8272 16.8801Z" fill="#98722E"/>
<path d="M54.6902 19.7274C57.9262 17.891 61.1591 15.978 64.7632 14.9541C60.6959 18.495 57.7851 23.2498 53.2086 26.2113C53.5368 26.4504 54.1932 26.9256 54.5245 27.1647C52.997 27.8085 51.4695 28.4462 49.942 29.0961C49.6076 28.8907 48.9359 28.4768 48.6016 28.2714C50.902 25.6165 54.1104 23.4552 54.6902 19.7243V19.7274Z" fill="#AB5910"/>
<path d="M20.1826 25.8065C28.2251 22.8297 36.1878 19.6629 44.1873 16.5635C47.7392 17.0662 51.4108 16.726 54.883 17.7683C49.5091 20.0492 44.0309 22.0909 38.6263 24.2798C38.6202 23.9119 38.6079 23.1731 38.6017 22.8052C37.3012 22.1215 35.8688 21.4655 34.375 21.9621C27.0534 23.7065 20.2317 27.0236 13.0726 29.2799C11.3457 29.5619 10.9071 31.4167 10.1464 32.7196C10.7261 33.1764 11.312 33.6393 11.8917 34.1053C10.8151 34.4732 9.73848 34.8594 8.6956 35.3285L8.03306 35.7148C7.90423 40.2888 8.02693 44.8658 7.92264 49.4398C6.64051 46.276 6.435 42.8578 5.69271 39.5591C5.52401 38.3819 4.60996 37.5756 3.81859 36.7847C3.47812 39.9393 4.14679 43.2625 2.82479 46.2638C2.85853 42.542 2.49045 38.7805 3.0579 35.0955C3.92901 33.1948 5.18354 31.2971 6.96257 30.1628C11.3181 28.5533 15.8731 27.5355 20.1857 25.8096L20.1826 25.8065Z" fill="#E9C861"/>
<path d="M69.8989 20.6169C73.184 19.2128 76.4782 17.8333 79.7388 16.374C80.0148 16.4967 80.5761 16.748 80.8614 16.8707C80.5332 16.9228 79.8676 17.0117 79.5394 17.0638C80.3246 17.5972 81.1191 18.1276 81.9104 18.661C81.2019 19.035 80.4933 19.4213 79.7786 19.7739C74.6164 22.021 69.4234 24.1915 64.1446 26.1566L63.2428 25.7243C64.6477 24.9518 66.0709 24.2099 67.445 23.3852C64.7765 23.3852 62.476 25.473 59.7891 24.9181C60.6142 24.5502 61.4393 24.1854 62.2705 23.8298C64.8041 22.7353 67.3469 21.6715 69.8989 20.6169Z" fill="#F3DA7B"/>
<path d="M79.5391 17.0603C79.8673 17.0082 80.5329 16.9193 80.8611 16.8672C90.7071 21.7815 100.869 26.052 111.148 29.9944C113.494 30.9295 115.807 31.9534 118.147 32.9191C118.077 33.2011 117.936 33.7836 117.865 34.0656C118.439 34.8719 119 35.6874 119.534 36.5274C107.258 31.8584 95.0995 26.892 83.1002 21.5607C81.9868 20.9752 80.8764 20.3743 79.7814 19.7765C80.4961 19.4209 81.2046 19.0346 81.9132 18.6637C81.1218 18.1302 80.3274 17.5999 79.5421 17.0665L79.5391 17.0603Z" fill="#F4E990"/>
<path d="M54.8827 17.769C55.2569 17.628 55.9961 17.349 56.3642 17.208C51.8338 21.2915 45.2483 21.8832 40.5001 25.6448C39.9787 26.5583 39.8621 27.6405 39.6229 28.6583C38.9971 28.9342 38.3653 29.2132 37.7426 29.4953C37.4267 30.6173 37.1445 31.7485 36.8991 32.8951C38.0647 32.8828 39.2456 32.8828 40.4112 32.8184C36.4544 34.4862 32.5098 36.1876 28.4886 37.7143C24.1054 39.4587 19.5627 40.7463 15.0323 42.0369C15.0385 42.9505 15.0508 43.8733 15.0661 44.7869C15.3575 44.6888 15.9311 44.4895 16.2194 44.3883C15.7102 45.0321 15.2256 45.6943 14.7379 46.3596L14.4802 46.706C14.4342 45.0965 14.4036 43.4931 14.3913 41.8806C13.9711 41.9572 13.1276 42.1197 12.7104 42.1964C11.9374 42.5244 11.1829 42.8984 10.4283 43.2724C10.0173 42.5888 9.60323 41.9143 9.20448 41.2368C8.84868 39.284 8.70145 37.3005 8.69531 35.3231C9.73819 34.8541 10.8148 34.4678 11.8914 34.0999C20.9584 31.2672 29.7462 27.6466 38.626 24.2775C44.0336 22.0886 49.5088 20.0468 54.8827 17.766V17.769Z" fill="#6F3C0B"/>
<path d="M64.1435 26.1562C69.4223 24.1911 74.6152 22.0206 79.7775 19.7734C80.8725 20.3712 81.9798 20.9721 83.0963 21.5577C83.1546 21.8918 83.265 22.5693 83.3141 22.9096C82.0964 22.2321 80.8511 21.6098 79.6149 20.9721C78.9003 21.34 78.1856 21.714 77.4617 22.085C72.5264 24.4885 67.5819 26.9012 62.481 28.9245C60.7848 29.5867 59.1101 30.3041 57.4169 30.9724C54.5766 32.03 51.7853 33.2256 48.9297 34.2557C49.2211 33.5077 49.445 32.729 49.5339 31.9319C54.3404 29.8595 59.38 28.3512 64.1435 26.1562Z" fill="#D79C34"/>
<path d="M79.6145 20.9697C80.8506 21.6074 82.0959 22.2328 83.3137 22.9072C89.1661 26.071 95.408 28.4408 101.53 31.0221C101.582 31.9816 101.641 32.9412 101.699 33.9069C102.239 34.4465 102.782 34.9891 103.331 35.5286C102.481 35.8751 101.628 36.2245 100.791 36.5924C99.8893 38.3521 97.8526 37.7911 96.273 37.5581C92.9787 36.8315 89.2826 38.1835 86.4392 35.7923C86.3104 35.5807 86.0589 35.1607 85.9301 34.9492C85.1694 33.6034 84.2737 32.3403 83.2738 31.1631C82.6757 30.3906 82.0438 29.6425 81.4242 28.8976C81.5408 30.2127 81.642 31.5371 81.8567 32.8462C81.6113 33.027 81.1297 33.3796 80.8905 33.5543H78.7066C79.3752 31.8989 79.8599 30.1729 80.0592 28.4009C79.6206 29.1428 79.1943 29.8878 78.8078 30.6603C78.2802 29.0447 77.5778 27.4904 77.0349 25.8871C76.5012 24.6363 77.7557 23.7932 78.4642 22.9961C78.1299 22.6865 77.7956 22.3769 77.4582 22.0826C78.179 21.7086 78.8937 21.3345 79.6114 20.9697H79.6145Z" fill="#FBE78E"/>
<path d="M34.3731 21.9627C35.8669 21.466 37.2993 22.1251 38.5999 22.8057C38.606 23.1736 38.6183 23.9124 38.6244 24.2803C29.7446 27.6495 20.9568 31.267 11.8898 34.1027C11.3101 33.6398 10.7243 33.1738 10.1445 32.7171C10.9052 31.4172 11.3438 29.5625 13.0707 29.2774C20.2298 27.0241 27.0545 23.707 34.3731 21.9596V21.9627Z" fill="#D6B655"/>
<path d="M83.0977 21.5578C95.0969 26.892 107.256 31.8554 119.531 36.5244C121.721 37.3491 124.203 38.4558 126.245 39.0291C126.264 40.3289 127.567 40.9298 128.423 41.6747C125.794 40.8041 123.203 39.8445 120.644 38.8083C114.277 36.2056 107.931 33.5323 101.532 31.0215C95.4098 28.4402 89.1648 26.0674 83.3154 22.9067C83.2633 22.5664 83.1529 21.8888 83.0977 21.5547V21.5578Z" fill="#EAA453"/>
<path d="M105.211 22.5171C105.193 20.4171 107.3 22.5814 107.272 23.6238L107.021 23.8506C106.389 23.4521 105.64 23.1608 105.211 22.5171Z" fill="#F2E4A6"/>
<path d="M62.4805 28.9245C67.5845 26.9011 72.5259 24.4885 77.4612 22.085C77.7955 22.3823 78.1298 22.6889 78.4672 22.9985C77.7587 23.7956 76.5011 24.6417 77.0379 25.8895C77.5777 27.4928 78.2801 29.044 78.8108 30.6627C76.1422 36.4385 72.4829 41.69 69.6089 47.3707C68.8881 48.692 68.3329 50.2371 66.9679 51.0403C68.4126 46.7054 71.6456 43.1247 72.7682 38.7009C72.943 37.5421 73.1731 36.3894 73.4951 35.2612C70.6395 35.9388 68.3083 33.5874 65.4711 33.9399C64.7503 32.1159 63.9712 30.2703 62.4805 28.9214V28.9245Z" fill="#FBDD7A"/>
<path d="M107.271 23.6246C107.94 23.1495 108.547 22.239 109.483 22.4382C112.878 22.8306 116.151 23.919 119.283 25.2525C119.914 26.1416 120.641 26.954 121.448 27.6989C121.537 28.1036 121.635 28.5175 121.74 28.9283C122.712 29.4832 123.7 30.0289 124.66 30.6236C125.215 31.4881 125.607 31.4544 125.847 30.5408L126.574 30.7585C126.727 32.5182 126.316 34.2442 125.291 35.6912C122.902 34.7837 120.51 33.8824 118.145 32.9167C115.804 31.951 113.492 30.9271 111.145 29.9921C110.01 27.797 108.611 25.74 107.02 23.8485L107.271 23.6216V23.6246Z" fill="#E97729"/>
<path d="M59.7866 24.9176C62.4736 25.4725 64.7741 23.3848 67.4426 23.3848C66.0715 24.2094 64.6452 24.9513 63.2404 25.7239L64.1422 26.1561C59.3787 28.3512 54.3422 29.8595 49.5326 31.9319C48.7198 32.2783 47.9162 32.6523 47.1156 33.0141C46.2721 32.4162 45.4286 31.8276 44.582 31.2421C46.3856 30.5585 48.1708 29.8442 49.9375 29.0961C51.465 28.4462 52.9926 27.8085 54.5201 27.1647C56.2807 26.4167 58.026 25.6503 59.7836 24.9176H59.7866Z" fill="#E3C05C"/>
<path d="M6.62573 28.578C10.2267 27.3211 13.9014 26.245 17.4717 24.8869C18.5146 24.8287 19.4256 25.1322 20.1832 25.8066C15.8736 27.5326 11.3156 28.5504 6.96006 30.1599C5.18103 31.2942 3.9265 33.1949 3.05539 35.0926C2.48794 38.7775 2.85602 42.5391 2.82228 46.2608C2.71799 47.1162 2.62904 47.9868 2.55849 48.8575L2.46954 48.2781C2.1352 46.5276 1.95423 44.7157 1.15367 43.1062C1.36531 39.7892 -0.0763204 35.9571 2.11986 33.0784C3.35599 31.3647 4.42034 29.1758 6.62266 28.578H6.62573Z" fill="#794E22"/>
<path d="M119.285 25.2549C121.147 26.0336 123.095 26.7172 125.156 26.4658C125.999 26.7816 126.843 27.128 127.69 27.4714C128.748 29.5959 131.061 30.5125 133.097 31.4445C138.296 33.5445 143.845 35.6966 149.523 35.3471C150.013 35.5586 150.507 35.7916 150.967 36.0829C150.927 36.6377 150.878 37.1834 150.826 37.7383C148.888 38.891 149.467 41.1259 149.532 42.9684C148.992 42.8979 148.461 42.8335 147.928 42.7691C147.728 45.0101 147.664 47.2573 147.805 49.5044L147.477 48.8208C147.271 46.8373 147.213 44.8476 147.136 42.858C142.646 41.8647 138.269 40.4239 133.931 38.9094C131.027 37.9039 128.171 36.7726 125.297 35.6966C126.322 34.2465 126.733 32.5206 126.579 30.7639L125.852 30.5462C125.555 30.5646 124.963 30.6106 124.665 30.629C123.705 30.0374 122.721 29.4886 121.745 28.9337C121.641 28.5229 121.546 28.109 121.454 27.7044C120.647 26.9563 119.92 26.147 119.288 25.258L119.285 25.2549Z" fill="#E76521"/>
<path d="M127.688 27.4688C134.88 30.3352 142.174 32.9042 149.521 35.3445C143.843 35.6909 138.294 33.5418 133.095 31.4419C131.058 30.5068 128.746 29.5933 127.688 27.4688Z" fill="#C95A20"/>
<path d="M78.8113 30.6627C79.1977 29.8902 79.6241 29.1421 80.0627 28.4033C79.8634 30.1753 79.3787 31.9013 78.7101 33.5567C76.6672 38.8328 74.9005 44.2468 72.0847 49.1948C71.416 49.5105 70.7565 49.8447 70.094 50.1727C69.9314 49.2315 69.7719 48.2996 69.6094 47.3707C72.4834 41.69 76.1427 36.4415 78.8113 30.6627Z" fill="#E99343"/>
<path d="M57.4184 30.9727C59.1146 30.3044 60.7893 29.587 62.4825 28.9248C63.9701 30.2706 64.7492 32.1192 65.4731 33.9433C68.3073 33.5877 70.6415 35.9391 73.4971 35.2646C73.1751 36.3928 72.942 37.5455 72.7702 38.7043C71.8623 41.1844 70.2826 43.3274 69.0772 45.6665C67.1172 43.5604 64.1603 43.3335 61.6083 42.3954C59.09 41.862 57.6208 39.5045 56.1117 37.6344C54.7713 35.3474 56.216 32.9378 57.4184 30.9757V30.9727Z" fill="#F3CD71"/>
<path d="M81.4288 28.8998C82.0484 29.6479 82.6803 30.3928 83.2784 31.1654C83.1097 32.0728 82.5821 33.0262 83.0975 33.9337C84.0637 36.6192 85.4623 39.13 86.9561 41.5641C90.094 47.0456 92.8791 52.7324 96.1243 58.1617C97.2714 60.6235 100.486 59.8417 102.679 60.5009C102.357 60.7001 101.719 61.1048 101.403 61.3071C102.228 61.4114 103.059 61.5186 103.891 61.6351C103.207 62.0092 102.52 62.3832 101.829 62.7419C99.3173 62.6254 96.8083 62.3678 94.3146 62C94.1459 61.7179 93.8054 61.1569 93.6367 60.8779C93.5324 60.6603 93.333 60.228 93.2318 60.0134C91.0418 55.1236 88.548 50.3657 86.6402 45.3533C85.4409 41.0307 83.0054 37.1741 81.8583 32.8392C81.6466 31.5332 81.5423 30.2058 81.4258 28.8906L81.4288 28.8998Z" fill="#F4BC70"/>
<path d="M124.66 30.6257C124.958 30.6074 125.55 30.5614 125.847 30.543C125.608 31.4565 125.215 31.4903 124.66 30.6257Z" fill="#F9E197"/>
<path d="M40.4117 32.821C41.8104 32.306 43.1968 31.7725 44.5863 31.2422C45.4298 31.8277 46.2733 32.4133 47.1199 33.0141C42.5189 35.1141 37.6787 36.6071 33.0011 38.514C31.8601 38.9186 30.7313 39.3448 29.6056 39.7709C29.7682 39.3448 29.9338 38.9156 30.0964 38.4894C29.5627 38.2258 29.0259 37.9683 28.4922 37.7169C32.5134 36.1902 36.458 34.4887 40.4148 32.821H40.4117Z" fill="#BE9F3E"/>
<path d="M48.9311 34.2589C51.7868 33.2288 54.575 32.0302 57.4184 30.9756C56.2129 32.9407 54.7713 35.3472 56.1117 37.6342C57.6208 39.5012 59.09 41.8587 61.6083 42.3952C64.1603 43.3364 67.1172 43.5602 69.0772 45.6663C67.1172 49.3359 64.9854 52.9105 62.9548 56.5433C60.4611 56.2214 57.9735 55.9241 55.4676 55.7309C55.1332 54.3514 54.9707 52.9105 54.3909 51.6076C51.6794 48.9681 48.379 46.9631 45.7565 44.2254C43.8026 42.3002 43.0113 39.6147 41.8242 37.2234C44.229 36.316 46.508 35.1173 48.9311 34.2558V34.2589Z" fill="#DFB964"/>
<path d="M83.0953 33.9343C82.58 33.0269 83.1076 32.0735 83.2763 31.166C84.2763 32.3432 85.1719 33.6063 85.9326 34.9521L85.0554 34.8877C85.8866 36.6321 86.7761 38.352 87.6902 40.0596C87.5031 40.4336 87.135 41.1877 86.9571 41.5679C85.4633 39.1337 84.0646 36.6229 83.0984 33.9374L83.0953 33.9343Z" fill="#F5D385"/>
<path d="M47.119 33.0148C47.9195 32.653 48.7232 32.279 49.536 31.9326C49.447 32.7328 49.2201 33.5114 48.9317 34.2564C46.5086 35.1209 44.2265 36.3165 41.8248 37.224C38.4477 38.4288 35.2271 40.0076 31.8377 41.1664C31.761 40.9794 31.5923 40.6115 31.5156 40.4245C32.2303 40.026 32.9665 39.6581 33.6995 39.2902C33.5247 39.091 33.1781 38.7047 33.0033 38.5116C37.6809 36.6047 42.5211 35.1117 47.122 33.0117L47.119 33.0148Z" fill="#A16C22"/>
<path d="M80.8922 33.5568C81.1314 33.3821 81.613 33.0295 81.8584 32.8486C83.0055 37.1835 85.441 41.0401 86.6403 45.3627C85.1895 43.3271 84.1772 40.8163 81.8216 39.6361C81.5762 40.8347 81.1836 41.9935 80.6499 43.0941C80.5732 39.912 80.8554 36.7359 80.8952 33.5568H80.8922Z" fill="#FCF6C3"/>
<path d="M118.142 32.9191C120.506 33.8848 122.896 34.7861 125.288 35.6935C128.162 36.7696 131.018 37.9039 133.923 38.9064C133.576 39.1179 132.88 39.5502 132.53 39.7709C133.723 40.4208 134.935 41.129 135.573 42.4043C132.46 41.2823 129.264 40.3687 126.242 39.029C124.199 38.4557 121.718 37.349 119.528 36.5243C118.994 35.6874 118.433 34.8688 117.859 34.0626C117.93 33.7805 118.071 33.1981 118.142 32.916V32.9191Z" fill="#F2D681"/>
<path d="M85.0547 34.8877L85.9319 34.9521C86.0608 35.1636 86.3123 35.5836 86.4411 35.7951C88.5299 39.6855 90.996 43.3704 92.956 47.3313C94.4007 50.2927 95.5142 53.5454 97.7901 56.001C99.3176 56.8134 101.14 56.7736 102.811 57.1599C102.437 57.3346 101.683 57.6749 101.311 57.8496C99.8237 57.6442 98.2901 57.5339 96.9037 56.9299C95.551 55.5902 94.8424 53.7661 93.9652 52.1137C92.0113 48.0241 89.8673 44.0387 87.6956 40.0626C86.7816 38.355 85.8921 36.6351 85.0608 34.8908L85.0547 34.8877Z" fill="#E9B36A"/>
<path d="M156.452 36.1508C156.839 35.5959 157.231 35.0563 157.624 34.5137C157.922 35.1513 158.345 35.789 158.48 36.5094C157.9 39.8204 158.118 43.1803 158.118 46.525L157.514 46.5066C157.345 43.2999 157.998 39.8909 156.759 36.8466C156.682 36.6719 156.526 36.3255 156.449 36.1508H156.452Z" fill="#E79C6F"/>
<path d="M8.03138 35.7124L8.69392 35.3262C8.70006 37.3035 8.84728 39.287 9.20309 41.2399C8.76447 52.028 9.61411 62.8345 9.36566 73.6288C8.99758 73.6165 8.27063 73.595 7.90256 73.5889C7.9271 69.8917 7.97311 66.2006 7.9271 62.5126C7.95777 61.1422 7.9455 59.7688 7.90256 58.4046C7.89642 55.4156 8.02525 52.4265 7.92096 49.4405C8.02525 44.8666 7.90256 40.2895 8.03138 35.7155V35.7124Z" fill="#4B2F08"/>
<path d="M153.846 36.132C154.999 38.5079 155.928 40.9941 156.79 43.4988C156.836 47.0734 156.815 50.6541 156.784 54.2287C156.41 55.0472 155.984 55.8443 155.573 56.6506C154.631 55.1422 153.548 53.5849 153.548 51.7301C153.407 48.0789 153.683 44.4062 153.208 40.7673C152.892 44.8508 153.665 49.0354 152.481 53.03C151.604 55.8688 152.269 58.9559 151.076 61.7243C150.999 54.6272 150.818 47.5087 151.223 40.4178C152.324 39.1363 153.125 37.6434 153.846 36.1289V36.132Z" fill="#FCEB80"/>
<path d="M3.81619 36.7824C4.60755 37.5733 5.52467 38.3796 5.6903 39.5568C6.43259 42.8555 6.6381 46.2737 7.92023 49.4375C8.02452 52.4265 7.89569 55.4155 7.90183 58.4015C7.15954 56.4701 6.74239 54.407 5.813 52.5522C3.84072 51.3413 3.40823 54.4959 2.82852 55.765C2.82852 53.4597 2.75183 51.1543 2.55859 48.855C2.62914 47.9843 2.72116 47.1168 2.82238 46.2584C4.14439 43.2571 3.47265 39.9339 3.81619 36.7793V36.7824Z" fill="#E0B645"/>
<path d="M156.762 36.8468C157.998 39.8941 157.348 43.3001 157.516 46.5068C157.154 51.51 157.55 56.5591 156.884 61.5439C156.872 59.1036 156.786 56.6695 156.78 54.2262C156.811 50.6516 156.832 47.0709 156.786 43.4963C156.78 41.2737 156.845 39.0602 156.762 36.8438V36.8468Z" fill="#C46236"/>
<path d="M158.123 46.5283C158.123 43.1867 157.905 39.8236 158.485 36.5127C158.776 39.4312 158.562 42.3743 158.537 45.3051C158.304 52.1691 158.531 59.0362 158.414 65.9095C158.39 74.2818 158.022 82.6481 158.215 91.0266C158.368 99.6105 158.117 108.204 158.562 116.775C158.286 118.728 156.957 120.356 155.957 122.011L155.338 122.223L154.816 121.797C155.39 120.393 156.175 119.028 156.246 117.48C156.491 113.624 156.715 109.758 156.844 105.895C156.862 103.918 156.862 101.947 156.902 99.9753C156.942 97.6576 157 95.3369 157.019 93.0254C157.025 91.0664 157.019 89.1228 156.994 87.17C156.917 83.6996 157 80.2201 156.819 76.7558C156.801 76.5382 156.767 76.0998 156.749 75.8791C158.276 73.7024 157.921 70.9771 158.031 68.4724C158.243 61.1546 158.135 53.8399 158.12 46.5221L158.123 46.5283Z" fill="#B93B14"/>
<path d="M15.0352 42.0365C19.5656 40.7489 24.1082 39.4613 28.4914 37.7139C29.0251 37.9653 29.5619 38.2228 30.0956 38.4864C29.933 38.9126 29.7674 39.3417 29.6048 39.7679C25.2431 41.5981 20.6207 42.6803 16.2222 44.3848C15.9308 44.489 15.3572 44.6883 15.0689 44.7833C15.0566 43.8697 15.0444 42.947 15.0352 42.0334V42.0365Z" fill="#AE9941"/>
<path d="M31.832 41.169C35.2214 40.0102 38.4421 38.4314 41.8192 37.2266C43.0062 39.6147 43.7976 42.3003 45.7514 44.2286C48.374 46.9662 51.6744 48.9681 54.3859 51.6107C54.9656 52.9106 55.1282 54.3545 55.4625 55.7341C57.9685 55.9272 60.4561 56.2246 62.9498 56.5465C61.7719 56.9021 60.5972 57.273 59.4132 57.6164C59.2138 57.6501 58.8212 57.7206 58.6279 57.7574C55.9533 57.0676 53.2602 57.7697 50.6254 58.2847C49.4322 56.758 47.5703 56.3257 45.7606 56.0621C45.5981 54.986 45.5613 53.7628 44.6717 52.9903C42.9449 51.3348 40.2518 51.2306 38.5954 49.4678C37.2305 47.9994 35.5097 46.9693 33.9699 45.7185C33.0344 44.3389 32.6234 42.6927 31.8627 41.2242L31.8382 41.1721L31.832 41.169Z" fill="#C6AA5A"/>
<path d="M149.525 42.9654C149.46 41.1229 148.88 38.888 150.819 37.7354C150.543 43.229 150.601 48.7289 150.632 54.2287C149.742 54.2624 148.859 54.2931 147.976 54.3329C148.022 52.7173 148.022 51.0986 147.795 49.5014C147.653 47.2543 147.718 45.0071 147.917 42.7661C148.451 42.8305 148.982 42.8949 149.521 42.9654H149.525Z" fill="#F6853C"/>
<path d="M29.6055 39.7716C30.7342 39.3455 31.8599 38.9224 33.001 38.5146C33.1758 38.7078 33.5224 39.0941 33.6972 39.2933C32.9611 39.6612 32.228 40.0291 31.5133 40.4276C31.59 40.6146 31.7587 40.9825 31.8354 41.1695L31.8599 41.2216C26.6333 43.2634 21.1428 44.5387 15.9683 46.7092L15.5235 46.605L14.7383 46.3597C15.229 45.6975 15.7106 45.0323 16.2198 44.3885C20.6214 42.6809 25.2407 41.5987 29.6024 39.7716H29.6055Z" fill="#805E22"/>
<path d="M120.644 38.8115C123.202 39.8477 125.794 40.8073 128.423 41.6779C133.379 43.7013 138.443 45.4579 143.584 46.9448C142.566 47.3832 141.459 47.5058 140.364 47.5763C139.952 51.1509 136.002 51.6353 133.428 53.1221C131.527 52.2331 131.122 55.3447 130.251 56.4453C130.591 56.5035 131.287 56.6139 131.631 56.6721C131.468 57.2454 131.315 57.831 131.168 58.4104C128.604 57.9414 126.005 56.5863 123.383 57.5091C119.162 58.5576 114.767 58.5392 110.5 57.8065C108.025 57.5244 105.307 56.5955 103.025 58.0701C102.452 57.9935 101.878 57.9168 101.305 57.8524C101.679 57.6777 102.433 57.3374 102.804 57.1627C101.136 56.7764 99.3108 56.8162 97.7833 56.0038C95.5073 53.5513 94.3939 50.2986 92.9492 47.3341C93.2467 47.4046 93.8326 47.5518 94.1271 47.6253C94.2743 47.1226 94.4307 46.6321 94.578 46.1446C95.0687 46.8467 95.081 48.2906 96.2159 48.2385C102.24 48.5542 108.362 49.8296 114.316 48.2262C115.494 48.5818 116.699 49.4617 117.963 48.9405C119.349 48.5788 119.076 46.7302 120.101 45.9637C121.049 45.1452 122.021 44.3543 122.911 43.4652C122.291 43.1249 121.668 42.7816 121.049 42.4536C121.331 42.1071 121.616 41.7576 121.905 41.4235C121.478 40.5528 121.055 39.6791 120.635 38.8146L120.644 38.8115Z" fill="#FCC57C"/>
<path d="M133.925 38.9062C138.262 40.4207 142.636 41.8616 147.129 42.8548C147.206 44.8445 147.264 46.8341 147.47 48.8176C147.323 57.5057 147.611 66.2 147.083 74.8758C147.031 76.2799 147.108 77.6901 147.212 79.0942C147.188 81.2126 147.031 83.331 146.994 85.4586C146.188 81.1298 146.182 76.6999 145.571 72.3405C145.97 67.3619 146.074 62.3526 145.418 57.3923C144.979 53.7717 145.688 50.0623 144.761 46.5091L144.58 45.8071L144.439 45.2737L143.872 45.0989C141.062 44.3447 138.265 43.5201 135.578 42.4072C134.94 41.1319 133.728 40.4237 132.535 39.7738C132.882 39.5562 133.578 39.1239 133.928 38.9093L133.925 38.9062Z" fill="#F6CA67"/>
<path d="M81.8216 39.6367C84.1803 40.8139 85.1925 43.3278 86.6403 45.3634C88.5482 50.3727 91.0419 55.1337 93.2319 60.0235C87.2139 62.4975 84.4809 68.9047 80.8646 73.8497C80.6131 72.8564 80.3677 71.8846 80.1622 70.9005C79.4352 61.6268 80.2511 52.3593 80.6468 43.0979C81.1805 41.9973 81.5762 40.8384 81.8185 39.6398L81.8216 39.6367Z" fill="#FCFCEB"/>
<path d="M128.424 41.6779C127.568 40.9299 126.264 40.3321 126.246 39.0322C129.267 40.3719 132.464 41.2855 135.577 42.4075C138.264 43.5204 141.061 44.345 143.871 45.0992C143.331 45.9361 143.567 46.1753 144.579 45.8074L144.76 46.5094C144.469 46.6198 143.883 46.8374 143.589 46.9478C138.448 45.461 133.381 43.7013 128.427 41.681L128.424 41.6779Z" fill="#F07C39"/>
<path d="M86.9562 41.5679C87.1372 41.1877 87.5052 40.4336 87.6893 40.0596C89.8609 44.0327 92.008 48.0211 93.9588 52.1108C94.8361 53.7662 95.5446 55.5872 96.8973 56.9269C98.2837 57.5309 99.8174 57.6412 101.305 57.8466C101.879 57.911 102.452 57.9877 103.026 58.0643C106.151 58.5272 109.271 59.0361 112.381 59.6094C116.97 60.4218 121.706 60.8265 126.049 62.6505C124.503 62.5095 122.957 62.4697 121.408 62.393C115.163 61.737 108.881 61.4519 102.676 60.4984C100.486 59.8424 97.2685 60.6211 96.1213 58.1593C92.873 52.73 90.091 47.0432 86.9531 41.5617L86.9562 41.5679Z" fill="#FED992"/>
<path d="M153.206 40.7676C153.681 44.4065 153.405 48.0761 153.547 51.7304C153.547 53.5852 154.629 55.1425 155.571 56.6509C155.982 55.8446 156.408 55.0475 156.783 54.229C156.789 56.6692 156.871 59.1034 156.887 61.5467C156.482 66.3077 156.261 71.1178 156.752 75.8819C156.77 76.0995 156.804 76.5379 156.822 76.7586C155.727 75.9861 154.651 74.1559 153.136 74.9928C152.614 75.7194 152.206 76.5256 151.783 77.3166C151.531 76.6728 151.292 76.029 151.062 75.3913C150.921 70.8388 150.909 66.2771 151.074 61.7246C152.267 58.9562 151.602 55.8691 152.479 53.0303C153.666 49.0357 152.89 44.8511 153.206 40.7676Z" fill="#FAC860"/>
<path d="M9.20375 41.2393C9.6025 41.9168 10.0166 42.5912 10.4276 43.2749C11.1822 42.9009 11.9367 42.5268 12.7097 42.1988C12.3293 52.3677 12.4582 62.5519 12.7404 72.7207C12.6054 75.02 12.4367 77.3192 12.3784 79.6246C12.1974 77.8649 11.9735 76.1205 11.8048 74.3639C10.9337 75.0138 10.0657 75.6638 9.20069 76.3167C9.25897 75.4216 9.31111 74.5203 9.36326 73.6312C9.61477 62.837 8.76513 52.0304 9.20069 41.2423L9.20375 41.2393Z" fill="#5C3E10"/>
<path d="M15.9688 46.7053C21.1433 44.5348 26.6337 43.2595 31.8604 41.2178C32.6211 42.6862 33.0321 44.3356 33.9677 45.7121C35.5074 46.9628 37.2282 47.9929 38.5931 49.4614C40.2495 51.2272 42.9426 51.3284 44.6695 52.9839C45.559 53.7564 45.5988 54.9796 45.7583 56.0557C47.5681 56.3193 49.4299 56.7516 50.6231 58.2783C48.9085 58.594 47.1693 58.7289 45.4301 58.8454C43.1235 58.6278 40.6942 58.8332 38.5471 57.8154C37.5042 57.3249 36.3571 57.2666 35.2467 57.0735C33.7652 54.529 30.7623 53.2935 27.9005 53.2812C26.6061 52.0825 24.9222 51.6012 23.2873 51.0923C21.4255 50.5252 20.7691 48.5662 19.6924 47.1621C18.4563 46.9996 17.1803 47.0579 15.9688 46.7053Z" fill="#B09D51"/>
<path d="M12.7093 42.1996C13.1295 42.1229 13.973 41.9604 14.3902 41.8838C14.4024 43.4933 14.4362 45.0966 14.4791 46.7092C14.7951 53.4598 14.3166 60.2012 14.1509 66.9457C13.1019 70.3517 13.5896 73.9324 13.5129 77.4303C13.4301 75.8392 13.1571 74.2604 12.74 72.7215C12.4578 62.5526 12.329 52.3684 12.7093 42.1996Z" fill="#AF9448"/>
<path d="M1.15389 43.1064C1.95445 44.7159 2.13236 46.5278 2.46976 48.2783C2.27039 56.6445 2.17223 65.0169 2.38081 73.3892C2.18143 77.9234 2.26425 82.4636 2.40535 86.9978C2.03727 95.4284 2.43909 103.865 2.38694 112.296C2.42068 114.285 2.09555 116.483 3.42369 118.163C5.10457 119.883 6.75477 121.655 8.61049 123.194C12.6624 125.99 17.5026 127.219 21.944 129.221C25.3671 130.638 28.6338 132.41 32.0661 133.795C39.8325 137.563 47.4609 141.594 55.1935 145.42C57.0186 146.328 58.8283 147.257 60.6441 148.189C61.4232 149.547 62.4477 150.739 63.3495 152.027C45.5592 143.158 27.9069 133.967 9.65337 126.073C7.92648 125.306 6.01862 124.592 4.942 122.937C3.54945 120.929 1.90844 119.04 0.945312 116.787C1.18456 110.134 1.15082 103.467 1.17843 96.8141C1.12015 78.9105 1.29498 61.0039 1.15389 43.1064Z" fill="#5E2D15"/>
<path d="M144.578 45.8049C143.565 46.1727 143.326 45.9336 143.869 45.0967L144.436 45.2714L144.578 45.8049Z" fill="#AF5B29"/>
<path d="M14.4812 46.7058L14.7389 46.3594L15.5241 46.6046C16.11 51.3074 15.4996 56.0285 15.5947 60.7405C15.6407 63.5793 15.7296 66.4273 15.7235 69.2753C15.6254 72.0835 15.7879 74.8855 15.7941 77.6998C15.7174 79.0272 15.653 80.3608 15.6131 81.7005C15.5364 85.2567 15.7603 88.8037 15.7941 92.3599C15.8707 94.5948 15.8186 96.848 15.2542 99.0247C14.9843 96.6028 15.1008 94.1043 14.2481 91.7927C13.8678 83.5154 14.6223 75.2227 14.15 66.9454C14.3187 60.2009 14.7941 53.4595 14.4782 46.7088L14.4812 46.7058Z" fill="#56401D"/>
<path d="M15.5234 46.6045L15.9682 46.7087C17.1798 47.0643 18.4558 47.0061 19.6919 47.1655C20.7685 48.5696 21.4249 50.5286 23.2868 51.0957C24.9247 51.6046 26.6056 52.089 27.9 53.2846C30.7618 53.2969 33.7647 54.5354 35.2462 57.0768C36.3535 57.27 37.5006 57.3282 38.5466 57.8188C40.6937 58.8366 43.123 58.6312 45.4296 58.8488C44.7517 59.0941 44.083 59.3516 43.4205 59.6214C43.5892 59.8268 43.9174 60.2406 44.0769 60.446C40.5526 61.0071 37.0528 61.7091 33.5868 62.5338C33.323 62.546 32.8077 62.5859 32.5439 62.5981C31.7372 62.3222 30.9335 62.0432 30.1084 61.8317C27.8846 61.0898 25.5658 62.2057 23.3174 61.7091C22.293 61.47 21.2869 61.1358 20.2839 60.8323C23.7714 63.9562 26.9399 67.4542 30.7679 70.1765C31.1544 70.4677 31.9151 71.0471 32.3016 71.3353C29.5318 72.0312 28.0104 68.2758 25.2836 68.1072C22.3512 67.9202 19.3821 67.7791 16.6154 66.6724C16.3117 67.5278 16.0019 68.3923 15.7259 69.2752C15.732 66.4272 15.6431 63.5822 15.597 60.7403C15.4989 56.0253 16.1124 51.3042 15.5265 46.6045H15.5234Z" fill="#9F8E49"/>
<path d="M143.582 46.9452C143.88 46.8349 144.466 46.6172 144.754 46.5068C145.683 50.063 144.972 53.7725 145.41 57.39C145.095 61.7708 145.545 66.2192 144.573 70.5418C144.187 69.7999 143.772 69.0794 143.368 68.359C142.543 69.0028 141.717 69.6527 140.88 70.2904C138.92 71.0507 137.264 72.3444 135.589 73.5737C133.85 72.4977 131.801 72.4149 129.905 73.1047C129.73 72.7582 129.565 72.4088 129.402 72.0685C127.727 72.7 125.979 73.1047 124.209 73.3683C125.286 72.5498 126.329 71.6883 127.399 70.8514C130.635 68.3069 133.54 65.3761 136.801 62.853C135.092 62.0222 133.178 61.3202 131.252 61.6758C129.871 62.0958 128.706 62.991 127.451 63.6777L127.096 63.4202C126.832 63.227 126.31 62.8469 126.047 62.6538C121.703 60.8297 116.967 60.425 112.379 59.6126C109.265 59.0393 106.146 58.5304 103.023 58.0675C105.306 56.5929 108.023 57.5187 110.498 57.8039C114.765 58.5396 119.16 58.558 123.381 57.5065C126.004 56.5868 128.602 57.9388 131.166 58.4078C131.313 57.8284 131.47 57.2428 131.629 56.6696C131.289 56.6113 130.592 56.5009 130.249 56.4427C131.12 55.3421 131.525 52.2305 133.427 53.1195C135.997 51.6327 139.948 51.1483 140.362 47.5737C141.457 47.5032 142.564 47.3805 143.582 46.9422V46.9452Z" fill="#FAB270"/>
<path d="M145.983 109.933C146.949 110.184 146.995 111.91 146.937 112.781C145.815 112.71 145.327 110.757 145.983 109.933Z" fill="#FAB270"/>
<path d="M157.517 46.5068L158.121 46.5252C158.133 53.843 158.244 61.1577 158.032 68.4755C157.922 70.9801 158.277 73.7055 156.75 75.8822C156.259 71.115 156.48 66.305 156.885 61.5471C157.547 56.5623 157.155 51.5131 157.517 46.5099V46.5068Z" fill="#E46D3D"/>
<path d="M66.964 51.0407C68.329 50.2344 68.8841 48.6893 69.605 47.3711C69.7675 48.3 69.927 49.232 70.0896 50.1731C70.7521 49.8451 71.4116 49.5109 72.0803 49.1952C71.519 50.2651 70.973 51.3473 70.4239 52.4295C68.9946 55.0966 67.7308 57.8465 66.6021 60.6547C67.0223 61.3567 67.4333 62.0649 67.8719 62.7669C67.2339 62.3806 66.5959 61.9944 65.8935 61.7491C63.6575 60.8601 61.2098 61.1758 58.8633 61.2096C60.5074 60.8049 62.7311 60.9919 63.4704 59.0973C64.4642 56.3413 66.4395 53.9592 66.964 51.0468V51.0407Z" fill="#CA792A"/>
<path d="M2.46951 48.2783L2.55846 48.8577C2.7517 51.157 2.82838 53.4624 2.82838 55.7678C2.6106 58.2356 2.65355 60.7127 2.84065 63.1867C3.60134 62.6257 4.15652 61.4853 5.181 61.473C5.9877 62.6134 6.51527 63.9194 7.09499 65.1886C7.37719 64.2934 7.67471 63.4044 7.92623 62.5092C7.97224 66.2003 7.92623 69.8914 7.90169 73.5855C7.88942 74.821 7.86182 76.0656 7.81888 77.3072C7.2913 80.1399 7.25756 83.0278 7.03365 85.9003C6.76986 83.1381 6.71158 80.33 5.93249 77.6506C4.99083 77.7027 4.05837 77.7548 3.11671 77.8131C2.87746 76.3323 2.60754 74.8639 2.38056 73.3893C2.17505 65.0169 2.27013 56.6446 2.46951 48.2783Z" fill="#BB872F"/>
<path d="M147.47 48.8213L147.798 49.5049C148.025 51.1022 148.025 52.7178 147.979 54.3364C147.902 58.6376 148.657 62.9019 148.411 67.2123C148.095 68.8678 149.417 69.8794 150.672 70.6183C150.795 73.1934 150.761 75.7839 150.782 78.3652C150.414 80.4652 150.028 82.5713 149.454 84.6315C148.132 83.0588 147.758 81.0048 147.212 79.0979C147.108 77.6939 147.031 76.2836 147.083 74.8796C147.611 66.2037 147.322 57.5094 147.47 48.8213Z" fill="#F47E48"/>
<path d="M63.3005 57.1601C64.4936 55.1061 65.3893 52.8528 66.9659 51.041C66.4444 53.9534 64.466 56.3354 63.4722 59.0915C59.9142 59.3306 56.4021 59.9989 52.8594 60.3484C53.528 59.7568 54.1998 59.162 54.9022 58.6102C56.1445 58.3281 57.3836 58.0308 58.6259 57.7549C58.8191 57.715 59.2117 57.6445 59.4111 57.6138C60.6994 57.4268 61.9938 57.2919 63.2974 57.1632L63.3005 57.1601Z" fill="#FDD46C"/>
<path d="M2.83122 55.7678C3.41093 54.4986 3.84342 51.344 5.8157 52.5549C6.74509 54.4097 7.16224 56.4698 7.90453 58.4043C7.95054 59.7685 7.96281 61.1419 7.92907 62.5123C7.67755 63.4075 7.38002 64.2965 7.09783 65.1917C6.51811 63.9225 5.99053 62.6165 5.18383 61.4761C4.15935 61.4883 3.60417 62.6288 2.84348 63.1898C2.65638 60.7158 2.61037 58.2357 2.83122 55.7708V55.7678Z" fill="#CD9C36"/>
<path d="M66.6085 60.651C67.7373 57.8428 68.998 55.0929 70.4304 52.4258C70.6758 52.6526 71.1573 53.1156 71.4027 53.3393C71.7585 56.3529 71.7003 59.4063 72.1174 62.4138C72.5039 64.2103 73.2308 65.9178 73.5989 67.7266C71.5898 66.1999 69.3538 64.854 67.8753 62.7602C67.4367 62.0582 67.0257 61.35 66.6055 60.6479L66.6085 60.651Z" fill="#F5D25D"/>
<path d="M147.979 54.3328C148.862 54.2929 149.746 54.2622 150.635 54.2285C150.758 59.6916 150.623 65.1515 150.675 70.6146C149.418 69.8727 148.099 68.8641 148.415 67.2086C148.66 62.9013 147.905 58.637 147.982 54.3328H147.979Z" fill="#FD9B56"/>
<path d="M50.6278 58.2817C53.2626 57.7667 55.9557 57.0647 58.6304 57.7544C57.3881 58.0304 56.1489 58.3277 54.9067 58.6098C51.2903 59.183 47.7077 59.9311 44.0822 60.4461C43.9196 60.2407 43.5914 59.8269 43.4258 59.6215C44.0883 59.3517 44.7601 59.0941 45.4349 58.8489C47.174 58.7324 48.9132 58.5975 50.6278 58.2817Z" fill="#A58031"/>
<path d="M145.414 57.3927C146.071 62.353 145.97 67.3623 145.568 72.341C146.181 76.7004 146.187 81.1333 146.991 85.459C147.138 89.9349 146.243 94.374 146.546 98.856C146.534 101.057 146.482 103.268 146.516 105.484C146.264 104.757 146.089 104.022 145.988 103.274C145.537 96.3636 146.246 89.3677 145.356 82.5037C145.123 81.4797 144.816 80.4803 144.577 79.4625C144.255 76.5011 144.414 73.5121 144.577 70.5414C145.549 66.2188 145.098 61.7705 145.414 57.3896V57.3927Z" fill="#EDA159"/>
<path d="M52.8638 60.3478C56.4065 60.0013 59.9186 59.3299 63.4767 59.0908C62.7344 60.9854 60.5137 60.7984 58.8696 61.2031C61.2161 61.1694 63.6638 60.8567 65.8998 61.7426C61.1823 62.9137 56.2777 62.7788 51.4835 63.438C45.7538 63.9652 39.9812 64.2289 34.2515 63.5085L34.6318 64.4864L34.4692 64.4404C33.8128 63.8365 33.1932 63.1988 32.543 62.5918C32.8068 62.5796 33.3221 62.5397 33.5858 62.5275C40.0241 61.9664 46.4348 61.059 52.8608 60.3447L52.8638 60.3478Z" fill="#A6681A"/>
<path d="M80.8654 73.8457C84.4817 68.9008 87.2116 62.4905 93.2327 60.0195C93.337 60.2311 93.5364 60.6633 93.6376 60.8841C89.7329 63.8026 86.7883 67.7481 84.0737 71.7488C83.0615 73.3001 81.2242 74.4221 81.0249 76.4056C80.985 76.5589 80.9144 76.8808 80.8776 77.0432C83.7456 77.7575 86.4632 78.9378 89.1777 80.0967C89.19 82.6596 89.1532 85.3206 90.3648 87.6628C89.7605 87.2765 89.1593 86.8963 88.5612 86.5284C87.9477 87.2611 87.3435 88.0092 86.73 88.7511C85.0921 86.4702 83.7087 84.0238 82.0248 81.7766C81.7487 84.456 81.8316 87.16 81.5156 89.8394C81.5218 88.9749 81.5279 88.1195 81.5218 87.2642C81.4113 84.2874 82.1996 81.1329 80.5095 78.4473C79.4268 79.8759 78.4422 81.3842 77.5251 82.9293C77.2153 82.7178 76.6049 82.2855 76.3012 82.0648C76.6233 81.4517 76.9515 80.8477 77.2797 80.2499C76.4362 79.5816 75.5927 78.9102 74.7461 78.248C76.4331 77.6043 78.16 77.077 79.8869 76.5619C79.5771 76.4393 78.9514 76.1879 78.6446 76.0653C78.9483 75.8476 79.5526 75.4154 79.8624 75.1946C79.9789 73.7599 80.1016 72.3282 80.1599 70.8996C80.3654 71.8837 80.6108 72.8586 80.8623 73.8488L80.8654 73.8457Z" fill="#F8EBA9"/>
<path d="M20.2804 60.832C21.2865 61.1355 22.2895 61.4697 23.314 61.7088C25.5623 62.2055 27.8842 61.0896 30.105 61.8314C30.9301 62.043 31.7368 62.322 32.5404 62.5979C33.1907 63.2018 33.8103 63.8395 34.4667 64.4465L33.5311 64.7868C32.9698 66.2031 32.6416 67.6992 32.3533 69.1983C31.8196 69.5202 31.2889 69.8482 30.7614 70.1762C26.9334 67.4508 23.7618 63.956 20.2773 60.832H20.2804Z" fill="#8F7C3C"/>
<path d="M101.402 61.3073C101.718 61.108 102.356 60.7033 102.678 60.501C108.883 61.4544 115.165 61.7364 121.41 62.3956C120.232 62.6653 119.07 63.0148 117.898 63.3153C114.533 63.257 111.172 62.929 107.801 62.9811C105.81 62.9688 103.819 62.8585 101.829 62.742C102.519 62.3802 103.209 62.0093 103.89 61.6353C103.059 61.5188 102.227 61.4084 101.402 61.3073Z" fill="#DE9745"/>
<path d="M84.0732 71.7495C86.7847 67.7488 89.7323 63.8033 93.637 60.8848C93.8057 61.1607 94.1462 61.7217 94.3149 62.0068C96.8086 62.3747 99.3146 62.6322 101.83 62.7487C103.82 62.8652 105.811 62.9756 107.802 62.9878C108.099 63.3925 108.4 63.8125 108.704 64.2294C107.017 66.1087 106.17 68.6746 103.768 69.8764C96.0878 71.679 88.4655 73.7484 81.0273 76.4063C81.2267 74.4228 83.064 73.3008 84.0762 71.7495H84.0732Z" fill="#FBFAE5"/>
<path d="M131.257 61.6757C133.183 61.3201 135.097 62.0222 136.806 62.853C133.545 65.3791 130.641 68.3068 127.405 70.8513C127.61 69.5698 127.288 68.3252 126.767 67.1664C125.484 67.9512 124.42 69.4411 122.785 69.3828C124.331 67.8561 125.806 66.2528 127.205 64.5851C126.871 64.5605 126.211 64.5023 125.877 64.4747C126.276 64.2754 127.064 63.8769 127.457 63.6776C128.714 62.9878 129.88 62.0927 131.257 61.6757Z" fill="#F69D5B"/>
<path d="M117.898 63.3181C119.07 63.0146 120.233 62.6682 121.41 62.3984C122.956 62.4751 124.502 62.5149 126.051 62.6559C126.315 62.8491 126.837 63.2292 127.1 63.4224C124.033 63.3335 120.966 63.4346 117.898 63.3181Z" fill="#CB853E"/>
<path d="M34.25 63.5119C39.9797 64.2324 45.7524 63.9687 51.4821 63.4414C53.3501 64.1097 55.3039 64.5113 57.2241 65.0264C57.1934 66.1392 56.8192 67.2091 56.5155 68.2729C55.2978 68.6071 54.0862 68.9504 52.8562 69.2509C49.8717 68.742 46.9333 67.9633 44.0101 67.1785C40.8784 66.2956 37.7774 65.3299 34.6334 64.4929L34.2531 63.515L34.25 63.5119Z" fill="#EBCF65"/>
<path d="M107.799 62.9812C111.17 62.9291 114.532 63.2571 117.897 63.3153C120.964 63.4318 124.031 63.3276 127.099 63.4196L127.454 63.6771C127.062 63.8764 126.277 64.2749 125.875 64.4742C120.081 65.6085 114.431 67.3866 108.689 68.7692C107.425 69.0451 106.17 69.3547 104.919 69.6889L103.766 69.8698C106.17 68.665 107.014 66.102 108.701 64.2228C108.397 63.8028 108.097 63.3858 107.799 62.9812Z" fill="#F7E8B7"/>
<path d="M32.3567 69.1986C32.6481 67.6964 32.9763 66.2035 33.5346 64.7871C38.6109 70.7253 44.6504 75.7347 50.0765 81.3448C47.5122 81.4154 45.0952 80.514 42.6199 79.9929C38.8563 77.5127 35.8166 74.1313 32.2954 71.3354C31.9089 71.0442 31.1482 70.4648 30.7617 70.1766C31.2893 69.8486 31.8199 69.5205 32.3536 69.1986H32.3567Z" fill="#736024"/>
<path d="M33.5352 64.7836L34.4707 64.4434L34.6332 64.4893C37.7772 65.3263 40.8783 66.292 44.01 67.1749C44.3259 68.2632 44.3136 69.6366 45.3811 70.3172C47.6693 71.9972 49.8286 73.8335 51.7089 75.9734C51.3746 76.1849 50.7028 76.6172 50.3685 76.8379C52.1076 79.2261 54.7118 80.9459 55.9295 83.7111C56.7945 85.477 58.0245 87.4543 56.9785 89.4317C55.0829 86.412 52.7456 83.705 50.0771 81.3475C44.651 75.7373 38.6146 70.728 33.5352 64.7898V64.7836Z" fill="#622F09"/>
<path d="M108.691 68.7726C114.433 67.3869 120.083 65.6088 125.877 64.4775C126.212 64.5021 126.871 64.5603 127.206 64.5879C125.807 66.2556 124.332 67.859 122.786 69.3857C122.108 69.9988 121.415 70.5905 120.743 71.2159C120.332 70.287 119.924 69.3673 119.531 68.4415C117.501 68.4721 115.581 69.1619 113.802 70.0908C112.667 68.5641 110.329 69.2477 108.691 68.7756V68.7726Z" fill="#CC481A"/>
<path d="M16.6132 66.672C19.3768 67.7787 22.349 67.9228 25.2814 68.1067C28.0082 68.2754 29.5265 72.0277 32.2994 71.3349C35.8175 74.1308 38.8603 77.5122 42.6239 79.9924C43.3846 80.5135 44.1453 81.0408 44.9243 81.5436C43.8109 82.4143 42.7128 83.5394 41.2252 83.6681C37.707 83.8214 34.3544 82.5737 31.1154 81.375C27.9898 80.2806 24.7691 79.5203 21.6037 78.5668C19.5731 78.0273 18.1499 76.3841 16.6224 75.0566C16.3402 75.9334 16.0488 76.8071 15.7973 77.6962C15.7912 74.8819 15.6286 72.0799 15.7267 69.2717C16.0028 68.3888 16.3126 67.5273 16.6163 66.6689L16.6132 66.672Z" fill="#857B48"/>
<path d="M13.5146 77.427C13.5913 73.9291 13.1036 70.3484 14.1526 66.9424C14.6219 75.2197 13.8705 83.5124 14.2508 91.7897C14.0821 98.617 13.7355 105.481 14.1741 112.302C14.625 113.044 15.1096 113.758 15.6096 114.473C14.8489 114.04 14.076 113.63 13.303 113.222C12.7478 103.872 12.8582 94.4936 12.6006 85.1341C12.5883 83.2917 12.4779 81.4553 12.3828 79.622C12.4411 77.3167 12.6098 75.0174 12.7448 72.7181C13.165 74.2571 13.4349 75.8359 13.5177 77.427H13.5146Z" fill="#8C6F3B"/>
<path d="M44.007 67.1749C46.9332 67.9598 49.8716 68.7415 52.8531 69.2473C59.4907 70.5748 66.0424 72.2486 72.5328 74.1678C72.0359 74.1984 71.0513 74.2659 70.5544 74.2965C71.4562 75.8232 72.4224 77.3101 73.4929 78.7264C72.1126 79.266 70.7599 79.8607 69.4011 80.434C69.1189 80.5444 68.5576 80.7682 68.2724 80.8847C66.1835 81.7676 64.2051 82.8682 62.2267 83.9687C58.7147 81.3077 54.9572 78.9441 51.7028 75.9704C49.8226 73.8336 47.6632 71.9973 45.375 70.3142C44.3045 69.6305 44.3168 68.2602 44.0039 67.1719L44.007 67.1749Z" fill="#79400B"/>
<path d="M122.785 69.3825C124.423 69.4407 125.484 67.9539 126.766 67.166C127.288 68.3248 127.61 69.5695 127.404 70.8509C126.334 71.6879 125.291 72.5524 124.214 73.3679C120.135 76.1883 116.423 79.5238 112.687 82.7826L112.301 82.7764C113.043 81.5011 113.414 80.0511 112.997 78.5979C115.767 76.3447 118.147 73.6591 120.742 71.2096C121.411 70.5842 122.107 69.9926 122.785 69.3794V69.3825Z" fill="#E57C44"/>
<path d="M113.799 70.0849C115.578 69.156 117.498 68.4693 119.528 68.4355C119.921 69.3644 120.326 70.2841 120.74 71.21C118.142 73.6564 115.765 76.3419 112.995 78.5983C111.099 80.1556 109.265 81.7743 107.434 83.4022C107.738 81.3359 107.897 78.9845 105.836 77.7399C108.498 75.1954 110.971 72.4455 113.802 70.0818L113.799 70.0849Z" fill="#C42D0B"/>
<path d="M140.885 70.2927C141.722 69.6551 142.548 69.0051 143.373 68.3613C143.778 69.0818 144.192 69.8053 144.578 70.5441C144.416 73.5117 144.256 76.5007 144.578 79.4652C143.084 81.9331 140.183 82.6075 137.652 83.5027C137.582 85.0233 137.6 86.55 137.692 88.0828C137.336 88.0828 136.977 88.0767 136.628 88.0767C136.698 86.6266 136.674 85.1858 136.229 83.8001C133.063 84.9405 129.766 85.7315 126.401 85.9001L126.098 85.618C126.742 84.7689 127.613 83.9564 127.573 82.8038C132.496 79.1893 136.839 74.8422 140.885 70.2958V70.2927Z" fill="#FBB57B"/>
<path d="M104.919 69.6922C106.171 69.358 107.425 69.0484 108.689 68.7725C110.327 69.2415 112.664 68.5609 113.799 70.0876C110.971 72.4513 108.496 75.2012 105.833 77.7457C103.346 79.9867 100.846 82.2093 98.2419 84.3216C96.2972 83.221 94.2974 82.2093 92.2239 81.3663C91.8957 81.2314 91.2393 80.9616 90.908 80.8267C90.6319 80.1952 90.3283 79.5912 90.1289 78.9474C92.0736 76.173 95.4077 74.7413 98.5517 73.7634C99.7112 73.4599 100.312 72.2888 101.361 71.786C102.585 71.1545 103.815 70.5291 104.919 69.6983V69.6922Z" fill="#D94512"/>
<path d="M81.0253 76.4032C88.4604 73.7421 96.0857 71.6759 103.766 69.8733L104.92 69.6924C103.818 70.5232 102.588 71.1486 101.361 71.7801C100.312 72.2829 99.7113 73.454 98.5518 73.7575C95.4079 74.7354 92.0768 76.1671 90.129 78.9415C90.3284 79.5853 90.6321 80.1923 90.9081 80.8208C90.3284 80.5755 89.7487 80.3303 89.1751 80.0942C86.4636 78.9354 83.7429 77.7551 80.875 77.0408C80.9149 76.8783 80.9854 76.5564 81.0222 76.4032H81.0253Z" fill="#D65A24"/>
<path d="M135.593 73.5763C137.268 72.347 138.924 71.0502 140.884 70.293C136.839 74.8394 132.495 79.1865 127.572 82.8009C127.152 83.083 126.321 83.6563 125.904 83.9475C124.931 83.0401 123.959 82.1449 122.977 81.2497C122.545 81.7831 122.128 82.3319 121.72 82.8868C120.855 82.9389 120.07 83.2731 119.309 83.6471C118.695 83.1841 118.232 82.4361 117.472 82.2368C115.874 82.4238 114.306 82.9849 112.684 82.7917C116.42 79.5329 120.134 76.1975 124.21 73.377C125.983 73.1134 127.729 72.7087 129.403 72.0772C129.566 72.4175 129.732 72.767 129.906 73.1134C131.802 72.4236 133.851 72.5094 135.59 73.5824L135.593 73.5763Z" fill="#F6A373"/>
<path d="M2.38149 73.3889C2.60847 74.8635 2.87839 76.332 3.11764 77.8127C4.0593 77.7545 4.99176 77.7024 5.93342 77.6503C6.71252 80.3297 6.77079 83.1378 7.03458 85.9C7.26156 83.0274 7.29224 80.1426 7.81981 77.3069C8.01305 83.7724 7.76767 90.2471 7.87809 96.7188C7.57443 97.6477 7.22782 98.5612 6.87815 99.4809C6.36898 97.6906 5.94876 95.8818 5.56228 94.0639C4.73104 93.4262 3.89367 92.7886 3.06243 92.157C2.85692 90.431 2.59927 88.7112 2.40603 86.9914C2.26493 82.4572 2.17905 77.917 2.38149 73.3828V73.3889Z" fill="#A56E2A"/>
<path d="M7.90145 73.5889C8.26953 73.595 8.99648 73.6134 9.36455 73.6287C9.31241 74.5178 9.26026 75.4191 9.20199 76.3142C9.2664 79.245 7.9904 83.1017 10.7878 85.1373C10.9994 84.9104 11.4258 84.4475 11.6374 84.2237C11.7601 85.4469 11.8889 86.6854 12.0362 87.9148C12.2355 86.9859 12.4226 86.0662 12.5975 85.1403C12.8551 94.4999 12.7447 103.875 13.2999 113.228C14.0729 113.633 14.8458 114.047 15.6065 114.479C19.9038 116.919 24.4802 118.814 28.7959 121.23C25.7286 121.113 23.3944 118.691 20.3271 118.584C20.5663 119.614 20.7534 120.665 21.1583 121.656C22.0601 122.511 24.6581 122.499 23.606 124.265C18.6646 121.959 13.6128 119.917 8.64374 117.676C7.60086 115.138 7.98734 112.351 7.92292 109.684C7.88305 105.362 7.99347 101.048 7.87078 96.7317C7.76036 90.26 8.00574 83.7853 7.8125 77.3198C7.85851 76.0782 7.88305 74.8335 7.89532 73.5981L7.90145 73.5889Z" fill="#331A0C"/>
<path d="M9.20414 76.3142C10.0691 75.6642 10.9372 75.0143 11.8083 74.3613C11.977 76.121 12.2009 77.8654 12.3819 79.622C12.48 81.4584 12.5874 83.2917 12.5996 85.1341C12.4248 86.063 12.2377 86.9827 12.0383 87.9086C11.8911 86.6792 11.7623 85.4407 11.6396 84.2175C11.4279 84.4444 11.0016 84.9073 10.7899 85.1311C7.99256 83.0954 9.26855 79.2388 9.20414 76.308V76.3142Z" fill="#472E0F"/>
<path d="M70.5547 74.2967C71.0516 74.2661 72.0362 74.1986 72.5331 74.168C74.6004 74.683 76.6494 75.3023 78.6493 76.0626C78.9591 76.1852 79.5848 76.4366 79.8915 76.5592C78.1647 77.0742 76.4378 77.6015 74.7507 78.2453C74.441 78.3618 73.8091 78.6071 73.4932 78.7297C72.4227 77.3134 71.4565 75.8265 70.5547 74.2998V74.2967Z" fill="#9E5714"/>
<path d="M16.6194 75.0568C18.1469 76.3842 19.5701 78.0244 21.6006 78.567C24.7661 79.5204 27.9868 80.2807 31.1123 81.3751C34.3545 82.5738 37.704 83.8216 41.2222 83.6683C42.7098 83.5395 43.8048 82.4113 44.9213 81.5437C45.5992 81.9545 46.3016 82.3286 46.9948 82.7148C45.7372 84.3642 45.7004 86.5715 44.3845 88.1963L44.9827 88.6653C41.0013 90.0755 36.3666 89.7414 32.6613 87.6874C32.4865 87.7916 32.1337 87.997 31.9528 88.0982C31.4313 87.718 30.9099 87.344 30.3885 86.9761C25.7814 87.0221 21.8307 84.4132 17.5794 83.0735C17.2972 82.1262 16.6776 81.5284 15.6133 81.694C15.6532 80.3543 15.7176 79.0207 15.7943 77.6933C16.0458 76.8042 16.3341 75.9274 16.6194 75.0537V75.0568Z" fill="#75693E"/>
<path d="M153.135 74.9927C154.65 74.1558 155.727 75.986 156.822 76.7586C157.003 80.2228 156.92 83.7023 156.997 87.1727C156.294 86.9734 155.586 86.7803 154.883 86.5933C153.853 87.4578 152.724 88.2028 151.442 88.6289C151.279 85.3762 151.623 82.0775 150.887 78.8831C150.917 77.712 151.009 76.5501 151.062 75.3913C151.295 76.029 151.531 76.6727 151.782 77.3165C152.209 76.5256 152.614 75.7193 153.135 74.9927Z" fill="#FA9E4B"/>
<path d="M50.3672 76.8352C50.7015 76.6176 51.3733 76.1853 51.7076 75.9707C54.962 78.9475 58.7194 81.3111 62.2315 83.9691C61.9677 85.275 61.6978 86.5841 61.3819 87.8839C59.5844 93.6689 58.1397 99.555 56.1828 105.279C55.7135 106.606 55.2626 107.946 54.8301 109.292C54.5909 108.865 54.1216 108.016 53.8823 107.59C56.2595 101.027 58.6581 94.3862 59.5967 87.4455C57.1674 91.6118 56.9496 96.6181 55.511 101.152C55.189 100.778 54.5448 100.024 54.2228 99.6439C54.2749 99.3802 54.3761 98.8376 54.4283 98.5678C55.1767 95.4899 56.1153 92.461 56.9803 89.4229C58.0232 87.4455 56.7932 85.4682 55.9313 83.7024C54.7135 80.9402 52.1094 79.2203 50.3703 76.8291L50.3672 76.8352Z" fill="#56210A"/>
<path d="M73.4922 78.7295C73.8081 78.6069 74.44 78.3616 74.7498 78.2451C75.5933 78.9073 76.4368 79.5787 77.2834 80.247C76.9552 80.8448 76.627 81.4518 76.3049 82.0619C76.6086 82.2795 77.219 82.7118 77.5288 82.9264C76.0074 85.4586 74.4308 87.9449 72.9033 90.4618C70.5445 94.1008 68.0692 97.657 65.5111 101.152C63.9959 103.04 62.4315 104.895 60.9102 106.774C61.3365 103.218 60.6985 99.337 62.6554 96.1333C64.6523 92.6691 67.1797 89.5391 69.7685 86.5041C71.3206 84.7444 72.2561 82.5738 72.9984 80.385C71.7991 80.3911 70.5936 80.3911 69.4035 80.4309C70.7623 79.8576 72.115 79.266 73.4953 78.7234L73.4922 78.7295Z" fill="#F5DA91"/>
<path d="M98.2461 84.3181C100.85 82.2058 103.35 79.9832 105.838 77.7422C107.899 78.9838 107.739 81.3352 107.436 83.4045C106.089 84.4468 105.927 86.1145 106.276 87.675C106.341 87.9846 106.47 88.5947 106.534 88.9043C106.89 90.5843 107.224 92.2735 107.635 93.9412C106.706 95.376 105.844 96.8598 105.013 98.3527C103.761 94.7782 103.543 90.5782 101.108 87.583C101.829 94.9253 104.967 101.694 106.862 108.761C107.402 110.416 107.589 112.277 108.764 113.65C108.623 114.024 108.338 114.763 108.196 115.137C106.85 113.083 106.341 110.661 105.54 108.381C104.651 105.606 103.795 102.822 102.835 100.073C101.289 94.8241 100.096 89.4715 98.2461 84.3181Z" fill="#B4260D"/>
<path d="M77.5278 82.9293C78.4419 81.3842 79.4296 79.8759 80.5123 78.4473C82.1993 81.1328 81.4141 84.2874 81.5245 87.2642C80.7761 87.8436 80.0737 88.5916 79.0615 88.6621C76.896 88.889 75.0341 90.1122 72.9023 90.4647C74.4299 87.9478 76.0095 85.4615 77.5278 82.9293Z" fill="#C55614"/>
<path d="M107.434 83.4045C109.265 81.7736 111.099 80.158 112.995 78.6006C113.415 80.0568 113.041 81.5038 112.299 82.7791C111.391 83.4811 110.443 84.1372 109.489 84.7749C108.265 85.5535 106.983 86.3476 106.274 87.6719C105.928 86.1146 106.087 84.4438 107.434 83.4014V83.4045Z" fill="#D46026"/>
<path d="M150.784 78.3623L150.889 78.8835C151.622 82.0779 151.281 85.3766 151.444 88.6293C151.413 92.0751 151.398 95.5271 151.702 98.9729C151.625 99.4297 151.475 100.343 151.398 100.803C151.134 98.1942 150.837 95.5853 150.315 93.0224C148.472 94.5307 146.938 96.4437 146.552 98.8564C146.248 94.3744 147.144 89.9352 146.996 85.4594C147.036 83.3348 147.19 81.2165 147.214 79.095C147.763 81.0019 148.134 83.0559 149.456 84.6286C150.03 82.5684 150.416 80.4623 150.784 78.3623Z" fill="#DE5031"/>
<path d="M137.649 83.5033C140.183 82.6081 143.081 81.9306 144.575 79.4658C144.814 80.4836 145.124 81.483 145.354 82.507C145.459 85.5328 145.121 88.5617 145.272 91.5936C144.422 90.4716 143.312 89.6101 141.934 89.2484C141.536 89.4936 141.143 89.7389 140.747 89.9903C138.085 89.463 136.913 92.6513 134.806 93.6936L134.472 93.2307C133.435 90.6341 130.521 90.7199 128.254 90.0485C128.22 88.4452 127.533 87.0074 126.398 85.9007C129.763 85.7321 133.061 84.9411 136.226 83.8007C136.671 85.1864 136.695 86.6272 136.625 88.0773C136.971 88.0773 137.333 88.0834 137.689 88.0834C137.6 86.5506 137.579 85.0239 137.649 83.5033Z" fill="#F38C62"/>
<path d="M42.6211 79.9932C45.0964 80.5143 47.5134 81.4156 50.0777 81.3451C52.7462 83.7026 55.0835 86.4066 56.9791 89.4293C56.1141 92.4705 55.1755 95.4963 54.4271 98.5743C52.9395 97.9887 51.3353 97.7312 50.0256 98.8655C49.3109 98.8716 48.5901 98.8716 47.8723 98.9176C47.6208 98.0286 47.2036 97.21 46.7006 96.4375C45.6424 96.7348 44.5627 96.9464 43.4646 97.023C44.6118 94.5766 45.532 92.0137 45.8295 89.3128C45.624 89.1504 45.1976 88.8285 44.986 88.6691L44.3879 88.2C45.7037 86.5782 45.7405 84.3679 46.9981 82.7186C46.3019 82.3323 45.5994 81.9583 44.9246 81.5475C44.1455 81.0447 43.3848 80.5174 42.6242 79.9962L42.6211 79.9932Z" fill="#67522D"/>
<path d="M69.4028 80.4376C70.596 80.3977 71.8014 80.3977 72.9977 80.3916C72.2554 82.5805 71.3229 84.751 69.7678 86.5107C67.1759 89.5426 64.6516 92.6727 62.6547 96.14C60.6947 99.3406 61.3327 103.225 60.9095 106.781C60.5414 107.219 60.1733 107.658 59.8144 108.096C59.0139 108.979 58.1918 109.834 57.3667 110.693C57.3207 108.832 57.5784 106.778 56.1797 105.288C58.1397 99.5613 59.5813 93.6752 61.3788 87.8933C65.1945 87.9117 67.7066 84.705 69.82 81.9612C69.4335 81.6914 68.6605 81.1641 68.274 80.8913C68.5562 80.7748 69.1175 80.551 69.4028 80.4406V80.4376Z" fill="#E6B86B"/>
<path d="M89.1773 80.094C89.7509 80.3332 90.3306 80.5784 90.9104 80.8206C91.2386 80.9555 91.895 81.2253 92.2262 81.3602C94.1341 85.3547 96.8671 89.0887 97.4959 93.5708C97.8762 95.7811 98.5265 97.924 99.2687 100.036C98.5019 101.324 97.7995 102.651 97.1615 104.009C95.6279 101.968 94.1341 99.9014 92.7078 97.7799C91.3551 95.7321 89.981 93.7026 88.6406 91.6547C88.0087 90.6768 87.3768 89.7019 86.7266 88.7423C87.34 88.0004 87.9443 87.2555 88.5577 86.5197C89.1559 86.8876 89.7571 87.2677 90.3613 87.654C89.1497 85.3088 89.1896 82.6508 89.1743 80.0879L89.1773 80.094Z" fill="#FBE496"/>
<path d="M62.2285 83.9718C64.207 82.8712 66.1854 81.7706 68.2742 80.8877C68.6607 81.1575 69.4336 81.6878 69.8201 81.9576C67.7067 84.7014 65.1946 87.9081 61.3789 87.8897C61.6948 86.5898 61.9648 85.2808 62.2285 83.9748V83.9718Z" fill="#D39F4A"/>
<path d="M15.6158 81.6972C16.6801 81.5286 17.2967 82.1295 17.5819 83.0768C21.8363 84.4165 25.7839 87.0254 30.391 86.9794C30.9124 87.3473 31.4338 87.7213 31.9553 88.1014C32.1362 87.9972 32.489 87.7918 32.6638 87.6907C36.3691 89.7447 41.0007 90.0788 44.9852 88.6686C45.1968 88.8311 45.6231 89.153 45.8287 89.3124C45.5311 92.0102 44.6109 94.5731 43.4638 97.0226C44.5588 96.9459 45.6416 96.7313 46.6998 96.437C47.2028 97.2096 47.62 98.0281 47.8715 98.9172C46.1753 99.2268 44.4637 99.1164 42.7859 98.7301C41.9731 99.9472 41.0467 101.094 39.8536 101.958C40.4026 100.781 40.878 99.5763 41.3627 98.3715C38.3721 98.301 35.4213 97.6449 32.4184 97.8166C29.6027 97.9699 26.9402 96.8754 24.3238 95.9925C21.3792 94.9992 18.8671 92.9789 15.7906 92.3597C15.7569 88.8035 15.533 85.2565 15.6096 81.7003L15.6158 81.6972ZM29.2714 93.0464L29.8511 94.9992L29.2714 93.0464Z" fill="#635737"/>
<path d="M92.2296 81.3633C94.3031 82.2063 96.303 83.218 98.2477 84.3186C100.097 89.472 101.29 94.8216 102.836 100.073C100.8 103.222 104.539 107.011 102.223 110.113C101.971 109.831 101.474 109.264 101.229 108.979C99.8703 107.33 98.4654 105.708 97.1618 104.013C97.7998 102.654 98.5023 101.327 99.2691 100.039C98.5268 97.9271 97.8765 95.7812 97.4962 93.5739C96.8643 89.0919 94.1314 85.3548 92.2266 81.3633H92.2296Z" fill="#F6CA7C"/>
<path d="M122.977 81.2464C123.956 82.1415 124.931 83.0367 125.903 83.9442C126.324 83.6529 127.155 83.0796 127.572 82.7976C127.612 83.9503 126.741 84.7627 126.097 85.6119L126.4 85.8939C127.535 87.0006 128.225 88.4385 128.256 90.0418C126.173 90.3698 124.094 90.0725 122.069 89.585C121.431 89.8885 120.793 90.189 120.161 90.4986C119.575 89.4103 119.014 88.3097 118.48 87.1999C119.603 85.7897 120.671 84.3396 121.723 82.8773C122.127 82.3224 122.548 81.7767 122.98 81.2402L122.977 81.2464Z" fill="#F8C7A0"/>
<path d="M82.0279 81.7773C83.7088 84.0245 85.0952 86.474 86.7331 88.7518C87.3834 89.7113 88.0153 90.6831 88.6471 91.6642C86.5798 91.5753 84.5492 91.189 82.5708 90.6218C82.2303 91.9217 81.8623 93.2185 81.5463 94.5244C81.4574 92.9579 81.4114 91.4005 81.5218 89.8431C81.8377 87.1637 81.7549 84.4598 82.031 81.7804L82.0279 81.7773Z" fill="#EF661F"/>
<path d="M112.687 82.7854C114.31 82.9785 115.877 82.4175 117.476 82.2305C118.236 82.4297 118.699 83.1778 119.313 83.6407C120.074 83.2667 120.859 82.9325 121.724 82.8804C120.675 84.3427 119.604 85.7928 118.482 87.203C119.015 88.3097 119.577 89.4133 120.162 90.5017C120.794 90.192 121.432 89.8885 122.07 89.5881C124.095 90.0786 126.174 90.3729 128.257 90.0449C130.524 90.7132 133.438 90.6304 134.474 93.2271C133.882 93.2608 133.297 93.2976 132.708 93.3436C132.521 93.923 132.34 94.5146 132.159 95.1032C130.972 94.3123 129.625 93.8463 128.19 93.9689C129.318 94.953 130.496 95.8881 131.637 96.866C130.45 96.6146 129.303 96.2283 128.229 95.6735C128.002 95.6735 127.552 95.6857 127.328 95.6857C127.573 95.9616 128.061 96.5104 128.306 96.7802C127.371 96.5104 126.444 96.2406 125.515 95.9739C125.217 96.167 124.638 96.5656 124.343 96.7648C123.834 94.9408 123.641 92.8561 122.119 91.5409C122.371 92.9052 122.711 94.2602 123.049 95.6183C121.368 95.9463 120.15 94.5054 118.794 93.7942C117.887 94.1805 116.926 95.1584 115.954 94.3491C116.218 92.9266 117.371 91.1424 116.108 89.8855C114.341 87.6628 111.605 86.5929 109.488 84.7719C110.442 84.1342 111.39 83.4782 112.298 82.7761L112.684 82.7823L112.687 82.7854Z" fill="#E27D59"/>
<path d="M145.357 82.504C146.246 89.3681 145.538 96.364 145.989 103.274C146.093 104.022 146.265 104.755 146.516 105.484L146.734 106.205C146.516 107.164 146.271 108.118 146.025 109.077C145.614 108.89 144.783 108.522 144.363 108.335C142.029 109.418 139.796 110.699 137.624 112.063C137.553 112.109 137.412 112.192 137.342 112.238C136.072 109.927 133.345 110.963 131.247 110.757C129.578 110.834 128.033 110.178 126.628 109.353C124.238 110.641 121.551 110.99 118.883 110.558C119.012 109.856 119.14 109.154 119.282 108.458C119.346 108.167 119.469 107.587 119.533 107.305C120.073 107.603 120.616 107.909 121.171 108.207C121.956 108.581 122.763 108.949 123.576 109.295C124.57 108.381 125.772 107.915 127.106 108.302C126.707 107.728 126.315 107.155 125.919 106.588C127.318 104.902 128.612 103.142 129.842 101.333C131.213 98.6234 134.741 99.4143 137.247 99.4205C139.817 99.6902 142.409 99.7117 144.979 99.3806C145.219 96.7901 145.366 94.1904 145.277 91.5877C145.13 88.5526 145.464 85.5268 145.36 82.501L145.357 82.504Z" fill="#CC503D"/>
<path d="M106.273 87.6754C106.982 86.3479 108.264 85.557 109.488 84.7783C111.601 86.6024 114.34 87.6693 116.107 89.8919C117.371 91.1488 116.218 92.933 115.954 94.3555C115.754 94.9472 115.549 95.5327 115.34 96.1336C114.291 93.6933 111.037 94.1378 109.586 92.0102C109.187 92.0286 108.795 92.0624 108.399 92.0869C108.27 90.7809 107.375 89.8275 106.531 88.9047C106.467 88.5951 106.338 87.985 106.273 87.6754Z" fill="#CB6841"/>
<path d="M151.438 88.6284C152.72 88.2023 153.849 87.4573 154.879 86.5928C155.582 86.7798 156.29 86.9729 156.993 87.1722C157.017 89.125 157.023 91.0687 157.017 93.0276C156.655 93.1257 155.935 93.325 155.573 93.42C155.14 93.1227 154.717 92.8284 154.29 92.5371C153.297 94.631 152.475 96.7954 151.692 98.972C151.389 95.5262 151.401 92.0742 151.435 88.6284H151.438Z" fill="#F5843E"/>
<path d="M2.40558 86.998C2.59882 88.7179 2.85648 90.4377 3.06199 92.1637C3.89322 92.7952 4.7306 93.4329 5.56183 94.0706C5.94831 95.8855 6.36853 97.6973 6.87771 99.4876C7.22431 98.5679 7.57398 97.6513 7.87764 96.7254C8.00033 101.042 7.88991 105.355 7.92979 109.678C7.9942 112.345 7.60772 115.132 8.6506 117.67C7.01267 118.513 5.19069 118.535 3.42393 118.167C2.09579 116.487 2.41785 114.289 2.38718 112.299C2.43933 103.868 2.04058 95.4317 2.40558 87.0011V86.998Z" fill="#875120"/>
<path d="M79.0639 88.6597C80.0761 88.5892 80.7785 87.8411 81.5269 87.2617C81.5331 88.117 81.5269 88.9754 81.5208 89.8369C81.4104 91.3943 81.4564 92.9547 81.5453 94.5182C81.4932 94.9382 81.3766 95.769 81.3276 96.1859C78.5946 97.2497 75.65 97.3631 72.8035 97.8935C70.0338 98.2675 68.4418 101.299 65.5156 101.152C68.0738 97.6544 70.5491 94.1012 72.9078 90.4623C75.0396 90.1067 76.9045 88.8835 79.067 88.6597H79.0639Z" fill="#B73D0A"/>
<path d="M106.53 88.9043C107.374 89.824 108.27 90.7774 108.398 92.0865C108.791 92.0619 109.184 92.0282 109.585 92.0098C111.036 94.1343 114.291 93.6898 115.34 96.1332C115.186 96.5654 114.87 97.433 114.714 97.8653C114.024 99.72 114.637 101.587 115.487 103.27C116.171 102.602 116.852 101.936 117.548 101.28C118.56 103.819 116.619 106.253 116.156 108.712C115.091 109.027 114.042 109.362 112.984 109.696C113.352 108.543 113.717 107.396 114.107 106.25C113.803 106.21 113.193 106.133 112.889 106.087C112.978 103.981 113.193 101.881 113.539 99.8089C112.064 99.3123 110.524 99.0026 108.963 99.1314C108.543 97.3932 108.073 95.6733 107.629 93.9412C107.217 92.2735 106.88 90.5843 106.527 88.9043H106.53Z" fill="#C15437"/>
<path d="M140.75 89.987C141.143 89.7356 141.535 89.4904 141.937 89.2451C143.317 89.6069 144.425 90.4683 145.274 91.5904C145.363 94.1931 145.216 96.7928 144.977 99.3833C142.406 99.7113 139.814 99.693 137.244 99.4232L137.354 98.9786C138.456 97.6727 139.416 96.0111 141.149 95.4746C141.741 95.1588 142.612 95.1067 142.771 94.3096C141.529 93.3899 140.02 93.3623 138.719 94.1472C137.907 94.4108 137.121 95.493 136.232 94.8952C135.71 94.5396 135.232 94.141 134.809 93.6904C136.916 92.648 138.088 89.4597 140.75 89.987Z" fill="#E87552"/>
<path d="M82.5672 90.6182C84.5456 91.1853 86.5761 91.5716 88.6435 91.6605C89.9839 93.7084 91.355 95.7378 92.7107 97.7857C92.5573 98.2824 92.2414 99.2787 92.0788 99.7815C89.1158 98.0218 86.0332 95.8451 82.3862 96.3418C82.3862 96.9978 82.3862 97.6631 82.3923 98.3253C82.0641 98.1444 81.3985 97.798 81.0703 97.6232C81.1347 97.2615 81.2574 96.5472 81.3218 96.1885C81.374 95.7685 81.4905 94.9377 81.5396 94.5208C81.8555 93.2148 82.2236 91.918 82.5641 90.6182H82.5672Z" fill="#E84D13"/>
<path d="M122.12 91.5439C123.642 92.8591 123.835 94.9438 124.344 96.7679C124.641 96.5686 125.221 96.1701 125.516 95.9769C126.445 96.2406 127.371 96.5104 128.307 96.7832C128.062 96.5134 127.574 95.9647 127.328 95.6887C127.555 95.6887 128.006 95.6765 128.23 95.6765C129.307 96.2314 130.454 96.6177 131.638 96.869C130.497 95.8911 129.319 94.9561 128.19 93.972C129.626 93.8493 130.975 94.3123 132.159 95.1063C132.34 94.5207 132.521 93.929 132.708 93.3466C133.294 93.3006 133.88 93.2638 134.475 93.2301L134.81 93.693C135.236 94.1436 135.711 94.5422 136.233 94.8978C137.122 95.4956 137.908 94.4134 138.72 94.1498C138.095 95.7071 137.677 97.3381 137.355 98.9813L137.245 99.4258C134.739 99.4197 131.215 98.6257 129.841 101.339C128.611 103.148 127.313 104.907 125.917 106.593C126.31 107.161 126.703 107.734 127.105 108.307C125.77 107.921 124.565 108.384 123.574 109.3C122.761 108.954 121.958 108.586 121.169 108.212C120.571 105.815 121.608 103.543 122.528 101.391C122.043 101.173 121.562 100.953 121.083 100.747C120.942 100.514 120.645 100.057 120.504 99.8274C120.298 99.7692 119.878 99.6465 119.672 99.5883C119.286 98.4417 118.899 97.2952 118.519 96.1547C117.191 96.5931 115.915 97.1541 114.719 97.8684C114.872 97.4362 115.188 96.5686 115.344 96.1363C115.55 95.5385 115.755 94.9499 115.958 94.3583C116.93 95.1707 117.89 94.1896 118.798 93.8034C120.151 94.5115 121.369 95.9555 123.053 95.6274C122.718 94.2693 122.375 92.9174 122.123 91.5501L122.12 91.5439Z" fill="#DC6D51"/>
<path d="M14.2494 91.79C15.099 94.1016 14.9855 96.6001 15.2555 99.022C15.145 101.965 15.0499 104.936 15.461 107.851C15.5898 109.274 17.1357 109.789 18.1418 110.524C22.3624 112.864 26.8406 114.672 31.1379 116.843C41.1527 122.002 51.1643 127.162 61.2833 132.113C64.596 133.652 67.8228 135.359 71.1355 136.892C70.7797 137.717 70.4208 138.535 70.065 139.366C68.97 138.768 67.8473 138.207 66.7278 137.665C63.4734 136.126 60.2773 134.464 57.0566 132.849C45.8763 126.828 34.3156 121.539 22.9605 115.871C20.0803 114.571 17.2707 113.038 14.1696 112.302C13.731 105.481 14.0807 98.6173 14.2463 91.79H14.2494Z" fill="#310A05"/>
<path d="M154.293 92.5371C154.719 92.8283 155.143 93.1227 155.575 93.42C155.937 93.3219 156.658 93.1226 157.02 93.0276C157.002 95.3391 156.943 97.6568 156.903 99.9775C156.465 100.41 156.032 100.848 155.597 101.293C155.305 101.017 154.719 100.474 154.425 100.204C153.032 101.391 152.171 103.006 151.64 104.739C151.588 103.417 151.477 102.111 151.395 100.802C151.471 100.345 151.622 99.4318 151.698 98.972C152.477 96.7953 153.302 94.631 154.296 92.5371H154.293Z" fill="#EF7434"/>
<path d="M146.549 98.8555C146.936 96.4397 148.469 94.5267 150.313 93.0215C150.834 95.5844 151.132 98.1933 151.396 100.802C151.478 102.108 151.589 103.417 151.641 104.739C151.629 106.182 151.623 107.623 151.623 109.073C151.629 111.038 151.512 113.004 151.23 114.947C151.061 110.232 151.448 105.453 150.34 100.83C149.727 101.492 149.123 102.163 148.525 102.838C148.242 102.516 147.681 101.872 147.402 101.55C147.239 103.108 147.074 104.668 146.739 106.207L146.522 105.487C146.491 103.27 146.54 101.063 146.552 98.8585L146.549 98.8555Z" fill="#D03622"/>
<path d="M138.72 94.147C140.021 93.3622 141.53 93.3867 142.772 94.3094C142.61 95.1096 141.742 95.1586 141.15 95.4744C139.417 96.0078 138.457 97.6694 137.355 98.9785C137.678 97.3353 138.098 95.7074 138.72 94.147Z" fill="#EA8D5D"/>
<path d="M105.012 98.3529C105.843 96.8599 106.708 95.3761 107.634 93.9414C108.079 95.6735 108.548 97.3934 108.969 99.1316C110.07 103.929 111.367 108.779 110.913 113.752C110.18 111.606 109.444 109.469 108.812 107.292C108.438 107.415 107.699 107.654 107.331 107.768C106.588 104.619 105.831 101.483 105.012 98.3529Z" fill="#A82412"/>
<path d="M72.7994 97.8961C75.649 97.3688 78.5936 97.2523 81.3235 96.1885C81.259 96.5502 81.1364 97.2645 81.0719 97.6232C80.7161 99.0917 80.4922 100.591 80.4922 102.105C75.6735 105.14 70.3701 107.329 65.2846 109.88C66.1925 108.945 67.0697 107.979 67.947 107.02C66.7415 106.851 65.4594 106.363 64.2601 106.787C62.9135 107.663 61.702 108.73 60.3677 109.635C60.2266 109.248 59.9475 108.476 59.8125 108.089C60.1744 107.651 60.5395 107.213 60.9075 106.774C62.4289 104.895 63.9932 103.04 65.5085 101.152C68.4347 101.299 70.0266 98.267 72.7964 97.893L72.7994 97.8961Z" fill="#911D08"/>
<path d="M82.3867 96.3453C86.0337 95.8487 89.1133 98.0253 92.0794 99.785C92.2419 99.2822 92.5548 98.2829 92.7112 97.7893C94.1345 99.9077 95.6313 101.977 97.165 104.019C98.4655 105.714 99.8703 107.336 101.232 108.985C99.9961 109.733 98.99 108.51 98.0667 107.878C93.4137 103.835 87.6533 101.45 82.3959 98.335C82.3898 97.6728 82.3898 97.0075 82.3898 96.3515L82.3867 96.3453Z" fill="#DE390F"/>
<path d="M114.716 97.8631C115.915 97.1488 117.191 96.5878 118.516 96.1494C118.897 97.2898 119.283 98.4364 119.67 99.583C119.875 99.6412 120.295 99.7638 120.501 99.8221C120.642 100.055 120.94 100.512 121.081 100.742C121.556 100.947 122.041 101.168 122.525 101.386C121.605 103.538 120.565 105.809 121.166 108.207C120.611 107.909 120.071 107.603 119.529 107.305C119.464 107.587 119.341 108.17 119.277 108.458C118.246 108.657 117.204 108.722 116.158 108.71C116.621 106.248 118.562 103.814 117.55 101.278C116.854 101.934 116.17 102.6 115.489 103.268C114.639 101.588 114.026 99.7179 114.716 97.8631Z" fill="#D06248"/>
<path d="M50.0259 98.8619C51.3325 97.7276 52.9398 97.9851 54.4274 98.5707C54.3753 98.8405 54.2741 99.3831 54.2219 99.6467C53.6085 101.946 52.8355 104.199 52.2619 106.505C51.9153 105.855 51.5718 105.199 51.2252 104.552C50.7405 104.978 50.2528 105.407 49.7682 105.846C49.4768 105.337 49.1824 104.834 48.8971 104.337C45.8697 104.91 43.33 103.062 40.4743 102.599C40.005 103.261 39.5326 103.92 39.0511 104.576C38.7689 103.565 39.1799 102.688 39.8578 101.949C41.051 101.085 41.9773 99.941 42.7901 98.7209C44.4649 99.1072 46.1795 99.2175 47.8757 98.9079C48.5904 98.8619 49.3112 98.8619 50.0289 98.8558L50.0259 98.8619Z" fill="#55442C"/>
<path d="M80.4922 102.109C80.4922 100.595 80.7192 99.0954 81.0719 97.627C81.4001 97.8017 82.0657 98.1481 82.3939 98.329C87.6513 101.447 93.4116 103.829 98.0647 107.872C98.9849 108.504 99.991 109.727 101.23 108.979C101.476 109.261 101.972 109.828 102.224 110.113C102.991 110.95 103.804 111.757 104.613 112.566C105.767 113.731 106.966 114.853 108.156 115.987C106.969 115.678 105.779 115.35 104.678 114.801C99.5278 112.134 94.3165 109.571 89.0776 107.072C86.0992 105.622 83.2988 103.859 80.4953 102.106L80.4922 102.109Z" fill="#BB130A"/>
<path d="M108.969 99.1318C110.527 99.003 112.07 99.3126 113.545 99.8093C113.199 101.882 112.984 103.982 112.895 106.088C113.199 106.134 113.809 106.21 114.113 106.25C113.726 107.397 113.358 108.543 112.99 109.696C114.048 109.362 115.097 109.028 116.162 108.712C117.204 108.724 118.25 108.66 119.281 108.461C119.14 109.157 119.011 109.859 118.882 110.561C121.551 110.993 124.238 110.643 126.627 109.356C128.032 110.18 129.578 110.837 131.247 110.76C133.348 110.965 136.074 109.929 137.341 112.241C133.682 114.598 129.691 116.364 125.885 118.449C124.416 119.209 122.934 119.935 121.453 120.659C120.008 120.506 118.548 120.524 117.115 120.313C115.349 119.534 113.714 118.47 111.837 117.967C111.508 116.563 111.205 115.159 110.916 113.755C111.367 108.783 110.073 103.933 108.972 99.1348L108.969 99.1318Z" fill="#B33C2E"/>
<path d="M52.2624 106.508C52.836 104.203 53.609 101.95 54.2225 99.6504C54.5445 100.031 55.1887 100.785 55.5107 101.159C54.9065 103.768 53.9955 106.278 53.1581 108.817C51.8514 111.631 51.1091 114.651 50.4466 117.667C51.3361 116.861 52.1919 116.018 52.9925 115.123C53.7716 114.228 54.5967 113.357 55.4616 112.548C55.3389 113.461 55.2163 114.396 55.0936 115.316C57.1671 114.215 59.2375 113.087 61.3509 112.063C62.7158 112.017 64.09 112.109 65.4488 112.232C64.4059 113.274 63.271 114.228 62.1054 115.129C62.6207 115.258 63.6636 115.515 64.1789 115.638C62.0318 116.328 59.9246 117.125 57.8633 118.041C54.8942 118.317 51.9465 119.283 48.9375 118.955C49.9681 114.789 51.192 110.672 52.2624 106.511V106.508Z" fill="#410E08"/>
<path d="M151.639 104.736C152.166 103.004 153.031 101.388 154.424 100.201C154.721 100.471 155.307 101.014 155.595 101.29C156.034 100.845 156.467 100.407 156.902 99.9746C156.862 101.946 156.862 103.917 156.844 105.894C155.234 107.17 153.344 107.994 151.617 109.07C151.617 107.62 151.623 106.18 151.636 104.736H151.639Z" fill="#E6632B"/>
<path d="M102.223 110.113C104.535 107.008 100.799 103.222 102.836 100.073C103.796 102.823 104.652 105.607 105.542 108.381C105.483 108.626 105.373 109.114 105.315 109.359C104.753 109.442 104.201 109.534 103.646 109.617C103.956 110.601 104.266 111.582 104.612 112.566C103.799 111.753 102.99 110.95 102.223 110.113Z" fill="#F0AF74"/>
<path d="M148.517 102.835C149.115 102.158 149.723 101.489 150.333 100.827C151.44 105.45 151.054 110.23 151.222 114.945C151.094 115.981 150.925 117.026 150.759 118.062C149.716 117.701 148.646 117.406 147.661 116.904C146.83 115.956 146.947 114.574 146.618 113.412L145.962 112.716C141.965 114.003 138.585 116.631 134.641 118.069C135.834 116.29 137.889 115.558 139.751 114.721C139.036 113.838 138.328 112.949 137.625 112.066C139.797 110.702 142.033 109.42 144.364 108.338C144.784 108.525 145.615 108.893 146.026 109.08C146.272 108.12 146.517 107.167 146.735 106.207C147.069 104.668 147.238 103.108 147.398 101.551C147.674 101.873 148.235 102.516 148.52 102.838L148.517 102.835ZM145.977 109.932C145.321 110.757 145.809 112.707 146.931 112.78C146.99 111.91 146.944 110.184 145.977 109.932Z" fill="#BA1B10"/>
<path d="M65.283 109.883C70.3686 107.332 75.6719 105.143 80.4907 102.108C83.2942 103.859 86.0977 105.625 89.073 107.075C87.4565 107.571 85.7664 107.783 84.0794 107.899C84.2021 108.485 84.3248 109.077 84.4413 109.678C81.5029 109.163 78.5828 110.088 75.994 111.428C73.6997 112.406 71.4759 113.553 69.157 114.488C67.5129 114.957 65.8443 115.285 64.1757 115.634C63.6604 115.512 62.6175 115.254 62.1022 115.125C63.2678 114.224 64.4027 113.271 65.4456 112.228C64.0868 112.106 62.7126 112.017 61.3477 112.06C62.6881 111.391 63.9947 110.649 65.2861 109.883H65.283Z" fill="#5C0D08"/>
<path d="M54.8258 109.294C55.2583 107.948 55.7092 106.609 56.1785 105.281C57.5772 106.768 57.3195 108.822 57.3656 110.686C56.7398 111.311 56.1018 111.922 55.4577 112.541C54.5927 113.353 53.7707 114.221 52.9885 115.116L52.4609 114.819C53.4087 113.047 54.2338 111.213 54.8258 109.291V109.294Z" fill="#D09D53"/>
<path d="M151.621 109.071C153.348 107.995 155.237 107.17 156.848 105.895C156.719 109.76 156.492 113.623 156.25 117.48C156.179 119.025 155.394 120.392 154.82 121.796C153.698 120.907 152.63 119.954 151.643 118.924C150.471 119.344 149.278 119.837 148.008 119.592C148.928 119.089 149.845 118.568 150.765 118.059C150.934 117.023 151.1 115.978 151.228 114.941C151.511 112.998 151.627 111.033 151.621 109.068V109.071Z" fill="#DF5323"/>
<path d="M64.2611 106.79C65.4604 106.364 66.7425 106.854 67.948 107.023C67.0707 107.982 66.1965 108.948 65.2855 109.883C63.9973 110.649 62.6875 111.391 61.3471 112.06C59.2338 113.084 57.1664 114.212 55.0898 115.312C55.2125 114.393 55.3352 113.458 55.4579 112.544C56.1021 111.925 56.7401 111.315 57.3658 110.689C58.1909 109.834 59.016 108.976 59.8135 108.093C59.9484 108.479 60.2245 109.252 60.3687 109.638C61.7029 108.736 62.9145 107.667 64.2611 106.79Z" fill="#6B190B"/>
<path d="M89.0756 107.075C94.3145 109.574 99.5289 112.137 104.676 114.804C105.777 115.353 106.97 115.681 108.154 115.99C108.669 116.459 109.191 116.925 109.722 117.394C109.439 116.131 109.117 114.883 108.762 113.651C108.222 111.707 107.768 109.742 107.332 107.771C107.7 107.655 108.439 107.415 108.814 107.296C109.446 109.473 110.179 111.612 110.915 113.755C111.206 115.159 111.507 116.563 111.835 117.968C111.488 118.593 111.145 119.218 110.804 119.856C103.633 119.945 97.5291 115.714 90.9835 113.427C88.8241 112.14 86.6218 110.935 84.444 109.678C84.3274 109.08 84.2047 108.485 84.082 107.9C85.769 107.783 87.4591 107.572 89.0756 107.075Z" fill="#830D0A"/>
<path d="M53.0556 109.58C53.3378 108.918 53.6169 108.259 53.8807 107.597C54.1199 108.023 54.5892 108.872 54.8285 109.298C54.2365 111.217 53.4114 113.054 52.4636 114.826L52.9912 115.123C52.1937 116.018 51.3348 116.861 50.4453 117.667C51.1078 114.654 51.8501 111.634 53.1568 108.817L53.0525 109.583L53.0556 109.58Z" fill="#744025"/>
<path d="M105.541 108.381C106.338 110.662 106.848 113.084 108.197 115.138C108.338 114.764 108.624 114.025 108.765 113.651C109.12 114.88 109.443 116.131 109.725 117.394C109.197 116.925 108.676 116.459 108.157 115.99C106.964 114.856 105.768 113.737 104.615 112.569C104.268 111.584 103.958 110.603 103.648 109.619C104.204 109.537 104.756 109.445 105.317 109.362C105.375 109.117 105.486 108.626 105.544 108.384L105.541 108.381Z" fill="#DD8452"/>
<path d="M19.7671 109.182C20.7916 109.786 21.7762 110.604 23.0277 110.626C25.322 110.619 26.9845 112.456 29.1377 112.965C31.5486 113.513 33.6221 115.059 36.1097 115.298C38.0421 116.993 40.7935 118.118 43.3669 117.428C45.3515 116.867 47.1244 118.4 48.9402 118.955C51.9492 119.283 54.8938 118.317 57.866 118.041C56.9305 119.176 55.857 120.187 54.6362 121.024C54.6116 122.646 54.3969 124.528 55.6791 125.785C57.5992 127.827 60.3843 128.728 62.4639 130.589C62.0713 131.098 61.6787 131.607 61.2861 132.122C51.1701 127.168 41.1554 122.012 31.1407 116.852C26.8434 114.681 22.3651 112.873 18.1445 110.534C18.6844 110.083 19.2273 109.632 19.7671 109.188V109.182Z" fill="#3B2B24"/>
<path d="M75.9953 111.428C78.5871 110.089 81.5041 109.163 84.4426 109.678C86.6204 110.935 88.8258 112.14 90.9821 113.427C93.0065 115.674 96.1965 116.364 98.1749 118.663C99.2239 119.623 98.9724 121.232 98.7485 122.495C98.0706 124.074 96.5646 125.077 95.3898 126.263C94.7395 125.291 94.1077 124.298 93.6629 123.216C92.9206 122.725 92.1691 122.256 91.4146 121.799C90.3502 121.876 89.2951 121.953 88.243 122.039C88.1387 121.407 88.0375 120.782 87.9393 120.165C87.2952 120.693 86.6449 121.229 86.0192 121.787C84.9058 119.779 83.8169 117.71 82.1851 116.061C81.4121 115.165 80.3754 114.439 79.9306 113.317C79.9766 112.158 81.1422 111.643 81.9397 111.057C79.9613 111.198 77.9706 111.25 75.9922 111.431L75.9953 111.428Z" fill="#833C36"/>
<path d="M75.9941 111.429C77.9725 111.248 79.9631 111.196 81.9416 111.055C81.141 111.64 79.9754 112.155 79.9325 113.314C80.3772 114.436 81.414 115.163 82.1869 116.058C83.8187 117.707 84.9076 119.773 86.0211 121.785C85.3585 122.37 84.7052 122.989 84.0672 123.609C86.4382 127.159 83.4353 131.009 81.2637 133.799C80.2637 132.974 79.2147 132.208 78.178 131.441C79.5122 129.381 78.9571 126.99 78.4234 124.783C74.9573 123.087 71.2459 121.834 68.2031 119.372C68.9699 117.851 69.795 116.208 69.1571 114.491C71.4759 113.556 73.6997 112.41 75.9941 111.432V111.429Z" fill="#683B34"/>
<path d="M14.1719 112.302C17.2698 113.038 20.0795 114.57 22.9628 115.87C34.3179 121.539 45.8785 126.827 57.0588 132.848C54.7185 132.551 52.4978 131.52 50.0991 131.671C42.9523 128.295 35.9988 124.497 28.8029 121.223C24.4841 118.807 19.9108 116.916 15.6135 114.472C15.1105 113.758 14.6289 113.044 14.178 112.302H14.1719Z" fill="#654A28"/>
<path d="M137.343 112.237C137.413 112.191 137.554 112.108 137.625 112.062C138.327 112.945 139.036 113.834 139.75 114.717C137.888 115.554 135.833 116.29 134.64 118.065C131.41 119.972 127.914 121.33 124.484 122.832C125.11 121.171 126.662 120.251 127.996 119.227C127.288 118.963 126.585 118.706 125.883 118.448C129.693 116.361 133.68 114.598 137.339 112.24L137.343 112.237Z" fill="#A80F0A"/>
<path d="M134.639 118.068C138.584 116.634 141.967 114.003 145.961 112.716L146.617 113.412C136.32 119.203 125.41 123.795 114.984 129.353C111.506 131.033 108.037 132.759 104.635 134.596C100.724 136.555 96.8195 138.504 92.921 140.488C88.8415 142.49 84.7037 144.397 80.6763 146.497C79.7623 146.239 78.8605 145.981 77.9648 145.684C79.0875 145.344 80.2193 145.022 81.3419 144.66C88.1973 141.542 94.6755 137.674 101.414 134.323C109.147 130.58 116.791 126.652 124.483 122.833C127.913 121.333 131.409 119.972 134.639 118.065V118.068Z" fill="#D24F28"/>
<path d="M90.9844 113.424C97.53 115.711 103.634 119.942 110.805 119.853C111.146 119.215 111.489 118.59 111.836 117.964C113.71 118.467 115.348 119.531 117.115 120.309C118.544 120.521 120.007 120.503 121.452 120.656C115.857 123.366 110.241 126.039 104.839 129.117C101.772 130.65 98.7692 132.351 95.5209 133.489C96.1129 132.986 96.6865 132.471 97.2723 131.962C96.6466 130.055 96.1773 128.096 95.3921 126.257C96.5638 125.07 98.0729 124.068 98.7508 122.489C98.9777 121.226 99.2262 119.617 98.1772 118.657C96.1988 116.358 93.0088 115.668 90.9844 113.421V113.424Z" fill="#952B28"/>
<path d="M146.62 113.412C146.948 114.571 146.831 115.957 147.663 116.904C148.647 117.407 149.718 117.704 150.761 118.063C149.841 118.572 148.923 119.093 148.003 119.596C140.973 122.379 134.277 125.92 127.55 129.354C122.17 132.128 116.68 134.706 111.248 137.38C110.499 136.69 109.754 136.009 109.012 135.326C110.539 133.529 112.748 132.616 114.591 131.23C114.689 130.761 114.889 129.826 114.984 129.357C125.409 123.799 136.32 119.206 146.617 113.415L146.62 113.412Z" fill="#A60D06"/>
<path d="M8.64939 117.667C13.6184 119.908 18.6703 121.95 23.6117 124.255C26.1882 125.484 28.8169 126.643 31.2554 128.145C31.2308 129.451 32.6203 130.245 33.6908 129.402C34.3104 131.098 36.2489 131.386 37.6538 132.186C39.169 132.713 39.9542 134.17 40.7855 135.433C37.6292 136.877 35.2367 132.793 32.0682 133.796C28.6328 132.41 25.3662 130.641 21.9461 129.222C17.5077 127.22 12.6676 125.987 8.61258 123.194C6.75687 121.655 5.10666 119.883 3.42578 118.164C5.19255 118.532 7.01452 118.51 8.65246 117.667H8.64939Z" fill="#714618"/>
<path d="M20.332 118.577C23.3993 118.688 25.7335 121.109 28.8008 121.223C35.9998 124.494 42.9503 128.295 50.0971 131.671C53.8913 133.688 57.6948 135.696 61.5534 137.59C61.3265 137.796 60.8694 138.204 60.6455 138.409C59.0229 137.747 57.3727 137.174 55.6826 136.729C56.4311 138.017 57.1457 139.556 58.7622 139.893C58.6272 140.389 58.4984 140.898 58.3757 141.413C50.2443 137.22 42.1559 132.894 33.6901 129.408C33.0061 128.764 32.1749 128.314 31.2547 128.151C28.8192 126.649 26.1906 125.49 23.611 124.261C24.66 122.495 22.0651 122.51 21.1633 121.652C20.7584 120.659 20.5713 119.61 20.332 118.58V118.577Z" fill="#3C110A"/>
<path d="M121.45 120.656C122.931 119.935 124.413 119.206 125.882 118.445C126.584 118.703 127.287 118.96 127.995 119.224C126.661 120.248 125.109 121.168 124.483 122.829C116.79 126.649 109.147 130.576 101.414 134.319C102.285 132.419 104.629 131.26 104.837 129.117C110.239 126.039 115.855 123.366 121.45 120.656Z" fill="#950D07"/>
<path d="M148.004 119.595C149.274 119.84 150.467 119.344 151.639 118.927C152.623 119.957 153.694 120.91 154.816 121.799L155.338 122.225C154.289 122.74 153.329 123.418 152.369 124.08C149.062 124.929 146.252 126.983 143.09 128.204C138.256 130.162 133.784 132.9 128.931 134.792C129.376 133.884 129.833 132.989 130.29 132.094C129.284 131.953 128.281 131.812 127.281 131.662C127.364 130.889 127.462 130.123 127.551 129.356C134.278 125.923 140.974 122.382 148.004 119.598V119.595Z" fill="#D73711"/>
<path d="M86.0208 121.784C86.6465 121.223 87.2968 120.689 87.9409 120.162C88.0391 120.781 88.1403 121.404 88.2446 122.035C89.2936 121.952 90.3518 121.873 91.4161 121.796C92.1707 122.253 92.9253 122.725 93.6645 123.212C94.1092 124.295 94.7411 125.285 95.3914 126.26C96.1766 128.102 96.649 130.061 97.2716 131.965C96.6858 132.474 96.1122 132.989 95.5202 133.492C91.2597 135.938 86.8152 138.032 82.4658 140.301C82.2081 140.423 81.6928 140.675 81.4352 140.803C82.248 139.81 83.0271 138.801 83.8399 137.814C83.0394 136.435 82.248 135.052 81.2695 133.795C83.4412 131.005 86.4441 127.155 84.073 123.605C84.711 122.986 85.3613 122.369 86.0269 121.781L86.0208 121.784Z" fill="#752C29"/>
<path d="M155.339 122.222L155.959 122.011C155.146 123.216 154.367 124.58 152.962 125.193C134.92 133.501 117.173 142.44 99.4471 151.414C97.4503 152.425 95.4658 153.474 93.4598 154.479C92.0795 154.519 90.7023 154.427 89.3281 154.274C90.2759 153.741 91.2023 153.186 92.1439 152.652C94.7204 151.254 97.3828 150.025 99.9471 148.602C109.658 144.108 119.047 138.921 128.933 134.795C133.786 132.9 138.258 130.165 143.092 128.207C146.257 126.989 149.064 124.935 152.37 124.083C153.33 123.421 154.29 122.743 155.339 122.228V122.222Z" fill="#A21F0D"/>
<path d="M31.2543 128.148C32.1745 128.311 33.0057 128.762 33.6897 129.405C32.6193 130.248 31.2267 129.457 31.2543 128.148Z" fill="#8C6744"/>
<path d="M33.6921 129.402C42.1578 132.888 50.2463 137.214 58.3777 141.408L58.3317 141.647C58.7427 143.836 61.0585 144.495 62.721 145.525C60.2211 147.005 57.7458 144.912 55.1938 145.421C47.4612 141.595 39.8328 137.563 32.0664 133.795C35.238 132.79 37.6274 136.873 40.7837 135.433C39.9524 134.169 39.1672 132.713 37.652 132.186C36.2471 131.389 34.3086 131.098 33.689 129.402H33.6921Z" fill="#8C5024"/>
<path d="M95.5208 133.492C98.7691 132.351 101.772 130.653 104.839 129.12C104.634 131.266 102.287 132.425 101.416 134.323C94.6773 137.67 88.1992 141.542 81.3438 144.66C81.9051 143.875 82.4664 143.087 83.0246 142.309C82.8375 141.631 82.6504 140.963 82.4633 140.301C86.8127 138.035 91.2603 135.941 95.5177 133.492H95.5208Z" fill="#780A09"/>
<path d="M104.639 134.596C108.041 132.759 111.507 131.034 114.988 129.354C114.89 129.823 114.691 130.758 114.596 131.227C112.752 132.612 110.544 133.526 109.016 135.322C109.758 136.006 110.504 136.687 111.252 137.376C107.78 139.056 104.415 140.969 100.928 142.637C100.452 142.174 99.9676 141.717 99.4922 141.258C99.6271 140.555 99.7744 139.86 99.9185 139.164C101.851 138.075 104.357 137.122 104.642 134.59L104.639 134.596Z" fill="#930E08"/>
<path d="M111.246 137.377C116.679 134.703 122.169 132.128 127.549 129.351C127.46 130.117 127.362 130.883 127.279 131.656C128.279 131.803 129.282 131.947 130.288 132.088C129.831 132.983 129.374 133.879 128.929 134.786C119.044 138.915 109.655 144.1 99.9435 148.594C99.7165 146.908 101.219 145.786 102.032 144.504C100.796 144.458 99.2104 145.16 98.3516 143.891C99.2073 143.465 100.066 143.054 100.922 142.634C104.409 140.966 107.771 139.053 111.246 137.373V137.377Z" fill="#DE4E25"/>
<path d="M50.0938 131.671C52.4924 131.523 54.7131 132.553 57.0534 132.848C60.2741 134.463 63.4702 136.125 66.7246 137.664C66.2032 138.225 65.6756 138.786 65.1511 139.35C63.9518 138.752 62.7464 138.164 61.5501 137.584C57.6914 135.69 53.888 133.682 50.0938 131.664V131.671Z" fill="#834E2D"/>
<path d="M78.1789 131.438C79.2157 132.204 80.2678 132.97 81.2646 133.795C82.2431 135.052 83.0375 136.435 83.835 137.814C83.0222 138.798 82.2431 139.81 81.4303 140.803C78.6022 142.471 76.1668 139.194 73.8203 138.007C75.4 137.544 77.0502 137.176 78.4519 136.269C77.8661 135.907 77.2864 135.555 76.7005 135.211C77.133 133.924 77.6207 132.667 78.1759 131.438H78.1789Z" fill="#5A2421"/>
<path d="M92.9214 140.488C96.8199 138.504 100.725 136.552 104.635 134.596C104.353 137.128 101.844 138.081 99.9117 139.17C99.7706 139.866 99.6203 140.562 99.4854 141.264C99.9608 141.72 100.445 142.177 100.921 142.643C100.065 143.063 99.2063 143.474 98.3505 143.9C96.1021 144.936 93.8784 146.037 91.6423 147.113C91.5319 146.773 91.308 146.095 91.1914 145.761C91.4491 145.27 91.7006 144.783 91.9582 144.305C91.8049 144.023 91.6484 143.744 91.4951 143.48C92.7527 142.965 93.6667 141.999 94.2802 140.813C93.9458 140.73 93.2618 140.568 92.9214 140.491V140.488Z" fill="#840A0A"/>
<path d="M55.6836 136.727C57.3706 137.171 59.0208 137.744 60.6465 138.407C60.8735 138.201 61.3305 137.793 61.5544 137.588C62.7537 138.167 63.9592 138.753 65.1554 139.354C69.4404 141.42 73.6426 143.683 77.9645 145.684C78.8601 145.982 79.7619 146.239 80.6759 146.497C80.6361 146.889 80.5594 147.674 80.5226 148.07C79.176 148.18 77.8295 148.303 76.4891 148.437C76.3357 148.946 76.0321 149.97 75.8848 150.479C70.1122 147.389 64.2996 144.342 58.3307 141.65L58.3767 141.411C58.4994 140.896 58.6282 140.387 58.7632 139.89C57.1467 139.556 56.4289 138.017 55.6836 136.727Z" fill="#4E0E0A"/>
<path d="M70.0664 139.366C70.4222 138.535 70.7811 137.716 71.1369 136.892C72.0325 137.259 72.9405 137.606 73.8238 138.004C76.1703 139.191 78.6058 142.468 81.4338 140.8C81.6915 140.672 82.2068 140.42 82.4644 140.298C82.6515 140.96 82.8386 141.631 83.0257 142.306C82.4644 143.084 81.9031 143.872 81.3449 144.657C77.3359 143.517 73.7533 141.251 70.0695 139.363L70.0664 139.366Z" fill="#470809"/>
<path d="M65.1562 139.353C65.6777 138.786 66.2053 138.225 66.7298 137.667C67.8524 138.207 68.972 138.768 70.067 139.368C73.7539 141.257 77.3365 143.522 81.3424 144.663C80.2197 145.025 79.0879 145.346 77.9653 145.687C73.6404 143.685 69.4413 141.422 65.1562 139.356V139.353Z" fill="#994728"/>
<path d="M80.6809 146.497C84.7083 144.397 88.846 142.49 92.9256 140.488C93.266 140.565 93.95 140.727 94.2844 140.81C93.6709 141.997 92.7569 142.962 91.4993 143.477C91.6526 143.741 91.8091 144.017 91.9624 144.302C91.7048 144.777 91.4532 145.268 91.1956 145.758C91.3122 146.092 91.5361 146.77 91.6465 147.11C90.6527 147.579 89.6619 148.045 88.6681 148.52C85.7941 149.836 83.0304 151.368 80.1441 152.662C79.5828 152.398 79.0215 152.141 78.4632 151.877C77.586 151.433 76.7364 150.948 75.8867 150.479C76.0339 149.97 76.3376 148.947 76.491 148.438C77.8314 148.303 79.1779 148.18 80.5245 148.07C80.5643 147.677 80.641 146.892 80.6778 146.497H80.6809Z" fill="#6B0C0B"/>
<path d="M58.3293 141.646C64.2951 144.338 70.1077 147.385 75.8834 150.476C76.733 150.945 77.5858 151.429 78.4599 151.874C77.371 152.524 76.2699 153.167 75.1656 153.811C76.4294 154.823 77.6287 155.911 78.8127 157.012C72.6075 154.391 66.7766 150.963 60.642 148.189C58.8262 147.254 57.0134 146.328 55.1914 145.42C57.7434 144.911 60.2187 147.005 62.7186 145.525C61.0561 144.495 58.7433 143.838 58.3293 141.646Z" fill="#AC5528"/>
<path d="M91.6432 147.106C93.8793 146.03 96.1031 144.93 98.3514 143.894C99.2072 145.163 100.793 144.461 102.032 144.507C101.219 145.788 99.7194 146.91 99.9433 148.596C97.3791 150.019 94.7167 151.251 92.1402 152.646C92.0113 151.518 92.2751 150.43 92.6371 149.381C91.2261 150.013 89.717 149.599 88.668 148.517C89.6618 148.041 90.6525 147.575 91.6463 147.106H91.6432Z" fill="#D14C25"/>
<path d="M60.6445 148.188C66.7791 150.963 72.6101 154.39 78.8152 157.012C79.6219 157.379 80.5114 157.591 81.3917 157.321C84.1768 156.742 86.8055 155.561 89.3238 154.268C90.6948 154.421 92.0751 154.513 93.4554 154.473C89.2348 156.49 85.2841 159.213 80.7752 160.546C74.7633 158.189 69.1501 154.878 63.3499 152.027C62.4481 150.739 61.4236 149.547 60.6445 148.188Z" fill="#742212"/>
<path d="M80.1431 152.658C83.0295 151.365 85.7931 149.832 88.6671 148.517C89.7162 149.599 91.2253 150.01 92.6362 149.381C92.2743 150.43 92.0105 151.518 92.1393 152.646C91.1977 153.179 90.2714 153.734 89.3236 154.268C86.8053 155.561 84.1736 156.742 81.3915 157.321C80.5081 157.591 79.6186 157.379 78.815 157.012C77.6279 155.911 76.4317 154.823 75.168 153.811C76.2691 153.167 77.3703 152.523 78.4623 151.874C79.0236 152.137 79.5849 152.395 80.1431 152.658Z" fill="#B24522"/>
</svg>
