<svg width="77" height="78" viewBox="0 0 77 78" fill="none" xmlns="http://www.w3.org/2000/svg">
<path d="M65.2549 12.3027C50.5343 -2.41795 26.5822 -2.41795 11.8616 12.3027C-2.85897 27.0233 -2.859 50.9754 11.8616 65.696C26.5823 80.4166 50.5343 80.4166 65.2549 65.696C79.9755 50.9754 79.9755 27.0233 65.2549 12.3027ZM38.5583 69.4883C34.5984 69.4883 30.7384 68.7373 27.0852 67.2558C23.303 65.7222 19.9095 63.4686 16.9993 60.5584C14.0891 57.6481 11.8354 54.2546 10.3016 50.4722C8.82026 46.8192 8.06931 42.9592 8.06931 38.9994C8.06931 35.0395 8.82026 31.1795 10.3018 27.5263C11.8354 23.7441 14.089 20.3506 16.9992 17.4404C19.9094 14.5301 23.303 12.2765 27.0854 10.7426C30.7384 9.26135 34.5984 8.5104 38.5582 8.5104C42.5181 8.5104 46.3781 9.26135 50.0311 10.7426C53.8135 12.2765 57.207 14.5301 60.1172 17.4404C63.0274 20.3506 65.2811 23.7441 66.8147 27.5263C68.2962 31.1795 69.0472 35.0395 69.0472 38.9994C69.0472 42.9592 68.2962 46.8192 66.8149 50.4722C65.2811 54.2546 63.0274 57.6481 60.1172 60.5584C57.207 63.4686 53.8135 65.7222 50.0313 67.2558C46.3781 68.7373 42.5181 69.4883 38.5583 69.4883Z" fill="#F7C01E"/>
<path d="M38.5594 68.808C55.023 68.808 68.3694 55.4616 68.3694 38.998C68.3694 22.5344 55.023 9.18799 38.5594 9.18799C22.0958 9.18799 8.74939 22.5344 8.74939 38.998C8.74939 55.4616 22.0958 68.808 38.5594 68.808Z" fill="#F7AC1E"/>
<path d="M74.1865 53.4625C75.1159 51.171 75.8258 48.7748 76.2973 46.3404C76.764 43.929 77.0007 41.4596 77.0005 39C77.0007 36.5404 76.764 34.0709 76.2973 31.6596C75.8258 29.2252 75.1159 26.829 74.1865 24.5374C72.253 19.7695 69.4124 15.4918 65.7437 11.8231C62.0751 8.15451 57.7974 5.3139 53.0294 3.38033C50.7379 2.45099 48.3417 1.74108 45.9073 1.26955C43.4959 0.802882 41.0265 0.566169 38.5669 0.566406C36.1073 0.566169 33.6379 0.802883 31.2265 1.26959C28.7921 1.74112 26.3959 2.45102 24.1044 3.38036C19.3364 5.31394 15.0587 8.15454 11.3901 11.8232C7.72144 15.4918 4.88083 19.7695 2.94726 24.5375C2.01792 26.829 1.30801 29.2252 0.836484 31.6596C0.369778 34.071 0.133063 36.5404 0.133301 39C0.133063 41.4596 0.369778 43.929 0.836484 46.3404C1.30798 48.7748 2.01792 51.171 2.94726 53.4625C4.88083 58.2305 7.72144 62.5082 11.3901 66.1768C15.0587 69.8455 19.3364 72.6861 24.1044 74.6196C26.3959 75.549 28.7921 76.2589 31.2265 76.7304C33.6379 77.1971 36.1073 77.4338 38.5669 77.4336C41.0265 77.4338 43.4959 77.1971 45.9073 76.7304C48.3417 76.2589 50.7379 75.549 53.0294 74.6196C57.7974 72.6861 62.0751 69.8455 65.7437 66.1768C69.4124 62.5082 72.253 58.2305 74.1865 53.4625ZM11.8702 65.6967C-2.85041 50.976 -2.85041 27.024 11.8702 12.3034C26.5909 -2.41724 50.5429 -2.41728 65.2635 12.3034C79.9841 27.024 79.9842 50.9761 65.2635 65.6967C50.5429 80.4173 26.5909 80.4173 11.8702 65.6967Z" fill="#EA7F13"/>
<path d="M66.8268 50.4711C68.308 46.8181 69.059 42.9581 69.059 38.9982C69.059 35.0384 68.3081 31.1784 66.8265 27.5252C65.2929 23.743 63.0393 20.3495 60.1291 17.4392C57.2189 14.529 53.8254 12.2754 50.0429 10.7415C46.3899 9.26023 42.5299 8.50928 38.5701 8.50928C34.6103 8.50928 30.7503 9.26023 27.0973 10.7415C23.3148 12.2754 19.9213 14.529 17.0111 17.4392C14.1009 20.3495 11.8472 23.743 10.3137 27.5252C8.83213 31.1784 8.08118 35.0384 8.08118 38.9982C8.08118 42.9581 8.83213 46.8181 10.3134 50.4711C11.8473 54.2535 14.1009 57.647 17.0111 60.5572C19.9213 63.4675 23.3149 65.7211 27.0971 67.2547C30.7503 68.7362 34.6103 69.4872 38.5701 69.4872C42.53 69.4872 46.39 68.7362 50.0432 67.2547C53.8254 65.7211 57.2189 63.4675 60.1291 60.5572C63.0393 57.647 65.2929 54.2535 66.8268 50.4711ZM17.4913 60.0771C5.86835 48.4542 5.86835 29.5423 17.4913 17.9194C29.1142 6.29648 48.026 6.29648 59.649 17.9194C71.2719 29.5423 71.2719 48.4542 59.649 60.0771C48.026 71.7 29.1142 71.7 17.4913 60.0771Z" fill="#EA7F13"/>
<g opacity="0.2">
<path d="M59.634 17.9182L17.4763 60.0759C11.9171 54.5167 9.01693 47.2903 8.77563 39.9912L39.5493 9.21753C46.8484 9.45883 54.0748 12.359 59.634 17.9182Z" fill="white"/>
<path d="M62.3192 21.009L20.5572 62.771C20.1507 62.463 19.75 62.143 19.3563 61.8112L61.3594 19.8081C61.6912 20.2018 62.0112 20.6026 62.3192 21.009Z" fill="white"/>
</g>
<path opacity="0.3" d="M27.0853 10.7435C23.3029 12.2773 19.9094 14.5309 16.9992 17.4412C14.0889 20.3514 11.8353 23.7449 10.3017 27.5271C8.82019 31.1803 8.06924 35.0403 8.06924 39.0002C8.06924 42.96 8.82019 46.82 10.3015 50.473C11.8353 54.2555 14.0889 57.6489 16.9992 60.5592L11.8615 65.6968C-2.85911 50.9762 -2.85911 27.0241 11.8615 12.3035C26.5821 -2.41708 50.5342 -2.41711 65.2548 12.3035L60.1172 17.4412C57.2069 14.531 53.8134 12.2773 50.031 10.7435C46.378 9.26219 42.518 8.51124 38.5582 8.51124C34.5983 8.51124 30.7383 9.26216 27.0853 10.7435Z" fill="white"/>
<path d="M18.9958 50.5352V28.4732H25.0072C27.1839 28.4732 29.0351 28.8089 30.5608 29.4802C32.1069 30.1515 33.3478 31.0365 34.2836 32.135C35.2194 33.2335 35.9009 34.4541 36.3281 35.7967C36.7756 37.119 36.9994 38.4413 36.9994 39.7636C36.9994 41.4317 36.7044 42.9269 36.1145 44.2492C35.5448 45.5715 34.7515 46.7005 33.7343 47.6363C32.7172 48.5721 31.5475 49.2943 30.2252 49.8028C28.9232 50.2911 27.5399 50.5352 26.0752 50.5352H18.9958ZM21.9558 47.6973H25.4954C26.716 47.6973 27.8349 47.5142 28.852 47.1481C29.8895 46.7819 30.7846 46.253 31.5373 45.5613C32.3103 44.8697 32.9104 44.0254 33.3376 43.0286C33.7648 42.0115 33.9784 40.8621 33.9784 39.5805C33.9784 38.2175 33.7547 37.0275 33.3071 36.0103C32.8596 34.9728 32.2493 34.1082 31.4763 33.4166C30.7032 32.7249 29.8285 32.2062 28.852 31.8603C27.8756 31.4942 26.8482 31.3111 25.7701 31.3111H21.9558V47.6973Z" fill="white"/>
<path d="M58.1742 48.8874C57.8081 49.1315 57.3097 49.4061 56.679 49.7113C56.0484 50.0164 55.3059 50.2707 54.4515 50.4741C53.6174 50.6776 52.702 50.7793 51.7052 50.7793C49.9964 50.759 48.4503 50.4538 47.067 49.8639C45.704 49.2739 44.5445 48.4704 43.5883 47.4532C42.6322 46.4361 41.8897 45.2664 41.3608 43.9441C40.8522 42.6014 40.5979 41.1774 40.5979 39.672C40.5979 38.0243 40.8624 36.5087 41.3913 35.1254C41.9406 33.7217 42.7034 32.5113 43.6799 31.4942C44.6563 30.4567 45.8057 29.6531 47.128 29.0835C48.4707 28.5139 49.9353 28.2291 51.5221 28.2291C52.8444 28.2291 54.0446 28.4122 55.1228 28.7784C56.201 29.1242 57.1266 29.5412 57.8996 30.0295L56.7096 32.7758C56.0993 32.3689 55.3567 31.9824 54.482 31.6162C53.6276 31.2501 52.6715 31.067 51.6136 31.067C50.5355 31.067 49.5183 31.2806 48.5622 31.7078C47.6061 32.135 46.7618 32.7351 46.0295 33.5081C45.2972 34.2812 44.7174 35.1864 44.2902 36.2239C43.8833 37.2411 43.6799 38.3396 43.6799 39.5195C43.6799 40.7197 43.863 41.8386 44.2291 42.8761C44.6157 43.8932 45.1548 44.7781 45.8464 45.5308C46.5584 46.2835 47.4128 46.8734 48.4096 47.3006C49.4064 47.7278 50.5253 47.9415 51.7662 47.9415C52.8851 47.9415 53.8819 47.7685 54.7566 47.4227C55.6314 47.0769 56.3535 46.6904 56.9232 46.2632L58.1742 48.8874Z" fill="white"/>
</svg>
