<svg width="184" height="184" viewBox="0 0 184 184" fill="none" xmlns="http://www.w3.org/2000/svg">
<path d="M170.816 137.312C145.54 181.092 89.5595 196.091 45.7805 170.815C2.00396 145.541 -12.9982 89.5605 12.278 45.7808C37.5542 2.00107 93.5349 -12.9966 137.311 12.2777C181.091 37.5532 196.092 93.5327 170.816 137.312Z" fill="url(#paint0_linear_937_94715)"/>
<path d="M135.647 15.1596C93.4603 -9.19676 39.517 5.25753 15.16 47.4456C-9.19638 89.6323 5.25661 143.577 47.4434 167.934C89.6308 192.29 143.575 177.835 167.931 135.648C192.288 93.46 177.835 39.5167 135.647 15.1596ZM48.2758 166.491C6.88684 142.595 -7.29767 89.6689 16.6001 48.2767C40.4979 6.88454 93.4256 -7.29419 134.815 16.6017C176.207 40.4994 190.388 93.4246 166.49 134.817C142.593 176.208 89.668 190.389 48.2758 166.491Z" fill="url(#paint1_linear_937_94715)"/>
<path d="M133.15 19.4824C93.3519 -3.49493 42.4604 10.143 19.4824 49.9422C-3.49557 89.7408 10.1404 140.632 49.9383 163.61C89.7382 186.588 140.629 172.951 163.607 133.152C186.585 93.3532 172.95 42.461 133.15 19.4824ZM50.7701 162.168C11.7687 139.65 -1.59557 89.7767 20.9231 50.774C43.4412 11.7706 93.3147 -1.59172 132.317 20.9257C171.319 43.4438 184.684 93.3172 162.166 132.32C139.647 171.323 89.7729 184.686 50.7701 162.168Z" fill="url(#paint2_linear_937_94715)"/>
<path d="M146.297 123.149C128.833 153.396 90.1555 163.758 59.9077 146.294C29.6624 128.832 19.2966 90.1555 36.7602 59.9077C54.2237 29.6599 92.9015 19.2978 123.147 36.7601C153.395 54.2231 163.761 92.9002 146.297 123.149Z" fill="url(#paint3_linear_937_94715)"/>
<path d="M92.1701 123.607C85.2928 123.607 79.6911 121.804 75.3651 118.199C71.039 114.594 68.8205 110.032 68.7096 104.514H82.5613C82.9218 106.705 84.0033 108.479 85.8058 109.838C87.6084 111.169 89.7714 111.835 92.2949 111.835C95.0958 111.835 97.3836 110.947 99.1584 109.173C100.933 107.398 101.821 105.055 101.821 102.143C101.821 99.1755 100.919 96.7768 99.1168 94.9465C97.342 93.0885 95.0542 92.1596 92.2533 92.1596C88.2323 92.1596 85.1819 93.8096 83.1021 97.1096H69.6663L72.4949 61.9604H112.428V73.857H84.2668L83.1437 87.7919H83.934C86.4853 83.6877 90.7281 81.6356 96.6626 81.6356C102.347 81.6356 107.02 83.5352 110.681 87.3343C114.369 91.1058 116.213 95.9171 116.213 101.768C116.213 108.285 114.008 113.554 109.599 117.575C105.19 121.596 99.3802 123.607 92.1701 123.607Z" fill="white"/>
<path d="M124.003 35.3364C92.961 17.4142 53.2658 28.0518 35.343 59.0955C17.4208 90.1378 28.0558 129.834 59.0982 147.756C90.1431 165.679 129.836 155.04 147.759 123.999C165.681 92.9551 155.048 53.2606 124.003 35.3364ZM59.9306 146.314C29.6854 128.852 19.3195 90.1751 36.7831 59.9273C54.2467 29.6795 92.9244 19.3174 123.17 36.7797C153.417 54.2433 163.783 92.9204 146.319 123.168C128.856 153.416 90.1784 163.777 59.9306 146.314Z" fill="url(#paint4_linear_937_94715)"/>
<path d="M163.027 51.8148H156.672L154.705 45.7686L152.742 51.8148H146.383L151.526 55.5512L149.564 61.5974L154.705 57.8597L159.848 61.5974L157.884 55.5512L163.027 51.8148ZM154.705 56.6772L151.399 59.0821L152.661 55.1921L149.354 52.7898L153.443 52.7892L154.705 48.9005L155.969 52.7898L160.059 52.7892L156.748 55.1921L158.013 59.0821L154.705 56.6772Z" fill="white"/>
<path d="M154.704 48.9217L154.703 45.791L156.67 51.8366L155.97 52.811L154.704 48.9217Z" fill="white"/>
<path d="M151.406 59.068L149.566 61.6007L154.71 57.8662L154.715 56.6631L151.406 59.068Z" fill="white"/>
<path d="M158.003 59.0615L159.841 61.5942L157.878 55.5499L156.738 55.1729L158.003 59.0615Z" fill="white"/>
<path d="M160.053 52.7857L163.031 51.8184H156.677L155.965 52.7857H160.053Z" fill="white"/>
<path d="M160.052 52.7828L163.029 51.8154L157.888 55.5518L156.746 55.1876L160.052 52.7828Z" fill="white"/>
<path d="M146.383 51.8148L151.526 55.5512L152.662 55.1915L149.354 52.7898L153.443 52.7892L154.705 48.9005V45.7686L152.742 51.8148H146.383Z" fill="white"/>
<path d="M173.108 89.2269H166.753L164.786 83.1807L162.824 89.2269H156.465L161.609 92.962L159.645 99.007L164.786 95.2712L169.93 99.007L167.965 92.9627L173.108 89.2269ZM164.787 94.0893L161.481 96.4916L162.742 92.6036L159.435 90.2L163.524 90.1994L164.786 86.3107L166.05 90.2H170.141L166.829 92.6036L168.094 96.4922L164.787 94.0893Z" fill="white"/>
<path d="M164.785 86.3312V83.2012L166.752 89.2474L166.051 90.2205L164.785 86.3312Z" fill="white"/>
<path d="M161.488 96.4788L159.648 99.0115L164.792 95.2751L164.797 94.0752L161.488 96.4788Z" fill="white"/>
<path d="M168.085 96.4733L169.924 99.006L167.961 92.9591L166.82 92.584L168.085 96.4733Z" fill="white"/>
<path d="M170.133 90.1984L173.112 89.2311L166.757 89.2305L166.047 90.1984H170.133Z" fill="white"/>
<path d="M170.134 90.1942L173.112 89.2275L167.97 92.9646L166.828 92.5978L170.134 90.1942Z" fill="white"/>
<path d="M156.465 89.2269L161.609 92.962L162.743 92.6036L159.436 90.2L163.525 90.1994L164.786 86.3107V83.1807L162.824 89.2269H156.465Z" fill="white"/>
<path d="M163.027 126.023L156.67 126.022L154.706 119.976L152.74 126.022H146.383L151.528 129.759L149.562 135.805L154.707 132.068L159.846 135.805L157.881 129.758L163.027 126.023ZM154.707 130.887L151.397 133.29L152.661 129.402L149.352 126.998H153.441L154.707 123.109L155.968 126.998L160.057 126.998L156.748 129.402L158.012 133.291L154.707 130.887Z" fill="white"/>
<path d="M154.704 123.13L154.703 119.998L156.669 126.045L155.968 127.019L154.704 123.13Z" fill="white"/>
<path d="M151.404 133.275L149.562 135.811L154.708 132.074L154.711 130.873L151.404 133.275Z" fill="white"/>
<path d="M158 133.272L159.841 135.803L157.876 129.759L156.738 129.382L158 133.272Z" fill="white"/>
<path d="M160.056 126.994L163.033 126.026H156.676L155.965 126.994H160.056Z" fill="white"/>
<path d="M160.055 126.993L163.032 126.024L157.89 129.762L156.746 129.395L160.055 126.993Z" fill="white"/>
<path d="M146.383 126.023L151.528 129.76L152.661 129.401L149.352 126.998H153.441L154.707 123.109L154.706 119.977L152.74 126.023H146.383Z" fill="white"/>
<path d="M137.3 151.416L130.943 151.415L128.98 145.369L127.013 151.416L120.66 151.415L125.801 155.151L123.836 161.195L128.98 157.461L134.123 161.196L132.158 155.152L137.3 151.416ZM128.98 156.28L125.671 158.681L126.936 154.795L123.628 152.39H127.714L128.98 148.502L130.242 152.39H134.33L131.025 154.795L132.287 158.681L128.98 156.28Z" fill="white"/>
<path d="M128.98 148.522L128.981 145.39L130.943 151.437L130.243 152.41L128.98 148.522Z" fill="white"/>
<path d="M125.681 158.67L123.84 161.202L128.984 157.466L128.99 156.267L125.681 158.67Z" fill="white"/>
<path d="M132.275 158.665L134.117 161.196L132.152 155.151L131.012 154.775L132.275 158.665Z" fill="white"/>
<path d="M134.323 152.387L137.301 151.419H130.942L130.234 152.387H134.323Z" fill="white"/>
<path d="M134.323 152.385L137.301 151.416L132.158 155.154L131.016 154.787L134.323 152.385Z" fill="white"/>
<path d="M120.66 151.416L125.801 155.152L126.936 154.794L123.628 152.39H127.714L128.98 148.501V145.37L127.013 151.416H120.66Z" fill="white"/>
<path d="M100.715 162.571H94.3598L92.3949 156.526L90.4288 162.571L84.0742 162.571L89.216 166.305L87.2512 172.351L92.3956 168.616L97.5374 172.352L95.5738 166.305L100.715 162.571ZM92.3949 167.434L89.085 169.837L90.3498 165.948L87.0418 163.545H91.1295L92.3949 159.656L93.6577 163.545H97.7462L94.4388 165.948L95.7003 169.837L92.3949 167.434Z" fill="white"/>
<path d="M92.3945 159.678V156.549L94.3601 162.593L93.6561 163.569L92.3945 159.678Z" fill="white"/>
<path d="M89.0994 169.824L87.2578 172.357L92.4003 168.621L92.4054 167.421L89.0994 169.824Z" fill="white"/>
<path d="M95.6905 169.817L97.5295 172.351L95.5672 166.304L94.4258 165.931L95.6905 169.817Z" fill="white"/>
<path d="M97.7434 163.544L100.721 162.575H94.3641L93.6562 163.542L97.7434 163.544Z" fill="white"/>
<path d="M97.737 163.539L100.715 162.573L95.5737 166.31L94.4297 165.943L97.737 163.539Z" fill="white"/>
<path d="M84.0742 162.571L89.216 166.305L90.3504 165.948L87.0418 163.545H91.1302L92.3949 159.656L92.3956 156.526L90.4288 162.571H84.0742Z" fill="white"/>
<path d="M64.2475 151.832L57.8936 151.832L55.9275 145.788L53.9626 151.832H47.6055L52.7467 155.569L50.7831 161.615L55.9268 157.879L61.0674 161.614L59.1057 155.568L64.2475 151.832ZM55.9275 156.694L52.6175 159.099L53.8816 155.208L50.5743 152.808H54.6627L55.9268 148.917L57.1903 152.808H61.2793L57.9701 155.209L59.2335 159.099L55.9275 156.694Z" fill="white"/>
<path d="M55.9258 148.94V145.811L57.8919 151.854L57.1892 152.83L55.9258 148.94Z" fill="white"/>
<path d="M52.6261 159.087L50.7852 161.618L55.9289 157.883L55.936 156.682L52.6261 159.087Z" fill="white"/>
<path d="M59.225 159.078L61.0627 161.614L59.1004 155.567L57.9609 155.191L59.225 159.078Z" fill="white"/>
<path d="M61.274 152.805L64.2525 151.836H57.8973L57.1875 152.803L61.274 152.805Z" fill="white"/>
<path d="M61.2748 152.799L64.2552 151.833L59.1114 155.571L57.9688 155.205L61.2748 152.799Z" fill="white"/>
<path d="M47.6055 151.832L52.7473 155.568L53.8823 155.208L50.5749 152.808H54.6634L55.9275 148.917V145.788L53.9626 151.832H47.6055Z" fill="white"/>
<path d="M37.6511 127.315L31.2966 127.314L29.3298 121.271L27.3662 127.315L21.0078 127.314L26.1503 131.051L24.188 137.097L29.3292 133.362L34.4703 137.097L32.5074 131.051L37.6511 127.315ZM29.3298 132.177L26.0218 134.582L27.2859 130.692L23.9773 128.289H28.0657L29.3298 124.401L30.5933 128.289H34.6817L31.373 130.692L32.6365 134.581L29.3298 132.177Z" fill="white"/>
<path d="M29.3288 124.423L29.3281 121.293L31.2956 127.337L30.5948 128.313L29.3288 124.423Z" fill="white"/>
<path d="M26.0304 134.57L24.1914 137.101L29.3339 133.366L29.3403 132.164L26.0304 134.57Z" fill="white"/>
<path d="M32.6248 134.562L34.4644 137.096L32.5002 131.051L31.3633 130.675L32.6248 134.562Z" fill="white"/>
<path d="M34.6783 128.287L37.6548 127.321L31.3009 127.319L30.5898 128.286L34.6783 128.287Z" fill="white"/>
<path d="M34.6784 128.283L37.6569 127.317L32.5151 131.054L31.3711 130.689L34.6784 128.283Z" fill="white"/>
<path d="M21.0078 127.314L26.1503 131.051L27.2859 130.692L23.9773 128.289H28.0657L29.3298 124.401V121.271L27.3662 127.315L21.0078 127.314Z" fill="white"/>
<path d="M26.8022 90.8486L20.4451 90.848L18.4815 84.8037L16.5153 90.848H10.1602L15.3039 94.5851L13.339 100.631L18.4821 96.8942L23.6253 100.631L21.661 94.5851L26.8022 90.8486ZM18.4821 95.7117L15.1729 98.1153L16.437 94.2279L13.1296 91.8237H17.2168L18.4828 87.9331L19.7443 91.8237H23.8327L20.526 94.2273L21.7901 98.1147L18.4821 95.7117Z" fill="white"/>
<path d="M18.4805 87.9569V84.8262L20.4434 90.8718L19.7426 91.8462L18.4805 87.9569Z" fill="white"/>
<path d="M15.1795 98.1018L13.3398 100.635L18.4849 96.8987L18.4887 95.6982L15.1795 98.1018Z" fill="white"/>
<path d="M21.7752 98.0979L23.6174 100.63L21.6525 94.5838L20.5117 94.208L21.7752 98.0979Z" fill="white"/>
<path d="M23.83 91.8212L26.8065 90.8545H20.45L19.7422 91.8212H23.83Z" fill="white"/>
<path d="M23.8308 91.8179L26.8073 90.8506L21.6655 94.587L20.5234 94.2222L23.8308 91.8179Z" fill="white"/>
<path d="M10.1602 90.848L15.3033 94.5851L16.437 94.2279L13.1296 91.8237H17.2161L18.4821 87.9338V84.8037L16.516 90.848H10.1602Z" fill="white"/>
<path d="M36.1244 53.5117H29.7693L27.8044 47.4668L25.8389 53.5117H19.4805L24.6249 57.2482L22.6606 63.2944L27.8044 59.558L32.9456 63.2944L30.98 57.2482L36.1244 53.5117ZM27.8044 58.3748L24.497 60.7797L25.7592 56.8891L22.4512 54.4874H26.5409L27.805 50.5969L29.0685 54.4874H33.155L29.8463 56.8884L31.1117 60.779L27.8044 58.3748Z" fill="white"/>
<path d="M27.8008 50.62V47.4893L29.7676 53.5336L29.0662 54.5092L27.8008 50.62Z" fill="white"/>
<path d="M24.5037 60.7665L22.6641 63.2973L27.8078 59.5628L27.813 58.3623L24.5037 60.7665Z" fill="white"/>
<path d="M31.0975 60.7578L32.9371 63.2924L30.9729 57.2469L29.8359 56.8711L31.0975 60.7578Z" fill="white"/>
<path d="M33.1528 54.4852L36.13 53.5185L29.7736 53.5166L29.0625 54.4852H33.1528Z" fill="white"/>
<path d="M33.1524 54.4804L36.1308 53.5137L30.989 57.2501L29.8438 56.8846L33.1524 54.4804Z" fill="white"/>
<path d="M19.4805 53.5117L24.6249 57.2481L25.7592 56.8891L22.4512 54.4874H26.5403L27.8044 50.5975V47.4668L25.8389 53.5117H19.4805Z" fill="white"/>
<path d="M61.8484 25.682L55.4939 25.6826L53.5284 19.6357L51.5641 25.682H45.207L50.3489 29.4184L48.3853 35.4627L53.5277 31.7256L58.6696 35.4627L56.7073 29.4184L61.8484 25.682ZM53.5277 30.545L50.2191 32.9473L51.4826 29.0587L48.1759 26.6564H52.2643L53.5277 22.7677L54.7925 26.6564H58.879L55.5716 29.0593L56.8364 32.9473L53.5277 30.545Z" fill="white"/>
<path d="M53.5273 22.7889V19.6582L55.4922 25.7044L54.7921 26.6782L53.5273 22.7889Z" fill="white"/>
<path d="M50.2289 32.9351L48.3867 35.4659L53.5305 31.734L53.5382 30.5303L50.2289 32.9351Z" fill="white"/>
<path d="M56.8247 32.928L58.6643 35.462L56.7013 29.4152L55.5625 29.04L56.8247 32.928Z" fill="white"/>
<path d="M58.8768 26.6539L61.854 25.6865H55.4969L54.7891 26.6539H58.8768Z" fill="white"/>
<path d="M58.8757 26.6487L61.8536 25.6826L56.7124 29.4184L55.5703 29.0542L58.8757 26.6487Z" fill="white"/>
<path d="M45.207 25.682L50.3489 29.4184L51.4839 29.0587L48.1765 26.6564H52.2649L53.5284 22.7671V19.6357L51.5641 25.682H45.207Z" fill="white"/>
<path d="M98.6408 16.0505H92.2862L90.3233 10.0068L88.3571 16.0511H82L87.1438 19.7875L85.1789 25.8318L90.3226 22.0974L95.4645 25.8325L93.4983 19.7863L98.6408 16.0505ZM90.3233 20.9142L87.0146 23.3165L88.2768 19.4278L84.9701 17.0268L89.0579 17.0262L90.3233 13.1369L91.5848 17.0262H95.6726L92.3652 19.4285L93.6287 23.3171L90.3233 20.9142Z" fill="white"/>
<path d="M90.3203 13.1577V10.0264L92.2852 16.0713L91.5844 17.047L90.3203 13.1577Z" fill="white"/>
<path d="M87.0251 23.3033L85.1836 25.8367L90.328 22.1015L90.3312 20.9004L87.0251 23.3033Z" fill="white"/>
<path d="M93.6183 23.2978L95.4573 25.8305L93.493 19.7856L92.3555 19.4092L93.6183 23.2978Z" fill="white"/>
<path d="M95.6737 17.022L98.6502 16.0547L92.2931 16.0527L91.582 17.022H95.6737Z" fill="white"/>
<path d="M95.6667 17.0172L98.6432 16.0518L93.502 19.7888L92.3555 19.4227L95.6667 17.0172Z" fill="white"/>
<path d="M82 16.0495L87.1438 19.7859L88.2775 19.4275L84.9701 17.0265L89.0585 17.0259L90.3233 13.1366V10.0059L88.3571 16.0502L82 16.0495Z" fill="white"/>
<path d="M136.759 24.473H130.403L128.439 18.4287L126.474 24.473L120.117 24.4736L125.259 28.212L123.295 34.2556L128.439 30.5192L133.58 34.2556L131.618 28.2114L136.759 24.473ZM128.439 29.3367L125.129 31.7409L126.393 27.8529L123.084 25.4506H127.173L128.439 21.5613L129.702 25.4506L133.791 25.45L130.482 27.8529L131.747 31.7409L128.439 29.3367Z" fill="white"/>
<path d="M128.438 21.5822V18.4521L130.402 24.4964L129.702 25.4715L128.438 21.5822Z" fill="white"/>
<path d="M125.142 31.7295L123.301 34.2628L128.444 30.5257L128.452 29.3271L125.142 31.7295Z" fill="white"/>
<path d="M131.734 31.7236L133.574 34.2569L131.612 28.2101L130.473 27.835L131.734 31.7236Z" fill="white"/>
<path d="M133.787 25.4462L136.764 24.4795H130.408L129.699 25.4462H133.787Z" fill="white"/>
<path d="M133.788 25.4423L136.766 24.4756L131.623 28.2133L130.48 27.8478L133.788 25.4423Z" fill="white"/>
<path d="M120.117 24.4746L125.26 28.213L126.395 27.8533L123.085 25.451L127.174 25.4503L128.44 21.561V18.4297L126.475 24.474L120.117 24.4746Z" fill="white"/>
<defs>
<linearGradient id="paint0_linear_937_94715" x1="46.0346" y1="12.7165" x2="136.816" y2="169.959" gradientUnits="userSpaceOnUse">
<stop offset="0.1152" stop-color="#FFA800"/>
<stop offset="0.3477" stop-color="#FFA902"/>
<stop offset="0.5301" stop-color="#FFA800"/>
<stop offset="0.57" stop-color="#FFA800"/>
<stop offset="0.7558" stop-color="#FFB932"/>
<stop offset="1" stop-color="#FFA902"/>
</linearGradient>
<linearGradient id="paint1_linear_937_94715" x1="114.25" y1="176.289" x2="68.9035" y2="7.04654" gradientUnits="userSpaceOnUse">
<stop stop-color="#FFA902"/>
<stop offset="0.0001" stop-color="white"/>
<stop offset="0.2849" stop-color="white"/>
<stop offset="0.38" stop-color="white"/>
<stop offset="0.564" stop-color="white"/>
<stop offset="1" stop-color="white"/>
</linearGradient>
<linearGradient id="paint2_linear_937_94715" x1="56.5622" y1="16.5265" x2="126.62" y2="166.772" gradientUnits="userSpaceOnUse">
<stop stop-color="white"/>
<stop offset="0.2791" stop-color="#FFA902"/>
<stop offset="0.36" stop-color="white"/>
<stop offset="0.5349" stop-color="#FFA902"/>
<stop offset="1" stop-color="#FFA902"/>
</linearGradient>
<linearGradient id="paint3_linear_937_94715" x1="59.9974" y1="36.9144" x2="123.074" y2="146.169" gradientUnits="userSpaceOnUse">
<stop offset="0.018" stop-color="#FFA902"/>
<stop offset="0.0462" stop-color="#FFA800"/>
<stop offset="0.1513" stop-color="#FFA800"/>
<stop offset="0.2338" stop-color="#FFB525"/>
<stop offset="0.46" stop-color="#FFC148"/>
<stop offset="0.75" stop-color="#FFA800"/>
<stop offset="0.7605" stop-color="#FFA800"/>
<stop offset="1" stop-color="#FFA800"/>
</linearGradient>
<linearGradient id="paint4_linear_937_94715" x1="119.633" y1="151.773" x2="64.3381" y2="33.1885" gradientUnits="userSpaceOnUse">
<stop stop-color="#FFFBE6"/>
<stop offset="0.2791" stop-color="#FFC759"/>
<stop offset="0.5349" stop-color="#FFB016"/>
<stop offset="1" stop-color="#FFC85E"/>
</linearGradient>
</defs>
</svg>
