<svg width="184" height="184" viewBox="0 0 184 184" fill="none" xmlns="http://www.w3.org/2000/svg">
<path d="M170.816 137.312C145.54 181.092 89.5595 196.091 45.7805 170.815C2.00396 145.541 -12.9982 89.5605 12.278 45.7808C37.5542 2.00107 93.5349 -12.9966 137.311 12.2777C181.091 37.5532 196.092 93.5327 170.816 137.312Z" fill="url(#paint0_linear_937_94401)"/>
<path d="M135.647 15.1596C93.4603 -9.19676 39.517 5.25753 15.16 47.4456C-9.19638 89.6323 5.25661 143.577 47.4434 167.934C89.6308 192.29 143.575 177.835 167.931 135.648C192.288 93.46 177.835 39.5167 135.647 15.1596ZM48.2758 166.491C6.88684 142.595 -7.29767 89.6689 16.6001 48.2767C40.4979 6.88454 93.4256 -7.29419 134.815 16.6017C176.207 40.4994 190.388 93.4246 166.49 134.817C142.593 176.208 89.668 190.389 48.2758 166.491Z" fill="url(#paint1_linear_937_94401)"/>
<path d="M146.297 123.149C128.833 153.396 90.1555 163.758 59.9077 146.294C29.6624 128.832 19.2966 90.1555 36.7602 59.9077C54.2237 29.6599 92.9015 19.2978 123.147 36.7601C153.395 54.2231 163.761 92.9002 146.297 123.149Z" fill="url(#paint2_linear_937_94401)"/>
<path d="M90.5078 123.565C86.5422 123.565 82.8817 122.844 79.5263 121.402C76.1985 119.96 73.467 117.936 71.3317 115.329C69.1964 112.722 67.8653 109.741 67.3384 106.386H82.2716C82.7431 108.049 83.7275 109.381 85.225 110.379C86.7502 111.349 88.5389 111.835 90.591 111.835C94.2792 111.835 97.191 110.102 99.3263 106.635C101.489 103.141 102.432 98.6209 102.155 93.0747H101.739H101.365C100.006 95.8755 98.0229 98.0247 95.4162 99.5222C92.8372 101.02 89.8145 101.768 86.3481 101.768C80.6632 101.768 75.9489 99.8965 72.2052 96.1528C68.4615 92.3814 66.5897 87.6532 66.5897 81.9684C66.5897 75.6457 68.8359 70.46 73.3283 66.4112C77.8208 62.3625 83.575 60.3381 90.591 60.3381C94.8338 60.3381 98.6469 61.17 102.03 62.8339C105.413 64.4978 108.214 66.9104 110.433 70.0717C114.537 75.5625 116.589 82.7864 116.589 91.7436C116.589 101.588 114.259 109.353 109.601 115.038C104.942 120.723 98.5775 123.565 90.5078 123.565ZM90.7158 90.8285C93.4057 90.8285 95.6519 89.9411 97.4544 88.1663C99.2569 86.3915 100.158 84.1869 100.158 81.5524C100.158 78.8902 99.2431 76.6579 97.4128 74.8553C95.6103 73.0251 93.3779 72.11 90.7158 72.11C88.0536 72.11 85.8074 73.0251 83.9771 74.8553C82.1468 76.6579 81.2317 78.8763 81.2317 81.5108C81.2317 84.173 82.133 86.3915 83.9355 88.1663C85.738 89.9411 87.9981 90.8285 90.7158 90.8285Z" fill="white"/>
<path d="M124.003 35.3364C92.961 17.4142 53.2658 28.0518 35.343 59.0955C17.4208 90.1378 28.0558 129.834 59.0982 147.756C90.1431 165.679 129.836 155.04 147.759 123.999C165.681 92.9551 155.048 53.2606 124.003 35.3364ZM59.9306 146.314C29.6854 128.852 19.3195 90.1751 36.7831 59.9273C54.2467 29.6795 92.9244 19.3174 123.17 36.7797C153.417 54.2433 163.783 92.9204 146.319 123.168C128.856 153.416 90.1784 163.777 59.9306 146.314Z" fill="url(#paint3_linear_937_94401)"/>
<path d="M163.031 51.8148H156.676L154.709 45.7686L152.746 51.8148H146.387L151.53 55.5512L149.568 61.5974L154.709 57.8597L159.852 61.5974L157.888 55.5512L163.031 51.8148ZM154.709 56.6772L151.403 59.0821L152.665 55.1921L149.358 52.7898L153.447 52.7892L154.709 48.9005L155.973 52.7898L160.063 52.7892L156.752 55.1921L158.017 59.0821L154.709 56.6772Z" fill="#FAFFFD"/>
<path d="M154.708 48.9217L154.707 45.791L156.674 51.8366L155.974 52.811L154.708 48.9217Z" fill="#F9FFFD"/>
<path d="M151.41 59.068L149.57 61.6007L154.713 57.8662L154.719 56.6631L151.41 59.068Z" fill="#F9FFFD"/>
<path d="M158.007 59.0615L159.845 61.5942L157.882 55.5499L156.742 55.1729L158.007 59.0615Z" fill="#F9FFFD"/>
<path d="M160.057 52.7857L163.035 51.8184H156.68L155.969 52.7857H160.057Z" fill="#DBFFF4"/>
<path d="M160.055 52.7828L163.033 51.8154L157.892 55.5518L156.75 55.1876L160.055 52.7828Z" fill="#F9FFFD"/>
<path d="M146.387 51.8148L151.53 55.5512L152.665 55.1915L149.358 52.7898L153.447 52.7892L154.709 48.9005V45.7686L152.746 51.8148H146.387Z" fill="#DBFFF4"/>
<path d="M173.108 89.2259H166.753L164.786 83.1797L162.824 89.2259H156.465L161.609 92.961L159.645 99.006L164.786 95.2702L169.93 99.006L167.965 92.9617L173.108 89.2259ZM164.787 94.0883L161.481 96.4906L162.742 92.6026L159.435 90.199L163.524 90.1984L164.786 86.3097L166.05 90.199H170.141L166.829 92.6026L168.094 96.4913L164.787 94.0883Z" fill="#FAFFFD"/>
<path d="M164.785 86.3303V83.2002L166.752 89.2464L166.051 90.2195L164.785 86.3303Z" fill="#F9FFFD"/>
<path d="M161.488 96.4778L159.648 99.0105L164.792 95.2741L164.797 94.0742L161.488 96.4778Z" fill="#F9FFFD"/>
<path d="M168.085 96.4723L169.924 99.005L167.961 92.9581L166.82 92.583L168.085 96.4723Z" fill="#F9FFFD"/>
<path d="M170.133 90.1975L173.112 89.2301L166.757 89.2295L166.047 90.1975H170.133Z" fill="#DBFFF4"/>
<path d="M170.134 90.1933L173.112 89.2266L167.97 92.9636L166.828 92.5969L170.134 90.1933Z" fill="#F9FFFD"/>
<path d="M156.465 89.2259L161.609 92.961L162.743 92.6026L159.436 90.199L163.525 90.1984L164.786 86.3097V83.1797L162.824 89.2259H156.465Z" fill="#DBFFF4"/>
<path d="M163.031 126.022L156.674 126.021L154.71 119.975L152.744 126.021H146.387L151.532 129.758L149.566 135.804L154.711 132.067L159.85 135.804L157.885 129.757L163.031 126.022ZM154.711 130.886L151.401 133.289L152.665 129.401L149.356 126.997H153.445L154.711 123.108L155.972 126.997L160.061 126.997L156.752 129.401L158.016 133.29L154.711 130.886Z" fill="#FAFFFD"/>
<path d="M154.708 123.129L154.707 119.997L156.673 126.044L155.972 127.018L154.708 123.129Z" fill="#F9FFFD"/>
<path d="M151.408 133.274L149.566 135.81L154.711 132.073L154.715 130.872L151.408 133.274Z" fill="#F9FFFD"/>
<path d="M158.004 133.271L159.845 135.802L157.88 129.758L156.742 129.381L158.004 133.271Z" fill="#F9FFFD"/>
<path d="M160.06 126.993L163.037 126.025H156.68L155.969 126.993H160.06Z" fill="#DBFFF4"/>
<path d="M160.059 126.992L163.036 126.023L157.894 129.761L156.75 129.394L160.059 126.992Z" fill="#F9FFFD"/>
<path d="M146.387 126.022L151.532 129.759L152.665 129.4L149.356 126.997H153.445L154.711 123.108L154.71 119.976L152.744 126.022H146.387Z" fill="#DBFFF4"/>
<path d="M137.307 151.416L130.95 151.415L128.987 145.369L127.021 151.416L120.668 151.415L125.809 155.151L123.844 161.195L128.987 157.461L134.131 161.196L132.166 155.152L137.307 151.416ZM128.987 156.28L125.679 158.681L126.944 154.795L123.636 152.39H127.722L128.987 148.502L130.25 152.39H134.338L131.033 154.795L132.295 158.681L128.987 156.28Z" fill="#FAFFFD"/>
<path d="M128.988 148.522L128.989 145.39L130.951 151.437L130.25 152.41L128.988 148.522Z" fill="#F9FFFD"/>
<path d="M125.689 158.67L123.848 161.202L128.992 157.466L128.998 156.267L125.689 158.67Z" fill="#F9FFFD"/>
<path d="M132.283 158.665L134.125 161.196L132.16 155.151L131.02 154.775L132.283 158.665Z" fill="#F9FFFD"/>
<path d="M134.331 152.387L137.309 151.419H130.949L130.242 152.387H134.331Z" fill="#DBFFF4"/>
<path d="M134.331 152.385L137.309 151.416L132.165 155.154L131.023 154.787L134.331 152.385Z" fill="#F9FFFD"/>
<path d="M120.668 151.416L125.809 155.152L126.944 154.794L123.636 152.39H127.722L128.987 148.501V145.37L127.021 151.416H120.668Z" fill="#DBFFF4"/>
<path d="M100.723 162.571H94.3676L92.4027 156.526L90.4366 162.571L84.082 162.571L89.2239 166.305L87.259 172.351L92.4034 168.616L97.5452 172.352L95.5816 166.305L100.723 162.571ZM92.4027 167.434L89.0928 169.837L90.3576 165.948L87.0496 163.545H91.1374L92.4027 159.656L93.6655 163.545H97.754L94.4466 165.948L95.7082 169.837L92.4027 167.434Z" fill="#FAFFFD"/>
<path d="M92.4023 159.678V156.549L94.3679 162.593L93.6639 163.569L92.4023 159.678Z" fill="#F9FFFD"/>
<path d="M89.1072 169.824L87.2656 172.357L92.4081 168.621L92.4132 167.421L89.1072 169.824Z" fill="#F9FFFD"/>
<path d="M95.6983 169.817L97.5373 172.351L95.575 166.304L94.4336 165.931L95.6983 169.817Z" fill="#F9FFFD"/>
<path d="M97.7512 163.544L100.729 162.575H94.3719L93.6641 163.542L97.7512 163.544Z" fill="#DBFFF4"/>
<path d="M97.7448 163.539L100.723 162.573L95.5815 166.31L94.4375 165.943L97.7448 163.539Z" fill="#F9FFFD"/>
<path d="M84.082 162.571L89.2239 166.305L90.3582 165.948L87.0496 163.545H91.138L92.4027 159.656L92.4034 156.526L90.4366 162.571H84.082Z" fill="#DBFFF4"/>
<path d="M64.2514 151.831L57.8975 151.831L55.9314 145.787L53.9665 151.831H47.6094L52.7506 155.568L50.787 161.614L55.9307 157.878L61.0713 161.613L59.1096 155.567L64.2514 151.831ZM55.9314 156.693L52.6215 159.098L53.8855 155.207L50.5782 152.807H54.6666L55.9307 148.917L57.1942 152.807H61.2832L57.974 155.208L59.2374 159.098L55.9314 156.693Z" fill="#FAFFFD"/>
<path d="M55.9297 148.939V145.81L57.8958 151.853L57.1931 152.829L55.9297 148.939Z" fill="#F9FFFD"/>
<path d="M52.63 159.086L50.7891 161.617L55.9328 157.882L55.9399 156.681L52.63 159.086Z" fill="#F9FFFD"/>
<path d="M59.2289 159.077L61.0666 161.613L59.1043 155.566L57.9648 155.19L59.2289 159.077Z" fill="#F9FFFD"/>
<path d="M61.2779 152.805L64.2564 151.836H57.9012L57.1914 152.803L61.2779 152.805Z" fill="#DBFFF4"/>
<path d="M61.2787 152.798L64.2591 151.832L59.1154 155.57L57.9727 155.204L61.2787 152.798Z" fill="#F9FFFD"/>
<path d="M47.6094 151.831L52.7512 155.567L53.8862 155.207L50.5789 152.807H54.6673L55.9314 148.917V145.787L53.9665 151.831H47.6094Z" fill="#DBFFF4"/>
<path d="M37.6629 127.314L31.3083 127.313L29.3415 121.27L27.3779 127.314L21.0195 127.313L26.162 131.05L24.1997 137.096L29.3409 133.361L34.4821 137.096L32.5191 131.05L37.6629 127.314ZM29.3415 132.176L26.0335 134.581L27.2976 130.691L23.989 128.288H28.0774L29.3415 124.4L30.605 128.288H34.6934L31.3848 130.691L32.6482 134.58L29.3415 132.176Z" fill="#FAFFFD"/>
<path d="M29.3405 124.422L29.3398 121.292L31.3073 127.336L30.6065 128.312L29.3405 124.422Z" fill="#F9FFFD"/>
<path d="M26.0421 134.569L24.2031 137.1L29.3456 133.366L29.352 132.163L26.0421 134.569Z" fill="#F9FFFD"/>
<path d="M32.6365 134.561L34.4762 137.095L32.5119 131.05L31.375 130.674L32.6365 134.561Z" fill="#F9FFFD"/>
<path d="M34.69 128.286L37.6665 127.32L31.3126 127.318L30.6016 128.285L34.69 128.286Z" fill="#DBFFF4"/>
<path d="M34.6902 128.282L37.6686 127.316L32.5268 131.053L31.3828 130.688L34.6902 128.282Z" fill="#F9FFFD"/>
<path d="M21.0195 127.313L26.162 131.05L27.2976 130.691L23.989 128.288H28.0774L29.3415 124.4V121.27L27.3779 127.314L21.0195 127.313Z" fill="#DBFFF4"/>
<path d="M26.8139 90.8486L20.4568 90.848L18.4932 84.8037L16.5271 90.848H10.1719L15.3156 94.5851L13.3508 100.631L18.4939 96.8942L23.637 100.631L21.6727 94.5851L26.8139 90.8486ZM18.4939 95.7117L15.1846 98.1153L16.4487 94.2279L13.1414 91.8237H17.2285L18.4945 87.9331L19.756 91.8237H23.8444L20.5378 94.2273L21.8018 98.1147L18.4939 95.7117Z" fill="#FAFFFD"/>
<path d="M18.4922 87.9569V84.8262L20.4551 90.8718L19.7544 91.8462L18.4922 87.9569Z" fill="#F9FFFD"/>
<path d="M15.1912 98.1018L13.3516 100.635L18.4966 96.8987L18.5005 95.6982L15.1912 98.1018Z" fill="#F9FFFD"/>
<path d="M21.7869 98.0979L23.6291 100.63L21.6642 94.5838L20.5234 94.208L21.7869 98.0979Z" fill="#F9FFFD"/>
<path d="M23.8417 91.8212L26.8182 90.8545H20.4617L19.7539 91.8212H23.8417Z" fill="#DBFFF4"/>
<path d="M23.8425 91.8179L26.819 90.8506L21.6772 94.587L20.5352 94.2222L23.8425 91.8179Z" fill="#F9FFFD"/>
<path d="M10.1719 90.848L15.315 94.5851L16.4487 94.2279L13.1414 91.8237H17.2278L18.4939 87.9338V84.8037L16.5277 90.848H10.1719Z" fill="#DBFFF4"/>
<path d="M36.1244 53.5108H29.7693L27.8044 47.4658L25.8389 53.5108H19.4805L24.6249 57.2472L22.6606 63.2934L27.8044 59.557L32.9456 63.2934L30.98 57.2472L36.1244 53.5108ZM27.8044 58.3738L24.497 60.7787L25.7592 56.8881L22.4512 54.4865H26.5409L27.805 50.5959L29.0685 54.4865H33.155L29.8463 56.8875L31.1117 60.778L27.8044 58.3738Z" fill="#FAFFFD"/>
<path d="M27.8008 50.619V47.4883L29.7676 53.5326L29.0662 54.5083L27.8008 50.619Z" fill="#F9FFFD"/>
<path d="M24.5037 60.7656L22.6641 63.2963L27.8078 59.5618L27.813 58.3613L24.5037 60.7656Z" fill="#F9FFFD"/>
<path d="M31.0975 60.7568L32.9371 63.2915L30.9729 57.2459L29.8359 56.8701L31.0975 60.7568Z" fill="#F9FFFD"/>
<path d="M33.1528 54.4843L36.13 53.5176L29.7736 53.5156L29.0625 54.4843H33.1528Z" fill="#DBFFF4"/>
<path d="M33.1524 54.4794L36.1308 53.5127L30.989 57.2491L29.8438 56.8836L33.1524 54.4794Z" fill="#F9FFFD"/>
<path d="M19.4805 53.5108L24.6249 57.2472L25.7592 56.8881L22.4512 54.4865H26.5403L27.8044 50.5965V47.4658L25.8389 53.5108H19.4805Z" fill="#DBFFF4"/>
<path d="M61.8523 25.682L55.4978 25.6826L53.5323 19.6357L51.568 25.682H45.2109L50.3528 29.4184L48.3892 35.4627L53.5316 31.7256L58.6735 35.4627L56.7112 29.4184L61.8523 25.682ZM53.5316 30.545L50.223 32.9473L51.4865 29.0587L48.1798 26.6564H52.2682L53.5316 22.7677L54.7964 26.6564H58.8829L55.5755 29.0593L56.8403 32.9473L53.5316 30.545Z" fill="#FAFFFD"/>
<path d="M53.5312 22.7889V19.6582L55.4961 25.7044L54.796 26.6782L53.5312 22.7889Z" fill="#F9FFFD"/>
<path d="M50.2328 32.9351L48.3906 35.4659L53.5344 31.734L53.5421 30.5303L50.2328 32.9351Z" fill="#F9FFFD"/>
<path d="M56.8286 32.928L58.6682 35.462L56.7053 29.4152L55.5664 29.04L56.8286 32.928Z" fill="#F9FFFD"/>
<path d="M58.8807 26.6539L61.8579 25.6865H55.5008L54.793 26.6539H58.8807Z" fill="#DBFFF4"/>
<path d="M58.8796 26.6487L61.8575 25.6826L56.7163 29.4184L55.5742 29.0542L58.8796 26.6487Z" fill="#F9FFFD"/>
<path d="M45.2109 25.682L50.3528 29.4184L51.4878 29.0587L48.1804 26.6564H52.2688L53.5323 22.7671V19.6357L51.568 25.682H45.2109Z" fill="#DBFFF4"/>
<path d="M98.6447 16.0495H92.2901L90.3272 10.0059L88.361 16.0502H82.0039L87.1477 19.7866L85.1828 25.8309L90.3265 22.0964L95.4684 25.8315L93.5022 19.7853L98.6447 16.0495ZM90.3272 20.9132L87.0185 23.3155L88.2807 19.4269L84.974 17.0259L89.0618 17.0252L90.3272 13.1359L91.5887 17.0252H95.6765L92.3691 19.4275L93.6326 23.3162L90.3272 20.9132Z" fill="#FAFFFD"/>
<path d="M90.3242 13.1567V10.0254L92.2891 16.0703L91.5883 17.046L90.3242 13.1567Z" fill="#F9FFFD"/>
<path d="M87.029 23.3024L85.1875 25.8357L90.3319 22.1006L90.3351 20.8994L87.029 23.3024Z" fill="#F9FFFD"/>
<path d="M93.6222 23.2969L95.4612 25.8295L93.4969 19.7846L92.3594 19.4082L93.6222 23.2969Z" fill="#F9FFFD"/>
<path d="M95.6776 17.023L98.6541 16.0556L92.297 16.0537L91.5859 17.023H95.6776Z" fill="#DBFFF4"/>
<path d="M95.6706 17.0172L98.6471 16.0518L93.5059 19.7888L92.3594 19.4227L95.6706 17.0172Z" fill="#F9FFFD"/>
<path d="M82.0039 16.0485L87.1477 19.785L88.2814 19.4265L84.974 17.0255L89.0624 17.0249L90.3272 13.1356V10.0049L88.361 16.0492L82.0039 16.0485Z" fill="#DBFFF4"/>
<path d="M136.759 24.472H130.403L128.439 18.4277L126.474 24.472L120.117 24.4727L125.259 28.211L123.295 34.2547L128.439 30.5183L133.58 34.2547L131.618 28.2104L136.759 24.472ZM128.439 29.3357L125.129 31.74L126.393 27.852L123.084 25.4497H127.173L128.439 21.5604L129.702 25.4497L133.791 25.449L130.482 27.852L131.747 31.74L128.439 29.3357Z" fill="#FAFFFD"/>
<path d="M128.438 21.5812V18.4512L130.402 24.4955L129.702 25.4705L128.438 21.5812Z" fill="#F9FFFD"/>
<path d="M125.142 31.7285L123.301 34.2618L128.444 30.5248L128.452 29.3262L125.142 31.7285Z" fill="#F9FFFD"/>
<path d="M131.734 31.7226L133.574 34.256L131.612 28.2091L130.473 27.834L131.734 31.7226Z" fill="#F9FFFD"/>
<path d="M133.787 25.4452L136.764 24.4785H130.408L129.699 25.4452H133.787Z" fill="#DBFFF4"/>
<path d="M133.788 25.4413L136.766 24.4746L131.623 28.2123L130.48 27.8468L133.788 25.4413Z" fill="#F9FFFD"/>
<path d="M120.117 24.4736L125.26 28.212L126.395 27.8523L123.085 25.45L127.174 25.4493L128.44 21.5601V18.4287L126.475 24.473L120.117 24.4736Z" fill="#DBFFF4"/>
<defs>
<linearGradient id="paint0_linear_937_94401" x1="46.0346" y1="12.7165" x2="136.816" y2="169.959" gradientUnits="userSpaceOnUse">
<stop stop-color="#6DD3FF"/>
<stop offset="0.1152" stop-color="#00B3FF"/>
<stop offset="0.185" stop-color="#00B3FF"/>
<stop offset="0.3477" stop-color="#009EE1"/>
<stop offset="0.5301" stop-color="#00A6ED"/>
<stop offset="0.7558" stop-color="#139AD3"/>
<stop offset="1" stop-color="#028FCB"/>
</linearGradient>
<linearGradient id="paint1_linear_937_94401" x1="114.25" y1="176.289" x2="68.9035" y2="7.04654" gradientUnits="userSpaceOnUse">
<stop stop-color="#0899D7"/>
<stop offset="0.2849" stop-color="#24BDFF"/>
<stop offset="0.564" stop-color="#00B3FF"/>
<stop offset="1" stop-color="#1CB0EF"/>
</linearGradient>
<linearGradient id="paint2_linear_937_94401" x1="59.9974" y1="36.9144" x2="123.074" y2="146.169" gradientUnits="userSpaceOnUse">
<stop stop-color="#2FC1FF"/>
<stop offset="0.0462" stop-color="#00C2FF"/>
<stop offset="0.1513" stop-color="#00B0FC"/>
<stop offset="0.2338" stop-color="#05A8EE"/>
<stop offset="0.2831" stop-color="#13A6E4"/>
<stop offset="0.7605" stop-color="#0399DA"/>
<stop offset="1" stop-color="#0E8FC6"/>
</linearGradient>
<linearGradient id="paint3_linear_937_94401" x1="119.633" y1="151.773" x2="64.3381" y2="33.1885" gradientUnits="userSpaceOnUse">
<stop stop-color="#B9EAFF" stop-opacity="0.47"/>
<stop offset="0.2791" stop-color="#71D4FF"/>
<stop offset="0.5349" stop-color="#00B2FF"/>
<stop offset="1" stop-color="#00A1E7"/>
</linearGradient>
</defs>
</svg>
