<svg width="184" height="184" viewBox="0 0 184 184" fill="none" xmlns="http://www.w3.org/2000/svg">
<path d="M170.816 137.312C145.54 181.092 89.5595 196.091 45.7805 170.815C2.00396 145.541 -12.9982 89.5605 12.278 45.7808C37.5542 2.00107 93.5349 -12.9966 137.311 12.2777C181.091 37.5532 196.092 93.5327 170.816 137.312Z" fill="url(#paint0_linear_937_94610)"/>
<path d="M135.647 15.1596C93.4603 -9.19676 39.517 5.25753 15.16 47.4456C-9.19638 89.6323 5.25661 143.577 47.4434 167.934C89.6308 192.29 143.575 177.835 167.931 135.648C192.288 93.46 177.835 39.5167 135.647 15.1596ZM48.2758 166.491C6.88684 142.595 -7.29767 89.6689 16.6001 48.2767C40.4979 6.88454 93.4256 -7.29419 134.815 16.6017C176.207 40.4994 190.388 93.4246 166.49 134.817C142.593 176.208 89.668 190.389 48.2758 166.491Z" fill="url(#paint1_linear_937_94610)"/>
<path d="M133.15 19.4824C93.3519 -3.49493 42.4604 10.143 19.4824 49.9422C-3.49557 89.7408 10.1404 140.632 49.9383 163.61C89.7382 186.588 140.629 172.951 163.607 133.152C186.585 93.3532 172.95 42.461 133.15 19.4824ZM50.7701 162.168C11.7687 139.65 -1.59557 89.7767 20.9231 50.774C43.4412 11.7706 93.3147 -1.59172 132.317 20.9257C171.319 43.4438 184.684 93.3172 162.166 132.32C139.647 171.323 89.7729 184.686 50.7701 162.168Z" fill="url(#paint2_linear_937_94610)"/>
<path d="M146.297 123.149C128.833 153.396 90.1555 163.758 59.9077 146.294C29.6624 128.832 19.2966 90.1555 36.7602 59.9077C54.2237 29.6599 92.9015 19.2978 123.147 36.7601C153.395 54.2231 163.761 92.9002 146.297 123.149Z" fill="url(#paint3_linear_937_94610)"/>
<path d="M83.3635 96.5688V86.0448H90.7261C93.2773 86.0448 95.3294 85.3932 96.8824 84.0898C98.4353 82.7587 99.2118 80.9978 99.2118 78.807C99.2118 76.6163 98.4353 74.8969 96.8824 73.649C95.3572 72.3734 93.2635 71.7356 90.6013 71.7356C87.9945 71.7356 85.8731 72.4566 84.237 73.8986C82.6008 75.3129 81.7412 77.1986 81.658 79.5558H67.8063C67.9172 73.6768 70.0525 69.0041 74.2122 65.5377C78.3996 62.0713 83.9735 60.3381 90.934 60.3381C97.5895 60.3381 102.997 61.8633 107.157 64.9137C111.316 67.9364 113.396 71.8742 113.396 76.7272C113.396 80.1658 112.342 83.1331 110.235 85.6289C108.155 88.1247 105.424 89.6915 102.04 90.3293V91.1196C106.172 91.5633 109.458 93.0608 111.899 95.6121C114.367 98.1356 115.601 101.325 115.601 105.179C115.601 110.615 113.285 115.052 108.654 118.49C104.023 121.901 98.0332 123.607 90.6845 123.607C83.6685 123.607 77.9836 121.846 73.6298 118.324C69.276 114.774 66.9605 110.06 66.6832 104.181H81.242C81.3529 106.483 82.2681 108.299 83.9874 109.63C85.7345 110.934 88.05 111.585 90.934 111.585C93.6517 111.585 95.8563 110.892 97.5479 109.505C99.2395 108.091 100.085 106.261 100.085 104.015C100.085 101.713 99.2534 99.8965 97.5895 98.5654C95.9256 97.2343 93.6378 96.5688 90.7261 96.5688H83.3635Z" fill="white"/>
<path d="M124.003 35.3364C92.961 17.4142 53.2658 28.0518 35.343 59.0955C17.4208 90.1378 28.0558 129.834 59.0982 147.756C90.1431 165.679 129.836 155.04 147.759 123.999C165.681 92.9551 155.048 53.2606 124.003 35.3364ZM59.9306 146.314C29.6854 128.852 19.3195 90.1751 36.7831 59.9273C54.2467 29.6795 92.9244 19.3174 123.17 36.7797C153.417 54.2433 163.783 92.9204 146.319 123.168C128.856 153.416 90.1784 163.777 59.9306 146.314Z" fill="url(#paint4_linear_937_94610)"/>
<path d="M163.035 51.8148H156.68L154.713 45.7686L152.75 51.8148H146.391L151.534 55.5512L149.571 61.5974L154.713 57.8597L159.856 61.5974L157.891 55.5512L163.035 51.8148ZM154.713 56.6772L151.407 59.0821L152.669 55.1921L149.362 52.7898L153.451 52.7892L154.713 48.9005L155.977 52.7898L160.067 52.7892L156.756 55.1921L158.021 59.0821L154.713 56.6772Z" fill="#797979"/>
<path d="M154.712 48.9217L154.711 45.791L156.678 51.8366L155.978 52.811L154.712 48.9217Z" fill="white"/>
<path d="M151.414 59.068L149.574 61.6007L154.717 57.8662L154.723 56.6631L151.414 59.068Z" fill="white"/>
<path d="M158.011 59.0615L159.849 61.5942L157.886 55.5499L156.746 55.1729L158.011 59.0615Z" fill="white"/>
<path d="M160.061 52.7857L163.039 51.8184H156.684L155.973 52.7857H160.061Z" fill="#B8B8B8"/>
<path d="M160.059 52.7828L163.037 51.8154L157.896 55.5518L156.754 55.1876L160.059 52.7828Z" fill="white"/>
<path d="M146.391 51.8148L151.534 55.5512L152.669 55.1915L149.362 52.7898L153.451 52.7892L154.713 48.9005V45.7686L152.75 51.8148H146.391Z" fill="#B8B8B8"/>
<path d="M173.108 89.2259H166.753L164.786 83.1797L162.824 89.2259H156.465L161.609 92.961L159.645 99.006L164.786 95.2702L169.93 99.006L167.965 92.9617L173.108 89.2259ZM164.787 94.0883L161.481 96.4906L162.742 92.6026L159.435 90.199L163.524 90.1984L164.786 86.3097L166.05 90.199H170.141L166.829 92.6026L168.094 96.4913L164.787 94.0883Z" fill="#797979"/>
<path d="M164.785 86.3303V83.2002L166.752 89.2464L166.051 90.2195L164.785 86.3303Z" fill="white"/>
<path d="M161.488 96.4778L159.648 99.0105L164.792 95.2741L164.797 94.0742L161.488 96.4778Z" fill="white"/>
<path d="M168.085 96.4723L169.924 99.005L167.961 92.9581L166.82 92.583L168.085 96.4723Z" fill="white"/>
<path d="M170.133 90.1975L173.112 89.2301L166.757 89.2295L166.047 90.1975H170.133Z" fill="#B8B8B8"/>
<path d="M170.134 90.1933L173.112 89.2266L167.97 92.9636L166.828 92.5969L170.134 90.1933Z" fill="white"/>
<path d="M156.465 89.2259L161.609 92.961L162.743 92.6026L159.436 90.199L163.525 90.1984L164.786 86.3097V83.1797L162.824 89.2259H156.465Z" fill="#B8B8B8"/>
<path d="M163.035 126.022L156.677 126.021L154.714 119.975L152.748 126.021H146.391L151.536 129.758L149.569 135.804L154.715 132.067L159.854 135.804L157.889 129.757L163.035 126.022ZM154.715 130.886L151.405 133.289L152.669 129.401L149.36 126.997H153.449L154.715 123.108L155.976 126.997L160.064 126.997L156.756 129.401L158.02 133.29L154.715 130.886Z" fill="#797979"/>
<path d="M154.712 123.129L154.711 119.997L156.676 126.044L155.976 127.018L154.712 123.129Z" fill="white"/>
<path d="M151.412 133.274L149.57 135.81L154.715 132.073L154.719 130.872L151.412 133.274Z" fill="white"/>
<path d="M158.008 133.271L159.849 135.802L157.884 129.758L156.746 129.381L158.008 133.271Z" fill="white"/>
<path d="M160.064 126.993L163.041 126.025H156.684L155.973 126.993H160.064Z" fill="#B8B8B8"/>
<path d="M160.063 126.992L163.04 126.023L157.898 129.761L156.754 129.394L160.063 126.992Z" fill="white"/>
<path d="M146.391 126.022L151.536 129.759L152.669 129.4L149.36 126.997H153.449L154.715 123.108L154.714 119.976L152.748 126.022H146.391Z" fill="#B8B8B8"/>
<path d="M137.3 151.416L130.943 151.415L128.98 145.369L127.013 151.416L120.66 151.415L125.801 155.151L123.836 161.195L128.98 157.461L134.123 161.196L132.158 155.152L137.3 151.416ZM128.98 156.28L125.671 158.681L126.936 154.795L123.628 152.39H127.714L128.98 148.502L130.242 152.39H134.33L131.025 154.795L132.287 158.681L128.98 156.28Z" fill="#797979"/>
<path d="M128.98 148.522L128.981 145.39L130.943 151.437L130.243 152.41L128.98 148.522Z" fill="white"/>
<path d="M125.681 158.67L123.84 161.202L128.984 157.466L128.99 156.267L125.681 158.67Z" fill="white"/>
<path d="M132.275 158.665L134.117 161.196L132.152 155.151L131.012 154.775L132.275 158.665Z" fill="white"/>
<path d="M134.323 152.387L137.301 151.419H130.942L130.234 152.387H134.323Z" fill="#B8B8B8"/>
<path d="M134.323 152.385L137.301 151.416L132.158 155.154L131.016 154.787L134.323 152.385Z" fill="white"/>
<path d="M120.66 151.416L125.801 155.152L126.936 154.794L123.628 152.39H127.714L128.98 148.501V145.37L127.013 151.416H120.66Z" fill="#B8B8B8"/>
<path d="M100.715 162.571H94.3598L92.3949 156.526L90.4288 162.571L84.0742 162.571L89.216 166.305L87.2512 172.351L92.3956 168.616L97.5374 172.352L95.5738 166.305L100.715 162.571ZM92.3949 167.434L89.085 169.837L90.3498 165.948L87.0418 163.545H91.1295L92.3949 159.656L93.6577 163.545H97.7462L94.4388 165.948L95.7003 169.837L92.3949 167.434Z" fill="#797979"/>
<path d="M92.3945 159.678V156.549L94.3601 162.593L93.6561 163.569L92.3945 159.678Z" fill="white"/>
<path d="M89.0994 169.824L87.2578 172.357L92.4003 168.621L92.4054 167.421L89.0994 169.824Z" fill="white"/>
<path d="M95.6905 169.817L97.5295 172.351L95.5672 166.304L94.4258 165.931L95.6905 169.817Z" fill="white"/>
<path d="M97.7434 163.544L100.721 162.575H94.3641L93.6562 163.542L97.7434 163.544Z" fill="#B8B8B8"/>
<path d="M97.737 163.539L100.715 162.573L95.5737 166.31L94.4297 165.943L97.737 163.539Z" fill="white"/>
<path d="M84.0742 162.571L89.216 166.305L90.3504 165.948L87.0418 163.545H91.1302L92.3949 159.656L92.3956 156.526L90.4288 162.571H84.0742Z" fill="#B8B8B8"/>
<path d="M64.2514 151.831L57.8975 151.831L55.9314 145.787L53.9665 151.831H47.6094L52.7506 155.568L50.787 161.614L55.9307 157.878L61.0713 161.613L59.1096 155.567L64.2514 151.831ZM55.9314 156.693L52.6215 159.098L53.8855 155.207L50.5782 152.807H54.6666L55.9307 148.917L57.1942 152.807H61.2832L57.974 155.208L59.2374 159.098L55.9314 156.693Z" fill="#797979"/>
<path d="M55.9297 148.939V145.81L57.8958 151.853L57.1931 152.829L55.9297 148.939Z" fill="white"/>
<path d="M52.63 159.086L50.7891 161.617L55.9328 157.882L55.9399 156.681L52.63 159.086Z" fill="white"/>
<path d="M59.2289 159.077L61.0666 161.613L59.1043 155.566L57.9648 155.19L59.2289 159.077Z" fill="white"/>
<path d="M61.2779 152.805L64.2564 151.836H57.9012L57.1914 152.803L61.2779 152.805Z" fill="#B8B8B8"/>
<path d="M61.2787 152.798L64.2591 151.832L59.1154 155.57L57.9727 155.204L61.2787 152.798Z" fill="white"/>
<path d="M47.6094 151.831L52.7512 155.567L53.8862 155.207L50.5789 152.807H54.6673L55.9314 148.917V145.787L53.9665 151.831H47.6094Z" fill="#B8B8B8"/>
<path d="M37.6629 127.314L31.3083 127.313L29.3415 121.27L27.3779 127.314L21.0195 127.313L26.162 131.05L24.1997 137.096L29.3409 133.361L34.4821 137.096L32.5191 131.05L37.6629 127.314ZM29.3415 132.176L26.0335 134.581L27.2976 130.691L23.989 128.288H28.0774L29.3415 124.4L30.605 128.288H34.6934L31.3848 130.691L32.6482 134.58L29.3415 132.176Z" fill="#797979"/>
<path d="M29.3405 124.422L29.3398 121.292L31.3073 127.336L30.6065 128.312L29.3405 124.422Z" fill="white"/>
<path d="M26.0421 134.569L24.2031 137.1L29.3456 133.366L29.352 132.163L26.0421 134.569Z" fill="white"/>
<path d="M32.6365 134.561L34.4762 137.095L32.5119 131.05L31.375 130.674L32.6365 134.561Z" fill="white"/>
<path d="M34.69 128.286L37.6665 127.32L31.3126 127.318L30.6016 128.285L34.69 128.286Z" fill="#B8B8B8"/>
<path d="M34.6902 128.282L37.6686 127.316L32.5268 131.053L31.3828 130.688L34.6902 128.282Z" fill="white"/>
<path d="M21.0195 127.313L26.162 131.05L27.2976 130.691L23.989 128.288H28.0774L29.3415 124.4V121.27L27.3779 127.314L21.0195 127.313Z" fill="#B8B8B8"/>
<path d="M26.8139 90.8486L20.4568 90.848L18.4932 84.8037L16.5271 90.848H10.1719L15.3156 94.5851L13.3508 100.631L18.4939 96.8942L23.637 100.631L21.6727 94.5851L26.8139 90.8486ZM18.4939 95.7117L15.1846 98.1153L16.4487 94.2279L13.1414 91.8237H17.2285L18.4945 87.9331L19.756 91.8237H23.8444L20.5378 94.2273L21.8018 98.1147L18.4939 95.7117Z" fill="#797979"/>
<path d="M18.4922 87.9569V84.8262L20.4551 90.8718L19.7544 91.8462L18.4922 87.9569Z" fill="white"/>
<path d="M15.1912 98.1018L13.3516 100.635L18.4966 96.8987L18.5005 95.6982L15.1912 98.1018Z" fill="white"/>
<path d="M21.7869 98.0979L23.6291 100.63L21.6642 94.5838L20.5234 94.208L21.7869 98.0979Z" fill="white"/>
<path d="M23.8417 91.8212L26.8182 90.8545H20.4617L19.7539 91.8212H23.8417Z" fill="#B8B8B8"/>
<path d="M23.8425 91.8179L26.819 90.8506L21.6772 94.587L20.5352 94.2222L23.8425 91.8179Z" fill="white"/>
<path d="M10.1719 90.848L15.315 94.5851L16.4487 94.2279L13.1414 91.8237H17.2278L18.4939 87.9338V84.8037L16.5277 90.848H10.1719Z" fill="#B8B8B8"/>
<path d="M36.1244 53.5108H29.7693L27.8044 47.4658L25.8389 53.5108H19.4805L24.6249 57.2472L22.6606 63.2934L27.8044 59.557L32.9456 63.2934L30.98 57.2472L36.1244 53.5108ZM27.8044 58.3738L24.497 60.7787L25.7592 56.8881L22.4512 54.4865H26.5409L27.805 50.5959L29.0685 54.4865H33.155L29.8463 56.8875L31.1117 60.778L27.8044 58.3738Z" fill="#797979"/>
<path d="M27.8008 50.619V47.4883L29.7676 53.5326L29.0662 54.5083L27.8008 50.619Z" fill="white"/>
<path d="M24.5037 60.7656L22.6641 63.2963L27.8078 59.5618L27.813 58.3613L24.5037 60.7656Z" fill="white"/>
<path d="M31.0975 60.7568L32.9371 63.2915L30.9729 57.2459L29.8359 56.8701L31.0975 60.7568Z" fill="white"/>
<path d="M33.1528 54.4843L36.13 53.5176L29.7736 53.5156L29.0625 54.4843H33.1528Z" fill="#B8B8B8"/>
<path d="M33.1524 54.4794L36.1308 53.5127L30.989 57.2491L29.8438 56.8836L33.1524 54.4794Z" fill="white"/>
<path d="M19.4805 53.5108L24.6249 57.2472L25.7592 56.8881L22.4512 54.4865H26.5403L27.8044 50.5965V47.4658L25.8389 53.5108H19.4805Z" fill="#B8B8B8"/>
<path d="M61.8563 25.682L55.5017 25.6826L53.5362 19.6357L51.572 25.682H45.2148L50.3567 29.4184L48.3931 35.4627L53.5355 31.7256L58.6774 35.4627L56.7151 29.4184L61.8563 25.682ZM53.5355 30.545L50.2269 32.9473L51.4904 29.0587L48.1837 26.6564H52.2721L53.5355 22.7677L54.8003 26.6564H58.8868L55.5794 29.0593L56.8442 32.9473L53.5355 30.545Z" fill="#797979"/>
<path d="M53.5352 22.7889V19.6582L55.5 25.7044L54.7999 26.6782L53.5352 22.7889Z" fill="white"/>
<path d="M50.2367 32.9351L48.3945 35.4659L53.5383 31.734L53.546 30.5303L50.2367 32.9351Z" fill="white"/>
<path d="M56.8325 32.928L58.6721 35.462L56.7092 29.4152L55.5703 29.04L56.8325 32.928Z" fill="white"/>
<path d="M58.8846 26.6539L61.8618 25.6865H55.5047L54.7969 26.6539H58.8846Z" fill="#B8B8B8"/>
<path d="M58.8835 26.6487L61.8614 25.6826L56.7202 29.4184L55.5781 29.0542L58.8835 26.6487Z" fill="white"/>
<path d="M45.2148 25.682L50.3567 29.4184L51.4917 29.0587L48.1843 26.6564H52.2727L53.5362 22.7671V19.6357L51.572 25.682H45.2148Z" fill="#B8B8B8"/>
<path d="M98.6447 16.0495H92.2901L90.3272 10.0059L88.361 16.0502H82.0039L87.1477 19.7866L85.1828 25.8309L90.3265 22.0964L95.4684 25.8315L93.5022 19.7853L98.6447 16.0495ZM90.3272 20.9132L87.0185 23.3155L88.2807 19.4269L84.974 17.0259L89.0618 17.0252L90.3272 13.1359L91.5887 17.0252H95.6765L92.3691 19.4275L93.6326 23.3162L90.3272 20.9132Z" fill="#797979"/>
<path d="M90.3242 13.1567V10.0254L92.2891 16.0703L91.5883 17.046L90.3242 13.1567Z" fill="white"/>
<path d="M87.029 23.3024L85.1875 25.8357L90.3319 22.1006L90.3351 20.8994L87.029 23.3024Z" fill="white"/>
<path d="M93.6222 23.2969L95.4612 25.8295L93.4969 19.7846L92.3594 19.4082L93.6222 23.2969Z" fill="white"/>
<path d="M95.6776 17.023L98.6541 16.0556L92.297 16.0537L91.5859 17.023H95.6776Z" fill="#B8B8B8"/>
<path d="M95.6706 17.0172L98.6471 16.0518L93.5059 19.7888L92.3594 19.4227L95.6706 17.0172Z" fill="white"/>
<path d="M82.0039 16.0485L87.1477 19.785L88.2814 19.4265L84.974 17.0255L89.0624 17.0249L90.3272 13.1356V10.0049L88.361 16.0492L82.0039 16.0485Z" fill="#B8B8B8"/>
<path d="M136.759 24.472H130.403L128.439 18.4277L126.474 24.472L120.117 24.4727L125.259 28.211L123.295 34.2547L128.439 30.5183L133.58 34.2547L131.618 28.2104L136.759 24.472ZM128.439 29.3357L125.129 31.74L126.393 27.852L123.084 25.4497H127.173L128.439 21.5604L129.702 25.4497L133.791 25.449L130.482 27.852L131.747 31.74L128.439 29.3357Z" fill="#797979"/>
<path d="M128.438 21.5812V18.4512L130.402 24.4955L129.702 25.4705L128.438 21.5812Z" fill="white"/>
<path d="M125.142 31.7285L123.301 34.2618L128.444 30.5248L128.452 29.3262L125.142 31.7285Z" fill="white"/>
<path d="M131.734 31.7226L133.574 34.256L131.612 28.2091L130.473 27.834L131.734 31.7226Z" fill="white"/>
<path d="M133.787 25.4442L136.764 24.4775H130.408L129.699 25.4442H133.787Z" fill="#B8B8B8"/>
<path d="M133.788 25.4403L136.766 24.4736L131.623 28.2113L130.48 27.8458L133.788 25.4403Z" fill="white"/>
<path d="M120.117 24.4736L125.26 28.212L126.395 27.8523L123.085 25.45L127.174 25.4493L128.44 21.5601V18.4287L126.475 24.473L120.117 24.4736Z" fill="#B8B8B8"/>
<defs>
<linearGradient id="paint0_linear_937_94610" x1="46.0346" y1="12.7165" x2="136.816" y2="169.959" gradientUnits="userSpaceOnUse">
<stop offset="0.1152" stop-color="#D0D0D0"/>
<stop offset="0.3477" stop-color="#A9A9A9"/>
<stop offset="0.5301" stop-color="#8C8C8C"/>
<stop offset="0.685" stop-color="#959595"/>
<stop offset="0.7558" stop-color="#959595"/>
<stop offset="1" stop-color="#7C7C7C"/>
</linearGradient>
<linearGradient id="paint1_linear_937_94610" x1="114.25" y1="176.289" x2="68.9035" y2="7.04654" gradientUnits="userSpaceOnUse">
<stop stop-color="white"/>
<stop offset="0.2849" stop-color="#797979"/>
<stop offset="0.564" stop-color="#8E8E8E"/>
<stop offset="1" stop-color="#EFEFEF"/>
</linearGradient>
<linearGradient id="paint2_linear_937_94610" x1="56.5622" y1="16.5265" x2="126.62" y2="166.772" gradientUnits="userSpaceOnUse">
<stop stop-color="#FFFBE6"/>
<stop offset="0.2791" stop-color="#A3A3A3"/>
<stop offset="0.5349" stop-color="#CECECE"/>
<stop offset="1" stop-color="#838383"/>
</linearGradient>
<linearGradient id="paint3_linear_937_94610" x1="59.9974" y1="36.9144" x2="123.074" y2="146.169" gradientUnits="userSpaceOnUse">
<stop offset="0.018" stop-color="#FEFEFE"/>
<stop offset="0.075" stop-color="#EEEEEE"/>
<stop offset="0.1513" stop-color="#D7D7D7"/>
<stop offset="0.2338" stop-color="#C7C7C7"/>
<stop offset="0.335" stop-color="#C1C1C1"/>
<stop offset="0.7605" stop-color="#8B8B8B"/>
<stop offset="1" stop-color="#939393"/>
</linearGradient>
<linearGradient id="paint4_linear_937_94610" x1="119.633" y1="151.773" x2="64.3381" y2="33.1885" gradientUnits="userSpaceOnUse">
<stop stop-color="white"/>
<stop offset="0.2791" stop-color="#C2C2C2"/>
<stop offset="0.5349" stop-color="#B5B5B5"/>
<stop offset="0.89" stop-color="#ACACAC"/>
<stop offset="1" stop-color="#A3A3A3"/>
</linearGradient>
</defs>
</svg>
