<svg width="248" height="154" viewBox="0 0 248 154" fill="none" xmlns="http://www.w3.org/2000/svg">
<path d="M124.16 149L200.38 93.6198L171.27 4.00977H77.0497L47.9297 93.6198L124.16 149Z" fill="#54101A"/>
<path d="M173.99 0.259766H74.3196L43.5195 95.0498L124.15 153.63L204.78 95.0498L173.98 0.259766H173.99ZM59.4696 89.8698L84.1796 13.8298H164.14L188.85 89.8698L124.17 136.87L59.4796 89.8698H59.4696Z" fill="url(#paint0_radial_1044_26359)"/>
<g style="mix-blend-mode:multiply" opacity="0.3">
<path d="M84.1797 13.8301L124.16 136.86L164.14 13.8301H84.1797Z" fill="#8C1919"/>
</g>
<path d="M173.989 0.259766H74.3192L67.1992 22.1898C71.6292 22.3898 76.2192 22.9498 80.9192 23.8498L84.1792 13.8298H164.139L188.849 89.8698L179.469 96.6898C181.579 100.79 183.449 105.03 185.049 109.4L204.789 95.0598L173.989 0.26976V0.259766Z" fill="url(#paint1_radial_1044_26359)"/>
<path style="mix-blend-mode:screen" d="M173.989 0.259766H74.3192L67.1992 22.1898C71.6292 22.3898 76.2192 22.9498 80.9192 23.8498L84.1792 13.8298H164.139L188.849 89.8698L179.469 96.6898C181.579 100.79 183.449 105.03 185.049 109.4L204.789 95.0598L173.989 0.26976V0.259766Z" fill="url(#paint2_linear_1044_26359)"/>
<path style="mix-blend-mode:screen" d="M168.53 121.4C168.06 116.12 167.27 111.09 166.21 106.32L124.16 136.87L59.4696 89.8695L77.2096 35.2695C72.1696 35.3895 67.2095 35.9595 62.3995 36.9395L43.5195 95.0495L124.15 153.63L168.52 121.39L168.53 121.4Z" fill="url(#paint3_linear_1044_26359)"/>
<path d="M59.4688 89.8701L65.8588 88.4301L88.1287 19.9001H160.189L182.449 88.4301L188.839 89.8701L164.139 13.8301H84.1787L59.4688 89.8701Z" fill="#9B1B2E"/>
<g style="mix-blend-mode:multiply" opacity="0.2">
<path d="M65.8577 88.4294L78.3176 56.4594C85.6976 37.5294 103.928 29.3194 124.248 29.3194C144.648 29.3194 162.948 37.6394 170.258 56.6894L182.448 88.4294L160.178 19.8994H88.1177L65.8477 88.4294H65.8577Z" fill="#2753A0"/>
</g>
<path d="M59.4688 89.8697L65.8588 88.4297L124.159 130.79L182.449 88.4297L188.839 89.8697L124.159 136.86L59.4688 89.8697Z" fill="url(#paint4_linear_1044_26359)"/>
<g style="mix-blend-mode:multiply" opacity="0.6">
<path d="M65.8599 88.4294L88.7198 29.7694C89.8198 26.9394 92.5498 25.0694 95.5898 25.0694H153.04C156.09 25.0694 158.83 26.9494 159.92 29.7994L182.44 88.4294L160.17 19.8994H88.1099L65.8398 88.4294H65.8599Z" fill="#2753A0"/>
</g>
<path d="M84.1797 13.8301L88.1296 19.9001H160.19L164.14 13.8301H84.1797Z" fill="#661625"/>
<g style="mix-blend-mode:multiply" opacity="0.35">
<path d="M54.5674 61.0596L46.8474 89.9796C46.2474 92.4696 47.4274 95.7796 49.4874 97.3196L124.157 153.64L43.5273 95.0596L54.5774 61.0696L54.5674 61.0596Z" fill="#9E2C19"/>
</g>
<g style="mix-blend-mode:multiply" opacity="0.6">
<path d="M65.8594 88.4297L121.469 125.89C122.939 126.88 125.359 126.88 126.829 125.89L182.439 88.4297L124.149 130.78L65.8594 88.4297Z" fill="#2753A0"/>
</g>
<g style="mix-blend-mode:multiply" opacity="0.35">
<path d="M124.16 153.63L195.96 98.1698C200.98 94.4498 202.07 93.6398 199.81 86.5098L184.83 33.5898L204.8 95.0499L124.17 153.63H124.16Z" fill="#9E2C19"/>
</g>
<path d="M88.5273 110.98L124.157 136.86L172.267 101.91L124.157 139.06L88.5273 110.98Z" fill="#F3FEFF"/>
<path d="M121.449 0.259766H173.989L184.819 33.5898L171.979 2.10976L121.449 0.259766Z" fill="#F3FEFF"/>
<g style="mix-blend-mode:screen">
<path d="M142.36 0.259766C141.92 4.57977 143.81 9.40977 147.45 13.8298H164.14L168.27 26.5298C173.5 27.8098 178.5 27.8498 182.6 26.7298L174 0.26976H142.37L142.36 0.259766Z" fill="white"/>
</g>
<g style="mix-blend-mode:screen">
<path d="M84.1874 107.83C82.9274 111.08 85.2074 115.92 89.7974 119.25C94.3874 122.58 99.6973 123.26 102.387 121.06L84.1774 107.83H84.1874Z" fill="white"/>
</g>
<g style="mix-blend-mode:screen">
<path d="M102.518 129.919C101.748 131.099 99.6182 131.079 97.7682 129.869C95.9082 128.659 95.0282 126.719 95.7982 125.539C96.5682 124.359 98.6982 124.379 100.548 125.589C102.398 126.799 103.288 128.739 102.518 129.919Z" fill="white"/>
</g>
<path d="M66.4688 0.9198L63.4187 26.1498C56.1987 26.1098 50.1687 26.0798 39.3187 26.0898C0.918724 26.1398 0.71875 0.799805 0.71875 0.799805L66.4688 0.9198Z" fill="#661625"/>
<path d="M66.4688 0.9198L59.9788 20.6298C52.7588 20.5898 51.5688 20.5598 40.7288 20.5698C2.32876 20.6198 0.71875 0.799805 0.71875 0.799805L66.4688 0.9198Z" fill="url(#paint5_radial_1044_26359)"/>
<path d="M56.7386 30.88L53.7386 56.11C46.5186 56.07 55.2986 56.11 44.4486 56.11C6.04861 56.16 5.80859 30.75 5.80859 30.75L56.7386 30.87V30.88Z" fill="#661625"/>
<path d="M56.7369 30.88L50.3169 50.63C43.0969 50.59 56.7368 50.56 45.8868 50.57C7.48684 50.62 5.79688 30.75 5.79688 30.75L56.7269 30.87L56.7369 30.88Z" fill="url(#paint6_radial_1044_26359)"/>
<path d="M47.007 60.8297L19.957 60.7197C19.957 60.7197 24.2069 79.7197 43.9969 86.0697L47.017 60.8297H47.007Z" fill="#661625"/>
<path d="M47.007 60.8297L19.957 60.7197C19.957 60.7197 20.797 74.2297 40.587 80.5897L47.017 60.8297H47.007Z" fill="url(#paint7_radial_1044_26359)"/>
<path d="M66.4705 0.919922L69.7104 7.17992L63.4204 26.1499L59.9805 20.6299L66.4705 0.919922Z" fill="#9B1B2E"/>
<path d="M56.7404 30.8799L59.9803 37.0799L53.7404 56.1199L50.3203 50.6299L56.7404 30.8799Z" fill="#9B1B2E"/>
<path d="M46.998 60.8398L50.2382 67.0298L43.9882 86.0699L40.5781 80.5898L46.998 60.8398Z" fill="#9B1B2E"/>
<path d="M181.859 0.9198L184.909 26.1498C192.129 26.1098 198.159 26.0798 209.009 26.0898C247.409 26.1398 247.609 0.799805 247.609 0.799805L181.859 0.9198Z" fill="#661625"/>
<path d="M181.859 0.9198L188.349 20.6298C195.569 20.5898 196.759 20.5598 207.599 20.5698C245.999 20.6198 247.609 0.799805 247.609 0.799805L181.859 0.9198Z" fill="url(#paint8_radial_1044_26359)"/>
<path d="M191.59 30.88L194.59 56.11C201.81 56.07 193.03 56.11 203.88 56.11C242.28 56.16 242.52 30.75 242.52 30.75L191.59 30.87V30.88Z" fill="#661625"/>
<path d="M191.59 30.88L198.01 50.63C205.23 50.59 191.59 50.56 202.44 50.57C240.84 50.62 242.53 30.75 242.53 30.75L191.6 30.87L191.59 30.88Z" fill="url(#paint9_radial_1044_26359)"/>
<path d="M201.319 60.8297L228.369 60.7197C228.369 60.7197 224.119 79.7197 204.329 86.0697L201.309 60.8297H201.319Z" fill="#661625"/>
<path d="M201.319 60.8297L228.369 60.7197C228.369 60.7197 227.529 74.2297 207.739 80.5897L201.309 60.8297H201.319Z" fill="url(#paint10_radial_1044_26359)"/>
<path style="mix-blend-mode:screen" d="M181.859 0.9198L188.349 20.6298C195.569 20.5898 196.759 20.5598 207.599 20.5698C245.999 20.6198 247.609 0.799805 247.609 0.799805L181.859 0.9198Z" fill="url(#paint11_linear_1044_26359)"/>
<path style="mix-blend-mode:screen" d="M191.59 30.88L198.01 50.63C205.23 50.59 191.59 50.56 202.44 50.57C240.84 50.62 242.53 30.75 242.53 30.75L191.6 30.87L191.59 30.88Z" fill="url(#paint12_linear_1044_26359)"/>
<path style="mix-blend-mode:screen" d="M201.319 60.8297L228.369 60.7197C228.369 60.7197 227.529 74.2297 207.739 80.5897L201.309 60.8297H201.319Z" fill="url(#paint13_linear_1044_26359)"/>
<path d="M181.857 0.919922L178.617 7.17992L184.907 26.1499L188.347 20.6299L181.857 0.919922Z" fill="#9B1B2E"/>
<path d="M191.588 30.8799L188.348 37.0799L194.598 56.1199L198.008 50.6299L191.588 30.8799Z" fill="#9B1B2E"/>
<path d="M201.33 60.8398L198.09 67.0298L204.34 86.0699L207.75 80.5898L201.33 60.8398Z" fill="#9B1B2E"/>
<path style="mix-blend-mode:screen" d="M66.4688 0.9198L0.71875 0.799805C0.71875 0.799805 2.32876 20.6198 40.7288 20.5698C51.5788 20.5598 52.7588 20.5898 59.9788 20.6298L66.4688 0.9198Z" fill="url(#paint14_linear_1044_26359)"/>
<path style="mix-blend-mode:screen" d="M47.007 60.8297L19.957 60.7197C19.957 60.7197 20.797 74.2297 40.587 80.5897L47.017 60.8297H47.007Z" fill="url(#paint15_linear_1044_26359)"/>
<path style="mix-blend-mode:screen" d="M50.3202 50.6295L54.1002 38.9795C48.9502 40.6595 44.0702 42.8795 39.5802 45.6295C37.7202 46.7695 35.5402 48.1695 33.1602 49.7395C36.8802 50.2795 41.1001 50.5795 45.8901 50.5795C56.7401 50.5695 43.1002 50.5995 50.3202 50.6395V50.6295Z" fill="url(#paint16_linear_1044_26359)"/>
<g style="mix-blend-mode:multiply" opacity="0.35">
<path d="M56.3906 55.4698L73.2307 7.17976C74.9707 2.27976 76.2407 0.989767 81.4307 0.799767L124.161 0.259766H74.3307L56.3906 55.4698Z" fill="#9E2C19"/>
</g>
<g style="mix-blend-mode:screen">
<path d="M139.218 7.79971C135.738 5.26971 131.538 5.10971 129.838 7.43971C128.628 9.10971 129.028 11.6097 130.638 13.8197H143.128C142.938 11.7797 141.528 9.47971 139.208 7.79971H139.218Z" fill="white"/>
</g>
<g style="mix-blend-mode:multiply" opacity="0.35">
<path fill-rule="evenodd" clip-rule="evenodd" d="M196.749 19.1297C192.369 18.6897 189.319 17.1097 187.319 13.1897L181.859 0.929688L188.349 20.6397C195.569 20.5997 196.759 20.5697 207.599 20.5797C213.719 20.5797 218.899 20.0897 223.289 19.2497C213.769 20.3997 203.999 19.8597 196.749 19.1397V19.1297Z" fill="#9E2C19"/>
</g>
<g style="mix-blend-mode:multiply" opacity="0.35">
<path fill-rule="evenodd" clip-rule="evenodd" d="M202.438 50.5799C211.728 50.5899 218.868 49.4299 224.348 47.6799C216.458 49.8699 209.828 49.7199 204.788 49.4099C201.318 49.1999 198.498 46.6499 197.028 43.4999L191.598 30.8799L198.018 50.6299C205.238 50.5899 191.598 50.5599 202.448 50.5699L202.438 50.5799Z" fill="#9E2C19"/>
</g>
<g style="mix-blend-mode:multiply" opacity="0.35">
<path fill-rule="evenodd" clip-rule="evenodd" d="M207.748 80.5898C212.038 79.2098 215.428 77.4999 218.118 75.6599C214.928 76.8699 208.948 77.7498 208.948 77.7498L201.328 60.8398V60.8598L207.748 80.5898Z" fill="#9E2C19"/>
</g>
<g style="mix-blend-mode:multiply" opacity="0.35">
<path d="M40.7288 20.5798C51.5788 20.5698 52.7588 20.5998 59.9788 20.6398L65.1188 5.0198L61.2987 13.5398C59.4687 18.0298 58.3787 19.5098 53.8987 19.5498C49.0687 19.5898 39.9587 19.4898 35.3287 19.3098C15.1687 18.5198 3.29875 9.8098 0.71875 0.799805C0.71875 0.799805 2.32876 20.6198 40.7288 20.5698V20.5798Z" fill="#9E2C19"/>
</g>
<g style="mix-blend-mode:multiply" opacity="0.35">
<path d="M51.1807 44.8098C49.9607 47.3698 48.6507 49.5098 45.8207 49.4098C42.8907 49.3098 34.6707 49.2498 29.9707 48.1898C19.0607 45.7298 12.5506 41.6698 8.14062 36.6898C11.8506 42.5398 21.4006 50.6098 45.9006 50.5798C56.7506 50.5698 43.1107 50.5998 50.3307 50.6398L55.6406 34.2998L51.1907 44.8198L51.1807 44.8098Z" fill="#9E2C19"/>
</g>
<g style="mix-blend-mode:multiply" opacity="0.35">
<path d="M40.5792 80.59L46.1792 63.36C45.1292 65.56 43.0392 70.64 40.9192 75.34C39.4792 78.54 38.0991 78.14 35.8792 77.21C24.8292 72.61 22.2892 67.14 19.9492 60.71C19.9492 60.71 20.7892 74.22 40.5792 80.58V80.59Z" fill="#9E2C19"/>
</g>
<path d="M181.859 0.9198L241.989 1.9498C244.409 1.9898 245.529 3.7998 244.479 5.9798C243.389 8.2498 241.629 10.9698 238.749 13.3098C247.049 7.6698 247.609 0.799805 247.609 0.799805L181.859 0.9198Z" fill="#F3FEFF"/>
<path d="M191.59 30.8795L235.95 31.9195C241.13 32.0295 240.29 34.2295 238.94 36.9295C238.11 38.5895 236.97 40.4095 235.46 41.9295C242.02 36.5895 242.52 30.7695 242.52 30.7695L191.59 30.8895V30.8795Z" fill="#F3FEFF"/>
<path d="M223.73 70.6497C228.08 65.4597 228.38 60.7197 228.38 60.7197L201.37 60.8297H201.34L223.67 61.7797C226.97 61.9797 226.37 63.2197 225.99 64.8197C225.55 66.6697 224.81 68.8397 223.73 70.6497Z" fill="#F3FEFF"/>
<g style="mix-blend-mode:screen" opacity="0.5">
<path d="M18.1992 0.800041L66.4692 0.920036L64.8492 5.85004C64.8492 3.32004 63.6493 2.04004 60.7393 2.01004L18.1992 0.790039V0.800041Z" fill="#F3FAFF"/>
</g>
<g style="mix-blend-mode:screen" opacity="0.5">
<path d="M18.1992 30.8799H56.7393L54.9692 36.3399L55.1592 34.5299C55.2592 32.8199 54.6492 31.9199 51.5292 31.7699L18.2092 30.8799H18.1992Z" fill="#F3FAFF"/>
</g>
<g style="mix-blend-mode:screen" opacity="0.5">
<path d="M25.1602 60.7395L47.0101 60.8295L45.3502 65.9195L45.2501 63.5495C45.1901 62.2295 44.8302 61.7795 43.0302 61.6595L25.1702 60.7295L25.1602 60.7395Z" fill="#F3FAFF"/>
</g>
<g style="mix-blend-mode:multiply" opacity="0.6">
<path d="M112.827 75.6801L118.917 65.1301V60.0801L106.727 65.1301L100.637 54.5801L94.5471 65.1301L82.3672 60.0801V65.1301L88.4572 75.6801L82.3672 81.1901V86.2401H94.5471L100.637 96.7901L106.727 86.2401H118.917V81.1901L112.827 75.6801Z" fill="#2753A0"/>
</g>
<path d="M112.827 70.6293L118.917 60.0793V56.1393L106.727 60.0793L100.637 49.5293L94.5471 60.0793L82.3672 56.1393V60.0793L88.4572 70.6293L82.3672 77.2393V81.1893H94.5471L100.637 91.7393L106.727 81.1893H118.917V77.2393L112.827 70.6293Z" fill="#9B1B2E"/>
<path d="M112.827 66.6901L118.917 56.1401H106.727L100.637 45.5801L94.5471 56.1401H82.3672L88.4572 66.6901L82.3672 77.2401H94.5471L100.637 87.7901L106.727 77.2401H118.917L112.827 66.6901Z" fill="url(#paint17_radial_1044_26359)"/>
<path style="mix-blend-mode:screen" d="M112.827 66.6901L118.917 56.1401H106.727L100.637 45.5801L94.5471 56.1401H82.3672L88.4572 66.6901L82.3672 77.2401H94.5471L100.637 87.7901L106.727 77.2401H118.917L112.827 66.6901Z" fill="url(#paint18_linear_1044_26359)"/>
<path d="M118.91 77.2402H106.73V81.1902H118.91V77.2402Z" fill="#661625"/>
<path d="M94.5471 81.1902L100.637 91.7402V87.7902L94.5471 77.2402H82.3672V81.1902H94.5471Z" fill="#661625"/>
<path d="M82.3672 56.1396L88.4572 66.6897L87.3171 68.6597L82.3672 60.0797V56.1396Z" fill="#661625"/>
<g style="mix-blend-mode:multiply" opacity="0.35">
<path d="M82.3672 56.1396L90.6871 66.6897L82.3672 77.2397L88.4572 66.6897L82.3672 56.1396Z" fill="#9E2C19"/>
</g>
<g style="mix-blend-mode:screen" opacity="0.8">
<path d="M100.641 45.5801L106.521 57.1701L118.921 56.1401H106.731L100.641 45.5801Z" fill="#F3FAFF"/>
</g>
<g style="mix-blend-mode:screen" opacity="0.5">
<path d="M82.3672 77.2399L95.6971 76.0898L100.637 87.7898L94.5471 77.2399H82.3672Z" fill="#F3FAFF"/>
</g>
<g style="mix-blend-mode:multiply" opacity="0.35">
<path d="M100.641 87.7898L105.951 74.7998L118.921 77.2398H106.731L100.641 87.7898Z" fill="#9E2C19"/>
</g>
<g style="mix-blend-mode:screen" opacity="0.5">
<path d="M112.619 66.2598C111.119 68.8498 106.699 69.0998 102.729 66.8098C98.7688 64.5198 96.7687 60.5698 98.2587 57.9698C99.7587 55.3798 104.179 55.1298 108.149 57.4198C112.109 59.7098 114.109 63.6598 112.619 66.2598Z" fill="#FCE265"/>
</g>
<g style="mix-blend-mode:screen" opacity="0.5">
<path d="M98.2891 67.8401C97.8091 68.6701 96.2291 68.6601 94.7691 67.8101C93.2991 66.9601 92.4992 65.6001 92.9792 64.7801C93.4592 63.9501 95.0391 63.9601 96.4991 64.8101C97.9591 65.6601 98.7691 67.0201 98.2891 67.8501V67.8401Z" fill="#FCE265"/>
</g>
<g style="mix-blend-mode:multiply" opacity="0.6">
<path d="M159.397 75.6801L165.488 65.1301V60.0801L153.307 65.1301L147.208 54.5801L141.118 65.1301L128.938 60.0801V65.1301L135.027 75.6801L128.938 81.1901V86.2401H141.118L147.208 96.7901L153.307 86.2401H165.488V81.1901L159.397 75.6801Z" fill="#2753A0"/>
</g>
<path d="M159.397 70.6293L165.488 60.0793V56.1393L153.307 60.0793L147.208 49.5293L141.118 60.0793L128.938 56.1393V60.0793L135.027 70.6293L128.938 77.2393V81.1893H141.118L147.208 91.7393L153.307 81.1893H165.488V77.2393L159.397 70.6293Z" fill="#9B1B2E"/>
<path d="M159.397 66.6901L165.488 56.1401H153.307L147.208 45.5801L141.118 56.1401H128.938L135.027 66.6901L128.938 77.2401H141.118L147.208 87.7901L153.307 77.2401H165.488L159.397 66.6901Z" fill="url(#paint19_radial_1044_26359)"/>
<path style="mix-blend-mode:screen" d="M137.257 56.1396H128.938L135.027 66.6897L128.938 77.2397H141.118L147.208 87.7896L153.297 77.2397H155.068C150.088 68.9597 144.027 61.9296 137.247 56.1396H137.257Z" fill="url(#paint20_linear_1044_26359)"/>
<path style="mix-blend-mode:screen" d="M153.31 56.1398L147.22 45.5898L143.27 52.4298C149.39 57.2898 155.16 62.6598 160.44 68.4998L159.4 66.6998L165.49 56.1498H153.31V56.1398Z" fill="url(#paint21_linear_1044_26359)"/>
<path d="M165.489 77.2402H153.309V81.1902H165.489V77.2402Z" fill="#661625"/>
<path d="M141.118 81.1902L147.208 91.7402V87.7902L141.118 77.2402H128.938V81.1902H141.118Z" fill="#661625"/>
<path d="M128.938 56.1396L135.027 66.6897L133.887 68.6597L128.938 60.0797V56.1396Z" fill="#661625"/>
<g style="mix-blend-mode:multiply" opacity="0.35">
<path d="M128.938 56.1396L137.267 66.6897L128.938 77.2397L135.027 66.6897L128.938 56.1396Z" fill="#9E2C19"/>
</g>
<g style="mix-blend-mode:screen" opacity="0.8">
<path d="M147.207 45.5801L153.087 57.1701L165.487 56.1401H153.307L147.207 45.5801Z" fill="#F3FAFF"/>
</g>
<g style="mix-blend-mode:screen" opacity="0.5">
<path d="M128.938 77.2399L142.267 76.0898L147.208 87.7898L141.118 77.2399H128.938Z" fill="#F3FAFF"/>
</g>
<g style="mix-blend-mode:multiply" opacity="0.35">
<path d="M147.207 87.7898L152.517 74.7998L165.487 77.2398H153.307L147.207 87.7898Z" fill="#9E2C19"/>
</g>
<g style="mix-blend-mode:screen" opacity="0.5">
<path d="M148.009 76.2694C146.989 78.0294 143.989 78.1994 141.299 76.6394C138.609 75.0894 137.249 72.3994 138.269 70.6394C139.289 68.8794 142.289 68.7094 144.979 70.2694C147.669 71.8194 149.029 74.5094 148.009 76.2694Z" fill="#FCE265"/>
</g>
<g style="mix-blend-mode:screen">
<path d="M188.349 20.6301C193.479 20.6001 195.569 20.5801 200.239 20.5701C207.049 16.3001 211.579 9.97011 212.219 2.59011C212.269 2.01011 212.289 1.44012 212.289 0.870117L181.859 0.930115L188.349 20.6401V20.6301Z" fill="white"/>
</g>
<path style="mix-blend-mode:screen" d="M5.80859 30.7598C5.80859 30.7598 6.08857 33.9798 8.90857 37.8098C13.0986 35.4398 17.7685 33.0198 22.7585 30.7998L5.80859 30.7598Z" fill="url(#paint22_linear_1044_26359)"/>
<defs>
<radialGradient id="paint0_radial_1044_26359" cx="0" cy="0" r="1" gradientUnits="userSpaceOnUse" gradientTransform="translate(167.24 5.37977) scale(127.91 127.91)">
<stop offset="0.01" stop-color="#E85621"/>
<stop offset="1" stop-color="#E33A0B"/>
</radialGradient>
<radialGradient id="paint1_radial_1044_26359" cx="0" cy="0" r="1" gradientUnits="userSpaceOnUse" gradientTransform="translate(190.509 -12.0302) scale(176.96 176.96)">
<stop offset="0.01" stop-color="#E85621"/>
<stop offset="1" stop-color="#E33A0B"/>
</radialGradient>
<linearGradient id="paint2_linear_1044_26359" x1="198.149" y1="-24.6202" x2="117.939" y2="74.3197" gradientUnits="userSpaceOnUse">
<stop stop-color="#FFA369"/>
<stop offset="0.13" stop-color="#FD9D65"/>
<stop offset="0.29" stop-color="#F98E5C"/>
<stop offset="0.47" stop-color="#F3764C"/>
<stop offset="0.65" stop-color="#EA5335"/>
<stop offset="0.85" stop-color="#DE2819"/>
<stop offset="1" stop-color="#D40000"/>
</linearGradient>
<linearGradient id="paint3_linear_1044_26359" x1="70.4195" y1="135.63" x2="140.54" y2="47.7295" gradientUnits="userSpaceOnUse">
<stop stop-color="#D40000"/>
<stop offset="1" stop-color="#FFAF47"/>
</linearGradient>
<linearGradient id="paint4_linear_1044_26359" x1="124.159" y1="77.2297" x2="124.159" y2="103.95" gradientUnits="userSpaceOnUse">
<stop offset="0.63" stop-color="#F7814A"/>
<stop offset="1" stop-color="#F7E399"/>
</linearGradient>
<radialGradient id="paint5_radial_1044_26359" cx="0" cy="0" r="1" gradientUnits="userSpaceOnUse" gradientTransform="translate(88.4788 -19.7502) scale(141.97 141.97)">
<stop offset="0.01" stop-color="#E85621"/>
<stop offset="1" stop-color="#E33A0B"/>
</radialGradient>
<radialGradient id="paint6_radial_1044_26359" cx="0" cy="0" r="1" gradientUnits="userSpaceOnUse" gradientTransform="translate(88.477 -19.75) scale(141.97 141.97)">
<stop offset="0.01" stop-color="#E85621"/>
<stop offset="1" stop-color="#E33A0B"/>
</radialGradient>
<radialGradient id="paint7_radial_1044_26359" cx="0" cy="0" r="1" gradientUnits="userSpaceOnUse" gradientTransform="translate(88.4769 -19.7503) scale(141.97 141.97)">
<stop offset="0.01" stop-color="#E85621"/>
<stop offset="1" stop-color="#E33A0B"/>
</radialGradient>
<radialGradient id="paint8_radial_1044_26359" cx="0" cy="0" r="1" gradientUnits="userSpaceOnUse" gradientTransform="translate(174.609 3.29981) scale(146.71 146.71)">
<stop offset="0.01" stop-color="#E85621"/>
<stop offset="1" stop-color="#E33A0B"/>
</radialGradient>
<radialGradient id="paint9_radial_1044_26359" cx="0" cy="0" r="1" gradientUnits="userSpaceOnUse" gradientTransform="translate(174.61 3.29999) scale(146.71 146.71)">
<stop offset="0.01" stop-color="#E85621"/>
<stop offset="1" stop-color="#E33A0B"/>
</radialGradient>
<radialGradient id="paint10_radial_1044_26359" cx="0" cy="0" r="1" gradientUnits="userSpaceOnUse" gradientTransform="translate(174.609 3.29974) scale(146.71 146.71)">
<stop offset="0.01" stop-color="#E85621"/>
<stop offset="1" stop-color="#E33A0B"/>
</radialGradient>
<linearGradient id="paint11_linear_1044_26359" x1="223.039" y1="-8.99019" x2="145.469" y2="96.4298" gradientUnits="userSpaceOnUse">
<stop stop-color="#FFA369"/>
<stop offset="0.13" stop-color="#FD9D65"/>
<stop offset="0.29" stop-color="#F98E5C"/>
<stop offset="0.47" stop-color="#F3764C"/>
<stop offset="0.65" stop-color="#EA5335"/>
<stop offset="0.85" stop-color="#DE2819"/>
<stop offset="1" stop-color="#D40000"/>
</linearGradient>
<linearGradient id="paint12_linear_1044_26359" x1="238.84" y1="2.62999" x2="161.28" y2="108.06" gradientUnits="userSpaceOnUse">
<stop stop-color="#FFA369"/>
<stop offset="0.13" stop-color="#FD9D65"/>
<stop offset="0.29" stop-color="#F98E5C"/>
<stop offset="0.47" stop-color="#F3764C"/>
<stop offset="0.65" stop-color="#EA5335"/>
<stop offset="0.85" stop-color="#DE2819"/>
<stop offset="1" stop-color="#D40000"/>
</linearGradient>
<linearGradient id="paint13_linear_1044_26359" x1="251.909" y1="12.2497" x2="174.339" y2="117.67" gradientUnits="userSpaceOnUse">
<stop stop-color="#FFA369"/>
<stop offset="0.13" stop-color="#FD9D65"/>
<stop offset="0.29" stop-color="#F98E5C"/>
<stop offset="0.47" stop-color="#F3764C"/>
<stop offset="0.65" stop-color="#EA5335"/>
<stop offset="0.85" stop-color="#DE2819"/>
<stop offset="1" stop-color="#D40000"/>
</linearGradient>
<linearGradient id="paint14_linear_1044_26359" x1="107.439" y1="-94.0502" x2="29.8688" y2="11.3698" gradientUnits="userSpaceOnUse">
<stop stop-color="#FFA369"/>
<stop offset="0.13" stop-color="#FD9D65"/>
<stop offset="0.29" stop-color="#F98E5C"/>
<stop offset="0.47" stop-color="#F3764C"/>
<stop offset="0.65" stop-color="#EA5335"/>
<stop offset="0.85" stop-color="#DE2819"/>
<stop offset="1" stop-color="#D40000"/>
</linearGradient>
<linearGradient id="paint15_linear_1044_26359" x1="10.4771" y1="100.44" x2="70.6771" y2="9.82986" gradientUnits="userSpaceOnUse">
<stop stop-color="#D40000"/>
<stop offset="1" stop-color="#FFAF47"/>
</linearGradient>
<linearGradient id="paint16_linear_1044_26359" x1="9.01008" y1="99.4595" x2="69.21" y2="8.84932" gradientUnits="userSpaceOnUse">
<stop stop-color="#D40000"/>
<stop offset="1" stop-color="#FFAF47"/>
</linearGradient>
<radialGradient id="paint17_radial_1044_26359" cx="0" cy="0" r="1" gradientUnits="userSpaceOnUse" gradientTransform="translate(164.637 12.2701) scale(150.4 150.4)">
<stop offset="0.01" stop-color="#E85621"/>
<stop offset="1" stop-color="#E33A0B"/>
</radialGradient>
<linearGradient id="paint18_linear_1044_26359" x1="57.2672" y1="125.53" x2="144.357" y2="7.38023" gradientUnits="userSpaceOnUse">
<stop stop-color="#D40000"/>
<stop offset="1" stop-color="#FFAF47"/>
</linearGradient>
<radialGradient id="paint19_radial_1044_26359" cx="0" cy="0" r="1" gradientUnits="userSpaceOnUse" gradientTransform="translate(164.638 12.2701) scale(150.4 150.4)">
<stop offset="0.01" stop-color="#E85621"/>
<stop offset="1" stop-color="#E33A0B"/>
</radialGradient>
<linearGradient id="paint20_linear_1044_26359" x1="84.0675" y1="145.29" x2="171.157" y2="27.1396" gradientUnits="userSpaceOnUse">
<stop stop-color="#D40000"/>
<stop offset="1" stop-color="#FFAF47"/>
</linearGradient>
<linearGradient id="paint21_linear_1044_26359" x1="192.27" y1="13.9098" x2="129.19" y2="84.6801" gradientUnits="userSpaceOnUse">
<stop stop-color="#FFA369"/>
<stop offset="0.13" stop-color="#FD9D65"/>
<stop offset="0.29" stop-color="#F98E5C"/>
<stop offset="0.47" stop-color="#F3764C"/>
<stop offset="0.65" stop-color="#EA5335"/>
<stop offset="0.85" stop-color="#DE2819"/>
<stop offset="1" stop-color="#D40000"/>
</linearGradient>
<linearGradient id="paint22_linear_1044_26359" x1="106.588" y1="-94.6701" x2="29.0183" y2="10.7496" gradientUnits="userSpaceOnUse">
<stop stop-color="#FFA369"/>
<stop offset="0.13" stop-color="#FD9D65"/>
<stop offset="0.29" stop-color="#F98E5C"/>
<stop offset="0.47" stop-color="#F3764C"/>
<stop offset="0.65" stop-color="#EA5335"/>
<stop offset="0.85" stop-color="#DE2819"/>
<stop offset="1" stop-color="#D40000"/>
</linearGradient>
</defs>
</svg>
