<svg width="162" height="154" viewBox="0 0 162 154" fill="none" xmlns="http://www.w3.org/2000/svg">
<path d="M80.773 148.9L156.993 93.5202L127.883 3.91016H33.663L4.54297 93.5202L80.773 148.9Z" fill="#54101A"/>
<path d="M130.603 0.160156H30.9328L0.132812 94.9501L80.7628 153.53L161.393 94.9501L130.593 0.160156H130.603ZM16.0828 89.7702L40.7928 13.7302H120.753L145.463 89.7702L80.7828 136.77L16.0928 89.7702H16.0828Z" fill="url(#paint0_radial_1044_26544)"/>
<g style="mix-blend-mode:multiply" opacity="0.3">
<path d="M40.793 13.7305L80.773 136.77L120.743 13.7305H40.793Z" fill="#8C1919"/>
</g>
<g style="mix-blend-mode:multiply" opacity="0.6">
<path d="M80.7708 90.9698L38.8008 70.3398V75.7999L80.7708 106.29L122.731 75.7999V70.3398L80.7708 90.9698Z" fill="#892334"/>
</g>
<path d="M130.603 0.160156H30.9325L23.8125 22.0901C28.2425 22.2901 32.8325 22.8502 37.5325 23.7502L40.7925 13.7302H120.753L145.462 89.7702L136.082 96.5901C138.192 100.69 140.063 104.93 141.663 109.3L161.402 94.9602L130.603 0.170151V0.160156Z" fill="url(#paint1_radial_1044_26544)"/>
<path style="mix-blend-mode:screen" d="M130.603 0.160156H30.9325L23.8125 22.0901C28.2425 22.2901 32.8325 22.8502 37.5325 23.7502L40.7925 13.7302H120.753L145.462 89.7702L136.082 96.5901C138.192 100.69 140.063 104.93 141.663 109.3L161.402 94.9602L130.603 0.170151V0.160156Z" fill="url(#paint2_linear_1044_26544)"/>
<path style="mix-blend-mode:screen" d="M125.131 121.3C124.661 116.02 123.871 110.99 122.811 106.22L80.7611 136.77L16.0711 89.7699L33.8111 35.1699C28.7711 35.2899 23.8111 35.8599 19.0011 36.8399L0.121094 94.9499L80.7511 153.53L125.121 121.3H125.131Z" fill="url(#paint3_linear_1044_26544)"/>
<path d="M16.082 89.7705L22.472 88.3305L44.742 19.8105H116.792L139.062 88.3305L145.452 89.7705L120.742 13.7305H40.792L16.082 89.7705Z" fill="#9B1B2E"/>
<g style="mix-blend-mode:multiply" opacity="0.2">
<path d="M22.4709 88.3298L34.9309 56.3598C42.3109 37.4298 60.5409 29.2198 80.8609 29.2198C101.261 29.2198 119.561 37.5398 126.871 56.5898L139.061 88.3298L116.791 19.7998H44.7309L22.4609 88.3298H22.4709Z" fill="#892334"/>
</g>
<path d="M16.082 89.7701L22.472 88.3301L80.772 130.69L139.062 88.3301L145.452 89.7701L80.772 136.77L16.082 89.7701Z" fill="url(#paint4_linear_1044_26544)"/>
<path d="M38.8008 63.0498V70.3398L80.7708 100.83L122.731 70.3398V63.0598L80.7708 93.5398L38.8008 63.0498Z" fill="#9B1B2E"/>
<g style="mix-blend-mode:multiply" opacity="0.6">
<path d="M22.4692 88.3298L45.3292 29.6698C46.4292 26.8398 49.1592 24.9698 52.1992 24.9698H109.649C112.699 24.9698 115.439 26.8498 116.529 29.6998L139.049 88.3298L116.779 19.7998H44.7192L22.4492 88.3298H22.4692Z" fill="#892334"/>
</g>
<path d="M40.793 13.7305L44.743 19.8105H116.793L120.743 13.7305H40.793Z" fill="#661625"/>
<path d="M80.7708 93.5398V100.83L38.8008 70.3398V63.0498L80.7708 93.5398Z" fill="#661625"/>
<path d="M80.7708 78.22L42.8108 50.71L38.8008 63.05L80.7708 93.5399L122.731 63.06L118.721 50.71L80.7708 78.22Z" fill="url(#paint5_radial_1044_26544)"/>
<path style="mix-blend-mode:screen" d="M80.7703 93.5399L108.84 73.1499C106.48 69.6699 103.91 66.4299 101.18 63.4299L80.7803 78.22L42.8303 50.71L38.8203 63.05L80.7803 93.5399H80.7703Z" fill="url(#paint6_linear_1044_26544)"/>
<path style="mix-blend-mode:screen" d="M106.883 59.2997C109.983 62.0897 112.963 65.0197 115.823 68.0797L122.733 63.0597L118.723 50.7197L106.883 59.2997Z" fill="url(#paint7_linear_1044_26544)"/>
<g style="mix-blend-mode:multiply" opacity="0.35">
<path d="M42.8125 50.71L41.2825 59.09C40.9825 60.75 41.6125 62.45 42.9425 63.5L80.7725 93.5399L38.8125 63.05L42.8225 50.71H42.8125Z" fill="#9B1B2E"/>
</g>
<g style="mix-blend-mode:multiply" opacity="0.35">
<path d="M11.1806 60.96L3.46062 89.88C2.86062 92.37 4.04062 95.68 6.10062 97.22L80.7706 153.54L0.140625 94.96L11.1906 60.97L11.1806 60.96Z" fill="#9B1B2E"/>
</g>
<g style="mix-blend-mode:multiply" opacity="0.6">
<path d="M22.4727 88.3301L78.0827 125.79C79.5527 126.78 81.9727 126.78 83.4427 125.79L139.053 88.3301L80.7626 130.68L22.4727 88.3301Z" fill="#892334"/>
</g>
<g style="mix-blend-mode:multiply" opacity="0.35">
<path d="M80.7695 153.53L152.57 98.0702C157.59 94.3502 158.68 93.5402 156.42 86.4102L141.44 33.4902L161.41 94.9502L80.7795 153.53H80.7695Z" fill="#9B1B2E"/>
</g>
<g style="mix-blend-mode:multiply" opacity="0.35">
<path d="M12.9922 55.3701L29.8322 7.08015C31.5722 2.18015 32.8422 0.89015 38.0322 0.70015L80.7622 0.160156H30.9322L12.9922 55.3701Z" fill="#9B1B2E"/>
</g>
<path d="M45.1328 110.881L80.7728 136.771L128.883 101.811L80.7728 138.961L45.1328 110.881Z" fill="#FFF5CC"/>
<path d="M52.5195 57.7505L80.7695 78.2205L113.18 54.7305L80.7695 80.7305L52.5195 57.7505Z" fill="#FFF5CC"/>
<path d="M78.0625 0.160156H130.603L141.432 33.4902L128.592 2.01015L78.0625 0.160156Z" fill="#FFF5CC"/>
<g style="mix-blend-mode:screen">
<path d="M98.973 0.160156C98.533 4.48016 100.423 9.31015 104.063 13.7202H120.753L124.883 26.4202C130.113 27.7002 135.113 27.7402 139.213 26.6202L130.613 0.160156H98.983H98.973Z" fill="#FFF2BB"/>
</g>
<g style="mix-blend-mode:screen">
<path d="M94.9599 7.7001C91.4799 5.1701 87.2799 5.0101 85.5799 7.3401C84.3699 9.0101 84.7699 11.5101 86.3799 13.7201H98.8699C98.6799 11.6801 97.2699 9.3801 94.9499 7.7001H94.9599Z" fill="#FFF2BB"/>
</g>
<g style="mix-blend-mode:screen">
<path d="M40.8007 107.73C39.5407 110.98 41.8207 115.82 46.4107 119.15C51.0007 122.48 56.3107 123.16 59.0007 120.96L40.7907 107.73H40.8007Z" fill="#FFF2BB"/>
</g>
<g style="mix-blend-mode:screen">
<path d="M59.1315 129.82C58.3615 131 56.2315 130.98 54.3815 129.77C52.5215 128.56 51.6415 126.62 52.4115 125.44C53.1815 124.26 55.3115 124.28 57.1615 125.49C59.0215 126.7 59.9015 128.64 59.1315 129.82Z" fill="#FFF2BB"/>
</g>
<g style="mix-blend-mode:multiply" opacity="0.35">
<path d="M104.699 76.16L118.399 64.38C119.859 63.13 120.549 61.2 120.219 59.3L118.729 50.71L122.739 63.05L104.709 76.1499L104.699 76.16Z" fill="#9B1B2E"/>
</g>
<defs>
<radialGradient id="paint0_radial_1044_26544" cx="0" cy="0" r="1" gradientUnits="userSpaceOnUse" gradientTransform="translate(123.853 5.28016) scale(127.91 127.91)">
<stop offset="0.01" stop-color="#E85621"/>
<stop offset="1" stop-color="#E33A0B"/>
</radialGradient>
<radialGradient id="paint1_radial_1044_26544" cx="0" cy="0" r="1" gradientUnits="userSpaceOnUse" gradientTransform="translate(147.122 -12.1298) scale(176.96 176.96)">
<stop offset="0.01" stop-color="#E85621"/>
<stop offset="1" stop-color="#E33A0B"/>
</radialGradient>
<linearGradient id="paint2_linear_1044_26544" x1="154.762" y1="-24.7198" x2="74.5525" y2="74.2202" gradientUnits="userSpaceOnUse">
<stop stop-color="#FFA369"/>
<stop offset="0.13" stop-color="#FD9D65"/>
<stop offset="0.29" stop-color="#F98E5C"/>
<stop offset="0.47" stop-color="#F3764C"/>
<stop offset="0.65" stop-color="#EA5335"/>
<stop offset="0.85" stop-color="#DE2819"/>
<stop offset="1" stop-color="#D40000"/>
</linearGradient>
<linearGradient id="paint3_linear_1044_26544" x1="27.0311" y1="135.53" x2="97.1511" y2="47.6399" gradientUnits="userSpaceOnUse">
<stop stop-color="#D40000"/>
<stop offset="1" stop-color="#FFAF47"/>
</linearGradient>
<linearGradient id="paint4_linear_1044_26544" x1="80.772" y1="77.1301" x2="80.772" y2="103.85" gradientUnits="userSpaceOnUse">
<stop offset="0.63" stop-color="#F7814A"/>
<stop offset="1" stop-color="#F7E399"/>
</linearGradient>
<radialGradient id="paint5_radial_1044_26544" cx="0" cy="0" r="1" gradientUnits="userSpaceOnUse" gradientTransform="translate(110.881 41.07) scale(74.08 74.08)">
<stop offset="0.01" stop-color="#E85621"/>
<stop offset="1" stop-color="#E33A0B"/>
</radialGradient>
<linearGradient id="paint6_linear_1044_26544" x1="21.2203" y1="130.38" x2="91.0603" y2="42.8299" gradientUnits="userSpaceOnUse">
<stop stop-color="#D40000"/>
<stop offset="1" stop-color="#FFAF47"/>
</linearGradient>
<linearGradient id="paint7_linear_1044_26544" x1="162.073" y1="2.86972" x2="95.8328" y2="84.5797" gradientUnits="userSpaceOnUse">
<stop stop-color="#FFA369"/>
<stop offset="0.13" stop-color="#FD9D65"/>
<stop offset="0.29" stop-color="#F98E5C"/>
<stop offset="0.47" stop-color="#F3764C"/>
<stop offset="0.65" stop-color="#EA5335"/>
<stop offset="0.85" stop-color="#DE2819"/>
<stop offset="1" stop-color="#D40000"/>
</linearGradient>
</defs>
</svg>
