<svg width="248" height="170" viewBox="0 0 248 170" fill="none" xmlns="http://www.w3.org/2000/svg">
<path d="M124.3 148.78L200.52 93.4L171.41 3.79004H77.1903L48.0703 93.4L124.3 148.78Z" fill="#54101A"/>
<g style="mix-blend-mode:multiply" opacity="0.3">
<path d="M84.3594 13.6104L124.339 136.65L164.309 13.6104H84.3594Z" fill="#8C1919"/>
</g>
<path d="M174.13 0.0400391H74.4602L43.6602 94.83L124.29 153.41L204.92 94.83L174.12 0.0400391H174.13ZM59.6102 89.65L84.3202 13.61H164.28L188.99 89.65L124.31 136.65L59.6202 89.65H59.6102Z" fill="url(#paint0_radial_1044_26180)"/>
<path d="M174.13 0.0400391H74.4598L67.3398 21.97C71.7698 22.17 76.3598 22.73 81.0598 23.63L84.3198 13.61H164.28L188.99 89.65L179.61 96.47C181.72 100.57 183.59 104.81 185.19 109.18L204.93 94.84L174.13 0.0500183V0.0400391Z" fill="url(#paint1_radial_1044_26180)"/>
<path style="mix-blend-mode:screen" d="M174.13 0.0400391H74.4598L67.3398 21.97C71.7698 22.17 76.3598 22.73 81.0598 23.63L84.3198 13.61H164.28L188.99 89.65L179.61 96.47C181.72 100.57 183.59 104.81 185.19 109.18L204.93 94.84L174.13 0.0500183V0.0400391Z" fill="url(#paint2_linear_1044_26180)"/>
<path style="mix-blend-mode:screen" d="M168.658 121.18C168.188 115.9 167.398 110.87 166.338 106.1L124.288 136.65L59.5984 89.6498L77.3384 35.0498C72.2984 35.1698 67.3384 35.7398 62.5284 36.7198L43.6484 94.8298L124.278 153.41L168.648 121.18H168.658Z" fill="url(#paint3_linear_1044_26180)"/>
<path d="M59.6094 89.6504L65.9994 88.2204L88.2694 19.6904H160.319L182.589 88.2204L188.979 89.6504L164.269 13.6104H84.3194L59.6094 89.6504Z" fill="#9E2C19"/>
<g style="mix-blend-mode:multiply" opacity="0.2">
<path d="M65.9983 88.2204L78.4583 56.2504C85.8383 37.3204 104.068 29.1104 124.388 29.1104C144.788 29.1104 163.088 37.4304 170.398 56.4804L182.588 88.2204L160.318 19.6904H88.2583L65.9883 88.2204H65.9983Z" fill="#892334"/>
</g>
<path d="M59.6094 89.6497L65.9994 88.2197L124.299 130.57L182.589 88.2197L188.979 89.6497L124.299 136.65L59.6094 89.6497Z" fill="url(#paint4_linear_1044_26180)"/>
<g style="mix-blend-mode:multiply" opacity="0.6">
<path d="M66.0005 88.2204L88.8605 29.5604C89.9605 26.7304 92.6905 24.8604 95.7305 24.8604H153.18C156.23 24.8604 158.97 26.7404 160.06 29.5904L182.581 88.2204L160.31 19.6904H88.2505L65.9805 88.2204H66.0005Z" fill="#892334"/>
</g>
<path d="M84.3203 13.6104L88.2703 19.6904H160.32L164.27 13.6104H84.3203Z" fill="#681D15"/>
<g style="mix-blend-mode:multiply" opacity="0.35">
<path d="M54.708 60.8398L46.988 89.7599C46.388 92.2499 47.568 95.5599 49.628 97.0999L124.298 153.42L43.668 94.8398L54.718 60.8499L54.708 60.8398Z" fill="#9E2C19"/>
</g>
<g style="mix-blend-mode:multiply" opacity="0.6">
<path d="M66 88.2197L121.61 125.68C123.08 126.67 125.5 126.67 126.97 125.68L182.58 88.2197L124.29 130.57L66 88.2197Z" fill="#892334"/>
</g>
<g style="mix-blend-mode:multiply" opacity="0.35">
<path d="M124.301 153.42L196.101 97.9599C201.121 94.2399 202.211 93.4299 199.951 86.2999L184.971 33.3799L204.941 94.8399L124.311 153.42H124.301Z" fill="#9E2C19"/>
</g>
<path d="M88.6602 110.76L124.3 136.65L172.41 101.69L124.3 138.85L88.6602 110.76Z" fill="#FFF5CC"/>
<path d="M121.59 0.0400391H174.13L184.96 33.38L172.12 1.89005L121.59 0.0400391Z" fill="#FFF5CC"/>
<g style="mix-blend-mode:screen">
<path d="M142.5 0.0400391C142.06 4.36004 143.95 9.19004 147.58 13.6H164.27L168.4 26.3C173.63 27.58 178.63 27.62 182.73 26.5L174.13 0.0400391H142.5Z" fill="#FFF2BB"/>
</g>
<g style="mix-blend-mode:screen">
<path d="M84.328 107.61C83.068 110.86 85.348 115.7 89.938 119.03C94.528 122.36 99.838 123.04 102.528 120.84L84.318 107.61H84.328Z" fill="#FFF2BB"/>
</g>
<g style="mix-blend-mode:screen">
<path d="M102.659 129.7C101.889 130.88 99.7588 130.86 97.9088 129.65C96.0488 128.44 95.1688 126.5 95.9388 125.32C96.7088 124.14 98.8388 124.16 100.689 125.37C102.549 126.58 103.429 128.52 102.659 129.7Z" fill="#FFF2BB"/>
</g>
<path d="M66.6094 0.709839L63.5594 25.9398C56.3394 25.8998 50.3094 25.8699 39.4594 25.8799C1.05941 25.9299 0.859375 0.589844 0.859375 0.589844L66.6094 0.709839Z" fill="#681D15"/>
<path d="M66.6094 0.709839L60.1194 20.4199C52.8994 20.3799 51.7094 20.3498 40.8694 20.3598C2.46938 20.4098 0.859375 0.589844 0.859375 0.589844L66.6094 0.709839Z" fill="url(#paint5_radial_1044_26180)"/>
<path d="M56.8792 30.6603L53.8792 55.8903C46.6592 55.8503 55.4392 55.8903 44.5892 55.8903C6.18923 55.9403 5.94922 30.5303 5.94922 30.5303L56.8792 30.6503V30.6603Z" fill="#681D15"/>
<path d="M56.8775 30.6603L50.4575 50.4103C43.2375 50.3703 56.8775 50.3403 46.0275 50.3503C7.62746 50.4003 5.9375 30.5303 5.9375 30.5303L56.8675 30.6503L56.8775 30.6603Z" fill="url(#paint6_radial_1044_26180)"/>
<path d="M47.1477 60.61L20.0977 60.5C20.0977 60.5 24.3477 79.5 44.1377 85.85L47.1577 60.61H47.1477Z" fill="#681D15"/>
<path d="M47.1477 60.61L20.0977 60.5C20.0977 60.5 20.9377 74.01 40.7277 80.37L47.1577 60.61H47.1477Z" fill="url(#paint7_radial_1044_26180)"/>
<path d="M66.6111 0.709961L69.8511 6.96997L63.5611 25.94L60.1211 20.41L66.6111 0.709961Z" fill="#9E2C19"/>
<path d="M56.8809 30.6602L60.1209 36.8601L53.8709 55.9001L50.4609 50.4202L56.8809 30.6602Z" fill="#9E2C19"/>
<path d="M47.1377 60.6201L50.3777 66.8201L40.9877 95.4301L35.0977 97.2401L47.1377 60.6201Z" fill="#9E2C19"/>
<path d="M182 0.709839L185.05 25.9398C192.27 25.8998 198.3 25.8699 209.15 25.8799C247.55 25.9299 247.75 0.589844 247.75 0.589844L182 0.709839Z" fill="#681D15"/>
<path d="M182 0.709839L188.49 20.4199C195.71 20.3799 196.9 20.3498 207.74 20.3598C246.14 20.4098 247.75 0.589844 247.75 0.589844L182 0.709839Z" fill="url(#paint8_radial_1044_26180)"/>
<path d="M191.73 30.6603L194.73 55.8903C201.95 55.8503 193.171 55.8903 204.021 55.8903C242.421 55.9403 242.66 30.5303 242.66 30.5303L191.73 30.6503V30.6603Z" fill="#681D15"/>
<path d="M191.73 30.6603L198.151 50.4103C205.371 50.3703 191.731 50.3403 202.581 50.3503C240.981 50.4003 242.67 30.5303 242.67 30.5303L191.74 30.6503L191.73 30.6603Z" fill="url(#paint9_radial_1044_26180)"/>
<path d="M201.459 60.61L228.509 60.5C228.509 60.5 224.259 79.5 204.469 85.85L201.449 60.61H201.459Z" fill="#681D15"/>
<path d="M201.459 60.61L228.509 60.5C228.509 60.5 227.669 74.01 207.879 80.37L201.449 60.61H201.459Z" fill="url(#paint10_radial_1044_26180)"/>
<path style="mix-blend-mode:screen" d="M182 0.709839L188.49 20.4199C195.71 20.3799 196.9 20.3498 207.74 20.3598C246.14 20.4098 247.75 0.589844 247.75 0.589844L182 0.709839Z" fill="url(#paint11_linear_1044_26180)"/>
<path style="mix-blend-mode:screen" d="M191.73 30.6603L198.151 50.4103C205.371 50.3703 191.731 50.3403 202.581 50.3503C240.981 50.4003 242.67 30.5303 242.67 30.5303L191.74 30.6503L191.73 30.6603Z" fill="url(#paint12_linear_1044_26180)"/>
<path d="M181.998 0.709961L178.758 6.96997L185.048 25.94L188.488 20.41L181.998 0.709961Z" fill="#9E2C19"/>
<path d="M191.728 30.6602L188.488 36.8601L194.738 55.9001L198.148 50.4202L191.728 30.6602Z" fill="#9E2C19"/>
<path d="M201.47 60.6201L198.23 66.8201L207.66 95.5601L213.5 97.2401L201.47 60.6201Z" fill="#9E2C19"/>
<path style="mix-blend-mode:screen" d="M66.6094 0.709839L0.859375 0.589844C0.859375 0.589844 2.46938 20.4098 40.8694 20.3598C51.7194 20.3498 52.8994 20.3799 60.1194 20.4199L66.6094 0.709839Z" fill="url(#paint13_linear_1044_26180)"/>
<path style="mix-blend-mode:screen" d="M50.4608 50.4196L54.2408 38.7695C49.0908 40.4495 44.2108 42.6696 39.7208 45.4196C37.8608 46.5596 35.6808 47.9595 33.3008 49.5295C37.0208 50.0695 41.2408 50.3695 46.0308 50.3695C56.8808 50.3595 43.2408 50.3895 50.4608 50.4295V50.4196Z" fill="url(#paint14_linear_1044_26180)"/>
<g style="mix-blend-mode:multiply" opacity="0.35">
<path d="M56.5312 55.25L73.3713 6.96002C75.1113 2.06002 76.3813 0.770017 81.5713 0.580017L124.301 0.0400391H74.4713L56.5312 55.25Z" fill="#9E2C19"/>
</g>
<g style="mix-blend-mode:screen">
<path d="M139.358 7.58974C135.878 5.05974 131.678 4.89975 129.978 7.22975C128.768 8.89975 129.168 11.3997 130.778 13.6097H143.268C143.078 11.5697 141.668 9.26974 139.348 7.58974H139.358Z" fill="#FFF2BB"/>
</g>
<g style="mix-blend-mode:multiply" opacity="0.35">
<path fill-rule="evenodd" clip-rule="evenodd" d="M196.89 18.91C192.51 18.47 189.46 16.89 187.46 12.97L182 0.709961L188.49 20.42C195.71 20.38 196.9 20.35 207.74 20.36C213.86 20.36 219.04 19.87 223.43 19.03C213.91 20.18 204.14 19.64 196.89 18.92V18.91Z" fill="#9E2C19"/>
</g>
<g style="mix-blend-mode:multiply" opacity="0.35">
<path fill-rule="evenodd" clip-rule="evenodd" d="M202.578 50.3601C211.868 50.3701 219.008 49.2101 224.488 47.4601C216.598 49.6501 209.968 49.5002 204.928 49.1902C201.458 48.9802 198.638 46.4302 197.168 43.2802L191.738 30.6602L198.158 50.4102C205.378 50.3702 191.738 50.3402 202.588 50.3502L202.578 50.3601Z" fill="#9E2C19"/>
</g>
<g style="mix-blend-mode:multiply" opacity="0.35">
<path fill-rule="evenodd" clip-rule="evenodd" d="M207.889 80.3701C212.179 78.9901 215.569 77.2801 218.259 75.4401C215.069 76.6501 209.089 77.5301 209.089 77.5301L201.469 60.6201V60.6401L207.889 80.3701Z" fill="#9E2C19"/>
</g>
<g style="mix-blend-mode:multiply" opacity="0.35">
<path d="M40.8694 20.3601C51.7194 20.3501 52.8994 20.3801 60.1194 20.4201L65.2594 4.80008L61.4394 13.3201C59.6094 17.8101 58.5194 19.2901 54.0394 19.3301C49.2094 19.3701 40.0994 19.2701 35.4694 19.0901C15.3094 18.3001 3.43937 9.59008 0.859375 0.580078C0.859375 0.580078 2.46938 20.4001 40.8694 20.3501V20.3601Z" fill="#9E2C19"/>
</g>
<g style="mix-blend-mode:multiply" opacity="0.35">
<path d="M51.3213 44.5901C50.1013 47.1501 48.7913 49.2901 45.9613 49.1901C43.0313 49.0901 34.8113 49.0301 30.1113 47.9701C19.2013 45.5101 12.6912 41.4501 8.28125 36.4701C11.9913 42.3201 21.5413 50.3901 46.0413 50.3601C56.8913 50.3501 43.2513 50.3801 50.4713 50.4201L55.7812 34.0801L51.3313 44.6001L51.3213 44.5901Z" fill="#9E2C19"/>
</g>
<g style="mix-blend-mode:multiply" opacity="0.35">
<path d="M40.7198 80.3702L46.3198 63.1403C45.2698 65.3403 43.1798 70.4202 41.0598 75.1202C39.6198 78.3202 38.2398 77.9202 36.0198 76.9902C24.9698 72.3902 22.4298 66.9202 20.0898 60.4902C20.0898 60.4902 20.9298 74.0002 40.7198 80.3602V80.3702Z" fill="#9E2C19"/>
</g>
<path d="M182 0.709839L242.13 1.73984C244.55 1.77984 245.67 3.58984 244.62 5.76984C243.53 8.03984 241.77 10.7599 238.89 13.0999C247.19 7.45985 247.75 0.589844 247.75 0.589844L182 0.709839Z" fill="#FFF5CC"/>
<path d="M191.73 30.6696L236.091 31.7096C241.271 31.8196 240.431 34.0196 239.081 36.7196C238.251 38.3796 237.11 40.1996 235.6 41.7196C242.16 36.3796 242.66 30.5596 242.66 30.5596L191.73 30.6796V30.6696Z" fill="#FFF5CC"/>
<g style="mix-blend-mode:screen" opacity="0.5">
<path d="M18.3398 0.590088L66.6098 0.710083L64.9898 5.64011C64.9898 3.11011 63.7898 1.83008 60.8798 1.80008L18.3398 0.580078V0.590088Z" fill="#FFE67B"/>
</g>
<g style="mix-blend-mode:screen" opacity="0.5">
<path d="M18.3398 30.6602H56.8798L55.1098 36.1201L55.2998 34.3102C55.3998 32.6002 54.7898 31.7001 51.6698 31.5501L18.3498 30.6602H18.3398Z" fill="#FFE67B"/>
</g>
<g style="mix-blend-mode:multiply" opacity="0.6">
<path d="M136.388 47.8699L142.438 37.3899V32.3799L130.338 37.3899L124.298 26.9199L118.248 37.3899L106.148 32.3799V37.3899L112.198 47.8699L106.148 53.3299V58.3399H118.248L124.298 68.8199L130.338 58.3399H142.438V53.3299L136.388 47.8699Z" fill="#892334"/>
</g>
<path d="M136.388 42.8504L142.438 32.3804V28.4604L130.338 32.3804L124.298 21.9004L118.248 32.3804L106.148 28.4604V32.3804L112.198 42.8504L106.148 49.4104V53.3304H118.248L124.298 63.8004L130.338 53.3304H142.438V49.4104L136.388 42.8504Z" fill="#9E2C19"/>
<path d="M136.388 38.9402L142.438 28.4602H130.338L124.298 17.9902L118.248 28.4602H106.148L112.198 38.9402L106.148 49.4102H118.248L124.298 59.8903L130.338 49.4102H142.438L136.388 38.9402Z" fill="url(#paint15_radial_1044_26180)"/>
<path d="M142.44 49.4102H130.34V53.3301H142.44V49.4102Z" fill="#681D15"/>
<path d="M118.248 53.3301L124.298 63.8001V59.8902L118.248 49.4102H106.148V53.3301H118.248Z" fill="#681D15"/>
<path style="mix-blend-mode:screen" d="M124.298 59.8899L129.818 50.3298C124.128 46.0798 118.008 42.5698 111.678 39.8398L106.148 49.4099H118.248L124.298 59.8899Z" fill="url(#paint16_linear_1044_26180)"/>
<path style="mix-blend-mode:screen" d="M130.34 28.4602L124.29 17.9902L118.24 28.4602H108.57C120.09 33.1002 131.32 39.6103 141.45 47.7003L136.39 38.9302L142.44 28.4503H130.34V28.4602Z" fill="url(#paint17_linear_1044_26180)"/>
<path d="M106.148 28.46L112.198 38.94L111.068 40.89L106.148 32.38V28.46Z" fill="#681D15"/>
<g style="mix-blend-mode:screen" opacity="0.8">
<path d="M124.297 17.9902L130.127 29.4902L142.437 28.4602H130.337L124.297 17.9902Z" fill="#FFE67B"/>
</g>
<g style="mix-blend-mode:multiply" opacity="0.35">
<path d="M106.148 28.46L114.418 38.94L106.148 49.41L112.198 38.94L106.148 28.46Z" fill="#9E2C19"/>
</g>
<g style="mix-blend-mode:multiply" opacity="0.35">
<path d="M124.297 59.8903L129.567 46.9902L142.437 49.4102H130.337L124.297 59.8903Z" fill="#9E2C19"/>
</g>
<g style="mix-blend-mode:screen" opacity="0.5">
<path d="M106.148 49.4105L119.388 48.2705L124.298 59.8905L118.248 49.4105H106.148Z" fill="#FFE67B"/>
</g>
<g style="mix-blend-mode:screen" opacity="0.5">
<path d="M131.518 34.5302C130.908 36.4602 128.028 37.2702 125.078 36.3402C122.128 35.4102 120.238 33.0902 120.838 31.1702C121.448 29.2402 124.328 28.4302 127.278 29.3602C130.228 30.2902 132.118 32.6102 131.518 34.5302Z" fill="#FCE265"/>
</g>
<g style="mix-blend-mode:screen" opacity="0.5">
<path d="M131.938 43.7001C131.638 44.6601 130.188 45.0701 128.718 44.6001C127.248 44.1401 126.298 42.9801 126.598 42.0101C126.898 41.0501 128.348 40.6401 129.818 41.1101C131.288 41.5801 132.238 42.7301 131.938 43.7001Z" fill="#FCE265"/>
</g>
<g style="mix-blend-mode:screen">
<path d="M188.488 20.4104C193.718 20.3804 195.778 20.3604 200.638 20.3504C207.448 16.0804 211.978 9.75039 212.618 2.37039C212.668 1.79039 212.688 1.22039 212.688 0.650391L182.008 0.710388L188.498 20.4204L188.488 20.4104Z" fill="#FFF2BB"/>
</g>
<path d="M221.031 73.3C228.091 67.14 228.521 60.5 228.521 60.5L201.471 60.61L213.511 97.24L127.371 159.82V169.78L236.841 108.83L221.051 73.29L221.031 73.3Z" fill="url(#paint18_radial_1044_26180)"/>
<path d="M35.0995 97.24L47.1495 60.61L20.0995 60.5C20.0995 60.5 20.5195 67.13 27.5695 73.29L11.7695 108.84L121.24 169.79V159.83L35.0995 97.25V97.24Z" fill="url(#paint19_radial_1044_26180)"/>
<path style="mix-blend-mode:screen" d="M35.0995 97.24L47.1495 60.61L20.0995 60.5C20.0995 60.5 20.5195 67.13 27.5695 73.29L11.7695 108.84L121.24 169.79V159.83L35.0995 97.25V97.24Z" fill="url(#paint20_linear_1044_26180)"/>
<path d="M40.9877 95.4297L121.238 156.47V159.83L35.0977 97.2397L40.9877 95.4297Z" fill="url(#paint21_linear_1044_26180)"/>
<path d="M207.659 95.5596L127.359 156.47V159.83L213.499 97.2396L207.659 95.5596Z" fill="url(#paint22_linear_1044_26180)"/>
<path style="mix-blend-mode:screen" d="M221.029 73.3C228.089 67.14 228.519 60.5 228.519 60.5L201.469 60.61L213.509 97.24L187.859 115.87C188.129 116.9 188.389 117.93 188.629 118.97C190.019 124.45 191.209 129.35 192.209 133.69L236.839 108.84L221.049 73.3H221.029Z" fill="url(#paint23_linear_1044_26180)"/>
<path style="mix-blend-mode:screen" d="M169.058 138.38C169.298 135.3 169.378 132.28 169.348 129.31L127.348 159.83V169.79L167.198 147.6C168.158 144.78 168.798 141.72 169.058 138.38Z" fill="url(#paint24_linear_1044_26180)"/>
<g style="mix-blend-mode:multiply" opacity="0.35">
<path d="M27.5695 73.2898L11.7695 108.84L68.6395 140.5C68.6395 140.5 29.7995 117.31 17.2995 109.39C15.0895 107.99 14.3195 106.78 15.3695 104.38C19.0895 95.8298 27.4795 75.5798 29.0695 72.5298C24.0295 68.6298 21.9495 64.9598 20.0995 60.5098C20.0995 60.5098 20.5195 67.1397 27.5695 73.2997V73.2898Z" fill="#9E2C19"/>
</g>
<g style="mix-blend-mode:screen" opacity="0.5">
<path d="M25.3008 60.5195L47.1508 60.6095L38.6808 86.5295L45.3808 63.3395C45.3208 62.0195 44.9608 61.5696 43.1608 61.4496L25.3008 60.5195Z" fill="#FFE67B"/>
</g>
<path d="M223.859 70.43C228.209 65.24 228.509 60.5 228.509 60.5L201.499 60.61H201.469L223.799 61.56C227.099 61.76 226.499 63 226.119 64.6C225.679 66.45 224.939 68.62 223.859 70.43Z" fill="#FFF5CC"/>
<g style="mix-blend-mode:multiply" opacity="0.35">
<path d="M183.949 138.28L225.619 113.09C233.059 108.61 233.719 107.82 230.529 99.6704L223.529 78.9404L236.819 108.85L183.949 138.28Z" fill="#9E2C19"/>
</g>
<g style="mix-blend-mode:multiply" opacity="0.35">
<path d="M127.359 159.83C127.359 159.83 127.629 161.23 127.809 162.31C128.629 167.08 129.909 166.84 132.679 165.51L148.359 158.1L127.359 169.79V159.83Z" fill="#9E2C19"/>
</g>
<g style="mix-blend-mode:multiply" opacity="0.35">
<path d="M82.0977 148L116.298 165.31C119.788 167.22 120.218 166.23 120.918 162.18C120.998 161.72 121.238 160.1 121.238 160.1V169.79L82.0977 148Z" fill="#9E2C19"/>
</g>
<g style="mix-blend-mode:multiply" opacity="0.6">
<path d="M124.298 112.46L76.7383 88.2402V93.2402L124.298 127.79L171.848 93.2402V88.2402L124.298 112.46Z" fill="#892334"/>
</g>
<g style="mix-blend-mode:multiply" opacity="0.6">
<path d="M124.298 86.1002L83.668 66.9102V71.9102L124.298 101.42L164.918 71.9102V66.9102L124.298 86.1002Z" fill="#892334"/>
</g>
<path d="M124.298 107.46L76.7383 82.2402V88.2402L124.298 122.79L171.848 88.2402V82.2402L124.298 107.46Z" fill="#9E2C19"/>
<path d="M124.298 81.1002L83.668 60.9102V66.9102L124.298 96.4202L164.918 66.9102V60.9102L124.298 81.1002Z" fill="#9E2C19"/>
<path d="M124.298 101.46L80.7483 69.9004L76.7383 82.2404L124.298 116.79L171.848 82.2404L167.838 69.9004L124.298 101.46Z" fill="url(#paint25_radial_1044_26180)"/>
<path style="mix-blend-mode:screen" d="M160.141 90.7404C158.401 86.9104 156.42 83.2404 154.23 79.7604L124.29 101.46L80.7405 69.9004L76.7305 82.2304L124.29 116.78L160.13 90.7404H160.141Z" fill="url(#paint26_linear_1044_26180)"/>
<path d="M124.298 75.1003L87.678 48.5703L83.668 60.9103L124.298 90.4203L164.918 60.9103L160.908 48.5703L124.298 75.1003Z" fill="url(#paint27_radial_1044_26180)"/>
<path style="mix-blend-mode:screen" d="M149.098 72.4096C146.548 69.0996 143.788 65.9996 140.868 63.0896L124.298 75.0996L87.678 48.5596L83.668 60.8996L124.298 90.4196L149.098 72.3996V72.4096Z" fill="url(#paint28_linear_1044_26180)"/>
<path style="mix-blend-mode:screen" d="M149.73 56.6703C152.83 59.4603 155.811 62.4003 158.651 65.4703L164.93 60.9103L160.92 48.5703L149.74 56.6803L149.73 56.6703Z" fill="url(#paint29_linear_1044_26180)"/>
<path d="M124.298 90.4202V96.4202L83.668 66.9102V60.9102L124.298 90.4202Z" fill="#681D15"/>
<path d="M76.7383 82.2402L124.298 116.79V122.79L76.7383 88.2402V82.2402Z" fill="#681D15"/>
<path d="M98.0781 56.0997L124.298 78.1197L156.268 51.9297L124.298 75.0997L98.0781 56.0997Z" fill="#FFF5CC"/>
<path d="M98.0781 82.46L124.298 104.48L156.268 78.29L124.298 101.46L98.0781 82.46Z" fill="#FFF5CC"/>
<g style="mix-blend-mode:multiply" opacity="0.35">
<path d="M87.7502 48.5703L86.4602 56.7103C86.2902 58.4203 86.6302 60.4903 87.9602 61.5703L124.29 90.4303L83.6602 60.9103L87.7402 48.5703H87.7502Z" fill="#9E2C19"/>
</g>
<g style="mix-blend-mode:multiply" opacity="0.35">
<path d="M142.68 77.0701L160.55 61.6301C162.22 60.2001 162.84 58.6401 162.63 56.4601L161.66 50.8301L164.93 60.9601L142.68 77.0701Z" fill="#9E2C19"/>
</g>
<g style="mix-blend-mode:multiply" opacity="0.35">
<path d="M80.7483 69.9004L79.5383 78.0404C79.3683 79.7504 79.7083 81.8204 81.0383 82.9004L117.368 111.76L76.7383 82.2404L80.7483 69.9004Z" fill="#9E2C19"/>
</g>
<g style="mix-blend-mode:multiply" opacity="0.35">
<path d="M149.73 98.3101L167.48 82.8801C169.15 81.4501 169.77 79.8901 169.56 77.7101L168.591 72.0801L171.86 82.2101L149.74 98.3201L149.73 98.3101Z" fill="#9E2C19"/>
</g>
<path style="mix-blend-mode:screen" d="M5.94922 30.5498C5.94922 30.5498 6.22919 33.7698 9.04919 37.5998C13.2392 35.2298 17.9092 32.8098 22.8992 30.5898L5.94922 30.5498Z" fill="url(#paint30_linear_1044_26180)"/>
<defs>
<radialGradient id="paint0_radial_1044_26180" cx="0" cy="0" r="1" gradientUnits="userSpaceOnUse" gradientTransform="translate(124.3 -318.5) scale(78.68 78.68)">
<stop offset="0.01" stop-color="#E85621"/>
<stop offset="1" stop-color="#E33A0B"/>
</radialGradient>
<radialGradient id="paint1_radial_1044_26180" cx="0" cy="0" r="1" gradientUnits="userSpaceOnUse" gradientTransform="translate(136.13 54.61) scale(62.09 62.09)">
<stop offset="0.01" stop-color="#E85621"/>
<stop offset="1" stop-color="#E33A0B"/>
</radialGradient>
<linearGradient id="paint2_linear_1044_26180" x1="198.29" y1="-24.84" x2="118.08" y2="74.1" gradientUnits="userSpaceOnUse">
<stop stop-color="#FFA369"/>
<stop offset="0.13" stop-color="#FD9D65"/>
<stop offset="0.29" stop-color="#F98E5C"/>
<stop offset="0.47" stop-color="#F3764C"/>
<stop offset="0.65" stop-color="#EA5335"/>
<stop offset="0.85" stop-color="#DE2819"/>
<stop offset="1" stop-color="#D40000"/>
</linearGradient>
<linearGradient id="paint3_linear_1044_26180" x1="70.5584" y1="135.41" x2="140.678" y2="47.5198" gradientUnits="userSpaceOnUse">
<stop stop-color="#D40000"/>
<stop offset="1" stop-color="#FFAF47"/>
</linearGradient>
<linearGradient id="paint4_linear_1044_26180" x1="124.299" y1="-319" x2="124.299" y2="-319" gradientUnits="userSpaceOnUse">
<stop offset="0.63" stop-color="#F7814A"/>
<stop offset="1" stop-color="#F7E399"/>
</linearGradient>
<radialGradient id="paint5_radial_1044_26180" cx="0" cy="0" r="1" gradientUnits="userSpaceOnUse" gradientTransform="translate(33.7294 10.4999) scale(24.28 24.28)">
<stop offset="0.01" stop-color="#E85621"/>
<stop offset="1" stop-color="#E33A0B"/>
</radialGradient>
<radialGradient id="paint6_radial_1044_26180" cx="0" cy="0" r="1" gradientUnits="userSpaceOnUse" gradientTransform="translate(31.4075 40.4803) scale(19.33 19.33)">
<stop offset="0.01" stop-color="#E85621"/>
<stop offset="1" stop-color="#E33A0B"/>
</radialGradient>
<radialGradient id="paint7_radial_1044_26180" cx="0" cy="0" r="1" gradientUnits="userSpaceOnUse" gradientTransform="translate(33.6177 70.44) scale(11.87 11.87)">
<stop offset="0.01" stop-color="#E85621"/>
<stop offset="1" stop-color="#E33A0B"/>
</radialGradient>
<radialGradient id="paint8_radial_1044_26180" cx="0" cy="0" r="1" gradientUnits="userSpaceOnUse" gradientTransform="translate(214.88 10.4999) scale(24.28 24.28)">
<stop offset="0.01" stop-color="#E85621"/>
<stop offset="1" stop-color="#E33A0B"/>
</radialGradient>
<radialGradient id="paint9_radial_1044_26180" cx="0" cy="0" r="1" gradientUnits="userSpaceOnUse" gradientTransform="translate(217.2 40.4803) scale(19.33 19.33)">
<stop offset="0.01" stop-color="#E85621"/>
<stop offset="1" stop-color="#E33A0B"/>
</radialGradient>
<radialGradient id="paint10_radial_1044_26180" cx="0" cy="0" r="1" gradientUnits="userSpaceOnUse" gradientTransform="translate(214.989 70.44) scale(11.87 11.87)">
<stop offset="0.01" stop-color="#E85621"/>
<stop offset="1" stop-color="#E33A0B"/>
</radialGradient>
<linearGradient id="paint11_linear_1044_26180" x1="223.18" y1="-9.21016" x2="145.61" y2="96.2099" gradientUnits="userSpaceOnUse">
<stop stop-color="#FFA369"/>
<stop offset="0.13" stop-color="#FD9D65"/>
<stop offset="0.29" stop-color="#F98E5C"/>
<stop offset="0.47" stop-color="#F3764C"/>
<stop offset="0.65" stop-color="#EA5335"/>
<stop offset="0.85" stop-color="#DE2819"/>
<stop offset="1" stop-color="#D40000"/>
</linearGradient>
<linearGradient id="paint12_linear_1044_26180" x1="238.98" y1="2.42027" x2="161.42" y2="107.84" gradientUnits="userSpaceOnUse">
<stop stop-color="#FFA369"/>
<stop offset="0.13" stop-color="#FD9D65"/>
<stop offset="0.29" stop-color="#F98E5C"/>
<stop offset="0.47" stop-color="#F3764C"/>
<stop offset="0.65" stop-color="#EA5335"/>
<stop offset="0.85" stop-color="#DE2819"/>
<stop offset="1" stop-color="#D40000"/>
</linearGradient>
<linearGradient id="paint13_linear_1044_26180" x1="107.579" y1="-94.2702" x2="30.0093" y2="11.1598" gradientUnits="userSpaceOnUse">
<stop stop-color="#FFA369"/>
<stop offset="0.13" stop-color="#FD9D65"/>
<stop offset="0.29" stop-color="#F98E5C"/>
<stop offset="0.47" stop-color="#F3764C"/>
<stop offset="0.65" stop-color="#EA5335"/>
<stop offset="0.85" stop-color="#DE2819"/>
<stop offset="1" stop-color="#D40000"/>
</linearGradient>
<linearGradient id="paint14_linear_1044_26180" x1="9.15078" y1="99.2495" x2="69.3408" y2="8.62953" gradientUnits="userSpaceOnUse">
<stop stop-color="#D40000"/>
<stop offset="1" stop-color="#FFAF47"/>
</linearGradient>
<radialGradient id="paint15_radial_1044_26180" cx="0" cy="0" r="1" gradientUnits="userSpaceOnUse" gradientTransform="translate(124.298 38.9402) scale(19.6 19.6)">
<stop offset="0.01" stop-color="#E85621"/>
<stop offset="1" stop-color="#E33A0B"/>
</radialGradient>
<linearGradient id="paint16_linear_1044_26180" x1="71.7585" y1="131.23" x2="131.569" y2="25.9599" gradientUnits="userSpaceOnUse">
<stop stop-color="#D40000"/>
<stop offset="1" stop-color="#FFAF47"/>
</linearGradient>
<linearGradient id="paint17_linear_1044_26180" x1="148.05" y1="-1.17978" x2="118.86" y2="48.5802" gradientUnits="userSpaceOnUse">
<stop stop-color="#FFA369"/>
<stop offset="0.13" stop-color="#FD9D65"/>
<stop offset="0.29" stop-color="#F98E5C"/>
<stop offset="0.47" stop-color="#F3764C"/>
<stop offset="0.65" stop-color="#EA5335"/>
<stop offset="0.85" stop-color="#DE2819"/>
<stop offset="1" stop-color="#D40000"/>
</linearGradient>
<radialGradient id="paint18_radial_1044_26180" cx="0" cy="0" r="1" gradientUnits="userSpaceOnUse" gradientTransform="translate(182.091 115.14) scale(54.69 54.69)">
<stop offset="0.01" stop-color="#E85621"/>
<stop offset="1" stop-color="#E33A0B"/>
</radialGradient>
<radialGradient id="paint19_radial_1044_26180" cx="0" cy="0" r="1" gradientUnits="userSpaceOnUse" gradientTransform="translate(66.4995 115.14) scale(54.69 54.69)">
<stop offset="0.01" stop-color="#E85621"/>
<stop offset="1" stop-color="#E33A0B"/>
</radialGradient>
<linearGradient id="paint20_linear_1044_26180" x1="52.3695" y1="143.87" x2="123.18" y2="32.7" gradientUnits="userSpaceOnUse">
<stop stop-color="#D40000"/>
<stop offset="1" stop-color="#FFAF47"/>
</linearGradient>
<linearGradient id="paint21_linear_1044_26180" x1="35.0977" y1="-319" x2="121.238" y2="-319" gradientUnits="userSpaceOnUse">
<stop offset="0.09" stop-color="#F7814A"/>
<stop offset="0.13" stop-color="#F7874F"/>
<stop offset="0.39" stop-color="#F7AE6F"/>
<stop offset="0.64" stop-color="#F7CB86"/>
<stop offset="0.85" stop-color="#F7DC94"/>
<stop offset="1" stop-color="#F7E399"/>
</linearGradient>
<linearGradient id="paint22_linear_1044_26180" x1="213.489" y1="127.69" x2="127.349" y2="127.69" gradientUnits="userSpaceOnUse">
<stop offset="0.09" stop-color="#F7814A"/>
<stop offset="0.13" stop-color="#F7874F"/>
<stop offset="0.39" stop-color="#F7AE6F"/>
<stop offset="0.64" stop-color="#F7CB86"/>
<stop offset="0.85" stop-color="#F7DC94"/>
<stop offset="1" stop-color="#F7E399"/>
</linearGradient>
<linearGradient id="paint23_linear_1044_26180" x1="264.439" y1="34.88" x2="181.749" y2="125.87" gradientUnits="userSpaceOnUse">
<stop stop-color="#FFA369"/>
<stop offset="0.13" stop-color="#FD9D65"/>
<stop offset="0.29" stop-color="#F98E5C"/>
<stop offset="0.47" stop-color="#F3764C"/>
<stop offset="0.65" stop-color="#EA5335"/>
<stop offset="0.85" stop-color="#DE2819"/>
<stop offset="1" stop-color="#D40000"/>
</linearGradient>
<linearGradient id="paint24_linear_1044_26180" x1="124.348" y1="189.72" x2="195.158" y2="78.5496" gradientUnits="userSpaceOnUse">
<stop stop-color="#D40000"/>
<stop offset="1" stop-color="#FFAF47"/>
</linearGradient>
<radialGradient id="paint25_radial_1044_26180" cx="0" cy="0" r="1" gradientUnits="userSpaceOnUse" gradientTransform="translate(124.298 93.3404) scale(37.49 37.49)">
<stop offset="0.01" stop-color="#E85621"/>
<stop offset="1" stop-color="#E33A0B"/>
</radialGradient>
<linearGradient id="paint26_linear_1044_26180" x1="71.0605" y1="145.15" x2="167.2" y2="18.9504" gradientUnits="userSpaceOnUse">
<stop stop-color="#D40000"/>
<stop offset="1" stop-color="#FFAF47"/>
</linearGradient>
<radialGradient id="paint27_radial_1044_26180" cx="0" cy="0" r="1" gradientUnits="userSpaceOnUse" gradientTransform="translate(124.298 69.4903) scale(32.31 32.31)">
<stop offset="0.01" stop-color="#E85621"/>
<stop offset="1" stop-color="#E33A0B"/>
</radialGradient>
<linearGradient id="paint28_linear_1044_26180" x1="60.198" y1="136.87" x2="156.328" y2="10.6796" gradientUnits="userSpaceOnUse">
<stop stop-color="#D40000"/>
<stop offset="1" stop-color="#FFAF47"/>
</linearGradient>
<linearGradient id="paint29_linear_1044_26180" x1="182.43" y1="16.0003" x2="147.621" y2="75.3403" gradientUnits="userSpaceOnUse">
<stop stop-color="#FFA369"/>
<stop offset="0.13" stop-color="#FD9D65"/>
<stop offset="0.29" stop-color="#F98E5C"/>
<stop offset="0.47" stop-color="#F3764C"/>
<stop offset="0.65" stop-color="#EA5335"/>
<stop offset="0.85" stop-color="#DE2819"/>
<stop offset="1" stop-color="#D40000"/>
</linearGradient>
<linearGradient id="paint30_linear_1044_26180" x1="106.729" y1="-94.8905" x2="29.1591" y2="10.5296" gradientUnits="userSpaceOnUse">
<stop stop-color="#FFA369"/>
<stop offset="0.13" stop-color="#FD9D65"/>
<stop offset="0.29" stop-color="#F98E5C"/>
<stop offset="0.47" stop-color="#F3764C"/>
<stop offset="0.65" stop-color="#EA5335"/>
<stop offset="0.85" stop-color="#DE2819"/>
<stop offset="1" stop-color="#D40000"/>
</linearGradient>
</defs>
</svg>
