<svg width="39" height="39" viewBox="0 0 39 39" fill="none" xmlns="http://www.w3.org/2000/svg">
<circle cx="19.0679" cy="19.0679" r="19.0679" fill="white"/>
<path d="M28.2067 12.544C28.08 12.4163 27.9294 12.315 27.7634 12.2459C27.5975 12.1767 27.4194 12.1411 27.2396 12.1411C27.0598 12.1411 26.8818 12.1767 26.7159 12.2459C26.5499 12.315 26.3992 12.4163 26.2726 12.544L16.1258 22.7044L11.8628 18.4278C11.7313 18.3008 11.5761 18.2009 11.4061 18.1339C11.236 18.0669 11.0544 18.034 10.8717 18.0372C10.6889 18.0404 10.5086 18.0795 10.341 18.1524C10.1733 18.2252 10.0217 18.3304 9.89469 18.4618C9.7677 18.5933 9.66785 18.7485 9.60083 18.9185C9.53382 19.0886 9.50095 19.2702 9.50411 19.4529C9.50728 19.6357 9.5464 19.816 9.61926 19.9837C9.69212 20.1513 9.79728 20.3029 9.92874 20.4299L15.1588 25.66C15.2854 25.7876 15.436 25.8889 15.602 25.9581C15.768 26.0272 15.946 26.0628 16.1258 26.0628C16.3056 26.0628 16.4836 26.0272 16.6496 25.9581C16.8156 25.8889 16.9662 25.7876 17.0928 25.66L28.2067 14.5461C28.3449 14.4186 28.4552 14.2638 28.5307 14.0915C28.6062 13.9192 28.6451 13.7331 28.6451 13.5451C28.6451 13.357 28.6062 13.1709 28.5307 12.9986C28.4552 12.8263 28.3449 12.6715 28.2067 12.544Z" fill="#EB3D3D"/>
</svg>
