<svg width="39" height="39" viewBox="0 0 39 39" fill="none" xmlns="http://www.w3.org/2000/svg">
<circle cx="19.6069" cy="19.0679" r="19.0679" fill="white"/>
<path d="M28.7457 12.544C28.6191 12.4163 28.4685 12.315 28.3025 12.2459C28.1365 12.1767 27.9585 12.1411 27.7787 12.1411C27.5989 12.1411 27.4209 12.1767 27.2549 12.2459C27.0889 12.315 26.9383 12.4163 26.8117 12.544L16.6649 22.7044L12.4018 18.4278C12.2704 18.3008 12.1152 18.2009 11.9451 18.1339C11.7751 18.0669 11.5935 18.034 11.4107 18.0372C11.228 18.0404 11.0476 18.0795 10.88 18.1524C10.7124 18.2252 10.5607 18.3304 10.4338 18.4618C10.3068 18.5933 10.2069 18.7485 10.1399 18.9185C10.0729 19.0886 10.04 19.2702 10.0432 19.4529C10.0463 19.6357 10.0855 19.816 10.1583 19.9837C10.2312 20.1513 10.3363 20.3029 10.4678 20.4299L15.6978 25.66C15.8245 25.7876 15.9751 25.8889 16.1411 25.9581C16.307 26.0272 16.4851 26.0628 16.6649 26.0628C16.8447 26.0628 17.0227 26.0272 17.1887 25.9581C17.3546 25.8889 17.5053 25.7876 17.6319 25.66L28.7457 14.5461C28.884 14.4186 28.9943 14.2638 29.0698 14.0915C29.1452 13.9192 29.1842 13.7331 29.1842 13.5451C29.1842 13.357 29.1452 13.1709 29.0698 12.9986C28.9943 12.8263 28.884 12.6715 28.7457 12.544Z" fill="#EB3D3D"/>
</svg>
