<svg width="212" height="212" viewBox="0 0 212 212" fill="none" xmlns="http://www.w3.org/2000/svg">
<g opacity="0.2" filter="url(#filter0_f_657_27815)">
<path d="M122.563 199.953C120.852 199.953 119.249 199.292 118.05 198.089L14.2457 94.218C11.7566 91.7274 11.7566 87.6723 14.2457 85.1839L84.9527 14.429C86.1523 13.2286 87.7549 12.5649 89.4657 12.5649C91.1742 12.5649 92.7768 13.2286 93.9764 14.429L197.78 118.302C200.27 120.791 200.27 124.841 197.785 127.336L127.076 198.089C125.874 199.292 124.271 199.953 122.563 199.953Z" fill="black"/>
</g>
<path d="M197.028 126.581L174.71 148.909L151.677 171.959L150.369 173.268L146.766 176.871L145.255 178.383L132.693 190.956L126.319 197.331C124.256 199.398 120.864 199.398 118.799 197.331L110.342 188.873L109.457 187.988L109.395 187.924L108.585 187.117L108.074 186.601L56.418 134.912L30.3023 108.777L14.9926 93.4577C12.9295 91.3841 12.9295 87.9994 14.9926 85.935L37.309 63.6042L60.3415 40.5545L61.6494 39.2481L65.2529 35.6377L66.7634 34.1285L79.3261 21.5577L85.6996 15.1801C87.7627 13.1133 91.1452 13.1133 93.2198 15.1801L101.677 23.6405L102.561 24.5253L102.626 24.5897L103.436 25.3985L103.945 25.91L155.603 77.6036L181.719 103.738L197.028 119.051C199.091 121.118 199.091 124.516 197.028 126.581Z" fill="#FAFAFA"/>
<path d="M124.062 186.046C123.238 186.873 121.882 186.873 121.055 186.046L26.2771 91.2043C25.4482 90.3795 25.4505 89.0224 26.2771 88.1929L87.958 26.4745C88.7824 25.6496 90.1386 25.6496 90.9652 26.4745L185.745 121.311C186.572 122.143 186.57 123.493 185.745 124.323L124.062 186.046Z" fill="#C42C27"/>
<path d="M130.399 179.71H128.349V171.192H136.857V173.242L141.032 169.065H138.985V160.552H147.495V162.598L151.67 158.42H149.621V149.905H158.133V151.953L162.308 147.773H160.261V139.26H168.769V141.306L172.943 137.129H170.894V128.615H179.406L179.402 130.666L183.579 126.489H181.532V117.968H182.393L179.404 114.978V115.842H170.892V107.328H171.757L168.764 104.333V105.197H160.254L160.256 96.6835H161.117L158.128 93.6928V94.5522H149.616V86.0388H150.479L147.491 83.0458V83.9076L138.98 83.9121V75.3918H139.844L136.851 72.4011V73.2651H128.343V64.7471H129.204L126.215 61.7564V62.6204H117.705V54.107H118.575L115.584 51.1094V51.9757H107.076V43.4623H107.937L104.949 40.467V41.3287H96.436V32.8153H97.2995L94.3084 29.8246V30.6841H85.8005V28.6381L81.6259 32.8153H83.6706V41.3287H75.1626V39.2827L70.9881 43.46H73.0374V51.9734H64.5248V49.9251L60.3503 54.1047H62.3973V62.6181H53.8893V60.5675L49.7148 64.7448H51.7617L51.7594 73.2628H43.2515V71.2122L39.0769 75.3894H41.1239V83.9052H32.6159V81.8569L28.4414 86.0364H30.4884V94.5499H29.6249L32.6182 97.5452V96.6811H41.1262V105.195H40.2627L43.2538 108.185V107.326H51.7617V115.839H50.9006L53.8893 118.832V117.966H62.3996V126.486H61.5384L64.5271 129.477V128.613H73.0397V137.131L72.1762 137.126L75.1673 140.122V139.258H83.6752V147.771H82.8117L85.8051 150.769V149.902H94.313V158.418H93.4496L96.4406 161.413V160.549H104.953V169.063H104.087L107.078 172.053V171.189H115.589V179.707H114.728L117.716 182.698V181.834H126.227V183.887L130.399 179.71ZM117.712 169.063V160.549H126.222L126.224 169.063H117.712ZM115.584 117.966V126.486H107.076L107.074 117.966H115.584ZM96.436 115.839V107.326H104.949V115.839H96.436ZM107.074 115.839V107.326H115.584V115.839H107.074ZM107.074 105.195V96.6811H115.584V105.195H107.074ZM117.712 107.326H126.222V115.839H117.712V107.326ZM117.712 105.195V96.6811H126.222V105.195H117.712ZM107.074 94.5499L107.076 86.0364H115.584V94.5499H107.074ZM104.946 94.5499H96.436V86.0364H104.949L104.946 94.5499ZM104.949 96.6811L104.946 105.195H96.436V96.6811H104.949ZM94.3084 105.195H85.8005L85.7982 96.6811H94.3084V105.195ZM94.3084 107.326V115.839H85.8005V107.326H94.3084ZM104.946 117.966L104.949 126.486H96.436V117.966H104.946ZM115.584 128.613V137.126H107.076L107.074 128.613H115.584ZM117.712 128.613H126.222V137.126H117.712V128.613ZM117.712 126.486V117.966H126.222V126.486H117.712ZM128.349 117.966H136.857V126.486H128.349V117.966ZM128.349 115.839V107.326H136.857V115.839H128.349ZM138.987 107.326H147.498V115.839H138.987V107.326ZM128.349 105.195V96.6811H136.857V105.195H128.349ZM117.712 94.5499V86.0364H126.222V94.5499H117.712ZM107.076 83.9052L107.074 75.3894H115.584V83.9052H107.076ZM96.436 73.2605V64.7424H104.949V73.2605H96.436ZM104.946 75.3872L104.949 83.9029H96.436V75.3872H104.946ZM94.3084 83.9052L85.8005 83.9098V75.3894H94.3084V83.9052ZM94.3084 86.0341V94.5476H85.7982L85.8005 86.0341H94.3084ZM83.6706 94.5499H75.1626V86.0364H83.6706V94.5499ZM83.6706 96.6811V105.195H75.1626V96.6811H83.6706ZM73.0351 105.195H64.5225V96.6811H73.0351V105.195ZM83.6706 107.326V115.839H75.1626V107.326H83.6706ZM94.3084 117.966V126.486H85.7982L85.8005 117.966H94.3084ZM104.949 128.613V137.126H96.436V128.613H104.949ZM115.584 139.258V147.771H107.076V139.258H115.584ZM126.222 149.902V158.418H117.712V149.902H126.222ZM117.712 147.771V139.258H126.222V147.771H117.712ZM128.349 139.258H136.857V147.771H128.349V139.258ZM128.349 137.126V128.613H136.857V137.131L128.349 137.126ZM138.987 128.613H147.498V137.131H138.987V128.613ZM138.987 126.486V117.966H147.498V126.486H138.987ZM149.625 117.966H158.138V126.486H149.627L149.625 117.966ZM149.625 115.839V107.326H158.138V115.839H149.625ZM138.987 105.195L138.985 96.6811H147.498V105.195H138.987ZM128.349 94.5499V86.0364H136.857V94.5499H128.349ZM117.712 83.9052V75.3894H126.222V83.9052H117.712ZM107.074 73.2605L107.076 64.7424H115.584V73.2605H107.074ZM96.436 62.6159V54.1024H104.949V62.6159H96.436ZM94.3084 62.6159H85.8005L85.7982 54.1024H94.3084V62.6159ZM94.3084 64.7424V73.2605H85.8005V64.7424H94.3084ZM83.6706 73.2605H75.1626V64.7424H83.6706V73.2605ZM83.6706 75.3872V83.9076L75.1626 83.9029V75.3872H83.6706ZM73.0351 83.9052H64.5225V75.3894H73.0351V83.9052ZM73.0351 86.0341V94.5476H64.5225V86.0341H73.0351ZM62.395 94.5499H53.8847L53.887 86.0364H62.395V94.5499ZM62.395 96.6811V105.195H53.8847V96.6811H62.395ZM73.0351 107.326V115.839H64.5225V107.326H73.0351ZM83.6706 117.966V126.486H75.1626V117.966H83.6706ZM94.3084 128.613V137.126L85.8005 137.131V128.613H94.3084ZM104.949 139.258V147.771H96.436V139.258H104.949ZM115.584 149.902V158.418H107.076V149.902H115.584ZM136.86 169.063H128.354L128.352 160.549H136.86V169.063ZM128.349 158.418V149.902H136.857V158.418H128.349ZM147.5 158.418H138.99V149.902H147.5V158.418ZM138.987 147.771V139.258H147.498V147.771H138.987ZM158.138 147.771H149.625V139.258H158.138V147.771ZM149.625 137.131L149.627 128.613H158.138V137.126L149.625 137.131ZM168.773 137.131L160.265 137.126V128.613H168.773V137.131ZM160.265 126.486L160.263 117.966H168.773V126.482L160.265 126.486ZM179.413 117.966V126.486L170.901 126.482V117.966H179.413ZM168.773 107.326V115.839H160.263L160.265 107.326H168.773ZM158.138 96.6811V105.195H149.625V96.6811H158.138ZM147.5 86.0341V94.5476H138.99V86.0341H147.5ZM136.86 75.3872V83.9029H128.352V75.3872H136.86ZM126.222 64.7424V73.2605H117.712V64.7424H126.222ZM115.584 54.1024V62.6159H107.076V54.1024H115.584ZM104.949 43.4577V51.9711H96.436V43.4577H104.949ZM85.8005 32.8107H94.3084V41.3241H85.7982L85.8005 32.8107ZM94.3084 43.4577V51.9711H85.8005L85.7982 43.4577H94.3084ZM75.1626 43.4577H83.6706V51.9711H75.1626V43.4577ZM83.6706 54.1024V62.6159H75.1626V54.1024H83.6706ZM64.5225 54.1024H73.0351V62.6159H64.5225V54.1024ZM73.0351 64.7424V73.2605H64.5225V64.7424H73.0351ZM53.8847 64.7424H62.3927V73.2605H53.8824L53.8847 64.7424ZM62.395 75.3872V83.9029H53.887L53.8847 75.3872H62.395ZM43.2469 75.3872H51.7548L51.7571 83.9029H43.2446L43.2469 75.3872ZM51.7594 86.0341L51.7571 94.5476H43.2492V86.0341H51.7594ZM32.6113 94.5499V86.0364H41.1193V94.5499H32.6113ZM43.2469 105.195V96.6811H51.7548V105.195H43.2469ZM53.8824 115.839V107.326H62.3927V115.839H53.8824ZM64.5225 126.486V117.966H73.0351V126.486H64.5225ZM75.1626 137.126V128.613H83.6706V137.131L75.1626 137.126ZM85.8005 147.771V139.258H94.3084V147.771H85.8005ZM96.436 158.418V149.902H104.949V158.418H96.436ZM107.074 169.063L107.076 160.549H115.584V169.063H107.074ZM117.712 179.71V171.192H126.224L126.222 179.71H117.712Z" fill="white"/>
<path d="M127.551 180.507V170.39H137.657V172.44L138.191 171.908V170.392H139.704L140.234 169.864H138.191V159.752H148.297V161.798L148.827 161.266V159.754H150.342L150.872 159.22H148.825V149.107H158.933V151.156L159.463 150.628V149.11H160.975L161.507 148.577H159.46V138.465H169.566V140.511L170.096 139.981V138.465H171.611L172.143 137.933H170.093V127.82H180.202L180.199 129.871L180.734 129.339V127.823H182.249L182.778 127.295H180.731V117.178H181.592L181.063 116.648H180.731V116.316L180.199 115.784V116.648H170.091V106.535H170.957L170.423 106.003H170.091V105.671L169.562 105.139V106.003H159.456V95.8908H160.317L159.787 95.3586H159.453L159.456 95.0267L158.926 94.4991V95.3586H148.818V85.2461H149.679L149.149 84.7116L148.818 84.7184V84.3797L148.288 83.8475V84.7116H138.191V74.5991H139.053L138.521 74.0691H138.191V73.7396L137.657 73.2051V74.0691H127.551V63.9521H128.415L127.883 63.4244H127.551V63.0926L127.019 62.5512V63.4152H116.911V53.3028H117.775L117.245 52.7705H116.911V52.4387L116.382 51.9042V52.7705H106.276V42.6581H107.137L106.607 42.1235H106.273V41.7917L105.742 41.2595L105.744 42.1235H95.6356V32.0111H96.499L95.9672 31.4789H95.6356V31.147L95.106 30.6194V31.4789H85.0001V29.4329L84.4682 29.9627V31.4765H82.9531L82.4235 32.0087H84.4682V42.1212H74.3622V40.0752L73.8327 40.6029V42.1189H72.3153L71.7811 42.6535H73.8304V52.7659H63.7221V50.7177L63.1879 51.2475V52.7637H61.6774L61.1455 53.2959H63.1902V63.4083H53.0866V61.3577L52.557 61.89V63.406H51.0396L50.51 63.9337H52.557L52.5547 74.0507H42.4488V72.0001L41.9169 72.5323V74.0484H40.4018L39.8699 74.5783H41.9192V84.6908H31.8132V82.6448L31.279 83.177V84.6885H29.764L29.2344 85.223H31.279V95.3355H30.4179L30.9498 95.8677H31.279V96.1995L31.8132 96.7317V95.8677H41.9192V105.98H41.0534L41.5876 106.512H41.9192V106.844L42.4511 107.374V106.512H52.557V116.625H51.6958L52.2254 117.155H52.557V117.484L53.0866 118.019V117.155H63.1925L63.1948 127.272H62.3337L62.8633 127.8H63.1948V128.131L63.7267 128.664V127.8H73.835V137.912H72.9715L73.5034 138.444H73.835V138.776L74.3645 139.308V138.444H84.4705V148.557H83.607L84.1389 149.089H84.4705V149.421L85.0024 149.955V149.089H95.1083V159.201H94.2448L94.7767 159.736H95.1083V160.068L95.6379 160.6V159.736H105.746V169.848H104.883L105.412 170.376H105.744L105.746 170.708L106.28 171.24L106.278 170.376H116.386V180.493H115.523L116.055 181.021H116.386V181.352L116.916 181.887V181.021H127.024V183.074L127.554 182.539V181.023H129.069L129.601 180.495H127.551V180.507ZM116.914 169.862V159.75H127.022L127.024 169.862H116.914ZM116.382 117.169V127.286H106.276L106.273 117.169H116.382ZM95.6356 116.639V106.526H105.744L105.742 116.639H95.6356ZM106.273 116.639V106.526H116.382V116.639H106.273ZM106.273 105.992V95.8792H116.382V105.992H106.273ZM116.914 106.526H127.022V116.639H116.914V106.526ZM116.914 105.992V95.8792H127.022V105.992H116.914ZM106.273 95.347L106.276 85.2346H116.382V95.347H106.273ZM105.742 95.347H95.6356V85.2346H105.744L105.742 95.347ZM105.742 95.8816V105.994H95.6356V95.8816H105.742ZM95.106 105.992H85.0001L84.9978 95.8792H95.106V105.992ZM95.106 106.526V116.639H85.0001V106.526H95.106ZM105.742 117.169L105.744 127.286H95.6356V117.169H105.742ZM116.382 127.813V137.926H106.276V127.813H116.382ZM116.914 127.813H127.022V137.926H116.914V127.813ZM116.914 127.286V117.169H127.022V127.286H116.914ZM127.551 117.169H137.657V127.286H127.551V117.169ZM127.551 116.639V106.526H137.657V116.639H127.551ZM138.191 106.526H148.297V116.639H138.191V106.526ZM127.551 105.992V95.8792H137.657V105.992H127.551ZM116.914 95.347V85.2346H127.022V95.347H116.914ZM106.276 84.7L106.273 74.5875H116.382V84.7H106.276ZM95.6356 74.0599V63.9429L105.744 63.9474L105.742 74.0599H95.6356ZM105.742 74.5899L105.744 84.7023H95.6356V74.5899H105.742ZM95.106 84.7L85.0001 84.7069V74.5875H95.106V84.7ZM95.106 85.2369V95.3493H84.9978L85.0001 85.2369H95.106ZM84.4682 95.347H74.3622V85.2346H84.4682V95.347ZM84.4682 95.8816V105.994H74.3622V95.8816H84.4682ZM73.8327 105.992H63.7244V95.8792H73.8327V105.992ZM84.4682 106.526V116.639H74.3622V106.526H84.4682ZM95.106 117.169V127.286H85.0001V117.169H95.106ZM105.744 127.813V137.926H95.6356V127.813H105.744ZM116.382 138.458V148.571H106.276V138.458H116.382ZM127.019 149.103V159.215H116.911V149.103H127.019ZM116.914 148.571V138.458H127.022V148.571H116.914ZM127.551 138.458H137.657V148.571H127.551V138.458ZM127.551 137.926V127.813H137.657V137.93L127.551 137.926ZM138.191 127.813H148.297V137.93H138.191V127.813ZM138.191 127.286V117.169H148.297V127.286H138.191ZM148.827 117.169H158.933L158.935 127.286H148.827V117.169ZM148.827 116.639V106.526H158.935V116.639H148.827ZM138.191 105.992V95.8792H148.297V105.992H138.191ZM127.551 95.347V85.2346H137.657V95.347H127.551ZM116.914 84.7V74.5875H127.022V84.7H116.914ZM106.273 74.0599L106.276 63.9429H116.382V74.0599H106.273ZM95.6356 63.4152V53.3028H105.744V63.4152H95.6356ZM95.106 63.4152H85.0001L84.9978 53.3028H95.106V63.4152ZM95.106 63.9429V74.0599H85.0001V63.9429H95.106ZM84.4682 74.0599H74.3622V63.9429H84.4682V74.0599ZM84.4682 74.5899V84.7092L74.3622 84.7023V74.5899H84.4682ZM73.8327 84.7H63.7244V74.5875H73.8327V84.7ZM73.8327 85.2369V95.3493H63.7244V85.2369H73.8327ZM63.1902 95.347H53.082L53.0843 85.2346H63.1902V95.347ZM63.1902 95.8816V105.994H53.082V95.8816H63.1902ZM73.8327 106.526V116.639H63.7244V106.526H73.8327ZM84.4682 117.169V127.286H74.3622V117.169H84.4682ZM95.106 127.813V137.926L85.0001 137.93V127.813H95.106ZM105.744 138.458V148.571H95.6356V138.458H105.744ZM116.382 149.103V159.215H106.276V149.103H116.382ZM137.655 169.862H127.554L127.551 159.75H137.657L137.655 169.862ZM127.551 159.215V149.103H137.657V159.215H127.551ZM148.295 159.215H138.191V149.103H148.297L148.295 159.215ZM138.191 148.571V138.458H148.297V148.571H138.191ZM158.935 148.571H148.827V138.458H158.935V148.571ZM148.827 137.93V127.813H158.935V137.926L148.827 137.93ZM169.571 137.926H159.465V127.813H169.571V137.926ZM159.465 127.286L159.463 117.169H169.571V127.281L159.465 127.286ZM180.209 117.169V127.286L170.1 127.281V117.169H180.209ZM169.571 106.526V116.639H159.463L159.465 106.526H169.571ZM158.935 95.8816V105.994H148.827V95.8816H158.935ZM148.295 85.2369V95.3493H138.191V85.2369H148.295ZM137.655 74.5899V84.7023H127.549V74.5899H137.655ZM127.019 63.9429V74.0599H116.911V63.9429H127.019ZM116.382 53.3028V63.4152H106.276V53.3028H116.382ZM105.744 42.6581V52.7705H95.6356V42.6581H105.744ZM85.0001 32.0111H95.106V42.1235H84.9978L85.0001 32.0111ZM95.106 42.6581V52.7705H85.0001L84.9978 42.6581H95.106ZM74.3622 42.6581H84.4682V52.7705H74.3622V42.6581ZM84.4682 53.3028V63.4152H74.3622V53.3028H84.4682ZM63.7244 53.3028H73.8327V63.4152H63.7244V53.3028ZM73.8327 63.9429V74.0599H63.7244V63.9429H73.8327ZM53.0866 63.9429H63.1925V74.0599H53.0843L53.0866 63.9429ZM63.1902 74.5899V84.7023H53.0843L53.082 74.5899H63.1902ZM42.4488 74.5899H52.5547L52.557 84.7023H42.4488V74.5899ZM52.5547 85.2369L52.5524 95.3493H42.4465V85.2369H52.5547ZM31.8132 95.347V85.2346H41.9192V95.347H31.8132ZM42.4488 105.992V95.8792H52.5547V105.992H42.4488ZM53.0843 116.639V106.526H63.1925L63.1902 116.639H53.0843ZM63.7244 127.286V117.169H73.8327V127.286H63.7244ZM74.3622 137.926V127.813H84.4682V137.93L74.3622 137.926ZM85.0001 148.571V138.458H95.106V148.571H85.0001ZM95.6356 159.215V149.103H105.744V159.215H95.6356ZM106.273 169.862L106.276 159.75H116.382V169.862H106.273ZM116.914 180.507V170.39H127.024L127.022 180.507H116.914Z" fill="#F1C256"/>
<g opacity="0.3" filter="url(#filter1_f_657_27815)">
<path d="M175.57 148.05L145.252 178.385L109.456 187.991L54.9065 133.403L36.4492 64.4683L66.767 34.131L102.563 24.5277L157.103 79.1059L175.57 148.05Z" fill="black"/>
</g>
<path d="M174.675 169.395L151.016 175.74L149.878 176.049L146.761 176.874L112.731 185.998L112.72 186.007L109.528 186.864H109.517L108.582 187.117L107.083 187.509L85.5427 193.29L78.087 195.292C75.2664 196.048 72.3306 194.357 71.5777 191.534L68.6833 180.737L68.3725 179.599L68.1307 178.664L56.4176 134.915L49.4063 108.761V108.75L48.7455 106.301L44.7897 91.504L37.311 63.6089L33.5785 49.6394C32.8233 46.8032 34.5134 43.8816 37.3432 43.1259L61.002 36.7782L62.1395 36.4718L65.2571 35.6401L99.2867 26.5206L99.2982 26.5068L102.492 25.6566H102.501L103.438 25.4009L104.935 25.0092L126.478 19.2283L133.931 17.2261C136.754 16.4704 139.687 18.1616 140.443 20.9841L143.337 31.7785L143.645 32.919L143.89 33.8521L155.6 77.6014L162.612 103.757V103.766L163.272 106.215L167.231 121.014L174.707 148.909L178.442 162.879C179.195 165.708 177.505 168.639 174.675 169.395Z" fill="#FAFAFA"/>
<path d="M81.7749 184.387C80.6467 184.691 79.4723 184.014 79.1707 182.885L44.478 53.3329C44.1764 52.1993 44.8534 51.0265 45.9816 50.7224L130.241 28.1266C131.37 27.8248 132.544 28.5045 132.848 29.6335L167.536 159.188C167.842 160.321 167.163 161.494 166.035 161.796L81.7749 184.387Z" fill="#C42C27"/>
<path d="M90.4232 182.067L88.6526 181.042L92.9077 173.671L100.278 177.929L99.2536 179.703L104.957 178.178L103.182 177.152L107.439 169.777L114.807 174.035L113.787 175.814L119.488 174.281L117.713 173.263L121.971 165.881L129.341 170.143L128.319 171.915L134.02 170.39L132.247 169.365L136.502 161.989L143.873 166.247L142.85 168.024L148.554 166.491L146.781 165.468L151.038 158.091L158.404 162.351L157.382 164.128L163.087 162.598L161.312 161.572L165.567 154.202L166.313 154.633L165.22 150.545L164.787 151.289L157.416 147.031L161.671 139.661L162.42 140.089L161.326 136.004L160.893 136.751L153.523 132.493L157.778 125.118L158.526 125.553L157.43 121.461L156.999 122.212L149.629 117.954L153.884 110.579L154.632 111.01L153.539 106.923L153.104 107.669L145.735 103.411L149.993 96.036L150.739 96.4692L149.643 92.3841L149.212 93.1307L141.842 88.8705L146.097 81.4952L146.843 81.9237L145.749 77.8387L145.316 78.5898L137.948 74.3273L142.201 66.9566L142.949 67.3875L141.853 63.2979L141.42 64.0444L134.052 59.7865L138.307 52.4112L139.053 52.8467L137.957 48.7617L137.527 49.5059L130.156 45.2479L134.414 37.8727L135.16 38.3013L134.064 34.2162L133.631 34.965L126.263 30.7025L127.283 28.9307L121.581 30.4583L123.354 31.4813L119.097 38.8565L111.727 34.5987L112.751 32.8245L107.048 34.3521L108.823 35.3751L104.566 42.7457L97.1951 38.4902L98.2174 36.716L92.5163 38.2437L94.2869 39.2667L90.0318 46.6419L82.6636 42.384L83.6859 40.6099L77.9848 42.1375L79.7555 43.1605L75.5003 50.5357L68.1298 46.2779L69.1545 44.5014L63.4511 46.0313L65.2263 47.052L60.9689 54.4273L53.5961 50.1694L54.6207 48.3952L48.9196 49.9229L50.6949 50.9459L46.4374 58.3211L45.6914 57.8902L46.7874 61.9776L47.218 61.2265L54.5885 65.489L50.3334 72.8596L49.585 72.4311L50.6811 76.5162L51.1139 75.772L58.4821 80.0298L54.227 87.4051L53.481 86.9719L54.577 91.057L55.0076 90.3105L62.3781 94.5684L58.1229 101.946L57.3746 101.513L58.4729 105.6L58.9058 104.849L66.274 109.112L62.0189 116.487L61.2705 116.054L62.3665 120.141L62.7971 119.394L70.1676 123.652L65.9125 131.028L65.1642 130.594L66.2602 134.684L66.693 133.935L74.0635 138.193L69.8061 145.568L69.0578 145.138L70.1538 149.223L70.5867 148.476L77.9549 152.734L73.6997 160.105L72.9537 159.674L74.0474 163.761L74.4803 163.015L81.8531 167.273L77.5957 174.648L76.8496 174.212L77.9434 178.304L78.3762 177.553L85.7444 181.811L84.7221 183.588L90.4232 182.067ZM84.7566 166.503L89.0118 159.132L96.3846 163.39L92.1294 170.761L84.7566 166.503ZM108.448 121.189L104.193 128.565L96.822 124.307L101.077 116.931L108.448 121.189ZM92.9261 109.768L97.1812 102.393L104.549 106.651L100.294 114.026L92.9261 109.768ZM102.136 115.091L106.394 107.713L113.762 111.973L109.507 119.348L102.136 115.091ZM107.458 105.87L111.713 98.4945L119.083 102.752L114.826 110.13L107.458 105.87ZM115.604 113.038L122.979 117.296L118.719 124.666L111.349 120.408L115.604 113.038ZM116.67 111.194L120.928 103.814L128.296 108.077L124.041 115.448L116.67 111.194ZM112.776 96.6512L117.036 89.276L124.404 93.5338L120.149 100.909L112.776 96.6512ZM110.934 95.589L103.564 91.3312L107.819 83.9559L115.192 88.2138L110.934 95.589ZM109.871 97.4323L105.616 104.803L98.2473 100.55L102.502 93.1744L109.871 97.4323ZM96.403 99.4806L89.0348 95.2227L93.2899 87.8475L100.66 92.11L96.403 99.4806ZM95.3392 101.328L91.0841 108.699L83.7113 104.441L87.9687 97.066L95.3392 101.328ZM99.2351 115.869L94.98 123.245L87.6072 118.987L91.8646 111.611L99.2351 115.869ZM103.126 130.408L98.869 137.783L91.5008 133.525L95.756 126.15L103.126 130.408ZM104.968 131.475L112.339 135.732L108.084 143.11L100.713 138.845L104.968 131.475ZM106.035 129.627L110.29 122.252L117.66 126.514L113.403 133.885L106.035 129.627ZM119.5 127.578L126.87 131.836L122.613 139.212L115.245 134.954L119.5 127.578ZM120.564 125.735L124.821 118.36L132.189 122.618L127.932 129.993L120.564 125.735ZM134.034 123.678L141.402 127.943L137.147 135.313L129.774 131.053L134.034 123.678ZM125.885 116.517L130.138 109.141L137.508 113.399L133.253 120.775L125.885 116.517ZM121.991 101.971L126.246 94.596L133.619 98.8585L129.362 106.234L121.991 101.971ZM118.095 87.4328L122.351 80.0575L129.721 84.3154L125.464 91.6906L118.095 87.4328ZM114.204 72.8942L118.459 65.5166L125.83 69.7768L121.572 77.1521L114.204 72.8942ZM120.508 78.9953L116.253 86.3706L108.883 82.1127L113.14 74.7374L120.508 78.9953ZM107.041 81.0436L99.6703 76.7858L103.928 69.4105L111.298 73.673L107.041 81.0436ZM105.975 82.8868L101.72 90.2667L94.3491 86.0042L98.6065 78.629L105.975 82.8868ZM92.5093 84.9444L85.1389 80.6842L89.394 73.3089L96.7645 77.5668L92.5093 84.9444ZM91.4479 86.7876L87.1904 94.1629L79.8223 89.905L84.0774 82.5275L91.4479 86.7876ZM77.9779 88.8359L70.6074 84.578L74.8648 77.2074L82.233 81.4653L77.9779 88.8359ZM86.1244 96.0061L81.8692 103.381L74.501 99.1234L78.7562 91.7482L86.1244 96.0061ZM90.0226 110.547L85.7652 117.918L78.3947 113.66L82.6498 106.284L90.0226 110.547ZM93.9116 125.088L89.6588 132.463L82.2883 128.201L86.5457 120.83L93.9116 125.088ZM97.8075 139.626L93.5524 147.002L86.1819 142.744L90.4394 135.368L97.8075 139.626ZM101.703 154.172L97.4483 161.547L90.0755 157.285L94.333 149.907L101.703 154.172ZM95.3945 148.064L99.6496 140.693L107.022 144.953L102.765 152.329L95.3945 148.064ZM108.862 146.015L116.233 150.273L111.977 157.649L104.605 153.391L108.862 146.015ZM109.928 144.172L114.181 136.797L121.552 141.055L117.294 148.43L109.928 144.172ZM123.394 142.117L130.764 146.375L126.507 153.75L119.138 149.492L123.394 142.117ZM124.46 140.274L128.715 132.896L136.085 137.156L131.83 144.532L124.46 140.274ZM137.925 138.223L145.293 142.481L141.038 149.856L133.67 145.594L137.925 138.223ZM138.989 136.38L143.244 129.005L150.614 133.263L146.359 140.638L138.989 136.38ZM135.097 121.834L139.353 114.459L146.721 118.722L142.463 126.092L135.097 121.834ZM131.204 107.298L135.461 99.923L142.829 104.181L138.574 111.556L131.204 107.298ZM127.308 92.7528L131.565 85.3821L138.934 89.64L134.678 97.0153L127.308 92.7528ZM123.417 78.2143L127.672 70.839L135.042 75.0969L130.787 82.4721L123.417 78.2143ZM119.518 63.6734L123.776 56.2982L131.144 60.556L126.889 67.9336L119.518 63.6734ZM117.679 62.6066L110.31 58.3487L114.566 50.9735L121.934 55.236L117.679 62.6066ZM116.617 64.4499L112.362 71.8251L104.992 67.5672L109.247 60.192L116.617 64.4499ZM103.149 66.5051L95.7767 62.2472L100.034 54.8719L107.405 59.1299L103.149 66.5051ZM102.083 68.3483L97.8283 75.7236L90.4578 71.4657L94.7129 64.0904L102.083 68.3483ZM88.6134 70.4035L81.2452 66.1411L85.5027 58.7704L92.8709 63.0283L88.6134 70.4035ZM87.5519 72.2468L83.2968 79.622L75.9263 75.3595L80.1814 67.9843L87.5519 72.2468ZM74.0843 74.2973L66.7138 70.0395L70.9712 62.6643L78.3394 66.9221L74.0843 74.2973ZM73.0228 76.1383L68.7654 83.5135L61.3926 79.2557L65.65 71.8804L73.0228 76.1383ZM76.9141 90.6837L72.6567 98.0544L65.2862 93.7965L69.5459 86.4259L76.9141 90.6837ZM80.8077 105.225L76.5526 112.6L69.1821 108.342L73.4372 100.967L80.8077 105.225ZM84.7014 119.761L80.4462 127.138L73.0758 122.878L77.3332 115.503L84.7014 119.761ZM88.595 134.306L84.3399 141.682L76.9694 137.419L81.2268 130.048L88.595 134.306ZM92.4886 148.845L88.2335 156.22L80.863 151.962L85.1204 144.587L92.4886 148.845ZM101.34 176.083L93.9715 171.825L98.2266 164.45L105.595 168.708L101.34 176.083ZM99.2904 162.609L103.546 155.234L110.916 159.492L106.659 166.867L99.2904 162.609ZM115.869 172.187L108.503 167.929L112.758 160.554L120.126 164.812L115.869 172.187ZM113.824 158.711L118.077 151.335L125.447 155.593L121.192 162.969L113.824 158.711ZM130.405 168.296L123.034 164.031L127.29 156.66L134.66 160.918L130.405 168.296ZM128.349 154.812L132.606 147.442L139.974 151.699L135.721 159.075L128.349 154.812ZM144.932 164.395L137.564 160.137L141.821 152.762L149.191 157.02L144.932 164.395ZM142.885 150.918L147.14 143.543L154.51 147.801L150.255 155.176L142.885 150.918ZM163.723 153.121L159.468 160.499L152.097 156.238L156.352 148.863L163.723 153.121ZM159.827 138.583L155.572 145.958L148.201 141.7L152.459 134.325L159.827 138.583ZM155.933 124.044L151.678 131.419L144.305 127.161L148.563 119.786L155.933 124.044ZM152.04 109.499L147.785 116.874L140.414 112.616L144.669 105.245L152.04 109.499ZM148.148 94.9601L143.891 102.335L136.52 98.0774L140.776 90.6999L148.148 94.9601ZM144.252 80.4216L139.995 87.7968L132.627 83.5343L136.882 76.159L144.252 80.4216ZM140.359 65.8807L136.101 73.2514L128.731 68.9934L132.991 61.6182L140.359 65.8807ZM136.465 51.3375L132.21 58.7128L124.84 54.4549L129.097 47.0797L136.465 51.3375ZM125.203 32.5365L132.572 36.799L128.316 44.1766L120.944 39.9141L125.203 32.5365ZM127.255 46.0175L122.998 53.3882L115.629 49.1302L119.884 41.755L127.255 46.0175ZM110.672 36.435L118.042 40.6928L113.785 48.0681L106.417 43.8102L110.672 36.435ZM112.721 49.9114L108.464 57.2866L101.096 53.0287L105.351 45.6534L112.721 49.9114ZM96.1359 40.3311L103.509 44.5913L99.2512 51.9619L91.8831 47.7017L96.1359 40.3311ZM98.1921 53.8052L93.9346 61.1851L86.5641 56.9226L90.8193 49.545L98.1921 53.8052ZM81.6044 44.2272L88.9749 48.4851L84.7198 55.8604L77.3493 51.6025L81.6044 44.2272ZM83.6583 57.7036L79.4009 65.0788L72.0327 60.821L76.2878 53.4458L83.6583 57.7036ZM67.0776 48.1234L74.4458 52.3813L70.1906 59.7588L62.8201 55.4941L67.0776 48.1234ZM69.1269 61.6021L64.8717 68.9773L57.5012 64.7195L61.7587 57.3373L69.1269 61.6021ZM48.2887 59.3948L52.5461 52.0241L59.9143 56.2774L55.6592 63.6527L48.2887 59.3948ZM52.1823 73.9379L56.4375 66.5627L63.8056 70.8205L59.5505 78.1912L52.1823 73.9379ZM56.0759 88.4765L60.3334 81.1012L67.7039 85.3591L63.4464 92.7344L56.0759 88.4765ZM59.9696 103.017L64.2247 95.6421L71.5952 99.8999L67.3401 107.275L59.9696 103.017ZM63.8632 117.56L68.1183 110.185L75.4888 114.443L71.2337 121.818L63.8632 117.56ZM67.7568 132.099L72.012 124.721L79.3825 128.982L75.1273 136.357L67.7568 132.099ZM71.6528 146.638L75.9079 139.267L83.2761 143.525L79.021 150.9L71.6528 146.638ZM75.5441 161.183L79.8015 153.808L87.1697 158.066L82.9146 165.441L75.5441 161.183ZM79.4377 175.722L83.6952 168.346L91.0656 172.609L86.8105 179.979L79.4377 175.722Z" fill="white"/>
<path d="M87.5645 181.341L92.6209 172.579L101.373 177.634L100.348 179.408L101.076 179.214L101.831 177.901L103.141 178.662L103.869 178.468L102.094 177.443L107.145 168.687L115.897 173.742L114.875 175.514L115.6 175.321L116.358 174.007L117.67 174.763L118.393 174.57L116.62 173.547L121.675 164.789L130.427 169.844L129.407 171.618L130.13 171.424L130.887 170.111L132.2 170.872L132.925 170.673L131.15 169.653L136.204 160.893L144.953 165.948L143.931 167.724L144.659 167.531L145.414 166.22L146.726 166.975L147.452 166.78L145.677 165.757L150.731 156.999L159.483 162.054L158.458 163.828L159.183 163.635L159.943 162.321L161.256 163.081L161.981 162.883L160.206 161.858L165.257 153.103L166.003 153.538L165.81 152.812L165.525 152.642L165.688 152.358L165.492 151.633L165.062 152.379L156.31 147.324L161.364 138.566L162.108 138.995L161.912 138.269L161.626 138.103L161.792 137.815L161.596 137.092L161.166 137.838L152.411 132.783L157.463 124.021L158.209 124.457L158.016 123.728L157.728 123.565L157.892 123.277L157.698 122.549L157.265 123.295L148.513 118.24L153.565 109.485L154.313 109.913L154.12 109.185L153.83 109.022L153.996 108.738L153.8 108.012L153.369 108.757L144.617 103.702L149.669 94.9463L150.415 95.3748L150.222 94.649L149.934 94.4832L150.097 94.1997L149.904 93.4739L149.471 94.2205L140.719 89.1654L145.771 80.4031L146.519 80.8316L146.324 80.1105L146.038 79.9469L146.201 79.6566L146.006 78.9308L145.575 79.6819L136.821 74.6223L141.873 65.8669L142.621 66.2954L142.428 65.572L142.14 65.4038L142.306 65.1158L142.108 64.3923L141.675 65.1388L132.925 60.0837L137.977 51.3238L138.723 51.7592L138.529 51.0334L138.242 50.8675L138.407 50.5795L138.212 49.8538L137.779 50.6026L129.029 45.5475L134.081 36.7875L134.827 37.2184L134.631 36.4926L134.343 36.329L134.511 36.041L134.316 35.3152L133.883 36.0617L125.133 31.0066L126.155 29.2325L125.428 29.426L124.67 30.7394L123.362 29.9814L122.635 30.1772L124.41 31.1979L119.356 39.9579L110.604 34.9005L111.626 33.1264L110.901 33.3222L110.143 34.6309L108.833 33.8752L108.106 34.0711L109.881 35.0941L104.829 43.8517L96.0771 38.7966L97.0971 37.0226L96.3741 37.2161L95.6142 38.5294L94.3041 37.7736L93.5811 37.9672L95.3517 38.9901L90.2999 47.7479L81.5479 42.6928L82.5725 40.9186L81.8426 41.1145L81.0851 42.4255L79.7726 41.6652L79.0473 41.8587L80.8203 42.884L75.7685 51.6394L67.0164 46.5843L68.0411 44.8125L67.3135 45.0061L66.5582 46.3193L65.2481 45.5637L64.5205 45.7572L66.2957 46.7825L61.2416 55.5378L52.4896 50.4827L53.5119 48.7087L52.7889 48.9045L52.0291 50.2155L50.7189 49.4552L49.9913 49.6487L51.7666 50.674L46.7148 59.434L45.9688 58.9985L46.1622 59.7266L46.4477 59.8902L46.2842 60.1782L46.4799 60.9063L46.9105 60.1598L55.6648 65.2149L50.6107 73.9702L49.8647 73.5416L50.0604 74.2652L50.3459 74.4356L50.1801 74.719L50.3759 75.4448L50.8087 74.7006L59.5585 79.7557L54.5066 88.511L53.7606 88.0825L53.954 88.8083L54.2395 88.9741L54.0761 89.2621L54.2718 89.9834L54.7024 89.2368L63.4544 94.2919L58.4049 103.054L57.6588 102.619L57.8546 103.347L58.1401 103.51L57.9743 103.798L58.1677 104.526L58.6006 103.78L67.3549 108.835L62.3008 117.59L61.5548 117.16L61.7482 117.888L62.036 118.051L61.8725 118.339L62.0659 119.063L62.4988 118.316L71.2509 123.371L66.199 132.127L65.4507 131.696L65.6487 132.422L65.9342 132.587L65.7685 132.875L65.9642 133.601L66.3948 132.85L75.1491 137.912L70.0973 146.667L69.3489 146.237L69.5447 146.96L69.8302 147.131L69.6667 147.414L69.8624 148.14L70.2953 147.393L79.045 152.448L73.9932 161.206L73.2472 160.773L73.4406 161.501L73.7284 161.665L73.5626 161.948L73.7583 162.676L74.1889 161.929L82.9433 166.985L77.8914 175.74L77.1454 175.311L77.3388 176.04L77.6266 176.203L77.4586 176.491L77.6566 177.219L78.0895 176.468L86.8415 181.528L85.8192 183.3L86.5468 183.106L87.3043 181.793L88.6168 182.548L89.3421 182.355L87.5645 181.341ZM83.6732 166.796L88.725 158.04L97.477 163.095L92.4275 171.851L83.6732 166.796ZM109.54 120.894L104.488 129.657L95.734 124.602L100.786 115.839L109.54 120.894ZM91.845 110.056L96.8968 101.301L105.646 106.356L100.595 115.111L91.845 110.056ZM101.055 115.383L106.107 106.621L114.859 111.681L109.807 120.438L101.055 115.383ZM106.374 106.165L111.426 97.4024L120.178 102.457L115.124 111.22L106.374 106.165ZM115.32 111.948L124.074 117.003L119.022 125.758L110.268 120.703L115.32 111.948ZM115.587 111.482L120.638 102.727L129.391 107.782L124.339 116.537L115.587 111.482ZM111.691 96.9462L116.745 88.1839L125.499 93.239L120.447 102.001L111.691 96.9462ZM111.233 96.6743L102.478 91.6238L107.532 82.8639L116.287 87.9189L111.233 96.6743ZM110.965 97.1397L105.916 105.895L97.1639 100.84L102.216 92.0846L110.965 97.1397ZM96.7011 100.573L87.949 95.5177L93.0008 86.7577L101.753 91.8173L96.7011 100.573ZM96.434 101.036L91.3821 109.791L82.6301 104.736L87.6819 95.9761L96.434 101.036ZM100.328 115.577L95.2758 124.332L86.5214 119.282L91.5756 110.522L100.328 115.577ZM104.221 130.115L99.1694 138.875L90.4174 133.82L95.4715 125.06L104.221 130.115ZM104.682 130.382L113.434 135.438L108.382 144.195L99.6299 139.14L104.682 130.382ZM104.949 129.919L110.001 121.164L118.755 126.219L113.703 134.974L104.949 129.919ZM119.215 126.486L127.97 131.541L122.916 140.301L114.164 135.242L119.215 126.486ZM119.48 126.028L124.532 117.268L133.286 122.328L128.235 131.083L119.48 126.028ZM133.745 122.592L142.497 127.648L137.447 136.405L128.693 131.35L133.745 122.592ZM124.799 116.805L129.851 108.049L138.603 113.104L133.549 121.864L124.799 116.805ZM120.903 102.264L125.955 93.5085L134.712 98.5636L129.66 107.319L120.903 102.264ZM117.012 87.7254L122.064 78.9654L130.813 84.0205L125.762 92.7804L117.012 87.7254ZM113.118 73.1823L118.17 64.4245L126.922 69.4796L121.87 78.2373L113.118 73.1823ZM121.603 78.7004L116.554 87.4581L107.799 82.403L112.854 73.6453L121.603 78.7004ZM107.337 82.1358L98.5868 77.0807L103.639 68.3253L112.391 73.3804L107.337 82.1358ZM107.074 82.5988L102.022 91.3543L93.2656 86.2992L98.3198 77.5438L107.074 82.5988ZM92.8051 86.0296L84.0554 80.9791L89.1072 72.2169L97.8592 77.2719L92.8051 86.0296ZM92.5403 86.4927L87.4885 95.255L78.7365 90.1999L83.7883 81.4376L92.5403 86.4927ZM78.276 89.928L69.5216 84.8729L74.5735 76.1176L83.3278 81.1727L78.276 89.928ZM87.2214 95.7112L82.1696 104.474L73.4176 99.4161L78.4694 90.6538L87.2214 95.7112ZM91.1173 110.25L86.0632 119.012L77.3089 113.957L82.3607 105.195L91.1173 110.25ZM95.0087 124.795L89.9569 133.555L81.2048 128.495L86.2589 119.74L95.0087 124.795ZM98.9023 139.334L93.8528 148.094L85.0961 143.039L90.1503 134.279L98.9023 139.334ZM102.798 153.877L97.7464 162.635L88.9944 157.579L94.0462 148.817L102.798 153.877ZM94.3087 148.359L99.3605 139.601L108.117 144.656L103.065 153.414L94.3087 148.359ZM108.575 144.923L117.33 149.978L112.278 158.734L103.524 153.683L108.575 144.923ZM108.845 144.465L113.897 135.705L122.649 140.76L117.594 149.52L108.845 144.465ZM123.107 141.025L131.859 146.08L126.807 154.842L118.057 149.787L123.107 141.025ZM123.374 140.566L128.426 131.804L137.178 136.859L132.126 145.621L123.374 140.566ZM137.638 137.131L146.39 142.186L141.338 150.942L132.586 145.886L137.638 137.131ZM137.903 136.668L142.959 127.913L151.712 132.968L146.66 141.723L137.903 136.668ZM134.012 122.129L139.064 113.367L147.813 118.427L142.761 127.184L134.012 122.129ZM130.118 107.591L135.172 98.8286L143.924 103.884L138.87 112.646L130.118 107.591ZM126.222 93.0454L131.274 84.29L140.026 89.3451L134.974 98.1005L126.222 93.0454ZM122.331 78.5069L127.383 69.7469L136.135 74.8019L131.083 83.5619L122.331 78.5069ZM118.437 63.9638L123.489 55.2061L132.243 60.2612L127.192 69.0234L118.437 63.9638ZM117.974 63.6987L109.222 58.6437L114.274 49.8883L123.026 54.9434L117.974 63.6987ZM117.71 64.1619L112.66 72.9172L103.903 67.8622L108.96 59.1068L117.71 64.1619ZM103.445 67.5972L94.6909 62.5421L99.7427 53.7822L108.499 58.8372L103.445 67.5972ZM103.18 68.0557L98.1263 76.818L89.3766 71.7629L94.4284 63.0007L103.18 68.0557ZM88.9115 71.4911L80.1618 66.436L85.2136 57.6806L93.9633 62.7357L88.9115 71.4911ZM88.6467 71.9542L83.5926 80.7141L74.8429 75.6545L79.8947 66.8991L88.6467 71.9542ZM74.3823 75.3872L65.628 70.3322L70.6821 61.5722L79.4342 66.6272L74.3823 75.3872ZM74.1175 75.848L69.0657 84.608L60.3114 79.5529L65.3632 70.7929L74.1175 75.848ZM78.0089 90.3912L72.9571 99.1465L64.205 94.0914L69.2568 85.3361L78.0089 90.3912ZM81.9048 104.932L76.8507 113.687L68.0964 108.637L73.1482 99.8769L81.9048 104.932ZM85.7984 119.473L80.7443 128.231L71.9946 123.175L77.0464 114.413L85.7984 119.473ZM89.6898 134.014L84.6379 142.774L75.8836 137.714L80.9377 128.959L89.6898 134.014ZM93.5857 148.552L88.5316 157.312L79.7818 152.257L84.8337 143.497L93.5857 148.552ZM101.638 177.178L92.888 172.123L97.9375 163.36L106.69 168.415L101.638 177.178ZM98.2069 162.902L103.259 154.142L112.011 159.197L106.957 167.957L98.2069 162.902ZM116.167 173.279L107.417 168.224L112.469 159.464L121.219 164.519L116.167 173.279ZM112.738 159.003L117.79 150.248L126.542 155.303L121.488 164.058L112.738 159.003ZM130.703 169.385L121.949 164.326L127 155.568L135.755 160.623L130.703 169.385ZM127.268 155.105L132.322 146.35L141.074 151.405L136.022 160.16L127.268 155.105ZM145.232 165.487L136.478 160.432L141.53 151.672L150.284 156.727L145.232 165.487ZM141.799 151.211L146.851 142.451L155.603 147.506L150.551 156.266L141.799 151.211ZM164.815 152.833L159.764 161.591L151.012 156.536L156.063 147.778L164.815 152.833ZM160.924 138.295L155.872 147.05L147.118 141.995L152.172 133.235L160.924 138.295ZM157.026 123.749L151.979 132.505L143.222 127.449L148.276 118.694L157.026 123.749ZM153.137 109.211L148.083 117.966L139.331 112.911L144.385 104.156L153.137 109.211ZM149.245 94.6675L144.191 103.43L135.439 98.3747L140.491 89.6124L149.245 94.6675ZM145.35 80.1289L140.298 88.8843L131.543 83.8292L136.595 75.0738L145.35 80.1289ZM141.456 65.5881L136.404 74.3435L127.65 69.2884L132.704 60.5284L141.456 65.5881ZM137.558 51.045L132.508 59.8003L123.756 54.7452L128.808 45.9899L137.558 51.045ZM124.914 31.449L133.669 36.5041L128.617 45.2618L119.86 40.2067L124.914 31.449ZM128.347 45.7249L123.296 54.4803L114.544 49.4252L119.595 40.6629L128.347 45.7249ZM110.385 35.3429L119.137 40.398L114.083 49.158L105.333 44.1029L110.385 35.3429ZM113.816 49.6187L108.764 58.3787L100.012 53.3236L105.064 44.5637L113.816 49.6187ZM95.8514 39.2413L104.603 44.2964L99.5516 53.0541L90.7996 47.999L95.8514 39.2413ZM99.2868 53.5149L94.235 62.2726L85.4784 57.2175L90.5302 48.4598L99.2868 53.5149ZM81.32 43.1352L90.0743 48.1902L85.0225 56.9502L76.2681 51.8951L81.32 43.1352ZM84.7531 57.4111L79.7013 66.1711L70.9515 61.116L76.0033 52.356L84.7531 57.4111ZM66.7885 47.0336L75.5405 52.0887L70.491 60.8464L61.7367 55.7913L66.7885 47.0336ZM70.2216 61.3072L65.1698 70.0648L56.4178 65.0144L61.4696 56.2521L70.2216 61.3072ZM47.2052 59.6874L52.257 50.9321L61.0091 55.9871L55.9573 64.7425L47.2052 59.6874ZM51.0989 74.2259L56.1507 65.4683L64.905 70.5233L59.8532 79.281L51.0989 74.2259ZM54.9925 88.7714L60.0466 80.0091L68.7963 85.0688L63.7445 93.8265L54.9925 88.7714ZM58.8861 103.31L63.9356 94.5546L72.69 99.6097L67.6358 108.365L58.8861 103.31ZM62.782 117.853L67.8339 109.093L76.5859 114.148L71.5318 122.908L62.782 117.853ZM66.6734 132.394L71.7252 123.636L80.4772 128.687L75.4254 137.449L66.6734 132.394ZM70.567 146.93L75.6188 138.175L84.3731 143.23L79.3213 151.985L70.567 146.93ZM74.4606 161.476L79.5124 152.716L88.2645 157.775L83.2127 166.531L74.4606 161.476ZM78.352 176.014L83.4038 167.254L92.1604 172.314L87.1086 181.069L78.352 176.014Z" fill="#F1C256"/>
<g opacity="0.3" filter="url(#filter2_f_657_27815)">
<path d="M166.409 88.4211L163.271 106.215L151.673 171.959L151.014 175.74L146.759 176.873L145.249 178.385L131.772 191.877L109.391 187.926L107.082 187.509L68.6794 180.74L56.4137 134.914L45.6055 124.099L48.7416 106.3L60.3395 40.5591L60.9981 36.7805L65.2532 35.64L66.7637 34.1308L80.2429 20.6429L102.624 24.5921L104.931 25.0091L143.335 31.7807L155.599 77.6035L166.409 88.4211Z" fill="black"/>
</g>
<path d="M173.233 43.5406L170.935 56.5584L165.489 87.4948L162.616 103.759V103.768L157.543 132.574L150.371 173.27L149.882 176.049L147.746 188.2C147.232 191.087 144.455 193.025 141.584 192.523L132.692 190.958L111.692 187.246L109.532 186.864H109.521L108.075 186.603L69.4701 179.795L68.3718 179.601L43.0966 175.138C40.2253 174.639 38.2774 171.86 38.7885 168.978L41.0842 155.962L46.532 125.025L49.4033 108.761V108.75L54.4782 79.9468L61.6484 39.2504L62.1365 36.4718L64.2733 24.3179C64.7867 21.431 67.5636 19.4932 70.4349 19.9955L79.3274 21.56L100.327 25.2741L102.487 25.6566H102.496L103.942 25.91L142.549 32.723L143.645 32.9189L168.911 37.3773C171.794 37.8749 173.739 40.6536 173.233 43.5406Z" fill="#FAFAFA"/>
<path d="M51.0503 166.819C49.8991 166.616 49.1208 165.508 49.3257 164.353L72.6023 32.2692C72.8049 31.1149 73.9125 30.3407 75.066 30.5435L160.97 45.6972C162.121 45.9046 162.902 47.0105 162.697 48.1671L139.423 180.253C139.218 181.406 138.11 182.18 136.957 181.977L51.0503 166.819Z" fill="#C42C27"/>
<path d="M59.8706 168.378L58.6962 166.699L65.6684 161.816L70.5475 168.791L68.8712 169.968L74.6829 170.994L73.5086 169.316L80.4762 164.432L85.3599 171.404L83.6813 172.581L89.493 173.606L88.3187 171.929L95.2908 167.044L100.172 174.019L98.4937 175.196L104.305 176.219L103.131 174.542L110.103 169.655L114.982 176.634L113.306 177.807L119.118 178.836L117.943 177.154L124.916 172.27L129.797 179.247L128.118 180.424L133.932 181.449L132.756 179.772L139.73 174.887L140.223 175.597L140.957 171.429L140.248 171.92L135.365 164.948L142.339 160.065L142.832 160.77L143.566 156.602L142.857 157.1L137.98 150.121L144.948 145.241L145.443 145.951L146.177 141.78L145.468 142.274L140.587 135.299L147.557 130.415L148.054 131.124L148.788 126.956L148.082 127.452L143.198 120.477L150.17 115.593L150.663 116.298L151.397 112.134L150.69 112.625L145.811 105.653L152.779 100.766L153.276 101.476L154.008 97.3078L153.302 97.8054L148.42 90.8265L155.39 85.9465L155.887 86.6562L156.617 82.4835L155.913 82.9812L151.029 76.0069L158.001 71.1223L158.496 71.832L159.231 67.6639L158.521 68.1593L153.64 61.185L160.61 56.3003L161.107 57.0054L161.842 52.842L161.133 53.3327L156.251 46.3607L157.927 45.1833L152.116 44.158L153.292 45.8377L146.32 50.7222L141.439 43.7479L143.117 42.5705L137.303 41.5475L138.478 43.2226L131.51 48.1095L126.626 41.1305L128.305 39.9578L122.493 38.9324L123.668 40.6098L116.695 45.4898L111.816 38.5177L113.493 37.3426L107.681 36.3151L108.855 37.9947L101.883 42.877L97.0039 35.9026L98.6802 34.7253L92.8662 33.7023L94.0405 35.3773L87.0707 40.2642L82.1893 33.2898L83.8678 32.1125L78.0539 31.0872L79.2282 32.7645L72.2583 37.6491L71.7633 36.9395L71.0287 41.1098L71.7379 40.6121L76.6194 47.591L69.6495 52.471L69.1522 51.7614L68.4176 55.934L69.1268 55.4386L74.0083 62.4107L67.0361 67.2976L66.5434 66.588L65.8088 70.756L66.5157 70.2606L71.3949 77.2372L64.4273 82.1195L63.93 81.4145L63.1977 85.5825L63.9069 85.0848L68.7861 92.0592L61.8139 96.9437L61.3212 96.2341L60.5866 100.404L61.2935 99.9068L66.1773 106.886L59.2051 111.766L58.7124 111.056L57.9755 115.229L58.6847 114.733L63.5638 121.705L56.5963 126.592L56.099 125.883L55.3667 130.051L56.0759 129.555L60.9527 136.532L53.9829 141.414L53.4878 140.709L52.7556 144.877L53.4625 144.379L58.3439 151.354L51.3741 156.238L50.879 155.529L50.1445 159.699L50.8537 159.201L55.7328 166.18L54.0566 167.353L59.8706 168.378ZM61.3073 151.875L68.2772 146.99L73.1586 153.967L66.1911 158.849L61.3073 151.875ZM101.915 120.821L94.9454 125.705L90.064 118.733L97.0339 113.846L101.915 120.821ZM92.6774 103.904L99.6473 99.0243L104.529 105.996L97.5565 110.883L92.6774 103.904ZM98.7792 112.625L105.749 107.741L110.628 114.715L103.658 119.599L98.7792 112.625ZM107.492 106.517L114.462 101.637L119.343 108.609L112.374 113.496L107.492 106.517ZM111.849 116.464L116.732 123.436L109.758 128.323L104.881 121.344L111.849 116.464ZM113.592 115.24L120.561 110.353L125.445 117.332L118.473 122.212L113.592 115.24ZM116.205 100.418L123.179 95.5337L128.059 102.506L121.086 107.393L116.205 100.418ZM114.985 98.6695L110.105 91.6951L117.075 86.8105L121.957 93.7895L114.985 98.6695ZM113.244 99.8929L106.274 104.777L101.393 97.8009L108.362 92.9185L113.244 99.8929ZM100.168 96.0567L95.2862 89.0824L102.261 84.1977L107.14 91.1744L100.168 96.0567ZM98.4292 97.2801L91.4571 102.16L86.5733 95.1858L93.5455 90.3012L98.4292 97.2801ZM95.8135 112.102L88.8437 116.989L83.9622 110.015L90.9344 105.13L95.8135 112.102ZM93.2024 126.929L86.2303 131.809L81.3534 124.837L88.321 119.95L93.2024 126.929ZM94.4228 128.673L99.3042 135.647L92.332 140.532L87.4506 133.553L94.4228 128.673ZM96.1658 127.449L103.136 122.565L108.017 129.541L101.047 134.428L96.1658 127.449ZM109.24 131.286L114.121 138.26L107.149 143.144L102.268 136.172L109.24 131.286ZM110.98 130.062L117.95 125.182L122.832 132.156L115.862 137.041L110.98 130.062ZM124.052 133.901L128.934 140.873L121.964 145.76L117.085 138.785L124.052 133.901ZM119.698 123.956L126.663 119.076L131.547 126.051L124.575 130.935L119.698 123.956ZM122.304 109.137L129.277 104.25L134.158 111.229L127.188 116.109L122.304 109.137ZM124.92 94.3079L131.89 89.4256L136.774 96.4L129.799 101.285L124.92 94.3079ZM127.534 79.486L134.501 74.6014L139.385 81.578L132.413 86.4604L127.534 79.486ZM130.67 87.6838L123.7 92.5637L118.818 85.5894L125.791 80.7048L130.67 87.6838ZM117.596 83.8452L112.717 76.8732L119.686 71.9863L124.568 78.9607L117.596 83.8452ZM115.857 85.0664L108.885 89.9533L104.006 82.9789L110.974 78.0943L115.857 85.0664ZM102.781 81.2324L97.9019 74.2581L104.872 69.3735L109.753 76.3479L102.781 81.2324ZM101.04 82.4536L94.0682 87.3382L89.189 80.3615L96.1566 75.4792L101.04 82.4536ZM87.9664 78.6173L83.085 71.643L90.0571 66.7584L94.9362 73.7351L87.9664 78.6173ZM92.3251 88.557L85.3553 93.4416L80.4739 86.4696L87.4437 81.5827L92.3251 88.557ZM89.714 103.386L82.7419 108.266L77.8628 101.294L84.8326 96.4115L89.714 103.386ZM87.1006 118.208L80.1308 123.092L75.2493 116.113L82.2192 111.233L87.1006 118.208ZM84.4872 133.034L77.5197 137.917L72.6382 130.942L79.6081 126.062L84.4872 133.034ZM81.8761 147.856L74.9063 152.741L70.0248 145.769L76.997 140.882L81.8761 147.856ZM78.7377 139.661L85.7053 134.778L90.589 141.753L83.6168 146.637L78.7377 139.661ZM91.8094 143.497L96.6908 150.474L89.7209 155.356L84.8395 148.382L91.8094 143.497ZM93.5524 142.278L100.522 137.394L105.404 144.366L98.4338 149.253L93.5524 142.278ZM106.626 146.11L111.505 153.089L104.536 157.973L99.6542 150.994L106.626 146.11ZM108.369 144.889L115.342 140.004L120.221 146.983L113.251 151.863L108.369 144.889ZM121.441 148.72L126.322 155.699L119.35 160.584L114.471 153.607L121.441 148.72ZM123.184 147.504L130.152 142.621L135.035 149.596L128.063 154.48L123.184 147.504ZM125.795 132.682L132.767 127.795L137.646 134.769L130.677 139.654L125.795 132.682ZM128.406 117.853L135.381 112.973L140.26 119.945L133.29 124.832L128.406 117.853ZM131.022 103.029L137.99 98.1441L142.873 105.119L135.903 110.003L131.022 103.029ZM133.633 88.2045L140.603 83.3176L145.484 90.2965L138.512 95.1765L133.633 88.2045ZM136.244 73.3803L143.216 68.4934L148.095 75.4677L141.128 80.3523L136.244 73.3803ZM135.026 71.6361L130.145 64.6571L137.115 59.7726L141.996 66.7515L135.026 71.6361ZM133.283 72.8572L126.311 77.7418L121.434 70.7697L128.402 65.8829L133.283 72.8572ZM120.209 69.021L115.328 62.0467L122.3 57.1621L127.179 64.1387L120.209 69.021ZM118.466 70.2422L111.494 75.1291L106.615 68.15L113.582 63.2655L118.466 70.2422ZM105.394 66.4059L100.515 59.4339L107.483 54.547L112.367 61.5259L105.394 66.4059ZM103.651 67.6294L96.6793 72.5093L91.8001 65.5373L98.77 60.6504L103.651 67.6294ZM90.5775 63.7931L85.6961 56.8187L92.6705 51.9342L97.5496 58.9086L90.5775 63.7931ZM88.8344 65.0119L81.8669 69.8965L76.9832 62.9245L83.953 58.0376L88.8344 65.0119ZM86.2233 79.8408L79.2512 84.7254L74.3721 77.7464L81.3419 72.8664L86.2233 79.8408ZM83.6145 94.6673L76.6401 99.5496L71.761 92.5753L78.7308 87.6907L83.6145 94.6673ZM80.9988 109.489L74.029 114.374L69.1453 107.397L76.1197 102.515L80.9988 109.489ZM78.3854 124.314L71.4156 129.198L66.5342 122.226L73.5063 117.339L78.3854 124.314ZM75.7743 139.14L68.7999 144.025L63.9231 137.046L70.8906 132.166L75.7743 139.14ZM72.2952 167.57L67.4137 160.598L74.3813 155.711L79.265 162.685L72.2952 167.57ZM76.1243 154.485L83.0988 149.605L87.9756 156.579L81.0057 161.464L76.1243 154.485ZM87.1075 170.185L82.2238 163.21L89.1983 158.326L94.0774 165.298L87.1075 170.185ZM90.9413 157.1L97.9111 152.218L102.79 159.192L95.8181 164.072L90.9413 157.1ZM101.925 172.798L97.0431 165.823L104.013 160.939L108.894 167.911L101.925 172.798ZM105.756 159.717L112.726 154.833L117.607 161.805L110.637 166.692L105.756 159.717ZM116.737 175.408L111.858 168.436L118.828 163.549L123.711 170.528L116.737 175.408ZM120.568 162.33L127.54 157.446L132.422 164.42L125.452 169.305L120.568 162.33ZM138.526 173.141L131.556 178.021L126.675 171.049L133.642 166.162L138.526 173.141ZM141.139 158.314L134.167 163.201L129.286 156.227L136.258 151.342L141.139 158.314ZM143.751 143.492L136.781 148.372L131.897 141.398L138.869 136.513L143.751 143.492ZM146.366 128.664L139.392 133.548L134.513 126.571L141.482 121.689L146.366 128.664ZM148.975 113.842L142.003 118.722L137.124 111.75L144.094 106.863L148.975 113.842ZM151.588 99.0128L144.619 103.9L139.735 96.9253L146.707 92.0408L151.588 99.0128ZM154.202 84.1932L147.23 89.0731L142.348 82.0988L149.32 77.2142L154.202 84.1932ZM156.813 69.3643L149.841 74.2489L144.962 67.2768L151.934 62.3899L156.813 69.3643ZM154.543 47.5611L159.424 54.5401L152.454 59.427L147.573 52.448L154.543 47.5611ZM150.711 60.6458L143.739 65.528L138.86 58.5537L145.827 53.6691L150.711 60.6458ZM139.728 44.9483L144.612 51.9226L137.64 56.8072L132.756 49.8352L139.728 44.9483ZM135.896 58.0284L128.927 62.913L124.045 55.941L131.017 51.0541L135.896 58.0284ZM124.911 42.3378L129.795 49.3099L122.823 54.1967L117.941 47.2178L124.911 42.3378ZM121.079 55.4156L114.11 60.3002L109.226 53.3258L116.2 48.4413L121.079 55.4156ZM110.099 39.725L114.978 46.6971L108.008 51.5839L103.126 44.605L110.099 39.725ZM106.265 52.8028L99.295 57.6897L94.4136 50.7107L101.383 45.8308L106.265 52.8028ZM95.2816 37.1053L100.161 44.0843L93.1932 48.9643L88.3118 41.9922L95.2816 37.1053ZM91.4501 50.19L84.478 55.07L79.5989 48.0979L86.5664 43.211L91.4501 50.19ZM73.4925 39.3771L80.4623 34.4925L85.3438 41.4646L78.3739 46.3515L73.4925 39.3771ZM70.8814 54.2014L77.8512 49.3214L82.7327 56.2934L75.7628 61.1758L70.8814 54.2014ZM68.2703 69.0279L75.2401 64.141L80.1216 71.12L73.1517 76L68.2703 69.0279ZM65.6592 83.8568L72.6267 78.9699L77.5105 85.9443L70.5383 90.8288L65.6592 83.8568ZM63.0435 98.6787L70.0156 93.7941L74.8947 100.766L67.9272 105.653L63.0435 98.6787ZM60.4324 113.501L67.3999 108.621L72.2836 115.593L65.3138 120.48L60.4324 113.501ZM57.8213 128.329L64.7888 123.443L69.6725 130.422L62.6981 135.302L57.8213 128.329ZM55.2079 143.149L62.18 138.269L67.0591 145.243L60.0893 150.128L55.2079 143.149ZM52.5968 157.978L59.5666 153.093L64.448 160.072L57.4759 164.957L52.5968 157.978Z" fill="white"/>
<path d="M57.5899 166.503L65.8676 160.704L71.6654 168.987L69.9869 170.159L70.726 170.293L71.9671 169.422L72.8374 170.666L73.5743 170.793L72.4 169.118L80.68 163.319L86.4755 171.604L84.7992 172.774L85.5407 172.908L86.7794 172.039L87.6498 173.281L88.3912 173.415L87.2146 171.733L95.4923 165.936L101.292 174.219L99.6162 175.396L100.355 175.523L101.596 174.655L102.464 175.896L103.206 176.03L102.032 174.355L110.309 168.551L116.107 176.834L114.429 178.012L115.168 178.141L116.409 177.274L117.279 178.514L118.018 178.645L116.844 176.968L125.124 171.164L130.922 179.447L129.243 180.624L129.985 180.758L131.226 179.889L132.098 181.131L132.838 181.26L131.661 179.581L139.941 173.777L140.436 174.486L140.567 173.751L140.376 173.477L140.65 173.288L140.779 172.546L140.072 173.04L134.274 164.761L142.552 158.957L143.047 159.667L143.178 158.925L142.99 158.655L143.261 158.462L143.392 157.722L142.686 158.218L136.888 149.934L145.163 144.135L145.66 144.84L145.794 144.103L145.603 143.831L145.875 143.642L146.006 142.9L145.297 143.396L139.499 135.108L147.779 129.309L148.274 130.018L148.405 129.279L148.216 129.005L148.488 128.816L148.617 128.074L147.908 128.571L142.115 120.286L150.392 114.482L150.885 115.192L151.019 114.452L150.827 114.183L151.099 113.994L151.23 113.252L150.524 113.749L144.726 105.466L153.003 99.6625L153.501 100.368L153.632 99.6302L153.443 99.3607L153.713 99.1671L153.844 98.4276L153.137 98.9229L147.337 90.6399L155.617 84.8406L156.112 85.5456L156.245 84.8083L156.054 84.5364L156.326 84.3406L156.457 83.6056L155.748 84.101L149.952 75.8179L158.23 70.0141L158.723 70.7237L158.856 69.9841L158.665 69.7099L158.937 69.5209L159.071 68.7791L158.361 69.2767L152.566 60.9914L160.844 55.1944L161.341 55.8971L161.468 55.1575L161.279 54.888L161.553 54.699L161.682 53.9571L160.975 54.4548L155.177 46.1717L156.856 44.9944L156.114 44.8607L154.873 45.7294L154.003 44.4875L153.266 44.3585L154.44 46.0358L146.16 51.8328L140.36 43.5497L142.039 42.377L141.299 42.2457L140.058 43.1143L139.19 41.8724L138.451 41.7388L139.626 43.4161L131.348 49.22L125.548 40.9369L127.224 39.7596L126.487 39.6282L125.244 40.5015L124.378 39.2573L123.634 39.126L124.811 40.8033L116.533 46.6072L110.733 38.3219L112.412 37.1468L111.668 37.0154L110.429 37.8818L109.561 36.6422L108.817 36.5109L109.992 38.1882L101.714 43.9852L95.916 35.7044L97.5946 34.5294L96.8531 34.3981L95.6121 35.2667L94.7417 34.0248L94.0049 33.8958L95.1792 35.5731L86.8969 41.3724L81.1013 33.0894L82.7799 31.9143L82.0408 31.783L80.7997 32.6539L79.9316 31.4097L79.1925 31.283L80.3668 32.958L72.0845 38.7597L71.5895 38.0523L71.4582 38.7919L71.6493 39.0638L71.3799 39.2527L71.2487 39.9946L71.9533 39.4992L77.7511 47.7823L69.4734 53.5839L68.9784 52.8742L68.8471 53.6138L69.0382 53.8834L68.7642 54.0723L68.633 54.8142L69.3422 54.3212L75.14 62.6019L66.8623 68.4035L66.365 67.6938L66.236 68.4357L66.4248 68.7099L66.1531 68.8989L66.0219 69.6408L66.7288 69.1431L72.5289 77.4261L64.2512 83.23L63.7515 82.5204L63.6203 83.2623L63.8114 83.5318L63.542 83.7208L63.4085 84.4604L64.1177 83.965L69.9109 92.2527L61.6332 98.0519L61.1405 97.3469L61.0092 98.0842L61.198 98.3561L60.9263 98.5451L60.7951 99.2869L61.5019 98.7916L67.2998 107.075L59.0221 112.876L58.527 112.167L58.3981 112.906L58.5869 113.176L58.3129 113.369L58.184 114.107L58.8908 113.613L64.6887 121.899L56.411 127.696L55.9136 126.986L55.7801 127.728L55.9712 128.002L55.7018 128.191L55.5683 128.933L56.2797 128.435L62.0753 136.718L53.7953 142.522L53.3025 141.813L53.169 142.555L53.3578 142.824L53.0884 143.013L52.9548 143.753L53.664 143.262L59.4619 151.545L51.1842 157.344L50.6868 156.639L50.5579 157.377L50.7467 157.648L50.475 157.837L50.3438 158.579L51.0529 158.084L56.8508 166.367L55.1722 167.544L55.9159 167.678L57.1547 166.807L58.0251 168.044L58.7642 168.178L57.5899 166.503ZM60.1987 151.676L68.4764 145.877L74.2765 154.16L65.9989 159.962L60.1987 151.676ZM103.026 121.019L94.7486 126.82L88.9508 118.53L97.2308 112.733L103.026 121.019ZM91.5665 103.711L99.8442 97.9068L105.644 106.19L97.3643 111.994L91.5665 103.711ZM97.666 112.427L105.948 106.63L111.741 114.913L103.464 120.712L97.666 112.427ZM106.381 106.323L114.659 100.524L120.457 108.81L112.179 114.607L106.381 106.323ZM112.045 115.348L117.846 123.632L109.566 129.433L103.768 121.15L112.045 115.348ZM112.483 115.042L120.761 109.243L126.558 117.526L118.281 123.327L112.483 115.042ZM115.094 100.22L123.374 94.4185L129.167 102.706L120.892 108.505L115.094 100.22ZM114.79 99.7846L108.992 91.4992L117.275 85.6976L123.07 93.9807L114.79 99.7846ZM114.353 100.086L106.075 105.89L100.279 97.6073L108.557 91.8034L114.353 100.086ZM99.9754 97.1695L94.1753 88.8819L102.455 83.0826L108.255 91.3679L99.9754 97.1695ZM99.5402 97.4737L91.2625 103.278L85.4647 94.9922L93.7424 89.1883L99.5402 97.4737ZM96.9268 112.302L88.6468 118.099L82.8513 109.816L91.1313 104.013L96.9268 112.302ZM94.3134 127.122L86.0357 132.926L80.2356 124.638L88.5156 118.839L94.3134 127.122ZM94.6197 127.558L100.418 135.848L92.1375 141.647L86.342 133.361L94.6197 127.558ZM95.0549 127.256L103.333 121.454L109.13 129.74L100.853 135.541L95.0549 127.256ZM109.434 130.177L115.232 138.46L106.952 144.26L101.154 135.977L109.434 130.177ZM109.872 129.869L118.15 124.067L123.947 132.355L115.67 138.154L109.872 129.869ZM124.249 132.788L130.047 141.071L121.769 146.87L115.971 138.587L124.249 132.788ZM118.585 123.763L126.865 117.959L132.66 126.244L124.38 132.046L118.585 123.763ZM121.198 108.936L129.476 103.139L135.276 111.422L126.994 117.226L121.198 108.936ZM123.809 94.1144L132.089 88.3128L137.887 96.5958L129.609 102.4L123.809 94.1144ZM126.42 79.2924L134.7 73.4908L140.496 81.7738L132.218 87.5731L126.42 79.2924ZM131.785 87.8773L123.508 93.6789L117.707 85.3912L125.985 79.5919L131.785 87.8773ZM117.401 84.9581L111.606 76.675L119.883 70.8757L125.681 79.1588L117.401 84.9581ZM116.966 85.2622L108.688 91.0615L102.89 82.7784L111.168 76.9791L116.966 85.2622ZM102.589 82.3453L96.791 74.0599L105.066 68.2583L110.867 76.5483L102.589 82.3453ZM102.149 82.6517L93.8713 88.451L88.0735 80.1656L96.3535 74.3687L102.149 82.6517ZM87.7719 79.7302L81.974 71.4471L90.2517 65.6455L96.0473 73.9286L87.7719 79.7302ZM93.4362 88.7551L85.1561 94.5545L79.3606 86.2714L87.6406 80.4721L93.4362 88.7551ZM90.8227 103.579L82.545 109.383L76.7472 101.093L85.0272 95.2963L90.8227 103.579ZM88.2116 118.406L79.9339 124.203L74.1361 115.92L82.4161 110.121L88.2116 118.406ZM85.6005 133.228L77.3228 139.032L71.525 130.749L79.8027 124.947L85.6005 133.228ZM82.9894 148.054L74.7094 153.856L68.9116 145.568L77.1939 139.769L82.9894 148.054ZM77.6268 139.465L85.9045 133.668L91.7046 141.951L83.4269 147.75L77.6268 139.465ZM92.0086 142.384L97.8041 150.669L89.5264 156.471L83.7286 148.188L92.0086 142.384ZM92.4461 142.08L100.721 136.281L106.519 144.564L98.237 150.368L92.4461 142.08ZM106.823 144.999L112.623 153.282L104.341 159.086L98.5455 150.801L106.823 144.999ZM107.256 144.695L115.538 138.891L121.334 147.177L113.054 152.978L107.256 144.695ZM121.636 147.612L127.436 155.895L119.156 161.699L113.36 153.416L121.636 147.612ZM122.075 147.308L130.353 141.506L136.149 149.789L127.871 155.591L122.075 147.308ZM124.686 132.484L132.964 126.684L138.762 134.967L130.482 140.767L124.686 132.484ZM127.298 117.659L135.578 111.855L141.375 120.139L133.095 125.942L127.298 117.659ZM129.911 102.831L138.191 97.0313L143.987 105.317L135.709 111.114L129.911 102.831ZM132.524 88.0087L140.804 82.2094L146.602 90.4924L138.32 96.294L132.524 88.0087ZM135.138 73.1821L143.416 67.3828L149.213 75.6658L140.936 81.4652L135.138 73.1821ZM134.829 72.7466L129.036 64.4635L137.311 58.6597L143.109 66.9451L134.829 72.7466ZM134.394 73.0553L126.116 78.8546L120.319 70.5693L128.596 64.7677L134.394 73.0553ZM120.015 70.1338L114.217 61.8508L122.497 56.0469L128.295 64.3299L120.015 70.1338ZM119.579 70.438L111.299 76.2373L105.504 67.9542L113.784 62.1503L119.579 70.438ZM105.2 67.5164L99.4021 59.2311L107.682 53.4341L113.48 61.7171L105.2 67.5164ZM104.765 67.8229L96.4824 73.6268L90.6869 65.3437L98.9646 59.5398L104.765 67.8229ZM90.3853 64.9036L84.5851 56.6206L92.8651 50.8167L98.663 59.1067L90.3853 64.9036ZM89.9501 65.2101L81.6701 71.0093L75.8745 62.724L84.1499 56.927L89.9501 65.2101ZM87.339 80.0343L79.0567 85.8359L73.2611 77.5528L81.5411 71.749L87.339 80.0343ZM84.7233 94.8586L76.4456 100.658L70.6454 92.3748L78.9231 86.5755L84.7233 94.8586ZM82.1122 109.687L73.8322 115.487L68.0343 107.204L76.312 101.4L82.1122 109.687ZM79.4988 124.512L71.2164 130.316L65.4209 122.026L73.7009 116.229L79.4988 124.512ZM76.8854 139.334L68.6077 145.135L62.8098 136.852L71.0898 131.051L76.8854 139.334ZM72.0983 168.682L66.3028 160.397L74.5805 154.596L80.376 162.883L72.0983 168.682ZM75.0157 154.291L83.2934 148.488L89.0935 156.773L80.8089 162.577L75.0157 154.291ZM86.9107 171.293L81.1152 163.01L89.3952 157.211L95.193 165.489L86.9107 171.293ZM89.8303 156.907L98.1103 151.105L103.906 159.388L95.6282 165.192L89.8303 156.907ZM101.728 173.906L95.9321 165.623L104.21 159.823L110.008 168.109L101.728 173.906ZM104.645 159.519L112.923 153.72L118.721 162.003L110.443 167.802L104.645 159.519ZM116.542 176.526L110.744 168.24L119.024 162.439L124.822 170.722L116.542 176.526ZM119.462 162.132L127.74 156.333L133.538 164.618L125.26 170.415L119.462 162.132ZM139.639 173.334L131.359 179.138L125.564 170.855L133.841 165.051L139.639 173.334ZM142.25 158.512L133.97 164.309L128.173 156.026L136.453 150.227L142.25 158.512ZM144.862 143.686L136.584 149.487L130.786 141.202L139.064 135.401L144.862 143.686ZM147.475 128.862L139.197 134.661L133.397 126.376L141.677 120.579L147.475 128.862ZM150.086 114.035L141.808 119.839L136.01 111.556L144.29 105.752L150.086 114.035ZM152.702 99.2132L144.424 105.01L138.626 96.7272L146.904 90.9256L152.702 99.2132ZM155.311 84.3866L147.033 90.1882L141.235 81.9029L149.513 76.099L155.311 84.3866ZM157.924 69.5624L149.646 75.3617L143.851 67.0763L152.128 61.2794L157.924 69.5624ZM154.739 46.4528L160.535 54.7359L152.255 60.5398L146.459 52.2521L154.739 46.4528ZM151.822 60.8393L143.544 66.6432L137.747 58.3602L146.024 52.5562L151.822 60.8393ZM139.925 43.84L145.723 52.1231L137.443 57.9224L131.645 49.637L139.925 43.84ZM137.005 58.2265L128.727 64.0304L122.93 55.7428L131.212 49.9435L137.005 58.2265ZM125.106 41.2249L130.906 49.5103L122.628 55.3073L116.83 47.0242L125.106 41.2249ZM122.193 55.6138L113.911 61.413L108.115 53.1277L116.393 47.3307L122.193 55.6138ZM110.295 38.6076L116.093 46.8906L107.813 52.6945L102.015 44.4115L110.295 38.6076ZM107.376 53.001L99.0981 58.7979L93.3003 50.5149L101.578 44.711L107.376 53.001ZM95.4785 35.9971L101.276 44.2801L92.9964 50.084L87.1985 41.794L95.4785 35.9971ZM92.5612 50.3835L84.2789 56.1851L78.4833 47.9021L86.761 42.0982L92.5612 50.3835ZM72.3838 39.1813L80.6639 33.3797L86.4617 41.665L78.1817 47.4666L72.3838 39.1813ZM69.7727 54.0078L78.0504 48.2085L83.8483 56.487L75.5683 62.2885L69.7727 54.0078ZM67.157 68.8321L75.4393 63.0328L81.2349 71.3158L72.9572 77.1197L67.157 68.8321ZM64.5459 83.6563L72.8259 77.8547L78.6215 86.1424L70.3415 91.9417L64.5459 83.6563ZM61.9371 98.4805L70.2148 92.6812L76.0127 100.967L67.7327 106.766L61.9371 98.4805ZM59.3237 113.307L67.6037 107.503L73.3993 115.786L65.1193 121.588L59.3237 113.307ZM56.7103 128.131L64.988 122.332L70.7859 130.615L62.5082 136.419L56.7103 128.131ZM54.0969 142.956L62.3746 137.159L68.1748 145.442L59.8948 151.241L54.0969 142.956ZM51.4858 157.78L59.7658 151.98L65.5637 160.266L57.286 166.067L51.4858 157.78Z" fill="#F1C256"/>
<g opacity="0.3" filter="url(#filter3_f_657_27815)">
<path d="M181.713 103.738L167.228 121.014L157.536 132.574L112.729 185.997L112.717 186.007L111.685 187.246L110.336 188.875L109.452 187.99L109.39 187.926L108.579 187.12L107.08 187.509L85.5376 193.29L69.4657 179.795L68.1256 178.666L41.0821 155.962L46.5299 125.025L30.2969 108.782L44.7846 91.504L54.476 79.9491L99.2816 26.5206L99.2931 26.5067L100.325 25.2741L101.674 23.6429L102.558 24.5276L102.623 24.5921L103.433 25.4008L104.93 25.0091L126.475 19.2283L142.547 32.7254L143.887 33.8544L170.928 56.5584L165.482 87.4949L181.713 103.738Z" fill="black"/>
</g>
<path d="M17.1088 134.442C14.8684 132.562 14.5714 129.189 16.4548 126.942L110.816 14.4151C112.695 12.1687 116.066 11.8761 118.311 13.7585L194.912 78.076C197.15 79.9561 197.448 83.3292 195.566 85.5756L101.205 198.103C99.324 200.349 95.953 200.642 93.7103 198.76L17.1088 134.442Z" fill="#FAFAFA"/>
<path d="M28.1517 131.212C27.2537 130.456 27.1386 129.108 27.8915 128.21L114.046 25.4653C114.802 24.569 116.149 24.4516 117.047 25.2027L183.869 81.3108C184.767 82.0665 184.882 83.4121 184.129 84.3107L97.9745 187.06C97.2216 187.954 95.8723 188.071 94.9743 187.318L28.1517 131.212Z" fill="#C42C27"/>
<path d="M35.0167 136.972L34.8394 134.928L43.3151 134.189L44.0589 142.675L42.0188 142.85L46.541 146.647L46.3614 144.605L54.8395 143.866L55.5809 152.347L53.5408 152.527L58.0653 156.324L57.8857 154.282L66.3661 153.54L67.1075 162.024L65.0674 162.204L69.5896 166.001L69.4124 163.959L77.8927 163.217L78.6295 171.701L76.5917 171.878L81.114 175.673L80.9344 173.636L89.417 172.894L90.1538 181.376L88.1137 181.555L92.6383 185.355L92.461 183.311L100.939 182.567L101.013 183.431L103.732 180.189L102.873 180.26L102.132 171.777L110.61 171.037L110.686 171.897L113.405 168.655L112.544 168.731L111.805 160.243L120.28 159.503L120.356 160.363L123.076 157.121L122.217 157.197L121.473 148.713L129.954 147.974L130.03 148.833L132.749 145.591L131.888 145.663L131.146 137.179L139.627 136.437L139.7 137.299L142.42 134.057L141.563 134.133L140.819 125.65L149.3 124.908L149.373 125.77L152.093 122.528L151.234 122.604L150.492 114.116L158.968 113.374L159.044 114.236L161.766 110.994L160.902 111.07L160.163 102.586L168.643 101.84L168.717 102.706L171.436 99.4599L170.575 99.5336L169.834 91.0524L178.314 90.3105L178.39 91.1699L181.107 87.9304L180.248 88.0041L179.507 79.5183L181.547 79.3432L177.025 75.5462L177.202 77.5875L168.724 78.3294L167.983 69.8459L170.02 69.6662L165.5 65.8692L165.675 67.9105L157.2 68.6525L156.458 60.1689L158.496 59.9915L153.974 56.1921L154.153 58.2336L145.675 58.9754L144.932 50.4942L146.972 50.3145L142.447 46.5152L142.627 48.5588L134.151 49.2984L133.41 40.8172L135.447 40.6376L130.925 36.8428L131.103 38.8841L122.625 39.6215L121.883 31.1403L123.923 30.9605L119.401 27.1681L119.578 29.2049L111.1 29.9468L111.027 29.0919L108.305 32.3268L109.166 32.2577L109.905 40.7389L101.429 41.4808L101.353 40.6214L98.6341 43.8609L99.4953 43.7871L100.237 52.2683L91.7564 53.0103L91.6804 52.1555L88.9634 55.395L89.8222 55.3212L90.5637 63.8024L82.0833 64.5443L82.0097 63.6849L79.2903 66.9244L80.1492 66.8507L80.8929 75.3365L72.4103 76.0784L72.3366 75.2189L69.6196 78.4584L70.4761 78.3847L71.2176 86.8659L62.7395 87.6078L62.6659 86.7484L59.9442 89.9879L60.8077 89.9142L61.5468 98.4L53.0688 99.1419L52.9951 98.2825L50.2758 101.522L51.1346 101.448L51.8761 109.929L43.3957 110.671L43.3197 109.817L40.6027 113.051L41.4616 112.982L42.203 121.463L33.725 122.205L33.6513 121.346L30.9297 124.588L31.7908 124.512L32.53 133L30.4922 133.173L35.0167 136.972ZM44.5079 123.399L52.9859 122.659L53.7273 131.141L45.247 131.882L44.5079 123.399ZM95.1895 116.823L86.7115 117.565L85.9701 109.082L94.4481 108.342L95.1895 116.823ZM95.6385 97.5521L104.119 96.8079L104.86 105.294L96.3799 106.036L95.6385 97.5521ZM96.5687 108.158L105.049 107.411L105.786 115.899L97.3102 116.639L96.5687 108.158ZM107.163 107.227L115.643 106.485L116.385 114.968L107.904 115.715L107.163 107.227ZM105.972 118.019L106.716 126.5L98.2358 127.242L97.4944 118.759L105.972 118.019ZM108.091 117.83L116.573 117.088L117.312 125.574L108.834 126.316L108.091 117.83ZM117.762 106.301L126.242 105.559L126.983 114.04L118.505 114.782L117.762 106.301ZM117.577 104.178L116.836 95.695L125.316 94.9531L126.06 103.437L117.577 104.178ZM115.457 104.363L106.981 105.102L106.239 96.6212L114.715 95.8793L115.457 104.363ZM106.053 94.5015L105.312 86.018L113.792 85.2785L114.531 93.7597L106.053 94.5015ZM103.935 94.6905L95.4566 95.4324L94.7152 86.9443L103.191 86.2024L103.935 94.6905ZM94.2639 106.22L85.7836 106.962L85.0421 98.4783L93.5248 97.7364L94.2639 106.22ZM84.5908 117.754L76.1128 118.496L75.3714 110.008L83.8517 109.266L84.5908 117.754ZM84.7773 119.871L85.5211 128.357L77.043 129.099L76.2993 120.611L84.7773 119.871ZM86.8957 119.687L95.376 118.945L96.1174 127.433L87.6371 128.173L86.8957 119.687ZM96.3016 129.548L97.0431 138.034L88.565 138.776L87.8213 130.288L96.3016 129.548ZM98.4223 129.364L106.9 128.622L107.642 137.11L99.1637 137.85L98.4223 129.364ZM107.824 139.223L108.565 147.711L100.089 148.453L99.3502 139.967L107.824 139.223ZM109.021 128.438L117.497 127.696L118.24 136.179L109.76 136.921L109.021 128.438ZM118.689 116.904L127.167 116.162L127.909 124.65L119.429 125.392L118.689 116.904ZM128.36 105.374L136.838 104.628L137.58 113.116L129.102 113.856L128.36 105.374ZM138.029 93.8402L146.509 93.0984L147.248 101.582L138.77 102.321L138.029 93.8402ZM136.654 102.506L128.174 103.252L127.435 94.7642L135.91 94.0246L136.654 102.506ZM127.248 92.6514L126.507 84.1633L134.987 83.4214L135.726 91.9048L127.248 92.6514ZM125.127 92.8357L116.647 93.5753L115.91 85.0895L124.386 84.3522L125.127 92.8357ZM115.724 82.9675L114.98 74.4839L123.463 73.7444L124.202 82.2301L115.724 82.9675ZM113.603 83.1564L105.123 83.896L104.384 75.4148L112.859 74.6729L113.603 83.1564ZM104.199 73.2951L103.456 64.807L111.934 64.0674L112.675 72.5532L104.199 73.2951ZM103.007 84.0826L94.5287 84.8245L93.7872 76.3433L102.265 75.6014L103.007 84.0826ZM93.3359 95.6167L84.8556 96.3586L84.1142 87.8728L92.5945 87.1309L93.3359 95.6167ZM83.6652 107.144L75.1849 107.89L74.4458 99.4045L82.9238 98.6627L83.6652 107.144ZM73.9944 118.68L65.5187 119.42L64.775 110.939L73.2553 110.197L73.9944 118.68ZM64.326 130.214L55.8457 130.954L55.1042 122.468L63.5869 121.726L64.326 130.214ZM65.7006 121.542L74.181 120.8L74.9224 129.283L66.4444 130.025L65.7006 121.542ZM75.1089 131.405L75.848 139.891L67.37 140.633L66.6286 132.147L75.1089 131.405ZM77.2249 131.221L85.7053 130.479L86.449 138.963L77.9664 139.702L77.2249 131.221ZM86.6332 141.082L87.3723 149.564L78.8943 150.306L78.1529 141.822L86.6332 141.082ZM88.7539 140.898L97.2296 140.156L97.971 148.64L89.493 149.379L88.7539 140.898ZM98.1575 150.757L98.8966 159.241L90.4186 159.982L89.6772 151.499L98.1575 150.757ZM100.276 150.568L108.754 149.829L109.498 158.314L101.015 159.056L100.276 150.568ZM109.944 139.039L118.425 138.299L119.166 146.78L110.686 147.522L109.944 139.039ZM119.615 127.505L128.095 126.765L128.835 135.251L120.356 135.993L119.615 127.505ZM129.288 115.978L137.768 115.238L138.508 123.719L130.03 124.461L129.288 115.978ZM138.959 104.444L147.437 103.704L148.178 112.19L139.698 112.932L138.959 104.444ZM148.627 92.9094L157.105 92.1675L157.847 100.656L149.369 101.398L148.627 92.9094ZM148.441 90.792L147.702 82.3062L156.18 81.5643L156.921 90.0501L148.441 90.792ZM146.322 90.9764L137.842 91.7182L137.101 83.2347L145.581 82.4952L146.322 90.9764ZM136.919 81.1174L136.177 72.6338L144.653 71.8873L145.395 80.3754L136.919 81.1174ZM134.798 81.2993L126.318 82.0413L125.576 73.5601L134.057 72.8181L134.798 81.2993ZM125.394 71.438L124.651 62.9499L133.129 62.208L133.87 70.6961L125.394 71.438ZM123.274 71.6246L114.793 72.3643L114.052 63.8831L122.532 63.1412L123.274 71.6246ZM113.868 61.7611L113.126 53.2775L121.604 52.5379L122.346 61.0191L113.868 61.7611ZM111.75 61.95L103.269 62.6919L102.528 54.2038L111.008 53.4618L111.75 61.95ZM102.079 73.4794L93.6007 74.2213L92.8593 65.7378L101.337 64.9959L102.079 73.4794ZM92.408 85.0135L83.93 85.7554L83.1886 77.2672L91.6666 76.5254L92.408 85.0135ZM82.7373 96.5429L74.2615 97.2848L73.5178 88.8013L81.9958 88.0548L82.7373 96.5429ZM73.0688 108.077L64.5908 108.819L63.8494 100.331L72.3297 99.5911L73.0688 108.077ZM63.3981 119.606L54.9177 120.348L54.1763 111.865L62.6566 111.125L63.3981 119.606ZM46.1772 142.483L45.4358 134.002L53.9161 133.26L54.6552 141.744L46.1772 142.483ZM56.0322 133.076L64.5102 132.329L65.2539 140.817L56.7713 141.559L56.0322 133.076ZM57.7015 152.163L56.9578 143.681L65.4404 142.94L66.1819 151.421L57.7015 152.163ZM67.5588 142.751L76.0368 142.009L76.7782 150.492L68.2979 151.239L67.5588 142.751ZM69.2282 161.84L68.4867 153.351L76.9647 152.612L77.7062 161.098L69.2282 161.84ZM79.0831 152.428L87.5611 151.686L88.3002 160.169L79.8222 160.913L79.0831 152.428ZM80.7479 171.517L80.0064 163.033L88.4868 162.287L89.2305 170.775L80.7479 171.517ZM90.6074 162.105L99.0854 161.363L99.8269 169.844L91.3511 170.586L90.6074 162.105ZM100.755 180.452L92.2745 181.194L91.533 172.705L100.011 171.964L100.755 180.452ZM110.421 168.918L101.943 169.657L101.201 161.176L109.682 160.434L110.421 168.918ZM120.092 157.384L111.616 158.123L110.87 149.642L119.353 148.9L120.092 157.384ZM129.765 145.854L121.287 146.594L120.545 138.108L129.021 137.371L129.765 145.854ZM139.436 134.32L130.953 135.06L130.216 126.578L138.694 125.837L139.436 134.32ZM149.104 122.793L140.624 123.533L139.882 115.051L148.363 114.305L149.104 122.793ZM158.772 111.257L150.294 111.998L149.553 103.517L158.033 102.775L158.772 111.257ZM168.441 99.7271L159.965 100.469L159.224 91.9832L167.699 91.2413L168.441 99.7271ZM177.37 79.7119L178.114 88.193L169.634 88.9349L168.894 80.4537L177.37 79.7119ZM167.518 89.1239L159.039 89.8612L158.296 81.3777L166.776 80.6358L167.518 89.1239ZM165.846 70.0348L166.59 78.5183L158.109 79.258L157.37 70.7768L165.846 70.0348ZM155.993 79.4469L147.513 80.1888L146.771 71.7007L155.252 70.9611L155.993 79.4469ZM154.324 60.3579L155.068 68.8414L146.587 69.581L145.848 61.0998L154.324 60.3579ZM144.467 69.7699L135.989 70.5118L135.245 62.026L143.727 61.2841L144.467 69.7699ZM142.8 50.6809L143.543 59.1644L135.061 59.9062L134.322 51.4228L142.8 50.6809ZM132.942 60.0952L124.464 60.8348L123.723 52.349L132.201 51.6071L132.942 60.0952ZM131.275 41.0039L132.017 49.4851L123.539 50.2316L122.797 41.7435L131.275 41.0039ZM121.42 50.4159L112.94 51.1578L112.199 42.6743L120.681 41.9278L121.42 50.4159ZM111.271 32.0711L119.751 31.3292L120.492 39.8127L112.012 40.5569L111.271 32.0711ZM101.602 43.6028L110.08 42.861L110.822 51.3422L102.341 52.084L101.602 43.6028ZM91.9314 55.1323L100.412 54.3904L101.151 62.8785L92.6728 63.6181L91.9314 55.1323ZM82.2629 66.6664L90.741 65.9244L91.4824 74.4079L83.0044 75.1521L82.2629 66.6664ZM72.5899 78.2004L81.0725 77.4539L81.8139 85.942L73.3313 86.6816L72.5899 78.2004ZM62.9214 89.7298L71.3995 88.9879L72.1409 97.4715L63.6606 98.211L62.9214 89.7298ZM53.253 101.264L61.7287 100.522L62.4701 109.005L53.9921 109.745L53.253 101.264ZM43.5822 112.793L52.058 112.051L52.7994 120.54L44.3237 121.281L43.5822 112.793ZM33.9115 124.325L42.3918 123.583L43.1309 132.071L34.6529 132.809L33.9115 124.325Z" fill="white"/>
<path d="M33.9712 134.207L44.0357 133.322L44.9175 143.398L42.8775 143.575L43.4531 144.059L44.9613 143.926L45.0948 145.437L45.6705 145.919L45.4932 143.877L55.56 142.997L56.4396 153.07L54.4018 153.25L54.9774 153.732L56.4856 153.6L56.6191 155.112L57.1948 155.593L57.0175 153.552L67.0866 152.672L67.9662 162.745L65.9261 162.925L66.5017 163.406L68.0122 163.273L68.1435 164.784L68.7191 165.268L68.5441 163.224L78.6109 162.346L79.4928 172.42L77.4527 172.6L78.0283 173.081L79.5342 172.947L79.6678 174.454L80.2434 174.94L80.0661 172.899L90.1375 172.021L91.0171 182.09L88.9747 182.27L89.5527 182.756L91.0631 182.622L91.1944 184.134L91.7723 184.615L91.595 182.574L101.66 181.689L101.736 182.555L102.219 181.972L102.189 181.641L102.518 181.618L103.002 181.042L102.143 181.111L101.263 171.037L111.33 170.157L111.404 171.019L111.89 170.441L111.858 170.111L112.189 170.083L112.673 169.507L111.814 169.581L110.932 159.508L120.999 158.623L121.075 159.489L121.556 158.907L121.528 158.577L121.858 158.549L122.341 157.971L121.48 158.047L120.598 147.974L130.667 147.094L130.743 147.953L131.224 147.377L131.197 147.045L131.528 147.018L132.01 146.439L131.151 146.511L130.269 136.442L140.336 135.557L140.412 136.417L140.895 135.841L140.865 135.509L141.197 135.481L141.68 134.903L140.819 134.979L139.94 124.906L150.006 124.026L150.082 124.885L150.566 124.304L150.534 123.977L150.865 123.95L151.349 123.371L150.49 123.447L149.61 113.374L159.675 112.489L159.749 113.349L160.234 112.773L160.204 112.443L160.536 112.413L161.02 111.837L160.158 111.913L159.276 101.84L169.348 100.955L169.419 101.819L169.905 101.243L169.873 100.907L170.207 100.877L170.69 100.301L169.829 100.377L168.947 90.3036L179.014 89.4234L179.09 90.2828L179.574 89.7068L179.541 89.375L179.873 89.3451L180.359 88.7691L179.5 88.8451L178.618 78.7718L180.658 78.5921L180.082 78.1105L178.572 78.2419L178.438 76.7304L177.865 76.2489L178.042 78.2902L167.973 79.1704L167.094 69.0971L169.131 68.9174L168.556 68.4358L167.05 68.5695L166.914 67.058L166.338 66.5742L166.516 68.611L156.449 69.4957L155.569 59.4224L157.607 59.2427L157.031 58.7612L155.523 58.8948L155.39 57.3833L154.814 56.9018L154.991 58.9432L144.925 59.821L144.043 49.7477L146.083 49.568L145.507 49.0865L143.999 49.2201L143.865 47.7087L143.287 47.2271L143.465 49.2684L133.4 50.1486L132.521 40.073L134.558 39.8956L133.983 39.4118L132.475 39.5454L132.341 38.0362L131.765 37.5524L131.94 39.5938L121.874 40.4739L120.994 30.4006L123.034 30.2232L122.459 29.7394L120.95 29.8707L120.815 28.3616L120.241 27.8777L120.416 29.9191L110.349 30.8015L110.276 29.9444L109.79 30.5204L109.822 30.8476L109.491 30.8776L109.009 31.4536L109.866 31.3799L110.748 41.4554L100.681 42.3356L100.607 41.4762L100.124 42.0522L100.151 42.384L99.8221 42.414L99.3408 42.99L100.2 42.9139L101.082 52.9872L91.0148 53.8673L90.9388 53.0125L90.4553 53.5885L90.4829 53.9158L90.1513 53.9457L89.6701 54.5263L90.5289 54.4503L91.4108 64.5259L81.3463 65.4037L81.2704 64.5489L80.7868 65.1249L80.8191 65.4567L80.4875 65.4866L80.0016 66.0626L80.8628 65.9866L81.7424 76.0623L71.6756 76.9447L71.5996 76.0853L71.1161 76.6613L71.146 76.9884L70.8167 77.023L70.3332 77.5991L71.1921 77.523L72.0716 87.5986L62.0071 88.4765L61.9335 87.617L61.4476 88.193L61.4776 88.5225L61.146 88.5525L60.6624 89.1285L61.5236 89.0525L62.4055 99.1281L52.3364 100.01L52.2627 99.1511L51.7792 99.7271L51.8091 100.059L51.4775 100.089L50.9917 100.665L51.8529 100.591L52.7347 110.664L42.6679 111.542L42.592 110.683L42.1084 111.263L42.1384 111.591L41.8068 111.621L41.3232 112.197L42.1821 112.123L43.064 122.201L32.9995 123.079L32.9212 122.219L32.44 122.795L32.4699 123.125L32.1383 123.155L31.6548 123.731L32.516 123.657L33.3932 133.73L31.3555 133.91L31.9311 134.396L33.4393 134.258L33.5728 135.769L34.1485 136.251L33.9712 134.207ZM43.6373 122.673L53.7041 121.788L54.586 131.869L44.5215 132.746L43.6373 122.673ZM96.0482 117.551L85.9814 118.429L85.1018 108.356L95.1686 107.476L96.0482 117.551ZM94.7703 96.8263L104.839 95.9416L105.721 106.017L95.6521 106.9L94.7703 96.8263ZM95.7005 107.43L105.767 106.547L106.647 116.625L96.5801 117.505L95.7005 107.43ZM106.295 106.503L116.361 105.619L117.243 115.692L107.176 116.577L106.295 106.503ZM106.693 117.153L107.575 127.226L97.508 128.106L96.6238 118.033L106.693 117.153ZM107.222 117.107L117.289 116.224L118.173 126.297L108.104 127.18L107.222 117.107ZM116.893 105.572L126.962 104.695L127.842 114.768L117.775 115.646L116.893 105.572ZM116.847 105.043L115.965 94.9693L126.032 94.0845L126.916 104.162L116.847 105.043ZM116.315 105.091L106.251 105.971L105.371 95.8954L115.438 95.0176L116.315 105.091ZM105.323 95.3701L104.439 85.2922L114.508 84.4075L115.39 94.4877L105.323 95.3701ZM104.793 95.4139L94.7265 96.2987L93.8423 86.2254L103.911 85.3406L104.793 95.4139ZM95.1249 106.943L85.0535 107.828L84.1739 97.7548L94.243 96.8747L95.1249 106.943ZM85.4518 118.475L75.385 119.36L74.5031 109.287L84.5699 108.402L85.4518 118.475ZM85.5002 119.005L86.3797 129.085L76.3129 129.963L75.4311 119.89L85.5002 119.005ZM86.0274 118.964L96.0942 118.079L96.9761 128.152L86.9093 129.037L86.0274 118.964ZM97.0245 128.682L97.904 138.755L87.8373 139.64L86.9554 129.567L97.0245 128.682ZM97.5541 128.636L107.621 127.758L108.5 137.831L98.4336 138.716L97.5541 128.636ZM108.549 138.359L109.426 148.432L99.3616 149.317L98.482 139.244L108.549 138.359ZM108.15 127.71L118.22 126.83L119.099 136.898L109.03 137.783L108.15 127.71ZM117.819 116.176L127.888 115.296L128.768 125.369L118.701 126.254L117.819 116.176ZM127.49 104.649L137.556 103.764L138.438 113.837L128.372 114.722L127.49 104.649ZM137.16 93.1191L147.227 92.2343L148.109 102.308L138.04 103.188L137.16 93.1191ZM137.513 103.234L127.446 104.116L126.564 94.043L136.631 93.1583L137.513 103.234ZM126.516 93.5154L125.636 83.4421L135.703 82.5574L136.585 92.6306L126.516 93.5154ZM125.986 93.5569L115.919 94.4416L115.04 84.366L125.106 83.4836L125.986 93.5569ZM114.994 83.8315L114.112 73.7628L124.179 72.878L125.063 82.9514L114.994 83.8315ZM114.462 83.8845L104.395 84.7646L103.513 74.6914L113.58 73.8066L114.462 83.8845ZM103.469 74.1591L102.587 64.0858L112.657 63.2011L113.534 73.2766L103.469 74.1591ZM103.865 84.8107L93.7986 85.6885L92.9167 75.6199L102.983 74.7374L103.865 84.8107ZM94.1946 96.3402L84.1278 97.2226L83.246 87.1493L93.3127 86.2669L94.1946 96.3402ZM84.5239 107.874L74.4571 108.759L73.5752 98.6787L83.642 97.8009L84.5239 107.874ZM74.8554 119.404L64.7886 120.288L63.9044 110.213L73.9758 109.335L74.8554 119.404ZM65.187 130.938L55.1179 131.822L54.236 121.747L64.3051 120.864L65.187 130.938ZM64.8324 120.816L74.8992 119.936L75.7811 130.009L65.7143 130.889L64.8324 120.816ZM75.8294 130.541L76.7113 140.615L66.6422 141.497L65.7626 131.424L75.8294 130.541ZM76.3567 130.493L86.4235 129.613L87.3077 139.686L77.2386 140.566L76.3567 130.493ZM87.356 140.216L88.2356 150.292L78.1665 151.17L77.2869 141.101L87.356 140.216ZM87.8833 140.17L97.9501 139.292L98.8297 149.361L88.7629 150.246L87.8833 140.17ZM98.8757 149.893L99.7576 159.966L89.6908 160.847L88.8089 150.773L98.8757 149.893ZM99.4053 149.847L109.472 148.962L110.356 159.038L100.289 159.92L99.4053 149.847ZM109.076 138.318L119.143 137.433L120.025 147.508L109.958 148.386L109.076 138.318ZM118.747 126.784L128.814 125.899L129.695 135.974L119.631 136.857L118.747 126.784ZM128.42 115.249L138.487 114.369L139.369 124.445L129.299 125.323L128.42 115.249ZM138.086 103.72L148.157 102.835L149.037 112.909L138.968 113.793L138.086 103.72ZM147.757 92.186L157.824 91.3012L158.705 101.379L148.639 102.259L147.757 92.186ZM147.711 91.6583L146.831 81.5828L156.898 80.7003L157.778 90.7736L147.711 91.6583ZM147.181 91.7045L137.117 92.5823L136.232 82.5089L146.299 81.6288L147.181 91.7045ZM136.189 81.9814L135.309 71.9081L145.376 71.0233L146.253 81.1012L136.189 81.9814ZM135.657 82.0274L125.59 82.9053L124.708 72.832L134.777 71.9541L135.657 82.0274ZM124.664 72.302L123.78 62.2287L133.849 61.344L134.729 71.4219L124.664 72.302ZM124.132 72.3504L114.066 73.2306L113.184 63.155L123.251 62.2772L124.132 72.3504ZM113.138 62.6251L112.256 52.5518L122.327 51.6716L123.205 61.7472L113.138 62.6251ZM112.608 62.6734L102.541 63.5582L101.66 53.4803L111.726 52.6001L112.608 62.6734ZM102.937 74.2075L92.8706 75.0877L91.9888 65.0143L102.056 64.1342L102.937 74.2075ZM93.2667 85.7369L83.1999 86.6217L82.318 76.5484L92.3894 75.6637L93.2667 85.7369ZM83.5959 97.2687L73.5315 98.1489L72.6496 88.0756L82.7187 87.1908L83.5959 97.2687ZM73.9298 108.798L63.863 109.683L62.9811 99.6096L73.0479 98.7249L73.9298 108.798ZM64.259 120.335L54.1876 121.212L53.3081 111.139L63.3749 110.259L64.259 120.335ZM45.4471 143.35L44.5653 133.274L54.632 132.396L55.5139 142.469L45.4471 143.35ZM55.1616 132.35L65.2307 131.465L66.1126 141.539L56.0435 142.423L55.1616 132.35ZM56.9691 153.027L56.0896 142.953L66.1564 142.076L67.0382 152.144L56.9691 153.027ZM66.6882 142.027L76.755 141.142L77.6346 151.216L67.5701 152.1L66.6882 142.027ZM68.4958 162.704L67.6162 152.63L77.6807 151.746L78.5625 161.826L68.4958 162.704ZM78.2126 151.697L88.2816 150.819L89.1589 160.893L79.0921 161.777L78.2126 151.697ZM80.0201 172.381L79.1382 162.307L89.205 161.423L90.0892 171.496L80.0201 172.381ZM89.7392 161.381L99.806 160.499L100.686 170.572L90.6188 171.454L89.7392 161.381ZM101.613 181.173L91.5444 182.058L90.6648 171.984L100.732 171.1L101.613 181.173ZM111.282 169.643L101.215 170.524L100.333 160.45L110.4 159.565L111.282 169.643ZM120.953 158.112L110.884 158.992L110.002 148.923L120.071 148.038L120.953 158.112ZM130.623 146.578L120.557 147.462L119.677 137.387L129.742 136.509L130.623 146.578ZM140.294 135.048L130.227 135.928L129.345 125.857L139.415 124.975L140.294 135.048ZM149.965 123.519L139.896 124.399L139.014 114.323L149.081 113.441L149.965 123.519ZM159.633 111.985L149.567 112.862L148.685 102.789L158.751 101.911L159.633 111.985ZM169.3 100.451L159.235 101.333L158.355 91.2597L168.42 90.3773L169.3 100.451ZM178.095 78.8478L178.975 88.9211L168.906 89.7989L168.026 79.7257L178.095 78.8478ZM168.376 89.8473L158.309 90.7275L157.428 80.6542L167.494 79.7741L168.376 89.8473ZM166.569 69.1708L167.451 79.2441L157.384 80.1243L156.502 70.0487L166.569 69.1708ZM156.852 80.1704L146.785 81.0528L145.903 70.9795L155.97 70.0947L156.852 80.1704ZM155.044 59.4939L155.926 69.5672L145.857 70.4473L144.978 60.374L155.044 59.4939ZM145.328 70.4933L135.261 71.3758L134.377 61.3025L144.446 60.4201L145.328 70.4933ZM143.518 49.8168L144.402 59.8901L134.333 60.7703L133.451 50.697L143.518 49.8168ZM133.803 60.8164L123.736 61.7011L122.855 51.6255L132.921 50.7431L133.803 60.8164ZM131.993 40.1376L132.875 50.2131L122.809 51.0956L121.927 41.0177L131.993 40.1376ZM122.281 51.1394L112.21 52.0241L111.333 41.9508L121.399 41.066L122.281 51.1394ZM110.402 31.3453L120.469 30.4628L121.351 40.5362L111.282 41.4186L110.402 31.3453ZM100.732 42.8747L110.801 41.9969L111.68 52.0702L101.613 52.948L100.732 42.8747ZM91.0631 54.4088L101.132 53.5264L102.01 63.5996L91.945 64.4844L91.0631 54.4088ZM81.3947 65.9428L91.4615 65.0604L92.3434 75.1337L82.2743 76.0185L81.3947 65.9428ZM71.7216 77.4724L81.7907 76.5898L82.6726 86.6632L72.6058 87.5479L71.7216 77.4724ZM62.0509 89.0064L72.1177 88.1216L72.9996 98.1949L62.9328 99.075L62.0509 89.0064ZM52.3801 100.536L62.4492 99.6557L63.3288 109.729L53.262 110.609L52.3801 100.536ZM42.714 112.07L52.7808 111.185L53.6581 121.258L43.5913 122.143L42.714 112.07ZM33.0432 123.599L43.11 122.719L43.9919 132.792L33.9274 133.677L33.0432 123.599Z" fill="#F1C256"/>
<defs>
<filter id="filter0_f_657_27815" x="0.441883" y="0.627918" width="211.144" height="211.262" filterUnits="userSpaceOnUse" color-interpolation-filters="sRGB">
<feFlood flood-opacity="0" result="BackgroundImageFix"/>
<feBlend mode="normal" in="SourceGraphic" in2="BackgroundImageFix" result="shape"/>
<feGaussianBlur stdDeviation="5.96851" result="effect1_foregroundBlur_657_27815"/>
</filter>
<filter id="filter1_f_657_27815" x="24.5122" y="12.5907" width="162.995" height="187.337" filterUnits="userSpaceOnUse" color-interpolation-filters="sRGB">
<feFlood flood-opacity="0" result="BackgroundImageFix"/>
<feBlend mode="normal" in="SourceGraphic" in2="BackgroundImageFix" result="shape"/>
<feGaussianBlur stdDeviation="5.96851" result="effect1_foregroundBlur_657_27815"/>
</filter>
<filter id="filter2_f_657_27815" x="33.6684" y="8.70592" width="144.679" height="195.109" filterUnits="userSpaceOnUse" color-interpolation-filters="sRGB">
<feFlood flood-opacity="0" result="BackgroundImageFix"/>
<feBlend mode="normal" in="SourceGraphic" in2="BackgroundImageFix" result="shape"/>
<feGaussianBlur stdDeviation="5.96851" result="effect1_foregroundBlur_657_27815"/>
</filter>
<filter id="filter3_f_657_27815" x="18.3599" y="7.29125" width="175.292" height="197.936" filterUnits="userSpaceOnUse" color-interpolation-filters="sRGB">
<feFlood flood-opacity="0" result="BackgroundImageFix"/>
<feBlend mode="normal" in="SourceGraphic" in2="BackgroundImageFix" result="shape"/>
<feGaussianBlur stdDeviation="5.96851" result="effect1_foregroundBlur_657_27815"/>
</filter>
</defs>
</svg>
