<svg width="54" height="77" viewBox="0 0 54 77" fill="none" xmlns="http://www.w3.org/2000/svg">
<path d="M30.0306 0.0078125L33.4974 3.4234L33.4581 7.32444L29.9844 4.09179L30.0306 0.0078125Z" fill="#295C17"/>
<path d="M23.6958 28.9124C22.3724 28.1846 21.0519 27.456 19.7294 26.7282C19.4797 26.592 19.2418 26.4487 19.0166 26.3014C18.7905 26.1533 18.5781 26.0004 18.3765 25.842C18.174 25.6837 17.9842 25.5197 17.8062 25.3503C17.6283 25.1816 17.4621 25.0066 17.3087 24.8276C17.0433 24.5172 16.8112 24.1996 16.6126 23.8749C16.415 23.5494 16.2508 23.2176 16.122 22.8802C15.9922 22.5405 15.8968 22.196 15.8359 21.8428C15.7729 21.4896 15.7454 21.1293 15.7533 20.7634C15.7592 20.3611 15.8034 19.9675 15.884 19.5811C15.9656 19.1946 16.0826 18.8169 16.238 18.4454C16.3914 18.0756 16.5841 17.7121 16.8122 17.3581C17.0393 17.0033 17.3058 16.6557 17.6057 16.3159C17.9085 15.9762 18.2359 15.6586 18.5879 15.3656C18.9399 15.0718 19.3165 14.8026 19.7196 14.5563C20.1227 14.31 20.5504 14.0875 21.0027 13.8879C21.4579 13.6883 21.9358 13.5117 22.4402 13.3589L26.264 16.1568C25.7822 16.3009 25.325 16.4688 24.8924 16.6581C24.4588 16.8481 24.0507 17.0604 23.6663 17.2956C23.2809 17.5292 22.92 17.7866 22.5847 18.0661C22.2485 18.3449 21.9358 18.6458 21.6467 18.9721C21.3596 19.296 21.1069 19.627 20.8896 19.9644C20.6714 20.3025 20.4905 20.6486 20.341 21.0026C20.1955 21.3566 20.0834 21.7161 20.0067 22.0859C19.93 22.4542 19.8887 22.8303 19.8838 23.2144C19.8789 23.5645 19.9044 23.9074 19.9634 24.2439C20.0234 24.5805 20.1158 24.9107 20.2397 25.2331C20.3636 25.5577 20.5219 25.8737 20.7117 26.1842C20.9014 26.4938 21.1237 26.7979 21.3793 27.0957C21.5268 27.2659 21.686 27.4322 21.8552 27.5938C22.0253 27.7561 22.2072 27.9121 22.3999 28.0634C22.5936 28.2147 22.7981 28.3604 23.0144 28.5021C23.2307 28.6447 23.4578 28.7809 23.6958 28.9124Z" fill="#295C17"/>
<path d="M33.1511 14.988C34.268 15.9019 35.384 16.8158 36.5019 17.7289C36.2856 17.5523 36.0575 17.3852 35.8205 17.2276C35.5816 17.07 35.3319 16.9227 35.0703 16.7849C34.8088 16.6471 34.5374 16.5196 34.2553 16.4008C33.9711 16.2828 33.6771 16.1735 33.3723 16.0753L29.8789 13.26C30.1985 13.363 30.5052 13.4762 30.8031 13.599C31.0991 13.7233 31.3832 13.8571 31.6566 13.9997C31.9289 14.1438 32.1895 14.2982 32.4402 14.4622C32.688 14.6285 32.9259 14.8027 33.1511 14.988Z" fill="#295C17"/>
<path d="M19.4044 39.4507C18.0092 38.894 16.6139 38.338 15.2188 37.7805C15.7202 37.9809 16.2384 38.1741 16.7732 38.3594C17.3081 38.5447 17.8597 38.7237 18.429 38.894C18.9993 39.0658 19.5853 39.229 20.186 39.3858C20.7907 39.5433 21.4101 39.693 22.0473 39.8332L25.933 41.4155C25.3234 41.2793 24.7305 41.1367 24.1553 40.987C23.5791 40.8382 23.0187 40.6806 22.474 40.5166C21.9312 40.3527 21.4023 40.1816 20.891 40.0043C20.3817 39.8269 19.8842 39.6423 19.4044 39.4507Z" fill="#295C17"/>
<path d="M29.8802 13.2617L33.3736 16.0762L33.2182 31.7334L29.6914 29.6728L29.8802 13.2617Z" fill="#295C17"/>
<path d="M22.5738 11.4639L22.441 13.3597C21.9376 13.5126 21.4588 13.6892 21.0036 13.8888C20.5513 14.0875 20.1226 14.3109 19.7204 14.5571C19.3173 14.8034 18.9407 15.0735 18.5888 15.3665C18.2358 15.6595 17.9093 15.9771 17.6065 16.3168C17.3056 16.6565 17.0402 17.0042 16.813 17.359C16.5849 17.713 16.3922 18.0765 16.2388 18.4463C16.0835 18.8177 15.9665 19.1955 15.8849 19.5819C15.8043 19.9676 15.76 20.362 15.7541 20.7643C15.7462 21.1293 15.7738 21.4905 15.8367 21.8437C15.8977 22.1961 15.993 22.5414 16.1228 22.8811C16.2526 23.2185 16.4158 23.5503 16.6134 23.8758C16.8111 24.2004 17.0441 24.5172 17.3096 24.8284C17.577 25.1397 17.8798 25.4343 18.2171 25.713C18.5543 25.9926 18.9289 26.2555 19.339 26.5026C19.749 26.7505 20.1944 26.9817 20.6742 27.1987C21.156 27.4141 21.6741 27.6145 22.2267 27.7998L22.3211 28.5663C21.2887 28.2496 20.4166 27.9423 19.6742 27.6382C18.9319 27.3333 18.3144 27.0316 17.7904 26.7267C17.2653 26.4218 16.8317 26.1114 16.4561 25.7906C16.0786 25.4699 15.759 25.1373 15.4572 24.7881C15.0944 24.4064 14.7955 24.0476 14.5516 23.6944C14.3088 23.3412 14.1229 22.9928 13.9843 22.6332C13.8476 22.2737 13.7601 21.9023 13.7159 21.5016C13.6716 21.1016 13.6716 20.6708 13.708 20.1941C13.6903 19.6825 13.711 19.2184 13.7749 18.7837C13.8398 18.3497 13.9519 17.945 14.1161 17.5522C14.2803 17.1602 14.4966 16.7793 14.7738 16.3936C15.0501 16.0064 15.3874 15.6136 15.7915 15.1954C16.1523 14.7527 16.5092 14.3663 16.9074 14.0202C17.3027 13.6726 17.7363 13.3637 18.2476 13.077C18.7608 12.7903 19.3498 12.5243 20.0577 12.2629C20.7637 11.9984 21.5896 11.7379 22.5738 11.4639Z" fill="#295C17"/>
<path d="M45.3262 10.1626C46.2573 11.1581 47.1894 12.1519 48.1186 13.1474C48.5944 13.6558 49.031 14.1927 49.4272 14.7597C49.8254 15.3276 50.1833 15.9263 50.5029 16.5527C50.8224 17.1807 51.1017 17.838 51.3416 18.5254C51.5825 19.2135 51.783 19.9318 51.9462 20.6794L49.325 18.0526C49.1578 17.2686 48.9474 16.5162 48.6967 15.7948C48.445 15.0741 48.153 14.3852 47.8187 13.7279C47.4853 13.0706 47.1108 12.4449 46.6939 11.8502C46.2809 11.257 45.8237 10.6948 45.3262 10.1626Z" fill="#295C17"/>
<path d="M49.3216 18.0527L51.9428 20.6796L39.2533 22.3165L36.0273 19.7902L49.3216 18.0527Z" fill="#295C17"/>
<path d="M13.7754 48.2886L18.0446 49.4709C18.1665 50.011 18.3179 50.5321 18.4968 51.0366C18.6768 51.5394 18.8852 52.0257 19.1222 52.4929C19.3621 52.9586 19.6276 53.4076 19.9245 53.8376C20.2224 54.2684 20.5489 54.6794 20.9028 55.073C21.2587 55.4682 21.6255 55.8341 22.004 56.1746C22.3826 56.5151 22.7709 56.8279 23.1711 57.1138C23.5723 57.3997 23.9833 57.6587 24.407 57.8907C24.8298 58.1235 25.2634 58.3286 25.7078 58.506L21.7798 57.7632C21.3148 57.5779 20.8605 57.3633 20.4191 57.1186C19.9756 56.8754 19.546 56.6038 19.1281 56.3037C18.7092 56.0043 18.3022 55.6765 17.9069 55.3185C17.5126 54.9622 17.1292 54.5781 16.7565 54.1639C16.3849 53.7513 16.0447 53.3205 15.735 52.8691C15.4253 52.4177 15.146 51.9481 14.8982 51.4579C14.6495 50.9685 14.4322 50.4592 14.2444 49.931C14.0586 49.402 13.9022 48.8548 13.7754 48.2886Z" fill="#295C17"/>
<path d="M33.2506 42.7301C34.3794 43.2147 35.5081 43.701 36.6359 44.1864C36.3842 44.0787 36.1216 43.9742 35.8483 43.8736C35.575 43.7722 35.2908 43.6764 34.9968 43.5846C34.7038 43.4919 34.3971 43.404 34.0834 43.3201C33.7678 43.2361 33.4404 43.1561 33.1051 43.0793L29.5547 41.5723C29.9067 41.6515 30.2488 41.7354 30.5782 41.8241C30.9086 41.912 31.2272 42.0039 31.5359 42.1005C31.8436 42.1979 32.1406 42.2969 32.4257 42.4022C32.7108 42.5083 32.9861 42.6168 33.2506 42.7301Z" fill="#295C17"/>
<path d="M0.455078 50.0576L0.471791 49.5722L13.7758 48.2885L11.8772 48.9592L0.455078 50.0576Z" fill="#295C17"/>
<path d="M36.1048 18.1927L36.0262 19.79C35.8325 18.9672 35.5601 18.2157 35.2071 17.5322C34.8542 16.8496 34.4196 16.2366 33.9073 15.6926C33.3941 15.1493 32.8022 14.675 32.1277 14.2703C31.4561 13.8656 30.7059 13.529 29.8761 13.2614L27.9883 11.3101C29.4051 11.7543 30.5791 12.2057 31.5525 12.6825C32.5298 13.1608 33.3056 13.6653 33.924 14.2141C34.5444 14.7621 35.0066 15.3568 35.3546 16.0125C35.7037 16.6698 35.9396 17.3905 36.1048 18.1927Z" fill="#295C17"/>
<path d="M3.22428 23.7601C3.20756 23.5835 3.1889 23.4077 3.1712 23.2311C3.15743 23.087 3.14759 22.9444 3.12891 22.8003C3.21445 23.6469 3.35899 24.4816 3.56645 25.2965C3.77391 26.1106 4.04135 26.9064 4.37761 27.6746C4.71289 28.4428 5.11405 29.1848 5.58403 29.892C6.055 30.6008 6.59478 31.2739 7.20832 31.9059C7.93197 32.6527 8.78542 33.3488 9.77061 33.9997C10.7548 34.6531 11.8698 35.2597 13.1146 35.8267C14.3633 36.3937 15.7398 36.9204 17.2471 37.4114C18.7583 37.9024 20.3993 38.3577 22.1721 38.7798L22.0492 39.8347C20.3698 39.4609 18.8075 39.0348 17.3611 38.5597C15.9187 38.0829 14.5924 37.5571 13.38 36.9798C12.1697 36.4032 11.0734 35.7768 10.0911 35.0989C9.11185 34.4226 8.24465 33.6948 7.48953 32.9172C6.86322 32.271 6.30474 31.5947 5.81313 30.8898C5.32446 30.1858 4.8997 29.4509 4.54476 28.6883C4.19079 27.9257 3.90271 27.1345 3.68247 26.3117C3.46419 25.4913 3.3108 24.6407 3.22428 23.7601Z" fill="#295C17"/>
<path d="M29.5501 41.5723L33.1006 43.0793L32.9403 59.0755L29.3574 58.358L29.5501 41.5723Z" fill="#295C17"/>
<path d="M47.4279 16.7041L49.3216 18.0528L36.0273 19.7902L36.106 18.1929L47.4279 16.7041Z" fill="#295C17"/>
<path d="M28.0801 4.09496L29.9856 4.0918C31.3444 4.17495 32.6383 4.32146 33.8624 4.53053C35.0866 4.74118 36.2438 5.01519 37.3352 5.35255C38.4246 5.69149 39.4472 6.09379 40.4009 6.56024C41.3546 7.02827 42.2405 7.56044 43.0546 8.15835C43.8707 8.75546 44.614 9.4096 45.2836 10.1192C45.9561 10.8303 46.5529 11.5977 47.077 12.4213C47.6001 13.2473 48.0494 14.1279 48.424 15.0655C48.7996 16.0056 49.1005 17.0002 49.3266 18.0535L47.4329 16.7048C47.2432 15.9707 46.9777 15.2033 46.6404 14.4336C46.3032 13.6622 45.8902 12.8869 45.4045 12.1315C44.9198 11.3775 44.3594 10.6434 43.7272 9.95523C43.094 9.26784 42.389 8.62559 41.6103 8.05461C40.8345 7.48521 39.9683 6.98154 39.0136 6.53886C38.0618 6.09854 37.0215 5.71763 35.8928 5.39452C34.766 5.07141 33.5507 4.80453 32.247 4.58992C30.9462 4.37372 29.5559 4.20979 28.0801 4.09496Z" fill="#295C17"/>
<path d="M11.8789 48.9596L13.7775 48.2881C13.9044 48.8551 14.0607 49.4023 14.2485 49.9305C14.4363 50.4588 14.6536 50.968 14.9023 51.4574C15.1501 51.9476 15.4284 52.4172 15.7391 52.8686C16.0488 53.32 16.389 53.7516 16.7606 54.1634C17.1323 54.5776 17.5158 54.9617 17.911 55.318C18.3063 55.6752 18.7133 56.0038 19.1322 56.3032C19.55 56.6033 19.9797 56.875 20.4232 57.1181C20.8646 57.3628 21.3189 57.5774 21.7839 57.7627L21.8734 58.9902C20.9806 58.6307 20.198 58.2917 19.5038 57.9544C18.8097 57.6186 18.2011 57.2844 17.6534 56.9312C17.1067 56.5812 16.62 56.2121 16.1697 55.8082C15.7194 55.4059 15.3035 54.9664 14.8994 54.4762C14.5002 54.0312 14.1305 53.5774 13.7952 53.1181C13.4609 52.6587 13.1581 52.1947 12.9005 51.7298C12.6399 51.2649 12.4217 50.7993 12.2506 50.3352C12.0775 49.8727 11.9517 49.4126 11.8789 48.9596Z" fill="#295C17"/>
<path d="M29.2497 67.98L32.8542 68.2389L32.7765 76.0529L29.1562 76.1875L29.2497 67.98Z" fill="#295C17"/>
<path d="M53.7206 46.0243C53.5367 45.0106 53.2585 44.0484 52.8897 43.14C52.52 42.2317 52.0599 41.3772 51.5054 40.5742C50.9538 39.7728 50.3107 39.022 49.5763 38.3251C49.4288 38.185 49.2734 38.0464 49.1122 37.9086C48.9519 37.7708 48.7838 37.6346 48.6107 37.4999C48.4367 37.3653 48.2568 37.2323 48.0709 37.1008C47.8831 36.9693 47.6904 36.8403 47.4918 36.7112C46.5401 36.0998 45.5873 35.4876 44.6375 34.8755C44.846 35.0101 45.0475 35.1463 45.2442 35.2833C45.4398 35.4211 45.6286 35.5613 45.8115 35.7015C45.9934 35.8416 46.1674 35.9842 46.3365 36.1291C46.5056 36.2732 46.6669 36.4182 46.8223 36.5647C47.5911 37.2964 48.2656 38.0812 48.8438 38.923C49.4229 39.7649 49.9037 40.6629 50.2911 41.614C50.6775 42.5683 50.9666 43.5772 51.1583 44.6415C51.352 45.7067 51.4473 46.8281 51.4444 48.0033C51.4424 49.3179 51.3166 50.5842 51.0678 51.799C50.8201 53.0154 50.4484 54.1803 49.9548 55.2962C49.4593 56.4112 48.8428 57.4747 48.1014 58.4868C47.363 59.4989 46.4988 60.4587 45.5145 61.3647C44.5313 62.273 43.4517 63.0911 42.2797 63.8197C41.1077 64.549 39.8404 65.1897 38.4825 65.7409C37.1257 66.2913 35.6764 66.7538 34.1357 67.1268C32.5959 67.4998 30.9667 67.7841 29.248 67.9797L32.8516 68.2386C34.4926 68.0533 36.0461 67.7841 37.514 67.4293C38.984 67.0737 40.3644 66.635 41.6593 66.1107C42.9542 65.5849 44.1587 64.9759 45.2776 64.2822C46.3936 63.5884 47.423 62.81 48.36 61.946C49.297 61.0828 50.118 60.1705 50.823 59.2075C51.527 58.2445 52.115 57.2308 52.5849 56.1704C53.0549 55.11 53.4069 53.999 53.6439 52.8404C53.8789 51.6834 53.9969 50.4781 53.9979 49.226C53.9959 48.1062 53.9044 47.0387 53.7206 46.0243Z" fill="#295C17"/>
<path d="M22.6759 4.30159L22.5717 4.35465L22.6316 0.288894L22.7359 0.265137L22.6759 4.30159ZM22.5707 11.4638L22.4379 13.3597L22.2226 27.7997L22.317 28.5663L22.5707 11.4638ZM22.1676 38.779L22.0447 39.8338L21.7782 57.7623L21.8677 58.9898L22.1676 38.779ZM21.7448 67.3129L21.6238 68.1595L21.5078 76.1081L21.6278 75.2528L21.7448 67.3129Z" fill="#295C17"/>
<path d="M27.3965 59.2544L29.359 58.3587C30.0168 58.2566 30.6461 58.1164 31.2448 57.939C31.8417 57.7624 32.4129 57.5478 32.9507 57.2959C33.4905 57.0417 33.9989 56.7527 34.4777 56.4248C34.9565 56.097 35.4049 55.7319 35.8227 55.3296L35.8454 55.6923C35.3449 56.2094 34.8503 56.6537 34.3174 57.0386C33.7865 57.4219 33.2162 57.7466 32.5683 58.0245C31.9203 58.3033 31.1927 58.5361 30.3442 58.7357C29.4976 58.9352 28.5282 59.1039 27.3965 59.2544Z" fill="#295C17"/>
<path d="M35.8477 55.6923L35.825 55.3296C36.2439 54.9257 36.6106 54.5068 36.9253 54.0688C37.2399 53.6301 37.5024 53.1747 37.7128 52.7028C37.9242 52.23 38.0855 51.7398 38.1907 51.2329C38.3008 50.7253 38.3549 50.2011 38.3588 49.6602C38.3628 49.1763 38.3234 48.7114 38.2379 48.2632C38.1553 47.8142 38.0285 47.3834 37.8574 46.9692C37.6873 46.555 37.4719 46.1591 37.2134 45.7789C36.9567 45.3996 36.6559 45.0385 36.3117 44.694C35.9676 44.3495 35.5684 44.0256 35.1142 43.7239C34.6589 43.4222 34.1496 43.141 33.5872 42.8805C33.0238 42.6207 32.4054 42.3816 31.7319 42.1646C31.0603 41.946 30.3337 41.7496 29.553 41.573L27.6348 40.0557C28.8776 40.3043 29.9473 40.5672 30.8755 40.8413C31.8056 41.1184 32.5942 41.4075 33.2765 41.7155C33.9608 42.0236 34.5351 42.3483 35.0385 42.6944C35.5409 43.0404 35.9706 43.4071 36.3599 43.7983C36.7493 44.1856 37.0983 44.5768 37.3982 44.9822C37.6981 45.3877 37.9518 45.8098 38.1533 46.258C38.3529 46.7055 38.5004 47.1806 38.5889 47.6978C38.6784 48.2133 38.7079 48.7692 38.6725 49.3767C38.6971 50.049 38.6695 50.6564 38.5791 51.2219C38.4896 51.7857 38.3382 52.3076 38.115 52.8065C37.8918 53.3054 37.5978 53.7814 37.2232 54.2565C36.8476 54.7293 36.3933 55.2013 35.8477 55.6923Z" fill="#295C17"/>
<path d="M28.1294 0.0600797L30.0309 0.0078125L29.9847 4.09179L28.0792 4.09495L28.1294 0.0600797ZM27.7606 29.8532L29.6897 29.6719L29.8785 13.2607L27.9907 11.3094L27.7606 29.8532ZM27.3978 59.2543L29.3604 58.3587L29.5531 41.5722L27.6348 40.0548L27.3978 59.2543ZM27.1992 75.3067L29.1539 76.1873L29.2483 67.9806L27.2995 67.1364L27.1992 75.3067Z" fill="#295C17"/>
<path d="M27.1997 75.3068L29.1553 76.1874L21.5117 76.1082L21.6307 75.2529L27.1997 75.3068Z" fill="#295C17"/>
<path d="M45.3148 36.7152C46.0473 37.4129 46.6805 38.1795 47.2213 39.0063C47.7621 39.8339 48.2104 40.72 48.5703 41.6529C48.9301 42.5858 49.2025 43.5654 49.3932 44.5799C49.582 45.5959 49.6911 46.6444 49.7216 47.7151C49.6872 48.9173 49.5496 50.1075 49.3038 51.2701C49.058 52.4342 48.703 53.5699 48.233 54.6651C47.764 55.7595 47.18 56.8144 46.475 57.8138C45.772 58.8132 44.949 59.7556 44.0002 60.6291C43.0534 61.5026 41.9915 62.2874 40.8156 62.9875C39.6416 63.6883 38.3555 64.3052 36.9584 64.8414C35.5622 65.3775 34.0569 65.8329 32.4453 66.2154C30.8368 66.5955 29.121 66.9012 27.3001 67.1364L27.1998 75.3075L21.6308 75.2536L21.7488 67.3146C20.1304 67.1174 18.6054 66.8608 17.1748 66.5385C15.7462 66.2162 14.411 65.8297 13.1672 65.3751C11.9264 64.9206 10.777 64.3979 9.72002 63.8016C8.66698 63.206 7.70243 62.5376 6.82933 61.7916C5.95917 61.048 5.17652 60.211 4.47843 59.3074C3.78132 58.4046 3.16877 57.4353 2.64176 56.4232C2.11377 55.4119 1.66935 54.3586 1.30654 53.2887C0.942744 52.2212 0.660559 51.1363 0.457031 50.0576L11.8792 48.96C11.951 49.413 12.0778 49.8731 12.2489 50.3356C12.42 50.7989 12.6382 51.2645 12.8988 51.7302C13.1564 52.1951 13.4592 52.6591 13.7935 53.1185C14.1288 53.5778 14.4985 54.0315 14.8977 54.4766C15.3028 54.9668 15.7187 55.4063 16.168 55.8086C16.6183 56.2125 17.105 56.5816 17.6517 56.9316C18.2004 57.2848 18.808 57.619 19.5021 57.9548C20.1963 58.2921 20.978 58.6319 21.8717 58.9906L22.1716 38.7798C20.3989 38.3577 18.7578 37.9023 17.2466 37.4114C15.7393 36.9211 14.3618 36.3945 13.1141 35.8267C11.8693 35.2605 10.7554 34.6531 9.77016 33.9997C8.78595 33.3488 7.93152 32.6527 7.20787 31.9059C6.48519 31.1607 5.86379 30.3576 5.33678 29.5087C4.81273 28.6613 4.38305 27.7688 4.04187 26.8399C3.70364 25.9133 3.45195 24.9519 3.2848 23.9692C3.11863 22.9872 3.03603 21.9814 3.02915 20.9662C3.08126 19.9501 3.24154 18.9309 3.50308 17.9283C3.76265 16.9281 4.12053 15.9438 4.56987 14.9966C5.01724 14.0511 5.55506 13.1427 6.16958 12.2914C6.7841 11.4424 7.47727 10.6505 8.23829 9.93857C9.08387 9.18149 10.0179 8.50122 11.0405 7.8954C12.065 7.28957 13.178 6.7566 14.3805 6.29253C15.584 5.82846 16.8769 5.43329 18.2584 5.10306C19.6427 4.77282 21.1176 4.50753 22.6799 4.30242L22.7399 0.265169L28.129 0.0600586L28.0788 4.09493C29.5547 4.20976 30.9449 4.37369 32.2448 4.5891C33.5485 4.80292 34.7628 5.0698 35.8906 5.3937C37.0193 5.7168 38.0596 6.09772 39.0113 6.53803C39.9661 6.98072 40.8323 7.48439 41.608 8.05378C42.3867 8.62476 43.0927 9.26702 43.7249 9.95441C44.3581 10.6426 44.9176 11.3767 45.4023 12.1306C45.888 12.8861 46.301 13.6614 46.6382 14.4328C46.9755 15.2033 47.241 15.9699 47.4307 16.704L36.1089 18.1928C35.9427 17.3906 35.7077 16.67 35.3577 16.0127C35.0096 15.3569 34.5475 14.7622 33.9271 14.2142C33.3086 13.6654 32.5328 13.1609 31.5555 12.6826C30.5821 12.2051 29.4082 11.7545 27.9913 11.3102L27.7613 29.854C29.945 30.3276 31.9508 30.8193 33.7766 31.3325C35.6054 31.8496 37.2543 32.3874 38.7183 32.952C40.1883 33.5182 41.4724 34.1122 42.5706 34.7378C43.6718 35.3642 44.5872 36.0215 45.3148 36.7152ZM35.8473 55.6922C36.393 55.2012 36.8472 54.7292 37.2238 54.2557C37.5984 53.7813 37.8924 53.3053 38.1156 52.8056C38.3388 52.3067 38.4902 51.7848 38.5797 51.221C38.6702 50.6556 38.6977 50.0481 38.6731 49.3758C38.7075 48.7684 38.679 48.2132 38.5895 47.6969C38.501 47.1806 38.3535 46.7046 38.154 46.2572C37.9534 45.8082 37.6987 45.3869 37.3988 44.9814C37.099 44.5759 36.7499 44.1847 36.3606 43.7975C35.9712 43.4062 35.5415 43.0396 35.0391 42.6935C34.5357 42.3474 33.9615 42.0227 33.2772 41.7147C32.5948 41.4074 31.8062 41.1176 30.8761 40.8404C29.9479 40.5664 28.8782 40.3043 27.6354 40.0548L27.3975 59.2543C28.5292 59.1046 29.4986 58.9352 30.3462 58.7348C31.1947 58.5352 31.9223 58.3024 32.5702 58.0237C33.2182 57.7457 33.7884 57.4218 34.3194 57.0377C34.8523 56.6536 35.3478 56.2094 35.8473 55.6922ZM22.322 28.5655L22.5757 11.463C21.5915 11.737 20.7656 11.9976 20.0596 12.2605C19.3517 12.5218 18.7628 12.7879 18.2495 13.0746C17.7382 13.3613 17.3046 13.6701 16.9094 14.0178C16.5121 14.3639 16.1543 14.7503 15.7934 15.193C15.3893 15.6104 15.0521 16.0039 14.7758 16.3912C14.4975 16.7777 14.2822 17.1578 14.118 17.5498C13.9538 17.9426 13.8427 18.3473 13.7768 18.7812C13.7129 19.216 13.6932 19.6801 13.71 20.1917C13.6736 20.6684 13.6736 21.0992 13.7178 21.4991C13.7621 21.8999 13.8486 22.2713 13.9862 22.6308C14.1239 22.9903 14.3107 23.3388 14.5536 23.692C14.7974 24.0452 15.0963 24.4031 15.4591 24.7856C15.761 25.1349 16.0795 25.4675 16.4581 25.7882C16.8346 26.109 17.2682 26.4194 17.7923 26.7243C18.3164 27.0292 18.9338 27.3317 19.6762 27.6358C20.4175 27.9415 21.2897 28.2487 22.322 28.5655Z" fill="#428D28"/>
<path d="M1.49703 53.8527C1.41247 53.5969 1.35938 53.4448 1.35938 53.4448C1.63271 54.2328 1.95127 55.0121 2.31408 55.7691C2.67886 56.5286 3.08691 57.2667 3.54017 57.9754C3.99639 58.685 4.49685 59.3645 5.04352 60.0044C5.59118 60.6435 6.18701 61.2429 6.82906 61.791C7.70216 62.537 8.66671 63.2053 9.71975 63.8009C10.7777 64.3972 11.9271 64.9199 13.1669 65.3744C14.4107 65.829 15.7469 66.2155 17.1746 66.5378C18.6052 66.8601 20.1302 67.1167 21.7486 67.3139L21.6276 68.1604C20.1243 68.0005 18.6966 67.7629 17.3417 67.4477C15.9908 67.1317 14.7136 66.7389 13.5101 66.2693C12.3096 65.8005 11.1828 65.2548 10.1288 64.6308C9.07672 64.0091 8.09841 63.3115 7.19187 62.537C6.53507 61.9747 5.92352 61.3728 5.35816 60.7298C4.79379 60.0859 4.27365 59.4025 3.79974 58.6787C3.32582 57.9541 2.89713 57.1914 2.51269 56.386C2.12923 55.583 1.79101 54.7373 1.49703 53.8527Z" fill="#295C17"/>
<path d="M51.1568 44.6426C50.9651 43.5783 50.6751 42.5693 50.2897 41.6151C49.9023 40.6632 49.4214 39.7659 48.8423 38.9241C48.2652 38.0823 47.5907 37.2975 46.8208 36.5657C46.0519 35.8364 45.1159 35.145 44.0117 34.4901C42.9095 33.8383 41.6431 33.2262 40.2096 32.6496C38.78 32.0763 37.1862 31.5409 35.4282 31.0444C33.6761 30.5487 31.7627 30.0909 29.6881 29.6736L27.759 29.8549C29.9427 30.3285 31.9485 30.8203 33.7744 31.3335C35.6032 31.8506 37.252 32.3883 38.7161 32.953C40.186 33.5192 41.4701 34.1131 42.5684 34.7388C43.6686 35.3652 44.584 36.0233 45.3116 36.7162C46.0441 37.4139 46.6773 38.1805 47.218 39.0073C47.7588 39.8348 48.2072 40.721 48.567 41.6539C48.9269 42.5868 49.1992 43.5664 49.39 44.5808C49.5788 45.5969 49.6879 46.6454 49.7184 47.7161C49.684 48.9182 49.5463 50.1085 49.3005 51.2711C49.0547 52.4352 48.6998 53.5708 48.2298 54.666C47.7608 55.7605 47.1768 56.8153 46.4718 57.8148C45.7688 58.8142 44.9458 59.7566 43.997 60.6301C43.0501 61.5036 41.9883 62.2884 40.8123 62.9884C39.6383 63.6893 38.3523 64.3062 36.9551 64.8423C35.5589 65.3785 34.0536 65.8338 32.4421 66.2163C30.8335 66.5964 29.1178 66.9021 27.2969 67.1373L29.2456 67.9815C30.9643 67.7859 32.5935 67.5016 34.1333 67.1286C35.674 66.7556 37.1223 66.2939 38.4801 65.7427C39.8379 65.1916 41.1043 64.5509 42.2773 63.8215C43.4493 63.093 44.5279 62.2749 45.5121 61.3666C46.4964 60.4606 47.3606 59.5008 48.099 58.4887C48.8404 57.4766 49.4568 56.413 49.9524 55.298C50.446 54.1822 50.8176 53.0173 51.0654 51.8008C51.3132 50.586 51.44 49.3197 51.442 48.0051C51.4449 46.8291 51.3496 45.7078 51.1568 44.6426Z" fill="#428D28"/>
<path d="M46.6354 14.433C46.9727 15.2035 47.2382 15.9701 47.4279 16.7042L40.8059 17.5753C40.2995 9.66713 38.6998 7.32382 34.3982 5.01218C34.9095 5.13018 35.409 5.2553 35.8878 5.3923C37.0165 5.71541 38.0568 6.09633 39.0085 6.53664C39.9633 6.97933 40.8295 7.48299 41.6052 8.05239C42.384 8.62337 43.0899 9.26562 43.7221 9.95302C44.3553 10.6412 44.9148 11.3753 45.3995 12.1292C45.8852 12.8871 46.2982 13.6616 46.6354 14.433ZM43.9974 60.6285C44.9462 59.755 45.7692 58.8126 46.4722 57.8132C47.1762 56.8138 47.7612 55.7589 48.2302 54.6645C48.7012 53.5693 49.0552 52.4336 49.301 51.2695C49.5458 50.1077 49.6844 48.9175 49.7188 47.7145C49.6883 46.6438 49.5792 45.5953 49.3904 44.5793C49.1997 43.5648 48.9273 42.5852 48.5675 41.6523C48.2076 40.7194 47.7593 39.8333 47.2185 39.0057C46.6777 38.1789 46.0445 37.4123 45.312 36.7146C44.5844 36.0217 43.669 35.3636 42.5688 34.7372C41.4696 34.1108 40.1855 33.5176 38.7165 32.9514C38.1659 32.7392 37.5897 32.5301 36.986 32.325C47.1005 41.2896 52.7059 60.4669 20.577 67.1579C20.9614 67.2142 21.3508 67.2656 21.747 67.3132L21.629 75.2522L27.198 75.3061L27.2983 67.135C29.1192 66.8998 30.835 66.5941 32.4435 66.214C34.056 65.8323 35.5604 65.3761 36.9565 64.84C38.3537 64.3038 39.6398 63.6869 40.8137 62.9861C41.9887 62.2868 43.0506 61.502 43.9974 60.6285ZM18.2565 5.10246C16.8751 5.43269 15.5812 5.82787 14.3787 6.29194C13.1762 6.756 12.0632 7.28818 11.0387 7.8948C10.0161 8.50062 9.08206 9.18089 8.23649 9.93797C7.47547 10.6499 6.78229 11.4418 6.16777 12.2908C5.55325 13.1421 5.01543 14.0505 4.56806 14.996C4.11873 15.9432 3.76083 16.9275 3.50125 17.9277C3.23972 18.9311 3.07945 19.9503 3.02734 20.9656C3.03324 21.9808 3.11681 22.9866 3.28298 23.9686C3.45013 24.9513 3.70085 25.9135 4.04007 26.8393C4.38125 27.7674 4.81092 28.6607 5.33498 29.5081C5.86199 30.357 6.4824 31.1601 7.20606 31.9053C7.92971 32.6521 8.78316 33.3482 9.76835 33.9991C10.7526 34.6525 11.8675 35.2591 13.1123 35.8261C14.361 36.3931 15.7375 36.9198 17.2448 37.4108C18.756 37.9017 20.397 38.3571 22.1698 38.7792L21.9554 53.1677C23.7783 54.2875 25.6347 55.2022 27.4379 55.7566L27.6326 40.055C28.8754 40.3037 29.9452 40.5666 30.8733 40.8406C31.8035 41.1178 32.592 41.4068 33.2744 41.7149C33.9587 42.0229 34.5329 42.3476 35.0363 42.6937C35.5387 43.0398 35.9684 43.4064 36.3578 43.7976C36.7471 44.1849 37.0962 44.5761 37.396 44.9816C37.6959 45.3871 37.9496 45.8092 38.1512 46.2574C38.3508 46.7048 38.4982 47.18 38.5867 47.6971C38.6762 48.2127 38.7057 48.7686 38.6703 49.376C38.6851 49.7902 38.6782 50.1774 38.6507 50.548C44.6346 36.8691 16.5821 38.0863 10.0397 28.5665C3.30658 18.7727 11.0367 7.89559 22.6761 4.30261C21.1148 4.50693 19.6409 4.77143 18.2565 5.10246Z" fill="#428D28"/>
</svg>
