<svg width="96" height="96" viewBox="0 0 96 96" fill="none" xmlns="http://www.w3.org/2000/svg">
<path d="M57.9319 21.4706C62.3707 24.2537 65.4832 28.9633 66.0499 34.43C67.8601 35.2758 69.8693 35.7622 71.9994 35.7622C79.776 35.7622 86.0789 29.4593 86.0789 21.6839C86.0789 13.9073 79.776 7.60437 71.9994 7.60437C64.2971 7.60677 58.0493 13.7971 57.9319 21.4706ZM48.708 50.2982C56.4846 50.2982 62.7876 43.994 62.7876 36.2187C62.7876 28.4433 56.4834 22.1404 48.708 22.1404C40.9327 22.1404 34.6261 28.4445 34.6261 36.2199C34.6261 43.9952 40.9327 50.2982 48.708 50.2982ZM54.6803 51.2578H42.7334C32.7931 51.2578 24.7063 59.3459 24.7063 69.2861V83.8964L24.7434 84.1252L25.7498 84.4403C35.2359 87.4043 43.4774 88.3927 50.2607 88.3927C63.51 88.3927 71.1895 84.6152 71.6628 84.3744L72.6032 83.8988H72.7039V69.2861C72.7075 59.3459 64.6206 51.2578 54.6803 51.2578ZM77.9741 36.7231H66.1194C65.9912 41.4661 63.9665 45.7372 60.7641 48.809C69.5997 51.4363 76.0644 59.6298 76.0644 69.3077V73.81C87.7694 73.3811 94.5144 70.0637 94.9589 69.8408L95.8994 69.364H96V54.749C96 44.8099 87.9131 36.7231 77.9741 36.7231ZM24.003 35.7646C26.7573 35.7646 29.32 34.9607 31.4908 33.5913C32.1809 29.0903 34.5938 25.157 38.0406 22.4782C38.055 22.2146 38.0801 21.9535 38.0801 21.6875C38.0801 13.9109 31.776 7.60796 24.003 7.60796C16.2252 7.60796 9.92348 13.9109 9.92348 21.6875C9.92348 29.4605 16.2252 35.7646 24.003 35.7646ZM36.6473 48.809C33.4604 45.7528 31.4429 41.5045 31.2955 36.7901C30.8559 36.7578 30.421 36.7231 29.9729 36.7231H18.0271C8.08686 36.7231 0 44.8099 0 54.749V69.3616L0.0371397 69.5869L1.0435 69.9043C8.65354 72.2801 15.4453 73.3751 21.3445 73.7201V69.3077C21.3469 59.6298 27.8092 51.4387 36.6473 48.809Z" fill="#EB3D3D"/>
</svg>
