<svg width="679" height="952" viewBox="0 0 679 952" fill="none" xmlns="http://www.w3.org/2000/svg">
<path d="M375.649 1L353.601 308.446M311.346 1L334.31 308.446M344.416 1V308.446M409.638 8.34207L363.707 308.446M439.033 14.7663L375.649 314.87M465.673 34.9567L388.509 325.883M491.395 52.394L395.859 332.307M518.954 71.6667L404.127 339.649M544.675 94.6104L404.127 355.252M566.721 123.061L404.127 375.441M586.93 149.676L409.638 391.043M610.814 179.043L416.068 391.043M630.105 210.246L404.127 410.316M644.803 241.449L409.638 425.918M660.421 276.325L416.068 432.343M671.444 314.87L439.033 432.343M677.874 355.252L450.975 441.519M677.874 398.385L450.975 450.697M677.874 436.013L450.975 465.38M677.874 480.064H447.301M677.874 515.858L404.127 484.653M677.874 557.155L381.16 484.653M677.874 599.373L381.16 492.913M677.874 639.753L416.068 515.858M671.444 683.804L439.033 535.13M650.315 713.173L429.848 540.637M630.105 748.965L416.068 540.637M604.384 773.744L395.859 540.637M584.176 793.934L375.649 530.54M544.675 799.441L358.196 515.858L529.409 842.927M516.197 881.762L358.196 530.54M490.476 906.52L355.306 530.54M355.306 530.54L353.601 525.952M355.306 530.54L435.632 931.762M460.898 906.52L353.601 515.858M405.505 939.044L353.601 548.895M375.649 951.93L353.601 565.905M343.484 939.044V535.13M316.342 951.93L334.702 530.54M283.609 939.044L334.702 525.952L254.87 931.762M226.13 912.849L324.324 525.952L199.785 898.493M178.231 871.376L324.324 508.48M159.07 852.234L304.755 540.637M304.755 540.637L316.342 515.858M304.755 540.637L95.2024 813.95M123.944 842.927L316.342 508.48M77.639 778.858L293.188 535.13M63.2712 743.764L293.188 525.952M44.111 717.444L250.877 540.637M25.7482 677.565L243.692 540.637M15.3697 639.753L274.827 515.858M5.79053 598.606L274.827 500.505M5.79053 558.726L274.827 484.653M9.78168 515.858L255.667 484.653M5.79053 474.982H250.877M5.79053 441.519L236.507 459.829M5.79053 398.415L236.507 447.066M1 355.252L259.658 441.519M9.78168 314.87L274.827 438.295M25.7482 276.325L274.827 425.918M37.7236 241.449L265.246 410.316M61.6725 210.246L259.658 398.415M80.0352 179.043L274.827 391.043M96.0018 143.192L279.616 375.441M120.75 123.061C125.219 123.061 237.572 283.234 293.188 363.322M142.305 84.9693C149.968 92.6821 253.798 285.981 304.755 381.667M169.447 71.6667L279.616 325.883M194.993 52.394L293.188 332.307M223.734 34.9567C226.926 40.5116 279.078 223.88 304.755 314.87M250.877 19.5684L324.324 325.883M279.616 8.34207L329.113 314.87" stroke="url(#paint0_radial_4417_104)"/>
<defs>
<radialGradient id="paint0_radial_4417_104" cx="0" cy="0" r="1" gradientUnits="userSpaceOnUse" gradientTransform="translate(339.437 476.465) rotate(90) scale(475.465 338.437)">
<stop offset="0.251897" stop-color="#4F2525" stop-opacity="0"/>
<stop offset="1" stop-color="#4F2525"/>
</radialGradient>
</defs>
</svg>
