<svg width="170" height="174" viewBox="0 0 170 174" fill="none" xmlns="http://www.w3.org/2000/svg">
<path d="M139.796 25.8877C140.523 26.6235 141.072 27.5186 141.581 28.4261C140.035 28.8706 139.139 27.1446 139.796 25.8877Z" fill="#463A2D"/>
<path d="M18.5 112.067C20.7177 114.594 23.1009 116.963 25.3186 119.486C30.2232 124.949 35.6339 129.925 40.4097 135.498C39.7472 135.042 39.0938 134.569 38.4957 134.042C36.183 131.672 33.7782 129.398 31.4317 127.068C27.7786 123.364 24.2021 119.591 20.8833 115.584C19.9416 114.514 19.1319 113.337 18.5 112.067Z" fill="#FAE56F"/>
<path d="M107.406 95.2526C107.71 94.0416 108.075 92.8491 108.471 91.6719C108.928 93.5205 108.581 95.4273 108.817 97.2943C109.443 99.8389 111.066 102.022 111.608 104.597C111.995 106.568 112.884 108.377 114.038 110.014C114.774 110.149 115.513 110.296 116.262 110.452C116.409 111.341 116.577 112.243 116.752 113.138C117.074 113.3 117.712 113.613 118.034 113.769C118.163 114.671 118.317 115.572 118.51 116.473C119.587 115.339 118.743 113.775 118.838 112.43C119.774 111.167 121.163 110.376 122.415 109.462C124.749 111.381 127.749 110.498 130.429 111.286C130.727 110.952 131.043 110.624 131.359 110.302C132.601 110.256 133.898 110.419 135.116 110.057C137.358 109.079 139.196 107.108 141.742 106.902L141.671 107.521C137.282 112.166 133.073 117.074 127.85 120.814C124.286 123.365 121.295 126.599 117.74 129.156C116.424 128.512 115.111 127.893 113.771 127.332C111.869 124.852 112.05 121.657 111.4 118.766C110.299 113.748 109.363 108.699 108.179 103.702C108.063 101.666 107.688 99.6641 107.458 97.6408C107.412 96.8406 107.4 96.0497 107.412 95.2587L107.406 95.2526Z" fill="#975141"/>
<path d="M94.2482 121.264C94.6224 121.117 95.3555 120.826 95.7297 120.679C99.9196 122.99 104.134 125.259 108.462 127.301C109.842 127.984 111.394 128.131 112.91 128.279C113.121 128.039 113.554 127.564 113.765 127.325C115.106 127.886 116.422 128.502 117.734 129.149C114.943 131.191 112.085 133.135 109.382 135.293C104.8 138.726 100.052 142.068 94.7543 144.303C92.3955 145.643 90.0245 143.794 87.8345 143.028C83.9605 140.851 80.2368 144.005 76.4027 144.392C73.3476 143.638 70.5779 142.016 67.851 140.489C67.0903 139.928 66.3634 139.324 65.6211 138.757C68.8356 138.331 71.5686 140.974 74.8046 140.452C77.0744 140.189 79.3595 140.284 81.6293 140.02C80.5711 139.615 79.5098 139.248 78.4393 138.907C77.9885 138.159 77.5437 137.42 77.1051 136.679C75.869 136.516 74.6114 136.387 73.4519 135.912C76.4425 135.339 79.6049 134.753 82.5833 135.731C85.4573 134.631 88.5307 134.1 91.6042 134.566C91.5582 134.091 91.5275 133.613 91.4999 133.15C93.7482 134.465 96.2481 133.318 98.5547 132.816C98.6896 132.488 98.9534 131.838 99.0884 131.51C100.996 131.93 103.021 131.884 104.784 132.831C105.364 132.632 105.95 132.439 106.551 132.246C105.422 130.982 104.444 128.162 102.361 129.204C100.015 126.197 97.4137 123.429 94.2421 121.27L94.2482 121.264Z" fill="#86463E"/>
<path d="M80.539 3.26952C81.8794 2.42033 83.1953 1.4853 84.7075 0.958008C86.9496 1.76428 88.8391 3.26953 90.9249 4.39157C96.627 7.73929 102.832 10.1366 109.16 12.0036C119.27 14.9406 129.794 15.9461 140.137 17.7027C142.922 17.8652 144.047 20.704 145.4 22.6875C146.385 24.343 147.397 25.9709 148.415 27.608C148.326 27.9298 148.151 28.5859 148.059 28.9078C146.268 26.0107 144.572 23.0523 142.652 20.2442C141.544 18.4937 139.302 18.3557 137.459 18.0737C126.588 16.6236 115.66 15.0847 105.212 11.6266C100.716 9.9711 96.2436 8.22059 92.0996 5.79871C89.6305 4.40076 87.2717 2.80967 84.7535 1.50983C81.2936 3.38296 78.0913 5.68835 74.6437 7.58907C68.3986 10.5965 61.8775 13.1073 55.105 14.6493C48.5133 16.1116 41.8297 17.1478 35.1491 18.0767C32.9714 18.4109 30.4654 18.3588 28.8274 20.0786C26.1006 23.8586 24.1375 28.1107 21.6745 32.0654C18.9476 36.4831 16.2362 40.9069 13.5155 45.3398C11.1751 49.2424 8.53417 52.9703 6.33799 56.9649L5.16016 56.643C12.5309 45.2571 19.8065 33.7914 26.5331 22.0131C27.5054 20.6151 28.2355 18.7144 29.9409 18.0767C34.1553 17.1938 38.4925 16.9946 42.7253 16.1454C55.9301 14.1619 69.3065 10.7743 80.5329 3.26952H80.539Z" fill="#70340B"/>
<path d="M85.4535 55.8096C87.3982 57.2014 89.5269 58.3909 91.9163 58.8293C93.088 60.8128 93.9009 63.1059 95.6339 64.7031C98.0571 66.4475 101.177 66.5456 104.029 66.9778C107.283 67.3702 110.363 68.8203 113.688 68.7559C116.258 68.6517 118.758 69.2771 121.188 70.0497C119.191 71.5764 117.264 73.1981 115.415 74.9057C114.823 75.4207 114.237 75.9235 113.648 76.4324C110.406 75.2613 107.029 76.8769 104.219 78.422C102.517 79.259 101.351 80.7673 100.081 82.107C98.7533 82.6465 97.2964 82.7967 95.913 83.0849C95.591 83.0726 95.275 83.0665 94.9652 83.0665C92.723 82.4411 90.4808 81.8494 88.2386 81.2578C88.4012 79.5563 86.0854 79.5716 85.4413 78.327C88.4564 74.2312 92.2077 70.488 96.8087 68.201C93.7537 64.4088 88.7202 63.4615 85.0548 60.4663C84.4935 60.8005 83.9413 61.1347 83.3984 61.478C83.4291 59.985 83.4506 58.4951 83.4629 57.0021C84.1131 56.6036 84.7787 56.202 85.4474 55.8096H85.4535Z" fill="#F9BF8F"/>
<path d="M100.768 30.8203C107.967 32.0129 115.092 33.6346 122.316 34.7107C125.214 35.2717 128.199 35.5752 131.008 36.5409C132.496 37.945 133.343 39.8763 134.551 41.5073C133.938 41.8353 133.34 42.1633 132.748 42.5067C132.238 43.7238 132.18 45.4313 130.788 46.0107C128.171 47.2922 125.156 46.9642 122.377 47.6325C121.441 50.1126 120.276 52.5468 118.297 54.377C118.632 55.0147 118.981 55.6584 119.328 56.3084C119.135 56.4065 118.748 56.5996 118.555 56.6946C118.129 56.2041 117.718 55.7351 117.313 55.2599C116.791 57.3783 116.043 59.4323 115.258 61.4679C116.469 62.4275 117.687 63.387 118.981 64.2577C116.518 63.8469 114.034 63.6016 111.577 63.1878C109.065 62.5899 106.507 62.268 103.939 62.0534C103.706 61.891 103.249 61.5783 103.019 61.4158C101.995 60.6156 100.9 59.7205 100.854 58.3102C101.639 57.8902 102.427 57.4672 103.219 57.0472C102.82 55.9834 102.381 54.9288 102.142 53.8129C102.645 52.6663 103.553 51.7712 104.166 50.689C104.354 49.711 104.301 48.7055 104.449 47.7214C105.093 47.096 105.899 46.6791 106.666 46.2008C105.93 45.4743 105.209 44.7446 104.495 44.0242C105.338 43.0953 106.375 42.4024 107.51 41.8721C106.988 39.2816 107.844 36.3539 106.445 34.0086C105.311 31.832 102.32 32.5064 100.762 30.8203H100.768Z" fill="#FCDC97"/>
<path d="M75.0117 60.7941C76.8613 61.9284 78.6005 63.2282 80.2446 64.6599C81.2752 64.5894 82.318 64.5189 83.364 64.4668C83.6677 69.3412 84.3056 74.2034 84.2412 79.1054C81.7291 78.526 79.1955 78.0569 76.7662 77.2108C73.0793 75.8527 69.1747 75.3223 65.362 74.513C63.8468 75.074 63.0094 76.6314 61.9389 77.7473C62.5125 79.5622 63.356 81.2636 64.1106 83.008C63.8468 82.9313 63.3192 82.775 63.0524 82.6984C59.2888 79.0931 54.9976 75.8987 52.2187 71.4013C51.0071 69.7857 53.0499 68.4828 53.8566 67.2473C57.5803 66.8917 61.2917 66.3644 65.0124 65.9076C67.6104 65.5336 70.2912 65.3282 72.745 64.3411C73.7296 63.3233 74.3247 62.0081 75.0117 60.791V60.7941Z" fill="#FBFAD5"/>
<path d="M93.053 10.8756C96.3197 8.77557 100.188 11.3722 103.549 12.111C103.97 11.9945 104.801 11.7493 105.218 11.6267C115.662 15.0847 126.591 16.6237 137.464 18.0738C139.308 18.3558 141.55 18.4938 142.657 20.2443C144.577 23.0524 146.274 26.0078 148.065 28.9079C151.365 34.6468 155.212 40.0578 158.574 45.7569C157.245 45.8672 156.742 44.4877 156.015 43.6753C153.884 41.0204 151.976 38.2 150.332 35.2201C149.777 35.4255 149.237 35.6309 148.694 35.8455C149.448 37.8535 150.491 39.7359 151.908 41.3637C152.598 42.0719 151.908 43.0591 151.85 43.8623C151.31 43.0499 150.78 42.2405 150.258 41.4281C147.436 37.0473 144.528 32.7216 141.578 28.4235C141.068 27.5161 140.519 26.6209 139.793 25.8851L139.477 25.551C138.685 24.4872 137.55 23.7913 136.228 23.6717C122.349 21.5993 108.101 19.7998 95.3167 13.6561C95.4792 12.1999 93.8873 11.7033 93.0469 10.8725L93.053 10.8756Z" fill="#FBF4A5"/>
<path d="M74.6484 7.58901C78.0961 5.68829 81.2983 3.3829 84.7582 1.50977C87.2765 2.80961 89.6352 4.4007 92.1044 5.79865C96.2483 8.22053 100.72 9.97104 105.217 11.6265C104.797 11.7491 103.966 11.9944 103.549 12.1109C100.184 11.369 96.3189 8.77542 93.0522 10.8754C93.8896 11.7062 95.4815 12.2029 95.322 13.6591C94.9018 13.4659 94.0798 13.0858 93.6657 12.8988C90.6751 11.1329 87.6415 9.43454 84.657 7.65645C82.6388 8.99002 80.648 10.3665 78.5684 11.5928C78.5746 11.2188 78.5868 10.4646 78.6022 10.0937C77.636 10.2163 76.6759 10.345 75.7281 10.4738C76.5195 9.54491 77.3262 8.63134 78.1574 7.73616C76.9857 7.76988 75.8109 7.74841 74.6515 7.59513L74.6484 7.58901Z" fill="#FAF4BA"/>
<path d="M55.1087 14.6491C61.8813 13.1101 68.4024 10.5994 74.6474 7.58887C75.8069 7.74215 76.9816 7.7636 78.1533 7.72988C77.3221 8.62505 76.5154 9.53862 75.724 10.4675C76.6718 10.3388 77.6319 10.21 78.5981 10.0874C78.5858 10.4614 78.5735 11.2156 78.5643 11.5865C71.6506 15.5719 63.9947 18.0398 56.3203 20.0938C48.4895 21.9608 40.4808 22.8682 32.5549 24.2079C32.3494 24.4409 31.9291 24.8977 31.7236 25.1276C31.6838 23.4016 31.7114 21.6695 31.8126 19.9435C30.8188 19.9895 29.8097 20.0263 28.8281 20.0723C30.4661 18.3525 32.972 18.4046 35.1498 18.0704C41.8335 17.1415 48.514 16.1053 55.1056 14.643L55.1087 14.6491Z" fill="#FBF4AA"/>
<path d="M78.5652 11.5897C80.6479 10.3665 82.6386 8.98689 84.6538 7.65332C87.6383 9.43141 90.6718 11.1298 93.6624 12.8956C95.7451 15.7743 99.9258 15.6517 102.324 18.2667C101.886 18.3127 101.018 18.3955 100.579 18.4353C95.7451 15.9736 90.4632 13.9656 86.623 9.98632C85.7795 9.05128 84.3992 9.45287 83.5955 10.1978C79.878 13.0244 75.5347 14.8086 71.3141 16.7155C70.3295 17.1723 69.2314 17.2428 68.1885 17.393C68.756 17.6107 69.3234 17.8375 69.9031 18.0705C68.2866 18.7664 66.6426 19.4041 64.9402 19.8486C62.0662 19.7444 59.186 19.7781 56.3242 20.1C63.9986 18.046 71.6545 15.5781 78.5682 11.5927L78.5652 11.5897Z" fill="#CD793C"/>
<path d="M83.592 10.1984C84.3987 9.45033 85.7759 9.05181 86.6194 9.98685C90.4597 13.9661 95.7446 15.9772 100.576 18.4359C103.514 21.011 107.566 21.5782 110.692 23.8836C112.839 25.6279 116.035 25.6218 117.691 28.0069C116.691 28.4054 115.7 28.807 114.694 29.1596C109.866 28.2 105.06 27.1179 100.229 26.2104C97.0789 21.6824 93.8368 16.4094 88.1408 14.8827C84.687 13.497 81.1105 15.2291 78.1414 16.9429C73.9208 19.4536 69.7462 22.455 67.0899 26.6733C60.6517 28.0713 54.1705 29.2362 47.7138 30.5299C47.2936 30.2847 46.4562 29.7972 46.0391 29.552C47.6893 26.8542 51.5602 26.4281 52.5847 23.2336C56.7225 22.1913 60.851 21.0877 64.9367 19.8461C66.639 19.4015 68.28 18.7639 69.8995 18.068C69.3198 17.835 68.7524 17.6112 68.1849 17.3904C69.2278 17.2433 70.3229 17.1728 71.3105 16.7129C75.5311 14.8061 79.8744 13.0219 83.592 10.1953V10.1984Z" fill="#FA9B41"/>
<path d="M93.6641 12.8984C94.0751 13.0854 94.9002 13.4656 95.3204 13.6587C108.105 19.8023 122.352 21.5988 136.232 23.6743C137.554 23.7969 138.686 24.4928 139.48 25.5535C132.702 24.0851 125.865 22.6749 118.917 22.353C119.607 22.681 120.288 23.009 121 23.3309C120.408 23.429 119.209 23.6222 118.617 23.7172C113.319 21.5344 107.36 21.1604 102.326 18.2695C99.9275 15.6545 95.7468 15.7771 93.6641 12.8984Z" fill="#C66826"/>
<path d="M78.1374 16.9429C81.1066 15.2292 84.683 13.4971 88.1368 14.8828C93.8328 16.4095 97.0749 21.6824 100.225 26.2104C99.8385 26.1798 99.0656 26.1062 98.6791 26.0756C97.2866 25.631 95.8817 25.2202 94.4524 24.9535C91.0691 22.8167 89.6244 18.0864 85.3333 17.4119C82.131 18.0496 79.5146 20.214 77.3951 22.5899C75.9382 24.3925 73.6377 25.024 71.5826 25.8732C70.0735 26.1246 68.5797 26.3944 67.0859 26.6703C69.7422 22.4519 73.9168 19.4506 78.1374 16.9398V16.9429Z" fill="#FDCD50"/>
<path d="M77.3985 22.5891C79.518 20.2132 82.1344 18.0488 85.3367 17.4111C89.6278 18.0886 91.0725 22.8159 94.4557 24.9527C90.9498 25.293 89.545 21.5651 87.0329 19.9158C85.6618 19.3364 84.1005 19.8269 82.8184 20.4063C80.8216 21.3352 80.1376 23.8337 78.0886 24.6829C76.3863 25.4033 74.5827 25.854 72.7914 26.2801L71.5859 25.8755C73.641 25.0263 75.9415 24.3948 77.3985 22.5921V22.5891Z" fill="#FCF67D"/>
<path d="M100.574 18.4352C101.013 18.3954 101.881 18.3126 102.32 18.2666C107.353 21.1575 113.313 21.5316 118.61 23.7143C121.502 25.428 124.545 26.8842 127.6 28.2944C128.238 28.6623 129.309 28.926 129.257 29.8794C128.321 30.4128 127.312 30.7807 126.294 31.0965C122.401 30.5937 118.549 29.861 114.693 29.159C115.699 28.8033 116.69 28.4048 117.69 28.0063C116.033 25.6242 112.837 25.6304 110.69 23.8829C107.565 21.5775 103.513 21.0104 100.574 18.4352Z" fill="#F68034"/>
<path d="M28.8323 20.0789C29.8108 20.033 30.823 19.9962 31.8168 19.9502C31.7125 21.6762 31.688 23.4083 31.7278 25.1342C30.2463 27.2158 28.9182 29.4047 27.6606 31.6212C25.2558 35.6526 22.5689 39.5123 20.1979 43.562C18.3299 46.4806 16.4803 49.4114 14.554 52.2962C13.8976 50.4721 13.9805 48.4978 15.7196 47.3175C14.9865 46.6553 14.2504 45.9962 13.5234 45.3401C16.2441 40.9102 18.9556 36.4834 21.6824 32.0657C24.1455 28.111 26.1085 23.862 28.8354 20.0789H28.8323Z" fill="#F5E694"/>
<path d="M56.321 20.0971C59.1828 19.7752 62.063 19.7415 64.937 19.8457C60.8514 21.0873 56.7197 22.191 52.585 23.2333C46.6958 23.8526 40.9354 25.2689 35.1168 26.3174C32.5341 26.3695 32.9696 29.472 31.1845 30.5817C30.1784 31.4064 29.1294 32.1728 28.1049 32.9699C27.9945 32.6357 27.7706 31.9582 27.6602 31.6179C28.9177 29.4015 30.2428 27.2126 31.7274 25.131C31.9329 24.898 32.3531 24.4412 32.5586 24.2113C40.4845 22.8716 48.4933 21.9641 56.3241 20.0971H56.321Z" fill="#B96A28"/>
<path d="M82.8161 20.4065C84.0983 19.8271 85.6564 19.3366 87.0306 19.916C89.5427 21.5653 90.9475 25.2932 94.4534 24.9529C95.8828 25.2165 97.2876 25.6304 98.6802 26.0749C100.208 27.4667 102.103 28.3159 104.054 28.9413C103.527 29.1283 102.468 29.5085 101.935 29.6955C98.1771 29.3491 94.524 27.8714 90.7236 28.2086C89.8525 28.3711 89.0611 28.8126 88.2698 29.1682C85.776 28.368 83.2823 27.3073 80.6077 27.6476L79.8163 27.6231C75.8288 28.0155 71.9027 28.9689 67.9336 29.5667C68.5777 28.7237 69.228 27.8867 69.8721 27.0406C70.8383 26.7831 71.8106 26.5256 72.7922 26.2803C74.5835 25.8542 76.3871 25.4035 78.0894 24.6831C80.1384 23.8339 80.8224 21.3354 82.8192 20.4065H82.8161Z" fill="#FCFA9A"/>
<path d="M118.917 22.3535C125.865 22.6754 132.702 24.0856 139.48 25.5541L139.796 25.8883C139.14 27.1452 140.035 28.8711 141.581 28.4266C144.532 32.7216 147.44 37.0504 150.262 41.4312C149.391 42.636 148.483 43.801 147.529 44.9353C149.9 47.627 149.946 51.3303 150.802 54.6351C150.532 54.8528 149.989 55.2973 149.713 55.5242C145.434 48.89 141.045 42.3203 136.637 35.772C136.25 35.211 135.864 34.6653 135.477 34.1227C136.051 34.1227 136.631 34.1227 137.217 34.1288C137.493 31.4678 138.867 28.0036 136.514 25.9036C131.444 24.5056 125.96 25.272 120.997 23.3345C120.288 23.0126 119.604 22.6846 118.914 22.3566L118.917 22.3535Z" fill="#D25614"/>
<path d="M35.1142 26.3204C40.9328 25.2719 46.6932 23.8525 52.5824 23.2363C51.558 26.4308 47.684 26.8569 46.0368 29.5547C46.457 29.7999 47.2944 30.2874 47.7116 30.5326C44.3866 30.9312 41.0157 31.1948 37.7674 32.0471C35.5712 33.5217 34.6418 36.2256 33.0621 38.2612C32.507 35.9804 33.3014 33.7148 33.4241 31.4401C33.4824 29.5976 34.332 27.9421 35.1111 26.3204H35.1142Z" fill="#E7832E"/>
<path d="M118.613 23.7173C119.205 23.6192 120.405 23.4261 120.997 23.3311C125.959 25.2686 131.441 24.5021 136.514 25.9001C138.867 28.0001 137.493 31.4643 137.216 34.1253C136.631 34.1192 136.051 34.1192 135.477 34.1192C134.717 33.2424 133.962 32.1173 132.701 32.0253C130.576 31.6513 128.429 31.3693 126.297 31.0964C127.315 30.7807 128.327 30.4128 129.26 29.8793C129.312 28.9259 128.242 28.6623 127.604 28.2944C124.548 26.8842 121.509 25.428 118.613 23.7143V23.7173Z" fill="#E96A2A"/>
<path d="M31.1803 30.5818C32.9655 29.475 32.5269 26.3695 35.1126 26.3174C34.3335 27.9391 33.4808 29.5946 33.4256 31.4371C33.3029 33.7118 32.5115 35.9773 33.0637 38.2582C29.2756 44.5766 25.2543 50.7539 21.046 56.7994C20.497 57.8571 20.2393 59.0343 20.3191 60.233C20.4295 64.2919 20.5307 68.3478 20.546 72.4068C20.5522 74.7245 20.5982 77.0513 20.5859 79.3689C20.4326 80.7792 20.1166 82.171 19.7884 83.5475C19.4479 80.7638 19.5246 77.9189 18.7762 75.1996C17.583 71.297 18.0861 67.1308 16.9328 63.2128C16.6996 63.1362 16.2303 62.9798 15.9911 62.9032C15.2948 60.7388 14.3685 58.6082 14.1875 56.3273C15.4819 51.7472 20.3283 48.5466 20.1994 43.5557C22.5705 39.5059 25.2574 35.6463 27.6622 31.6149C27.7726 31.9552 27.9965 32.6327 28.1069 32.9668C29.1314 32.1698 30.1804 31.4034 31.1865 30.5787L31.1803 30.5818Z" fill="#B77016"/>
<path d="M67.087 26.6731C68.5808 26.3972 70.0776 26.1243 71.5837 25.876L72.7891 26.2806C71.8106 26.5259 70.8352 26.7834 69.869 27.0409C69.2249 27.884 68.5747 28.7209 67.9305 29.5671C60.4248 30.8608 52.8916 32.0288 45.3828 33.3011C46.2785 32.4887 47.0207 31.523 47.7078 30.5327C54.1645 29.239 60.6457 28.071 67.0839 26.6761L67.087 26.6731Z" fill="#F2E388"/>
<path d="M98.6828 26.0752C99.0692 26.1089 99.8422 26.1794 100.229 26.2101C105.063 27.1175 109.869 28.1997 114.694 29.1593C118.547 29.8613 122.402 30.594 126.295 31.0968C128.426 31.3666 130.573 31.6517 132.699 32.0257C131.101 32.3721 129.07 32.2188 128.117 33.8099C119.359 32.6235 110.633 31.2531 101.934 29.6958C102.468 29.5088 103.526 29.1286 104.054 28.9416C102.1 28.3162 100.207 27.467 98.6797 26.0752H98.6828Z" fill="#F5E08C"/>
<path d="M67.9346 29.5667C71.9036 28.9689 75.8298 28.0155 79.8173 27.623L80.6086 27.6476C73.0815 30.6673 64.8918 31.4735 56.9904 33.0892C51.6748 34.2541 46.2426 34.7569 40.9331 35.9372C39.0437 36.1702 38.3811 38.1475 37.4548 39.5118C34.1605 45.3151 30.7466 51.0479 27.0352 56.5845C25.7285 58.4515 24.9464 60.5975 24.2716 62.7557L24.2532 62.7864C23.3575 63.7521 22.6428 64.8588 22.2625 66.1218C22.1858 63.5191 21.9588 60.8335 22.8545 58.335C25.9463 53.4912 29.2406 48.764 32.2036 43.8374C34.228 40.9066 35.6574 37.5528 38.0683 34.9102C40.3503 33.9322 42.9729 33.9108 45.3899 33.3007C52.8956 32.0254 60.4289 30.8604 67.9376 29.5667H67.9346Z" fill="#E29F4F"/>
<path d="M80.6083 27.6444C83.283 27.3042 85.7767 28.3649 88.2704 29.165C89.0617 28.8094 89.8562 28.3649 90.7242 28.2055C93.9909 29.3582 97.3864 30.0847 100.77 30.8205C102.328 32.5066 105.318 31.8322 106.453 34.0088C107.852 36.354 106.993 39.2848 107.518 41.8723C106.383 42.3995 105.346 43.0955 104.503 44.0244C105.217 44.7448 105.938 45.4744 106.674 46.201C105.907 46.6762 105.101 47.0962 104.457 47.7216C104.309 48.7057 104.358 49.7112 104.174 50.6891C103.561 51.7713 102.653 52.6665 102.15 53.8131C102.389 54.9259 102.828 55.9836 103.227 57.0474C102.435 57.4674 101.647 57.8904 100.862 58.3104C100.908 59.7206 102.003 60.6158 103.027 61.416C102.107 61.3976 101.184 61.3822 100.276 61.3761C97.0919 57.216 95.3191 52.225 92.5554 47.8135C89.939 43.4082 87.6508 38.828 85.1786 34.3522C84.9976 34.018 84.6449 33.3405 84.4639 33.0063C80.6635 40.0328 77.4213 47.3353 73.6639 54.3833C72.5229 56.4128 71.5505 58.5955 69.9525 60.3154C67.241 61.2565 64.2749 61.2688 61.4775 61.931C54.2356 63.0438 47.0183 64.3406 39.7733 65.4933C39.4329 65.4351 38.755 65.3186 38.4145 65.2664C38.9881 64.3958 40.7334 63.6754 40.1107 62.4828C38.344 62.3081 36.5742 62.1854 34.8411 61.839C34.3197 61.0481 33.8044 60.2602 33.2891 59.4815C34.9209 58.3871 36.8318 58.7335 38.6568 58.5863C40.6874 57.3754 42.402 55.6831 43.9265 53.8989C42.9541 53.3778 41.9879 52.875 41.0125 52.3661C42.3008 49.5119 44.0553 46.7314 43.9449 43.4848C42.5799 42.9452 41.123 42.8287 39.6783 43.0004C38.8654 41.8784 38.1323 40.7073 37.4545 39.5086C38.3839 38.1444 39.0464 36.167 40.9328 35.934C46.2423 34.7568 51.6745 34.254 56.9901 33.086C64.8914 31.4704 73.0811 30.6641 80.6083 27.6444Z" fill="#FCF3A8"/>
<path d="M90.7227 28.2062C94.5261 27.872 98.1793 29.3466 101.934 29.693C110.633 31.2504 119.359 32.6238 128.116 33.8071C129.573 34.1352 131.085 34.3682 132.459 35.0058C133.659 36.0114 134.49 37.3756 135.416 38.6203C138.888 44.5646 143.143 50.0062 146.725 55.8739C146.686 57.1492 147.725 58.8813 146.572 59.8807L146.103 60.0739C145.06 57.0542 143.06 54.5281 141.373 51.8609C139.072 48.4212 136.836 44.9509 134.554 41.5051C133.343 39.8741 132.499 37.9427 131.012 36.5387C128.202 35.573 125.217 35.2695 122.319 34.7084C115.095 33.6324 107.967 32.0106 100.771 30.8181C97.3879 30.0854 93.9924 29.3558 90.7257 28.2031L90.7227 28.2062Z" fill="#D46D36"/>
<path d="M148.418 27.6076C153.709 35.5231 158.755 43.6043 163.844 51.6486C165.009 53.58 166.396 55.3765 167.497 57.3538C168.046 58.0497 167.702 58.8529 167.399 59.555C167.172 59.1748 166.73 58.4023 166.503 58.0221C166.071 57.2956 165.62 56.5782 165.181 55.8854C162.927 52.5377 160.755 49.1409 158.571 45.7533C155.206 40.0542 151.36 34.6433 148.062 28.9043C148.151 28.5824 148.326 27.9264 148.418 27.6045V27.6076Z" fill="#AB6D2D"/>
<path d="M37.7706 32.0437C41.0189 31.1945 44.3898 30.9309 47.7148 30.5293C47.0246 31.5226 46.2854 32.4883 45.3898 33.2976C42.9728 33.9107 40.3502 33.9291 38.0681 34.9071C35.6572 37.5466 34.2279 40.9036 32.2035 43.8344C29.2405 48.7609 25.9462 53.4882 22.8543 58.3319C22.2501 57.8169 21.6489 57.3019 21.0508 56.7991C25.2591 50.7505 29.2803 44.5762 33.0684 38.2579C34.6481 36.2223 35.5744 33.5183 37.7737 32.0437H37.7706Z" fill="#F0D782"/>
<path d="M132.7 32.0255C133.963 32.1144 134.718 33.2426 135.476 34.1194C135.862 34.659 136.249 35.2077 136.635 35.7687C135.985 35.8331 135.347 35.9098 134.709 35.9803C134.942 36.857 135.166 37.74 135.417 38.6198C134.488 37.3782 133.657 36.0109 132.46 35.0054C131.089 34.3677 129.574 34.1347 128.117 33.8067C129.071 32.2156 131.102 32.3719 132.7 32.0225V32.0255Z" fill="#EFC56F"/>
<path d="M73.6597 54.3809C77.4172 47.336 80.6593 40.0304 84.4597 33.0039C84.6407 33.3381 84.9934 34.0156 85.1744 34.3497L84.5241 34.4325C84.4198 37.8538 84.3125 41.3119 84.8401 44.7117C84.5303 45.3095 84.2358 45.9166 83.9383 46.5205C81.1163 51.3765 77.5644 55.7758 75.0124 60.7912C74.3223 62.0083 73.7303 63.3235 72.7457 64.3413C70.2919 65.3254 67.611 65.5338 65.013 65.9078C61.4304 63.8661 57.1117 66.9778 53.6211 65.0127C56.213 63.3572 59.4214 63.5841 62.2095 62.4436L61.4764 61.9286C64.2738 61.2664 67.2368 61.2511 69.9514 60.313C71.5494 58.5931 72.5218 56.4104 73.6628 54.3809H73.6597Z" fill="#F9C369"/>
<path d="M84.5256 34.4353L85.1758 34.3525C87.6512 38.8284 89.9394 43.4085 92.5527 47.8139C91.47 48.936 90.5866 50.2236 89.9608 51.6522C90.5528 52.952 90.973 54.3254 91.197 55.7418C88.7738 52.25 86.6727 48.5405 84.8354 44.7145C84.3078 41.3147 84.4152 37.8566 84.5194 34.4353H84.5256Z" fill="#F1A063"/>
<path d="M148.691 35.8451C149.231 35.6336 149.774 35.4251 150.329 35.2197C151.973 38.2026 153.881 41.023 156.013 43.6749C156.74 44.4873 157.243 45.8638 158.571 45.7565C160.755 49.144 162.927 52.5377 165.181 55.8885C163.635 57.0657 161.973 58.2583 159.924 58.1418C160.071 57.8659 160.369 57.3171 160.516 57.0412C157.795 52.5408 154.673 48.301 151.848 43.8649C151.906 43.0587 152.596 42.0746 151.906 41.3664C150.489 39.7355 149.443 37.8562 148.691 35.8482V35.8451Z" fill="#FBE395"/>
<path d="M134.711 35.9801C135.349 35.9096 135.987 35.8329 136.637 35.7686C141.045 42.3199 145.434 48.8866 149.713 55.5207C150.06 56.1124 150.391 56.7133 150.719 57.3295C150.314 58.2001 149.922 59.0677 149.532 59.9445C149.314 59.8617 148.87 59.687 148.643 59.5981C148.232 58.2522 147.477 57.0536 146.729 55.8763C143.146 50.0086 138.892 44.5671 135.42 38.6227C135.168 37.7398 134.944 36.8569 134.711 35.9832V35.9801Z" fill="#EEB85E"/>
<path d="M27.0354 56.5845C30.7468 51.0448 34.1638 45.315 37.455 39.5117C38.1329 40.7104 38.866 41.8815 39.6788 43.0035C41.1235 42.8288 42.5774 42.9453 43.9454 43.4879C44.0558 46.7344 42.3013 49.515 41.0131 52.3692C41.9854 52.8781 42.9516 53.3808 43.927 53.902C42.3995 55.6862 40.6848 57.3785 38.6574 58.5894C36.8323 58.7366 34.9214 58.3902 33.2896 59.4846C33.8049 60.2633 34.3202 61.0512 34.8417 61.8421C36.5747 62.1885 38.3476 62.3112 40.1113 62.4859C40.737 63.6785 38.9887 64.3989 38.4151 65.2695C38.7555 65.3217 39.4334 65.4381 39.7739 65.4964C39.4978 65.6006 38.9365 65.806 38.6512 65.9164C38.323 65.9869 37.6574 66.1279 37.3231 66.1984C36.8967 66.597 36.4919 67.0292 36.0992 67.4554C35.1576 67.2377 34.219 66.8238 33.2436 66.9403C32.2007 67.4492 31.4462 68.9821 30.1303 68.4732C29.3236 67.4799 28.7654 66.3272 28.1396 65.2205C26.6949 64.6656 25.241 64.0157 24.2656 62.7587C24.9435 60.6005 25.7226 58.4576 27.0293 56.5875L27.0354 56.5845Z" fill="#FBE797"/>
<path d="M134.556 41.5049C136.838 44.9507 139.074 48.421 141.374 51.8607C143.061 54.5279 145.061 57.0509 146.104 60.0737C144.604 60.4354 143.577 61.5606 142.611 62.6765C141.433 64.0223 139.801 64.8132 138.267 65.6716C139.04 65.8893 139.807 66.11 140.592 66.3399C140 66.8672 139.421 67.3884 138.847 67.9249C139.105 70.1475 139.439 72.3701 139.645 74.605C138.954 76.705 137.28 78.2501 135.875 79.881C134.979 79.7646 134.09 79.6481 133.2 79.5346C133.077 78.0079 132.936 76.4812 132.762 74.9606C131.305 74.7491 129.869 74.4057 128.47 73.9489C127.762 74.231 127.053 74.5284 126.369 74.8503C127.78 72.036 129.688 69.4516 130.624 66.4196C129.881 67.1799 129.161 67.9586 128.44 68.725L128.351 67.9525C128.569 67.6704 129.013 67.0972 129.24 66.8121C128.743 66.4902 128.234 66.1867 127.74 65.9107C124.866 65.1259 121.888 64.8807 118.989 64.2553C117.695 63.3846 116.477 62.4251 115.266 61.4655C116.051 59.4299 116.799 57.3759 117.321 55.2575C117.726 55.7327 118.14 56.2048 118.563 56.6922C118.756 56.5941 119.143 56.401 119.336 56.306C118.989 55.656 118.64 55.0123 118.305 54.3746C120.284 52.5444 121.449 50.1102 122.385 47.6301C125.161 46.9618 128.179 47.2898 130.795 46.0084C132.188 45.429 132.246 43.7214 132.755 42.5043C133.347 42.164 133.949 41.836 134.559 41.5049H134.556Z" fill="#FBCA87"/>
<path d="M150.26 41.4279C150.782 42.2403 151.309 43.0496 151.852 43.862C154.674 48.2981 157.8 52.5379 160.52 57.0383C160.373 57.3142 160.076 57.863 159.928 58.1389C159.309 59.2149 158.677 60.291 158.254 61.4621C157.95 62.2346 157.662 63.0194 157.383 63.8073C156.656 65.2697 156.165 66.827 155.867 68.4365C154.867 67.8816 153.871 67.3359 152.883 66.781C152.257 67.7007 151.641 68.6174 151.009 69.5309C150.984 68.3077 150.92 67.0907 150.898 65.8736C150.996 63.0348 151.607 60.0979 150.717 57.3265C150.389 56.7072 150.061 56.1094 149.711 55.5177C149.987 55.2909 150.53 54.8494 150.8 54.6287C149.944 51.3239 149.898 47.6205 147.527 44.9289C148.481 43.7946 149.389 42.6296 150.26 41.4248V41.4279Z" fill="#D3460F"/>
<path d="M14.5496 52.2927C16.4759 49.4079 18.3255 46.4771 20.1935 43.5586C20.3223 48.5495 15.476 51.7501 14.1816 56.3302C14.3626 58.6111 15.2889 60.7417 15.9852 62.9061C16.2244 62.9827 16.6937 63.1391 16.9268 63.2157C18.0801 67.1306 17.5771 71.2999 18.7703 75.2025C19.5187 77.9218 19.4389 80.7667 19.7825 83.5504C20.1107 82.1708 20.4266 80.7821 20.58 79.3719C20.6566 86.9717 20.8622 94.5654 20.8499 102.165C20.534 102.095 19.9021 101.954 19.5862 101.889C18.8132 98.3729 19.212 94.7401 18.7089 91.1992C18.2396 87.8362 17.9942 84.4364 17.2213 81.1254C16.6599 81.3707 16.1263 81.665 15.5987 81.9501C15.2245 81.3768 14.8656 80.8158 14.5036 80.2486C12.7583 86.3279 14.5435 92.7873 13.3258 98.9462C13.2737 96.6071 13.2491 94.2772 13.1203 91.9442C13.1786 83.0813 13.4025 74.2185 13.4546 65.3587C13.4608 63.8718 13.3197 62.3819 13.062 60.9226C12.6817 59.8803 12.0437 58.9636 11.375 58.1022C11.4517 55.8029 13.5528 54.2456 14.5527 52.2988L14.5496 52.2927Z" fill="#A55913"/>
<path d="M84.8407 44.7148C86.678 48.5408 88.7791 52.2503 91.2023 55.7421C90.9753 54.3258 90.5581 52.9523 89.9661 51.6525C90.5919 50.2239 91.4752 48.9332 92.558 47.8142C95.3216 52.2258 97.0945 57.2167 100.278 61.3768C101.186 61.3829 102.11 61.3952 103.03 61.4167C103.263 61.5791 103.72 61.8918 103.95 62.0543C105.379 62.7962 106.784 63.6454 107.572 65.12C107.339 65.5829 107.109 66.055 106.882 66.5241C110.775 67.5419 114.82 67.6247 118.783 68.2102C119.918 68.3206 120.826 69.0747 121.753 69.6725L121.191 70.0527C118.762 69.2801 116.262 68.6547 113.692 68.759C110.367 68.8233 107.287 67.3733 104.033 66.9809C101.177 66.5486 98.0607 66.4536 95.6376 64.7061C93.9045 63.1089 93.0917 60.8158 91.92 58.8323C89.5306 58.3939 87.4019 57.2014 85.4572 55.8126C84.7886 56.205 84.1229 56.6036 83.4727 57.0052C83.4727 53.5072 83.5493 50.0031 83.942 46.5267C84.2395 45.9227 84.534 45.3157 84.8438 44.7179L84.8407 44.7148Z" fill="#FBB277"/>
<path d="M6.34284 56.962C8.53903 52.9674 11.183 49.2395 13.5203 45.3369C14.2473 45.993 14.9834 46.6521 15.7165 47.3143C13.9774 48.4915 13.8915 50.4689 14.5509 52.2929C13.551 54.2366 11.4499 55.797 11.3732 58.0963C10.5542 57.5751 9.83344 56.6983 8.84577 56.5971C7.72314 56.8884 6.74464 57.5383 5.75391 58.0901C5.90114 57.8081 6.19867 57.2471 6.33977 56.962H6.34284Z" fill="#F3DE7F"/>
<path d="M75.0117 60.7942C77.5637 55.7757 81.1126 51.3795 83.9375 46.5234C83.5449 49.9999 83.4683 53.504 83.4683 57.0019C83.456 58.4949 83.4345 59.9848 83.4038 61.4778C83.3793 62.4711 83.3456 63.4674 83.364 64.4668C82.3211 64.519 81.2752 64.5895 80.2445 64.66C78.6005 63.2314 76.8613 61.9285 75.0117 60.7942Z" fill="#FBF4BD"/>
<path d="M5.7562 58.0897C6.75 57.5348 7.7285 56.8849 8.84806 56.5967C9.83266 56.7009 10.5565 57.5746 11.3755 58.0958C12.0442 58.9603 12.6822 59.8739 13.0625 60.9162C12.4307 61.8635 12.3938 62.9886 12.4368 64.0861C12.6423 69.2763 12.2313 74.4696 12.3141 79.6598C12.1086 77.0509 11.9154 74.442 11.6178 71.8546C11.4645 73.0778 11.3264 74.301 11.2314 75.5395C10.4339 75.7848 9.63329 76.0239 8.84806 76.2722C8.85419 75.3188 8.88178 74.3715 8.90018 73.4242C11.8141 70.5762 11.9491 66.2352 11.7559 62.4429C10.6486 62.4552 9.55353 62.4828 8.45544 62.5472C7.42483 61.2075 6.38807 59.8862 5.42188 58.5158L5.7562 58.0897Z" fill="#E6CB69"/>
<path d="M146.731 55.873C147.479 57.0503 148.234 58.2489 148.645 59.5948C148.464 64.5152 148.522 69.4356 148.528 74.3622C148.476 76.4683 148.528 78.5744 148.657 80.6805C148.439 86.536 148.774 92.3822 148.927 98.2254C148.967 100.427 149.267 102.707 148.458 104.82C148.347 104.253 148.136 103.118 148.025 102.554C147.734 102.677 147.154 102.916 146.872 103.039C146.768 102.459 146.685 101.886 146.614 101.313C146.427 99.8257 146.375 98.3296 146.415 96.8428C146.531 94.145 146.55 91.438 146.538 88.7402C146.498 85.604 146.648 82.4617 146.485 79.3255C146.568 76.3579 146.568 73.3934 146.584 70.432C146.59 66.9156 146.531 63.3993 146.577 59.8829C147.731 58.8835 146.694 57.1514 146.731 55.8761V55.873Z" fill="#C53F27"/>
<path d="M159.925 58.1419C161.974 58.2584 163.637 57.0659 165.183 55.8887C165.621 56.5846 166.072 57.2989 166.505 58.0254C165.468 59.9783 163.959 61.6522 163.026 63.654C162.542 68.6082 162.885 73.6052 162.64 78.5778C160.585 74.249 161.241 69.2704 160.315 64.6657C159.25 67.0631 159.824 69.7731 159.284 72.2901C158.665 75.4446 159.582 78.8261 158.155 81.8212C158.027 75.04 157.821 68.2311 158.254 61.4621C158.68 60.291 159.312 59.2149 159.928 58.1389L159.925 58.1419Z" fill="#F9BC60"/>
<path d="M4.15024 58.8959C4.02755 58.0068 4.76985 57.3507 5.16246 56.6426L6.3403 56.9645C6.1992 57.2465 5.90166 57.8075 5.75443 58.0927L5.42011 58.5188C6.3863 59.8891 7.42306 61.2104 8.45367 62.5501C9.70513 66.0358 8.65303 69.8158 8.89841 73.4272C8.88001 74.3745 8.85243 75.3218 8.84629 76.2752C8.81562 79.0588 8.86467 81.8394 8.97509 84.623C8.82173 84.8805 8.51807 85.4079 8.36163 85.6654C8.07024 85.6255 7.4844 85.5366 7.18994 85.4968C7.26049 78.9853 7.18381 72.4737 7.18994 65.9622C7.31263 63.2246 4.90786 61.3637 4.14717 58.8959H4.15024Z" fill="#A66028"/>
<path d="M21.048 56.8029C21.6461 57.3056 22.2473 57.8207 22.8515 58.3357C21.9559 60.8342 22.1829 63.5198 22.2595 66.1225C22.2779 68.2103 22.2718 70.2949 22.2534 72.3888C21.827 72.3949 20.9713 72.4011 20.5449 72.4072C20.5327 68.3482 20.4284 64.2923 20.3179 60.2334C20.2413 59.0347 20.4989 57.8575 21.0449 56.7998L21.048 56.8029Z" fill="#FBF78E"/>
<path d="M150.716 57.3301C151.605 60.0984 150.992 63.0353 150.896 65.8772C150.393 69.0716 150.317 72.3243 149.562 75.4789C149.206 75.1049 148.86 74.7309 148.525 74.3661C148.519 69.4395 148.461 64.5191 148.642 59.5987C148.869 59.6876 149.311 59.8623 149.532 59.9451C149.918 59.0683 150.311 58.2007 150.719 57.3301H150.716Z" fill="#FAB251"/>
<path d="M163.027 63.654C163.963 61.6521 165.469 59.9752 166.505 58.0254C166.732 58.4055 167.174 59.1781 167.401 59.5582C166.272 61.646 164.321 63.513 164.438 66.0575C164.285 74.8437 164.285 83.6269 164.291 92.4131C164.104 94.9117 165.831 96.8246 167.171 98.7253C167.125 98.9767 167.03 99.4856 166.984 99.7432C165.502 97.8486 163.297 96.233 162.776 93.7927C162.46 88.7251 162.88 83.6483 162.641 78.5808C162.886 73.6083 162.542 68.6112 163.027 63.657V63.654Z" fill="#A63820"/>
<path d="M111.248 137.289C112.717 136.213 114.18 135.118 115.778 134.235C113.846 136.084 111.552 137.476 109.417 139.067C109.135 139.085 108.561 139.125 108.27 139.144C109.282 138.558 110.279 137.951 111.248 137.289Z" fill="#FAB270"/>
<path d="M83.4057 61.4775C83.9455 61.1372 84.5007 60.8 85.062 60.4658C88.7274 63.461 93.7609 64.4083 96.8159 68.2005C92.2149 70.4875 88.4637 74.2277 85.4485 78.3265C86.0926 79.5681 88.4054 79.5558 88.2459 81.2573C86.9055 80.9016 85.5988 80.5154 84.2645 80.1996C84.2584 79.9237 84.2461 79.3749 84.2461 79.1051C84.3105 74.2031 83.6725 69.341 83.3689 64.4665C83.3505 63.4671 83.3811 62.4708 83.4087 61.4775H83.4057Z" fill="#FAD59D"/>
<path d="M142.609 62.6758C143.575 61.5629 144.6 60.4348 146.103 60.073L146.572 59.8799C146.526 63.3962 146.584 66.9125 146.578 70.4289C144.805 70.107 142.538 68.8562 141.029 70.3982C140.431 71.7502 140.134 73.2125 139.643 74.6043C139.437 72.3694 139.103 70.1468 138.845 67.9242C139.419 67.3908 139.999 66.8665 140.591 66.3393C139.805 66.1063 139.039 65.8886 138.266 65.6709C139.799 64.8156 141.431 64.0216 142.609 62.6758Z" fill="#FBBC77"/>
<path d="M12.4386 64.0869C12.3926 62.9925 12.4325 61.8643 13.0643 60.917C13.322 62.3793 13.4631 63.8662 13.4569 65.353C13.4048 74.2159 13.1809 83.0788 13.1226 91.9386C12.8312 89.8662 12.6012 87.7785 12.5736 85.6846C12.592 83.6674 12.4386 81.6594 12.3159 79.6575C12.2331 74.4673 12.6441 69.274 12.4386 64.0838V64.0869Z" fill="#FCE378"/>
<path d="M157.379 63.8101C157.655 63.0253 157.946 62.2374 158.25 61.4648C157.817 68.2339 158.023 75.0427 158.152 81.824C157.86 87.8849 158.197 93.958 157.934 100.025C157.572 99.5927 157.213 99.1696 156.851 98.7558C156.382 98.6393 155.915 98.5228 155.458 98.4216C154.517 96.6558 153.17 95.1567 151.296 94.3841C150.999 95.267 150.71 96.1499 150.465 97.0512C150.483 93.1302 150.71 89.2123 150.756 85.2913C150.762 83.2557 150.781 81.2201 150.879 79.1845C151.465 78.1268 152.072 77.0783 152.658 76.0145C154.029 77.0569 156.21 77.903 157.001 75.7325C158.096 71.8943 157.621 67.7587 157.382 63.8101H157.379Z" fill="#B8180B"/>
<path d="M8.45703 62.5476C9.55206 62.4832 10.6471 62.4587 11.7574 62.4434C11.9507 66.2356 11.8157 70.5766 8.90177 73.4246C8.65639 69.8102 9.70849 66.0302 8.45703 62.5476Z" fill="#F5D775"/>
<path d="M39.7711 65.4901C47.013 64.3374 54.2303 63.0436 61.4753 61.9277L62.2084 62.4428C59.4171 63.5832 56.2087 63.3563 53.6199 65.0118C57.1136 66.9769 61.4293 63.8652 65.0119 65.907C61.2943 66.3638 57.5829 66.8911 53.8561 67.2467C50.111 67.5165 46.421 68.2308 42.6758 68.3932C41.2771 67.6452 39.9704 66.7562 38.6484 65.907C38.9306 65.7966 39.492 65.5912 39.7711 65.487V65.4901Z" fill="#F5AF58"/>
<path d="M103.945 62.0508C106.51 62.2623 109.068 62.5842 111.583 63.1851C115.475 66.1619 120.45 66.3213 125.012 67.5384C123.898 68.2159 122.821 68.9302 121.751 69.669C120.822 69.0712 119.914 68.317 118.782 68.2067C114.819 67.6211 110.773 67.5384 106.881 66.5205C107.108 66.0515 107.338 65.5794 107.571 65.1165C106.786 63.6419 105.381 62.7927 103.948 62.0508H103.945Z" fill="#FBA25E"/>
<path d="M22.2573 66.1216C22.6377 64.8585 23.3523 63.7518 24.248 62.7861C23.8554 68.0468 23.8554 73.3351 24.0149 78.605C23.8799 81.5358 24.021 84.4727 23.9965 87.4097C23.7143 86.726 23.429 86.0516 23.1407 85.3802C22.8953 86.9835 22.5733 88.5808 22.1929 90.1657C21.9414 84.2398 22.2696 78.3138 22.2512 72.3909C22.2696 70.2971 22.2757 68.2124 22.2573 66.1247V66.1216Z" fill="#B3662E"/>
<path d="M24.2494 62.7865L24.2678 62.7559C25.2401 64.0128 26.6971 64.6627 28.1418 65.2176C28.7675 66.3243 29.3288 67.477 30.1325 68.4703C31.4483 68.9792 32.1998 67.4464 33.2457 66.9374C34.2181 66.821 35.1598 67.2348 36.1014 67.4525C36.494 67.0264 36.8989 66.5972 37.3253 66.1956C38.7485 67.9798 40.1288 69.8008 41.5213 71.6187C42.1348 74.3441 44.2083 76.2755 45.8769 78.3816C47.2756 80.1199 48.7264 81.8336 50.3674 83.3542C52.5391 86.659 54.7506 89.9484 57.2504 93.0203C57.1737 93.6119 57.0112 94.7922 56.9345 95.3839C56.2566 94.78 55.6002 94.1607 55.0451 93.4586C54.4009 91.469 53.4991 89.1575 51.1711 88.7068C49.4902 88.8172 47.8522 89.2556 46.2082 89.5622C45.7174 89.0778 45.242 88.6026 44.7727 88.1336C43.6439 88.5137 42.5121 88.8754 41.3649 89.1973C43.0397 87.502 45.5855 86.7356 46.5456 84.3873C42.4538 83.6607 38.6964 79.2554 34.4574 81.714C34.3868 81.4044 34.2457 80.7943 34.1751 80.4908C33.666 80.7545 33.1568 81.0242 32.6599 81.3032C32.5556 80.9353 32.344 80.1965 32.2336 79.8286C31.8348 80.0218 31.433 80.221 31.0465 80.4203C29.6754 79.9697 28.1418 79.6539 27.1234 78.5533C25.7892 77.3117 25.4855 75.4478 25.0101 73.7862C24.9518 75.4355 24.7003 77.091 24.0163 78.6116C23.8537 73.3447 23.8537 68.0564 24.2494 62.7927V62.7865Z" fill="#FBD894"/>
<path d="M111.586 63.1855C114.04 63.5963 116.527 63.8416 118.99 64.2555C121.889 64.8809 124.867 65.1261 127.741 65.9109C126.827 66.4505 125.91 66.987 125.015 67.5419C120.454 66.3248 115.478 66.1623 111.586 63.1886V63.1855Z" fill="#EC8843"/>
<path d="M155.867 68.4397C156.165 66.8303 156.652 65.2698 157.382 63.8105C157.622 67.7591 158.097 71.8947 157.002 75.733C156.211 77.9035 154.033 77.0604 152.659 76.015C152.073 77.0788 151.466 78.1273 150.88 79.1849C150.782 75.966 150.904 72.7501 151.009 69.5373C151.64 68.6237 152.26 67.707 152.883 66.7873C153.867 67.3422 154.867 67.8879 155.867 68.4428V68.4397Z" fill="#CD320C"/>
<path d="M159.28 72.2904C159.82 69.7734 159.249 67.0603 160.311 64.666C161.24 69.2707 160.581 74.2493 162.636 78.5781C162.875 83.6456 162.455 88.7224 162.771 93.79C163.292 96.2302 165.498 97.8489 166.979 99.7404C166.212 101.923 164.679 103.683 163.308 105.498C162.078 104.492 160.82 103.527 159.578 102.542C159.087 101.66 158.547 100.81 157.934 100.026C158.197 93.9586 157.863 87.8855 158.151 81.8246C159.575 78.8294 158.661 75.448 159.28 72.2934V72.2904Z" fill="#F8A354"/>
<path d="M37.3234 66.1922C37.6577 66.1217 38.3233 65.9807 38.6515 65.9102C39.9735 66.7593 41.2802 67.6484 42.6789 68.3964C49.4453 72.1457 55.083 77.5597 60.779 82.7193C64.1622 85.5152 65.3217 90.0616 64.4444 94.2615C63.6255 94.1512 62.8218 94.05 62.009 93.9397C61.598 92.6705 61.2882 91.2664 60.1011 90.4877C58.1043 88.6912 56.494 86.5146 54.5463 84.666C50.0803 80.4353 46.1756 75.6314 41.5164 71.6184C40.1238 69.8036 38.7466 67.9795 37.3203 66.1953L37.3234 66.1922Z" fill="#D35413"/>
<path d="M127.738 65.9102C128.235 66.1861 128.745 66.4896 129.238 66.8115C129.011 67.0935 128.57 67.6668 128.349 67.9519C126.435 70.058 124.481 72.1304 122.613 74.2702C120.184 74.0066 117.849 75.0888 115.414 74.9079C117.264 73.2003 119.19 71.5786 121.187 70.0519L121.748 69.6717C122.819 68.9298 123.895 68.2155 125.009 67.5411C125.904 66.9862 126.818 66.4528 127.735 65.9102H127.738Z" fill="#A9391D"/>
<path d="M149.565 75.4786C150.319 72.3241 150.396 69.0714 150.899 65.877C150.917 67.094 150.982 68.3111 151.009 69.5343C150.905 72.7471 150.782 75.963 150.88 79.182C150.782 81.2176 150.764 83.2532 150.758 85.2888C150.583 85.1907 150.236 85.0068 150.061 84.9087C149.798 85.6996 149.552 86.4936 149.307 87.2846C149.114 85.0834 148.868 82.8853 148.657 80.6842C148.528 78.5781 148.476 76.4719 148.528 74.3658C148.862 74.7337 149.212 75.1077 149.565 75.4786Z" fill="#F89242"/>
<path d="M128.437 68.7253C129.158 67.9589 129.882 67.1802 130.621 66.4199C129.686 69.4519 127.781 72.0362 126.367 74.8505C122.784 80.3442 118.622 85.4517 115.27 91.0925C113.905 92.8522 112.899 94.8357 111.822 96.7671C111.337 95.7554 110.644 94.8234 110.463 93.7014C110.374 90.789 113.061 88.4131 112.488 85.4977C116.052 81.9292 119.349 78.1155 122.61 74.2711C124.478 72.1343 126.431 70.0589 128.345 67.9528L128.434 68.7253H128.437Z" fill="#CB8662"/>
<path d="M42.6797 68.3936C46.4249 68.2312 50.1148 67.5169 53.86 67.2471C53.0533 68.4825 51.0105 69.7854 52.2221 71.4011C54.998 75.8953 59.2922 79.0898 63.0558 82.6981C62.4883 82.7042 61.3534 82.7165 60.7798 82.7165C55.0838 77.557 49.4461 72.1399 42.6797 68.3936Z" fill="#F6E89D"/>
<path d="M141.031 70.3984C142.54 68.8594 144.807 70.1072 146.58 70.4291C146.568 73.3905 146.568 76.355 146.482 79.3226C146.025 78.1239 145.663 76.8946 145.399 75.653C144.193 76.3611 143.574 77.5077 143.427 78.8811C143.316 80.4845 141.724 81.1405 140.586 81.9345C140.574 82.1277 140.556 82.5201 140.54 82.7194C140.372 82.7439 140.037 82.796 139.872 82.8236C139.188 81.1038 137.418 80.555 135.875 79.8806C137.28 78.2496 138.955 76.7045 139.645 74.6045C140.135 73.2127 140.43 71.7504 141.031 70.3984Z" fill="#FAAF7A"/>
<path d="M11.2328 75.5365C11.3309 74.301 11.4659 73.0748 11.6193 71.8516C11.9168 74.4421 12.11 77.0479 12.3155 79.6568C12.4382 81.6587 12.5916 83.6698 12.5732 85.6839C12.0456 88.0813 11.9413 90.7791 10.015 92.5571C10.0273 93.4585 10.0488 94.3598 10.1377 95.2672C9.48747 95.1446 8.84335 95.022 8.19922 94.9116C9.26357 93.5535 9.10713 91.7815 9.26356 90.1721C9.77887 88.8324 10.3463 87.4865 10.3586 86.0303C10.5211 82.5201 11.0027 79.0345 11.2359 75.5334L11.2328 75.5365Z" fill="#D6A74A"/>
<path d="M41.5195 71.6162C46.1788 75.6292 50.0834 80.4331 54.5494 84.6637C54.2672 84.7404 53.6936 84.8906 53.4084 84.9611C52.4023 84.4001 51.3778 83.8728 50.3656 83.3516C48.7215 81.8311 47.2738 80.1173 45.8751 78.3791C44.2065 76.273 42.1299 74.3416 41.5195 71.6162Z" fill="#EF9B4E"/>
<path d="M20.543 72.4071C20.9693 72.4009 21.8251 72.3948 22.2514 72.3887C22.2698 78.3146 21.9417 84.2406 22.1932 90.1635C22.1104 93.0483 22.1533 95.9484 21.9601 98.8332C21.8834 99.9982 21.7668 101.166 21.6779 102.337L20.8528 102.163C20.865 94.5627 20.6595 86.969 20.5828 79.3692C20.5951 77.0516 20.5522 74.7247 20.543 72.4071Z" fill="#F7D281"/>
<path d="M25.0093 73.7806C25.4847 75.4421 25.7884 77.303 27.1227 78.5477C28.141 79.6483 29.6747 79.964 31.0458 80.4147C31.4322 80.2154 31.831 80.0161 32.2328 79.823C32.3432 80.1909 32.5549 80.9297 32.6592 81.2976C33.1561 81.0217 33.6652 80.7488 34.1744 80.4852C34.2449 80.7887 34.386 81.3988 34.4566 81.7084C38.6956 79.2467 42.453 83.652 46.5448 84.3817C45.5848 86.733 43.0389 87.4995 41.3641 89.1917C42.5113 88.8698 43.6462 88.5081 44.7719 88.1279C45.2412 88.597 45.7197 89.0752 46.2074 89.5565C47.8515 89.2469 49.4863 88.8085 51.1703 88.7012C53.4953 89.1519 54.4002 91.4634 55.0443 93.453C53.8971 93.7749 52.5506 93.8638 51.8021 94.9153C50.2163 96.7639 48.7103 98.7076 46.7626 100.198C46.1767 97.7879 46.0479 95.2434 46.9681 92.9012C45.732 93.7197 44.5695 94.6394 43.4959 95.6572C43.1493 95.4702 42.4592 95.0962 42.1095 94.9092C42.6125 94.4126 43.1278 93.9313 43.6493 93.4469C42.999 92.5456 42.361 91.6443 41.7291 90.743C41.6525 90.9698 41.496 91.4266 41.4193 91.6504C41.174 91.445 40.6863 91.0311 40.4409 90.8257C39.2293 91.586 38.0177 92.3524 36.8122 93.1189C36.1681 92.5456 35.5363 91.9784 34.9044 91.4113C34.3247 91.6688 33.7572 91.9263 33.1959 92.1899C32.242 92.0428 31.2942 91.8987 30.3464 91.7577C30.2881 92.0673 30.1716 92.6774 30.1071 92.987C28.8373 92.987 27.5736 92.987 26.319 92.9932C26.1197 92.0857 25.9203 91.1905 25.7209 90.3015C24.5216 92.2666 25.405 94.667 25.2761 96.8253C25.3222 98.4562 25.3007 100.084 25.27 101.727C24.7486 100.857 24.221 99.9431 24.2057 98.9069C23.9725 95.0809 24.1535 91.2365 23.994 87.4044C24.0186 84.4675 23.8775 81.5306 24.0124 78.5998C24.6964 77.0792 24.9479 75.4237 25.0062 73.7744L25.0093 73.7806Z" fill="#F0BD87"/>
<path d="M115.419 74.9049C117.855 75.0857 120.189 74.0036 122.618 74.2672C119.358 78.1116 116.057 81.9253 112.496 85.4937C110.8 87.1737 108.944 88.7771 107.754 90.8771C107.168 92.2413 107.49 93.8017 107.413 95.2487C107.401 96.0397 107.413 96.8337 107.459 97.6307C106.487 97.7993 105.521 97.9588 104.555 98.1274C104.174 94.7459 103.549 91.3982 103.312 88.0014C103.429 87.0542 103.635 86.1283 103.957 85.2393C106.999 82.0908 110.426 79.3654 113.662 76.4285C114.247 75.9196 114.833 75.4168 115.428 74.9018L115.419 74.9049Z" fill="#A22813"/>
<path d="M126.372 74.8505C127.056 74.5286 127.764 74.2313 128.473 73.9492C129.872 74.406 131.307 74.7463 132.764 74.9609C132.939 76.4815 133.08 78.0082 133.203 79.5349C134.092 79.6514 134.982 79.7679 135.877 79.8813C137.417 80.5588 139.19 81.1045 139.874 82.8244C137.322 83.7441 134.635 83.7962 131.96 83.8483C132.341 84.8201 132.721 85.7858 133.108 86.7668C131.283 87.3217 129.427 87.7846 127.577 88.2108C127.102 87.4627 126.629 86.7239 126.166 85.982C125.16 86.4786 124.142 86.9232 123.105 87.3095C122.912 86.8128 122.519 85.8287 122.326 85.3321C121.728 86.0219 121.127 86.7116 120.522 87.3922C119.587 87.6314 118.707 88.0176 117.906 88.551C118.029 89.4462 118.145 90.3475 118.274 91.255C118.016 90.9913 117.501 90.464 117.243 90.1973C116.581 90.4947 115.915 90.7767 115.277 91.0925C118.627 85.4517 122.792 80.3442 126.375 74.8505H126.372Z" fill="#F9BA89"/>
<path d="M61.9414 77.747C63.0119 76.6341 63.8493 75.0737 65.3645 74.5127C69.1802 75.3251 73.0849 75.8524 76.7687 77.2105C79.198 78.0536 81.7316 78.5257 84.2437 79.1051C84.2437 79.3749 84.256 79.9236 84.2621 80.1995L83.6057 80.129C82.6917 80.316 81.796 80.5551 80.9065 80.7973C75.5449 82.0389 70.3581 84.1144 64.8921 84.798C64.6222 84.2002 64.3646 83.5994 64.113 83.0077C63.3585 81.2633 62.515 79.5619 61.9414 77.747Z" fill="#FCFDEB"/>
<path d="M8.85001 76.2727C9.63524 76.0214 10.4358 75.7822 11.2333 75.54C11.0002 79.0441 10.5186 82.5267 10.356 86.0369C10.3438 87.4931 9.77632 88.839 9.26101 90.1787C9.15059 88.3239 9.04322 86.4692 8.97881 84.6206C8.86839 81.8369 8.81627 79.0564 8.85001 76.2727Z" fill="#EFC560"/>
<path d="M104.224 78.4213C107.034 76.8762 110.411 75.2576 113.653 76.4317C110.417 79.3686 106.991 82.094 103.948 85.2425C101.35 84.2308 98.5927 83.8139 95.918 83.0842C97.3044 82.793 98.7583 82.6458 100.086 82.1063C101.356 80.7666 102.522 79.2583 104.224 78.4213Z" fill="#F9D5A7"/>
<path d="M143.427 78.8815C143.575 77.5111 144.194 76.3646 145.4 75.6533C145.663 76.8949 146.025 78.1273 146.482 79.3229C146.645 82.4591 146.495 85.6014 146.535 88.7376C145.265 89.0841 144.001 89.4274 142.74 89.7677C142.682 90.669 143.354 92.0149 142.231 92.5176C140.176 92.9223 137.986 92.6862 136.044 93.5814C135.06 94.2712 134.357 95.2767 133.569 96.1627C132.848 95.0867 132.1 94.0321 131.327 93.0081C130.928 93.2657 130.536 93.5293 130.155 93.7991C129.118 93.4894 128.066 93.2319 127.024 93.0081C126.959 93.2779 126.818 93.8328 126.754 94.1026C126.349 94.2773 125.962 94.449 125.582 94.6421C124.389 93.3913 122.545 94.0689 121.45 95.0744C118.996 97.3675 114.503 96.3037 113.15 99.9243C112.745 98.8544 112.331 97.7875 111.828 96.7605C112.905 94.8292 113.911 92.8457 115.276 91.086C115.914 90.7702 116.576 90.4882 117.242 90.1908C117.5 90.4544 118.015 90.9817 118.273 91.2484C118.144 90.341 118.027 89.4397 117.904 88.5445C118.705 88.0111 119.585 87.6248 120.521 87.3857C121.125 86.702 121.726 86.0153 122.324 85.3256C122.518 85.8222 122.91 86.8063 123.104 87.3029C124.14 86.9166 125.159 86.4721 126.165 85.9755C126.628 86.7174 127.1 87.4562 127.576 88.2042C129.425 87.7781 131.281 87.3152 133.106 86.7603C132.719 85.7823 132.339 84.8166 131.959 83.8418C134.633 83.7896 137.32 83.7375 139.872 82.8178C140.041 82.7933 140.375 82.7412 140.541 82.7136C140.553 82.5143 140.572 82.1219 140.587 81.9288C141.728 81.1378 143.32 80.4787 143.427 78.8754V78.8815Z" fill="#E3976E"/>
<path d="M14.5044 80.2453C14.8664 80.8124 15.2253 81.3734 15.5995 81.9467C16.1271 81.6647 16.6638 81.3673 17.2221 81.122C17.995 84.433 18.2404 87.8328 18.7097 91.1959C19.2128 94.7367 18.814 98.3695 19.587 101.886L19.7556 102.536C18.9121 102.729 18.0932 102.934 17.2619 103.134C17.0104 102.53 16.765 101.929 16.5288 101.337C15.6455 101.027 14.7621 100.718 13.894 100.408C14.4094 102.481 14.8664 104.679 13.9707 106.727C12.8297 105.411 11.8512 103.983 10.8789 102.548C11.112 102.097 11.3482 101.653 11.5936 101.214C12.1426 100.436 12.7469 99.6939 13.3266 98.9398C14.5443 92.7839 12.7591 86.3214 14.5044 80.2422V80.2453Z" fill="#99480B"/>
<path d="M80.9052 80.8002C81.7948 80.5549 82.6904 80.3158 83.6045 80.1318C83.6566 81.2079 83.7088 82.2839 83.7394 83.3661C83.7578 86.349 83.81 89.3289 83.8161 92.3118C83.7977 93.1426 83.7763 93.9856 83.7579 94.8287C83.4757 97.9465 83.4603 101.089 83.7333 104.213C87.5981 104.458 90.739 106.923 94.4351 107.769C96.478 108.394 98.6373 108.296 100.738 108.618C101.981 109.274 103.051 110.209 104.186 111.04C104.726 109.863 105.293 108.689 105.901 107.542C106.204 109.688 106.551 111.831 106.944 113.971C105.996 113.919 104.999 114.041 104.158 113.539C99.2538 110.988 93.8738 109.473 89.0551 106.763C87.5981 105.945 85.9571 105.172 84.2486 105.54C83.5799 106.031 83.2303 106.822 82.7671 107.484C82.123 107.812 81.4911 108.167 80.8654 108.52C80.9819 107.934 81.0985 107.355 81.2273 106.782C80.5832 106.84 79.9452 106.898 79.3195 106.969C78.5772 105.739 77.8195 104.529 77.0312 103.336C77.9453 101.147 79.5066 99.0348 79.2612 96.5485C79.1968 94.1267 79.6016 91.7109 79.4084 89.2951C79.1569 86.5759 80.1446 83.9701 80.7366 81.355L80.9052 80.8002Z" fill="#FCCB87"/>
<path d="M83.6046 80.1289L84.261 80.1994C85.5953 80.5152 86.902 80.9015 88.2424 81.2571C90.4846 81.8487 92.7268 82.4435 94.969 83.0658C91.6624 85.3651 87.3897 83.8322 83.7365 83.3632C83.7028 82.281 83.6537 81.205 83.6016 80.1289H83.6046Z" fill="#C27461"/>
<path d="M64.8906 84.7986C70.3565 84.1149 75.5433 82.0425 80.905 80.7979L80.7363 81.3527C80.2609 81.7084 79.7946 82.0548 79.3253 82.4012C78.8162 83.5478 78.3131 84.7005 77.7395 85.8133C76.2458 86.9997 74.7244 88.1892 72.9576 88.9372C72.7521 89.2469 72.5589 89.5626 72.3718 89.8845C71.243 89.5749 70.1173 89.2652 69.0008 88.9495C68.2585 87.012 66.6666 85.7367 64.8906 84.7955V84.7986Z" fill="#FDF08F"/>
<path d="M148.654 80.6836C148.866 82.8848 149.111 85.0828 149.304 87.284C149.55 86.493 149.795 85.699 150.059 84.9081C150.234 85.0062 150.58 85.1901 150.755 85.2882C150.709 89.2092 150.485 93.1272 150.464 97.0482C150.366 98.8907 150.43 100.733 150.445 102.582C149.955 104.121 148.9 105.372 147.841 106.555C145.946 108.603 143.924 110.528 142.062 112.603C142.075 112.223 142.102 111.457 142.121 111.077C144.403 109.176 146.547 107.104 148.455 104.823C149.268 102.71 148.964 100.43 148.924 98.2285C148.771 92.3883 148.433 86.539 148.654 80.6836Z" fill="#E07C3B"/>
<path d="M79.3258 82.4039C79.7951 82.0575 80.2613 81.708 80.7368 81.3555C80.1448 83.9705 79.1571 86.5794 79.4086 89.2956C79.6019 91.7113 79.197 94.1271 79.2614 96.549C79.5068 99.0352 77.9455 101.147 77.0315 103.336C77.8167 104.529 78.5774 105.74 79.3197 106.969C79.9454 106.899 80.5834 106.84 81.2275 106.782C81.0987 107.355 80.9821 107.935 80.8656 108.52C79.4148 109.327 77.9517 110.105 76.5162 110.924C76.2708 110.771 75.7739 110.455 75.5224 110.299C74.639 110.24 73.3845 110.673 73.0225 109.557C73.8998 106.678 72.7005 103.695 73.0624 100.764C73.0501 95.4055 75.7555 90.6322 77.74 85.816C78.3136 84.7032 78.8167 83.5474 79.3258 82.4039Z" fill="#FDDC82"/>
<path d="M60.7812 82.7196C61.3548 82.7196 62.4897 82.7073 63.0572 82.7012C63.321 82.7778 63.8485 82.9342 64.1154 83.0108C64.3669 83.6025 64.6246 84.2034 64.8945 84.8012C66.6735 85.7423 68.2655 87.0177 69.0047 88.9552C70.1181 89.2709 71.2469 89.5806 72.3757 89.8902C72.5628 89.5683 72.756 89.2525 72.9615 88.9429C74.7283 88.1949 76.2466 87.0054 77.7434 85.819C75.7589 90.6352 73.0535 95.4084 73.0658 100.767C72.7039 103.698 73.9032 106.681 73.0259 109.56C71.6334 106.776 69.9341 104.161 68.6121 101.341C68.1274 99.961 66.5049 100.657 65.4466 100.62C64.9957 99.3202 64.5326 98.0173 64.1522 96.6991C64.2412 95.8805 64.3393 95.0773 64.4498 94.2649C65.327 90.0649 64.1676 85.5185 60.7843 82.7226L60.7812 82.7196Z" fill="#FCE980"/>
<path d="M94.9716 83.0664C95.2814 83.0664 95.5973 83.0725 95.9194 83.0848C98.5941 83.8114 101.352 84.2314 103.95 85.243C103.627 86.1321 103.422 87.0579 103.305 88.0052C101.296 89.1334 98.9683 89.2346 96.7445 89.5902C94.4839 89.9243 92.5545 91.4633 90.2357 91.5032C88.0702 91.6074 85.9322 91.871 83.8189 92.3094C83.8127 89.3265 83.7606 86.3467 83.7422 83.3638C87.3953 83.8328 91.6681 85.3657 94.9746 83.0664H94.9716Z" fill="#DF846B"/>
<path d="M50.3672 83.3507C51.3794 83.8719 52.4039 84.3992 53.41 84.9602C53.6922 84.8897 54.2657 84.7425 54.551 84.6628C56.4957 86.5114 58.109 88.6881 60.1059 90.4845C60.023 93.5748 59.5139 96.6282 58.8882 99.6479C58.3268 99.6938 57.7747 99.746 57.2195 99.8011C57.7992 97.6061 57.9281 95.1965 57.2502 93.0137C54.7503 89.9419 52.5388 86.6494 50.3672 83.3477V83.3507Z" fill="#EEAC60"/>
<path d="M8.36465 85.6625C8.51802 85.4049 8.82168 84.8776 8.97811 84.6201C9.04253 86.4687 9.15296 88.3235 9.26032 90.1782C9.10695 91.7877 9.26033 93.5596 8.19597 94.9177C7.63466 94.5315 7.07332 94.1452 6.52734 93.765L6.89544 93.2623C7.1991 90.681 7.12855 88.0843 7.19296 85.4938C7.49049 85.5337 8.07633 85.6226 8.36465 85.6625Z" fill="#B76E30"/>
<path d="M22.1927 90.1634C22.5731 88.5785 22.8951 86.9813 23.1405 85.3779C23.4319 86.0462 23.7141 86.7238 23.9963 87.4074C24.1589 91.2395 23.9779 95.0839 24.2079 98.9098C24.2202 99.946 24.7478 100.863 25.2723 101.73C26.8182 103.919 28.8089 105.743 30.6278 107.699C30.8149 108.098 31.1769 108.892 31.3609 109.29C30.2014 108.815 29.0267 108.401 27.8887 107.92C27.6832 107.751 27.263 107.429 27.0575 107.27C24.4993 105.145 21.2787 102.595 21.9596 98.8332C22.1529 95.9484 22.1068 93.0483 22.1927 90.1634Z" fill="#A15D22"/>
<path d="M10.0156 92.5607C11.9419 90.7827 12.0462 88.0849 12.5738 85.6875C12.5983 87.7814 12.8314 89.866 13.1228 91.9415C13.2516 94.2745 13.2762 96.6044 13.3283 98.9435C12.7486 99.6976 12.1413 100.436 11.5953 101.218L10.7763 100.734C11.0156 98.8668 11.0156 96.9845 10.1383 95.2708C10.0494 94.3634 10.0279 93.4621 10.0156 92.5607Z" fill="#E3A22F"/>
<path d="M107.751 90.8804C108.944 88.7804 110.8 87.1771 112.493 85.4971C113.067 88.4156 110.38 90.7915 110.469 93.7008C110.65 94.8228 111.346 95.7548 111.827 96.7665C112.331 97.7904 112.742 98.8604 113.149 99.9303C112.659 100.743 112.196 101.573 111.732 102.404C112.008 102.45 112.57 102.533 112.846 102.579C113.625 103.906 114.392 105.24 115.128 106.598C114.683 107.711 114.343 108.858 114.039 110.019C112.886 108.382 111.996 106.574 111.61 104.602C111.07 102.027 109.444 99.8414 108.818 97.2999C108.579 95.4329 108.929 93.5261 108.472 91.6775C108.079 92.8547 107.711 94.0472 107.407 95.2582C107.484 93.8081 107.162 92.2507 107.748 90.8865L107.751 90.8804Z" fill="#A85F4B"/>
<path d="M96.7425 89.5898C98.9663 89.2342 101.291 89.1331 103.303 88.0049C103.543 91.3986 104.168 94.7494 104.546 98.1308L104.598 98.5999C104.282 99.9334 103.902 101.255 103.549 102.579C101.54 101.807 99.6564 100.507 97.4787 100.32C94.7396 100.531 92.1569 101.699 89.4056 101.828C87.7032 101.874 86.0468 101.396 84.4058 101.049C84.2003 98.9677 83.9366 96.9015 83.7617 94.8291C83.7801 93.986 83.8016 93.143 83.82 92.3122C85.9333 91.8738 88.0743 91.6101 90.2368 91.5059C92.5557 91.466 94.4819 89.9271 96.7456 89.5929L96.7425 89.5898Z" fill="#F89873"/>
<path d="M142.738 89.7703C144.002 89.43 145.266 89.0867 146.532 88.7402C146.545 91.438 146.526 94.145 146.41 96.8428C146.036 97.6031 145.836 98.5565 145.158 99.1084C143.398 99.1421 141.6 98.716 139.901 99.3076C137.818 99.9116 135.582 99.7276 133.539 100.494C133.006 100.295 132.481 100.102 131.966 99.9085C129.484 100.957 126.785 100.945 124.175 100.546C122.151 101.932 120.178 103.741 120.102 106.374C119.289 105.568 118.574 104.673 117.859 103.793C119.51 102.389 121.19 100.88 121.804 98.719C124.356 98.6945 124.015 95.9047 125.574 94.6478C125.954 94.4547 126.34 94.2799 126.745 94.1082C126.81 93.8385 126.951 93.2836 127.015 93.0138C128.058 93.2407 129.11 93.4982 130.147 93.8047C130.527 93.535 130.92 93.2713 131.319 93.0138C132.092 94.0377 132.84 95.0954 133.561 96.1684C134.346 95.2793 135.048 94.2738 136.036 93.5871C137.975 92.6919 140.168 92.931 142.223 92.5233C143.346 92.0205 142.674 90.6747 142.732 89.7734L142.738 89.7703Z" fill="#CE7C59"/>
<path d="M25.2795 96.8314C25.4083 94.6731 24.5249 92.2727 25.7242 90.3076C25.9236 91.1967 26.123 92.0918 26.3223 92.9993C27.5799 92.9931 28.8406 92.9931 30.1104 92.9931C30.1749 92.6835 30.2914 92.0734 30.3497 91.7638C31.2975 91.9048 32.2453 92.0458 33.1992 92.1961C33.7606 91.9324 34.328 91.6749 34.9077 91.4174C35.5396 91.9845 36.1714 92.5517 36.8156 93.125C38.021 92.3585 39.2326 91.5921 40.4442 90.8318C40.6896 91.0372 41.1773 91.4511 41.4226 91.6565C41.4993 91.4296 41.6558 90.9729 41.7324 90.7491C42.3643 91.6504 43.0023 92.5517 43.6526 93.453C43.1311 93.9374 42.6158 94.4187 42.1128 94.9153C42.4594 95.1023 43.1495 95.4763 43.4992 95.6633C44.5758 94.6455 45.7353 93.7258 46.9714 92.9073C46.0512 95.2526 46.18 97.7971 46.7659 100.204C48.7106 98.7168 50.2196 96.7701 51.8054 94.9215C52.5539 93.873 53.9004 93.781 55.0476 93.4591C55.6028 94.1612 56.2592 94.7804 56.9371 95.3844C57.0137 94.7927 57.1763 93.6124 57.253 93.0207C57.9308 95.2035 57.802 97.6131 57.2223 99.8082C56.8941 100.283 56.5199 100.728 56.1089 101.136C52.8943 102.334 49.4068 101.786 46.0696 102.147C45.2138 102.236 44.9991 103.254 44.4716 103.784C42.3398 103.07 40.2448 102.221 38.3676 100.97C37.7634 101.712 37.1683 102.463 36.5763 103.211C36.4414 102.561 36.3125 101.905 36.1899 101.258C34.3863 100.602 32.4723 100.473 30.6411 101.117C30.0798 100.48 29.5277 99.848 28.9848 99.2226C28.2425 99.287 27.5094 99.3514 26.7886 99.428C27.3806 98.9068 27.9817 98.3918 28.586 97.889C28.037 97.8584 27.4971 97.8246 26.9634 97.8063C26.8346 97.4966 26.5708 96.8865 26.4358 96.5769C26.1536 96.6413 25.5801 96.7701 25.2887 96.8344L25.2795 96.8314Z" fill="#E5A97B"/>
<path d="M60.1019 90.4854C61.289 91.264 61.5957 92.6681 62.0098 93.9373C62.8226 94.0477 63.6263 94.1488 64.4452 94.2592C64.3348 95.0716 64.2397 95.8748 64.1477 96.6934C63.844 98.8301 63.4974 100.97 63.1539 103.107C61.7889 103.429 60.4332 103.769 59.0805 104.112C59.3443 104.44 59.6142 104.774 59.8995 105.112C59.1081 105.614 58.326 106.117 57.5469 106.62C57.9456 104.29 58.4241 101.969 58.8811 99.6517C59.5069 96.632 60.016 93.5786 60.0989 90.4884L60.1019 90.4854Z" fill="#BF4319"/>
<path d="M1.05757 100.973C2.55748 98.3458 4.69844 96.163 6.52962 93.7656C7.07867 94.1458 7.63693 94.532 8.19825 94.9183C6.98667 96.5677 5.52969 98.171 4.96838 100.173C5.18002 101.145 5.53582 102.08 5.88242 103.012L6.06953 103.45C5.40699 103.018 4.72914 102.625 4.06047 102.233C3.32738 102.665 2.59123 103.088 1.87041 103.527C1.36738 102.8 0.278477 101.905 1.05757 100.97V100.973Z" fill="#D79347"/>
<path d="M121.448 95.0772C122.543 94.0717 124.386 93.3972 125.579 94.645C124.021 95.9019 124.362 98.6886 121.81 98.7162C121.196 100.881 119.515 102.386 117.865 103.79L117.807 103.842C116.822 104.661 115.841 105.516 115.126 106.592C114.393 105.234 113.626 103.9 112.844 102.573C112.568 102.527 112.007 102.444 111.73 102.398C112.194 101.567 112.66 100.736 113.148 99.9241C114.5 96.3035 118.991 97.3673 121.448 95.0742V95.0772Z" fill="#CC8365"/>
<path d="M151.297 94.3811C153.171 95.1537 154.518 96.6559 155.46 98.4186C155.917 98.5229 156.38 98.6363 156.852 98.7528C157.214 99.1636 157.573 99.5897 157.935 100.022C158.548 100.807 159.088 101.659 159.579 102.539C158.456 104.066 157.355 105.605 156.165 107.073C155.444 105.887 154.871 104.633 154.174 103.446C153.214 102.383 151.745 102.324 150.451 102.576C150.438 100.727 150.374 98.8846 150.469 97.0421C150.714 96.1408 151.003 95.2579 151.3 94.375L151.297 94.3811Z" fill="#9A1108"/>
<path d="M8.19862 94.918C8.84276 95.0283 9.48687 95.151 10.1371 95.2736C11.0144 96.9873 11.0144 98.8666 10.7752 100.737C9.32433 101.895 7.94096 103.474 5.8828 103.017C5.53619 102.082 5.18039 101.15 4.96875 100.179C5.53007 98.1768 6.98704 96.5734 8.19862 94.9241V94.918Z" fill="#F3CC58"/>
<path d="M83.7341 104.21C83.4642 101.086 83.4764 97.944 83.7586 94.8262C83.9334 96.8986 84.1972 98.9679 84.4027 101.046C86.0468 101.393 87.7031 101.871 89.4024 101.825C92.1538 101.696 94.7364 100.531 97.4755 100.317C99.6533 100.504 101.537 101.804 103.546 102.576C103.902 101.249 104.279 99.9305 104.595 98.597C105.033 101.58 105.515 104.547 105.895 107.536C105.291 108.683 104.724 109.854 104.181 111.034C103.046 110.204 101.978 109.269 100.733 108.613C98.6319 108.291 96.4726 108.386 94.4297 107.763C90.7306 106.92 87.5927 104.452 83.7279 104.207L83.7341 104.21Z" fill="#FDB17A"/>
<path d="M25.2796 96.8308C25.571 96.7664 26.1446 96.6376 26.4267 96.5732C26.5617 96.8829 26.8255 97.4929 26.9543 97.8026C27.4881 97.821 28.0309 97.8547 28.5769 97.8854C27.9727 98.3881 27.3715 98.9032 26.7795 99.4243C27.5003 99.3477 28.2365 99.2833 28.9757 99.2189C29.5155 99.8443 30.0707 100.476 30.632 101.114C32.4632 100.47 34.3772 100.598 36.1808 101.255C36.3035 101.898 36.4323 102.554 36.5672 103.207C37.1592 102.459 37.7543 101.705 38.3585 100.966C40.2327 102.217 42.3276 103.066 44.4625 103.781C45.2416 104.127 46.0483 104.516 46.8028 104.958C44.941 106.298 44.1803 108.643 44.168 110.856C44.1281 111.147 44.0514 111.721 44.0208 112.009C40.0517 111.911 36.0489 110.553 32.8405 108.201C32.2086 107.699 31.3774 107.726 30.629 107.699C28.8131 105.74 26.8194 103.919 25.2734 101.73C25.3072 100.087 25.3256 98.4586 25.2796 96.8277V96.8308Z" fill="#CD9672"/>
<path d="M64.1496 96.6963C64.5299 98.0176 64.9931 99.3174 65.444 100.617C66.5022 100.657 68.1248 99.9612 68.6095 101.338C69.9315 104.158 71.6308 106.773 73.0233 109.557C73.3852 110.67 74.6398 110.24 75.5232 110.299C75.7747 110.452 76.2716 110.768 76.517 110.924C72.4896 113.294 68.4868 115.74 64.7508 118.558C62.8828 119.922 61.0271 121.308 59.3125 122.874C59.3708 119.346 61.0731 116.041 61.3952 112.512C62.1681 109.422 62.6466 106.258 63.1619 103.116C63.5024 100.979 63.8521 98.8392 64.1557 96.7024L64.1496 96.6963Z" fill="#FCEB97"/>
<path d="M145.161 99.1083C145.838 98.5534 146.038 97.6 146.412 96.8428C146.372 98.3296 146.424 99.8257 146.611 101.313C145.161 103.302 143.771 105.436 141.741 106.895C139.195 107.101 137.357 109.072 135.115 110.05C133.897 110.411 132.603 110.249 131.358 110.295C131.042 110.617 130.726 110.945 130.428 111.279C127.748 110.494 124.745 111.377 122.413 109.455C121.162 110.369 119.773 111.163 118.837 112.423C118.739 113.768 119.585 115.335 118.509 116.466C118.316 115.565 118.162 114.664 118.033 113.762C117.994 112.499 117.794 111.16 118.297 109.961C119.135 108.873 120.386 108.223 121.493 107.444C121.147 107.18 120.457 106.638 120.107 106.368C120.184 103.734 122.156 101.923 124.18 100.54C126.791 100.939 129.49 100.951 131.971 99.9023C132.486 100.095 133.008 100.289 133.545 100.488C135.588 99.7215 137.824 99.9085 139.906 99.3015C141.609 98.7098 143.406 99.1328 145.164 99.1022L145.161 99.1083Z" fill="#B5674C"/>
<path d="M104.547 98.1304C105.513 97.9618 106.479 97.8024 107.452 97.6338C107.685 99.6571 108.056 101.659 108.172 103.695C107.746 108.955 109.344 114.149 110.221 119.305C109.724 119.369 108.734 119.492 108.237 119.556C107.761 117.702 107.301 115.841 106.942 113.965C106.55 111.828 106.2 109.682 105.9 107.536C105.519 104.547 105.035 101.579 104.599 98.5964L104.547 98.1274V98.1304Z" fill="#99211A"/>
<path d="M21.6778 102.337C21.7668 101.166 21.8833 99.998 21.96 98.833C21.276 102.595 24.4997 105.145 27.0579 107.27C26.9229 108.275 26.7603 109.287 26.5732 110.289C24.3372 107.674 21.96 105.182 19.7546 102.536L19.5859 101.886C19.9019 101.951 20.5337 102.092 20.8497 102.162L21.6747 102.337H21.6778Z" fill="#DB9538"/>
<path d="M167.168 98.7228C167.901 99.8111 168.548 100.964 169.186 102.117C164.708 108.505 158.856 113.735 153.819 119.655C149.675 124.202 145.537 128.763 141.298 133.224C140.66 131.826 140.157 130.376 139.719 128.907C141.943 126.988 144.344 125.269 146.427 123.187C148.359 121.164 150.924 119.753 152.356 117.273C156.172 113.506 159.991 109.719 163.309 105.495C164.68 103.68 166.214 101.92 166.981 99.7375C167.027 99.48 167.122 98.9711 167.168 98.7197V98.7228Z" fill="#A4502A"/>
<path d="M57.2156 99.8047C57.7708 99.7464 58.3229 99.6943 58.8842 99.6514C58.4272 101.969 57.9487 104.29 57.5499 106.62C57.3966 107.49 57.2585 108.37 57.1389 109.253C54.7403 109.793 52.2926 110.623 49.8326 110.026C50.2191 109.336 50.4706 108.603 50.5872 107.837C49.4339 106.742 48.0996 105.859 46.8052 104.958C46.0506 104.514 45.247 104.127 44.4648 103.781C44.9924 103.254 45.2071 102.236 46.0629 102.144C49.4001 101.782 52.8876 102.331 56.1022 101.132C56.5132 100.727 56.8874 100.283 57.2156 99.8047Z" fill="#D99165"/>
<path d="M13.8945 100.412C14.7656 100.722 15.6459 101.031 16.5293 101.341C16.7686 101.933 17.014 102.534 17.2624 103.138C18.0937 102.938 18.9126 102.733 19.7561 102.54C21.9585 105.185 24.3387 107.678 26.5747 110.293C32.8259 117.494 40.0371 123.76 47.0214 130.22C44.4049 130.934 43.3743 128.331 41.9572 126.774C40.1414 125.137 37.7244 124.119 35.2613 124.236C35.2215 125.06 34.9914 125.968 35.5527 126.697C37.2275 129.358 39.669 131.418 41.6474 133.859C41.4205 134.328 40.9696 135.275 40.7457 135.753L40.4113 135.502C35.6356 129.932 30.2248 124.953 25.3202 119.49C23.1026 116.964 20.7193 114.594 18.5016 112.071C17.2134 110.106 15.511 108.484 13.9712 106.73C14.8669 104.683 14.4098 102.488 13.8945 100.412Z" fill="#813F0C"/>
<path d="M5.88672 103.011C7.94181 103.468 9.32821 101.889 10.779 100.73L11.598 101.215C11.3526 101.653 11.1134 102.098 10.8834 102.548C11.8557 103.983 12.8372 105.415 13.9752 106.727C15.515 108.477 17.2173 110.102 18.5056 112.067C19.1375 113.337 19.9503 114.514 20.8889 115.584C20.7417 115.906 20.4319 116.549 20.2754 116.865C21.2232 118.76 22.763 120.265 23.9163 122.025C20.0178 119.603 18.3614 114.876 14.7727 112.15C10.8741 110.464 8.15345 107.024 6.07382 103.45L5.88672 103.011Z" fill="#CE8C2A"/>
<path d="M141.741 106.895C143.772 105.433 145.164 103.302 146.612 101.312C146.683 101.886 146.765 102.459 146.87 103.038C147.152 102.916 147.735 102.677 148.023 102.554C148.133 103.121 148.345 104.256 148.456 104.82C146.548 107.101 144.404 109.173 142.122 111.074C141.471 111.331 140.833 111.601 140.195 111.874C140.793 110.979 141.349 110.065 141.91 109.148C141.852 108.738 141.729 107.919 141.671 107.511L141.741 106.892V106.895Z" fill="#8F2D17"/>
<path d="M1.87109 103.529C2.59191 103.091 3.32806 102.665 4.06115 102.235C4.72982 102.628 5.40767 103.02 6.07021 103.452C8.1529 107.027 10.8705 110.467 14.7691 112.153C18.3578 114.878 20.0142 119.605 23.9127 122.027C22.7594 120.268 21.2196 118.762 20.2718 116.868C20.4252 116.552 20.735 115.908 20.8853 115.586C24.2041 119.593 27.7806 123.367 31.4337 127.07C30.6914 127.69 29.9829 128.346 29.1793 128.873C27.4984 127.901 26.0874 126.555 24.6243 125.305C23.6826 124.37 22.8085 123.385 21.9036 122.432C19.0817 122.457 18.1278 118.986 15.3641 118.753C10.5822 113.937 6.43217 108.545 1.87109 103.529Z" fill="#9C6021"/>
<path d="M150.448 102.582C151.742 102.33 153.211 102.389 154.172 103.453C154.868 104.639 155.441 105.893 156.162 107.079C153.27 110.513 150.245 113.836 147.224 117.159C146.785 116.669 146.353 116.181 145.93 115.697C146.773 114.615 147.534 113.437 147.638 112.027C148.862 110.455 149.733 108.033 147.844 106.558C148.902 105.372 149.957 104.124 150.448 102.585V102.582Z" fill="#7C1409"/>
<path d="M156.162 107.076C157.356 105.608 158.457 104.069 159.576 102.542C160.819 103.526 162.076 104.495 163.306 105.497C159.987 109.722 156.166 113.508 152.353 117.276C149.233 118.879 146.727 121.617 143.203 122.389L143.326 121.46C144.614 120.016 145.918 118.582 147.224 117.153C150.246 113.83 153.27 110.507 156.162 107.073V107.076Z" fill="#D87B38"/>
<path d="M59.0857 104.115C60.4384 103.775 61.791 103.431 63.159 103.109C62.6437 106.252 62.1652 109.415 61.3923 112.506C59.7421 114.008 59.7175 116.384 58.6808 118.251C58.6501 116.776 58.5458 115.314 58.3342 113.864C57.6901 113.968 57.0521 114.081 56.4141 114.198C56.6901 112.549 56.8987 110.893 57.141 109.253C57.2637 108.37 57.3987 107.487 57.5521 106.62C58.3311 106.117 59.1102 105.614 59.9046 105.111C59.6225 104.777 59.3495 104.443 59.0857 104.112V104.115Z" fill="#AF3317"/>
<path d="M110.224 119.309C109.347 114.149 107.749 108.959 108.175 103.698C109.362 108.695 110.294 113.744 111.396 118.763C112.046 121.654 111.865 124.848 113.767 127.328C113.555 127.568 113.122 128.043 112.911 128.282C111.396 128.135 109.844 127.985 108.463 127.304C104.132 125.262 99.9177 122.997 95.7309 120.682C95.556 120.336 95.2217 119.646 95.0469 119.296C98.1663 120.688 101.093 122.889 104.694 122.62C102.675 119.781 99.2153 118.285 97.6111 115.155C101.651 117.73 105.77 120.268 109.319 123.515C108.933 122.2 108.571 120.881 108.236 119.56C108.733 119.496 109.724 119.373 110.221 119.309H110.224Z" fill="#801F0F"/>
<path d="M115.128 106.596C115.843 105.52 116.824 104.664 117.809 103.846C116.597 105.887 116.591 109.18 114.039 110.017C114.343 108.858 114.683 107.712 115.128 106.596Z" fill="#F3A570"/>
<path d="M117.809 103.842L117.867 103.79C118.582 104.673 119.296 105.568 120.109 106.371C120.456 106.641 121.146 107.184 121.496 107.447C120.388 108.226 119.137 108.876 118.3 109.964C117.797 111.163 117.996 112.503 118.036 113.766C117.714 113.612 117.076 113.297 116.754 113.134C116.579 112.239 116.413 111.338 116.263 110.449C115.514 110.295 114.775 110.145 114.039 110.01C116.591 109.173 116.597 105.881 117.809 103.839V103.842Z" fill="#D69160"/>
<path d="M44.168 110.856C44.1802 108.64 44.9409 106.298 46.8028 104.958C46.3519 106.837 45.4961 108.585 44.5084 110.24L44.168 110.859V110.856Z" fill="#F7C395"/>
<path d="M46.8052 104.958C48.0996 105.859 49.4339 106.742 50.5872 107.837C50.4706 108.603 50.2191 109.339 49.8326 110.026C48.5106 111.12 47.2807 112.325 46.2746 113.723C45.8544 112.472 45.2685 111.301 44.5078 110.237C45.4924 108.582 46.3513 106.837 46.8021 104.955L46.8052 104.958Z" fill="#EAB07D"/>
<path d="M84.2471 105.538C85.9556 105.17 87.5966 105.942 89.0536 106.761C93.8723 109.471 99.2554 110.985 104.157 113.536C104.994 114.039 105.994 113.916 106.942 113.968C107.304 115.841 107.761 117.702 108.236 119.56C108.571 120.881 108.933 122.2 109.319 123.515C105.767 120.268 101.651 117.73 97.6114 115.155C93.2435 112.193 88.6425 109.59 84.0079 107.07C83.6981 107.175 83.0724 107.38 82.7656 107.481C83.2288 106.819 83.5784 106.025 84.2471 105.538Z" fill="#F4DAA5"/>
<path d="M27.0597 107.27C27.2652 107.432 27.6854 107.754 27.8909 107.919C31.6606 111.494 34.9151 115.559 38.4455 119.37C42.0036 122.95 45.5739 126.55 49.4847 129.765C53.7575 133.242 58.2173 136.495 62.8244 139.517L62.9992 140.367C61.7938 139.747 60.6006 139.097 59.4228 138.454C59.5761 138.95 59.8982 139.94 60.0546 140.437C58.7326 139.432 57.3983 138.447 56.0733 137.46C53.006 135.103 50.0031 132.675 47.0247 130.216C40.0405 123.757 32.8293 117.491 26.5781 110.289C26.7652 109.284 26.9248 108.272 27.0628 107.27H27.0597Z" fill="#C08233"/>
<path d="M30.6289 107.702C31.3773 107.727 32.2086 107.702 32.8404 108.205C36.0488 110.556 40.0516 111.915 44.0207 112.013C44.0514 111.721 44.1312 111.148 44.168 110.86L44.5084 110.241C45.2691 111.304 45.855 112.476 46.2752 113.726C47.2813 112.328 48.5112 111.124 49.8333 110.029C52.2963 110.627 54.744 109.796 57.1395 109.257C56.8942 110.9 56.6887 112.555 56.4126 114.202C56.1212 115.903 55.8145 117.607 55.612 119.327C54.1121 120.86 52.4742 122.534 50.2565 122.902C48.8855 123.055 47.5113 123.055 46.1464 123.184C43.2416 120.762 40.2295 118.438 37.653 115.655C35.6224 113.46 33.5673 111.301 31.365 109.29C31.1779 108.892 30.816 108.098 30.632 107.699L30.6289 107.702Z" fill="#A9725A"/>
<path d="M82.767 107.481C83.0768 107.377 83.7025 107.171 84.0092 107.07C88.6439 109.587 93.2449 112.19 97.6127 115.155C99.2169 118.285 102.677 119.778 104.695 122.619C101.094 122.889 98.1679 120.688 95.0484 119.296C91.3677 117.665 88.0489 115.155 84.1902 113.99C80.4266 115.529 76.979 117.791 73.5313 119.94C71.8505 121.053 70.0898 122.034 68.3169 122.981C67.4734 123.021 66.6606 123.058 65.8416 123.092C65.7588 122.865 65.5962 122.414 65.5134 122.19C64.6116 122.061 63.7098 121.933 62.8203 121.81C63.5565 121.154 64.2895 120.495 65.038 119.845C64.9674 119.523 64.8202 118.879 64.7466 118.557C68.4826 115.743 72.4854 113.297 76.5127 110.924C77.9482 110.105 79.4114 109.327 80.8622 108.52C81.4879 108.165 82.1198 107.812 82.7639 107.484L82.767 107.481Z" fill="#8D120A"/>
<path d="M142.063 112.604C143.925 110.532 145.949 108.604 147.842 106.556C149.731 108.03 148.86 110.452 147.636 112.025C147.532 113.435 146.771 114.615 145.928 115.694C146.354 116.179 146.783 116.666 147.222 117.157C145.915 118.585 144.612 120.023 143.323 121.464C140.805 123.852 138.548 126.513 135.855 128.702C134.039 130.118 132.465 131.786 130.886 133.448C130.358 133.957 129.815 134.453 129.294 134.974C125.512 135.238 123.398 138.889 120.389 140.738C120.107 140.456 119.546 139.895 119.267 139.61C118.319 140.1 117.386 140.594 116.463 141.103C115.117 140.646 113.988 139.781 113.215 138.592C123.751 131.026 133.306 122.151 142.057 112.598L142.063 112.604Z" fill="#6C180A"/>
<path d="M27.8898 107.919C29.0308 108.403 30.2026 108.814 31.362 109.289C33.5643 111.297 35.6225 113.456 37.65 115.654C40.2265 118.437 43.2355 120.761 46.1433 123.183C47.7935 124.768 49.5909 126.184 51.3822 127.607C51.6797 127.947 52.2595 128.631 52.5478 128.971C51.5172 129.235 50.4988 129.498 49.4805 129.762C45.5697 126.549 41.9994 122.947 38.4413 119.366C34.9108 115.553 31.6564 111.491 27.8867 107.916L27.8898 107.919Z" fill="#793F16"/>
<path d="M127.849 120.807C133.075 117.064 137.284 112.159 141.67 107.515C141.728 107.919 141.851 108.738 141.909 109.152C141.348 110.065 140.796 110.982 140.195 111.877C133.72 117.828 127.686 124.262 120.861 129.833C119.34 131.577 116.319 132.331 116.19 134.952C114.135 136.537 112.15 138.895 109.417 139.067C111.549 137.476 113.843 136.084 115.779 134.235C114.181 135.118 112.718 136.212 111.249 137.289C110.623 136.611 110.006 135.949 109.387 135.293C112.086 133.135 114.948 131.191 117.739 129.149C121.297 126.592 124.285 123.358 127.849 120.807Z" fill="#782A1A"/>
<path d="M140.193 111.874C140.831 111.605 141.469 111.335 142.119 111.074C142.101 111.454 142.073 112.221 142.061 112.601C133.31 122.154 123.755 131.029 113.219 138.595C108.735 141.615 103.999 144.236 99.3336 146.961C97.5024 147.933 95.7049 149.049 93.6959 149.576C89.8157 149.487 86.3374 146.026 82.4051 147.504C79.9298 148.193 77.5711 149.282 75.0405 149.763C73.9118 149.616 72.9854 148.886 72.0193 148.359C67.998 145.769 63.8756 143.328 60.0537 140.437C59.9004 139.941 59.5783 138.95 59.4219 138.454C60.5997 139.098 61.7929 139.747 62.9983 140.367L62.8235 139.518C64.0228 140.272 65.2344 141.011 66.4061 141.817C69.0287 143.626 71.6696 145.431 74.243 147.317C74.9117 147.721 75.608 148.469 76.473 148.065C79.4176 147.258 82.2395 146.047 85.0829 144.928C87.8158 145.649 90.2574 147.574 93.0548 147.832C98.5913 145.808 103.186 141.992 108.275 139.144C108.566 139.125 109.14 139.085 109.422 139.067C112.155 138.892 114.139 136.535 116.194 134.953C116.323 132.332 119.345 131.577 120.866 129.833C127.691 124.263 133.721 117.828 140.199 111.877L140.193 111.874Z" fill="#A24C20"/>
<path d="M58.6818 118.251C59.7185 116.384 59.7461 114.008 61.3932 112.506C61.0712 116.034 59.3688 119.339 59.3106 122.868C58.8075 123.03 58.2738 123.125 57.7769 123.26C57.2555 124.897 56.734 126.537 55.8629 128.034C55.6574 128.092 55.2372 128.221 55.0317 128.279C54.9427 127.221 54.8507 126.173 54.8047 125.124C55.1329 123.199 55.3967 121.268 55.6114 119.327C55.8108 117.607 56.1206 115.9 56.4119 114.201C57.0499 114.085 57.6879 113.968 58.3321 113.867C58.5437 115.317 58.648 116.779 58.6787 118.254L58.6818 118.251Z" fill="#992D12"/>
<path d="M84.1909 113.986C88.0496 115.151 91.3684 117.665 95.0492 119.293C95.224 119.639 95.5584 120.329 95.7332 120.679C95.359 120.826 94.6259 121.117 94.2517 121.264C93.0217 120.807 91.7518 120.473 90.5219 120.041C88.5434 118.919 86.4239 118.012 84.1419 117.812C81.2371 117.251 78.7035 119.017 76.3049 120.363C75.3755 120.216 74.4553 120.081 73.5352 119.937C76.9828 117.785 80.4304 115.525 84.194 113.986H84.1909Z" fill="#933228"/>
<path d="M76.3046 120.364C78.7032 119.018 81.2338 117.252 84.1416 117.813C82.6478 119.867 81.4546 122.347 79.1204 123.598C76.6328 125.002 74.1269 126.381 71.7926 128.034C72.4766 130.042 73.0871 132.105 74.3048 133.874C74.2342 132.335 74.2465 130.732 75.2004 129.438C77.2371 130.422 79.5683 130.352 81.3166 128.794C82.3288 129.269 83.341 129.754 84.3593 130.244C84.7397 129.76 85.1262 129.279 85.5188 128.8C86.9114 128.711 88.3284 128.702 89.6872 128.316C90.4142 127.761 90.9449 127.001 91.5553 126.32C91.5215 125.845 91.4969 125.367 91.4847 124.892C91.9693 124.821 92.9294 124.68 93.4109 124.6C93.4294 122.583 91.9601 121.207 90.5185 120.042C91.7485 120.474 93.0183 120.808 94.2483 121.265C97.4199 123.423 100.021 126.191 102.367 129.199C104.45 128.157 105.429 130.977 106.557 132.24C105.959 132.433 105.37 132.626 104.791 132.826C103.024 131.878 101.003 131.924 99.0947 131.504C98.9597 131.832 98.6959 132.482 98.561 132.81C96.2543 133.313 93.7545 134.46 91.5062 133.144C91.5307 133.607 91.5644 134.086 91.6104 134.561C88.537 134.098 85.4636 134.625 82.5895 135.726C79.6112 134.748 76.4488 135.333 73.4582 135.907C71.397 134.561 68.9861 133.561 67.4524 131.566C66.5629 130.355 65.2286 129.634 64.0508 128.764C65.5783 127.142 67.4862 125.931 69.664 125.407C72.538 124.769 74.0839 122.019 76.3077 120.357L76.3046 120.364Z" fill="#93554E"/>
<path d="M143.201 122.393C146.725 121.62 149.231 118.883 152.351 117.279C150.921 119.759 148.354 121.17 146.421 123.193C144.339 125.275 141.937 126.991 139.713 128.914C139.14 129.383 138.572 129.861 138.005 130.336C137.284 129.787 136.56 129.248 135.852 128.705C138.545 126.516 140.799 123.855 143.32 121.467L143.198 122.396L143.201 122.393Z" fill="#BF6327"/>
<path d="M84.1388 117.812C86.4209 118.012 88.5404 118.919 90.5188 120.041C91.9635 121.206 93.4327 122.586 93.4113 124.6C92.9266 124.677 91.9666 124.818 91.485 124.891C91.4973 125.366 91.5249 125.845 91.5556 126.32C90.9421 127.003 90.4145 127.764 89.6876 128.316C88.3288 128.702 86.9117 128.708 85.5191 128.8C85.1265 129.275 84.74 129.759 84.3597 130.244C83.3413 129.753 82.3292 129.272 81.3169 128.794C79.5717 130.351 77.2374 130.425 75.2007 129.438C74.2468 130.731 74.2346 132.335 74.3051 133.874C73.0874 132.102 72.4739 130.042 71.793 128.033C74.1272 126.378 76.6332 124.998 79.1207 123.597C81.455 122.347 82.6451 119.87 84.1419 117.812H84.1388Z" fill="#A56960"/>
<path d="M15.3633 118.754C18.1269 118.987 19.0808 122.457 21.9027 122.433C22.8045 123.386 23.6818 124.37 24.6234 125.305C25.1265 127.031 25.8473 128.727 27.0527 130.091C28.1815 131.599 30.0802 132.782 29.9268 134.916C24.8872 129.692 20.1452 124.205 15.3633 118.757V118.754Z" fill="#8E541C"/>
<path d="M59.3109 122.868C61.0255 121.302 62.8812 119.919 64.7492 118.552C64.8198 118.874 64.967 119.517 65.0406 119.839C64.2922 120.489 63.5591 121.145 62.823 121.804C63.7125 121.927 64.6143 122.056 65.5161 122.185C65.5989 122.411 65.7614 122.862 65.8442 123.086C66.6632 123.052 67.4761 123.015 68.3196 122.976C64.4793 125.333 60.2311 126.97 55.8633 128.031C56.7344 126.538 57.2558 124.895 57.7773 123.258C58.2742 123.123 58.8079 123.025 59.3109 122.865V122.868Z" fill="#7D1D0F"/>
<path d="M50.2586 122.902C52.4763 122.534 54.1111 120.86 55.6141 119.327C55.4025 121.265 55.1387 123.199 54.8074 125.124C54.608 126.13 54.3749 127.132 54.1633 128.138C53.2339 127.945 52.3137 127.758 51.3874 127.611C49.5961 126.188 47.7986 124.772 46.1484 123.187C47.5134 123.058 48.8875 123.058 50.2586 122.905V122.902Z" fill="#98614C"/>
<path d="M68.3205 122.978C70.0934 122.03 71.8509 121.052 73.5349 119.937C74.4551 120.078 75.3783 120.212 76.3046 120.363C74.0808 122.024 72.5349 124.774 69.6609 125.412C67.4831 125.933 65.5752 127.144 64.0477 128.769C65.2255 129.639 66.5598 130.36 67.4493 131.571C68.983 133.567 71.3939 134.566 73.4551 135.912C74.6146 136.387 75.8721 136.516 77.1082 136.678C77.5469 137.42 77.9916 138.159 78.4425 138.907C79.513 139.247 80.5743 139.615 81.6325 140.02C79.3658 140.283 77.0776 140.188 74.8078 140.452C71.5718 140.973 68.8419 138.334 65.6243 138.757C60.8178 136.117 56.6279 132.586 52.5484 128.974C52.257 128.634 51.6773 127.95 51.3828 127.61C52.3122 127.757 53.2324 127.944 54.1587 128.137C54.3704 127.132 54.6035 126.129 54.8029 125.124C54.8489 126.172 54.9378 127.224 55.0298 128.278C55.2353 128.22 55.6556 128.091 55.8611 128.033C60.2289 126.969 64.4771 125.335 68.3174 122.978H68.3205Z" fill="#7D4E43"/>
<path d="M35.2597 124.235C37.7227 124.118 40.1367 125.136 41.9556 126.773C43.3727 128.33 44.4033 130.933 47.0197 130.219C49.998 132.681 53.0009 135.109 56.0682 137.463C53.4334 139.137 50.3845 136.761 47.6209 138.19C45.5903 136.798 43.5536 135.406 41.6488 133.855C39.6704 131.414 37.2289 129.354 35.5541 126.693C34.9928 125.967 35.2259 125.056 35.2627 124.232L35.2597 124.235Z" fill="#702D08"/>
<path d="M24.625 125.302C26.0881 126.553 27.4991 127.898 29.18 128.87C29.9867 128.343 30.6952 127.684 31.4344 127.068C33.7809 129.401 36.1826 131.672 38.4984 134.042C35.5783 134.655 34.4128 137.669 34.0723 140.314C33.7318 139.192 33.3239 138.113 32.9251 137.031L32.4681 137.739C31.6123 136.798 30.7719 135.851 29.9284 134.913C30.0817 132.782 28.1831 131.596 27.0543 130.087C25.8489 128.723 25.128 127.028 24.625 125.302Z" fill="#A05914"/>
<path d="M130.891 133.451C132.47 131.789 134.041 130.121 135.86 128.705C136.568 129.245 137.289 129.787 138.013 130.336C138.58 129.861 139.148 129.383 139.721 128.914C140.16 130.382 140.663 131.832 141.301 133.23C140.123 134.723 138.099 135.962 137.994 138.003C137.525 138.172 137.053 138.344 136.596 138.518C135.547 136.001 133.476 134.254 130.894 133.457L130.891 133.451Z" fill="#9C3812"/>
<path d="M49.4844 129.766C50.5027 129.502 51.5211 129.238 52.5517 128.975C56.6312 132.589 60.818 136.118 65.6276 138.757C66.3699 139.324 67.0968 139.928 67.8575 140.489C67.3667 140.928 66.8852 141.366 66.4067 141.817C65.235 141.01 64.0234 140.272 62.8241 139.517C58.217 136.498 53.7571 133.245 49.4844 129.766Z" fill="#6B2C12"/>
<path d="M129.298 134.977C129.82 134.456 130.363 133.959 130.89 133.45C133.473 134.25 135.543 135.995 136.592 138.512C137.049 138.337 137.522 138.165 137.991 137.997C138.494 138.711 139.028 139.413 139.531 140.143C138.5 140.722 137.629 141.513 137.101 142.577C136.675 141.599 136.316 140.593 135.954 139.6C135.736 139.851 135.292 140.354 135.071 140.605C133.795 141.862 132.513 143.11 131.418 144.526C129.774 143.987 127.952 143.561 126.875 142.086C128.326 139.934 127.203 136.844 129.298 134.977Z" fill="#B5450F"/>
<path d="M34.0695 140.317C34.4099 137.672 35.5786 134.655 38.4956 134.045C39.0937 134.572 39.7471 135.044 40.4096 135.501L40.7439 135.753C41.569 137.678 42.1089 139.72 42.5414 141.774C41.3114 143.153 40.201 144.64 39.3053 146.256C37.8054 144.729 35.962 143.622 34.1369 142.534C34.1247 141.786 34.0971 141.047 34.0664 140.317H34.0695Z" fill="#B45813"/>
<path d="M40.7461 135.75C40.9731 135.275 41.4239 134.328 41.6479 133.855C43.5557 135.407 45.5924 136.799 47.6199 138.19C51.0093 140.361 53.9416 143.181 57.4138 145.235C60.4412 147.74 63.6772 149.975 66.8028 152.366C64.6495 154.209 61.8552 154.374 59.1867 153.841C58.6652 153.525 58.1499 153.203 57.6469 152.875C56.1194 151.851 54.644 150.763 53.1441 149.72C51.8436 148.813 50.5522 147.905 49.2854 146.97C46.9911 145.297 44.7366 143.571 42.5466 141.774C42.1141 139.72 41.5743 137.678 40.7492 135.753L40.7461 135.75Z" fill="#8A2C0B"/>
<path d="M120.39 140.741C123.399 138.892 125.512 135.241 129.294 134.978C127.199 136.845 128.322 139.938 126.871 142.087C123.307 145.119 119.693 148.108 115.807 150.723C115.479 150.425 114.823 149.84 114.491 149.546C114.639 148.632 114.801 147.722 114.976 146.82C113.835 147.335 112.599 147.587 111.375 147.74C114.353 145.376 117.347 143.025 120.39 140.738V140.741Z" fill="#861E09"/>
<path d="M94.7585 144.303C100.056 142.068 104.804 138.727 109.386 135.293C110.006 135.949 110.623 136.614 111.248 137.289C110.282 137.951 109.282 138.558 108.27 139.143C103.178 141.991 98.5834 145.808 93.05 147.832C90.2527 147.574 87.8111 145.649 85.0781 144.928C85.9492 144.226 86.8756 143.601 87.8356 143.028C90.0257 143.794 92.3967 145.643 94.7554 144.303H94.7585Z" fill="#660E09"/>
<path d="M32.9248 137.031C33.3236 138.113 33.7315 139.196 34.072 140.315C34.1057 141.041 34.1303 141.783 34.1425 142.531C33.8788 143.227 33.5874 143.917 33.2929 144.613L33.3512 143.724C33.6211 142.044 33.5628 140.342 33.2101 138.687C32.5966 138.938 31.9862 139.189 31.3789 139.447C31.7347 138.874 32.0997 138.3 32.4678 137.739L32.9248 137.031Z" fill="#600B06"/>
<path d="M47.6241 138.19C50.3878 136.762 53.4367 139.138 56.0715 137.464C57.3996 138.448 58.7339 139.435 60.0528 140.441C63.8747 143.332 67.9971 145.772 72.0184 148.362C68.6535 149.484 65.0525 148.234 62.1141 146.56C60.6786 145.723 59.0222 145.484 57.415 145.238C53.9428 143.184 51.0105 140.364 47.6211 138.194L47.6241 138.19Z" fill="#6B1E0C"/>
<path d="M31.3763 139.447C31.9805 139.189 32.594 138.938 33.2074 138.687C33.5633 140.342 33.6185 142.043 33.3486 143.723C33.1615 143.981 32.7872 144.49 32.6001 144.741C31.8394 143.536 31.0849 142.338 30.3242 141.148C30.6647 140.575 31.0205 140.008 31.3732 139.447H31.3763Z" fill="#BB5E22"/>
<path d="M99.3357 146.964C104.001 144.238 108.737 141.617 113.221 138.598C113.994 139.79 115.123 140.652 116.47 141.108C117.39 140.6 118.325 140.103 119.273 139.615C119.549 139.897 120.11 140.459 120.396 140.744C117.353 143.031 114.359 145.382 111.381 147.746C108.783 149.272 106.51 151.274 103.894 152.764C102.289 153.659 100.744 154.665 99.4338 155.965C100.299 155.867 101.167 155.738 102.05 155.726C103.081 156.124 103.608 157.258 104.351 158.037C102.572 158.951 100.897 160.143 98.9584 160.71C98.0167 160.3 97.1548 159.751 96.2714 159.26C95.8021 158.978 95.3359 158.699 94.8727 158.442C92.3391 157.007 89.8025 155.529 87.0358 154.591C86.9131 154.533 86.6555 154.429 86.5328 154.374L86.3211 154.285C86.0941 154.174 85.6371 153.957 85.4132 153.846C84.9746 153.816 84.0851 153.757 83.6464 153.73C80.3859 154.723 77.2787 156.139 74.328 157.819C73.4446 158.282 72.5766 158.773 71.6993 159.224C70.5123 158.089 70.9141 156.198 69.7976 155.036C68.9203 154.012 67.859 153.187 66.807 152.369C63.6814 149.98 60.4454 147.746 57.418 145.238C59.0222 145.483 60.6785 145.722 62.1171 146.559C65.0555 148.233 68.6565 149.484 72.0214 148.362C72.9876 148.889 73.917 149.619 75.0427 149.766C77.5762 149.282 79.935 148.193 82.4072 147.506C86.3395 146.032 89.8178 149.49 93.698 149.579C95.7071 149.052 97.5076 147.936 99.3357 146.964Z" fill="#650C08"/>
<path d="M135.954 139.601C136.316 140.594 136.675 141.596 137.101 142.577C138.782 146.701 142.166 149.926 143.334 154.261C142.715 154.279 141.963 154.834 141.432 154.301C138.733 152.053 136.368 149.426 134.056 146.799C132.166 145.021 134.605 142.568 135.074 140.609C135.292 140.358 135.736 139.855 135.957 139.604L135.954 139.601Z" fill="#C13C0D"/>
<path d="M66.4062 141.817C66.8817 141.366 67.3663 140.928 67.8571 140.489C70.5839 142.016 73.3537 143.638 76.4087 144.392C80.2428 144.006 83.9665 140.851 87.8405 143.028C86.8805 143.601 85.951 144.226 85.083 144.928C82.2427 146.05 79.4177 147.261 76.4731 148.065C75.6081 148.469 74.9149 147.724 74.2432 147.317C71.6728 145.428 69.0288 143.625 66.4062 141.817Z" fill="#77170D"/>
<path d="M131.417 144.53C132.512 143.113 133.794 141.862 135.07 140.609C134.6 142.568 132.165 145.02 134.051 146.798C136.364 149.425 138.729 152.053 141.428 154.3C141.956 154.833 142.71 154.282 143.33 154.26C142.164 149.925 138.781 146.7 137.097 142.577C137.625 141.513 138.496 140.722 139.527 140.143C140.726 141.951 141.769 143.858 142.87 145.734C142.637 146.127 142.18 146.905 141.956 147.298C142.575 150.318 144.753 152.58 146.394 155.079C142.483 156.881 137.999 157.893 133.828 156.308C131.901 155.33 130.082 153.294 130.671 150.989C131.257 148.883 131.779 146.731 131.414 144.53H131.417Z" fill="#CF521E"/>
<path d="M27.7227 145.456C28.5723 144.012 29.4434 142.571 30.3268 141.148C31.0875 142.341 31.842 143.537 32.6027 144.741C31.9126 145.79 31.3604 146.924 30.7286 148.012C29.6796 147.215 28.6858 146.345 27.7257 145.456H27.7227Z" fill="#D06C33"/>
<path d="M39.3086 146.255C40.2042 144.64 41.3116 143.15 42.5446 141.773C44.7347 143.57 46.9922 145.296 49.2835 146.97C48.3939 148.824 47.7099 150.756 47.0812 152.709C46.3665 152.135 45.6364 151.587 44.9095 151.053C43.3513 149.913 41.8177 148.729 40.4374 147.384C40.1613 147.102 39.5939 146.541 39.3086 146.255Z" fill="#F4B563"/>
<path d="M115.812 150.726C119.698 148.111 123.311 145.122 126.875 142.09C127.952 143.564 129.774 143.991 131.418 144.53C129.639 147.685 126.734 149.907 123.903 152.066C119.063 155.987 113.766 159.273 108.521 162.608C106.238 163.844 104.055 165.469 101.478 166.002C99.7174 165.518 98.1837 164.521 96.6072 163.663C97.2758 163.154 97.9598 162.651 98.6438 162.155C97.4844 161.195 96.3433 160.229 95.2422 159.206L96.2667 159.258C97.1501 159.748 98.012 160.294 98.9536 160.708C100.892 160.141 102.57 158.948 104.346 158.034C108.379 155.947 112.112 153.347 115.808 150.726H115.812Z" fill="#A14E29"/>
<path d="M34.1402 142.531C35.9652 143.62 37.8056 144.726 39.3086 146.253C39.5908 146.535 40.1583 147.096 40.4374 147.381C39.8393 150.306 39.1798 153.611 36.5848 155.465C35.5726 152.044 31.7201 150.861 28.5117 150.72C29.3246 149.883 30.0638 148.969 30.7294 148.016C31.3612 146.927 31.9164 145.793 32.6035 144.745C32.7906 144.493 33.1648 143.984 33.3519 143.727L33.2936 144.616C33.5912 143.92 33.8795 143.23 34.1433 142.534L34.1402 142.531Z" fill="#B14612"/>
<path d="M131.418 144.53C131.786 146.731 131.265 148.884 130.676 150.99C130.09 153.295 131.906 155.331 133.832 156.309C133.89 156.526 134.001 156.959 134.059 157.179C132.286 157.759 130.7 158.758 129.492 160.187C129.305 160.22 128.93 160.297 128.743 160.328C126.875 158.32 126.216 155.561 124.504 153.464C124.299 152.995 124.099 152.529 123.906 152.066C126.734 149.907 129.642 147.685 131.421 144.53H131.418Z" fill="#7B170A"/>
<path d="M20.5742 153.617C23.9513 151.909 25.9359 148.65 27.721 145.456C28.6811 146.345 29.6749 147.216 30.7239 148.013C30.0614 148.966 29.3191 149.88 28.5062 150.717C26.7855 152.28 24.9421 153.758 22.8042 154.717C22.0496 154.35 21.3104 153.991 20.5742 153.617Z" fill="#DE7A41"/>
<path d="M142.876 145.731C144.615 148.527 146.112 151.823 149.256 153.307C149.262 153.5 149.274 153.88 149.29 154.073C148.317 154.407 147.351 154.717 146.403 155.079C144.759 152.58 142.581 150.318 141.965 147.298C142.192 146.906 142.649 146.127 142.879 145.735L142.876 145.731Z" fill="#E07141"/>
<path d="M111.377 147.743C112.601 147.59 113.84 147.338 114.978 146.823C114.803 147.725 114.643 148.632 114.493 149.549C114.821 149.846 115.478 150.432 115.809 150.726C112.11 153.347 108.38 155.95 104.347 158.034C103.604 157.256 103.077 156.121 102.046 155.723C101.163 155.735 100.295 155.864 99.4297 155.962C100.736 154.662 102.285 153.657 103.89 152.761C106.506 151.275 108.782 149.27 111.377 147.743Z" fill="#79130A"/>
<path d="M49.2835 146.97C50.5534 147.905 51.8416 148.812 53.1421 149.72C53.044 150.885 53.0195 152.077 52.7097 153.218C51.9613 153.913 51.0993 154.475 50.2804 155.072C49.443 154.481 48.5933 153.886 47.7744 153.288C47.5995 153.141 47.253 152.856 47.0781 152.709C47.71 150.756 48.394 148.824 49.2804 146.97H49.2835Z" fill="#EBA055"/>
<path d="M40.4361 147.381C41.8164 148.727 43.35 149.913 44.9082 151.051C44.2457 152.718 43.6138 154.408 42.8531 156.042C42.0618 157.768 40.9453 159.371 40.4637 161.226C42.2887 164.396 45.1935 166.753 47.5982 169.475C48.8988 170.879 50.4202 172.36 52.5151 172.078C52.1931 172.569 51.8648 173.05 51.5366 173.54C49.9048 172.921 48.4111 172.008 47.0891 170.886C42.8869 167.007 39.3227 162.507 35.1021 158.663C33.1482 158.715 31.1974 158.868 29.2497 158.703C27.0658 158.522 25.164 157.357 23.1918 156.532C22.1274 155.701 21.0968 154.852 20.1367 153.923L20.5754 153.614C21.3084 153.988 22.0507 154.349 22.8053 154.714C24.9187 155.597 26.9952 156.658 29.2435 157.194C31.8262 157.792 34.2954 156.48 36.5836 155.462C39.1816 153.607 39.838 150.303 40.4361 147.378V147.381Z" fill="#6A1A0D"/>
<path d="M53.143 149.72C54.6429 150.762 56.1214 151.851 57.6458 152.874C57.8268 154.389 58.0262 155.906 58.2501 157.421C57.4955 157.924 56.7348 158.426 55.9956 158.941C54.0571 157.691 52.1492 156.409 50.2812 155.069C51.1002 154.472 51.9621 153.911 52.7106 153.215C53.0204 152.074 53.0449 150.885 53.143 149.717V149.72Z" fill="#E28B45"/>
<path d="M22.8039 154.718C24.9418 153.758 26.7852 152.283 28.5059 150.717C31.7143 150.858 35.5699 152.044 36.5791 155.462C34.2909 156.48 31.8248 157.792 29.239 157.195C26.9907 156.661 24.9141 155.597 22.8008 154.714L22.8039 154.718Z" fill="#D15F2A"/>
<path d="M44.9066 151.054C45.6336 151.587 46.3636 152.136 47.0783 152.709C47.2531 152.856 47.5997 153.141 47.7746 153.289C48.7346 157.32 53.9337 158.145 54.7281 162.274C55.8692 165.879 51.5504 168.451 52.5105 172.084C50.4155 172.366 48.8941 170.886 47.5936 169.482C48.0261 169.457 48.888 169.417 49.3205 169.399C49.8358 167.28 50.7499 165.076 50.2867 162.875C48.6764 159.809 46.0906 157.323 42.8516 156.048C43.6123 154.411 44.2441 152.724 44.9066 151.057V151.054Z" fill="#8D3114"/>
<path d="M66.8044 152.365C67.8534 153.184 68.9178 154.008 69.795 155.032C70.9085 156.191 70.5097 158.086 71.6968 159.22C70.7889 159.554 69.7582 160.373 68.792 159.793C66.0928 158.408 63.593 156.657 61.0349 155.026C60.4214 154.622 59.8049 154.226 59.1914 153.84C61.86 154.373 64.6573 154.208 66.8075 152.365H66.8044Z" fill="#7B1609"/>
<path d="M108.523 162.608C113.769 159.273 119.066 155.986 123.906 152.065C124.099 152.528 124.299 152.994 124.504 153.463C122.004 157.559 117.241 159.956 115.502 164.534C115.695 167.13 117.382 169.242 118.808 171.309C122.158 169.19 125.041 166.318 127.366 163.117C127.97 163.356 128.577 163.602 129.197 163.853C126.663 166.621 124.099 169.399 121.084 171.652C120.599 171.986 120.124 172.314 119.627 172.618C118.79 172.973 117.952 173.314 117.109 173.636C114.949 170.266 113.152 166.686 111.459 163.074C110.698 163.537 109.95 164.015 109.211 164.491C108.971 163.859 108.747 163.228 108.527 162.611L108.523 162.608Z" fill="#792513"/>
<path d="M57.6502 152.875C58.1532 153.203 58.6686 153.525 59.19 153.841C59.8035 154.227 60.42 154.619 61.0334 155.027C60.9752 157.308 60.7052 159.592 60.0274 161.784C58.733 160.766 57.3803 159.831 56 158.945C56.7423 158.43 57.503 157.927 58.2545 157.424C58.0275 155.91 57.8281 154.393 57.6502 152.878V152.875Z" fill="#D47637"/>
<path d="M149.255 153.307C149.623 153.469 150.356 153.791 150.724 153.951C147.117 157.807 141.562 159.579 136.366 158.883C135.446 158.779 134.535 158.736 133.627 158.742C131.958 160.257 130.74 162.206 129.194 163.85C128.575 163.598 127.971 163.353 127.363 163.114C127.86 162.206 128.293 161.259 128.744 160.324C128.931 160.293 129.305 160.214 129.492 160.183C130.704 158.754 132.289 157.755 134.059 157.176C134.001 156.958 133.89 156.526 133.832 156.305C138.001 157.89 142.485 156.878 146.399 155.076C147.347 154.714 148.313 154.407 149.285 154.07C149.273 153.877 149.261 153.497 149.252 153.304L149.255 153.307Z" fill="#962710"/>
<path d="M47.7773 153.288C48.5963 153.886 49.446 154.481 50.2833 155.072C52.1513 156.412 54.0592 157.694 55.9977 158.944C57.378 159.833 58.7307 160.769 60.0251 161.783C62.5771 163.678 65.5033 166.124 68.8865 165.609C72.1808 164.668 75.2082 163.065 78.251 161.532C78.9595 161.841 79.6681 162.151 80.3981 162.473C76.5333 164.404 72.4967 165.983 68.6043 167.862C67.8896 168.12 67.0645 168.706 66.3345 168.184C63.3776 166.523 60.6508 164.481 57.7768 162.685C55.9732 165.79 54.4702 169.067 52.5133 172.081C51.5532 168.448 55.872 165.879 54.7309 162.271C53.9396 158.141 48.7374 157.317 47.7773 153.285V153.288Z" fill="#732411"/>
<path d="M74.3242 157.816C77.2749 156.136 80.3821 154.72 83.6426 153.727L83.5261 154.242C82.2562 155.413 80.5938 155.974 79.0356 156.611C82.612 156.225 87.5749 156.179 89.3325 160.005C86.5474 159.637 83.7316 158.576 80.9434 159.466C81.4526 160.128 81.9618 160.787 82.4893 161.461C81.7808 161.789 81.0845 162.13 80.3944 162.473C79.6674 162.151 78.9589 161.841 78.2473 161.532C75.2045 163.065 72.1771 164.668 68.8828 165.609C68.9227 164.309 68.9718 163.006 69.0239 161.707C71.1127 160.664 73.1678 159.53 75.1002 158.202L74.3211 157.816H74.3242Z" fill="#A03F19"/>
<path d="M83.6408 153.727C84.0795 153.751 84.969 153.809 85.4076 153.843C84.8463 154.456 84.2144 154.591 83.5273 154.242L83.6439 153.727H83.6408Z" fill="#CC6B36"/>
<path d="M85.409 153.84C85.636 153.95 86.093 154.168 86.3169 154.278C86.3691 154.343 86.4795 154.465 86.5347 154.53L86.5286 154.367C86.6513 154.425 86.9089 154.53 87.0316 154.585C88.7278 156.651 91.3872 157.552 93.7797 158.586C94.0496 158.546 94.5986 158.475 94.8685 158.438C95.3317 158.696 95.798 158.972 96.2673 159.257L95.2427 159.205C96.3439 160.229 97.485 161.194 98.6444 162.154C97.9604 162.651 97.2795 163.153 96.6077 163.662C98.1874 164.518 99.721 165.517 101.479 166.001C104.055 165.468 106.242 163.843 108.521 162.608C108.739 163.227 108.966 163.858 109.205 164.487C106.776 165.968 104.463 167.669 101.859 168.828C101.052 169.343 100.242 168.659 99.54 168.344C94.4299 165.646 89.1204 163.347 83.952 160.768C83.584 160.943 82.8509 161.283 82.4889 161.458C81.9614 160.781 81.4522 160.124 80.943 159.462C83.7342 158.573 86.5501 159.637 89.3321 160.002C87.5715 156.176 82.6116 156.222 79.0352 156.608C80.5933 155.97 82.2558 155.409 83.5257 154.238C84.2158 154.585 84.8477 154.45 85.4059 153.84H85.409Z" fill="#903214"/>
<path d="M124.506 153.46C126.22 155.56 126.877 158.316 128.745 160.324C128.294 161.259 127.861 162.203 127.364 163.114C125.039 166.314 122.159 169.187 118.807 171.305C117.383 169.239 115.693 167.127 115.5 164.53C117.239 159.95 122.003 157.556 124.503 153.46H124.506Z" fill="#AC4118"/>
<path d="M86.3164 154.278L86.5281 154.367L86.5342 154.53C86.4759 154.465 86.3655 154.343 86.3164 154.278Z" fill="#CE6F42"/>
<path d="M61.0326 155.026C63.5907 156.657 66.0905 158.408 68.7898 159.793C69.756 160.373 70.7866 159.554 71.6945 159.22C72.5718 158.77 73.4398 158.279 74.3232 157.816L75.1023 158.202C73.1699 159.53 71.1148 160.664 69.0259 161.706C68.9738 163.006 68.9217 164.309 68.8849 165.609C65.5016 166.124 62.5754 163.678 60.0234 161.783C60.7013 159.594 60.9712 157.307 61.0295 155.026H61.0326Z" fill="#B75625"/>
<path d="M87.0312 154.588C89.7949 155.529 92.3346 157.004 94.8682 158.439C94.5983 158.478 94.0492 158.549 93.7793 158.586C91.3899 157.556 88.7275 156.654 87.0312 154.585V154.588Z" fill="#B1562E"/>
<path d="M42.8534 156.045C46.0956 157.32 48.6782 159.807 50.2886 162.872C50.7517 165.073 49.8377 167.278 49.3224 169.396C48.8899 169.414 48.028 169.454 47.5955 169.479C45.1907 166.753 42.286 164.396 40.4609 161.229C40.9456 159.374 42.059 157.771 42.8504 156.045H42.8534Z" fill="#A23F18"/>
</svg>
