<svg width="132" height="191" viewBox="0 0 132 191" fill="none" xmlns="http://www.w3.org/2000/svg">
<path d="M103.003 114.116C103.617 114.65 103.423 115.689 103.653 116.44C103.564 116.879 103.371 117.755 103.279 118.191C102.911 118.255 102.184 118.384 101.822 118.448C101.577 118.102 101.089 117.406 100.844 117.056C101.108 116.934 101.635 116.688 101.902 116.566C102.301 115.775 102.258 114.671 103.003 114.113V114.116Z" fill="#EDF1E9"/>
<path d="M30.375 136.471C32.3933 137.191 33.7828 138.868 35.4023 140.186C36.3746 141.005 37.4758 141.829 37.669 143.194C35.252 140.94 32.7859 138.73 30.375 136.471Z" fill="#374B60"/>
<path d="M75.3792 141.572C77.376 142.608 79.4127 143.574 81.5537 144.31C82.7837 144.601 83.4432 145.76 84.2345 146.643C78.2471 151.873 72.5788 157.449 66.6957 162.784C65.4381 164.323 64.0609 162.171 62.8677 161.625C62.6223 161.45 62.1346 161.098 61.8892 160.923C59.3833 158.611 56.7331 156.459 54.2394 154.142C53.9051 153.078 53.6259 152.011 53.3438 150.947C53.6996 150.8 54.402 150.515 54.7486 150.368C54.8651 149.144 54.9878 147.921 55.1167 146.71C57.0368 147.284 58.6348 148.541 60.4507 149.356C60.5151 149.04 60.6439 148.409 60.7022 148.093C64.0333 147.461 67.5791 148.884 70.7813 147.667C71.5482 147.713 72.3273 147.796 73.1125 147.835C74.048 146.851 74.9099 145.8 75.7872 144.764C75.6461 143.694 75.5111 142.633 75.3823 141.575L75.3792 141.572Z" fill="#374B60"/>
<path d="M73.6953 160.571C74.4223 158.986 75.5388 157.493 77.3362 157.085C76.1584 158.284 74.9652 159.467 73.6953 160.571Z" fill="#374B60"/>
<path d="M66.4139 166.04C68.6315 164.133 70.7817 162.097 73.4441 160.81C71.2081 163.127 68.6622 165.117 66.3556 167.361C65.8403 167.677 65.325 167.999 64.8219 168.333C63.5705 167.134 62.3528 165.905 61.1289 164.694C63.0184 164.881 64.6287 167.888 66.4139 166.04Z" fill="#374B60"/>
<path d="M94.8307 74.3022C96.352 71.1385 96.9502 67.4045 99.3426 64.7588C97.4287 70.2464 95.0975 75.5776 92.8339 80.9302C91.429 84.1829 89.9291 87.3896 88.466 90.6239C84.8896 98.1532 81.4879 105.79 77.2734 112.997C78.4451 109.475 80.6321 106.397 81.9725 102.93C84.2607 98.2329 86.3097 93.4229 88.558 88.7079C90.6714 83.9162 93.2356 79.3054 94.8337 74.2992L94.8307 74.3022Z" fill="#F4F9FA"/>
<path d="M61.0335 77.8242C61.2666 78.0511 61.4905 78.281 61.7298 78.5324C60.1317 79.3172 58.6165 80.2461 57 81.0003C58.1993 79.7433 60.0489 79.3203 61.0335 77.8242Z" fill="#F4F9FA"/>
<path d="M73.7079 118.807C74.2478 118.053 74.8367 117.338 75.4164 116.624L75.0545 117.292C73.8245 119.463 72.6835 121.685 71.5547 123.914C72.0639 122.13 72.8368 120.438 73.7079 118.807Z" fill="#F4F9FA"/>
<path d="M99.2884 132.415L99.5706 132.391C99.4479 133.755 98.3774 135.45 96.8008 134.837C97.5553 133.954 98.3344 133.087 99.2884 132.415Z" fill="#F4F9FA"/>
<path d="M64.9904 76.6383C66.6989 76.5616 68.4135 76.3041 69.9778 75.5684C72.0268 76.8253 73.9162 78.3183 75.8302 79.7745C78.1184 81.7334 78.2718 84.9585 79.4128 87.5736C79.1613 88.0579 78.9159 88.5393 78.6705 89.0359C78.9037 89.7778 79.1398 90.5227 79.3852 91.2769C78.0571 93.3646 76.7504 95.4646 75.4928 97.5891C73.3979 99.5266 71.3949 101.801 68.6957 102.877C67.3614 103.491 66.0149 102.831 64.7634 102.393C64.6009 97.4144 64.4414 92.4419 64.5119 87.4693C64.5947 83.8488 64.1776 80.1914 64.9873 76.6352L64.9904 76.6383Z" fill="#96EFFA"/>
<path d="M45.6875 86.8743C48.2058 84.9307 51.3191 83.9896 53.9232 82.1777L53.5889 83.0422C50.9541 84.3176 48.4726 85.9209 45.6875 86.8743Z" fill="#96EFFA"/>
<path d="M32.571 116.274C33.5372 117.473 35.0831 117.994 36.0248 119.217C35.5616 119.475 34.6199 119.996 34.1568 120.26C34.3255 121.373 34.7119 122.495 34.6322 123.647C34.439 122.804 34.2273 121.974 34.0126 121.143C33.1292 120.867 32.2673 120.609 31.4023 120.33C31.8011 119.705 32.2029 119.073 32.6139 118.469C32.6016 117.915 32.5832 116.82 32.5679 116.274H32.571Z" fill="#F0F8ED"/>
<path d="M59.5486 13.7086C61.1466 13.1538 62.7508 12.6081 64.3244 11.9766C64.8857 14.2053 65.4378 16.434 65.9623 18.6689C65.0605 18.5708 64.1526 18.6567 63.3152 18.9908C59.6866 20.306 56.1439 21.8235 52.5091 23.1142C50.1105 23.9634 47.7334 24.8524 45.3562 25.7414C43.7244 26.3392 42.1018 26.9585 40.473 27.5717C36.5745 28.9635 32.7159 30.4748 28.8419 31.9525C25.3298 33.2094 21.9067 34.684 18.4928 36.1709C18.3057 36.2598 17.9376 36.4529 17.7505 36.5449C16.3396 37.1059 15.3212 38.2065 14.7814 39.6167C14.4072 38.746 14.033 37.8846 13.6863 37.0201C13.5974 36.3824 13.5115 35.7509 13.441 35.1255C13.3643 33.7858 13.0207 32.3756 13.4348 31.0819C16.8242 29.4969 20.4589 28.5005 23.9004 27.0106C29.0044 25.1099 34.1391 23.2766 39.2185 21.2993C41.6816 20.3213 44.1661 19.4262 46.6537 18.531C48.6842 17.7707 50.6933 16.9797 52.7361 16.2562C55.0121 15.4132 57.291 14.5824 59.5547 13.7117L59.5486 13.7086Z" fill="#1998A3"/>
<path d="M51.3146 47.9062C51.8759 47.9308 52.4495 47.9584 53.017 47.9952C52.152 49.574 51.5293 51.2724 50.9159 52.9677C47.0296 63.6148 42.5974 74.0473 38.6528 84.673C38.2541 82.5362 39.4012 80.5251 39.9472 78.5293C40.7018 76.6286 41.487 74.7493 42.1894 72.8363C43.2538 69.9454 44.4377 67.0974 45.5021 64.2126C45.7598 63.5105 46.0297 62.8208 46.2935 62.1402C47.0081 60.2732 47.6461 58.3786 48.2903 56.4932C49.1859 54.0008 50.1705 51.5483 50.9588 49.0222C51.0478 48.7463 51.2226 48.1852 51.3146 47.9093V47.9062Z" fill="#1998A3"/>
<path d="M0.345334 30.1715C0.32693 28.6969 0.357604 27.2161 0.69194 25.7783C0.446556 27.955 0.492565 30.1439 0.538575 32.3358C0.596853 37.9981 0.563101 43.6512 0.602976 49.3135C0.713399 56.5669 0.679668 63.8173 0.765552 71.0646C0.682735 75.985 0.602972 80.9115 0.790077 85.838C0.636712 91.4206 0.572305 97.0125 0.701132 102.601C0.590709 112.957 0.888238 123.307 0.836094 133.669L0.56617 133.178C0.624449 128.561 0.713397 123.935 0.179688 119.337C0.566167 113.024 0.277855 106.694 0.366807 100.376C0.547777 76.9721 0.464961 53.5718 0.348404 30.1684L0.345334 30.1715Z" fill="#D4C1AF"/>
<path d="M52.4632 4.82165C56.6899 3.5402 60.8154 1.95527 65.0728 0.78418C64.9961 4.42927 65.033 8.07435 64.9686 11.7256C64.806 11.7899 64.4839 11.9126 64.3244 11.977C62.7509 12.6085 61.1467 13.1542 59.5486 13.7091C60.3983 12.9089 61.2295 12.0873 62.0669 11.2749C58.7818 11.0113 58.0518 7.43669 55.5642 5.90999C54.6992 5.15583 53.5398 4.98107 52.457 4.82165H52.4632Z" fill="#78FDFD"/>
<path d="M65.0739 0.78418C67.3038 1.82038 69.7852 2.03495 72.0857 2.86575C76.3462 4.45071 80.7018 5.75058 84.904 7.48882C83.7568 7.54093 82.6158 7.64209 81.4747 7.74632C81.4809 9.3558 81.6036 10.9653 81.8612 12.5564C80.8674 14.0309 80.2754 15.7263 80.6251 17.5166C75.3861 15.6374 70.1595 13.7367 64.9727 11.7256C65.0371 8.07435 64.9972 4.42927 65.077 0.78418H65.0739Z" fill="#EDFBFC"/>
<path d="M46.9609 6.55341C48.7921 5.97399 50.6264 5.38844 52.4637 4.82129C53.5464 4.98377 54.7059 5.15546 55.5708 5.90962C58.0584 7.43633 58.7854 11.0109 62.0735 11.2746C61.2361 12.087 60.4049 12.9116 59.5553 13.7087C57.2947 14.5793 55.0126 15.4102 52.7367 16.2532C53.7795 14.938 54.4114 13.3807 54.3807 11.6884C52.4483 10.9986 50.5067 10.3365 48.5743 9.66508C48.1633 8.55837 47.6603 7.49457 46.964 6.55341H46.9609Z" fill="#5EFDFB"/>
<path d="M42.6914 7.99763C44.1085 7.51326 45.5256 7.01969 46.958 6.55371C47.6543 7.49487 48.1573 8.55561 48.5683 9.66538C50.5007 10.3337 52.4423 10.9989 54.3747 11.6887C54.4054 13.384 53.7766 14.9414 52.7307 16.2535C50.6878 16.974 48.6788 17.768 46.6482 18.5283C47.1052 17.86 47.5623 17.2069 48.0193 16.5509C47.2463 16.3455 46.4795 16.1401 45.7127 15.947C46.4918 12.8108 43.3018 10.864 42.6914 8.0007V7.99763Z" fill="#45FDFA"/>
<path d="M81.4728 7.74676C82.6138 7.64253 83.7548 7.54137 84.902 7.48926C88.092 8.62969 91.3587 9.53098 94.5548 10.653C94.1223 10.7051 93.2604 10.8002 92.8279 10.8462C93.1837 14.433 92.1439 17.8911 90.8373 21.1836C87.4479 19.9083 84.0248 18.7311 80.6231 17.5202C80.2765 15.7298 80.8685 14.0345 81.8593 12.5599C81.6016 10.9688 81.4789 9.35931 81.4728 7.74983V7.74676Z" fill="#C8FBFD"/>
<path d="M37.4822 9.75997C39.2153 9.1683 40.9544 8.58888 42.6966 7.99414C43.3101 10.8606 46.497 12.8042 45.7179 15.9404C46.4847 16.1335 47.2516 16.3389 48.0245 16.5443C47.5675 17.2004 47.1105 17.8503 46.6534 18.5217C44.1659 19.4169 41.6783 20.3121 39.2183 21.29C37.1816 18.9509 35.3259 16.2807 35.3719 13.0403C35.6817 12.8931 36.3136 12.608 36.6295 12.467C36.9117 11.5596 37.197 10.6521 37.4853 9.75691L37.4822 9.75997Z" fill="#27F5F5"/>
<path d="M13.7852 17.7284C21.6589 14.9969 29.5971 12.4616 37.48 9.76074C37.1886 10.6559 36.9064 11.5634 36.6242 12.4708C36.3083 12.6119 35.6765 12.897 35.3667 13.0441C35.3207 16.2845 37.1764 18.9578 39.213 21.2938C34.1367 23.2712 28.9989 25.1075 23.895 27.0052C23.1925 26.6588 22.5024 26.3216 21.8123 25.9874C21.4074 23.3724 21.3736 20.7113 20.8461 18.1178C20.389 16.8823 21.7479 16.1527 22.3552 15.2851C19.5057 16.1282 16.696 17.1153 13.7852 17.7254V17.7284Z" fill="#1CDFE1"/>
<path d="M92.8258 10.8426C93.2583 10.7966 94.1202 10.7015 94.5527 10.6494C95.8225 11.0296 97.0863 11.4404 98.3469 11.8481C96.6967 14.1228 96.8316 17.1241 95.4912 19.5583C94.8011 19.7637 94.1202 19.9844 93.4423 20.2021C93.3135 20.6405 93.0497 21.5234 92.9208 21.9618C92.2184 21.6981 91.5222 21.4406 90.832 21.1831C92.1387 17.8905 93.1785 14.4325 92.8227 10.8456L92.8258 10.8426Z" fill="#A9FBFD"/>
<path d="M64.3273 11.977C64.4899 11.9126 64.8119 11.79 64.9714 11.7256C70.1582 13.7336 75.3849 15.6343 80.6238 17.5167C84.0255 18.7276 87.4486 19.9048 90.838 21.1801C91.5281 21.4376 92.2244 21.6952 92.9268 21.9588C94.215 22.4432 95.5095 22.9184 96.8131 23.4027C97.4971 23.648 98.1933 23.8994 98.8804 24.1631C97.8805 24.6597 96.9725 25.328 96.3345 26.263C98.2087 27.9706 101.129 28.9823 101.632 31.7506C100.696 31.4349 99.7699 31.1589 98.8405 30.8677C95.8622 29.902 92.9574 28.7309 89.973 27.7775C83.8445 25.5947 77.7559 23.3016 71.6581 21.0422C69.7319 20.3156 67.8486 19.4848 65.9622 18.6724C65.4407 16.4375 64.8855 14.2088 64.3242 11.98L64.3273 11.977Z" fill="#3094A4"/>
<path d="M98.3479 11.8478C100.339 12.4793 102.305 13.1752 104.271 13.8956C103.299 14.006 102.345 14.1654 101.391 14.3218C100.461 16.9368 100.096 20.214 97.4523 21.7223C97.2897 22.1423 96.9677 22.9854 96.8082 23.4023C95.5076 22.9179 94.2101 22.4428 92.9219 21.9584C93.0507 21.52 93.3145 20.6371 93.4433 20.1987C94.1212 19.981 94.8021 19.7603 95.4923 19.5549C96.8327 17.1208 96.6977 14.1195 98.3479 11.8447V11.8478Z" fill="#94FAFC"/>
<path d="M101.392 14.3226C102.346 14.1693 103.3 14.0068 104.272 13.8965C108.146 15.1841 112.045 16.4073 115.897 17.7684C116.115 19.7918 116.253 21.9868 115.164 23.8109C114.005 25.2089 112.379 26.1102 110.91 27.1464C110.898 27.4805 110.864 28.1519 110.845 28.4861C109.692 28.0753 108.539 27.6675 107.392 27.269C104.542 26.2635 101.696 25.2518 98.8799 24.1635C98.1897 23.8998 97.4934 23.6484 96.8125 23.4032C96.9751 22.9832 97.2971 22.1401 97.4566 21.7232C100.098 20.2149 100.466 16.9376 101.395 14.3226H101.392Z" fill="#6CEFF6"/>
<path d="M13.7864 17.7284C16.7004 17.1152 19.51 16.1311 22.3565 15.2881C21.7522 16.1587 20.3903 16.8853 20.8473 18.1208C21.3749 20.7174 21.4087 23.3754 21.8135 25.9904C22.5037 26.3245 23.1938 26.6587 23.8962 27.0082C20.4547 28.495 16.82 29.4944 13.4306 31.0794C13.0196 32.3731 13.3601 33.7833 13.4368 35.1231C11.1424 35.2702 8.86954 35.5492 6.60587 35.9416C6.5936 33.5841 6.36049 31.2082 6.70403 28.8629C7.12425 27.3485 8.44319 26.2724 8.95236 24.7917C9.51368 23.1945 9.91243 21.5451 10.4093 19.9295C9.78973 20.0522 9.1732 20.1748 8.55974 20.3097C8.21927 22.2686 8.11498 24.3165 7.28987 26.159C5.67341 28.7924 3.25639 30.8924 0.535695 32.3363C0.489686 30.1474 0.446744 27.9555 0.68906 25.7788C1.2105 24.994 1.79636 24.2583 2.35767 23.5041C3.45883 22.3514 4.40048 20.9872 5.75929 20.1227C8.34196 19.065 11.1209 18.5592 13.7834 17.7253L13.7864 17.7284Z" fill="#18C3C4"/>
<path d="M115.896 17.7676C116.945 18.1416 118.003 18.534 119.073 18.8958C118.604 20.7505 118.242 22.6298 117.874 24.5182C117.54 26.5906 116.334 28.3687 115.69 30.3461C114.104 29.644 112.469 29.0646 110.844 28.4852C110.862 28.1511 110.896 27.4797 110.908 27.1455C112.377 26.1093 114 25.208 115.162 23.8101C116.251 21.986 116.116 19.7909 115.896 17.7676Z" fill="#61DFE6"/>
<path d="M63.3129 18.9909C64.1502 18.6567 65.0582 18.5709 65.96 18.669C67.8494 19.4814 69.7297 20.3122 71.6559 21.0387C71.3983 21.5016 71.7142 22.875 70.8584 22.6758C65.7176 21.8695 60.6842 24.1504 56.6752 27.2099C53.7552 28.755 51.9577 31.5632 50.0131 34.1138C47.8813 36.5296 48.6021 40.0459 48.8076 42.9828C48.9058 44.813 50.7339 45.7082 52.3381 45.0644C51.9455 45.9933 51.6173 46.9529 51.3136 47.9125C51.2247 48.1884 51.0498 48.7494 50.9578 49.0253C49.6113 49.6292 48.2586 50.224 46.8783 50.7574C46.7955 50.3129 46.6268 49.43 46.544 48.9916C44.219 48.0627 41.8019 48.6451 39.5781 49.5403C41.029 47.8542 43.3294 47.2472 44.8109 45.6193C46.1268 43.0564 46.544 40.0858 46.1053 37.247C45.4857 33.8716 48.1482 31.3609 49.7585 28.7458C50.7952 27.0015 52.1878 25.5177 53.657 24.135C53.3656 23.8837 52.7859 23.3748 52.5037 23.1173C56.1385 21.8297 59.6812 20.3091 63.3098 18.9939L63.3129 18.9909Z" fill="#6AFDF7"/>
<path d="M67.8386 46.0981C68.7926 45.1508 70.3323 45.2673 71.5562 44.8994C72.5684 45.672 73.6174 46.3924 74.6818 47.1006C80.7826 51.5305 86.8927 55.9757 93.1898 60.1297C94.9566 61.3468 96.7326 62.5639 98.3951 63.9434L98.9441 64.6792C98.4993 64.8018 97.6037 65.0471 97.1589 65.1697C96.5455 65.2739 95.9412 65.3965 95.3431 65.5253C89.1778 67.239 83.3254 69.9767 77.4791 72.5641C74.9609 73.5176 72.4672 74.5476 69.9796 75.5715C68.4153 76.3042 66.7007 76.5648 64.9922 76.6415C65.0505 75.9456 65.1731 74.5537 65.2314 73.8578C65.2253 73.4256 65.2192 73.0025 65.213 72.5886C65.4768 72.2974 66.0136 71.7241 66.2774 71.4359C66.1148 68.4101 66.5473 65.4149 66.9215 62.4198C67.1546 56.9843 66.5289 51.4385 67.8417 46.0981H67.8386Z" fill="#FAFCFB"/>
<path d="M119.075 18.8936C121.228 19.6538 123.541 19.8868 125.654 20.782C125.062 20.8709 123.869 21.0457 123.277 21.1284C123.237 23.0537 123.446 24.9789 123.915 26.8613C123.804 29.4364 123.599 32.0085 123.657 34.596C122.065 34.4212 120.467 34.5438 118.909 34.8719C118.504 34.363 118.102 33.8602 117.71 33.3574C117.786 32.7259 117.878 32.1005 117.973 31.4782C117.213 31.0858 116.458 30.6995 115.691 30.3439C116.336 28.3665 117.541 26.5884 117.875 24.516C118.243 22.6275 118.602 20.7483 119.075 18.8936Z" fill="#5BCEDA"/>
<path d="M8.5592 20.3098C9.17266 20.1749 9.7892 20.0523 10.4088 19.9297C9.91189 21.5453 9.51314 23.1946 8.95182 24.7918C8.44265 26.2726 7.12064 27.3486 6.70349 28.8631C6.36302 31.2083 6.59306 33.5842 6.60533 35.9417C6.56546 42.8855 6.82311 49.8262 6.58693 56.7638C6.36915 53.5234 4.02267 51.3345 1.85716 49.2223C1.54123 49.2468 0.915489 49.2927 0.599558 49.3111C0.559683 43.6488 0.593435 37.9957 0.535156 32.3334C3.25585 30.8895 5.6698 28.7926 7.28933 26.1561C8.11444 24.3136 8.21873 22.2657 8.5592 20.3068V20.3098Z" fill="#169E9F"/>
<path d="M71.6612 21.0392C77.7559 23.2986 83.8476 25.5917 89.976 27.7745C89.7245 27.9431 89.2154 28.2711 88.9639 28.4367C88.9577 31.2265 89.1816 34.1358 88.2308 36.8152C87.2124 37.9924 85.5193 38.1028 84.1329 38.5871C82.6176 39.0715 81.6054 40.3468 80.3509 41.2328C81.7802 38.8998 83.3844 35.592 81.1698 33.2069C78.9583 31.0548 78.0841 27.7653 75.5444 25.9749C71.014 25.0982 66.5756 26.8824 62.4501 28.5378C59.165 29.7886 56.4137 32.37 54.923 35.546C54.8708 36.6926 55.1929 37.8269 55.3677 38.9673C55.7603 39.0562 56.5456 39.2371 56.9413 39.3291C54.9966 40.8558 53.4231 42.8331 52.3464 45.0619C50.7422 45.7056 48.9111 44.8105 48.816 42.9803C48.6105 40.0434 47.8866 36.527 50.0214 34.1113C51.9661 31.5606 53.7666 28.7524 56.6836 27.2073C60.6926 24.1478 65.7229 21.8669 70.8668 22.6732C71.7226 22.8725 71.4066 21.5021 71.6643 21.0361L71.6612 21.0392Z" fill="#7FFDF8"/>
<path d="M123.275 21.1277C123.867 21.0449 125.06 20.8702 125.652 20.7812C127.566 22.4245 129.364 24.1933 131.259 25.8641C131.305 26.045 131.4 26.4037 131.446 26.5846C131.118 28.381 130.971 30.2051 130.971 32.0323C130.854 32.7343 130.726 33.4425 130.591 34.1568C128.063 32.0108 126.048 29.3651 123.916 26.8605C123.447 24.9812 123.238 23.0529 123.278 21.1277H123.275Z" fill="#98D8E6"/>
<path d="M45.3563 25.7386C47.7335 24.8496 50.1107 23.9605 52.5093 23.1113C52.7915 23.3688 53.3743 23.8777 53.6626 24.1291C52.1933 25.5148 50.8008 26.9955 49.764 28.7399C48.1537 31.3549 45.4913 33.8657 46.1109 37.241C46.5495 40.0798 46.1293 43.0505 44.8165 45.6134C43.335 47.2444 41.0345 47.8483 39.5837 49.5344C39.372 50.3407 39.1849 51.1562 39.004 51.9808C41.697 53.5965 44.3196 51.6252 46.8838 50.7515C48.2641 50.2181 49.6168 49.6233 50.9633 49.0194C50.1781 51.5455 49.1905 53.998 48.2948 56.4904C46.7949 56.9656 45.4146 58.2409 43.8349 58.2103C41.5161 56.4445 39.2739 54.2893 38.1758 51.5241C38.3813 49.9023 38.4273 48.0782 39.599 46.8151C41.0038 45.1413 42.8013 43.6207 43.2338 41.3675C43.8135 39.4882 42.0866 37.7224 42.743 35.8492C43.6264 32.4923 45.5281 29.5492 47.1906 26.5479C46.5771 26.272 45.9606 25.9992 45.3533 25.7356L45.3563 25.7386Z" fill="#53FDF5"/>
<path d="M96.332 26.2631C96.97 25.328 97.878 24.6597 98.8779 24.1631C101.694 25.2514 104.543 26.2631 107.39 27.2686C107.853 28.7126 108.337 30.1534 108.84 31.5974C107.969 31.628 107.101 31.7077 106.236 31.7844C106.81 32.5692 107.384 33.3632 108.003 34.1296C105.871 33.3509 103.743 32.5661 101.629 31.7537C101.126 28.9854 98.2062 27.9737 96.332 26.2661V26.2631Z" fill="#258898"/>
<path d="M40.4708 27.5695C42.1026 26.9564 43.7252 26.3401 45.3539 25.7393C45.9582 26.0029 46.5778 26.2727 47.1912 26.5517C45.5288 29.553 43.627 32.496 42.7437 35.853C42.0873 37.7261 43.8141 39.4919 43.2344 41.3712C42.8019 43.6245 41.0045 45.145 39.5997 46.8189C38.428 48.0819 38.382 49.9029 38.1764 51.5277C37.5967 49.6332 36.7256 47.6957 34.4712 47.5546C32.7504 47.3216 32.0603 45.6754 31.2106 44.4123C30.3671 42.9837 28.858 42.1836 27.5391 41.2761C27.9777 39.8475 29.3641 39.1884 30.3794 38.235C33.2534 35.0926 37.5569 33.5905 39.9555 29.9454C40.1671 29.1606 40.342 28.3604 40.4708 27.5695ZM33.8086 38.002C34.511 38.1951 35.3944 38.7868 36.0048 38.0327C36.2625 37.1375 36.3023 36.1963 36.3974 35.2889C34.6767 35.1356 33.6921 36.3312 33.8056 37.9989L33.8086 38.002Z" fill="#3AFEF2"/>
<path d="M62.4429 28.5411C66.5685 26.8856 71.0068 25.1014 75.5372 25.9782C78.077 27.7685 78.9511 31.0611 81.1627 33.2101C83.3803 35.5921 81.7761 38.9031 80.3437 41.2361C78.9082 42.1251 77.3163 42.867 76.1814 44.1546C76.1752 45.0038 76.5157 45.8162 76.7151 46.6409L76.1875 46.2852C75.1385 45.5433 74.0987 44.7923 73.0681 44.0381C75.6017 42.6218 78.2027 41.0184 79.7824 38.5045C80.5369 36.0827 78.0432 34.5038 76.2765 33.4554C73.9515 32.0114 71.0712 32.2782 68.5775 33.0936C65.9305 33.9827 62.6423 34.369 61.167 37.079C59.7223 37.7688 58.2929 38.4892 56.9341 39.3262C56.5415 39.2373 55.7562 39.0564 55.3606 38.9644C55.1857 37.824 54.8637 36.6897 54.9158 35.5431C56.4034 32.3671 59.1548 29.7857 62.4429 28.5349V28.5411Z" fill="#A6FDFB"/>
<path d="M123.913 26.8604C126.045 29.365 128.063 32.0138 130.588 34.1567C130.723 33.4424 130.852 32.7342 130.968 32.0322C131.072 34.0279 131.078 36.0574 130.471 37.9888C128.867 36.4743 127.944 34.1322 125.708 33.4301C123.956 35.6129 124.284 38.4732 124.156 41.0882L123.582 41.0545C123.686 38.9024 123.665 36.7472 123.653 34.5951C123.594 32.0046 123.8 29.4355 123.91 26.8604H123.913Z" fill="#8AABBD"/>
<path d="M130.968 32.0327C130.968 30.2025 131.115 28.3814 131.443 26.585C131.958 28.3753 131.829 30.2546 131.829 32.0971C131.52 42.8791 131.823 53.6611 131.612 64.4339C131.271 60.1112 131.572 55.758 131.084 51.4446C130.698 52.3643 130.317 53.287 129.949 54.2129C129.422 53.658 128.873 53.143 128.357 52.5973C127.287 53.189 126.204 52.4286 125.186 52.1466C124.799 52.772 124.407 53.4035 124.051 54.0535C124.161 49.7309 123.993 45.4113 124.155 41.0887C124.284 38.4737 123.956 35.6134 125.707 33.4306C127.943 34.1327 128.863 36.4779 130.471 37.9893C131.075 36.0579 131.069 34.0284 130.968 32.0327Z" fill="#8795A3"/>
<path d="M28.8422 31.9502C32.7162 30.4756 36.5749 28.9612 40.4734 27.5693C40.3446 28.3603 40.1697 29.1604 39.9581 29.9452C37.5595 33.5903 33.256 35.0925 30.382 38.2348C29.3636 39.1882 27.9772 39.8443 27.5417 41.276C28.8637 42.1834 30.3697 42.9835 31.2132 44.4122C32.0629 45.6752 32.753 47.3246 34.4738 47.5545C34.848 48.1462 35.2345 48.7532 35.6209 49.3571C35.0811 49.8139 34.5382 50.2768 34.0045 50.7428C33.0505 50.0745 32.0843 49.4092 31.0905 48.7992C31.4187 50.2676 32.2622 51.5245 32.9923 52.8244C32.523 54.0813 31.5568 55.0592 30.7685 56.1292C31.4709 56.7147 32.1672 57.3064 32.8757 57.9073C31.934 58.9895 31.0139 60.0962 30.0415 61.16C30.8206 61.8375 31.5997 62.5242 32.388 63.214C32.937 63.2477 33.4892 63.2722 34.0566 63.3182C34.4492 64.29 34.8541 65.2619 35.2927 66.2367C35.4737 65.1607 35.6332 64.0846 35.7559 63.0086C36.3602 62.7572 36.9736 62.5119 37.5932 62.282C40.3446 62.0889 43.0591 61.5278 45.6602 60.6204C45.8657 61.1232 46.0804 61.6321 46.2982 62.1471C46.0344 62.8307 45.7645 63.5175 45.5068 64.2195C44.9455 64.149 44.3842 64.0846 43.8321 64.0264C43.5622 64.6058 43.2984 65.1913 43.0407 65.7861C42.4671 65.8382 41.8874 65.8903 41.32 65.9547C40.7586 66.5678 40.2127 67.1779 39.6575 67.7972C37.6024 67.0645 35.2897 67.7788 33.3419 66.6843C31.474 65.737 29.5139 64.9399 27.4128 64.7529C25.8669 63.0852 24.2228 61.396 23.5542 59.1611C22.6647 57.2236 23.9805 55.2647 24.0173 53.2873C24.1707 49.0812 24.8946 44.8966 24.6216 40.6782C24.3946 38.1153 27.3914 37.1373 28.649 35.3071C29.6213 34.3874 29.0416 33.0538 28.8422 31.9594V31.9502Z" fill="#1DF0E2"/>
<path d="M89.9726 27.7744C92.9571 28.7278 95.8618 29.899 98.8402 30.8646C98.6347 31.4318 98.4292 31.9989 98.2267 32.5722C98.9291 33.7004 99.6254 34.8316 100.316 35.972C99.5027 35.5735 98.6837 35.2118 97.8678 34.85C95.2054 39.5313 92.3467 44.3873 87.6292 47.2813C86.3992 48.2409 84.4729 48.201 83.5619 49.5039C83.8196 50.4512 84.2122 51.3587 84.5803 52.2876C83.6908 51.5794 82.7552 50.9356 81.8351 50.298C81.7369 47.6247 82.7185 45.0495 82.4393 42.3701C82.1418 40.8373 83.3043 39.7091 84.1264 38.5901C85.5128 38.1058 87.2059 37.9985 88.2243 36.8182C89.1782 34.1388 88.9512 31.2264 88.9573 28.4397C89.2089 28.2711 89.718 27.943 89.9695 27.7775L89.9726 27.7744Z" fill="#41FDF3"/>
<path d="M107.391 27.2658C108.538 27.6643 109.691 28.072 110.844 28.4828C112.467 29.0622 114.105 29.6416 115.691 30.3437C116.458 30.6993 117.212 31.0856 117.973 31.478C117.875 32.1034 117.786 32.7288 117.709 33.3573C117.169 37.9956 117.283 42.6769 117.117 47.3398C116.697 48.563 116.215 49.7678 115.816 51.0033C115.534 48.2718 115.59 45.5219 116.028 42.8179C116.562 39.5346 115.918 36.2359 116.117 32.9373C115.525 32.7441 114.93 32.5571 114.344 32.3762C113.924 32.646 113.519 32.925 113.114 33.2071C111.716 32.6031 110.311 31.9961 108.841 31.5914C108.338 30.1475 107.857 28.7066 107.391 27.2627V27.2658Z" fill="#2E7B8B"/>
<path d="M98.84 30.8682C99.7694 31.1594 100.696 31.4353 101.631 31.7511C103.745 32.5635 105.87 33.3483 108.005 34.127C109.52 34.7769 111.039 35.4145 112.56 36.0583C112.766 40.476 112.624 44.8998 112.624 49.3327C112.321 49.86 112.011 50.3965 111.71 50.9361C111.06 51.0403 110.416 51.1415 109.79 51.3101C108.468 53.6799 108.275 56.8927 105.53 58.2079C104.137 57.7511 102.739 57.325 101.321 56.9908C101.984 56.7731 102.662 56.5524 103.331 56.3286C102.874 56.1109 102.423 55.8902 101.972 55.6848C101.972 55.1759 101.978 54.667 101.984 54.1643C100.515 52.38 101.959 50.4486 102.751 48.741C104.438 45.8225 106.051 42.481 105.321 39.029C104.524 36.0338 101.65 34.3722 99.5148 32.3887C99.1927 32.4347 98.5486 32.5297 98.2266 32.5757C98.4259 32.0024 98.6314 31.4353 98.84 30.8682Z" fill="#41CFCC"/>
<path d="M106.238 31.7817C107.103 31.7051 107.971 31.6284 108.842 31.5947C110.312 31.9994 111.716 32.6064 113.115 33.2103C113.52 32.9283 113.928 32.6493 114.345 32.3795C114.931 32.5604 115.523 32.7474 116.118 32.9406C115.919 36.2392 116.563 39.5348 116.029 42.8212C115.59 45.5252 115.532 48.2751 115.817 51.0066C115.848 55.1085 115.186 59.2195 115.676 63.3153C115.572 64.6305 115.449 65.9487 115.348 67.27C115.084 69.1125 114.716 70.9488 114.235 72.7453C113.784 70.2652 113.468 67.7605 112.753 65.3448C112.407 60.0136 112.842 54.667 112.631 49.3327C112.631 44.9028 112.772 40.476 112.566 36.0583C111.045 35.4145 109.523 34.7769 108.011 34.127C107.392 33.3606 106.818 32.5696 106.244 31.7817H106.238Z" fill="#3F808B"/>
<path d="M18.4914 36.1686C21.9053 34.6817 25.3284 33.2071 28.8404 31.9502C29.0398 33.0446 29.6195 34.3782 28.6472 35.2979C27.3896 37.1281 24.3929 38.1061 24.6198 40.669C24.8898 44.8874 24.169 49.0751 24.0156 53.2781C23.9757 55.2555 22.6629 57.2145 23.5524 59.152C24.2211 61.3869 25.8652 63.073 27.4111 64.7438C28.6533 67.2822 30.3036 69.8451 33.1255 70.8107C34.4597 70.9518 35.8001 70.823 37.1406 70.8292L36.521 71.4086C33.5242 72.5797 30.0183 72.7299 27.1964 71.0223C25.8314 69.4895 24.2763 67.9167 23.7671 65.8627C22.9482 63.2293 21.7366 60.7093 21.4421 57.941C21.1446 55.6939 18.7674 54.3481 18.6846 52.0427C18.3932 46.7544 18.4668 41.4538 18.4914 36.1655V36.1686Z" fill="#19E0D3"/>
<path d="M98.2245 32.5718C98.5466 32.5258 99.1907 32.4308 99.5128 32.3848C101.645 34.3683 104.519 36.0299 105.319 39.025C106.046 42.477 104.436 45.8186 102.749 48.7371C100.589 50.5397 97.7031 49.7794 95.1634 50.2577C93.2034 51.1651 91.8261 52.9555 89.8937 53.9089C88.5595 54.056 87.2313 53.7158 85.9185 53.5349C85.4799 53.0965 85.0352 52.6857 84.5781 52.2841C88.1945 50.319 92.093 48.9149 95.5836 46.726C97.1939 45.6622 99.1478 45.5151 101.01 45.2913C101.73 44.2489 102.454 43.2036 103.194 42.1735C102.497 39.9907 101.577 37.8846 100.313 35.9716C99.6232 34.8312 98.9269 33.6969 98.2245 32.5718Z" fill="#3AE5DF"/>
<path d="M68.5786 33.0967C71.0723 32.2781 73.9525 32.0145 76.2775 33.4584C78.0442 34.5069 80.538 36.0857 79.7834 38.5076C78.2037 41.0184 75.6027 42.6217 73.0691 44.0412C70.5416 42.1987 67.9651 40.4206 65.3824 38.6701C64.131 37.7933 62.6893 37.2261 61.168 37.0851C62.6433 34.375 65.9315 33.9857 68.5786 33.0997V33.0967Z" fill="#D5FEFC"/>
<path d="M117.704 33.3604C118.097 33.8631 118.496 34.3659 118.904 34.8748C120.462 34.5468 122.06 34.4241 123.652 34.5989C123.664 36.751 123.686 38.9062 123.581 41.0583C123.201 45.5464 123.735 50.102 122.79 54.538C121.269 55.3382 119.625 55.8655 117.907 55.9176C117.674 54.3449 117.392 52.7875 117.152 51.2302C117.128 49.9303 117.1 48.6336 117.112 47.346C117.281 42.6831 117.165 38.0018 117.704 33.3634V33.3604Z" fill="#5DE8E6"/>
<path d="M97.8684 34.8527C98.6874 35.2144 99.5063 35.5731 100.316 35.9747C101.58 37.8877 102.5 39.9938 103.196 42.1766C102.454 43.2066 101.733 44.249 101.012 45.2944C99.1505 45.5212 97.1967 45.6684 95.5863 46.7291C92.0927 48.918 88.1941 50.3221 84.5809 52.2872C84.2128 51.3583 83.8202 50.4508 83.5625 49.5035C84.4704 48.2037 86.3967 48.2405 87.6297 47.2809C92.3472 44.39 95.209 39.534 97.8684 34.8496V34.8527Z" fill="#32F5EB"/>
<path d="M6.60825 35.9416C8.86885 35.5492 11.1448 35.2733 13.4391 35.123C13.5097 35.7484 13.5925 36.38 13.6845 37.0176C13.6538 41.4353 13.6784 45.8529 13.7244 50.2736C13.7305 52.297 13.6416 54.3234 13.5434 56.3529C13.2029 59.1365 13.1753 61.9508 13.1109 64.7528C11.6478 62.4719 9.56819 60.6295 8.41182 58.1524C8.26459 58.3272 7.96092 58.6797 7.81369 58.8544C7.40267 58.508 6.99473 58.1647 6.58984 57.8305V56.7667C6.82909 49.8291 6.57144 42.8884 6.60825 35.9446V35.9416Z" fill="#19EEE0"/>
<path d="M33.8062 38.0011C33.6896 36.3334 34.6773 35.1347 36.398 35.291C36.2999 36.1985 36.2631 37.1397 36.0054 38.0349C35.392 38.789 34.5116 38.1973 33.8092 38.0042L33.8062 38.0011Z" fill="#6EFCF4"/>
<path d="M17.7492 36.5391C17.9363 36.4502 18.3043 36.257 18.4914 36.165C18.4669 41.4533 18.3933 46.7539 18.6847 52.0422C18.7675 54.3476 21.1477 55.6934 21.4422 57.9406C21.7397 60.7089 22.9513 63.2288 23.7672 65.8623C24.2764 67.9163 25.8284 69.489 27.1964 71.0218C30.0184 72.7294 33.5243 72.5792 36.521 71.4081C36.5732 72.2389 36.6683 73.0758 36.7603 73.9066C38.6681 74.204 40.6404 74.0997 42.1925 72.8367C41.4901 74.7497 40.7048 76.629 39.9503 78.5297C38.6436 78.827 37.5026 79.5291 36.3094 80.1085C34.9567 80.1146 33.6408 79.6885 32.3219 79.4463C31.4784 80.1667 30.6349 80.8902 29.7944 81.6229C29.7178 81.9847 29.6411 82.3495 29.5675 82.7235C28.8589 83.1098 28.1626 83.4961 27.4848 83.9283C25.718 82.5641 24.3991 80.7983 23.5617 78.7443C21.1968 75.8595 21.6937 71.356 18.2767 69.2069C18.1418 64.964 17.9485 60.7181 17.9731 56.4752C17.9853 49.8288 17.8442 43.1885 17.7461 36.5421L17.7492 36.5391Z" fill="#1ECEC4"/>
<path d="M14.7805 39.6138C15.3204 38.2036 16.3387 37.103 17.7497 36.542C17.8478 43.1884 17.9889 49.8286 17.9766 56.475C17.673 56.4352 17.0749 56.3463 16.7773 56.3064C16.5381 56.4873 16.0504 56.8398 15.8111 57.0207C15.0504 54.1604 15.167 51.1806 15.0964 48.2559C14.6333 48.9181 14.1763 49.5895 13.7254 50.2731C13.6794 45.8555 13.6548 41.4379 13.6855 37.0171C14.0321 37.8817 14.4063 38.7431 14.7805 39.6138Z" fill="#14A1AA"/>
<path d="M56.934 39.3292C58.2928 38.4923 59.7253 37.7718 61.1669 37.082C62.6883 37.2231 64.1299 37.7902 65.3814 38.667C67.964 40.4175 70.5436 42.1956 73.068 44.0381C74.0986 44.7922 75.1354 45.5464 76.1875 46.2852C75.8133 46.4906 75.0587 46.9045 74.6783 47.1038C73.614 46.3956 72.565 45.6751 71.5528 44.9026C69.2707 43.2165 67.2984 41.0889 64.7924 39.7308C63.6391 39.0042 62.2803 39.5683 61.1638 40.0588C58.1088 41.561 55.0936 43.6211 53.695 46.8523C53.4557 47.2202 53.2318 47.6065 53.0109 47.9989C52.4435 47.9591 51.8699 47.9346 51.3086 47.91C51.6123 46.9505 51.9405 45.9909 52.3331 45.062C53.4097 42.8333 54.9802 40.8559 56.9279 39.3292H56.934Z" fill="#4ED2D5"/>
<path d="M80.3468 41.2355C81.6044 40.3465 82.6136 39.0712 84.1288 38.5898C83.3037 39.7119 82.1443 40.837 82.4418 42.3698C82.7179 45.0492 81.7394 47.6244 81.8375 50.2977C80.1168 49.0867 78.4482 47.8237 76.7213 46.6403C76.5219 45.8157 76.1814 45.0033 76.1876 44.1541C77.3225 42.8665 78.9144 42.1246 80.3499 41.2355H80.3468Z" fill="#62F8F4"/>
<path d="M61.1689 40.0584C62.2824 39.5679 63.6443 39.0007 64.7976 39.7304C67.3035 41.0884 69.2758 43.216 71.5579 44.9021C70.334 45.27 68.7942 45.1535 67.8403 46.1008C66.5244 51.4413 67.1502 56.984 66.9201 62.4225C66.5459 65.4177 66.1134 68.4129 66.276 71.4387C66.0122 71.7299 65.4785 72.3032 65.2116 72.5914C65.2178 73.0022 65.2239 73.4283 65.23 73.8606C64.4111 74.6086 63.6136 75.375 62.8069 76.1353C60.5769 77.6221 58.1661 78.7902 55.8226 80.0777C56.2275 78.5449 57.3624 77.4229 58.5219 76.4204C59.8868 75.3628 61.6996 74.5013 62.3744 72.8458C63.5093 65.1234 63.4173 57.2783 64.2822 49.5314C64.4755 46.7232 64.5215 43.915 64.592 41.113C61.7824 41.7966 59.1476 43.0382 56.7704 44.6753C55.7061 45.3436 54.6969 46.0855 53.7031 46.8581C55.1018 43.6238 58.117 41.5637 61.172 40.0645L61.1689 40.0584Z" fill="#E6FDFB"/>
<path d="M56.769 44.6697C59.1462 43.0327 61.781 41.7911 64.5906 41.1074C64.5201 43.9095 64.4741 46.7176 64.2808 49.5258C63.4158 57.2728 63.5079 65.1178 62.373 72.8403C61.6951 74.4957 59.8854 75.3572 58.5204 76.4149C55.2262 77.3928 52.5545 79.5848 49.5639 81.1759C49.1253 81.136 48.2481 81.0532 47.8125 81.0072C49.9197 78.4964 52.7171 76.795 55.263 74.8054C55.72 73.0549 55.217 71.1787 55.8028 69.4527C56.5696 67.4048 58.2904 65.9425 59.3333 64.0694C60.0664 61.6352 60.4467 59.0968 60.873 56.5983C61.3362 54.7037 60.0725 53.082 59.2627 51.5093C60.2228 49.1763 60.6798 46.6931 61.3515 44.2712C59.8118 44.0903 58.2597 44.2712 56.769 44.6697Z" fill="#53FEFB"/>
<path d="M123.583 41.0547L124.157 41.0884C123.994 45.411 124.163 49.7306 124.052 54.0532L124.012 54.4517C123.632 57.2077 123.626 59.9975 123.528 62.7719C123.013 61.6499 122.485 60.5493 122.059 59.4028C122.206 57.7596 122.479 56.1439 122.786 54.5345C123.733 50.0984 123.197 45.5428 123.577 41.0547H123.583Z" fill="#7BD4D8"/>
<path d="M56.7664 44.669C58.2541 44.2704 59.8092 44.0896 61.349 44.2705C60.6803 46.6924 60.2202 49.1786 59.2601 51.5085C60.073 53.0812 61.3336 54.703 60.8705 56.5975C60.4441 59.0961 60.0638 61.6345 59.3307 64.0686C58.2878 65.9417 56.5671 67.4041 55.8002 69.452C55.2144 71.1779 55.7174 73.051 55.2604 74.8046C52.7145 76.7942 49.9172 78.4957 47.8099 81.0065C45.5432 82.8091 42.8624 84.3634 41.5772 87.0857C40.1908 87.846 38.4332 88.2844 37.6541 89.7835C40.5864 88.8699 43.1967 87.1562 46.1873 86.4021C44.4604 88.0974 42.1078 88.7994 39.9484 89.7498C39.5098 89.9245 38.6418 90.2648 38.2032 90.4334L37.332 89.7897C37.4425 88.5726 37.8351 87.4015 38.2798 86.2733L38.5498 85.7767C41.3349 86.2672 42.8225 83.1371 44.1875 81.2548C45.7027 77.4472 47.448 73.7316 49.2853 70.0743C50.1227 67.7934 50.1043 65.2887 51.0459 63.0355C50.8343 62.4867 50.6196 61.9471 50.4141 61.4137C50.5674 61.1439 50.8834 60.5952 51.0398 60.3193C50.8987 58.581 51.7667 57.0666 52.233 55.4571C51.8925 54.5742 51.368 53.7771 50.9171 52.9709C51.5306 51.2755 52.1532 49.5772 53.0182 47.9983C53.236 47.6059 53.4629 47.2196 53.7022 46.8517C54.696 46.0792 55.7051 45.3373 56.7695 44.669H56.7664Z" fill="#37FEF7"/>
<path d="M76.1888 46.2852L76.7164 46.6408C78.4433 47.8272 80.1119 49.0872 81.8326 50.2982C82.7528 50.9358 83.6883 51.5796 84.5779 52.2878C85.0349 52.6863 85.4796 53.1002 85.9183 53.5386C87.9672 56.1597 91.6418 57.1254 93.1878 60.1328C86.8906 55.9788 80.7836 51.5336 74.6797 47.1037C75.06 46.9044 75.8146 46.4906 76.1888 46.2852Z" fill="#64B9CF"/>
<path d="M34.4718 47.554C36.7262 47.695 37.5973 49.6356 38.177 51.5271C39.2721 54.2893 41.5143 56.4475 43.8362 58.2134C45.4159 58.2471 46.7931 56.9718 48.2961 56.4935C47.6519 58.382 47.0139 60.2735 46.2993 62.1405C46.0815 61.6255 45.8668 61.1165 45.6613 60.6138C43.0571 61.5212 40.3456 62.0822 37.5943 62.2754C38.0053 62.0179 38.4194 61.7665 38.8365 61.5151C36.9471 60.3563 35.6005 58.6119 34.6803 56.6253C34.0669 57.03 33.4565 57.4439 32.8768 57.9007C32.1682 57.3028 31.4719 56.7081 30.7695 56.1226C31.5548 55.0527 32.521 54.0747 32.9933 52.8178C32.2664 51.5179 31.4198 50.261 31.0916 48.7925C32.0854 49.4057 33.0516 50.0678 34.0055 50.7362C34.5392 50.2732 35.0822 49.8073 35.622 49.3505C35.2355 48.7465 34.849 48.1395 34.4748 47.5479L34.4718 47.554Z" fill="#31FAEC"/>
<path d="M115.814 51.0062C116.213 49.7708 116.698 48.566 117.115 47.3428C117.103 48.6304 117.127 49.9241 117.155 51.227C117.032 54.0351 116.974 56.8556 117.038 59.6699C117.008 62.9992 117.02 66.3285 116.903 69.6578C116.612 67.521 116.465 65.3352 115.673 63.315C115.183 59.2192 115.848 55.1112 115.814 51.0062Z" fill="#2E6779"/>
<path d="M13.7209 50.2701C14.1718 49.5865 14.6288 48.9182 15.092 48.2529C15.1625 51.1776 15.0459 54.1574 15.8066 57.0177C16.0459 56.8368 16.5336 56.4843 16.7728 56.3034C17.0704 56.3433 17.6685 56.4321 17.9721 56.472C17.9476 60.7149 18.1408 64.9609 18.2758 69.2038C18.0887 74.1242 18.2881 79.0569 18.65 83.9773C19.8095 85.271 20.9812 86.5678 22.1498 87.8738C22.0609 88.0914 21.8799 88.5359 21.7879 88.7567C23.0884 91.6292 23.6374 94.9708 25.9839 97.2578C27.7875 99.1003 28.1955 101.74 28.9623 104.097C27.9623 104.202 26.9655 104.324 25.9717 104.453C24.6558 104.235 22.9044 104.471 22.0486 103.242C20.3094 100.596 17.8219 98.2173 17.7636 94.8298C17.9967 92.1197 17.828 89.4005 17.8219 86.6904C18.0028 79.7344 17.3832 72.7906 17.6041 65.8438C16.8771 66.2423 16.1471 66.6501 15.4324 67.067C15.2975 68.6642 15.0214 70.2676 14.3681 71.7483C13.9877 67.3031 14.4325 62.8333 13.9877 58.4034C13.8773 57.8945 13.6534 56.8644 13.543 56.3494C13.6411 54.3199 13.7301 52.2904 13.7239 50.2701H13.7209Z" fill="#1C9B9F"/>
<path d="M39.5836 49.5375C41.8074 48.6423 44.2245 48.0629 46.5495 48.9887C46.6323 49.4271 46.801 50.31 46.8838 50.7546C44.3195 51.6313 41.697 53.6026 39.0039 51.9839C39.1849 51.1592 39.372 50.3407 39.5836 49.5375Z" fill="#8EFDFA"/>
<path d="M0.601562 49.3106C0.917494 49.2922 1.54323 49.2462 1.85917 49.2217C4.02468 51.3339 6.37116 53.5228 6.58893 56.7632V57.827C6.53066 63.8603 6.72389 69.8905 6.82817 75.9237C6.79443 77.8888 6.72389 79.8601 6.75149 81.8374C6.34661 80.93 5.90186 80.0532 5.46324 79.1826C4.632 79.2408 3.81303 79.3113 2.98793 79.3757C2.86524 80.136 2.74868 80.8963 2.64132 81.6688C2.0432 78.551 2.08 75.3443 1.55856 72.2326C1.35918 71.9414 0.966583 71.3559 0.767209 71.0616C0.684392 63.8174 0.715056 56.564 0.604633 49.3106H0.601562Z" fill="#1B7C89"/>
<path d="M95.1667 50.2579C97.7064 49.7827 100.593 50.5399 102.752 48.7373C101.961 50.4449 100.516 52.3763 101.985 54.1605C101.979 54.6633 101.973 55.1722 101.973 55.6811C102.424 55.8865 102.875 56.1072 103.332 56.3249C102.663 56.5517 101.985 56.7694 101.323 56.9871C98.9333 57.5787 96.5102 58.011 94.0533 58.152C94.3447 58.6088 94.633 59.0809 94.9305 59.55C94.498 59.6971 93.6238 59.9822 93.1914 60.1294C91.6454 57.1219 87.9708 56.1563 85.9219 53.5351C87.2377 53.716 88.5628 54.0563 89.8971 53.9091C91.8295 52.9557 93.2098 51.1653 95.1667 50.2579Z" fill="#47DAD8"/>
<path d="M111.706 50.9354C112.009 50.3958 112.319 49.8593 112.62 49.332C112.832 54.6663 112.393 60.0098 112.743 65.3441C112.73 67.1681 112.678 68.9953 112.703 70.8316C110.436 71.4294 108.366 72.8274 107.921 75.2952C107.553 75.237 106.82 75.1144 106.458 75.0561C106.427 74.7526 106.369 74.1364 106.341 73.8329C104.988 73.698 103.771 74.2131 102.676 74.9397C101.136 74.9335 99.5961 74.9274 98.0625 74.9642C99.2864 72.015 100.363 68.9953 100.976 65.8499C101.403 64.7616 101.936 63.7192 102.47 62.6861C102.955 62.6677 103.443 62.6616 103.939 62.6616C104.216 61.1042 104.102 59.2342 105.525 58.2041C108.27 56.8889 108.464 53.6761 109.786 51.3063C110.411 51.1377 111.056 51.0365 111.706 50.9323V50.9354Z" fill="#54B6B7"/>
<path d="M117.155 51.2238C117.394 52.7811 117.676 54.3416 117.909 55.9112C119.63 55.8591 121.274 55.3318 122.793 54.5317C122.483 56.1411 122.213 57.7598 122.066 59.4C120.713 60.3289 119.391 61.3007 118.096 62.3031C117.728 61.4202 117.363 60.5434 117.038 59.6636C116.974 56.8493 117.032 54.0289 117.155 51.2207V51.2238Z" fill="#69D2D8"/>
<path d="M129.95 54.2126C130.318 53.2837 130.698 52.364 131.085 51.4443C131.575 55.7608 131.272 60.1141 131.612 64.4336C131.643 65.9787 131.631 67.5299 131.523 69.0842C130.505 70.8623 130.486 72.9623 130.125 74.9336C129.575 74.1487 129.048 73.3762 128.514 72.6036C127.934 72.9592 127.361 73.3241 126.787 73.6919C126.419 72.4687 126.033 71.2578 125.609 70.0714C125.205 70.8838 124.83 71.7269 124.889 72.6742C124.772 78.7411 124.83 84.8204 124.355 90.8812C124.208 89.8971 124.051 88.9161 123.91 87.9443C124.337 76.7883 124.484 65.6078 124.021 54.4548L124.06 54.0563C124.416 53.4063 124.809 52.7748 125.195 52.1494C126.214 52.4315 127.296 53.1917 128.367 52.6001C128.882 53.1488 129.431 53.6639 129.959 54.2157L129.95 54.2126Z" fill="#867D8B"/>
<path d="M38.6542 84.6769C42.5987 74.0513 47.031 63.6157 50.9172 52.9717C51.3681 53.778 51.8896 54.575 52.2331 55.4579C51.7699 57.0674 50.8988 58.5819 51.0399 60.3201C50.8865 60.596 50.5706 61.1448 50.4142 61.4145C50.6197 61.948 50.8344 62.4906 51.0461 63.0363C50.1044 65.2896 50.1259 67.7973 49.2854 70.0751C47.4481 73.7324 45.7028 77.4481 44.1876 81.2556C42.8226 83.1349 41.3319 86.2649 38.5499 85.7775L38.4609 85.146C38.5069 85.0295 38.602 84.7903 38.6542 84.6769Z" fill="#24F9F1"/>
<path d="M123.532 62.7724C123.631 59.998 123.637 57.2082 124.017 54.4521C124.48 65.6082 124.333 76.7887 123.907 87.9416C123.701 88.5548 123.486 89.171 123.275 89.7902C122.848 89.404 122.437 89.03 122.023 88.6559C121.045 88.9656 120.063 89.2813 119.091 89.6032C118.659 91.0257 118.248 92.4574 117.867 93.8983C117.751 92.1079 117.505 90.3359 117.152 88.5915C117.113 88.38 117.042 87.9539 117.011 87.7423C117.11 82.1505 116.972 76.5618 116.953 70.97C120.002 70.7585 121.652 68.1557 123.164 65.8504C123.609 64.8908 123.468 63.7902 123.532 62.7724Z" fill="#87ABB3"/>
<path d="M13.1091 64.7495C13.1735 61.9475 13.198 59.1332 13.5416 56.3496C13.652 56.8646 13.8759 57.8947 13.9863 58.4036C13.4373 70.3628 13.8054 82.3435 13.6121 94.3088L13.471 94.876C13.5232 88.9776 12.9373 83.116 11.7963 77.3311C11.4804 77.8584 11.1644 78.3949 10.8608 78.9344C10.3117 77.7879 9.77187 76.6413 9.22896 75.507C8.42226 75.6358 7.62477 75.7707 6.82421 75.9178C6.71992 69.8846 6.52667 63.8544 6.58495 57.8211C6.98983 58.1553 7.39778 58.4987 7.8088 58.8451C7.95603 58.6703 8.2597 58.3178 8.40693 58.143C9.56023 60.6232 11.6429 62.4656 13.106 64.7434L13.1091 64.7495Z" fill="#20D5CF"/>
<path d="M32.8732 57.9042C33.453 57.4475 34.0664 57.0336 34.6768 56.6289C35.597 58.6124 36.9435 60.3568 38.833 61.5187C38.4128 61.7701 38.0018 62.0215 37.5907 62.279C36.9712 62.512 36.3608 62.7541 35.7534 63.0055C35.6307 64.0816 35.4712 65.1576 35.2903 66.2337C34.8517 65.2619 34.4468 64.2901 34.0541 63.3152C33.4867 63.2692 32.9315 63.2447 32.3855 63.2109C31.6003 62.5212 30.8212 61.8314 30.0391 61.1569C31.0114 60.0931 31.9346 58.9864 32.8732 57.9042Z" fill="#95FCF6"/>
<path d="M94.0503 58.1552C96.5041 58.0142 98.9273 57.5819 101.32 56.9902C102.737 57.3244 104.136 57.7505 105.528 58.2073C104.105 59.2374 104.221 61.1044 103.942 62.6648C103.445 62.6648 102.958 62.6709 102.473 62.6893C101.939 63.7194 101.403 64.7617 100.979 65.8531C100.102 65.2277 99.234 64.6115 98.3966 63.9462C96.7341 62.5667 94.9551 61.3496 93.1914 60.1326C93.6239 59.9854 94.4981 59.7003 94.9306 59.5531C94.633 59.0841 94.3447 58.612 94.0533 58.1552H94.0503Z" fill="#55C9C9"/>
<path d="M13.9869 58.4062C14.4316 62.8362 13.9869 67.3059 14.3672 71.7512C14.039 77.6557 14.4562 83.5693 14.4562 89.4769C14.2292 93.168 14.5145 96.8713 15.2567 100.498C17.686 99.7194 17.0726 96.7947 17.7627 94.8357C17.4161 100.271 17.8394 105.7 17.9161 111.142C17.6002 114.143 18.0511 117.215 17.2904 120.177C16.5818 119.34 15.7322 118.65 14.8427 118.031C15.2046 119.603 15.6984 121.148 16.3824 122.623C15.634 121.709 14.8089 120.857 13.901 120.106C13.7906 120.029 13.5728 119.867 13.4624 119.784C13.5145 114.882 13.3336 109.989 13.5728 105.093C13.7415 101.501 13.901 97.8983 13.6127 94.3115C13.8059 82.3461 13.4378 70.3655 13.9869 58.4062Z" fill="#125568"/>
<path d="M117.037 59.6699C117.359 60.5528 117.727 61.4296 118.096 62.3094C119.39 61.3039 120.712 60.3321 122.065 59.4062C122.491 60.5528 123.019 61.6534 123.534 62.7754C123.469 63.7932 123.611 64.8938 123.166 65.8534C121.65 68.1588 120 70.7615 116.954 70.9731C116.942 70.645 116.915 69.989 116.902 69.6579C117.019 66.3285 117.007 62.9992 117.037 59.6699Z" fill="#71C5C9"/>
<path d="M43.8255 64.0226C44.3807 64.0808 44.9389 64.1452 45.5002 64.2157C44.4359 67.1005 43.2519 69.9486 42.1876 72.8395C40.6355 74.1026 38.6632 74.2037 36.7554 73.9094C36.6664 73.0786 36.5683 72.2417 36.5161 71.4109L37.1357 70.8315C35.7953 70.8254 34.4549 70.9541 33.1206 70.8131C30.2987 69.8474 28.6485 67.2845 27.4062 64.7461C29.5073 64.9331 31.4674 65.7302 33.3353 66.6775C35.28 67.7719 37.5958 67.0576 39.6509 67.7903C40.2061 67.1711 40.7521 66.561 41.3134 65.9479C41.8808 65.8835 42.4606 65.8314 43.0341 65.7793C43.2918 65.1876 43.5556 64.602 43.8255 64.0195V64.0226Z" fill="#22E4DA"/>
<path d="M98.3961 63.9464C99.2335 64.6086 100.105 65.2279 100.979 65.8533C100.365 68.9956 99.2917 72.0153 98.0648 74.9676C97.1937 77.0676 96.203 79.1154 95.2429 81.1756C95.1785 80.8721 95.0436 80.2559 94.9791 79.9524C94.2645 80.2743 93.5436 80.59 92.832 80.9303C95.0926 75.5776 97.4268 70.2464 99.3408 64.7588C96.9514 67.4045 96.3502 71.1416 94.8288 74.3023C94.8933 71.4941 96.6385 69.1949 97.4851 66.6197C97.7182 66.0587 97.6078 65.5774 97.1569 65.1696C97.6017 65.047 98.4973 64.8018 98.9421 64.6791L98.393 63.9434L98.3961 63.9464Z" fill="#3F708F"/>
<path d="M115.668 63.3145C116.459 65.3378 116.61 67.5205 116.898 69.6573C116.91 69.9854 116.938 70.6414 116.95 70.9725C116.969 76.5643 117.104 82.153 117.008 87.7448C116.628 86.8037 116.223 85.8901 115.874 84.9551C115.346 79.069 116.131 73.143 115.34 67.2692C115.444 65.9479 115.567 64.6296 115.668 63.3145Z" fill="#3C5A6E"/>
<path d="M95.3379 65.5216C95.936 65.3928 96.5433 65.2702 97.1537 65.166C97.6046 65.5707 97.715 66.0551 97.4819 66.6161C96.6384 69.1912 94.8901 71.4905 94.8256 74.2986C93.2276 79.3018 90.6633 83.9157 88.5499 88.7073C86.3016 93.4224 84.2526 98.2324 81.9644 102.929C80.7345 103.836 79.5014 104.744 78.2285 105.59C76.4617 106.737 75.471 108.702 73.8146 109.977C72.1061 111.298 70.4375 112.675 68.7106 113.972C67.5696 114.848 66.0881 114.03 64.8182 113.953C64.6434 105.992 64.1281 98.0393 64.168 90.0777C64.079 86.31 64.0514 82.5484 63.6987 78.7991C63.9318 78.2595 64.1741 77.723 64.4256 77.2018C64.0637 77.4287 63.349 77.8702 62.9901 78.097C62.6282 77.7353 62.2693 77.3827 61.9258 77.0271L62.803 76.1319C63.6097 75.3716 64.4072 74.6052 65.2262 73.8572C65.1679 74.5531 65.0452 75.9449 64.987 76.6408C64.1741 80.197 64.5943 83.8544 64.5115 87.4749C64.441 92.4475 64.6005 97.42 64.763 102.399C64.7385 104.165 64.6802 107.436 67.2383 107.267C71.781 105.759 74.7195 101.546 77.0782 97.6131C80.6731 91.4235 84.6575 85.4669 87.8659 79.0566C89.1941 77.2601 90.2707 75.295 91.2031 73.2655C92.381 70.5677 94.6692 68.4555 95.3409 65.5247L95.3379 65.5216Z" fill="#93A6D6"/>
<path d="M15.4299 67.067C16.1446 66.647 16.8746 66.2423 17.6015 65.8438C17.3838 72.7936 18.0003 79.7374 17.8193 86.6904C17.2273 88.1772 16.163 89.4157 14.4545 89.474C14.4545 83.5695 14.0343 77.6558 14.3655 71.7483C15.0158 70.2675 15.2949 68.6642 15.4299 67.067Z" fill="#17838F"/>
<path d="M77.4805 72.5613C83.3237 69.9708 89.1761 67.2362 95.3444 65.5225C94.6757 68.4532 92.3875 70.5655 91.2066 73.2633C90.2711 75.2928 89.1975 77.2579 87.8694 79.0544C87.3418 77.264 88.5596 75.7251 89.2681 74.1983C86.8787 74.8115 84.7132 73.2633 82.3268 73.5791C81.836 73.1223 81.3545 72.6778 80.876 72.2332C79.7411 72.3313 78.6 72.4203 77.4805 72.5613Z" fill="#BEEAF4"/>
<path d="M112.745 65.3408C113.46 67.7566 113.775 70.2612 114.226 72.7414C114.711 70.9449 115.076 69.1085 115.34 67.2661C116.131 73.1399 115.346 79.0659 115.874 84.952C115.26 85.9054 114.358 86.6074 113.45 87.2696C113.174 88.2169 112.901 89.1765 112.684 90.1544C112.653 89.0967 112.585 88.0544 112.555 87.0121C112.579 81.6165 112.846 76.224 112.702 70.8284C112.677 68.9921 112.726 67.1649 112.742 65.3408H112.745Z" fill="#4C6178"/>
<path d="M18.2785 69.2072C21.6924 71.3593 21.1986 75.8597 23.5635 78.7445C24.4009 80.7985 25.7229 82.5643 27.4866 83.9286C27.2596 84.0696 26.8087 84.3547 26.5848 84.4957C26.5541 84.928 26.5326 85.3602 26.5142 85.8017C25.134 86.6386 23.6739 87.3284 22.1525 87.8741C20.987 86.5681 19.8122 85.2713 18.6528 83.9776C18.2908 79.0572 18.0914 74.1245 18.2785 69.2041V69.2072Z" fill="#1AB7B2"/>
<path d="M130.126 74.9333C130.488 72.9621 130.506 70.8621 131.524 69.084C131.647 82.4933 131.699 95.9087 131.589 109.324C130.997 109.723 130.417 110.136 129.843 110.553C129.662 109.677 129.567 108.788 129.258 107.963C127.859 106.636 126.224 105.599 124.868 104.22C124.663 105.121 124.448 106.028 124.282 106.951C124.193 105.63 124.055 104.324 123.985 103.015C123.868 98.9652 124.295 94.9185 124.353 90.8749C124.828 84.814 124.773 78.7348 124.887 72.6678C124.828 71.7205 125.203 70.8774 125.608 70.065C126.034 71.2514 126.42 72.4624 126.785 73.6856C127.359 73.3177 127.933 72.9529 128.512 72.5973C129.046 73.3698 129.577 74.1424 130.123 74.9272L130.126 74.9333Z" fill="#8A6476"/>
<path d="M107.926 75.2927C108.371 72.8248 110.438 71.43 112.708 70.8291C112.849 76.2278 112.586 81.6172 112.561 87.0128C111.877 86.5928 111.202 86.1882 110.524 85.7774C108.457 86.5192 106.38 87.2397 104.423 88.2176C104.12 86.8258 105.319 85.8663 105.88 84.7412C105.611 83.659 104.178 83.9042 103.387 83.5425C104.276 82.8864 105.166 82.2273 106.068 81.5835C106.724 79.4958 107.31 77.3896 107.929 75.2896L107.926 75.2927Z" fill="#609DA1"/>
<path d="M0.762882 71.0615C0.962256 71.3589 1.35488 71.9444 1.55425 72.2326C2.07569 75.3443 2.03887 78.551 2.637 81.6688C2.74742 80.8962 2.86398 80.1359 2.9836 79.3756C3.80871 79.3113 4.62768 79.2408 5.45891 79.1825C5.89754 80.0532 6.3423 80.9269 6.74718 81.8374C6.78706 82.8092 6.81773 83.7902 6.8576 84.7743C6.82693 85.0901 6.76864 85.7155 6.7349 86.0312C6.36069 88.4715 6.29629 90.9394 6.30856 93.4042C5.75338 92.7788 5.2074 92.1626 4.65835 91.5433C3.9038 91.6261 3.15844 91.7181 2.41002 91.8192C2.03581 89.7775 1.68308 87.7173 0.787425 85.835C0.60032 80.9085 0.676997 75.9819 0.762882 71.0615Z" fill="#2A687C"/>
<path d="M77.48 72.5605C78.6026 72.4194 79.7406 72.3275 80.8755 72.2324C81.351 72.6769 81.8356 73.1215 82.3264 73.5783C84.7097 73.2625 86.8752 74.8076 89.2677 74.1975C88.5591 75.7242 87.3414 77.2632 87.869 79.0536C84.6606 85.4608 80.6761 91.4205 77.0813 97.6101C76.6887 97.6101 75.8942 97.5978 75.4955 97.5917C76.7531 95.4672 78.0597 93.3672 79.3879 91.2795C79.1425 90.5253 78.9032 89.7773 78.6732 89.0385C78.9186 88.5419 79.164 88.0605 79.4155 87.5762C78.2745 84.9611 78.1211 81.736 75.8329 79.7771C73.9189 78.3209 72.0325 76.8279 69.9805 75.571C72.468 74.547 74.9618 73.517 77.48 72.5635V72.5605Z" fill="#AAEDF9"/>
<path d="M102.681 74.9398C103.776 74.2132 104.994 73.6981 106.347 73.833C106.371 74.1365 106.43 74.7527 106.463 75.0562C106.825 75.1145 107.558 75.2371 107.926 75.2954C107.307 77.3954 106.721 79.5015 106.065 81.5892C105.163 82.233 104.273 82.8891 103.384 83.5482C101.623 83.214 99.8533 83.4777 98.1633 83.9988C97.6418 83.7812 97.1204 83.5666 96.6051 83.3551C96.056 83.9529 95.51 84.5476 94.9671 85.1577C94.7739 84.7837 94.3752 84.0295 94.1758 83.6586C94.5316 82.8278 94.8966 82.0031 95.2463 81.1784C96.2063 79.1183 97.2001 77.0704 98.0682 74.9704C99.6018 74.9306 101.142 74.9367 102.681 74.9459V74.9398Z" fill="#66AFAE"/>
<path d="M6.82786 75.9235C7.62536 75.7763 8.42592 75.6415 9.23262 75.5127C9.77246 76.647 10.3154 77.7935 10.8644 78.9401C11.1681 78.4005 11.484 77.8641 11.7999 77.3368C12.941 83.1217 13.5268 88.9802 13.4747 94.8816C13.2815 95.6297 13.0759 96.3961 12.8612 97.1472C12.6343 95.4151 12.6619 93.6186 12.076 91.9631C11.2448 90.8748 10.3154 89.857 9.58843 88.7043C8.87989 88.2935 8.15293 87.8919 7.42904 87.5117C7.24807 86.5828 7.04257 85.6877 6.8616 84.7741C6.82173 83.79 6.79106 82.809 6.75118 81.8372C6.72664 79.8598 6.79719 77.8886 6.82786 75.9235Z" fill="#2DBBBB"/>
<path d="M49.565 81.1721C52.5556 79.5811 55.2303 77.3922 58.5215 76.4111C57.3621 77.4167 56.2272 78.5357 55.8223 80.0685C55.3132 80.3597 54.8101 80.6479 54.3071 80.9453C52.16 81.9631 50.0466 83.0453 47.921 84.109C47.4057 82.7632 48.7859 81.9845 49.565 81.1721Z" fill="#B4FFF1"/>
<path d="M55.8201 80.0714C58.1666 78.7838 60.5744 77.6188 62.8043 76.1289L61.927 77.0241C62.2675 77.3797 62.6295 77.7323 62.9914 78.094C63.3534 77.8672 64.068 77.4257 64.4269 77.1989C64.1754 77.72 63.93 78.2565 63.7 78.7961C63.2031 79.9242 62.8871 81.126 62.7062 82.3584C61.7584 82.9439 60.8259 83.5448 59.8658 84.1027C57.0685 85.5528 54.0993 86.635 51.3326 88.1464C51.2283 87.8643 51.0167 87.2819 50.9062 86.9937C52.8724 85.4271 55.952 84.2836 56.3384 81.5184L56.3722 81.3375C56.3078 81.4142 56.1851 81.5644 56.1207 81.641C55.2956 82.1438 54.4459 82.6006 53.5871 83.039L53.9214 82.1745C54.2772 81.7943 54.63 81.4264 54.9919 81.0677L54.3018 80.9451C54.8048 80.6477 55.3078 80.3596 55.817 80.0683L55.8201 80.0714ZM61.0345 77.8242C60.0499 79.3172 58.2003 79.7433 57.001 81.0003C58.6174 80.2461 60.1327 79.3203 61.7308 78.5324C61.4915 78.281 61.2676 78.048 61.0345 77.8242Z" fill="#289BB3"/>
<path d="M36.3058 80.112C37.4989 79.5326 38.64 78.8306 39.9466 78.5332C39.3976 80.529 38.2504 82.54 38.6522 84.6768C38.6001 84.7933 38.505 85.0324 38.459 85.1459C37.4652 85.3972 37.41 85.7713 38.278 86.274C37.8333 87.4022 37.4406 88.5733 37.3302 89.7904C37.183 91.0136 37.3548 92.2583 37.9989 93.3312C35.453 93.4355 32.7416 93.4661 30.8858 95.5324C32.8121 98.0064 32.9471 101.682 31.0147 104.196C30.3245 104.144 29.6436 104.113 28.9596 104.098C28.1927 101.74 27.7879 99.1008 25.9812 97.2584C23.6347 94.9714 23.0888 91.6298 21.7852 88.7572C21.8741 88.5396 22.0551 88.095 22.1471 87.8743C23.6685 87.3256 25.1316 86.6388 26.5088 85.8019C26.5272 85.3574 26.5487 84.9251 26.5793 84.4959C26.8063 84.3549 27.2572 84.0698 27.4811 83.9288C28.159 83.4965 28.8522 83.1102 29.5638 82.724C29.6344 82.3499 29.7111 81.9821 29.7908 81.6234C30.6282 80.8876 31.4717 80.1672 32.3183 79.4468C33.6403 79.692 34.9531 80.1151 36.3058 80.109V80.112Z" fill="#2BB0B1"/>
<path d="M62.7081 82.3592C62.8891 81.1299 63.205 79.925 63.7019 78.7969C64.0577 82.5462 64.0823 86.3078 64.1712 90.0755C64.1314 98.0371 64.6467 105.989 64.8215 113.951C64.846 116.462 64.797 118.982 64.8031 121.505C64.797 122.348 64.797 123.2 64.8031 124.062C64.8491 127.409 64.7142 130.766 64.3767 134.102L64.0669 133.4C64.1314 130.766 64.1958 128.133 64.1774 125.496C64.1528 123.301 64.1314 121.103 64.0669 118.914C63.9903 117.394 63.7694 115.901 63.5578 114.405C62.0885 104.172 62.8308 93.8217 62.6161 83.5303C62.6345 83.2329 62.6805 82.6474 62.7051 82.3592H62.7081Z" fill="#CCF3F8"/>
<path d="M92.8327 80.9272C93.5412 80.5869 94.262 80.2711 94.9798 79.9492C95.0442 80.2527 95.1792 80.8689 95.2436 81.1724C94.897 81.9971 94.5289 82.8217 94.1731 83.6525C93.1026 86.1327 91.9554 88.5791 90.8359 91.0347C90.2439 90.9305 89.0568 90.7251 88.4648 90.6239C89.9279 87.3896 91.4279 84.1829 92.8327 80.9302V80.9272Z" fill="#3D597A"/>
<path d="M41.5781 87.0861C42.8603 84.3607 45.5411 82.8095 47.8109 81.0068C48.2495 81.0528 49.1267 81.1356 49.5623 81.1755C48.7832 81.9879 47.4029 82.7665 47.9182 84.1124C45.8294 85.1547 43.6976 86.1142 41.5781 87.0891V87.0861Z" fill="#6FFAF4"/>
<path d="M47.9194 84.1091C50.0451 83.0453 52.1584 81.9631 54.3056 80.9453L54.9957 81.0679C54.6338 81.4297 54.281 81.7945 53.9252 82.1747C51.3211 83.9834 48.2108 84.9246 45.6895 86.8713C48.4746 85.9178 50.953 84.3145 53.5909 83.0392C54.4466 82.6008 55.2994 82.144 56.1245 81.6412L56.3422 81.5186C55.9558 84.2808 52.8762 85.4273 50.9101 86.9939C51.0205 87.2851 51.2321 87.8645 51.3364 88.1466C47.263 89.4924 43.7264 92.0032 39.9322 93.9438C39.1071 92.6164 39.4568 91.1172 39.9506 89.7499C42.11 88.7965 44.4626 88.0945 46.1895 86.4022C43.1989 87.1564 40.5886 88.8701 37.6562 89.7837C38.4353 88.2845 40.196 87.8462 41.5793 87.0859C43.6988 86.1141 45.8337 85.1545 47.9194 84.1091Z" fill="#277F99"/>
<path d="M56.125 81.6444C56.1894 81.5677 56.3121 81.4175 56.3765 81.3408L56.3428 81.5217L56.125 81.6444Z" fill="#9CE8F5"/>
<path d="M59.8654 84.1028C60.8254 83.5417 61.761 82.9439 62.7057 82.3584C62.6812 82.6496 62.6351 83.2352 62.6167 83.5295C62.4358 85.4179 62.172 87.3034 61.9143 89.1918C60.2457 92.8246 60.4206 96.997 58.62 100.599C57.8287 103.073 55.4638 104.554 54.5405 106.948C53.8075 108.616 53.1235 110.305 52.375 111.973C51.6972 111.734 51.0162 111.522 50.3322 111.329C49.0163 109.177 47.7986 106.97 46.5625 104.778C48.3354 103.07 48.3139 100.268 50.2617 98.7046C52.2155 96.9663 54.4577 95.4396 55.611 93.0116C57.0987 90.0808 59.6261 87.5118 59.8654 84.1058V84.1028Z" fill="#4CF7FB"/>
<path d="M96.6044 83.3489C97.1197 83.5604 97.6411 83.775 98.1626 83.9927C99.8496 83.4715 101.622 83.2079 103.383 83.5421C104.174 83.9038 105.607 83.6586 105.877 84.7407C105.315 85.8689 104.116 86.8285 104.42 88.2172C104.567 89.4527 104.975 90.7035 104.748 91.9604C103.892 93.6741 102.969 95.3603 102.119 97.0862C100.34 100.725 96.3835 102.381 93.8254 105.354C92.3623 107.114 90.3011 108.138 88.0957 108.632C87.0651 107.169 86.7798 105.431 87.4454 103.769C86.8902 103.279 86.3381 102.798 85.7891 102.325C87.6509 98.6405 89.1846 94.8084 90.8348 91.0285C91.9574 88.5759 93.1015 86.1264 94.172 83.6463C94.3714 84.0203 94.7701 84.7744 94.9634 85.1454C95.5032 84.5323 96.0522 83.9406 96.6013 83.3428L96.6044 83.3489Z" fill="#7399A1"/>
<path d="M61.9163 89.1926C62.174 87.3042 62.4377 85.4187 62.6187 83.5303C62.8304 93.8218 62.0911 104.172 63.5604 114.405C63.496 114.831 63.361 115.686 63.2904 116.118C61.9439 114.438 60.2937 112.924 59.4962 110.895C58.9288 104.828 62.6739 99.3584 62.1954 93.3067C62.1709 91.9272 62.0267 90.5568 61.9194 89.1926H61.9163Z" fill="#91FEFE"/>
<path d="M51.3349 88.1501C54.0986 86.6356 57.0708 85.5534 59.8682 84.1064C59.6289 87.5124 57.1045 90.0845 55.6138 93.0123C54.4605 95.4403 52.2183 96.967 50.2645 98.7052C48.3198 100.272 48.3382 103.071 46.5653 104.778C45.2586 102.491 43.9428 100.204 42.5195 97.9971C43.2864 96.173 43.8599 94.2631 44.82 92.5279C46.9456 90.9951 49.7614 90.4279 51.3349 88.147V88.1501Z" fill="#27E3F1"/>
<path d="M6.86098 84.7744C7.04195 85.688 7.24745 86.5831 7.42842 87.512C7.53271 93.1744 7.60326 98.8857 6.90698 104.514C6.73214 98.3523 6.80883 92.1872 6.73828 86.0313C6.76895 85.7156 6.82724 85.0902 6.86098 84.7744Z" fill="#51B6C5"/>
<path d="M38.2797 86.2737C37.4086 85.7709 37.4669 85.3969 38.4607 85.1455L38.5496 85.7771L38.2797 86.2737Z" fill="#118188"/>
<path d="M115.879 84.9521C116.225 85.8872 116.633 86.8007 117.014 87.7419C117.044 87.9534 117.118 88.3796 117.155 88.5911C116.903 92.6991 117.13 96.8163 117.072 100.924C116.768 100.854 116.158 100.707 115.854 100.627C115.262 101.755 114.688 102.893 114.158 104.054C113.759 103.018 113.25 102.046 112.541 101.2C112.367 97.5153 112.566 93.8334 112.689 90.1546C112.906 89.1766 113.179 88.2171 113.455 87.2698C114.363 86.6076 115.265 85.9056 115.879 84.9521Z" fill="#525467"/>
<path d="M104.42 88.2205C106.38 87.2426 108.454 86.5191 110.521 85.7803C111.199 86.1911 111.874 86.5988 112.558 87.0157C112.589 88.058 112.656 89.1034 112.687 90.158C112.564 93.8368 112.365 97.5187 112.539 101.204C112.493 103.549 112.411 105.891 112.45 108.242C112.104 106.863 111.653 105.517 111.227 104.177C109.705 106.25 106.445 106.792 105.883 109.542C105.702 111.976 105.472 114.604 103.653 116.44C103.42 115.686 103.614 114.65 103.003 114.116C102.255 114.677 102.301 115.778 101.902 116.569C101.638 116.691 101.111 116.937 100.844 117.059C100.644 117.148 100.252 117.323 100.052 117.415C99.2795 116.667 98.3563 115.612 97.1662 116.204C93.9302 117.725 90.9549 119.837 88.4857 122.44C86.3325 122.85 84.0013 123.592 81.9002 122.581C80.6304 120.913 79.566 119.089 78.0078 117.666C78.4832 116.731 78.9679 115.793 79.4648 114.871C81.7591 110.787 83.7375 106.538 85.7926 102.332C86.3416 102.801 86.8938 103.285 87.4489 103.776C86.7864 105.437 87.0686 107.176 88.0992 108.638C90.3015 108.141 92.3658 107.117 93.8289 105.361C96.3871 102.384 100.344 100.732 102.123 97.0926C102.973 95.3666 103.896 93.6805 104.752 91.9668C104.979 90.7099 104.571 89.4621 104.423 88.2236L104.42 88.2205Z" fill="#70808E"/>
<path d="M0.789834 85.835C1.68549 87.7142 2.0413 89.7774 2.41245 91.8192C3.16087 91.7149 3.90623 91.626 4.66078 91.5433C5.20983 92.1625 5.75579 92.7787 6.31097 93.4041C6.22815 96.7672 6.57476 100.161 6.12387 103.509C5.18834 105.017 3.75285 106.111 2.48299 107.328C2.10878 105.673 1.51065 104.082 0.697819 102.601C0.568992 97.0094 0.633418 91.4206 0.786783 85.838L0.789834 85.835Z" fill="#2B5D74"/>
<path d="M6.31064 93.4042C6.29837 90.9364 6.36279 88.4715 6.737 86.0312C6.80755 92.1871 6.73086 98.3522 6.9057 104.514C6.58363 107.289 6.73701 110.091 6.82289 112.88C6.33212 117.93 6.74008 123.025 6.26771 128.08C6.17876 128.834 5.96405 129.555 5.63585 130.251C5.31992 130.192 4.68191 130.076 4.36598 130.018C3.86295 130.907 3.39978 131.826 2.94275 132.749C2.58695 131.848 2.28635 130.94 1.98269 130.03C1.906 131.511 1.60847 132.967 1.0993 134.371L0.83552 133.669C0.887664 123.307 0.590135 112.957 0.700558 102.601C1.51339 104.082 2.11152 105.673 2.48573 107.329C3.75559 106.111 5.19108 105.017 6.12661 103.509C6.5775 100.161 6.23089 96.7642 6.31371 93.4042H6.31064Z" fill="#264964"/>
<path d="M14.4576 89.4741C16.1661 89.4158 17.2274 88.1803 17.8224 86.6904C17.8286 89.4005 17.9973 92.1197 17.7642 94.8298C17.074 96.7888 17.6875 99.7104 15.2582 100.492C14.5159 96.8654 14.2337 93.1621 14.4576 89.471V89.4741Z" fill="#116E7F"/>
<path d="M7.42598 87.5117C8.14679 87.8919 8.87682 88.2904 9.58537 88.7043C10.3123 89.857 11.2417 90.8748 12.0729 91.9631C12.6588 93.6186 12.6343 95.4151 12.8582 97.1472C13.0698 96.393 13.2784 95.6266 13.4716 94.8816L13.6127 94.3145C13.9041 97.9013 13.7416 101.504 13.5729 105.096C13.3336 109.992 13.5146 114.885 13.4624 119.787L12.7293 119.266C11.9104 115.351 13.1404 111.111 11.0914 107.46C9.93196 106.461 8.90748 105.329 7.84927 104.232C7.5272 107.117 7.56708 110.054 6.81866 112.88C6.73584 110.09 6.57941 107.288 6.90148 104.514C7.59776 98.8854 7.52719 93.171 7.42291 87.5117H7.42598Z" fill="#369EA6"/>
<path d="M39.9289 93.9437C43.7231 92.0062 47.2628 89.4923 51.3331 88.1465C49.7595 90.4273 46.9438 90.9945 44.8181 92.5274C43.8581 94.2595 43.2845 96.1724 42.5177 97.9965C41.6527 96.6445 40.757 95.311 39.9258 93.9468L39.9289 93.9437Z" fill="#1AC6DD"/>
<path d="M123.275 89.79C123.487 89.1708 123.701 88.5545 123.907 87.9414C124.048 88.9132 124.204 89.8943 124.352 90.8784C124.293 94.922 123.867 98.9687 123.983 103.018C121.928 103.141 119.879 103.245 117.824 103.276C117.631 103.025 117.238 102.522 117.045 102.27C117.051 101.936 117.064 101.259 117.07 100.925C117.128 96.8165 116.901 92.6993 117.153 88.5913C117.508 90.3357 117.751 92.1077 117.867 93.898C118.248 92.4541 118.659 91.0255 119.091 89.603C120.063 89.2811 121.045 88.9654 122.023 88.6557C122.434 89.0297 122.849 89.4037 123.275 89.79Z" fill="#8B959C"/>
<path d="M58.6239 100.597C60.4214 96.9977 60.2465 92.8223 61.9182 89.1895C62.0286 90.5537 62.1697 91.9271 62.1943 93.3036C62.6697 99.3583 58.9276 104.824 59.495 110.891C60.2925 112.921 61.9427 114.432 63.2893 116.115L63.231 116.618C59.2159 116.22 55.621 114.248 52.3789 111.967C53.1273 110.3 53.8083 108.61 54.5444 106.943C55.4646 104.545 57.8295 103.065 58.6239 100.594V100.597Z" fill="#76FBFB"/>
<path d="M38.0043 93.3337C37.3601 92.2576 37.1853 91.016 37.3356 89.7928L38.2067 90.4366C38.6454 90.268 39.5134 89.9277 39.952 89.7529C39.4551 91.1172 39.1085 92.6194 39.9336 93.9468C40.7649 95.311 41.6605 96.6446 42.5255 97.9965C43.9487 100.207 45.2646 102.491 46.5712 104.778C47.8074 106.967 49.0251 109.177 50.341 111.329C51.7335 113.674 53.1751 115.986 54.6076 118.31C56.1228 120.891 57.8497 123.347 59.5122 125.845C58.6687 126.127 57.8037 126.443 57.4233 127.332C56.2884 125.425 55.0707 123.577 53.807 121.768C50.0894 116.145 48.2 109.53 44.2585 104.036C42.3138 100.385 40.1483 96.8684 38.0073 93.3306L38.0043 93.3337Z" fill="#274461"/>
<path d="M88.4649 90.6211C89.0569 90.7253 90.244 90.9308 90.8359 91.0319C89.1857 94.8119 87.6521 98.644 85.7902 102.329C83.7351 106.535 81.7567 110.784 79.4624 114.868C77.7355 115.085 76.5822 116.594 75.0547 117.289L75.4166 116.621C75.6988 116.094 75.9718 115.563 76.2356 115.036L76.3399 114.825C76.4687 114.561 76.7325 114.034 76.8675 113.767L76.9717 113.549C77.0484 113.414 77.1987 113.138 77.2754 112.994C81.4899 105.787 84.8915 98.1504 88.468 90.6211H88.4649Z" fill="#4D4468"/>
<path d="M30.8906 95.5351C32.7463 93.4689 35.4578 93.4352 38.0037 93.334C40.1416 96.8687 42.3071 100.385 44.2548 104.039C44.4726 106.234 45.0401 108.374 45.6903 110.486C46.2946 111.82 45.3621 113.282 44.2211 113.972C42.5709 114.499 40.7796 114.224 39.111 114.668C37.6418 115.183 36.378 116.82 34.737 115.833C34.6021 113.767 34.4456 111.697 34.1512 109.643C33.8996 107.479 32.0685 105.998 31.0195 104.202C32.9519 101.691 32.8169 98.0122 30.8906 95.5382V95.5351Z" fill="#479BA4"/>
<path d="M17.7618 94.833C17.82 98.2206 20.3076 100.597 22.0468 103.245C22.9026 104.475 24.6571 104.239 25.9699 104.456C26.5036 105.339 27.0465 106.228 27.5925 107.123C27.4514 107.375 27.3225 107.638 27.1937 107.914C28.2305 109.95 29.5341 111.915 31.583 113.068C31.5431 113.711 31.5063 114.355 31.4726 115.011C31.6076 115.165 31.8836 115.486 32.0216 115.643L32.5707 116.274C32.583 116.823 32.6044 117.918 32.6167 118.469C32.2057 119.073 31.8039 119.705 31.4051 120.33C32.2701 120.606 33.132 120.864 34.0154 121.143C34.227 121.973 34.4417 122.804 34.635 123.647C34.5307 124.144 34.3313 125.134 34.2301 125.625C33.0185 124.904 31.626 124.331 30.215 124.8C27.4636 123.056 25.3963 120.484 22.8167 118.522C20.2586 116.796 19.0715 113.871 17.9182 111.139C17.8415 105.698 17.4152 100.268 17.7648 94.833H17.7618Z" fill="#27818D"/>
<path d="M68.692 102.877C71.3912 101.801 73.3972 99.5294 75.4891 97.5889C75.8879 97.595 76.6823 97.6073 77.0749 97.6073C74.7161 101.544 71.7777 105.756 67.235 107.261C64.6769 107.43 64.7352 104.156 64.7597 102.393C66.0112 102.831 67.3577 103.487 68.692 102.877Z" fill="#91CFEE"/>
<path d="M115.851 100.63C116.154 100.707 116.765 100.857 117.068 100.927C117.062 101.261 117.05 101.939 117.044 102.273C116.915 108.242 117.237 114.22 116.992 120.198L116.424 120.474C115.535 119.668 114.697 118.819 113.848 117.982C113.25 118.659 112.661 119.352 112.075 120.048C111.783 120.37 111.219 121.026 110.934 121.348C110.05 119.346 111.918 117.715 112.314 115.842C112.437 113.303 112.507 110.774 112.449 108.242C112.409 105.891 112.495 103.545 112.538 101.203C113.247 102.046 113.756 103.018 114.154 104.057C114.682 102.899 115.256 101.758 115.851 100.63Z" fill="#59445A"/>
<path d="M117.044 102.273C117.238 102.525 117.63 103.028 117.823 103.279C119.879 103.248 121.927 103.144 123.983 103.021C124.053 104.327 124.188 105.636 124.28 106.958C124.256 112.727 123.983 118.494 123.881 124.27C123.133 123.85 122.394 123.445 121.658 123.046C120.523 124.116 119.369 125.171 118.293 126.299C118.164 125.122 118.066 123.942 118.011 122.771C118.486 122.203 118.977 121.649 119.467 121.097C118.636 120.793 117.811 120.493 116.992 120.202C117.238 114.223 116.915 108.248 117.044 102.277V102.273Z" fill="#887484"/>
<path d="M78.2338 105.591C79.5098 104.748 80.7398 103.84 81.9698 102.93C80.6294 106.394 78.4455 109.472 77.2707 112.997C77.194 113.138 77.0437 113.417 76.967 113.552C76.9026 113.604 76.7677 113.715 76.6971 113.764L76.8658 113.77C76.7309 114.034 76.4671 114.561 76.3382 114.828C76.2738 114.88 76.1389 114.99 76.0744 115.039H76.237C75.9732 115.566 75.7033 116.097 75.4181 116.624C74.8383 117.338 74.2525 118.053 73.7096 118.807C71.5962 119.264 70.2221 120.983 68.4001 121.971C67.1824 122.041 65.9892 121.695 64.8052 121.508C64.7991 118.982 64.8512 116.465 64.8236 113.954C66.0935 114.03 67.575 114.849 68.716 113.972C70.4429 112.679 72.1115 111.299 73.82 109.978C75.4763 108.702 76.4671 106.737 78.2338 105.591Z" fill="#867FBC"/>
<path d="M7.85213 104.229C8.91035 105.324 9.93483 106.458 11.0943 107.458C13.1432 111.109 11.9132 115.349 12.7322 119.264L13.4653 119.785C13.5757 119.868 13.7935 120.03 13.9039 120.107C12.9438 120.41 11.9961 120.726 11.0421 121.036L10.4164 121.21C13.7015 125.628 17.8914 129.294 21.9586 132.97C24.7161 135.38 27.2283 138.065 30.1177 140.325C31.3753 141.447 32.5991 142.612 33.8628 143.737C35.7891 145.598 37.8319 147.342 39.7919 149.178C39.7091 149.577 39.5465 150.383 39.4698 150.782C38.5098 150.098 37.5896 149.384 36.6939 148.645C32.3445 148.47 29.6115 144.66 25.7406 143.262C22.5966 142.14 20.1796 139.791 17.3945 138.065C16.2657 137.48 15.9191 136.177 15.3578 135.153C14.364 135.481 13.3917 135.889 12.4776 136.41C10.2232 134.328 7.79387 132.443 5.64062 130.254C5.96883 129.558 6.18047 128.838 6.27249 128.084C6.74178 123.028 6.3369 117.933 6.82767 112.884C7.57609 110.057 7.53621 107.12 7.85828 104.236L7.85213 104.229Z" fill="#2F7789"/>
<path d="M25.9727 104.456C26.9665 104.327 27.9633 104.205 28.9633 104.101C29.6473 104.113 30.3282 104.147 31.0184 104.199C32.0674 105.995 33.8985 107.476 34.1501 109.64C34.4476 111.694 34.601 113.764 34.7359 115.83C33.8587 115.496 32.9323 115.496 32.0244 115.643C31.8895 115.49 31.6134 115.168 31.4754 115.011C31.5091 114.355 31.5459 113.711 31.5858 113.068C29.5369 111.915 28.2363 109.95 27.1965 107.914C27.3253 107.638 27.4542 107.375 27.5953 107.123C27.0462 106.228 26.5064 105.339 25.9727 104.456Z" fill="#36929C"/>
<path d="M44.255 104.036C48.1995 109.53 50.0859 116.146 53.8035 121.768C52.3802 123.77 50.8251 125.787 48.6167 126.992C46.6076 127.636 44.4543 128.629 44.3961 131.075C43.5894 130.606 42.7919 130.147 41.9913 129.696C41.7735 129.736 41.341 129.818 41.1202 129.858C40.2706 127.997 39.3412 126.173 38.3688 124.377C37.8658 125.33 37.3689 126.296 36.8812 127.268C35.9917 126.713 35.1144 126.155 34.2249 125.625C34.3292 125.134 34.5286 124.144 34.6298 123.647C34.7065 122.495 34.32 121.373 34.1544 120.26C34.6175 119.996 35.5592 119.475 36.0224 119.217C35.0807 117.994 33.5348 117.473 32.5686 116.274L32.0195 115.643C32.9275 115.496 33.8568 115.496 34.731 115.83C36.3751 116.814 37.6357 115.18 39.105 114.665C40.7736 114.22 42.5649 114.496 44.2151 113.969C45.3561 113.279 46.2886 111.817 45.6843 110.483C45.0341 108.371 44.4666 106.231 44.2488 104.036H44.255Z" fill="#4A828E"/>
<path d="M105.881 109.543C106.442 106.793 109.703 106.25 111.224 104.178C111.651 105.517 112.101 106.863 112.448 108.243C112.506 110.775 112.436 113.304 112.313 115.843C111.114 115.809 109.908 115.72 108.724 115.882C106.721 116.83 105.335 118.651 103.82 120.205C102.725 120.082 101.636 119.96 100.547 119.813C100.863 119.479 101.501 118.795 101.823 118.455C102.185 118.39 102.912 118.261 103.28 118.197C103.369 117.759 103.562 116.882 103.654 116.447C105.47 114.61 105.703 111.983 105.884 109.549L105.881 109.543Z" fill="#6D6676"/>
<path d="M124.866 104.224C126.219 105.603 127.857 106.639 129.255 107.967C129.565 108.792 129.66 109.681 129.841 110.557C130.415 110.137 130.994 109.727 131.586 109.328C131.497 115.493 131.611 121.661 131.399 127.826C130.731 126.499 130.415 125.052 130.228 123.596C128.893 125.591 128.402 127.967 127.464 130.153C126.93 129.703 126.393 129.264 125.866 128.826C125.544 129.077 124.887 129.574 124.559 129.819C123.851 128.053 123.838 126.14 123.881 124.273C123.986 118.497 124.255 112.731 124.28 106.961C124.449 106.042 124.66 105.131 124.866 104.23V104.224Z" fill="#864960"/>
<path d="M17.9187 111.143C19.072 113.874 20.259 116.799 22.8172 118.525C25.3937 120.49 27.4641 123.059 30.2155 124.803C28.2064 125.324 26.4857 126.535 24.8078 127.722C22.2559 125.254 19.48 122.994 17.293 120.18C18.0537 117.219 17.6028 114.147 17.9187 111.146V111.143Z" fill="#206A77"/>
<path d="M50.3359 111.326C51.0199 111.519 51.7009 111.731 52.3787 111.97C55.6209 114.251 59.2158 116.222 63.2309 116.621L63.2891 116.118C63.3597 115.686 63.4946 114.83 63.5591 114.404C63.7707 115.897 63.9916 117.393 64.0682 118.914C63.648 119.505 63.237 120.106 62.826 120.71C61.3445 120.493 59.7587 120.459 58.4581 119.634C57.2159 119.055 56.1055 117.691 54.6056 118.307C53.1763 115.983 51.7316 113.668 50.339 111.326H50.3359Z" fill="#71DAF1"/>
<path d="M76.6984 113.763C76.7689 113.711 76.9039 113.601 76.9683 113.552L76.864 113.769L76.6953 113.763H76.6984Z" fill="#D2D4E8"/>
<path d="M76.0734 115.039C76.1378 114.987 76.2728 114.876 76.3372 114.827L76.2329 115.039H76.0703H76.0734Z" fill="#CACDE0"/>
<path d="M75.0548 117.292C76.5823 116.596 77.7356 115.091 79.4625 114.87C78.9656 115.79 78.4841 116.731 78.0056 117.666C75.4229 122.703 73.0059 127.841 69.8926 132.584C69.319 133.454 68.7577 134.334 68.1963 135.217C67.6994 134.69 67.2025 134.159 66.7148 133.644C67.6749 131.468 68.7975 129.368 69.9355 127.295C70.5275 126.189 71.0704 125.06 71.552 123.914C72.6807 121.685 73.8187 119.462 75.0518 117.292H75.0548Z" fill="#442D53"/>
<path d="M97.1659 116.203C98.3591 115.612 99.2792 116.666 100.052 117.414C100.252 117.325 100.644 117.151 100.844 117.059C101.089 117.405 101.577 118.101 101.822 118.451C101.5 118.791 100.862 119.475 100.546 119.809C97.9634 122.727 95.4175 125.67 92.9177 128.65C91.0803 130.833 88.9547 132.887 86.1849 133.81C85.1083 132.154 84.1667 130.404 82.7895 128.978C82.5962 130.119 82.4735 131.283 82.3968 132.448C80.7006 133.221 79.032 134.04 77.4033 134.947C76.3266 135.186 75.2132 135.824 74.1029 135.444C72.5293 134.76 71.2472 133.589 69.8945 132.577C73.0078 127.838 75.4249 122.697 78.0075 117.66C79.5657 119.082 80.6301 120.906 81.8999 122.574C84.001 123.586 86.3322 122.844 88.4854 122.433C90.9546 119.83 93.9299 117.718 97.1659 116.197V116.203Z" fill="#626E7F"/>
<path d="M103.822 120.201C105.337 118.65 106.721 116.826 108.727 115.879C109.914 115.716 111.116 115.808 112.316 115.839C111.923 117.712 110.055 119.343 110.935 121.345C107.405 125.281 102.991 128.347 99.574 132.384L99.2918 132.409C98.4268 132.486 97.5772 132.642 96.7337 132.801C95.562 131.321 94.2798 129.941 92.918 128.647C95.4178 125.664 97.9637 122.721 100.546 119.806C101.635 119.953 102.724 120.076 103.819 120.198L103.822 120.201Z" fill="#535768"/>
<path d="M54.6046 118.31C56.1045 117.691 57.2149 119.058 58.4571 119.637C59.7577 120.462 61.3435 120.493 62.825 120.713C63.236 120.109 63.6501 119.509 64.0672 118.917C64.1317 121.106 64.1501 123.304 64.1777 125.499C63.1532 125.962 62.1103 126.394 61.0582 126.799C61.414 127.525 61.779 128.261 62.0766 129.034L61.8894 129.788C61.0981 128.46 60.3435 127.127 59.5062 125.845C57.8437 123.347 56.1168 120.891 54.6016 118.31H54.6046Z" fill="#669BCD"/>
<path d="M14.8438 118.031C15.7333 118.651 16.5829 119.337 17.2915 120.177C19.4754 122.992 22.2544 125.251 24.8063 127.719C29.2263 131.867 33.3764 136.336 38.2534 139.969C41.3851 142.848 44.4064 145.855 47.6945 148.581C43.9831 148.155 42.1212 144.516 39.4772 142.345C38.8638 142.621 38.2656 142.906 37.6675 143.194C37.4743 141.83 36.3731 141.005 35.4008 140.187C33.7843 138.866 32.3918 137.192 30.3735 136.471C29.0852 135.447 27.8982 134.307 26.7449 133.142C24.5272 130.913 22.1899 128.813 19.9079 126.649C18.6196 125.413 17.4203 124.08 16.3835 122.624C15.6995 121.149 15.2057 119.604 14.8438 118.031Z" fill="#509095"/>
<path d="M112.074 120.049C112.66 119.353 113.246 118.657 113.847 117.982C114.697 118.819 115.534 119.669 116.424 120.475C115.295 121.33 114.264 122.305 113.267 123.308C112.869 122.213 112.467 121.125 112.074 120.049Z" fill="#777386"/>
<path d="M68.3994 121.967C70.2245 120.983 71.5956 119.264 73.7089 118.804C72.8378 120.435 72.0648 122.127 71.5557 123.911C71.071 125.058 70.5312 126.186 69.9392 127.293C68.9209 127.152 67.9086 127.029 66.8903 126.919C66.1818 125.971 65.4855 125.012 64.8015 124.058C64.7953 123.194 64.7953 122.345 64.8015 121.501C65.9885 121.688 67.1786 122.035 68.3964 121.964L68.3994 121.967Z" fill="#7262A2"/>
<path d="M11.0391 121.032C11.993 120.723 12.9408 120.407 13.9008 120.104C14.8088 120.858 15.6339 121.707 16.3823 122.62C17.419 124.077 18.6183 125.41 19.9066 126.646C19.0999 126.793 18.3208 127.072 17.5019 127.084C15.091 125.352 13.1003 123.135 11.0391 121.029V121.032Z" fill="#5CB1B1"/>
<path d="M112.074 120.048C112.467 121.124 112.866 122.212 113.267 123.307C112.912 123.662 112.559 124.021 112.218 124.395C106.522 129.971 100.863 135.594 94.9679 140.959C95.6826 139.337 96.2837 137.666 96.9125 136.02C95.5476 137.335 94.1428 138.724 92.2227 139.162C93.6029 137.565 95.0722 136.045 96.8052 134.834C98.3848 135.447 99.4523 133.751 99.575 132.387C102.989 128.35 107.406 125.284 110.936 121.348C111.218 121.026 111.786 120.37 112.077 120.048H112.074Z" fill="#758F9B"/>
<path d="M116.425 120.474L116.993 120.198C117.811 120.489 118.637 120.79 119.468 121.093C118.977 121.648 118.489 122.2 118.011 122.767C116.131 124.904 114.137 126.946 112.152 128.997C111.812 128.893 111.122 128.693 110.781 128.598C111.444 127.283 112.876 125.983 112.217 124.398C112.557 124.024 112.913 123.662 113.266 123.31C114.266 122.304 115.296 121.333 116.422 120.477L116.425 120.474Z" fill="#B4D2E2"/>
<path d="M10.4141 121.207L11.0398 121.032C13.101 123.138 15.0917 125.355 17.5026 127.087C18.3216 127.075 19.1007 126.796 19.9074 126.649C22.1894 128.813 24.5267 130.913 26.7444 133.142C25.1586 132.909 23.5544 132.86 21.9563 132.967C17.8891 129.288 13.7022 125.625 10.4141 121.207Z" fill="#7ACDCB"/>
<path d="M48.6145 126.992C50.826 125.788 52.3781 123.774 53.8013 121.769C55.065 123.577 56.2827 125.426 57.4176 127.333C57.9974 128.286 58.6415 129.206 59.2856 130.135C57.8287 132.474 55.0251 132.563 52.6235 133.13C52.1081 132.879 51.5928 132.646 51.0775 132.428C50.8904 132.474 50.5162 132.563 50.3291 132.609C48.9427 133.02 47.5011 133.148 46.0625 133.13C47.2342 132.673 49.1942 132.879 49.4457 131.263C49.8506 129.776 49.0347 128.366 48.6145 126.992Z" fill="#4B7383"/>
<path d="M112.153 128.994C114.138 126.946 116.128 124.904 118.012 122.765C118.07 123.936 118.165 125.116 118.294 126.293C117.064 128.148 115.852 130.196 115.748 132.477C116.07 133.7 117.68 133.347 118.647 133.547C118.389 134.166 118.137 134.782 117.88 135.414C116.03 137.121 114.168 138.801 112.294 140.469C112.592 138.452 111.328 136.934 109.871 135.742C111.334 134.298 113.681 131.49 111.399 129.773C111.586 129.58 111.966 129.187 112.153 128.994Z" fill="#686284"/>
<path d="M121.658 123.043C122.392 123.442 123.134 123.849 123.882 124.266C123.836 126.133 123.852 128.046 124.56 129.812C122.312 131.654 120.159 133.61 117.886 135.416C118.143 134.785 118.395 134.165 118.652 133.549C117.686 133.35 116.076 133.702 115.754 132.479C115.858 130.198 117.07 128.15 118.3 126.296C119.376 125.167 120.53 124.113 121.665 123.043H121.658Z" fill="#755D7A"/>
<path d="M127.462 130.146C128.404 127.964 128.891 125.588 130.226 123.589C130.413 125.045 130.729 126.492 131.397 127.82C131.468 129.693 131.351 131.587 130.894 133.424C130.256 134.021 129.637 134.647 129.014 135.266C128.272 134.107 127.532 132.967 126.766 131.839C127.005 131.271 127.235 130.704 127.462 130.143V130.146Z" fill="#9E5365"/>
<path d="M30.2123 124.8C31.6233 124.331 33.0158 124.904 34.2274 125.625C35.1169 126.152 35.9942 126.713 36.8837 127.268C37.3745 126.296 37.8683 125.33 38.3713 124.377C39.3437 126.173 40.2731 127.998 41.1227 129.858C40.316 131.545 39.9878 133.387 40.1228 135.257C39.9479 135.128 39.6136 134.871 39.4388 134.742C38.7425 135.42 38.0401 136.106 37.5186 136.937C37.5493 137.979 37.9511 138.967 38.2517 139.969C33.3747 136.336 29.2247 131.866 24.8047 127.719C26.4794 126.532 28.2002 125.321 30.2123 124.8Z" fill="#306779"/>
<path d="M64.803 124.062C65.487 125.015 66.1833 125.974 66.8919 126.922C67.9102 127.032 68.9224 127.155 69.9408 127.296C68.7997 129.368 67.6802 131.468 66.7201 133.645C66.2876 134.47 65.7662 135.254 65.2386 136.027C64.9411 135.383 64.6527 134.739 64.3828 134.102C64.7171 130.766 64.8521 127.409 64.8092 124.062H64.803Z" fill="#625390"/>
<path d="M94.9669 140.959C100.862 135.594 106.521 129.972 112.217 124.396C112.874 125.98 111.444 127.28 110.782 128.595C111.122 128.694 111.812 128.893 112.153 128.994C111.966 129.187 111.585 129.58 111.398 129.773C104.457 137.14 96.841 143.82 89.4642 150.736C88.9795 150.343 88.4857 149.976 87.9765 149.641C86.7833 150.202 85.7067 151.251 84.2773 150.904C87.7495 147.492 91.3659 144.234 94.9669 140.959Z" fill="#E8F3E9"/>
<path d="M61.0586 126.799C62.1076 126.394 63.1536 125.962 64.178 125.499C64.1964 128.132 64.132 130.766 64.0676 133.402C63.3069 132.231 62.4235 131.014 61.8898 129.788L62.0769 129.034C61.7794 128.261 61.4144 127.525 61.0586 126.799Z" fill="#465D97"/>
<path d="M57.418 127.333C57.7983 126.444 58.6602 126.128 59.5068 125.846C60.3442 127.127 61.0987 128.461 61.8901 129.788C62.4238 131.011 63.3072 132.228 64.0679 133.403L64.3777 134.105C64.6476 134.742 64.939 135.386 65.2334 136.03C65.761 135.257 66.2825 134.473 66.7149 133.648C67.2057 134.163 67.6995 134.69 68.1964 135.221C67.4296 136.419 66.6106 137.584 65.761 138.731C63.6476 135.84 61.2183 133.173 59.2859 130.138C58.6418 129.209 57.9977 128.289 57.418 127.336V127.333Z" fill="#313657"/>
<path d="M44.3959 131.076C44.4542 128.629 46.6075 127.636 48.6165 126.992C49.0368 128.363 49.8527 129.776 49.4478 131.263C49.1963 132.878 47.2363 132.673 46.0646 133.13C47.5 133.148 48.9447 133.019 50.3312 132.609C50.8158 133.761 51.3096 134.926 51.8249 136.079C50.5183 137.894 48.4018 139.279 46.083 138.991C43.7579 138.406 41.9789 136.674 40.1232 135.257C39.9882 133.39 40.3164 131.548 41.1231 129.859C41.3409 129.819 41.7734 129.736 41.9942 129.696C42.7948 130.147 43.5923 130.604 44.399 131.076H44.3959Z" fill="#396678"/>
<path d="M86.1848 133.81C88.9545 132.89 91.0832 130.833 92.9175 128.65C94.2763 129.944 95.5584 131.324 96.7332 132.804C97.5767 132.642 98.4294 132.489 99.2913 132.412C98.3374 133.08 97.5583 133.951 96.8037 134.834C95.0707 136.045 93.6015 137.565 92.2212 139.163C89.4453 141.532 86.9639 144.224 84.2309 146.64C83.4395 145.757 82.7801 144.598 81.5501 144.307C79.4122 143.574 77.3755 142.605 75.3756 141.569C75.5044 142.627 75.6394 143.688 75.7805 144.757C74.9032 145.794 74.0413 146.845 73.1058 147.829C72.8144 146.695 72.5261 145.561 72.2163 144.448C71.4433 143.721 70.701 142.973 70.0508 142.142C71.7255 141.738 73.4003 141.306 75.0719 140.873C75.9737 140.821 76.67 139.926 76.3786 139.043C76.624 138.979 77.1056 138.85 77.3509 138.786C78.2067 139.224 79.1024 140.009 80.1361 139.576C82.1451 138.945 84.2156 139.442 86.2001 139.938C84.4088 138.323 82.0439 136.704 82.5408 133.954C80.8783 134.503 79.1514 134.831 77.4 134.947C79.0318 134.04 80.7004 133.221 82.3936 132.449C82.4703 131.284 82.593 130.119 82.7862 128.978C84.1665 130.401 85.1051 132.154 86.1817 133.81H86.1848Z" fill="#495366"/>
<path d="M124.557 129.813C124.885 129.567 125.542 129.071 125.864 128.819C126.391 129.258 126.928 129.696 127.462 130.147C127.235 130.708 127.005 131.275 126.766 131.842C124.612 134.423 122.165 136.756 119.671 139.01C118.717 139.807 117.726 140.561 116.778 141.361C114.073 141.401 112.693 144.252 110.546 145.497C107.782 147.21 105.706 149.856 102.801 151.337C104.043 149.411 106.196 148.066 106.647 145.69C108.457 143.875 110.371 142.167 112.291 140.472C114.165 138.804 116.027 137.124 117.877 135.417C120.152 133.614 122.303 131.655 124.551 129.813H124.557Z" fill="#421A42"/>
<path d="M1.09766 134.371C1.60683 132.967 1.90436 131.511 1.98104 130.03C2.2847 130.938 2.5853 131.845 2.94111 132.75C5.37654 135.867 8.73524 138.05 11.5817 140.754C14.6245 143.271 17.3237 146.171 20.3634 148.694C24.4797 152.345 28.5346 156.067 32.6141 159.764C31.9363 160.472 31.2553 161.187 30.5775 161.91C22.1025 154.645 13.8178 147.161 5.51764 139.696C3.89504 138.081 1.87062 136.618 1.09766 134.371Z" fill="#676C8C"/>
<path d="M4.36464 130.018C4.68057 130.076 5.31857 130.192 5.6345 130.251C7.78775 132.439 10.217 134.328 12.4715 136.406C14.1677 137.979 15.9007 139.506 17.5479 141.121C17.5356 142.023 17.554 142.995 18.2165 143.712C19.4036 145.141 19.6796 147.017 20.3637 148.697C17.3209 146.171 14.6217 143.274 11.582 140.757C8.73246 138.053 5.37684 135.867 2.94141 132.752C3.39843 131.832 3.8616 130.91 4.36464 130.021V130.018Z" fill="#1A1D37"/>
<path d="M59.2867 130.135C61.2191 133.167 63.6484 135.834 65.7618 138.728C66.2955 140.402 68.004 140.776 69.4333 141.395C69.5867 141.582 69.8965 141.962 70.0529 142.149C70.7032 142.98 71.4455 143.728 72.2184 144.455C72.5282 145.567 72.8165 146.702 73.1079 147.836C72.3227 147.796 71.5436 147.713 70.7768 147.667C67.5745 148.884 64.0287 147.462 60.6977 148.094C60.6394 148.409 60.5106 149.041 60.4461 149.357C58.6303 148.538 57.0322 147.284 55.1121 146.711C53.5478 144.54 51.4651 142.867 49.1523 141.557C50.275 140.509 51.4988 139.562 52.5294 138.415C52.9681 136.928 53.1214 135.349 53.6705 133.887C53.057 134.62 52.4405 135.343 51.827 136.082C51.3117 134.929 50.8148 133.765 50.3332 132.612C50.5204 132.566 50.8946 132.477 51.0817 132.431C51.597 132.649 52.1123 132.882 52.6276 133.133C55.0323 132.566 57.8328 132.477 59.2898 130.138L59.2867 130.135Z" fill="#435B6F"/>
<path d="M89.4641 150.736C96.8409 143.819 104.46 137.139 111.398 129.772C113.68 131.492 111.334 134.3 109.871 135.741C111.328 136.934 112.591 138.451 112.294 140.469C110.374 142.164 108.46 143.868 106.65 145.686C104.776 147.207 103.015 148.862 101.258 150.512C99.9236 150.266 98.3715 149.739 97.3133 150.932C94.7306 153.289 90.7922 152.986 88.2402 155.362C86.6759 156.888 84.4184 157.069 82.3633 157.327L82.4461 157.005C84.7865 154.911 87.228 152.94 89.4641 150.739V150.736Z" fill="#516287"/>
<path d="M126.769 131.842C127.536 132.97 128.278 134.107 129.017 135.269C124.334 139.313 119.711 143.436 115.079 147.544C114.957 147.182 114.699 146.462 114.57 146.1C116.245 144.034 118.101 142.127 119.944 140.214C119.874 139.911 119.745 139.313 119.674 139.009C122.168 136.756 124.616 134.423 126.769 131.842Z" fill="#875975"/>
<path d="M21.957 132.967C23.5551 132.856 25.1593 132.908 26.7451 133.141C27.8984 134.306 29.0854 135.447 30.3737 136.471C32.7846 138.73 35.2507 140.94 37.6677 143.194C40.6369 146.201 43.6336 149.215 46.9678 151.824C48.9523 153.801 50.9645 155.76 53.084 157.593C52.9368 158.559 52.7926 159.537 52.6576 160.524C51.1056 159.049 49.5014 157.639 47.7162 156.459C48.115 156.073 48.5229 155.699 48.9339 155.337C48.7652 155.061 48.4247 154.512 48.256 154.236C47.0966 153.54 46.0016 152.762 44.9955 151.867C46.0016 152.891 47.2899 153.991 47.1549 155.576C44.6673 153.482 42.2441 151.306 39.7903 149.175C37.8303 147.339 35.7875 145.594 33.8612 143.733L34.6679 143.617C33.4441 142.154 32.1988 140.441 30.1191 140.318C27.2328 138.059 24.7207 135.373 21.9601 132.964L21.957 132.967ZM50.7038 157.13C50.3868 156.814 50.3868 156.814 50.7038 157.13V157.13Z" fill="#A1D7D2"/>
<path d="M68.2011 135.214C68.7624 134.332 69.3237 133.449 69.8973 132.581C71.25 133.593 72.5321 134.764 74.1056 135.447C75.2129 135.828 76.3294 135.19 77.406 134.951C79.1575 134.834 80.8843 134.506 82.5468 133.958C82.0499 136.707 84.4148 138.323 86.2061 139.942C84.2215 139.445 82.1542 138.948 80.1421 139.58C79.1115 140.012 78.2158 139.224 77.357 138.789C77.1116 138.853 76.63 138.982 76.3846 139.047C75.4828 139.093 74.7804 139.982 75.0779 140.877C73.4093 141.309 71.7346 141.741 70.0568 142.146C69.9034 141.959 69.5936 141.579 69.4372 141.392C68.0078 140.773 66.2993 140.399 65.7656 138.725C66.6153 137.578 67.4342 136.413 68.2011 135.214Z" fill="#535C70"/>
<path d="M51.8254 136.079C52.4389 135.337 53.0554 134.616 53.6688 133.884C53.1198 135.346 52.9664 136.925 52.5278 138.412C51.4972 139.558 50.2734 140.506 49.1507 141.554C51.4635 142.86 53.5462 144.537 55.1105 146.708C54.9817 147.918 54.859 149.142 54.7424 150.365C54.3958 150.512 53.6934 150.797 53.3376 150.944C53.6198 152.008 53.8989 153.075 54.2332 154.139C51.9573 152.388 50.077 150.172 47.6938 148.581C44.4087 145.855 41.3843 142.848 38.2526 139.969C37.9489 138.964 37.5502 137.98 37.5195 136.937C38.041 136.106 38.7434 135.417 39.4396 134.742C39.6145 134.871 39.9488 135.128 40.1237 135.257C41.9794 136.674 43.7584 138.406 46.0834 138.991C48.4023 139.282 50.5157 137.897 51.8254 136.079Z" fill="#2C526A"/>
<path d="M12.4688 136.406C13.3828 135.885 14.3582 135.477 15.3489 135.149C15.9103 136.173 16.2569 137.473 17.3856 138.062C20.1707 139.788 22.5847 142.139 25.7317 143.258C29.6057 144.656 32.3356 148.47 36.6851 148.641C37.5807 149.383 38.5009 150.098 39.461 150.778C39.5377 150.38 39.7002 149.573 39.783 149.175C42.2369 151.306 44.66 153.482 47.1476 155.576C47.2826 153.991 45.9943 152.891 44.9882 151.867C45.9943 152.762 47.0893 153.54 48.2488 154.236C48.4175 154.512 48.7579 155.061 48.9266 155.337C48.5156 155.699 48.1077 156.07 47.7089 156.459C49.4941 157.636 51.0983 159.049 52.6504 160.524C53.1902 161.015 53.7454 161.502 54.3006 161.999L53.8435 162.397C54.7146 163.409 55.5704 164.433 56.3894 165.503C53.7975 164.304 51.8927 162.057 49.3131 160.88C46.8378 160.144 44.203 160.539 41.6633 160.211C41.2645 160.423 40.4578 160.849 40.0591 161.061C32.6424 154.31 24.9158 147.915 17.5451 141.121C15.8949 139.506 14.1619 137.979 12.4688 136.406Z" fill="#2D647A"/>
<path d="M96.9148 136.021C96.2829 137.67 95.6848 139.338 94.9702 140.959C91.3691 144.23 87.7528 147.489 84.2806 150.904C81.9556 152.869 79.9772 155.233 77.4957 157.011L77.3424 157.088C75.5449 157.493 74.4285 158.989 73.7015 160.574C73.6371 160.632 73.5144 160.748 73.45 160.813C70.7876 162.1 68.6374 164.136 66.4197 166.043C65.2726 164.246 63.5518 162.971 62.0703 161.484L62.8709 161.625C64.0641 162.174 65.4413 164.323 66.6989 162.784C72.582 157.45 78.2534 151.873 84.2377 146.643C86.9706 144.227 89.4521 141.536 92.228 139.166C94.1481 138.728 95.5529 137.336 96.9179 136.024L96.9148 136.021Z" fill="#508F9E"/>
<path d="M75.0732 140.876C74.7757 139.981 75.4781 139.092 76.3799 139.046C76.6713 139.929 75.975 140.824 75.0732 140.876Z" fill="#303952"/>
<path d="M116.782 141.361C117.73 140.564 118.72 139.81 119.674 139.01C119.745 139.313 119.874 139.911 119.944 140.215C118.101 142.128 116.245 144.034 114.57 146.101C114.699 146.462 114.957 147.183 115.079 147.545C111.451 150.708 107.939 154.004 104.313 157.168C98.5896 162.223 92.8875 167.306 87.2375 172.438C84.8205 174.713 82.339 176.908 79.8453 179.097C79.1613 179.682 78.4651 180.262 77.7841 180.856C77.4743 180.593 76.8701 180.078 76.5664 179.82C78.5908 177.322 80.8269 174.989 83.3328 172.974C83.3512 172.505 83.3911 171.564 83.4095 171.101C87.4369 167.631 91.2526 163.934 95.3229 160.519C102.611 154.289 109.647 147.771 116.782 141.364V141.361Z" fill="#69416A"/>
<path d="M30.1164 140.321C32.199 140.444 33.4413 142.158 34.6651 143.62L33.8585 143.736C32.5947 142.608 31.3709 141.443 30.1133 140.324L30.1164 140.321Z" fill="#BDEDEB"/>
<path d="M110.546 145.493C112.693 144.251 114.07 141.397 116.779 141.357C109.644 147.765 102.608 154.282 95.3201 160.512C95.6606 158.639 96.5194 156.925 98.0898 155.791C97.0531 155.972 96.0164 156.137 94.9766 156.306C97.001 154.298 99.1389 152.415 101.252 150.509C103.013 148.859 104.77 147.204 106.645 145.683C106.194 148.059 104.04 149.405 102.798 151.33C105.703 149.849 107.779 147.201 110.543 145.49L110.546 145.493Z" fill="#1E1839"/>
<path d="M18.2185 143.71C17.5559 142.995 17.5345 142.024 17.5498 141.119C24.9205 147.913 32.647 154.311 40.0638 161.058C43.2292 163.778 46.3088 166.598 49.4712 169.32C51.1398 170.853 52.8023 172.404 54.5936 173.802C58.0075 176.656 61.0962 179.928 64.8261 182.395C69.3626 178.885 73.6077 175.007 78.0093 171.338C80.3987 169.464 82.7084 167.487 84.877 165.359C87.6406 162.72 90.8122 160.516 93.4102 157.695C93.9317 157.232 94.4531 156.766 94.9745 156.303C96.0113 156.135 97.048 155.969 98.0879 155.788C96.5143 156.923 95.6585 158.636 95.3181 160.51C91.2447 163.922 87.4321 167.619 83.4047 171.092C77.6106 175.826 72.7274 181.712 66.2002 185.519C65.4211 185.945 64.4917 186.525 63.6421 185.912C61.3017 184.67 59.4215 182.763 57.3265 181.178C48.916 174.235 40.7846 166.978 32.6133 159.765C28.5338 156.067 24.4819 152.346 20.3625 148.694C19.6785 147.014 19.4025 145.138 18.2154 143.71H18.2185Z" fill="#180F25"/>
<path d="M37.6671 143.194C38.2653 142.903 38.8664 142.621 39.4768 142.345C42.1178 144.515 43.9796 148.154 47.6941 148.58C50.0774 150.171 51.9607 152.388 54.2336 154.138C56.7273 156.456 59.3744 158.608 61.8835 160.92C60.4909 160.353 59.1505 159.69 57.8806 158.896C58.0217 159.58 58.1781 160.261 58.3438 160.95C55.6875 158.433 52.8073 156.165 50.148 153.666C49.2707 152.765 48.1389 152.216 46.9641 151.824C43.633 149.215 40.6363 146.201 37.6641 143.194H37.6671Z" fill="#3D8694"/>
<path d="M84.2762 150.905C85.7056 151.251 86.7822 150.203 87.9754 149.642C88.4845 149.976 88.9815 150.344 89.463 150.736C87.227 152.937 84.7854 154.908 82.445 157.002C82.6383 156.119 82.8376 155.252 83.037 154.381C81.304 155.374 79.7704 156.668 78.3318 158.051C78.1201 157.793 77.6999 157.266 77.4883 157.008C79.9697 155.23 81.9481 152.867 84.2731 150.902L84.2762 150.905Z" fill="#C0E6ED"/>
<path d="M97.3113 150.928C98.3695 149.736 99.9216 150.266 101.256 150.508C99.1425 152.415 97.0015 154.295 94.9801 156.306C94.4587 156.769 93.9372 157.235 93.4158 157.697C92.2042 158.194 91.0264 158.767 89.8915 159.423C87.7321 159.681 85.5022 159.617 83.4103 160.221C80.6896 161.787 77.9076 163.841 74.6133 163.706C77.1837 161.56 79.794 159.469 82.3643 157.323C84.4194 157.066 86.6739 156.885 88.2413 155.358C90.7933 152.982 94.7317 153.286 97.3144 150.928H97.3113Z" fill="#3B5178"/>
<path d="M46.964 151.827C48.1357 152.22 49.2706 152.768 50.1479 153.67C52.8103 156.168 55.6905 158.437 58.3437 160.954C58.5768 161.322 59.0338 162.048 59.2639 162.416L58.3161 162.327C56.5831 160.73 54.8746 159.114 53.0771 157.6C50.9576 155.763 48.9455 153.808 46.9609 151.83L46.964 151.827Z" fill="#2C5B6F"/>
<path d="M78.3341 158.053C79.7696 156.668 81.3033 155.374 83.0393 154.384C82.84 155.254 82.6406 156.122 82.4473 157.005L82.3646 157.327C79.7942 159.473 77.1839 161.564 74.6135 163.71C73.9816 164.173 73.3559 164.651 72.7578 165.16C72.7394 164.684 72.6995 163.731 72.6811 163.253C70.5677 164.617 68.8071 166.576 66.3594 167.361C68.666 165.12 71.2118 163.13 73.4479 160.809C73.5123 160.745 73.635 160.629 73.6994 160.57C74.9693 159.47 76.1625 158.283 77.3403 157.085L77.4937 157.008C77.7053 157.266 78.1255 157.793 78.3372 158.05L78.3341 158.053Z" fill="#83C8D1"/>
<path d="M53.0826 157.597C54.88 159.111 56.5885 160.727 58.3216 162.324C58.613 162.594 59.1927 163.142 59.481 163.412C58.5608 163.664 57.6314 163.915 56.7112 164.173C55.9199 163.431 55.1132 162.71 54.3065 162.002C53.7513 161.505 53.1992 161.018 52.6562 160.527C52.7912 159.543 52.9323 158.562 53.0826 157.597Z" fill="#70BCC0"/>
<path d="M89.8871 159.427C91.022 158.771 92.1998 158.198 93.4114 157.701C90.8134 160.522 87.6449 162.726 84.8782 165.365C83.1912 165.454 81.7005 166.208 80.5993 167.478C76.1395 166.162 71.9894 169.501 67.5234 169.455C69.2902 168.045 71.0539 166.641 72.7501 165.16C73.3482 164.651 73.974 164.176 74.6058 163.71C77.9001 163.845 80.6822 161.791 83.4029 160.224C85.4978 159.62 87.7277 159.685 89.884 159.427H89.8871Z" fill="#314368"/>
<path d="M57.8828 158.896C59.1527 159.687 60.4931 160.353 61.8857 160.92C62.131 161.095 62.6187 161.447 62.8641 161.622L62.0635 161.481C63.545 162.968 65.2658 164.243 66.413 166.039C64.6278 167.888 63.0175 164.881 61.128 164.694C60.5606 164.274 60.0054 163.857 59.4778 163.412C59.1864 163.142 58.6067 162.594 58.3184 162.324L59.2662 162.413C59.0331 162.045 58.576 161.318 58.346 160.95C58.1773 160.261 58.0239 159.58 57.8828 158.896Z" fill="#397281"/>
<path d="M32.6157 159.768C40.7869 166.981 48.9183 174.241 57.3289 181.181C55.9118 181.568 54.4548 181.794 52.9856 181.736C51.2403 180.268 49.5134 178.787 47.7927 177.3C42.1212 172.098 36.3547 167.003 30.582 161.914C31.2599 161.193 31.9408 160.479 32.6187 159.768H32.6157Z" fill="#665270"/>
<path d="M40.0625 161.061C40.4612 160.85 41.2679 160.423 41.6667 160.212C44.2064 160.54 46.8412 160.148 49.3165 160.88C51.8931 162.057 53.8009 164.308 56.3928 165.503C55.5738 164.433 54.7181 163.409 53.8469 162.398L54.304 161.999C55.1107 162.707 55.9143 163.428 56.7087 164.17C59.1442 166.533 61.8004 168.658 64.5763 170.617C64.015 170.972 63.4537 171.319 62.874 171.653C60.3925 171.003 58.4417 168.863 55.7793 168.851C53.6537 168.805 51.3011 167.704 49.4699 169.32C46.3044 166.595 43.2249 163.774 40.0625 161.058V161.061Z" fill="#314665"/>
<path d="M56.7109 164.173C57.6311 163.915 58.5605 163.664 59.4807 163.412C60.0083 163.857 60.5635 164.277 61.1309 164.694C62.3548 165.905 63.5725 167.134 64.8239 168.333C65.327 167.999 65.8423 167.677 66.3576 167.361C68.8053 166.576 70.5659 164.617 72.6793 163.253C72.6977 163.728 72.7376 164.682 72.756 165.16C71.0598 166.64 69.296 168.045 67.5293 169.455C66.7686 170.01 65.9895 170.531 65.2227 171.077C65.0601 170.96 64.738 170.73 64.5785 170.62C61.8026 168.661 59.1464 166.536 56.7109 164.173Z" fill="#54ADB8"/>
<path d="M80.6027 167.477C81.7038 166.208 83.1945 165.454 84.8815 165.365C82.7099 167.49 80.4033 169.467 78.0139 171.343C75.0693 171.313 72.7442 173.48 69.861 173.784C65.2478 174.158 60.3554 175.543 55.96 173.379C55.6195 173.489 54.9355 173.701 54.595 173.811C52.8037 172.413 51.1413 170.862 49.4727 169.329C51.3038 167.714 53.6534 168.814 55.7821 168.86C58.4445 168.872 60.3953 171.012 62.8768 171.662C63.4565 171.328 64.0178 170.979 64.5791 170.626C64.7417 170.736 65.0637 170.966 65.2232 171.083C65.99 170.534 66.7691 170.013 67.5298 169.461C71.9958 169.507 76.1459 166.168 80.6057 167.484L80.6027 167.477Z" fill="#2D335A"/>
<path d="M69.8644 173.781C72.7446 173.477 75.0696 171.307 78.0173 171.34C73.6157 175.01 69.3706 178.888 64.8341 182.398C61.1042 179.93 58.0155 176.659 54.6016 173.805C54.942 173.695 55.626 173.483 55.9665 173.373C60.3619 175.537 65.2512 174.151 69.8675 173.777L69.8644 173.781Z" fill="#272751"/>
<path d="M66.2014 185.522C72.7286 181.714 77.6148 175.828 83.4059 171.095C83.3874 171.558 83.3476 172.499 83.3292 172.968C80.8232 174.985 78.5871 177.315 76.5627 179.814C76.8664 180.071 77.4706 180.586 77.7804 180.85C75.8787 182.459 74.023 184.127 72.0783 185.687C71.2869 186.313 70.4925 186.95 69.7011 187.582C68.3362 188.646 66.9314 189.648 65.5112 190.641C62.4684 190.28 60.5882 187.536 58.1589 185.979C57.2817 185.27 56.4259 184.562 55.5548 183.86C54.699 183.14 53.8402 182.444 52.9844 181.736C54.4536 181.794 55.9106 181.567 57.3277 181.181C59.4226 182.766 61.3029 184.673 63.6432 185.914C64.4929 186.527 65.4223 185.948 66.2014 185.522Z" fill="#66375B"/>
<path d="M65.5117 190.642C66.9288 189.648 68.3336 188.646 69.7017 187.582C70.7384 187.873 71.7905 188.186 72.8334 188.496C71.3181 190.988 68.1159 191.433 65.5117 190.642Z" fill="#ABA0A4"/>
</svg>
