<svg width="52" height="74" viewBox="0 0 52 74" fill="none" xmlns="http://www.w3.org/2000/svg">
<path d="M28.2459 0.621948L31.557 3.88402L31.5194 7.60973L28.2018 4.52237L28.2459 0.621948Z" fill="#295C17"/>
<path d="M22.1881 28.2289C20.9242 27.5339 19.663 26.838 18.4 26.143C18.1615 26.0129 17.9343 25.876 17.7192 25.7353C17.5033 25.5939 17.3004 25.4479 17.1079 25.2966C16.9145 25.1453 16.7332 24.9888 16.5633 24.8269C16.3933 24.6658 16.2346 24.4987 16.0881 24.3278C15.8346 24.0313 15.613 23.728 15.4233 23.4179C15.2345 23.107 15.0777 22.7901 14.9547 22.4679C14.8308 22.1435 14.7397 21.8144 14.6814 21.4771C14.6214 21.1398 14.5951 20.7957 14.6026 20.4462C14.6082 20.062 14.6505 19.6861 14.7275 19.317C14.8054 18.9479 14.9171 18.5872 15.0655 18.2325C15.212 17.8792 15.3961 17.5321 15.6139 17.194C15.8308 16.8552 16.0853 16.5231 16.3717 16.1987C16.6609 15.8742 16.9736 15.5709 17.3098 15.2911C17.646 15.0105 18.0056 14.7533 18.3906 14.5181C18.7756 14.2829 19.1841 14.0703 19.6161 13.8797C20.0508 13.6891 20.5072 13.5205 20.9889 13.3745L24.6409 16.0466C24.1807 16.1843 23.7441 16.3446 23.3309 16.5254C22.9168 16.7069 22.5271 16.9096 22.1599 17.1343C21.7918 17.3574 21.4472 17.6032 21.127 17.8702C20.8058 18.1364 20.5072 18.4238 20.2312 18.7354C19.957 19.0448 19.7156 19.3609 19.5081 19.6831C19.2996 20.0061 19.1268 20.3366 18.9841 20.6747C18.8451 21.0127 18.7381 21.3561 18.6648 21.7093C18.5916 22.061 18.5522 22.4203 18.5475 22.7871C18.5428 23.1214 18.5672 23.4489 18.6235 23.7703C18.6808 24.0918 18.7691 24.4072 18.8874 24.715C19.0057 25.0251 19.1569 25.3269 19.3381 25.6234C19.5194 25.9191 19.7316 26.2095 19.9757 26.4939C20.1166 26.6565 20.2687 26.8153 20.4302 26.9696C20.5927 27.1247 20.7664 27.2737 20.9504 27.4181C21.1354 27.5626 21.3308 27.7018 21.5373 27.8371C21.7439 27.9733 21.9609 28.1034 22.1881 28.2289Z" fill="#295C17"/>
<path d="M31.2219 14.928C32.2887 15.8008 33.3545 16.6737 34.4221 17.5457C34.2156 17.377 33.9977 17.2175 33.7714 17.0669C33.5432 16.9164 33.3047 16.7758 33.0549 16.6442C32.8051 16.5126 32.546 16.3908 32.2765 16.2773C32.0051 16.1646 31.7243 16.0603 31.4332 15.9665L28.0968 13.2777C28.402 13.376 28.695 13.4842 28.9795 13.6014C29.2621 13.7202 29.5335 13.848 29.7946 13.9841C30.0547 14.1218 30.3035 14.2693 30.543 14.4258C30.7796 14.5847 31.0069 14.751 31.2219 14.928Z" fill="#295C17"/>
<path d="M18.0929 38.2927C16.7604 37.761 15.428 37.2301 14.0955 36.6976C14.5744 36.889 15.0692 37.0735 15.5801 37.2505C16.0909 37.4275 16.6177 37.5984 17.1614 37.761C17.7061 37.9252 18.2657 38.081 18.8395 38.2307C19.417 38.3812 20.0086 38.5242 20.6171 38.6581L24.3281 40.1692C23.7459 40.0391 23.1797 39.903 22.6304 39.76C22.0801 39.6178 21.5448 39.4673 21.0246 39.3108C20.5063 39.1542 20.0011 38.9908 19.5128 38.8214C19.0263 38.652 18.5512 38.4758 18.0929 38.2927Z" fill="#295C17"/>
<path d="M28.0957 13.2793L31.4321 15.9673L31.2837 30.9208L27.9154 28.9528L28.0957 13.2793Z" fill="#295C17"/>
<path d="M21.113 11.5629L20.9862 13.3735C20.5054 13.5195 20.0481 13.6882 19.6133 13.8788C19.1814 14.0686 18.7719 14.2819 18.3879 14.5171C18.0029 14.7523 17.6432 15.0102 17.307 15.2901C16.9699 15.5699 16.6582 15.8732 16.369 16.1977C16.0816 16.5222 15.8281 16.8542 15.6111 17.193C15.3933 17.5311 15.2092 17.8783 15.0627 18.2315C14.9144 18.5862 14.8026 18.947 14.7247 19.3161C14.6477 19.6844 14.6054 20.061 14.5998 20.4453C14.5923 20.7939 14.6186 21.1388 14.6787 21.4761C14.7369 21.8127 14.828 22.1425 14.9519 22.4669C15.0759 22.7891 15.2318 23.106 15.4205 23.4169C15.6093 23.727 15.8318 24.0295 16.0854 24.3268C16.3408 24.624 16.63 24.9054 16.9521 25.1716C17.2742 25.4386 17.632 25.6897 18.0235 25.9257C18.4151 26.1624 18.8405 26.3832 19.2987 26.5905C19.7589 26.7962 20.2537 26.9876 20.7815 27.1645L20.8716 27.8967C19.8856 27.5941 19.0527 27.3007 18.3437 27.0102C17.6348 26.7191 17.0451 26.4309 16.5446 26.1397C16.0431 25.8485 15.629 25.552 15.2703 25.2457C14.9097 24.9394 14.6045 24.6217 14.3162 24.2882C13.9697 23.9236 13.6842 23.581 13.4514 23.2437C13.2194 22.9064 13.0419 22.5736 12.9095 22.2302C12.779 21.8868 12.6954 21.5321 12.6532 21.1494C12.6109 20.7675 12.6109 20.356 12.6457 19.9007C12.6288 19.4121 12.6485 18.9689 12.7095 18.5537C12.7715 18.1392 12.8786 17.7527 13.0354 17.3776C13.1922 17.0032 13.3988 16.6394 13.6636 16.271C13.9275 15.9012 14.2495 15.5261 14.6355 15.1267C14.9801 14.7039 15.321 14.3348 15.7013 14.0043C16.0788 13.6723 16.4929 13.3773 16.9812 13.1035C17.4714 12.8297 18.0339 12.5756 18.71 12.326C19.3842 12.0734 20.173 11.8246 21.113 11.5629Z" fill="#295C17"/>
<path d="M42.8521 10.321C43.7413 11.2718 44.6315 12.221 45.5189 13.1717C45.9734 13.6572 46.3904 14.17 46.7688 14.7116C47.1491 15.2539 47.4909 15.8256 47.7961 16.4239C48.1013 17.0237 48.368 17.6514 48.5971 18.3079C48.8271 18.9652 49.0187 19.6512 49.1746 20.3652L46.6711 17.8564C46.5115 17.1076 46.3105 16.3891 46.0711 15.7001C45.8307 15.0118 45.5518 14.3538 45.2325 13.7261C44.9142 13.0983 44.5564 12.5008 44.1583 11.9328C43.7639 11.3663 43.3272 10.8293 42.8521 10.321Z" fill="#295C17"/>
<path d="M46.6657 17.8552L49.1691 20.364L37.05 21.9273L33.969 19.5146L46.6657 17.8552Z" fill="#295C17"/>
<path d="M12.7211 46.7323L16.7984 47.8615C16.9148 48.3773 17.0594 48.875 17.2303 49.3568C17.4022 49.837 17.6012 50.3014 17.8275 50.7477C18.0567 51.1924 18.3102 51.6212 18.5938 52.0319C18.8783 52.4434 19.1901 52.8359 19.5281 53.2118C19.8681 53.5892 20.2183 53.9387 20.5799 54.2639C20.9414 54.5891 21.3123 54.8879 21.6945 55.1609C22.0776 55.4339 22.4701 55.6813 22.8749 55.9029C23.2787 56.1252 23.6928 56.3211 24.1172 56.4905L20.3658 55.7811C19.9216 55.6041 19.4878 55.3991 19.0661 55.1654C18.6426 54.9332 18.2323 54.6738 17.8332 54.3872C17.4332 54.1013 17.0444 53.7881 16.6669 53.4463C16.2904 53.1059 15.9241 52.7391 15.5682 52.3435C15.2133 51.9495 14.8884 51.538 14.5926 51.1069C14.2968 50.6758 14.0301 50.2273 13.7934 49.7592C13.5559 49.2917 13.3483 48.8054 13.169 48.3009C12.9915 47.7957 12.8422 47.2731 12.7211 46.7323Z" fill="#295C17"/>
<path d="M31.3263 41.4236C32.4043 41.8865 33.4824 42.3509 34.5594 42.8145C34.319 42.7117 34.0683 42.6118 33.8073 42.5158C33.5462 42.419 33.2748 42.3275 32.9941 42.2397C32.7142 42.1512 32.4212 42.0673 32.1217 41.9871C31.8203 41.9069 31.5076 41.8305 31.1874 41.7572L27.7965 40.3179C28.1327 40.3935 28.4595 40.4737 28.774 40.5584C29.0896 40.6423 29.3938 40.7301 29.6887 40.8223C29.9826 40.9154 30.2662 41.0099 30.5385 41.1105C30.8108 41.2119 31.0737 41.3155 31.3263 41.4236Z" fill="#295C17"/>
<path d="M-0.00476074 48.4219L0.0112013 47.9583L12.7173 46.7323L10.904 47.3729L-0.00476074 48.4219Z" fill="#295C17"/>
<path d="M34.0429 17.9905L33.9678 19.5161C33.7828 18.7302 33.5226 18.0125 33.1855 17.3598C32.8484 16.7078 32.4334 16.1224 31.9441 15.6028C31.454 15.0839 30.8886 14.6309 30.2445 14.2444C29.6031 13.8579 28.8866 13.5365 28.0941 13.2808L26.2911 11.4172C27.6443 11.8415 28.7655 12.2727 29.6951 12.728C30.6285 13.1848 31.3694 13.6666 31.9601 14.1907C32.5526 14.7141 32.994 15.2821 33.3264 15.9084C33.6598 16.5361 33.8851 17.2244 34.0429 17.9905Z" fill="#295C17"/>
<path d="M2.63552 23.3075C2.61956 23.1389 2.60173 22.971 2.58483 22.8023C2.57168 22.6647 2.56228 22.5285 2.54443 22.3909C2.62613 23.1994 2.76417 23.9966 2.96231 24.7748C3.16045 25.5523 3.41586 26.3125 3.73701 27.0461C4.05722 27.7798 4.44036 28.4884 4.88921 29.1638C5.33901 29.8408 5.85454 30.4837 6.4405 31.0872C7.13163 31.8004 7.94671 32.4653 8.88762 33.087C9.8276 33.7109 10.8925 34.2903 12.0813 34.8318C13.2739 35.3734 14.5885 35.8763 16.0281 36.3452C17.4714 36.8142 19.0386 37.2491 20.7317 37.6522L20.6143 38.6596C19.0104 38.3026 17.5183 37.8957 16.137 37.4419C14.7594 36.9866 13.4927 36.4844 12.3348 35.933C11.1789 35.3824 10.1319 34.7842 9.19375 34.1367C8.25847 33.4908 7.43025 32.7958 6.70907 32.053C6.1109 31.4359 5.57753 30.79 5.10801 30.1168C4.64131 29.4444 4.23564 28.7426 3.89665 28.0142C3.55859 27.2859 3.28346 26.5303 3.07311 25.7445C2.86465 24.9609 2.71816 24.1486 2.63552 23.3075Z" fill="#295C17"/>
<path d="M27.7871 40.3179L31.1779 41.7572L31.0249 57.0344L27.603 56.3491L27.7871 40.3179Z" fill="#295C17"/>
<path d="M44.8571 16.5685L46.6657 17.8565L33.969 19.5159L34.0441 17.9904L44.8571 16.5685Z" fill="#295C17"/>
<path d="M26.3781 4.525L28.1979 4.52197C29.4956 4.60139 30.7314 4.74131 31.9005 4.94098C33.0696 5.14217 34.1749 5.40386 35.2172 5.72606C36.2576 6.04977 37.2342 6.43399 38.1451 6.87947C39.056 7.32646 39.902 7.83472 40.6796 8.40575C41.459 8.97603 42.1689 9.60076 42.8083 10.2784C43.4506 10.9576 44.0206 11.6905 44.5211 12.4771C45.0207 13.266 45.4498 14.107 45.8076 15.0025C46.1663 15.9003 46.4537 16.8502 46.6697 17.8562L44.8611 16.5681C44.6798 15.867 44.4263 15.1341 44.1042 14.3989C43.7821 13.6623 43.3877 12.9218 42.9239 12.2003C42.4609 11.4803 41.9257 10.7791 41.3219 10.1219C40.7171 9.46538 40.0438 8.85199 39.3001 8.30667C38.5592 7.76287 37.7319 7.28184 36.8201 6.85905C35.9111 6.43853 34.9176 6.07473 33.8396 5.76614C32.7635 5.45756 31.6028 5.20267 30.3577 4.99771C29.1153 4.79123 27.7875 4.63467 26.3781 4.525Z" fill="#295C17"/>
<path d="M10.8973 47.3737L12.7106 46.7323C12.8318 47.2738 12.9811 47.7965 13.1604 48.3009C13.3398 48.8054 13.5473 49.2917 13.7849 49.7592C14.0215 50.2273 14.2873 50.6758 14.584 51.1069C14.8798 51.5381 15.2047 51.9503 15.5597 52.3436C15.9146 52.7391 16.2808 53.1059 16.6583 53.4463C17.0358 53.7874 17.4246 54.1013 17.8246 54.3872C18.2237 54.6738 18.6341 54.9332 19.0576 55.1654C19.4792 55.3991 19.913 55.6041 20.3572 55.7811L20.4426 56.9534C19.59 56.61 18.8425 56.2863 18.1796 55.9641C17.5166 55.6434 16.9353 55.3243 16.4123 54.9869C15.8902 54.6526 15.4254 54.3002 14.9953 53.9145C14.5652 53.5302 14.168 53.1105 13.7821 52.6423C13.4008 52.2172 13.0477 51.7839 12.7275 51.3452C12.4083 50.9065 12.119 50.4633 11.873 50.0193C11.6242 49.5754 11.4157 49.1306 11.2523 48.6874C11.087 48.2457 10.9668 47.8063 10.8973 47.3737Z" fill="#295C17"/>
<path d="M27.485 65.5385L30.9275 65.7858L30.8533 73.2485L27.3958 73.3771L27.485 65.5385Z" fill="#295C17"/>
<path d="M50.8685 44.5691C50.6929 43.601 50.4271 42.682 50.075 41.8145C49.7219 40.947 49.2824 40.1309 48.7528 39.364C48.226 38.5986 47.6119 37.8816 46.9104 37.216C46.7696 37.0821 46.6212 36.9498 46.4672 36.8182C46.3141 36.6865 46.1536 36.5565 45.9883 36.4279C45.8221 36.2993 45.6502 36.1722 45.4727 36.0467C45.2934 35.9211 45.1094 35.7979 44.9197 35.6746C44.0107 35.0907 43.1007 34.506 42.1936 33.9214C42.3927 34.05 42.5852 34.1801 42.773 34.3109C42.9599 34.4425 43.1402 34.5764 43.3148 34.7102C43.4886 34.8441 43.6548 34.9803 43.8163 35.1187C43.9778 35.2563 44.1318 35.3947 44.2802 35.5347C45.0145 36.2335 45.6587 36.983 46.2108 37.787C46.7639 38.591 47.2231 39.4487 47.5931 40.357C47.9621 41.2684 48.2382 42.232 48.4213 43.2485C48.6063 44.2658 48.6974 45.3368 48.6946 46.4592C48.6927 47.7147 48.5725 48.924 48.3349 50.0843C48.0983 51.246 47.7434 52.3586 47.272 53.4242C46.7987 54.4892 46.2099 55.5049 45.5019 56.4715C44.7966 57.4381 43.9712 58.3548 43.0312 59.22C42.0922 60.0875 41.0612 60.8688 39.9418 61.5647C38.8225 62.2613 37.6121 62.8731 36.3153 63.3995C35.0194 63.9252 33.6353 64.3669 32.1638 64.7231C30.6933 65.0794 29.1373 65.3509 27.4958 65.5377L30.9374 65.785C32.5047 65.608 33.9883 65.3509 35.3903 65.012C36.7942 64.6724 38.1126 64.2534 39.3493 63.7527C40.586 63.2505 41.7363 62.6689 42.8049 62.0064C43.8708 61.3438 44.8539 60.6003 45.7488 59.7752C46.6437 58.9508 47.4278 58.0795 48.1011 57.1598C48.7735 56.2401 49.335 55.272 49.7839 54.2592C50.2327 53.2465 50.5689 52.1854 50.7952 51.0788C51.0196 49.9738 51.1323 48.8227 51.1333 47.6269C51.1314 46.5575 51.044 45.5379 50.8685 44.5691Z" fill="#295C17"/>
<path d="M21.2173 4.72333L21.1177 4.774L21.175 0.890975L21.2745 0.868286L21.2173 4.72333ZM21.1168 11.5636L20.99 13.3743L20.7844 27.1653L20.8745 27.8974L21.1168 11.5636ZM20.7318 37.6511L20.6144 38.6586L20.3599 55.7812L20.4454 56.9535L20.7318 37.6511ZM20.328 64.9026L20.2125 65.7111L20.1017 73.3025L20.2162 72.4856L20.328 64.9026Z" fill="#295C17"/>
<path d="M25.7151 57.2043L27.5894 56.3489C28.2176 56.2513 28.8186 56.1175 29.3905 55.9481C29.9605 55.7794 30.5061 55.5744 31.0197 55.3339C31.5352 55.0911 32.0207 54.8151 32.478 54.5019C32.9353 54.1888 33.3635 53.8402 33.7626 53.4559L33.7842 53.8023C33.3063 54.2962 32.8339 54.7205 32.325 55.0881C31.8179 55.4542 31.2732 55.7643 30.6544 56.0297C30.0356 56.296 29.3407 56.5183 28.5303 56.7089C27.7218 56.8995 26.7959 57.0606 25.7151 57.2043Z" fill="#295C17"/>
<path d="M33.7965 53.8038L33.7749 53.4574C34.175 53.0717 34.5252 52.6716 34.8257 52.2533C35.1262 51.8343 35.3769 51.3994 35.5779 50.9487C35.7798 50.4971 35.9338 50.029 36.0342 49.5449C36.1394 49.0601 36.1911 48.5594 36.1948 48.0428C36.1986 47.5807 36.161 47.1367 36.0793 46.7086C36.0004 46.2798 35.8793 45.8684 35.7159 45.4728C35.5535 45.0772 35.3478 44.6991 35.1008 44.336C34.8557 43.9737 34.5684 43.6289 34.2397 43.2998C33.9111 42.9708 33.5298 42.6615 33.096 42.3733C32.6612 42.0852 32.1748 41.8167 31.6377 41.5678C31.0996 41.3198 30.509 41.0914 29.8657 40.8841C29.2244 40.6754 28.5304 40.4878 27.7848 40.3191L25.9528 38.87C27.1397 39.1075 28.1614 39.3586 29.0478 39.6203C29.9361 39.885 30.6892 40.1611 31.3409 40.4553C31.9945 40.7495 32.5429 41.0596 33.0237 41.3901C33.5035 41.7206 33.9139 42.0708 34.2858 42.4444C34.6576 42.8143 34.991 43.1879 35.2774 43.5752C35.5638 43.9624 35.8061 44.3655 35.9986 44.7936C36.1892 45.2209 36.33 45.6747 36.4145 46.1686C36.5 46.661 36.5282 47.1919 36.4944 47.7721C36.5178 48.4142 36.4916 48.9943 36.4052 49.5343C36.3197 50.0728 36.1751 50.5712 35.9619 51.0477C35.7488 51.5242 35.468 51.9788 35.1102 52.4326C34.7515 52.8841 34.3177 53.3349 33.7965 53.8038Z" fill="#295C17"/>
<path d="M26.4263 0.671744L28.2424 0.621826L28.1982 4.52224L26.3784 4.52527L26.4263 0.671744ZM26.0742 29.1258L27.9165 28.9526L28.0968 13.2791L26.2939 11.4155L26.0742 29.1258ZM25.7276 57.2055L27.602 56.3501L27.786 40.3181L25.954 38.8689L25.7276 57.2055ZM25.538 72.5364L27.4048 73.3774L27.4949 65.5396L25.6337 64.7333L25.538 72.5364Z" fill="#295C17"/>
<path d="M25.5311 72.5371L27.3988 73.3782L20.0988 73.3026L20.2124 72.4857L25.5311 72.5371Z" fill="#295C17"/>
<path d="M42.8369 35.6796C43.5364 36.3459 44.1412 37.078 44.6577 37.8677C45.1741 38.658 45.6023 39.5044 45.946 40.3953C46.2897 41.2863 46.5498 42.2219 46.732 43.1907C46.9123 44.1611 47.0165 45.1625 47.0456 46.1851C47.0128 47.3332 46.8813 48.47 46.6465 49.5803C46.4118 50.6921 46.0728 51.7767 45.6239 52.8227C45.176 53.8679 44.6182 54.8754 43.9449 55.8299C43.2735 56.7844 42.4875 57.6844 41.5814 58.5186C40.6771 59.3529 39.6629 60.1024 38.5398 60.771C37.4186 61.4403 36.1904 62.0295 34.856 62.5416C33.5226 63.0536 32.0849 63.4885 30.5458 63.8538C29.0096 64.2169 27.3709 64.5088 25.6318 64.7334L25.5361 72.5373L20.2174 72.4859L20.3301 64.9036C18.7844 64.7153 17.328 64.4702 15.9617 64.1624C14.5973 63.8546 13.322 63.4855 12.1342 63.0513C10.9491 62.6172 9.85136 62.118 8.8419 61.5485C7.83619 60.9797 6.915 60.3414 6.08113 59.6289C5.25009 58.9187 4.50261 58.1193 3.83589 57.2563C3.17012 56.3941 2.5851 55.4683 2.08178 54.5017C1.57751 53.5359 1.15307 52.53 0.806565 51.5082C0.459121 50.4886 0.18962 49.4524 -0.00476074 48.4223L10.904 47.374C10.9726 47.8067 11.0937 48.2461 11.2571 48.6878C11.4205 49.1302 11.629 49.575 11.8778 50.0197C12.1238 50.4637 12.413 50.9069 12.7323 51.3456C13.0525 51.7842 13.4056 52.2176 13.7869 52.6427C14.1737 53.1108 14.571 53.5306 15.0001 53.9148C15.4302 54.3005 15.895 54.653 16.4171 54.9873C16.9411 55.3246 17.5214 55.6438 18.1844 55.9645C18.8473 56.2867 19.5939 56.6112 20.4474 56.9538L20.7339 37.6513C19.0408 37.2482 17.4735 36.8133 16.0302 36.3444C14.5907 35.8762 13.2751 35.3733 12.0834 34.831C10.8946 34.2902 9.8307 33.7101 8.88979 33.0861C7.94981 32.4644 7.13379 31.7996 6.44266 31.0864C5.75247 30.3747 5.15899 29.6077 4.65567 28.7969C4.15517 27.9877 3.74481 27.1353 3.41896 26.2481C3.09593 25.3632 2.85555 24.445 2.69591 23.5064C2.53722 22.5685 2.45833 21.608 2.45175 20.6384C2.50152 19.668 2.6546 18.6946 2.90438 17.7371C3.15228 16.7818 3.49409 15.8417 3.92322 14.9371C4.35049 14.034 4.86414 13.1665 5.45104 12.3535C6.03793 11.5427 6.69996 10.7863 7.42677 10.1064C8.23434 9.38334 9.12643 8.73365 10.103 8.15505C11.0815 7.57645 12.1445 7.06744 13.2929 6.62423C14.4423 6.18102 15.6771 5.80361 16.9965 5.48821C18.3186 5.17282 19.7272 4.91945 21.2193 4.72356L21.2766 0.867766L26.4235 0.671875L26.3756 4.5254C27.7851 4.63507 29.1129 4.79163 30.3543 4.99735C31.5994 5.20156 32.7591 5.45645 33.8362 5.76579C34.9142 6.07437 35.9077 6.43817 36.8167 6.85869C37.7285 7.28149 38.5558 7.76251 39.2967 8.30632C40.0404 8.85164 40.7146 9.46502 41.3184 10.1215C41.9232 10.7788 42.4575 11.4799 42.9204 12.1999C43.3843 12.9215 43.7787 13.6619 44.1008 14.3986C44.4229 15.1345 44.6764 15.8666 44.8577 16.5678L34.0447 17.9897C33.886 17.2235 33.6616 16.5352 33.3273 15.9075C32.9948 15.2812 32.5535 14.7132 31.961 14.1898C31.3703 13.6657 30.6294 13.1839 29.696 12.7271C28.7664 12.271 27.6451 11.8407 26.292 11.4164L26.0723 29.1267C28.1579 29.579 30.0735 30.0487 31.8173 30.5388C33.5639 31.0327 35.1387 31.5462 36.5369 32.0855C37.9407 32.6263 39.1671 33.1935 40.216 33.791C41.2677 34.3893 42.142 35.017 42.8369 35.6796ZM33.7949 53.8036C34.3161 53.3347 34.7499 52.8839 35.1095 52.4316C35.4673 51.9786 35.7481 51.524 35.9612 51.0468C36.1744 50.5703 36.319 50.0719 36.4045 49.5334C36.4909 48.9933 36.5172 48.4132 36.4937 47.7711C36.5265 47.191 36.4993 46.6608 36.4139 46.1677C36.3294 45.6745 36.1885 45.22 35.9979 44.7927C35.8063 44.3638 35.5631 43.9615 35.2767 43.5742C34.9903 43.187 34.6569 42.8133 34.2851 42.4435C33.9132 42.0699 33.5028 41.7197 33.023 41.3892C32.5422 41.0586 31.9938 40.7485 31.3403 40.4543C30.6886 40.1609 29.9355 39.884 29.0471 39.6193C28.1607 39.3576 27.139 39.1073 25.9521 38.869L25.7248 57.2056C26.8057 57.0627 27.7315 56.9008 28.541 56.7095C29.3514 56.5189 30.0463 56.2965 30.6651 56.0303C31.2839 55.7648 31.8286 55.4555 32.3356 55.0886C32.8446 54.7218 33.3179 54.2975 33.7949 53.8036ZM20.8775 27.8961L21.1198 11.5623C20.1798 11.824 19.391 12.0729 18.7168 12.324C18.0407 12.5736 17.4782 12.8277 16.988 13.1015C16.4997 13.3753 16.0856 13.6702 15.7081 14.0023C15.3288 14.3328 14.987 14.7019 14.6423 15.1247C14.2564 15.5233 13.9343 15.8992 13.6704 16.269C13.4047 16.6381 13.199 17.0011 13.0422 17.3755C12.8854 17.7507 12.7793 18.1372 12.7164 18.5516C12.6553 18.9669 12.6365 19.4101 12.6525 19.8987C12.6178 20.354 12.6178 20.7654 12.66 21.1474C12.7023 21.5301 12.7849 21.8848 12.9164 22.2282C13.0478 22.5716 13.2263 22.9043 13.4582 23.2417C13.6911 23.579 13.9765 23.9208 14.323 24.2862C14.6113 24.6197 14.9156 24.9374 15.2771 25.2437C15.6368 25.55 16.0509 25.8465 16.5514 26.1377C17.0519 26.4289 17.6416 26.7178 18.3506 27.0082C19.0586 27.3002 19.8915 27.5936 20.8775 27.8961Z" fill="#428D28"/>
<path d="M0.98913 52.0478C0.908373 51.8035 0.857666 51.6583 0.857666 51.6583C1.11872 52.4109 1.42296 53.1551 1.76946 53.8782C2.11785 54.6035 2.50755 55.3084 2.94045 55.9853C3.37616 56.663 3.85412 57.3119 4.37623 57.923C4.89927 58.5334 5.46832 59.106 6.08151 59.6293C6.91538 60.3418 7.83657 60.9802 8.84228 61.5489C9.85268 62.1184 10.9504 62.6176 12.1345 63.0518C13.3224 63.4859 14.5986 63.855 15.962 64.1628C17.3283 64.4706 18.7848 64.7157 20.3305 64.904L20.2149 65.7125C18.7792 65.5598 17.4157 65.3329 16.1217 65.0318C14.8314 64.7301 13.6117 64.3549 12.4623 63.9064C11.3157 63.4587 10.2396 62.9375 9.23292 62.3416C8.22815 61.7478 7.29381 61.0815 6.42802 60.3418C5.80074 59.8048 5.21667 59.23 4.67673 58.6159C4.13772 58.001 3.64096 57.3482 3.18835 56.6569C2.73573 55.9649 2.32631 55.2365 1.95914 54.4674C1.59292 53.7004 1.2699 52.8927 0.98913 52.0478Z" fill="#295C17"/>
<path d="M48.4227 43.25C48.2396 42.2335 47.9626 41.2699 47.5945 40.3585C47.2245 39.4494 46.7653 38.5925 46.2122 37.7885C45.661 36.9845 45.0168 36.235 44.2816 35.5361C43.5472 34.8395 42.6533 34.1793 41.5987 33.5538C40.5461 32.9313 39.3366 32.3467 37.9675 31.796C36.6021 31.2485 35.08 30.7372 33.401 30.2629C31.7276 29.7895 29.9002 29.3523 27.9189 28.9537L26.0765 29.1269C28.1621 29.5792 30.0777 30.0489 31.8215 30.539C33.5681 31.0329 35.1429 31.5465 36.5411 32.0857C37.945 32.6265 39.1713 33.1938 40.2202 33.7913C41.271 34.3895 42.1453 35.018 42.8401 35.6798C43.5397 36.3461 44.1445 37.0783 44.6609 37.8679C45.1774 38.6583 45.6056 39.5046 45.9493 40.3956C46.293 41.2865 46.5531 42.2221 46.7353 43.191C46.9156 44.1614 47.0198 45.1627 47.0489 46.1853C47.016 47.3334 46.8846 48.4702 46.6498 49.5805C46.4151 50.6923 46.0761 51.7769 45.6272 52.8229C45.1793 53.8682 44.6215 54.8756 43.9482 55.8301C43.2768 56.7846 42.4908 57.6846 41.5846 58.5189C40.6803 59.3531 39.6662 60.1026 38.5431 60.7712C37.4219 61.4406 36.1936 62.0298 34.8593 62.5418C33.5258 63.0538 32.0882 63.4887 30.5491 63.854C29.0128 64.2171 27.3742 64.509 25.6351 64.7337L27.4963 65.5399C29.1377 65.3531 30.6937 65.0816 32.1643 64.7253C33.6357 64.3691 35.0189 63.9282 36.3157 63.4018C37.6125 62.8753 38.822 62.2635 39.9423 61.5669C41.0616 60.8711 42.0917 60.0898 43.0317 59.2223C43.9717 58.357 44.7971 57.4403 45.5023 56.4737C46.2104 55.5071 46.7991 54.4914 47.2724 53.4265C47.7438 52.3608 48.0988 51.2482 48.3354 50.0865C48.572 48.9263 48.6932 47.7169 48.695 46.4614C48.6979 45.3382 48.6068 44.2672 48.4227 43.25Z" fill="#428D28"/>
<path d="M44.1011 14.3983C44.4232 15.1342 44.6768 15.8663 44.858 16.5675L38.5336 17.3994C38.05 9.84668 36.5222 7.60868 32.4139 5.40094C32.9022 5.51364 33.3792 5.63314 33.8365 5.76398C34.9145 6.07257 35.908 6.43636 36.817 6.85689C37.7288 7.27968 38.5561 7.76071 39.297 8.30451C40.0407 8.84983 40.7149 9.46321 41.3187 10.1197C41.9235 10.777 42.4578 11.4781 42.9207 12.1981C43.3846 12.9219 43.779 13.6616 44.1011 14.3983ZM41.5817 58.5176C42.4878 57.6833 43.2738 56.7833 43.9452 55.8288C44.6176 54.8743 45.1763 53.8669 45.6242 52.8216C46.074 51.7756 46.4121 50.691 46.6468 49.5792C46.8807 48.4697 47.0131 47.3329 47.0459 46.184C47.0168 45.1615 46.9126 44.1601 46.7323 43.1897C46.5501 42.2208 46.29 41.2852 45.9463 40.3943C45.6026 39.5033 45.1744 38.657 44.658 37.8666C44.1415 37.077 43.5368 36.3449 42.8372 35.6785C42.1423 35.0167 41.2681 34.3882 40.2173 33.79C39.1674 33.1917 37.941 32.6252 36.5381 32.0844C36.0123 31.8817 35.462 31.6821 34.8854 31.4862C44.5453 40.0479 49.8987 58.3633 19.2139 64.7536C19.581 64.8073 19.9529 64.8564 20.3313 64.9018L20.2186 72.4841L25.5373 72.5355L25.6331 64.7316C27.3722 64.507 29.0108 64.215 30.5471 63.852C32.0871 63.4874 33.5238 63.0518 34.8572 62.5398C36.1916 62.0277 37.4199 61.4385 38.5411 60.7692C39.6632 60.1013 40.6774 59.3518 41.5817 58.5176ZM16.9977 5.48716C15.6784 5.80256 14.4426 6.17997 13.2942 6.62318C12.1457 7.06639 11.0827 7.57465 10.1043 8.154C9.12766 8.7326 8.23559 9.38229 7.42802 10.1053C6.7012 10.7853 6.03918 11.5416 5.45228 12.3524C4.86539 13.1655 4.35173 14.033 3.92447 14.9361C3.49533 15.8406 3.15352 16.7808 2.90561 17.736C2.65583 18.6943 2.50277 19.6677 2.453 20.6373C2.45864 21.6069 2.53845 22.5675 2.69715 23.5053C2.85678 24.4439 3.09624 25.3629 3.42021 26.247C3.74605 27.1335 4.15641 27.9866 4.65692 28.7959C5.16024 29.6067 5.75277 30.3736 6.4439 31.0853C7.13504 31.7985 7.95012 32.4634 8.89103 33.0851C9.83101 33.709 10.8959 34.2884 12.0847 34.8299C13.2773 35.3715 14.5919 35.8744 16.0315 36.3434C17.4748 36.8123 19.042 37.2472 20.7351 37.6503L20.5304 51.3921C22.2713 52.4616 24.0442 53.3352 25.7664 53.8646L25.9524 38.8688C27.1393 39.1062 28.161 39.3573 29.0474 39.619C29.9358 39.8838 30.6889 40.1598 31.3406 40.454C31.9941 40.7482 32.5425 41.0583 33.0233 41.3889C33.5032 41.7194 33.9135 42.0696 34.2854 42.4432C34.6572 42.813 34.9906 43.1867 35.277 43.5739C35.5634 43.9612 35.8057 44.3643 35.9982 44.7924C36.1888 45.2197 36.3297 45.6735 36.4142 46.1674C36.4996 46.6598 36.5278 47.1907 36.494 47.7708C36.5081 48.1664 36.5015 48.5362 36.4752 48.8902C42.1902 35.826 15.3986 36.9885 9.15021 27.8966C2.71969 18.543 10.1024 8.15476 21.2187 4.72327C19.7275 4.9184 18.3199 5.17102 16.9977 5.48716Z" fill="#428D28"/>
</svg>
