<svg width="77" height="78" viewBox="0 0 77 78" fill="none" xmlns="http://www.w3.org/2000/svg">
<path d="M69.8447 36.584C66.5203 36.584 63.5195 34.2703 62.7875 30.891C62.3792 29.0056 62.7278 27.0736 63.7734 25.4504C64.819 23.8272 66.4306 22.7085 68.3161 22.3002C71.4115 21.6297 73.385 18.5641 72.7144 15.467C72.0423 12.3716 68.9767 10.3982 65.8813 11.0703C64.3809 11.3957 63.0979 12.2853 62.268 13.5766C61.4381 14.8678 61.1593 16.4031 61.4846 17.9035C61.7269 19.0239 61.0166 20.1276 59.8962 20.3716C58.7759 20.6139 57.6722 19.9035 57.4282 18.7832C56.8672 16.2006 57.3469 13.5533 58.7776 11.3309C60.2083 9.10853 62.419 7.57658 65.0016 7.01559C67.5842 6.45459 70.2315 6.93426 72.4539 8.36496C74.6763 9.79566 76.2082 12.0048 76.7692 14.589C77.9261 19.9218 74.5286 25.1998 69.1958 26.3566C68.3941 26.5309 67.707 27.0072 67.2622 27.6977C66.8174 28.3881 66.6697 29.2097 66.8423 30.013C67.2024 31.6695 68.8406 32.7251 70.497 32.3649C71.6157 32.1226 72.7211 32.8329 72.9634 33.9533C73.2057 35.0736 72.4954 36.1773 71.375 36.4213C70.8622 36.5325 70.3476 36.5856 69.8431 36.5856L69.8447 36.584Z" fill="url(#paint0_linear_2402_40047)"/>
<path d="M8.05787 36.5836C7.55165 36.5836 7.04045 36.5304 6.52592 36.4192C5.4056 36.1769 4.69522 35.0715 4.93755 33.9512C5.17987 32.8309 6.2836 32.1205 7.40393 32.3628C9.06036 32.723 10.7002 31.6674 11.0587 30.011C11.233 29.2093 11.0836 28.3861 10.6388 27.6956C10.194 27.0052 9.50849 26.5288 8.70517 26.3545C3.37407 25.1977 -0.0234347 19.9197 1.13175 14.5869C1.69108 12.0044 3.22469 9.79359 5.44709 8.36289C7.66949 6.93218 10.3151 6.45252 12.8994 7.01351C15.4819 7.57285 17.6927 9.10645 19.1234 11.3289C20.5541 13.5513 21.0321 16.1985 20.4728 18.7811C20.2304 19.9014 19.1267 20.6118 18.0047 20.3695C16.8844 20.1272 16.174 19.0218 16.4164 17.9014C16.7417 16.401 16.4628 14.8658 15.633 13.5745C14.8031 12.2849 13.5184 11.3936 12.0197 11.0683C8.92426 10.3961 5.85871 12.3695 5.18651 15.4649C4.51597 18.5604 6.48775 21.6259 9.58484 22.2981C11.4703 22.7064 13.0836 23.8251 14.1276 25.4483C15.1715 27.0715 15.5217 29.0035 15.1135 30.889C14.3815 34.2682 11.3807 36.5819 8.05621 36.5819L8.05787 36.5836Z" fill="url(#paint1_linear_2402_40047)"/>
<path d="M38.9301 68.0427C43.2319 68.0427 46.7192 62.7778 46.7192 56.2834C46.7192 49.7889 43.2319 44.524 38.9301 44.524C34.6282 44.524 31.1409 49.7889 31.1409 56.2834C31.1409 62.7778 34.6282 68.0427 38.9301 68.0427Z" fill="url(#paint2_linear_2402_40047)"/>
<path d="M46.1358 58.7709H31.769C27.5665 58.7709 24.1475 62.19 24.1475 66.3924V68.0821C24.1475 69.2273 25.0769 70.1567 26.2221 70.1567H51.681C52.8262 70.1567 53.7557 69.2273 53.7557 68.0821V66.3924C53.7557 62.19 50.3366 58.7709 46.1341 58.7709H46.1358Z" fill="url(#paint3_linear_2402_40047)"/>
<path d="M61.1123 2.91942C59.7778 1.45221 57.8758 0.610718 55.8924 0.610718H21.9904C20.007 0.610718 18.1049 1.45221 16.7705 2.91942C15.436 4.38664 14.7788 6.36174 14.968 8.33518L17.4477 34.2621C17.9605 39.6197 20.4352 44.5641 24.4186 48.184C28.402 51.8039 33.5588 53.7973 38.9414 53.7973C44.3239 53.7973 49.4808 51.8039 53.4642 48.184C57.4475 44.5641 59.9222 39.6197 60.4351 34.2621L62.9147 8.33518C63.104 6.36008 62.4467 4.38664 61.1123 2.91942Z" fill="url(#paint4_linear_2402_40047)"/>
<path d="M52.5982 66.0033H25.2855C22.1469 66.0033 19.5925 68.556 19.5925 71.6962C19.5925 74.8365 22.1452 77.3892 25.2855 77.3892H52.5982C55.7368 77.3892 58.2912 74.8365 58.2912 71.6962C58.2912 68.556 55.7385 66.0033 52.5982 66.0033Z" fill="url(#paint5_linear_2402_40047)"/>
<path d="M47.6988 24.0596L50.356 19.5584C50.7361 18.9144 50.7411 18.1144 50.366 17.4671C49.9909 16.8198 49.2988 16.4165 48.5486 16.4297L43.322 16.4812L40.7528 11.9302C40.3843 11.2779 39.6938 10.8762 38.9453 10.8762C38.1967 10.8762 37.5063 11.2795 37.1378 11.9302L34.5685 16.4812L29.342 16.4297C29.342 16.4297 29.3287 16.4297 29.3221 16.4297C28.5818 16.4297 27.8964 16.8248 27.5246 17.4671C27.1511 18.1144 27.1545 18.9144 27.5345 19.5584L30.1918 24.0596L27.5345 28.5608C27.1545 29.2048 27.1495 30.0048 27.5246 30.6521C27.898 31.2994 28.5885 31.6994 29.342 31.6894L34.5685 31.638L37.1378 36.189C37.5063 36.8413 38.1967 37.2429 38.9453 37.2429C39.6938 37.2429 40.3843 36.8396 40.7528 36.189L43.322 31.638L48.5486 31.6894C48.5486 31.6894 48.5619 31.6894 48.5685 31.6894C49.3087 31.6894 49.9942 31.2944 50.366 30.6521C50.7394 30.0048 50.7361 29.2048 50.356 28.5608L47.6988 24.0596Z" fill="url(#paint6_linear_2402_40047)"/>
<defs>
<linearGradient id="paint0_linear_2402_40047" x1="67.0962" y1="9.10189" x2="67.0962" y2="27.5516" gradientUnits="userSpaceOnUse">
<stop stop-color="#FF9500"/>
<stop offset="1" stop-color="#FFCC1E"/>
</linearGradient>
<linearGradient id="paint1_linear_2402_40047" x1="10.8064" y1="9.10147" x2="10.8064" y2="27.5512" gradientUnits="userSpaceOnUse">
<stop stop-color="#FF9500"/>
<stop offset="1" stop-color="#FFCC1E"/>
</linearGradient>
<linearGradient id="paint2_linear_2402_40047" x1="38.9301" y1="53.0502" x2="38.9301" y2="61.2626" gradientUnits="userSpaceOnUse">
<stop stop-color="#FF9500"/>
<stop offset="1" stop-color="#FFCC1E"/>
</linearGradient>
<linearGradient id="paint3_linear_2402_40047" x1="38.9524" y1="66.419" x2="38.9524" y2="60.3725" gradientUnits="userSpaceOnUse">
<stop stop-color="#FF9500"/>
<stop offset="1" stop-color="#FFCC1E"/>
</linearGradient>
<linearGradient id="paint4_linear_2402_40047" x1="38.9414" y1="53.6927" x2="38.9414" y2="3.64141" gradientUnits="userSpaceOnUse">
<stop stop-color="#FFBD00"/>
<stop offset="1" stop-color="#FFF065"/>
</linearGradient>
<linearGradient id="paint5_linear_2402_40047" x1="38.9419" y1="77.1502" x2="38.9419" y2="68.6091" gradientUnits="userSpaceOnUse">
<stop stop-color="#333333"/>
<stop offset="1" stop-color="#666666"/>
</linearGradient>
<linearGradient id="paint6_linear_2402_40047" x1="38.947" y1="36.8479" x2="38.947" y2="14.7069" gradientUnits="userSpaceOnUse">
<stop stop-color="#FF9500"/>
<stop offset="1" stop-color="#FFCC1E"/>
</linearGradient>
</defs>
</svg>
