<svg width="33" height="33" viewBox="0 0 33 33" fill="none" xmlns="http://www.w3.org/2000/svg">
<path d="M31.3013 1.69876C32.3996 2.79711 32.3996 4.57789 31.3013 5.67624L20.4781 16.5L31.3013 27.3238C32.3081 28.3306 32.392 29.9109 31.553 31.0133L31.3013 31.3013C30.2029 32.3996 28.4221 32.3996 27.3238 31.3013L16.5 20.4781L5.67624 31.3013C4.57789 32.3996 2.79711 32.3996 1.69876 31.3013C0.600413 30.2029 0.600413 28.4221 1.69876 27.3238L12.5219 16.5L1.69876 5.67624C0.691942 4.66942 0.60804 3.08917 1.44706 1.98678L1.69876 1.69876C2.79711 0.600413 4.57789 0.600413 5.67624 1.69876L16.5 12.5219L27.3238 1.69876C28.4221 0.600413 30.2029 0.600413 31.3013 1.69876Z" fill="white"/>
</svg>
