<svg width="248" height="170" viewBox="0 0 248 170" fill="none" xmlns="http://www.w3.org/2000/svg">
<path d="M124.371 148.78L200.591 93.4L171.481 3.79004H77.2607L48.1406 93.4L124.371 148.78Z" fill="#54101A"/>
<g style="mix-blend-mode:multiply" opacity="0.3">
<path d="M84.4297 13.6104L124.41 136.65L164.38 13.6104H84.4297Z" fill="#8C1919"/>
</g>
<path d="M174.2 0.0400391H74.5305L43.7305 94.83L124.36 153.41L204.99 94.83L174.19 0.0400391H174.2ZM59.6805 89.65L84.3904 13.61H164.35L189.06 89.65L124.38 136.65L59.6905 89.65H59.6805Z" fill="url(#paint0_radial_1044_26037)"/>
<path d="M174.2 0.0400391H74.5302L67.4102 21.97C71.8402 22.17 76.4302 22.73 81.1302 23.63L84.3901 13.61H164.35L189.06 89.65L179.68 96.47C181.79 100.57 183.66 104.81 185.26 109.18L205 94.84L174.2 0.0500183V0.0400391Z" fill="url(#paint1_radial_1044_26037)"/>
<path style="mix-blend-mode:screen" d="M174.2 0.0400391H74.5302L67.4102 21.97C71.8402 22.17 76.4302 22.73 81.1302 23.63L84.3901 13.61H164.35L189.06 89.65L179.68 96.47C181.79 100.57 183.66 104.81 185.26 109.18L205 94.84L174.2 0.0500183V0.0400391Z" fill="url(#paint2_linear_1044_26037)"/>
<path style="mix-blend-mode:screen" d="M168.729 121.18C168.259 115.9 167.469 110.87 166.409 106.1L124.359 136.65L59.6687 89.6498L77.4088 35.0498C72.3688 35.1698 67.4088 35.7398 62.5988 36.7198L43.7188 94.8298L124.349 153.41L168.719 121.18H168.729Z" fill="url(#paint3_linear_1044_26037)"/>
<path d="M59.6797 89.6504L66.0697 88.2204L88.3397 19.6904H160.39L182.66 88.2204L189.05 89.6504L164.34 13.6104H84.3897L59.6797 89.6504Z" fill="#9E2C19"/>
<g style="mix-blend-mode:multiply" opacity="0.2">
<path d="M66.0686 88.2204L78.5286 56.2504C85.9086 37.3204 104.139 29.1104 124.459 29.1104C144.859 29.1104 163.159 37.4304 170.469 56.4804L182.659 88.2204L160.389 19.6904H88.3286L66.0586 88.2204H66.0686Z" fill="#892334"/>
</g>
<path d="M59.6797 89.6497L66.0697 88.2197L124.37 130.57L182.66 88.2197L189.05 89.6497L124.37 136.65L59.6797 89.6497Z" fill="url(#paint4_linear_1044_26037)"/>
<g style="mix-blend-mode:multiply" opacity="0.6">
<path d="M66.0708 88.2204L88.9308 29.5604C90.0308 26.7304 92.7608 24.8604 95.8008 24.8604H153.251C156.301 24.8604 159.041 26.7404 160.131 29.5904L182.651 88.2204L160.381 19.6904H88.3208L66.0508 88.2204H66.0708Z" fill="#892334"/>
</g>
<path d="M84.3906 13.6104L88.3406 19.6904H160.391L164.341 13.6104H84.3906Z" fill="#681D15"/>
<g style="mix-blend-mode:multiply" opacity="0.35">
<path d="M54.7783 60.8398L47.0583 89.7599C46.4583 92.2499 47.6383 95.5599 49.6983 97.0999L124.368 153.42L43.7383 94.8398L54.7883 60.8499L54.7783 60.8398Z" fill="#9E2C19"/>
</g>
<g style="mix-blend-mode:multiply" opacity="0.6">
<path d="M66.0703 88.2197L121.68 125.68C123.15 126.67 125.57 126.67 127.04 125.68L182.65 88.2197L124.36 130.57L66.0703 88.2197Z" fill="#892334"/>
</g>
<g style="mix-blend-mode:multiply" opacity="0.35">
<path d="M124.371 153.42L196.171 97.9599C201.191 94.2399 202.281 93.4299 200.021 86.2999L185.041 33.3799L205.011 94.8399L124.381 153.42H124.371Z" fill="#9E2C19"/>
</g>
<path d="M88.7305 110.76L124.37 136.65L172.48 101.69L124.37 138.85L88.7305 110.76Z" fill="#FFF5CC"/>
<path d="M121.66 0.0400391H174.2L185.03 33.38L172.19 1.89005L121.66 0.0400391Z" fill="#FFF5CC"/>
<g style="mix-blend-mode:screen">
<path d="M142.571 0.0400391C142.131 4.36004 144.021 9.19004 147.661 13.6H164.351L168.481 26.3C173.711 27.58 178.711 27.62 182.811 26.5L174.211 0.0400391H142.581H142.571Z" fill="#FFF2BB"/>
</g>
<g style="mix-blend-mode:screen">
<path d="M84.3983 107.61C83.1383 110.86 85.4183 115.7 90.0083 119.03C94.5983 122.36 99.9083 123.04 102.598 120.84L84.3883 107.61H84.3983Z" fill="#FFF2BB"/>
</g>
<g style="mix-blend-mode:screen">
<path d="M102.728 129.7C101.958 130.88 99.8278 130.86 97.9778 129.65C96.1278 128.44 95.2378 126.5 96.0078 125.32C96.7778 124.14 98.9078 124.16 100.758 125.37C102.618 126.58 103.498 128.52 102.728 129.7Z" fill="#FFF2BB"/>
</g>
<path d="M66.6797 0.709839L63.6297 25.9398C56.4097 25.8998 50.3797 25.8699 39.5297 25.8799C1.12969 25.9299 0.929688 0.589844 0.929688 0.589844L66.6797 0.709839Z" fill="#681D15"/>
<path d="M66.6797 0.709839L60.1897 20.4199C52.9697 20.3799 51.7797 20.3498 40.9397 20.3598C2.5397 20.4098 0.929688 0.589844 0.929688 0.589844L66.6797 0.709839Z" fill="url(#paint5_radial_1044_26037)"/>
<path d="M56.9496 30.6603L53.9496 55.8903C46.7296 55.8503 55.5095 55.8903 44.6595 55.8903C6.25954 55.9403 6.01953 30.5303 6.01953 30.5303L56.9496 30.6503V30.6603Z" fill="#681D15"/>
<path d="M56.9478 30.6603L50.5278 50.4103C43.3078 50.3703 56.9478 50.3403 46.0978 50.3503C7.69781 50.4003 6.00781 30.5303 6.00781 30.5303L56.9378 30.6503L56.9478 30.6603Z" fill="url(#paint6_radial_1044_26037)"/>
<path d="M47.218 60.61L20.168 60.5C20.168 60.5 24.418 79.5 44.208 85.85L47.228 60.61H47.218Z" fill="#681D15"/>
<path d="M47.218 60.61L20.168 60.5C20.168 60.5 21.008 74.01 40.798 80.37L47.228 60.61H47.218Z" fill="url(#paint7_radial_1044_26037)"/>
<path d="M66.6814 0.709961L69.9214 6.96997L63.6314 25.94L60.1914 20.41L66.6814 0.709961Z" fill="#9E2C19"/>
<path d="M56.9513 30.6602L60.1913 36.8601L53.9413 55.9001L50.5312 50.4202L56.9513 30.6602Z" fill="#9E2C19"/>
<path d="M47.208 60.6201L50.448 66.8201L41.058 95.4301L35.168 97.2401L47.208 60.6201Z" fill="#9E2C19"/>
<path d="M182.07 0.709839L185.12 25.9398C192.34 25.8998 198.37 25.8699 209.22 25.8799C247.62 25.9299 247.82 0.589844 247.82 0.589844L182.07 0.709839Z" fill="#681D15"/>
<path d="M182.07 0.709839L188.56 20.4199C195.78 20.3799 196.97 20.3498 207.81 20.3598C246.21 20.4098 247.82 0.589844 247.82 0.589844L182.07 0.709839Z" fill="url(#paint8_radial_1044_26037)"/>
<path d="M191.799 30.6603L194.799 55.8903C202.019 55.8503 193.239 55.8903 204.079 55.8903C242.479 55.9403 242.719 30.5303 242.719 30.5303L191.789 30.6503L191.799 30.6603Z" fill="#681D15"/>
<path d="M191.801 30.6603L198.221 50.4103C205.441 50.3703 191.801 50.3403 202.651 50.3503C241.051 50.4003 242.741 30.5303 242.741 30.5303L191.811 30.6503L191.801 30.6603Z" fill="url(#paint9_radial_1044_26037)"/>
<path d="M201.529 60.61L228.58 60.5C228.58 60.5 224.329 79.5 204.539 85.85L201.52 60.61H201.529Z" fill="#681D15"/>
<path d="M201.529 60.61L228.58 60.5C228.58 60.5 227.74 74.01 207.95 80.37L201.52 60.61H201.529Z" fill="url(#paint10_radial_1044_26037)"/>
<path style="mix-blend-mode:screen" d="M182.07 0.709839L188.56 20.4199C195.78 20.3799 196.97 20.3498 207.81 20.3598C246.21 20.4098 247.82 0.589844 247.82 0.589844L182.07 0.709839Z" fill="url(#paint11_linear_1044_26037)"/>
<path style="mix-blend-mode:screen" d="M191.801 30.6603L198.221 50.4103C205.441 50.3703 191.801 50.3403 202.651 50.3503C241.051 50.4003 242.741 30.5303 242.741 30.5303L191.811 30.6503L191.801 30.6603Z" fill="url(#paint12_linear_1044_26037)"/>
<path d="M182.068 0.709961L178.828 6.96997L185.118 25.94L188.558 20.41L182.068 0.709961Z" fill="#9E2C19"/>
<path d="M191.799 30.6602L188.559 36.8601L194.809 55.9001L198.219 50.4202L191.799 30.6602Z" fill="#9E2C19"/>
<path d="M201.541 60.6201L198.301 66.8201L207.731 95.5601L213.571 97.2401L201.541 60.6201Z" fill="#9E2C19"/>
<path style="mix-blend-mode:screen" d="M66.6797 0.709839L0.929688 0.589844C0.929688 0.589844 2.5397 20.4098 40.9397 20.3598C51.7897 20.3498 52.9697 20.3799 60.1897 20.4199L66.6797 0.709839Z" fill="url(#paint13_linear_1044_26037)"/>
<path style="mix-blend-mode:screen" d="M50.5311 50.4196L54.3111 38.7695C49.1611 40.4495 44.2811 42.6696 39.7911 45.4196C37.9311 46.5596 35.7511 47.9595 33.3711 49.5295C37.0911 50.0695 41.3111 50.3695 46.1011 50.3695C56.9511 50.3595 43.3111 50.3895 50.5311 50.4295V50.4196Z" fill="url(#paint14_linear_1044_26037)"/>
<g style="mix-blend-mode:multiply" opacity="0.35">
<path d="M56.5898 55.25L73.4298 6.96002C75.1698 2.06002 76.4399 0.770017 81.6299 0.580017L124.36 0.0400391H74.5298L56.5898 55.25Z" fill="#9E2C19"/>
</g>
<g style="mix-blend-mode:screen">
<path d="M139.429 7.58974C135.949 5.05974 131.749 4.89975 130.049 7.22975C128.839 8.89975 129.239 11.3997 130.849 13.6097H143.339C143.149 11.5697 141.739 9.26974 139.419 7.58974H139.429Z" fill="#FFF2BB"/>
</g>
<g style="mix-blend-mode:multiply" opacity="0.35">
<path fill-rule="evenodd" clip-rule="evenodd" d="M196.96 18.91C192.58 18.47 189.53 16.89 187.53 12.97L182.07 0.709961L188.56 20.42C195.78 20.38 196.97 20.35 207.81 20.36C213.93 20.36 219.11 19.87 223.5 19.03C213.98 20.18 204.21 19.64 196.96 18.92V18.91Z" fill="#9E2C19"/>
</g>
<g style="mix-blend-mode:multiply" opacity="0.35">
<path fill-rule="evenodd" clip-rule="evenodd" d="M202.649 50.3601C211.939 50.3701 219.079 49.2101 224.559 47.4601C216.669 49.6501 210.039 49.5002 204.999 49.1902C201.529 48.9802 198.709 46.4302 197.239 43.2802L191.809 30.6602L198.229 50.4102C205.449 50.3702 191.809 50.3402 202.659 50.3502L202.649 50.3601Z" fill="#9E2C19"/>
</g>
<g style="mix-blend-mode:multiply" opacity="0.35">
<path fill-rule="evenodd" clip-rule="evenodd" d="M207.959 80.3701C212.249 78.9901 215.639 77.2801 218.329 75.4401C215.139 76.6501 209.159 77.5301 209.159 77.5301L201.539 60.6201V60.6401L207.959 80.3701Z" fill="#9E2C19"/>
</g>
<g style="mix-blend-mode:multiply" opacity="0.35">
<path d="M40.9397 20.3601C51.7897 20.3501 52.9697 20.3801 60.1897 20.4201L65.3297 4.80008L61.5097 13.3201C59.6797 17.8101 58.5897 19.2901 54.1097 19.3301C49.2797 19.3701 40.1697 19.2701 35.5397 19.0901C15.3797 18.3001 3.50969 9.59008 0.929688 0.580078C0.929688 0.580078 2.5397 20.4001 40.9397 20.3501V20.3601Z" fill="#9E2C19"/>
</g>
<g style="mix-blend-mode:multiply" opacity="0.35">
<path d="M51.3915 44.5901C50.1715 47.1501 48.8616 49.2901 46.0316 49.1901C43.1016 49.0901 34.8815 49.0301 30.1815 47.9701C19.2715 45.5101 12.7616 41.4501 8.35156 36.4701C12.0616 42.3201 21.6115 50.3901 46.1115 50.3601C56.9615 50.3501 43.3216 50.3801 50.5416 50.4201L55.8516 34.0801L51.4016 44.6001L51.3915 44.5901Z" fill="#9E2C19"/>
</g>
<g style="mix-blend-mode:multiply" opacity="0.35">
<path d="M40.7902 80.3702L46.3901 63.1403C45.3401 65.3403 43.2502 70.4202 41.1302 75.1202C39.6902 78.3202 38.3101 77.9202 36.0901 76.9902C25.0401 72.3902 22.5002 66.9202 20.1602 60.4902C20.1602 60.4902 21.0002 74.0002 40.7902 80.3602V80.3702Z" fill="#9E2C19"/>
</g>
<path d="M182.07 0.709839L242.2 1.73984C244.62 1.77984 245.74 3.58984 244.69 5.76984C243.6 8.03984 241.84 10.7599 238.96 13.0999C247.26 7.45985 247.82 0.589844 247.82 0.589844L182.07 0.709839Z" fill="#FFF5CC"/>
<path d="M191.801 30.6696L236.161 31.7096C241.341 31.8196 240.501 34.0196 239.151 36.7196C238.321 38.3796 237.181 40.1996 235.671 41.7196C242.231 36.3796 242.731 30.5596 242.731 30.5596L191.801 30.6796V30.6696Z" fill="#FFF5CC"/>
<g style="mix-blend-mode:screen" opacity="0.5">
<path d="M18.4102 0.590088L66.6801 0.710083L65.0602 5.64011C65.0602 3.11011 63.8602 1.83008 60.9502 1.80008L18.4102 0.580078V0.590088Z" fill="#FFE67B"/>
</g>
<g style="mix-blend-mode:screen" opacity="0.5">
<path d="M18.4102 30.6602H56.9502L55.1801 36.1201L55.3701 34.3102C55.4701 32.6002 54.8601 31.7001 51.7401 31.5501L18.4201 30.6602H18.4102Z" fill="#FFE67B"/>
</g>
<g style="mix-blend-mode:multiply" opacity="0.6">
<path d="M137.701 58.3195L144.371 46.7795V41.2495L131.031 46.7795L124.371 35.2295L117.701 46.7795L104.371 41.2495V46.7795L111.031 58.3195L104.371 64.3395V69.8695H117.701L124.371 81.4195L131.031 69.8695H144.371V64.3395L137.701 58.3195Z" fill="#892334"/>
</g>
<path d="M137.701 52.8002L144.371 41.2502V36.9302L131.031 41.2502L124.371 29.7002L117.701 41.2502L104.371 36.9302V41.2502L111.031 52.8002L104.371 60.0302V64.3402H117.701L124.371 75.8902L131.031 64.3402H144.371V60.0302L137.701 52.8002Z" fill="#9E2C19"/>
<path d="M137.701 48.4799L144.371 36.9299H131.031L124.371 25.3799L117.701 36.9299H104.371L111.031 48.4799L104.371 60.0299H117.701L124.371 71.5699L131.031 60.0299H144.371L137.701 48.4799Z" fill="url(#paint15_radial_1044_26037)"/>
<path d="M144.361 60.0303H131.031V64.3503H144.361V60.0303Z" fill="#681D15"/>
<path d="M117.701 64.3403L124.371 75.8903V71.5703L117.701 60.0303H104.371V64.3403H117.701Z" fill="#681D15"/>
<path d="M104.371 36.9297L111.031 48.4797L109.791 50.6397L104.371 41.2497V36.9297Z" fill="#681D15"/>
<g style="mix-blend-mode:screen" opacity="0.8">
<path d="M124.371 25.3799L130.801 38.0699L144.371 36.9299H131.031L124.371 25.3799Z" fill="#FFE67B"/>
</g>
<path style="mix-blend-mode:screen" d="M117.701 60.0303L124.371 71.5803L131.041 60.0303H138.601C129.051 51.3603 117.991 44.7803 106.451 40.5303L111.041 48.4803L104.371 60.0303H117.701Z" fill="url(#paint16_linear_1044_26037)"/>
<g style="mix-blend-mode:multiply" opacity="0.35">
<path d="M104.371 36.9297L113.481 48.4797L104.371 60.0297L111.031 48.4797L104.371 36.9297Z" fill="#9E2C19"/>
</g>
<path style="mix-blend-mode:screen" d="M124.371 25.3799L118.871 34.8999C125.671 38.3399 132.291 42.3599 138.601 46.9199L144.371 36.9299H131.041L124.371 25.3799Z" fill="url(#paint17_linear_1044_26037)"/>
<g style="mix-blend-mode:screen" opacity="0.5">
<path d="M125.051 54.3394C124.341 56.5794 120.991 57.5295 117.551 56.4395C114.121 55.3595 111.911 52.6595 112.621 50.4195C113.331 48.1795 116.681 47.2295 120.121 48.3195C123.551 49.3995 125.761 52.0994 125.051 54.3394Z" fill="#FCE265"/>
</g>
<g style="mix-blend-mode:multiply" opacity="0.35">
<path d="M124.371 71.5696L130.181 57.3496L144.371 60.0296H131.031L124.371 71.5696Z" fill="#9E2C19"/>
</g>
<g style="mix-blend-mode:screen" opacity="0.5">
<path d="M125.88 59.9501C125.76 60.9301 124.44 61.57 122.95 61.38C121.46 61.19 120.35 60.24 120.47 59.27C120.59 58.29 121.91 57.65 123.4 57.84C124.89 58.03 126 58.9801 125.88 59.9501Z" fill="#FCE265"/>
</g>
<g style="mix-blend-mode:screen" opacity="0.5">
<path d="M104.371 60.0295L118.951 58.7695L124.371 71.5695L117.701 60.0295H104.371Z" fill="#FFE67B"/>
</g>
<g style="mix-blend-mode:screen">
<path d="M188.558 20.4104C193.788 20.3804 195.848 20.3604 200.708 20.3504C207.518 16.0804 212.048 9.75039 212.688 2.37039C212.738 1.79039 212.758 1.22039 212.758 0.650391L182.078 0.710388L188.568 20.4204L188.558 20.4104Z" fill="#FFF2BB"/>
</g>
<g style="mix-blend-mode:multiply" opacity="0.6">
<path d="M124.028 104.26L79.1484 80.9805V86.9805L124.028 119.58L169.578 86.4805V80.4805L124.028 104.26Z" fill="#892334"/>
</g>
<path d="M124.028 98.2605L79.1484 73.9805V80.9805L124.028 113.58L169.578 80.4805V73.4805L124.028 98.2605Z" fill="#9E2C19"/>
<path d="M124.028 91.2604L83.1584 61.6404L79.1484 73.9804L124.028 106.58L169.578 73.4804L165.578 61.1504L124.028 91.2604Z" fill="url(#paint18_radial_1044_26037)"/>
<path d="M221.101 73.3C228.161 67.14 228.591 60.5 228.591 60.5L201.541 60.61L213.581 97.24L127.441 159.82V169.78L236.911 108.83L221.121 73.29L221.101 73.3Z" fill="url(#paint19_radial_1044_26037)"/>
<path d="M35.1698 97.24L47.2198 60.61L20.1698 60.5C20.1698 60.5 20.5898 67.13 27.6398 73.29L11.8398 108.84L121.31 169.79V159.83L35.1698 97.25V97.24Z" fill="url(#paint20_radial_1044_26037)"/>
<path style="mix-blend-mode:screen" d="M35.1698 97.24L47.2198 60.61L20.1698 60.5C20.1698 60.5 20.5898 67.13 27.6398 73.29L11.8398 108.84L121.31 169.79V159.83L35.1698 97.25V97.24Z" fill="url(#paint21_linear_1044_26037)"/>
<path d="M41.058 95.4297L121.308 156.47V159.83L35.168 97.2397L41.058 95.4297Z" fill="url(#paint22_linear_1044_26037)"/>
<path d="M207.73 95.5596L127.43 156.47V159.83L213.57 97.2396L207.73 95.5596Z" fill="url(#paint23_linear_1044_26037)"/>
<path style="mix-blend-mode:screen" d="M221.1 73.3C228.16 67.14 228.59 60.5 228.59 60.5L201.54 60.61L213.58 97.24L187.93 115.87C188.2 116.9 188.46 117.93 188.7 118.97C190.09 124.45 191.28 129.35 192.28 133.69L236.91 108.84L221.12 73.3H221.1Z" fill="url(#paint24_linear_1044_26037)"/>
<path style="mix-blend-mode:screen" d="M169.128 138.38C169.368 135.3 169.448 132.28 169.418 129.31L127.418 159.83V169.79L167.268 147.6C168.228 144.78 168.868 141.72 169.128 138.38Z" fill="url(#paint25_linear_1044_26037)"/>
<path style="mix-blend-mode:screen" d="M159.6 65.4796C162.4 68.5096 165.07 71.6596 167.58 74.9396L169.58 73.4796L165.57 61.1396L159.59 65.4696L159.6 65.4796Z" fill="url(#paint26_linear_1044_26037)"/>
<path style="mix-blend-mode:screen" d="M156.941 82.6699C154.851 79.0599 152.541 75.6399 150.041 72.3999L124.021 91.2499L83.1506 61.6299L79.1406 73.9699L124.021 106.57L156.931 82.6599L156.941 82.6699Z" fill="url(#paint27_linear_1044_26037)"/>
<path d="M79.1484 73.9805L124.028 106.58V113.58L79.1484 80.9805V73.9805Z" fill="#681D15"/>
<path d="M97.8086 72.2599L124.019 94.2798L155.999 68.0898L124.029 91.2599L97.8086 72.2599Z" fill="#FFF5CC"/>
<g style="mix-blend-mode:multiply" opacity="0.35">
<path d="M83.2192 61.6204L81.9292 69.7604C81.7592 71.4704 82.0992 73.5404 83.4292 74.6204L124.019 106.58L79.1992 73.9504L83.2092 61.6104L83.2192 61.6204Z" fill="#9E2C19"/>
</g>
<g style="mix-blend-mode:multiply" opacity="0.35">
<path d="M147.221 89.8301L165.201 74.1601C166.871 72.7301 167.491 71.1701 167.271 68.9901L166.361 63.6201L169.571 73.4901L147.211 89.8401L147.221 89.8301Z" fill="#9E2C19"/>
</g>
<g style="mix-blend-mode:multiply" opacity="0.35">
<path d="M27.6398 73.2898L11.8398 108.84L68.7098 140.5C68.7098 140.5 29.8698 117.31 17.3698 109.39C15.1598 107.99 14.3898 106.78 15.4398 104.38C19.1599 95.8298 27.5498 75.5798 29.1398 72.5298C24.0998 68.6298 22.0198 64.9598 20.1698 60.5098C20.1698 60.5098 20.5898 67.1397 27.6398 73.2997V73.2898Z" fill="#9E2C19"/>
</g>
<g style="mix-blend-mode:screen" opacity="0.5">
<path d="M25.3711 60.5195L47.2211 60.6095L38.7511 86.5295L45.4511 63.3395C45.3911 62.0195 45.0311 61.5696 43.2311 61.4496L25.3711 60.5195Z" fill="#FFE67B"/>
</g>
<path d="M223.929 70.43C228.279 65.24 228.579 60.5 228.579 60.5L201.569 60.61H201.539L223.869 61.56C227.169 61.76 226.569 63 226.189 64.6C225.749 66.45 225.009 68.62 223.929 70.43Z" fill="#FFF5CC"/>
<g style="mix-blend-mode:multiply" opacity="0.35">
<path d="M184.02 138.28L225.69 113.09C233.14 108.61 233.789 107.82 230.599 99.6704L223.599 78.9404L236.89 108.85L184.02 138.28Z" fill="#9E2C19"/>
</g>
<g style="mix-blend-mode:multiply" opacity="0.35">
<path d="M127.43 159.83C127.43 159.83 127.7 161.23 127.88 162.31C128.7 167.08 129.98 166.84 132.75 165.51L148.43 158.1L127.43 169.79V159.83Z" fill="#9E2C19"/>
</g>
<g style="mix-blend-mode:multiply" opacity="0.35">
<path d="M82.168 148L116.368 165.31C119.858 167.22 120.288 166.23 120.988 162.18C121.068 161.72 121.308 160.1 121.308 160.1V169.79L82.168 148Z" fill="#9E2C19"/>
</g>
<path style="mix-blend-mode:screen" d="M6.01953 30.54C6.01953 30.54 6.29954 33.76 9.11954 37.59C13.3095 35.22 17.9795 32.8 22.9695 30.58L6.01953 30.54Z" fill="url(#paint28_linear_1044_26037)"/>
<defs>
<radialGradient id="paint0_radial_1044_26037" cx="0" cy="0" r="1" gradientUnits="userSpaceOnUse" gradientTransform="translate(124.37 76.73) scale(78.68 78.68)">
<stop offset="0.01" stop-color="#E85621"/>
<stop offset="1" stop-color="#E33A0B"/>
</radialGradient>
<radialGradient id="paint1_radial_1044_26037" cx="0" cy="0" r="1" gradientUnits="userSpaceOnUse" gradientTransform="translate(136.2 54.61) scale(62.09 62.09)">
<stop offset="0.01" stop-color="#E85621"/>
<stop offset="1" stop-color="#E33A0B"/>
</radialGradient>
<linearGradient id="paint2_linear_1044_26037" x1="198.36" y1="-24.84" x2="118.15" y2="74.1" gradientUnits="userSpaceOnUse">
<stop stop-color="#FFA369"/>
<stop offset="0.13" stop-color="#FD9D65"/>
<stop offset="0.29" stop-color="#F98E5C"/>
<stop offset="0.47" stop-color="#F3764C"/>
<stop offset="0.65" stop-color="#EA5335"/>
<stop offset="0.85" stop-color="#DE2819"/>
<stop offset="1" stop-color="#D40000"/>
</linearGradient>
<linearGradient id="paint3_linear_1044_26037" x1="70.6287" y1="135.41" x2="140.749" y2="47.5198" gradientUnits="userSpaceOnUse">
<stop stop-color="#D40000"/>
<stop offset="1" stop-color="#FFAF47"/>
</linearGradient>
<linearGradient id="paint4_linear_1044_26037" x1="124.37" y1="77.0097" x2="124.37" y2="103.73" gradientUnits="userSpaceOnUse">
<stop offset="0.63" stop-color="#F7814A"/>
<stop offset="1" stop-color="#F7E399"/>
</linearGradient>
<radialGradient id="paint5_radial_1044_26037" cx="0" cy="0" r="1" gradientUnits="userSpaceOnUse" gradientTransform="translate(33.7997 10.4999) scale(24.28 24.28)">
<stop offset="0.01" stop-color="#E85621"/>
<stop offset="1" stop-color="#E33A0B"/>
</radialGradient>
<radialGradient id="paint6_radial_1044_26037" cx="0" cy="0" r="1" gradientUnits="userSpaceOnUse" gradientTransform="translate(31.4778 40.4803) scale(19.33 19.33)">
<stop offset="0.01" stop-color="#E85621"/>
<stop offset="1" stop-color="#E33A0B"/>
</radialGradient>
<radialGradient id="paint7_radial_1044_26037" cx="0" cy="0" r="1" gradientUnits="userSpaceOnUse" gradientTransform="translate(33.688 70.44) scale(11.87 11.87)">
<stop offset="0.01" stop-color="#E85621"/>
<stop offset="1" stop-color="#E33A0B"/>
</radialGradient>
<radialGradient id="paint8_radial_1044_26037" cx="0" cy="0" r="1" gradientUnits="userSpaceOnUse" gradientTransform="translate(214.95 10.4999) scale(24.28 24.28)">
<stop offset="0.01" stop-color="#E85621"/>
<stop offset="1" stop-color="#E33A0B"/>
</radialGradient>
<radialGradient id="paint9_radial_1044_26037" cx="0" cy="0" r="1" gradientUnits="userSpaceOnUse" gradientTransform="translate(217.271 40.4803) scale(19.33 19.33)">
<stop offset="0.01" stop-color="#E85621"/>
<stop offset="1" stop-color="#E33A0B"/>
</radialGradient>
<radialGradient id="paint10_radial_1044_26037" cx="0" cy="0" r="1" gradientUnits="userSpaceOnUse" gradientTransform="translate(215.06 70.44) scale(11.87 11.87)">
<stop offset="0.01" stop-color="#E85621"/>
<stop offset="1" stop-color="#E33A0B"/>
</radialGradient>
<linearGradient id="paint11_linear_1044_26037" x1="223.25" y1="-9.21016" x2="145.68" y2="96.2099" gradientUnits="userSpaceOnUse">
<stop stop-color="#FFA369"/>
<stop offset="0.13" stop-color="#FD9D65"/>
<stop offset="0.29" stop-color="#F98E5C"/>
<stop offset="0.47" stop-color="#F3764C"/>
<stop offset="0.65" stop-color="#EA5335"/>
<stop offset="0.85" stop-color="#DE2819"/>
<stop offset="1" stop-color="#D40000"/>
</linearGradient>
<linearGradient id="paint12_linear_1044_26037" x1="239.051" y1="2.42027" x2="161.491" y2="107.84" gradientUnits="userSpaceOnUse">
<stop stop-color="#FFA369"/>
<stop offset="0.13" stop-color="#FD9D65"/>
<stop offset="0.29" stop-color="#F98E5C"/>
<stop offset="0.47" stop-color="#F3764C"/>
<stop offset="0.65" stop-color="#EA5335"/>
<stop offset="0.85" stop-color="#DE2819"/>
<stop offset="1" stop-color="#D40000"/>
</linearGradient>
<linearGradient id="paint13_linear_1044_26037" x1="107.65" y1="-94.2702" x2="30.0796" y2="11.1598" gradientUnits="userSpaceOnUse">
<stop stop-color="#FFA369"/>
<stop offset="0.13" stop-color="#FD9D65"/>
<stop offset="0.29" stop-color="#F98E5C"/>
<stop offset="0.47" stop-color="#F3764C"/>
<stop offset="0.65" stop-color="#EA5335"/>
<stop offset="0.85" stop-color="#DE2819"/>
<stop offset="1" stop-color="#D40000"/>
</linearGradient>
<linearGradient id="paint14_linear_1044_26037" x1="9.22109" y1="99.2495" x2="69.4111" y2="8.62953" gradientUnits="userSpaceOnUse">
<stop stop-color="#D40000"/>
<stop offset="1" stop-color="#FFAF47"/>
</linearGradient>
<radialGradient id="paint15_radial_1044_26037" cx="0" cy="0" r="1" gradientUnits="userSpaceOnUse" gradientTransform="translate(124.371 48.4799) scale(21.6 21.6)">
<stop offset="0.01" stop-color="#E85621"/>
<stop offset="1" stop-color="#E33A0B"/>
</radialGradient>
<linearGradient id="paint16_linear_1044_26037" x1="70.9611" y1="129.14" x2="131.481" y2="36.5603" gradientUnits="userSpaceOnUse">
<stop stop-color="#D40000"/>
<stop offset="1" stop-color="#FFAF47"/>
</linearGradient>
<linearGradient id="paint17_linear_1044_26037" x1="185.811" y1="-56.7702" x2="113.411" y2="67.0599" gradientUnits="userSpaceOnUse">
<stop stop-color="#FFA369"/>
<stop offset="0.13" stop-color="#FD9D65"/>
<stop offset="0.29" stop-color="#F98E5C"/>
<stop offset="0.47" stop-color="#F3764C"/>
<stop offset="0.65" stop-color="#EA5335"/>
<stop offset="0.85" stop-color="#DE2819"/>
<stop offset="1" stop-color="#D40000"/>
</linearGradient>
<radialGradient id="paint18_radial_1044_26037" cx="0" cy="0" r="1" gradientUnits="userSpaceOnUse" gradientTransform="translate(124.368 83.8604) scale(35.78 35.78)">
<stop offset="0.01" stop-color="#E85621"/>
<stop offset="1" stop-color="#E33A0B"/>
</radialGradient>
<radialGradient id="paint19_radial_1044_26037" cx="0" cy="0" r="1" gradientUnits="userSpaceOnUse" gradientTransform="translate(182.161 115.14) scale(54.69 54.69)">
<stop offset="0.01" stop-color="#E85621"/>
<stop offset="1" stop-color="#E33A0B"/>
</radialGradient>
<radialGradient id="paint20_radial_1044_26037" cx="0" cy="0" r="1" gradientUnits="userSpaceOnUse" gradientTransform="translate(66.5698 115.14) scale(54.69 54.69)">
<stop offset="0.01" stop-color="#E85621"/>
<stop offset="1" stop-color="#E33A0B"/>
</radialGradient>
<linearGradient id="paint21_linear_1044_26037" x1="52.4398" y1="143.87" x2="123.25" y2="32.7" gradientUnits="userSpaceOnUse">
<stop stop-color="#D40000"/>
<stop offset="1" stop-color="#FFAF47"/>
</linearGradient>
<linearGradient id="paint22_linear_1044_26037" x1="35.168" y1="127.63" x2="121.308" y2="127.63" gradientUnits="userSpaceOnUse">
<stop offset="0.09" stop-color="#F7814A"/>
<stop offset="0.13" stop-color="#F7874F"/>
<stop offset="0.39" stop-color="#F7AE6F"/>
<stop offset="0.64" stop-color="#F7CB86"/>
<stop offset="0.85" stop-color="#F7DC94"/>
<stop offset="1" stop-color="#F7E399"/>
</linearGradient>
<linearGradient id="paint23_linear_1044_26037" x1="213.56" y1="127.69" x2="127.42" y2="127.69" gradientUnits="userSpaceOnUse">
<stop offset="0.09" stop-color="#F7814A"/>
<stop offset="0.13" stop-color="#F7874F"/>
<stop offset="0.39" stop-color="#F7AE6F"/>
<stop offset="0.64" stop-color="#F7CB86"/>
<stop offset="0.85" stop-color="#F7DC94"/>
<stop offset="1" stop-color="#F7E399"/>
</linearGradient>
<linearGradient id="paint24_linear_1044_26037" x1="264.5" y1="34.88" x2="181.82" y2="125.87" gradientUnits="userSpaceOnUse">
<stop stop-color="#FFA369"/>
<stop offset="0.13" stop-color="#FD9D65"/>
<stop offset="0.29" stop-color="#F98E5C"/>
<stop offset="0.47" stop-color="#F3764C"/>
<stop offset="0.65" stop-color="#EA5335"/>
<stop offset="0.85" stop-color="#DE2819"/>
<stop offset="1" stop-color="#D40000"/>
</linearGradient>
<linearGradient id="paint25_linear_1044_26037" x1="124.418" y1="189.72" x2="195.228" y2="78.5496" gradientUnits="userSpaceOnUse">
<stop stop-color="#D40000"/>
<stop offset="1" stop-color="#FFAF47"/>
</linearGradient>
<linearGradient id="paint26_linear_1044_26037" x1="220.35" y1="-25.8903" x2="147.95" y2="97.9396" gradientUnits="userSpaceOnUse">
<stop stop-color="#FFA369"/>
<stop offset="0.13" stop-color="#FD9D65"/>
<stop offset="0.29" stop-color="#F98E5C"/>
<stop offset="0.47" stop-color="#F3764C"/>
<stop offset="0.65" stop-color="#EA5335"/>
<stop offset="0.85" stop-color="#DE2819"/>
<stop offset="1" stop-color="#D40000"/>
</linearGradient>
<linearGradient id="paint27_linear_1044_26037" x1="79.2506" y1="134.56" x2="139.771" y2="41.9899" gradientUnits="userSpaceOnUse">
<stop stop-color="#D40000"/>
<stop offset="1" stop-color="#FFAF47"/>
</linearGradient>
<linearGradient id="paint28_linear_1044_26037" x1="106.8" y1="-94.8897" x2="29.2298" y2="10.5303" gradientUnits="userSpaceOnUse">
<stop stop-color="#FFA369"/>
<stop offset="0.13" stop-color="#FD9D65"/>
<stop offset="0.29" stop-color="#F98E5C"/>
<stop offset="0.47" stop-color="#F3764C"/>
<stop offset="0.65" stop-color="#EA5335"/>
<stop offset="0.85" stop-color="#DE2819"/>
<stop offset="1" stop-color="#D40000"/>
</linearGradient>
</defs>
</svg>
