<svg width="247" height="154" viewBox="0 0 247 154" fill="none" xmlns="http://www.w3.org/2000/svg">
<path d="M123.441 148.88L199.661 93.4996L170.551 3.88965H76.3309L47.2109 93.4996L123.441 148.88Z" fill="#54101A"/>
<g style="mix-blend-mode:multiply" opacity="0.3">
<path d="M83.5 13.71L123.48 136.75L163.45 13.71H83.5Z" fill="#8C1919"/>
</g>
<path d="M173.271 0.139648H73.6008L42.8008 94.9296L123.431 153.51L204.061 94.9296L173.261 0.139648H173.271ZM58.7508 89.7496L83.4608 13.7096H163.421L188.131 89.7496L123.451 136.75L58.7608 89.7496H58.7508Z" fill="url(#paint0_radial_1044_26446)"/>
<path d="M173.27 0.139648H73.6005L66.4805 22.0696C70.9105 22.2696 75.5005 22.8296 80.2005 23.7296L83.4605 13.7096H163.42L188.13 89.7496L178.75 96.5696C180.86 100.67 182.73 104.91 184.33 109.28L204.07 94.9396L173.27 0.149628V0.139648Z" fill="url(#paint1_radial_1044_26446)"/>
<path style="mix-blend-mode:screen" d="M173.27 0.139648H73.6005L66.4805 22.0696C70.9105 22.2696 75.5005 22.8296 80.2005 23.7296L83.4605 13.7096H163.42L188.13 89.7496L178.75 96.5696C180.86 100.67 182.73 104.91 184.33 109.28L204.07 94.9396L173.27 0.149628V0.139648Z" fill="url(#paint2_linear_1044_26446)"/>
<path style="mix-blend-mode:screen" d="M167.799 121.279C167.329 115.999 166.539 110.969 165.479 106.199L123.429 136.749L58.7391 89.7494L76.4791 35.1494C71.4391 35.2694 66.4791 35.8394 61.6691 36.8194L42.7891 94.9294L123.419 153.509L167.789 121.269L167.799 121.279Z" fill="url(#paint3_linear_1044_26446)"/>
<path d="M58.75 89.75L65.14 88.31L87.41 19.79H159.46L181.73 88.31L188.12 89.75L163.41 13.71H83.46L58.75 89.75Z" fill="#9B1B2E"/>
<g style="mix-blend-mode:multiply" opacity="0.2">
<path d="M65.1389 88.3093L77.5989 56.3393C84.9789 37.4093 103.209 29.1993 123.529 29.1993C143.929 29.1993 162.229 37.5193 169.539 56.5693L181.729 88.3093L159.459 19.7793H87.3989L65.1289 88.3093H65.1389Z" fill="#2753A0"/>
</g>
<path d="M58.75 89.7496L65.14 88.3096L123.44 130.67L181.73 88.3096L188.12 89.7496L123.44 136.75L58.75 89.7496Z" fill="url(#paint4_linear_1044_26446)"/>
<g style="mix-blend-mode:multiply" opacity="0.6">
<path d="M65.1411 88.3093L88.0011 29.6493C89.1011 26.8193 91.8311 24.9493 94.8711 24.9493H152.321C155.371 24.9493 158.111 26.8293 159.201 29.6793L181.721 88.3093L159.451 19.7793H87.3911L65.1211 88.3093H65.1411Z" fill="#2753A0"/>
</g>
<path d="M83.4609 13.71L87.4109 19.79H159.461L163.411 13.71H83.4609Z" fill="#661625"/>
<g style="mix-blend-mode:multiply" opacity="0.35">
<path d="M53.8486 60.9395L46.1286 89.8594C45.5286 92.3494 46.7086 95.6595 48.7686 97.1995L123.439 153.519L42.8086 94.9395L53.8586 60.9495L53.8486 60.9395Z" fill="#9E2C19"/>
</g>
<g style="mix-blend-mode:multiply" opacity="0.6">
<path d="M65.1406 88.3096L120.751 125.77C122.221 126.76 124.641 126.76 126.111 125.77L181.721 88.3096L123.431 130.66L65.1406 88.3096Z" fill="#2753A0"/>
</g>
<g style="mix-blend-mode:multiply" opacity="0.35">
<path d="M123.441 153.51L195.241 98.0497C200.261 94.3297 201.351 93.5197 199.091 86.3897L184.111 33.4697L204.081 94.9297L123.451 153.51H123.441Z" fill="#9E2C19"/>
</g>
<path d="M87.8008 110.86L123.441 136.75L171.551 101.79L123.441 138.94L87.8008 110.86Z" fill="#F3FEFF"/>
<path d="M120.73 0.139648H173.27L184.1 33.4696L171.26 1.98962L120.73 0.139648Z" fill="#F3FEFF"/>
<g style="mix-blend-mode:screen">
<path d="M141.641 0.139648C141.201 4.45965 143.091 9.28963 146.721 13.7096H163.411L167.541 26.4096C172.771 27.6896 177.771 27.7296 181.871 26.6096L173.271 0.149628H141.641V0.139648Z" fill="white"/>
</g>
<g style="mix-blend-mode:screen">
<path d="M83.4686 107.71C82.2086 110.96 84.4886 115.8 89.0786 119.13C93.6686 122.46 98.9786 123.14 101.669 120.94L83.4586 107.71H83.4686Z" fill="white"/>
</g>
<g style="mix-blend-mode:screen">
<path d="M101.799 129.799C101.029 130.979 98.8995 130.959 97.0495 129.749C95.1895 128.539 94.3095 126.599 95.0795 125.419C95.8495 124.239 97.9795 124.259 99.8295 125.469C101.689 126.679 102.569 128.619 101.799 129.799Z" fill="white"/>
</g>
<path d="M65.75 0.809448L62.7 26.0395C55.48 25.9995 49.45 25.9695 38.6 25.9795C0.199989 26.0295 0 0.689453 0 0.689453L65.75 0.809448Z" fill="#661625"/>
<path d="M65.75 0.809204L59.26 20.5192C52.04 20.4792 50.85 20.4492 40.01 20.4692C1.60999 20.5192 0 0.699219 0 0.699219L65.75 0.819214V0.809204Z" fill="url(#paint5_radial_1044_26446)"/>
<path d="M56.0199 30.7599L53.0199 55.9899C45.7999 55.9499 54.5798 55.9899 43.7298 55.9899C5.32984 56.0399 5.08984 30.6299 5.08984 30.6299L56.0199 30.7499V30.7599Z" fill="#661625"/>
<path d="M56.0181 30.7599L49.5981 50.5099C42.3781 50.4699 56.0181 50.4399 45.1681 50.4499C6.76813 50.4999 5.07812 30.6299 5.07812 30.6299L56.0081 30.7499L56.0181 30.7599Z" fill="url(#paint6_radial_1044_26446)"/>
<path d="M46.2883 60.7096L19.2383 60.5996C19.2383 60.5996 23.4883 79.5996 43.2783 85.9496L46.2983 60.7096H46.2883Z" fill="#661625"/>
<path d="M46.2883 60.7096L19.2383 60.5996C19.2383 60.5996 20.0783 74.1096 39.8683 80.4696L46.2983 60.7096H46.2883Z" fill="url(#paint7_radial_1044_26446)"/>
<path d="M65.7517 0.80957L68.9917 7.06958L62.7017 26.0296L59.2617 20.5096L65.7517 0.80957Z" fill="#9B1B2E"/>
<path d="M56.0216 30.7598L59.2616 36.9597L53.0116 55.9998L49.6016 50.5098L56.0216 30.7598Z" fill="#9B1B2E"/>
<path d="M46.2794 60.7197L49.5194 66.9197L43.2694 85.9497L39.8594 80.4697L46.2794 60.7197Z" fill="#9B1B2E"/>
<path d="M181.141 0.809448L184.191 26.0395C191.411 25.9995 197.441 25.9695 208.291 25.9795C246.691 26.0295 246.891 0.689453 246.891 0.689453L181.141 0.809448Z" fill="#661625"/>
<path d="M181.141 0.809204L187.631 20.5192C194.851 20.4792 196.041 20.4492 206.881 20.4692C245.281 20.5192 246.891 0.699219 246.891 0.699219L181.141 0.819214V0.809204Z" fill="url(#paint8_radial_1044_26446)"/>
<path d="M190.871 30.7599L193.871 55.9899C201.091 55.9499 192.311 55.9899 203.161 55.9899C241.561 56.0399 241.801 30.6299 241.801 30.6299L190.871 30.7499V30.7599Z" fill="#661625"/>
<path d="M190.871 30.7599L197.291 50.5099C204.511 50.4699 190.871 50.4399 201.721 50.4499C240.121 50.4999 241.811 30.6299 241.811 30.6299L190.881 30.7499L190.871 30.7599Z" fill="url(#paint9_radial_1044_26446)"/>
<path d="M200.6 60.7096L227.65 60.5996C227.65 60.5996 223.4 79.5996 203.61 85.9496L200.59 60.7096H200.6Z" fill="#661625"/>
<path d="M200.6 60.7096L227.65 60.5996C227.65 60.5996 226.81 74.1096 207.02 80.4696L200.59 60.7096H200.6Z" fill="url(#paint10_radial_1044_26446)"/>
<path style="mix-blend-mode:screen" d="M181.141 0.809204L187.631 20.5192C194.851 20.4792 196.041 20.4492 206.881 20.4692C245.281 20.5192 246.891 0.699219 246.891 0.699219L181.141 0.819214V0.809204Z" fill="url(#paint11_linear_1044_26446)"/>
<path style="mix-blend-mode:screen" d="M190.871 30.7599L197.291 50.5099C204.511 50.4699 190.871 50.4399 201.721 50.4499C240.121 50.4999 241.811 30.6299 241.811 30.6299L190.881 30.7499L190.871 30.7599Z" fill="url(#paint12_linear_1044_26446)"/>
<path style="mix-blend-mode:screen" d="M200.6 60.7096L227.65 60.5996C227.65 60.5996 226.81 74.1096 207.02 80.4696L200.59 60.7096H200.6Z" fill="url(#paint13_linear_1044_26446)"/>
<path d="M181.138 0.80957L177.898 7.06958L184.188 26.0296L187.628 20.5096L181.138 0.80957Z" fill="#9B1B2E"/>
<path d="M190.869 30.7598L187.629 36.9597L193.869 55.9998L197.289 50.5098L190.869 30.7598Z" fill="#9B1B2E"/>
<path d="M200.611 60.7197L197.371 66.9197L203.621 85.9497L207.031 80.4697L200.611 60.7197Z" fill="#9B1B2E"/>
<path style="mix-blend-mode:screen" d="M65.75 0.809448L0 0.689453C0 0.689453 1.60999 20.5094 40.01 20.4594C50.86 20.4494 52.04 20.4794 59.26 20.5194L65.75 0.809448Z" fill="url(#paint14_linear_1044_26446)"/>
<path style="mix-blend-mode:screen" d="M5.08984 30.6396C5.08984 30.6396 5.36984 33.8596 8.18984 37.6896C12.3798 35.3196 17.0498 32.8996 22.0398 30.6796L5.08984 30.6396Z" fill="url(#paint15_linear_1044_26446)"/>
<path style="mix-blend-mode:screen" d="M46.2883 60.7096L19.2383 60.5996C19.2383 60.5996 20.0783 74.1096 39.8683 80.4696L46.2983 60.7096H46.2883Z" fill="url(#paint16_linear_1044_26446)"/>
<path style="mix-blend-mode:screen" d="M49.6014 50.5094L53.3814 38.8594C48.2314 40.5394 43.3514 42.7594 38.8614 45.5094C37.0014 46.6494 34.8214 48.0494 32.4414 49.6194C36.1614 50.1594 40.3814 50.4594 45.1714 50.4594C56.0214 50.4494 42.3814 50.4794 49.6014 50.5194V50.5094Z" fill="url(#paint17_linear_1044_26446)"/>
<g style="mix-blend-mode:multiply" opacity="0.35">
<path d="M55.6602 55.3496L72.5002 7.05963C74.2402 2.15963 75.5101 0.869626 80.7001 0.679626L123.43 0.139648H73.6001L55.6602 55.3496Z" fill="#9E2C19"/>
</g>
<g style="mix-blend-mode:screen">
<path d="M138.499 7.67958C135.019 5.14958 130.819 4.9896 129.119 7.3196C127.909 8.9896 128.309 11.4896 129.919 13.6996H142.409C142.219 11.6596 140.809 9.35958 138.489 7.67958H138.499Z" fill="white"/>
</g>
<g style="mix-blend-mode:multiply" opacity="0.35">
<path fill-rule="evenodd" clip-rule="evenodd" d="M196.031 19.0096C191.651 18.5696 188.601 16.9896 186.601 13.0696L181.141 0.80957L187.631 20.5196C194.851 20.4796 196.041 20.4496 206.881 20.4596C213.001 20.4596 218.181 19.9696 222.571 19.1296C213.051 20.2796 203.281 19.7396 196.031 19.0196V19.0096Z" fill="#9E2C19"/>
</g>
<g style="mix-blend-mode:multiply" opacity="0.35">
<path fill-rule="evenodd" clip-rule="evenodd" d="M201.719 50.4597C211.009 50.4697 218.149 49.3098 223.629 47.5598C215.739 49.7498 209.109 49.5998 204.069 49.2898C200.599 49.0798 197.779 46.5298 196.309 43.3798L190.879 30.7598L197.299 50.5098C204.519 50.4698 190.879 50.4398 201.729 50.4498L201.719 50.4597Z" fill="#9E2C19"/>
</g>
<g style="mix-blend-mode:multiply" opacity="0.35">
<path fill-rule="evenodd" clip-rule="evenodd" d="M207.029 80.4697C211.319 79.0897 214.709 77.3797 217.399 75.5397C214.209 76.7497 208.229 77.6297 208.229 77.6297L200.609 60.7197V60.7397L207.029 80.4697Z" fill="#9E2C19"/>
</g>
<g style="mix-blend-mode:multiply" opacity="0.35">
<path d="M40.01 20.4597C50.86 20.4497 52.04 20.4797 59.26 20.5197L64.4 4.89969L60.58 13.4197C58.75 17.9097 57.66 19.3897 53.18 19.4297C48.35 19.4697 39.24 19.3697 34.61 19.1897C14.45 18.3997 2.58 9.68969 0 0.679688C0 0.679688 1.60999 20.4997 40.01 20.4497V20.4597Z" fill="#9E2C19"/>
</g>
<g style="mix-blend-mode:multiply" opacity="0.35">
<path d="M50.4619 44.6897C49.2419 47.2497 47.9319 49.3897 45.1019 49.2897C42.1719 49.1897 33.9519 49.1297 29.2519 48.0697C18.3419 45.6097 11.8319 41.5497 7.42188 36.5697C11.1319 42.4197 20.6819 50.4897 45.1819 50.4597C56.0319 50.4497 42.3919 50.4797 49.6119 50.5197L54.9219 34.1797L50.4719 44.6997L50.4619 44.6897Z" fill="#9E2C19"/>
</g>
<g style="mix-blend-mode:multiply" opacity="0.35">
<path d="M39.8605 80.4698L45.4605 63.2398C44.4105 65.4398 42.3205 70.5198 40.2005 75.2198C38.7605 78.4198 37.3805 78.0198 35.1605 77.0898C24.1105 72.4898 21.5705 67.0198 19.2305 60.5898C19.2305 60.5898 20.0705 74.0998 39.8605 80.4598V80.4698Z" fill="#9E2C19"/>
</g>
<path d="M181.141 0.809448L241.271 1.83945C243.691 1.87945 244.811 3.68945 243.761 5.86945C242.671 8.13945 240.911 10.8595 238.031 13.1995C246.331 7.55946 246.891 0.689453 246.891 0.689453L181.141 0.809448Z" fill="#F3FEFF"/>
<path d="M190.871 30.7594L235.231 31.7994C240.411 31.9094 239.571 34.1094 238.221 36.8094C237.391 38.4694 236.251 40.2894 234.741 41.8094C241.301 36.4694 241.801 30.6494 241.801 30.6494L190.871 30.7694V30.7594Z" fill="#F3FEFF"/>
<path d="M222.999 70.5296C227.349 65.3396 227.649 60.5996 227.649 60.5996L200.639 60.7096H200.609L222.939 61.6596C226.239 61.8596 225.639 63.0996 225.259 64.6996C224.819 66.5496 224.079 68.7196 222.999 70.5296Z" fill="#F3FEFF"/>
<g style="mix-blend-mode:screen" opacity="0.5">
<path d="M17.4805 0.689697L65.7505 0.809692L64.1305 5.73969C64.1305 3.20969 62.9305 1.92969 60.0205 1.89969L17.4805 0.679688V0.689697Z" fill="#F3FAFF"/>
</g>
<g style="mix-blend-mode:screen" opacity="0.5">
<path d="M17.4805 30.7598H56.0205L54.2505 36.2198L54.4405 34.4098C54.5405 32.6998 53.9305 31.7997 50.8105 31.6497L17.4905 30.7598H17.4805Z" fill="#F3FAFF"/>
</g>
<g style="mix-blend-mode:screen" opacity="0.5">
<path d="M24.4414 60.6194L46.2914 60.7094L44.6314 65.7994L44.5314 63.4294C44.4714 62.1094 44.1114 61.6594 42.3114 61.5394L24.4514 60.6094L24.4414 60.6194Z" fill="#F3FAFF"/>
</g>
<g style="mix-blend-mode:multiply" opacity="0.6">
<path d="M157.651 89.5699L163.541 79.3699V74.4899L151.771 79.3699L145.881 69.1699L139.991 79.3699L128.211 74.4899V79.3699L134.101 89.5699L128.211 94.8799V99.7599H139.991L145.881 109.96L151.771 99.7599H163.541V94.8799L157.651 89.5699Z" fill="#2753A0"/>
</g>
<path d="M157.651 84.68L163.541 74.49V70.67L151.771 74.49L145.881 64.29L139.991 74.49L128.211 70.67V74.49L134.101 84.68L128.211 91.07V94.88H139.991L145.881 105.08L151.771 94.88H163.541V91.07L157.651 84.68Z" fill="#9B1B2E"/>
<path d="M157.651 80.8697L163.541 70.6697H151.771L145.881 60.4697L139.991 70.6697H128.211L134.101 80.8697L128.211 91.0697H139.991L145.881 101.27L151.771 91.0697H163.541L157.651 80.8697Z" fill="url(#paint18_radial_1044_26446)"/>
<path style="mix-blend-mode:screen" d="M143.171 65.1592L139.991 70.6692H128.211L134.101 80.8692L128.211 91.0692H139.991L145.881 101.269L151.771 91.0692H158.671C154.751 81.0492 149.451 72.4292 143.171 65.1592Z" fill="url(#paint19_linear_1044_26446)"/>
<path d="M163.55 91.0693H151.77V94.8793H163.55V91.0693Z" fill="#661625"/>
<path d="M139.991 94.8793L145.881 105.079V101.269L139.991 91.0693H128.211V94.8793H139.991Z" fill="#661625"/>
<path d="M128.211 70.6699L134.101 80.8699L133.001 82.7799L128.211 74.4899V70.6699Z" fill="#661625"/>
<g style="mix-blend-mode:multiply" opacity="0.35">
<path d="M128.211 70.6699L136.261 80.8699L128.211 91.0699L134.101 80.8699L128.211 70.6699Z" fill="#9E2C19"/>
</g>
<g style="mix-blend-mode:screen" opacity="0.8">
<path d="M145.879 60.4697L151.559 71.6697L163.539 70.6697H151.769L145.879 60.4697Z" fill="#F3FAFF"/>
</g>
<g style="mix-blend-mode:screen" opacity="0.5">
<path d="M128.211 91.07L141.101 89.96L145.881 101.27L139.991 91.07H128.211Z" fill="#F3FAFF"/>
</g>
<g style="mix-blend-mode:multiply" opacity="0.35">
<path d="M145.879 101.27L151.009 88.71L163.539 91.07H151.769L145.879 101.27Z" fill="#9E2C19"/>
</g>
<g style="mix-blend-mode:multiply" opacity="0.6">
<path d="M112.792 89.5699L118.682 79.3699V74.4899L106.902 79.3699L101.012 69.1699L95.1216 79.3699L83.3516 74.4899V79.3699L89.2416 89.5699L83.3516 94.8799V99.7599H95.1216L101.012 109.96L106.902 99.7599H118.682V94.8799L112.792 89.5699Z" fill="#2753A0"/>
</g>
<path d="M112.792 84.68L118.682 74.49V70.67L106.902 74.49L101.012 64.29L95.1216 74.49L83.3516 70.67V74.49L89.2416 84.68L83.3516 91.07V94.88H95.1216L101.012 105.08L106.902 94.88H118.682V91.07L112.792 84.68Z" fill="#9B1B2E"/>
<path d="M112.792 80.8697L118.682 70.6697H106.902L101.012 60.4697L95.1216 70.6697H83.3516L89.2416 80.8697L83.3516 91.0697H95.1216L101.012 101.27L106.902 91.0697H118.682L112.792 80.8697Z" fill="url(#paint20_radial_1044_26446)"/>
<path style="mix-blend-mode:screen" d="M112.792 80.8697L118.682 70.6697H106.902L101.012 60.4697L95.1216 70.6697H83.3516L89.2416 80.8697L83.3516 91.0697H95.1216L101.012 101.27L106.902 91.0697H118.682L112.792 80.8697Z" fill="url(#paint21_linear_1044_26446)"/>
<path d="M118.678 91.0693H106.898V94.8793H118.678V91.0693Z" fill="#661625"/>
<path d="M95.1216 94.8793L101.012 105.079V101.269L95.1216 91.0693H83.3516V94.8793H95.1216Z" fill="#661625"/>
<path d="M83.3516 70.6699L89.2416 80.8699L88.1316 82.7799L83.3516 74.4899V70.6699Z" fill="#661625"/>
<g style="mix-blend-mode:multiply" opacity="0.35">
<path d="M83.3516 70.6699L91.4016 80.8699L83.3516 91.0699L89.2416 80.8699L83.3516 70.6699Z" fill="#9E2C19"/>
</g>
<g style="mix-blend-mode:screen" opacity="0.8">
<path d="M101.012 60.4697L106.692 71.6697L118.682 70.6697H106.902L101.012 60.4697Z" fill="#F3FAFF"/>
</g>
<g style="mix-blend-mode:screen" opacity="0.5">
<path d="M83.3516 91.07L96.2316 89.96L101.012 101.27L95.1216 91.07H83.3516Z" fill="#F3FAFF"/>
</g>
<g style="mix-blend-mode:multiply" opacity="0.35">
<path d="M101.012 101.27L106.142 88.71L118.682 91.07H106.902L101.012 101.27Z" fill="#9E2C19"/>
</g>
<g style="mix-blend-mode:multiply" opacity="0.6">
<path d="M135.338 50.8492L141.228 40.6492V35.7692L129.448 40.6492L123.558 30.4492L117.668 40.6492L105.898 35.7692V40.6492L111.778 50.8492L105.898 56.1692V61.0492H117.668L123.558 71.2492L129.448 61.0492H141.228V56.1692L135.338 50.8492Z" fill="#2753A0"/>
</g>
<path d="M135.338 45.9693L141.228 35.7693V31.9493L129.448 35.7693L123.558 25.5693L117.668 35.7693L105.898 31.9493V35.7693L111.778 45.9693L105.898 52.3493V56.1693H117.668L123.558 66.3593L129.448 56.1693H141.228V52.3493L135.338 45.9693Z" fill="#9B1B2E"/>
<path d="M135.338 42.15L141.228 31.95H129.448L123.558 21.75L117.668 31.95H105.898L111.778 42.15L105.898 52.35H117.668L123.558 62.55L129.448 52.35H141.228L135.338 42.15Z" fill="url(#paint22_radial_1044_26446)"/>
<path style="mix-blend-mode:screen" d="M123.561 62.5497L129.431 52.3797C123.871 48.2497 117.921 44.8697 111.741 42.2197L105.891 52.3497H117.671L123.561 62.5497Z" fill="url(#paint23_linear_1044_26446)"/>
<path style="mix-blend-mode:screen" d="M129.45 31.95L123.56 21.75L117.67 31.95H108.43C119.46 36.66 130.2 42.87 140.1 50.4L135.34 42.15L141.23 31.95H129.45Z" fill="url(#paint24_linear_1044_26446)"/>
<path d="M141.229 52.3496H129.449V56.1596H141.229V52.3496Z" fill="#661625"/>
<path d="M117.668 56.1696L123.558 66.3596V62.5496L117.668 52.3496H105.898V56.1696H117.668Z" fill="#661625"/>
<path d="M105.898 31.9492L111.778 42.1492L110.678 44.0592L105.898 35.7692V31.9492Z" fill="#661625"/>
<g style="mix-blend-mode:multiply" opacity="0.35">
<path d="M105.898 31.9492L113.938 42.1492L105.898 52.3492L111.778 42.1492L105.898 31.9492Z" fill="#9E2C19"/>
</g>
<g style="mix-blend-mode:screen" opacity="0.8">
<path d="M123.559 21.75L129.239 32.96L141.229 31.95H129.449L123.559 21.75Z" fill="#F3FAFF"/>
</g>
<g style="mix-blend-mode:screen" opacity="0.5">
<path d="M105.898 52.3493L118.778 51.2393L123.558 62.5493L117.668 52.3493H105.898Z" fill="#F3FAFF"/>
</g>
<g style="mix-blend-mode:multiply" opacity="0.35">
<path d="M123.559 62.5493L128.689 49.9893L141.229 52.3493H129.449L123.559 62.5493Z" fill="#9E2C19"/>
</g>
<g style="mix-blend-mode:screen" opacity="0.5">
<path d="M109.439 82.1693C107.989 84.6793 103.719 84.9093 99.879 82.6993C96.049 80.4893 94.119 76.6592 95.559 74.1592C96.999 71.6592 101.279 71.4192 105.119 73.6292C108.949 75.8393 110.879 79.6693 109.439 82.1693Z" fill="#FCE265"/>
</g>
<g style="mix-blend-mode:screen" opacity="0.5">
<path d="M102.918 88.5692C102.458 89.3692 100.928 89.3592 99.5184 88.5392C98.1084 87.7192 97.3284 86.4092 97.7884 85.6092C98.2484 84.8092 99.7784 84.8192 101.188 85.6392C102.608 86.4592 103.378 87.7692 102.918 88.5692Z" fill="#FCE265"/>
</g>
<g style="mix-blend-mode:screen" opacity="0.5">
<path d="M129.388 36.6697C128.608 38.0197 126.038 37.9997 123.648 36.6197C121.258 35.2397 119.958 33.0297 120.738 31.6697C121.518 30.3097 124.088 30.3397 126.478 31.7197C128.868 33.0997 130.168 35.3097 129.388 36.6697Z" fill="#FCE265"/>
</g>
<g style="mix-blend-mode:screen">
<path d="M187.628 20.51C192.858 20.48 194.918 20.46 199.778 20.45C206.588 16.18 211.118 9.85 211.758 2.47C211.808 1.89 211.828 1.32 211.828 0.75L181.148 0.809998L187.638 20.52L187.628 20.51Z" fill="white"/>
</g>
<defs>
<radialGradient id="paint0_radial_1044_26446" cx="0" cy="0" r="1" gradientUnits="userSpaceOnUse" gradientTransform="translate(166.521 5.25965) scale(127.91 127.91)">
<stop offset="0.01" stop-color="#E85621"/>
<stop offset="1" stop-color="#E33A0B"/>
</radialGradient>
<radialGradient id="paint1_radial_1044_26446" cx="0" cy="0" r="1" gradientUnits="userSpaceOnUse" gradientTransform="translate(189.79 -12.1504) scale(176.96 176.96)">
<stop offset="0.01" stop-color="#E85621"/>
<stop offset="1" stop-color="#E33A0B"/>
</radialGradient>
<linearGradient id="paint2_linear_1044_26446" x1="197.43" y1="-24.7403" x2="117.22" y2="74.1997" gradientUnits="userSpaceOnUse">
<stop stop-color="#FFA369"/>
<stop offset="0.13" stop-color="#FD9D65"/>
<stop offset="0.29" stop-color="#F98E5C"/>
<stop offset="0.47" stop-color="#F3764C"/>
<stop offset="0.65" stop-color="#EA5335"/>
<stop offset="0.85" stop-color="#DE2819"/>
<stop offset="1" stop-color="#D40000"/>
</linearGradient>
<linearGradient id="paint3_linear_1044_26446" x1="69.6991" y1="135.509" x2="139.819" y2="47.6194" gradientUnits="userSpaceOnUse">
<stop stop-color="#D40000"/>
<stop offset="1" stop-color="#FFAF47"/>
</linearGradient>
<linearGradient id="paint4_linear_1044_26446" x1="123.44" y1="77.1096" x2="123.44" y2="103.83" gradientUnits="userSpaceOnUse">
<stop offset="0.63" stop-color="#F7814A"/>
<stop offset="1" stop-color="#F7E399"/>
</linearGradient>
<radialGradient id="paint5_radial_1044_26446" cx="0" cy="0" r="1" gradientUnits="userSpaceOnUse" gradientTransform="translate(87.76 -19.8708) scale(141.97 141.97)">
<stop offset="0.01" stop-color="#E85621"/>
<stop offset="1" stop-color="#E33A0B"/>
</radialGradient>
<radialGradient id="paint6_radial_1044_26446" cx="0" cy="0" r="1" gradientUnits="userSpaceOnUse" gradientTransform="translate(87.7581 -19.8701) scale(141.97 141.97)">
<stop offset="0.01" stop-color="#E85621"/>
<stop offset="1" stop-color="#E33A0B"/>
</radialGradient>
<radialGradient id="paint7_radial_1044_26446" cx="0" cy="0" r="1" gradientUnits="userSpaceOnUse" gradientTransform="translate(87.7583 -19.8704) scale(141.97 141.97)">
<stop offset="0.01" stop-color="#E85621"/>
<stop offset="1" stop-color="#E33A0B"/>
</radialGradient>
<radialGradient id="paint8_radial_1044_26446" cx="0" cy="0" r="1" gradientUnits="userSpaceOnUse" gradientTransform="translate(173.891 3.17922) scale(146.71 146.71)">
<stop offset="0.01" stop-color="#E85621"/>
<stop offset="1" stop-color="#E33A0B"/>
</radialGradient>
<radialGradient id="paint9_radial_1044_26446" cx="0" cy="0" r="1" gradientUnits="userSpaceOnUse" gradientTransform="translate(173.891 3.17987) scale(146.71 146.71)">
<stop offset="0.01" stop-color="#E85621"/>
<stop offset="1" stop-color="#E33A0B"/>
</radialGradient>
<radialGradient id="paint10_radial_1044_26446" cx="0" cy="0" r="1" gradientUnits="userSpaceOnUse" gradientTransform="translate(173.89 3.17963) scale(146.72 146.72)">
<stop offset="0.01" stop-color="#E85621"/>
<stop offset="1" stop-color="#E33A0B"/>
</radialGradient>
<linearGradient id="paint11_linear_1044_26446" x1="222.321" y1="-9.11077" x2="144.751" y2="96.3092" gradientUnits="userSpaceOnUse">
<stop stop-color="#FFA369"/>
<stop offset="0.13" stop-color="#FD9D65"/>
<stop offset="0.29" stop-color="#F98E5C"/>
<stop offset="0.47" stop-color="#F3764C"/>
<stop offset="0.65" stop-color="#EA5335"/>
<stop offset="0.85" stop-color="#DE2819"/>
<stop offset="1" stop-color="#D40000"/>
</linearGradient>
<linearGradient id="paint12_linear_1044_26446" x1="238.121" y1="2.50988" x2="160.551" y2="107.94" gradientUnits="userSpaceOnUse">
<stop stop-color="#FFA369"/>
<stop offset="0.13" stop-color="#FD9D65"/>
<stop offset="0.29" stop-color="#F98E5C"/>
<stop offset="0.47" stop-color="#F3764C"/>
<stop offset="0.65" stop-color="#EA5335"/>
<stop offset="0.85" stop-color="#DE2819"/>
<stop offset="1" stop-color="#D40000"/>
</linearGradient>
<linearGradient id="paint13_linear_1044_26446" x1="251.19" y1="12.1296" x2="173.62" y2="117.55" gradientUnits="userSpaceOnUse">
<stop stop-color="#FFA369"/>
<stop offset="0.13" stop-color="#FD9D65"/>
<stop offset="0.29" stop-color="#F98E5C"/>
<stop offset="0.47" stop-color="#F3764C"/>
<stop offset="0.65" stop-color="#EA5335"/>
<stop offset="0.85" stop-color="#DE2819"/>
<stop offset="1" stop-color="#D40000"/>
</linearGradient>
<linearGradient id="paint14_linear_1044_26446" x1="106.72" y1="-94.1705" x2="29.1501" y2="11.2495" gradientUnits="userSpaceOnUse">
<stop stop-color="#FFA369"/>
<stop offset="0.13" stop-color="#FD9D65"/>
<stop offset="0.29" stop-color="#F98E5C"/>
<stop offset="0.47" stop-color="#F3764C"/>
<stop offset="0.65" stop-color="#EA5335"/>
<stop offset="0.85" stop-color="#DE2819"/>
<stop offset="1" stop-color="#D40000"/>
</linearGradient>
<linearGradient id="paint15_linear_1044_26446" x1="105.87" y1="-94.7901" x2="28.3" y2="10.6298" gradientUnits="userSpaceOnUse">
<stop stop-color="#FFA369"/>
<stop offset="0.13" stop-color="#FD9D65"/>
<stop offset="0.29" stop-color="#F98E5C"/>
<stop offset="0.47" stop-color="#F3764C"/>
<stop offset="0.65" stop-color="#EA5335"/>
<stop offset="0.85" stop-color="#DE2819"/>
<stop offset="1" stop-color="#D40000"/>
</linearGradient>
<linearGradient id="paint16_linear_1044_26446" x1="9.75828" y1="100.32" x2="69.9583" y2="9.7096" gradientUnits="userSpaceOnUse">
<stop stop-color="#D40000"/>
<stop offset="1" stop-color="#FFAF47"/>
</linearGradient>
<linearGradient id="paint17_linear_1044_26446" x1="8.2914" y1="99.3494" x2="68.4814" y2="8.72938" gradientUnits="userSpaceOnUse">
<stop stop-color="#D40000"/>
<stop offset="1" stop-color="#FFAF47"/>
</linearGradient>
<radialGradient id="paint18_radial_1044_26446" cx="0" cy="0" r="1" gradientUnits="userSpaceOnUse" gradientTransform="translate(169.801 -8.98024) scale(203.47 203.47)">
<stop offset="0.01" stop-color="#E85621"/>
<stop offset="1" stop-color="#E33A0B"/>
</radialGradient>
<linearGradient id="paint19_linear_1044_26446" x1="90.0509" y1="149.379" x2="173.141" y2="42.7592" gradientUnits="userSpaceOnUse">
<stop stop-color="#D40000"/>
<stop offset="1" stop-color="#FFAF47"/>
</linearGradient>
<radialGradient id="paint20_radial_1044_26446" cx="0" cy="0" r="1" gradientUnits="userSpaceOnUse" gradientTransform="translate(169.802 -8.98024) scale(203.47 203.47)">
<stop offset="0.01" stop-color="#E85621"/>
<stop offset="1" stop-color="#E33A0B"/>
</radialGradient>
<linearGradient id="paint21_linear_1044_26446" x1="63.6516" y1="128.81" x2="146.742" y2="22.1897" gradientUnits="userSpaceOnUse">
<stop stop-color="#D40000"/>
<stop offset="1" stop-color="#FFAF47"/>
</linearGradient>
<radialGradient id="paint22_radial_1044_26446" cx="0" cy="0" r="1" gradientUnits="userSpaceOnUse" gradientTransform="translate(169.798 -8.97998) scale(203.47 203.47)">
<stop offset="0.01" stop-color="#E85621"/>
<stop offset="1" stop-color="#E33A0B"/>
</radialGradient>
<linearGradient id="paint23_linear_1044_26446" x1="60.2006" y1="126.12" x2="143.291" y2="19.4897" gradientUnits="userSpaceOnUse">
<stop stop-color="#D40000"/>
<stop offset="1" stop-color="#FFAF47"/>
</linearGradient>
<linearGradient id="paint24_linear_1044_26446" x1="167.22" y1="-18.68" x2="72.6097" y2="113.16" gradientUnits="userSpaceOnUse">
<stop stop-color="#D40000"/>
<stop offset="1" stop-color="#FFAF47"/>
</linearGradient>
</defs>
</svg>
