<svg width="162" height="154" viewBox="0 0 162 154" fill="none" xmlns="http://www.w3.org/2000/svg">
<path d="M81.1988 148.9L157.419 93.5202L128.309 3.91016H34.0888L4.96875 93.5202L81.1988 148.9Z" fill="#54101A"/>
<path d="M131.029 0.160156H31.3586L0.558594 94.9501L81.1886 153.53L161.819 94.9501L131.019 0.160156H131.029ZM16.5086 89.7702L41.2186 13.7302H121.179L145.889 89.7702L81.2086 136.77L16.5186 89.7702H16.5086Z" fill="url(#paint0_radial_1044_26131)"/>
<g style="mix-blend-mode:multiply" opacity="0.3">
<path d="M41.2188 13.7305L81.1988 136.77L121.179 13.7305H41.2188Z" fill="#8C1919"/>
</g>
<path d="M131.028 0.160156H31.3583L24.2383 22.0901C28.6683 22.2901 33.2583 22.8502 37.9583 23.7502L41.2183 13.7302H121.178L145.888 89.7702L136.508 96.5901C138.618 100.69 140.488 104.93 142.088 109.3L161.828 94.9602L131.028 0.170151V0.160156Z" fill="url(#paint1_radial_1044_26131)"/>
<path style="mix-blend-mode:screen" d="M131.028 0.160156H31.3583L24.2383 22.0901C28.6683 22.2901 33.2583 22.8502 37.9583 23.7502L41.2183 13.7302H121.178L145.888 89.7702L136.508 96.5901C138.618 100.69 140.488 104.93 142.088 109.3L161.828 94.9602L131.028 0.170151V0.160156Z" fill="url(#paint2_linear_1044_26131)"/>
<path style="mix-blend-mode:screen" d="M125.569 121.3C125.099 116.02 124.309 110.99 123.249 106.22L81.1986 136.77L16.5086 89.7699L34.2486 35.1699C29.2086 35.2899 24.2486 35.8599 19.4386 36.8399L0.558594 94.9499L81.1886 153.53L125.559 121.3H125.569Z" fill="url(#paint3_linear_1044_26131)"/>
<path d="M16.5078 89.7705L22.8978 88.3305L45.1678 19.8105H117.228L139.488 88.3305L145.878 89.7705L121.178 13.7305H41.2178L16.5078 89.7705Z" fill="#9B1B2E"/>
<g style="mix-blend-mode:multiply" opacity="0.2">
<path d="M22.8967 88.3298L35.3567 56.3598C42.7367 37.4298 60.9667 29.2198 81.2867 29.2198C101.687 29.2198 119.987 37.5398 127.297 56.5898L139.487 88.3298L117.217 19.7998H45.1567L22.8867 88.3298H22.8967Z" fill="#892334"/>
</g>
<path d="M16.5078 89.7701L22.8978 88.3301L81.1978 130.69L139.488 88.3301L145.878 89.7701L81.1978 136.77L16.5078 89.7701Z" fill="url(#paint4_linear_1044_26131)"/>
<g style="mix-blend-mode:multiply" opacity="0.6">
<path d="M22.8989 88.3298L45.7589 29.6698C46.8589 26.8398 49.5889 24.9698 52.6289 24.9698H110.079C113.129 24.9698 115.869 26.8498 116.959 29.6998L139.479 88.3298L117.209 19.7998H45.1489L22.8789 88.3298H22.8989Z" fill="#892334"/>
</g>
<path d="M41.2188 13.7305L45.1688 19.8105H117.229L121.179 13.7305H41.2188Z" fill="#661625"/>
<g style="mix-blend-mode:multiply" opacity="0.35">
<path d="M11.6103 60.96L3.89032 89.88C3.29032 92.37 4.47027 95.68 6.53027 97.22L81.2003 153.54L0.570312 94.96L11.6203 60.97L11.6103 60.96Z" fill="#9B1B2E"/>
</g>
<g style="mix-blend-mode:multiply" opacity="0.6">
<path d="M22.8984 88.3301L78.5084 125.79C79.9784 126.78 82.3984 126.78 83.8684 125.79L139.478 88.3301L81.1884 130.68L22.8984 88.3301Z" fill="#892334"/>
</g>
<g style="mix-blend-mode:multiply" opacity="0.35">
<path d="M81.1992 153.53L152.999 98.0702C158.019 94.3502 159.109 93.5402 156.849 86.4102L141.869 33.4902L161.839 94.9502L81.2092 153.53H81.1992Z" fill="#9B1B2E"/>
</g>
<g style="mix-blend-mode:multiply" opacity="0.35">
<path d="M13.4297 55.3701L30.2697 7.08015C32.0097 2.18015 33.2797 0.89015 38.4697 0.70015L81.1997 0.160156H31.3697L13.4297 55.3701Z" fill="#9B1B2E"/>
</g>
<path d="M45.5703 110.881L81.2003 136.771L129.31 101.811L81.2003 138.961L45.5703 110.881Z" fill="#FFF5CC"/>
<path d="M78.4883 0.160156H131.028L141.858 33.4902L129.028 2.01015L78.4883 0.160156Z" fill="#FFF5CC"/>
<g style="mix-blend-mode:screen">
<path d="M99.3988 0.160156C98.9588 4.48016 100.849 9.31015 104.489 13.7202H121.179L125.309 26.4202C130.539 27.7002 135.539 27.7402 139.639 26.6202L131.039 0.160156H99.4087H99.3988Z" fill="#FFF2BB"/>
</g>
<g style="mix-blend-mode:screen">
<path d="M95.3896 7.7001C91.9096 5.1701 87.7096 5.0101 86.0096 7.3401C84.7996 9.0101 85.1996 11.5101 86.8096 13.7201H99.2996C99.1096 11.6801 97.6996 9.3801 95.3796 7.7001H95.3896Z" fill="#FFF2BB"/>
</g>
<g style="mix-blend-mode:screen">
<path d="M41.2303 107.73C39.9703 110.98 42.2504 115.82 46.8404 119.15C51.4304 122.48 56.7404 123.16 59.4304 120.96L41.2203 107.73H41.2303Z" fill="#FFF2BB"/>
</g>
<g style="mix-blend-mode:multiply" opacity="0.6">
<path d="M81.4995 112.82L32.5195 87.7002V91.9502L81.4995 127.54L130.49 91.9502V87.7002L81.4995 112.82Z" fill="#892334"/>
</g>
<g style="mix-blend-mode:multiply" opacity="0.6">
<path d="M81.4986 86.05L39.5586 66.04V69.68L81.4986 100.16L123.449 69.68V66.04L81.4986 86.05Z" fill="#892334"/>
</g>
<g style="mix-blend-mode:multiply" opacity="0.6">
<path d="M46.7773 43.8105V48.0605L81.4974 73.2905L116.227 48.0605V43.8105H46.7773Z" fill="#892334"/>
</g>
<g style="mix-blend-mode:screen">
<path d="M59.5572 129.82C58.7872 131 56.6572 130.98 54.8072 129.77C52.9472 128.56 52.0673 126.62 52.8373 125.44C53.6073 124.26 55.7373 124.28 57.5873 125.49C59.4473 126.7 60.3272 128.64 59.5572 129.82Z" fill="#FFF2BB"/>
</g>
<path d="M81.4995 107.961L32.5195 81.0205V87.7005L81.4995 123.29L130.49 87.7005V81.0205L81.4995 107.961Z" fill="#9B1B2E"/>
<path d="M81.4986 81.1904L39.5586 59.3604V66.0403L81.4986 96.5204L123.449 66.0403V59.3604L81.4986 81.1904Z" fill="#9B1B2E"/>
<path d="M46.7773 37.1299V43.8099L81.4974 69.0399L116.227 43.8099V37.1299H46.7773Z" fill="#9B1B2E"/>
<path d="M81.4995 101.29L36.5295 68.6904L32.5195 81.0204L81.4995 116.61L130.49 81.0204L126.479 68.6904L81.4995 101.29Z" fill="url(#paint5_radial_1044_26131)"/>
<path d="M81.4986 74.5205L43.5686 47.0205L39.5586 59.3605L81.4986 89.8405L123.449 59.3605L119.439 47.0205L81.4986 74.5205Z" fill="url(#paint6_radial_1044_26131)"/>
<path d="M51.2374 23.4102L46.7773 37.1301L81.4974 62.3602L116.227 37.1301L111.767 23.4102H51.2374Z" fill="url(#paint7_radial_1044_26131)"/>
<path style="mix-blend-mode:screen" d="M50.1992 26.6002C66.0692 31.3902 82.5192 39.6601 97.3192 50.8701L116.229 37.1301L111.769 23.4102H51.2392L50.1992 26.6002Z" fill="url(#paint8_linear_1044_26131)"/>
<path style="mix-blend-mode:screen" d="M105.25 57.3103C108.41 60.0503 111.46 62.9303 114.39 65.9503L123.45 59.3703L119.44 47.0303L105.25 57.3203V57.3103Z" fill="url(#paint9_linear_1044_26131)"/>
<path style="mix-blend-mode:screen" d="M120.688 72.8904C123.348 76.0304 125.857 79.2904 128.217 82.6704L130.497 81.0204L126.487 68.6904L120.688 72.8904Z" fill="url(#paint10_linear_1044_26131)"/>
<path style="mix-blend-mode:screen" d="M92.2874 54.5204C78.9874 43.7804 63.1274 37.5804 47.2574 35.6504L46.7773 37.1304L81.4974 62.3604L92.2874 54.5204Z" fill="url(#paint11_linear_1044_26131)"/>
<path style="mix-blend-mode:screen" d="M107.727 70.7805C105.257 67.3705 102.577 64.2105 99.7369 61.2905L81.4969 74.5105L43.5569 47.0205L39.5469 59.3605L81.4969 89.8405L107.727 70.7805Z" fill="url(#paint12_linear_1044_26131)"/>
<path style="mix-blend-mode:screen" d="M118.26 89.9104C116.65 85.9204 114.819 82.1604 112.789 78.6204L81.5095 101.29L36.5295 68.6904L32.5195 81.0204L81.4995 116.61L118.26 89.9104Z" fill="url(#paint13_linear_1044_26131)"/>
<path d="M81.4974 62.3599V69.0399L46.7773 43.8099V37.1299L81.4974 62.3599Z" fill="#661625"/>
<path d="M39.5586 59.3604L81.4986 89.8403V96.5204L39.5586 66.0403V59.3604Z" fill="#661625"/>
<path d="M32.5195 81.0205L81.4995 116.611V123.29L32.5195 87.7005V81.0205Z" fill="#661625"/>
<path d="M51.8203 79.7705L81.2003 104.221L108.33 81.8505L81.5003 101.29L51.8203 79.7705Z" fill="#FFF5CC"/>
<path d="M51.8203 53L81.2003 76.85L103.78 58.37L81.5003 74.52L51.8203 53Z" fill="#FFF5CC"/>
<path d="M82.25 23.4102L107.75 24.4501C109.79 24.5301 110.57 25.3402 111.65 27.4402L116.23 37.1402L111.77 23.4202H82.25V23.4102Z" fill="#FFF5CC"/>
<g style="mix-blend-mode:multiply" opacity="0.35">
<path d="M43.5686 47.0205L41.8286 56.8205C41.6886 57.8505 41.9186 59.0205 42.7286 59.6705L76.0186 85.8505L39.5586 59.3605L43.5686 47.0205Z" fill="#9B1B2E"/>
</g>
<g style="mix-blend-mode:multiply" opacity="0.35">
<path d="M36.5273 68.6904L34.8374 77.7804C34.5074 79.2504 34.8874 80.5304 35.7674 81.2604L66.5273 105.72L32.5273 81.0204L36.5374 68.6904H36.5273Z" fill="#9B1B2E"/>
</g>
<g style="mix-blend-mode:multiply" opacity="0.35">
<path d="M109.277 69.6603L119.757 60.1203C120.877 58.9803 121.057 57.1503 120.877 55.5603L119.447 47.0303L123.457 59.3703L109.287 69.6703L109.277 69.6603Z" fill="#9B1B2E"/>
</g>
<g style="mix-blend-mode:multiply" opacity="0.35">
<path d="M107.137 97.9804L126.397 81.7304C127.597 80.6504 128.157 79.5304 127.837 77.1204L126.477 68.6904L130.487 81.0204L107.137 97.9804Z" fill="#9B1B2E"/>
</g>
<g style="mix-blend-mode:multiply" opacity="0.35">
<path d="M51.2374 23.4102L49.7773 31.4302C49.1173 34.8202 50.6674 37.0702 52.8974 39.0502L77.3774 59.3602L46.7773 37.1301L51.2374 23.4102Z" fill="#9B1B2E"/>
</g>
<defs>
<radialGradient id="paint0_radial_1044_26131" cx="0" cy="0" r="1" gradientUnits="userSpaceOnUse" gradientTransform="translate(124.279 5.28016) scale(127.91 127.91)">
<stop offset="0.01" stop-color="#E85621"/>
<stop offset="1" stop-color="#E33A0B"/>
</radialGradient>
<radialGradient id="paint1_radial_1044_26131" cx="0" cy="0" r="1" gradientUnits="userSpaceOnUse" gradientTransform="translate(147.548 -12.1298) scale(176.96 176.96)">
<stop offset="0.01" stop-color="#E85621"/>
<stop offset="1" stop-color="#E33A0B"/>
</radialGradient>
<linearGradient id="paint2_linear_1044_26131" x1="155.188" y1="-24.7198" x2="74.9783" y2="74.2202" gradientUnits="userSpaceOnUse">
<stop stop-color="#FFA369"/>
<stop offset="0.13" stop-color="#FD9D65"/>
<stop offset="0.29" stop-color="#F98E5C"/>
<stop offset="0.47" stop-color="#F3764C"/>
<stop offset="0.65" stop-color="#EA5335"/>
<stop offset="0.85" stop-color="#DE2819"/>
<stop offset="1" stop-color="#D40000"/>
</linearGradient>
<linearGradient id="paint3_linear_1044_26131" x1="27.4586" y1="135.53" x2="97.5786" y2="47.6399" gradientUnits="userSpaceOnUse">
<stop stop-color="#D40000"/>
<stop offset="1" stop-color="#FFAF47"/>
</linearGradient>
<linearGradient id="paint4_linear_1044_26131" x1="81.1978" y1="77.1301" x2="81.1978" y2="103.85" gradientUnits="userSpaceOnUse">
<stop offset="0.63" stop-color="#F7814A"/>
<stop offset="1" stop-color="#F7E399"/>
</linearGradient>
<radialGradient id="paint5_radial_1044_26131" cx="0" cy="0" r="1" gradientUnits="userSpaceOnUse" gradientTransform="translate(134.6 -5.87957) scale(170.25 170.25)">
<stop offset="0.01" stop-color="#E85621"/>
<stop offset="1" stop-color="#E33A0B"/>
</radialGradient>
<radialGradient id="paint6_radial_1044_26131" cx="0" cy="0" r="1" gradientUnits="userSpaceOnUse" gradientTransform="translate(134.599 -5.87948) scale(170.25 170.25)">
<stop offset="0.01" stop-color="#E85621"/>
<stop offset="1" stop-color="#E33A0B"/>
</radialGradient>
<radialGradient id="paint7_radial_1044_26131" cx="0" cy="0" r="1" gradientUnits="userSpaceOnUse" gradientTransform="translate(134.597 -5.87983) scale(170.25 170.25)">
<stop offset="0.01" stop-color="#E85621"/>
<stop offset="1" stop-color="#E33A0B"/>
</radialGradient>
<linearGradient id="paint8_linear_1044_26131" x1="129.369" y1="-35.8098" x2="58.6092" y2="66.6501" gradientUnits="userSpaceOnUse">
<stop stop-color="#FFA369"/>
<stop offset="0.13" stop-color="#FD9D65"/>
<stop offset="0.29" stop-color="#F98E5C"/>
<stop offset="0.47" stop-color="#F3764C"/>
<stop offset="0.65" stop-color="#EA5335"/>
<stop offset="0.85" stop-color="#DE2819"/>
<stop offset="1" stop-color="#D40000"/>
</linearGradient>
<linearGradient id="paint9_linear_1044_26131" x1="163.22" y1="-12.4297" x2="92.4601" y2="90.0303" gradientUnits="userSpaceOnUse">
<stop stop-color="#FFA369"/>
<stop offset="0.13" stop-color="#FD9D65"/>
<stop offset="0.29" stop-color="#F98E5C"/>
<stop offset="0.47" stop-color="#F3764C"/>
<stop offset="0.65" stop-color="#EA5335"/>
<stop offset="0.85" stop-color="#DE2819"/>
<stop offset="1" stop-color="#D40000"/>
</linearGradient>
<linearGradient id="paint10_linear_1044_26131" x1="179.537" y1="-1.15955" x2="108.778" y2="101.3" gradientUnits="userSpaceOnUse">
<stop stop-color="#FFA369"/>
<stop offset="0.13" stop-color="#FD9D65"/>
<stop offset="0.29" stop-color="#F98E5C"/>
<stop offset="0.47" stop-color="#F3764C"/>
<stop offset="0.65" stop-color="#EA5335"/>
<stop offset="0.85" stop-color="#DE2819"/>
<stop offset="1" stop-color="#D40000"/>
</linearGradient>
<linearGradient id="paint11_linear_1044_26131" x1="18.6473" y1="133.51" x2="73.0773" y2="39.3704" gradientUnits="userSpaceOnUse">
<stop stop-color="#D40000"/>
<stop offset="1" stop-color="#FFAF47"/>
</linearGradient>
<linearGradient id="paint12_linear_1044_26131" x1="29.0369" y1="139.52" x2="83.4669" y2="45.3805" gradientUnits="userSpaceOnUse">
<stop stop-color="#D40000"/>
<stop offset="1" stop-color="#FFAF47"/>
</linearGradient>
<linearGradient id="paint13_linear_1044_26131" x1="39.1795" y1="145.38" x2="93.6095" y2="51.2404" gradientUnits="userSpaceOnUse">
<stop stop-color="#D40000"/>
<stop offset="1" stop-color="#FFAF47"/>
</linearGradient>
</defs>
</svg>
