<svg width="248" height="154" viewBox="0 0 248 154" fill="none" xmlns="http://www.w3.org/2000/svg">
<path d="M124.23 149L200.45 93.6198L171.34 4.00977H77.1201L48 93.6198L124.23 149Z" fill="#54101A"/>
<path d="M174.06 0.259766H74.3898L43.5898 95.0498L124.22 153.63L204.85 95.0498L174.05 0.259766H174.06ZM59.5398 89.8698L84.2498 13.8298H164.21L188.92 89.8698L124.24 136.87L59.5498 89.8698H59.5398Z" fill="url(#paint0_radial_1044_26282)"/>
<g style="mix-blend-mode:multiply" opacity="0.3">
<path d="M84.25 13.8301L124.23 136.86L164.21 13.8301H84.25Z" fill="#8C1919"/>
</g>
<path d="M174.06 0.259766H74.3895L67.2695 22.1898C71.6995 22.3898 76.2896 22.9498 80.9896 23.8498L84.2495 13.8298H164.21L188.92 89.8698L179.54 96.6898C181.65 100.79 183.52 105.03 185.12 109.4L204.86 95.0598L174.06 0.26976V0.259766Z" fill="url(#paint1_radial_1044_26282)"/>
<path style="mix-blend-mode:screen" d="M174.06 0.259766H74.3895L67.2695 22.1898C71.6995 22.3898 76.2896 22.9498 80.9896 23.8498L84.2495 13.8298H164.21L188.92 89.8698L179.54 96.6898C181.65 100.79 183.52 105.03 185.12 109.4L204.86 95.0598L174.06 0.26976V0.259766Z" fill="url(#paint2_linear_1044_26282)"/>
<path style="mix-blend-mode:screen" d="M168.6 121.4C168.13 116.12 167.34 111.09 166.28 106.32L124.23 136.87L59.5398 89.8695L77.2798 35.2695C72.2398 35.3895 67.2798 35.9595 62.4698 36.9395L43.5898 95.0495L124.22 153.63L168.59 121.39L168.6 121.4Z" fill="url(#paint3_linear_1044_26282)"/>
<path d="M59.5391 89.8701L65.9291 88.4301L88.1991 19.9001H160.249L182.519 88.4301L188.909 89.8701L164.209 13.8301H84.249L59.5391 89.8701Z" fill="#9B1B2E"/>
<g style="mix-blend-mode:multiply" opacity="0.2">
<path d="M65.928 88.4294L78.3879 56.4594C85.7679 37.5294 103.998 29.3194 124.318 29.3194C144.718 29.3194 163.018 37.6394 170.328 56.6894L182.518 88.4294L160.248 19.8994H88.188L65.918 88.4294H65.928Z" fill="#2753A0"/>
</g>
<path d="M59.5391 89.8697L65.9291 88.4297L124.229 130.79L182.519 88.4297L188.909 89.8697L124.229 136.86L59.5391 89.8697Z" fill="url(#paint4_linear_1044_26282)"/>
<g style="mix-blend-mode:multiply" opacity="0.6">
<path d="M65.9302 88.4294L88.7902 29.7694C89.8902 26.9394 92.6202 25.0694 95.6602 25.0694H153.11C156.16 25.0694 158.9 26.9494 159.99 29.7994L182.51 88.4294L160.24 19.8994H88.1802L65.9102 88.4294H65.9302Z" fill="#2753A0"/>
</g>
<path d="M84.25 13.8301L88.2001 19.9001H160.25L164.21 13.8301H84.25Z" fill="#661625"/>
<g style="mix-blend-mode:multiply" opacity="0.35">
<path d="M54.6376 61.0596L46.9176 89.9796C46.3176 92.4696 47.4976 95.7796 49.5576 97.3196L124.228 153.64L43.5977 95.0596L54.6476 61.0696L54.6376 61.0596Z" fill="#9E2C19"/>
</g>
<g style="mix-blend-mode:multiply" opacity="0.6">
<path d="M65.9297 88.4297L121.54 125.89C123.01 126.88 125.43 126.88 126.9 125.89L182.51 88.4297L124.22 130.78L65.9297 88.4297Z" fill="#2753A0"/>
</g>
<g style="mix-blend-mode:multiply" opacity="0.35">
<path d="M124.23 153.63L196.03 98.1698C201.05 94.4498 202.14 93.6398 199.88 86.5098L184.9 33.5898L204.87 95.0499L124.24 153.63H124.23Z" fill="#9E2C19"/>
</g>
<path d="M88.5977 110.98L124.228 136.86L172.338 101.91L124.228 139.06L88.5977 110.98Z" fill="#F3FEFF"/>
<path d="M121.52 0.259766H174.06L184.89 33.5898L172.05 2.10976L121.52 0.259766Z" fill="#F3FEFF"/>
<g style="mix-blend-mode:screen">
<path d="M142.43 0.259766C141.99 4.57977 143.88 9.40977 147.52 13.8298H164.21L168.34 26.5298C173.57 27.8098 178.57 27.8498 182.67 26.7298L174.07 0.26976H142.44L142.43 0.259766Z" fill="white"/>
</g>
<g style="mix-blend-mode:screen">
<path d="M84.2577 107.83C82.9977 111.08 85.2778 115.92 89.8678 119.25C94.4578 122.58 99.7678 123.26 102.458 121.06L84.2477 107.83H84.2577Z" fill="white"/>
</g>
<g style="mix-blend-mode:screen">
<path d="M102.588 129.919C101.818 131.099 99.6885 131.079 97.8385 129.869C95.9785 128.659 95.0985 126.719 95.8685 125.539C96.6385 124.359 98.7685 124.379 100.619 125.589C102.469 126.799 103.358 128.739 102.588 129.919Z" fill="white"/>
</g>
<path d="M66.5391 0.9198L63.4891 26.1498C56.2691 26.1098 50.239 26.0798 39.389 26.0898C0.989037 26.1398 0.789062 0.799805 0.789062 0.799805L66.5391 0.9198Z" fill="#661625"/>
<path d="M66.5391 0.9198L60.0491 20.6298C52.8291 20.5898 51.6391 20.5598 40.7991 20.5698C2.39907 20.6198 0.789062 0.799805 0.789062 0.799805L66.5391 0.9198Z" fill="url(#paint5_radial_1044_26282)"/>
<path d="M56.809 30.88L53.809 56.11C46.589 56.07 55.3689 56.11 44.5189 56.11C6.11892 56.16 5.87891 30.75 5.87891 30.75L56.809 30.87V30.88Z" fill="#661625"/>
<path d="M56.8071 30.88L50.3871 50.63C43.1671 50.59 56.8072 50.56 45.9572 50.57C7.55715 50.62 5.86719 30.75 5.86719 30.75L56.7971 30.87L56.8071 30.88Z" fill="url(#paint6_radial_1044_26282)"/>
<path d="M47.0774 60.8297L20.0273 60.7197C20.0273 60.7197 24.2774 79.7197 44.0674 86.0697L47.0874 60.8297H47.0774Z" fill="#661625"/>
<path d="M47.0774 60.8297L20.0273 60.7197C20.0273 60.7197 20.8673 74.2297 40.6573 80.5897L47.0874 60.8297H47.0774Z" fill="url(#paint7_radial_1044_26282)"/>
<path d="M66.5408 0.919922L69.7808 7.17992L63.4908 26.1499L60.0508 20.6299L66.5408 0.919922Z" fill="#9B1B2E"/>
<path d="M56.8107 30.8799L60.0507 37.0799L53.8107 56.1199L50.3906 50.6299L56.8107 30.8799Z" fill="#9B1B2E"/>
<path d="M47.0685 60.8398L50.3085 67.0298L44.0585 86.0699L40.6484 80.5898L47.0685 60.8398Z" fill="#9B1B2E"/>
<path d="M181.93 0.9198L184.98 26.1498C192.2 26.1098 198.23 26.0798 209.08 26.0898C247.48 26.1398 247.68 0.799805 247.68 0.799805L181.93 0.9198Z" fill="#661625"/>
<path d="M181.93 0.9198L188.42 20.6298C195.64 20.5898 196.83 20.5598 207.67 20.5698C246.07 20.6198 247.68 0.799805 247.68 0.799805L181.93 0.9198Z" fill="url(#paint8_radial_1044_26282)"/>
<path d="M191.658 30.88L194.658 56.11C201.878 56.07 193.098 56.11 203.938 56.11C242.338 56.16 242.578 30.75 242.578 30.75L191.648 30.87L191.658 30.88Z" fill="#661625"/>
<path d="M191.66 30.88L198.08 50.63C205.3 50.59 191.66 50.56 202.51 50.57C240.91 50.62 242.6 30.75 242.6 30.75L191.67 30.87L191.66 30.88Z" fill="url(#paint9_radial_1044_26282)"/>
<path d="M201.389 60.8297L228.439 60.7197C228.439 60.7197 224.189 79.7197 204.399 86.0697L201.379 60.8297H201.389Z" fill="#661625"/>
<path d="M201.389 60.8297L228.439 60.7197C228.439 60.7197 227.599 74.2297 207.809 80.5897L201.379 60.8297H201.389Z" fill="url(#paint10_radial_1044_26282)"/>
<path style="mix-blend-mode:screen" d="M181.93 0.9198L188.42 20.6298C195.64 20.5898 196.83 20.5598 207.67 20.5698C246.07 20.6198 247.68 0.799805 247.68 0.799805L181.93 0.9198Z" fill="url(#paint11_linear_1044_26282)"/>
<path style="mix-blend-mode:screen" d="M191.66 30.88L198.08 50.63C205.3 50.59 191.66 50.56 202.51 50.57C240.91 50.62 242.6 30.75 242.6 30.75L191.67 30.87L191.66 30.88Z" fill="url(#paint12_linear_1044_26282)"/>
<path style="mix-blend-mode:screen" d="M201.389 60.8297L228.439 60.7197C228.439 60.7197 227.599 74.2297 207.809 80.5897L201.379 60.8297H201.389Z" fill="url(#paint13_linear_1044_26282)"/>
<path d="M181.927 0.919922L178.688 7.17992L184.978 26.1499L188.417 20.6299L181.927 0.919922Z" fill="#9B1B2E"/>
<path d="M191.658 30.8799L188.418 37.0799L194.668 56.1199L198.078 50.6299L191.658 30.8799Z" fill="#9B1B2E"/>
<path d="M201.4 60.8398L198.16 67.0298L204.41 86.0699L207.82 80.5898L201.4 60.8398Z" fill="#9B1B2E"/>
<path style="mix-blend-mode:screen" d="M66.5391 0.9198L0.789062 0.799805C0.789062 0.799805 2.39907 20.6198 40.7991 20.5698C51.6491 20.5598 52.8291 20.5898 60.0491 20.6298L66.5391 0.9198Z" fill="url(#paint14_linear_1044_26282)"/>
<path style="mix-blend-mode:screen" d="M47.0774 60.8297L20.0273 60.7197C20.0273 60.7197 20.8673 74.2297 40.6573 80.5897L47.0874 60.8297H47.0774Z" fill="url(#paint15_linear_1044_26282)"/>
<path style="mix-blend-mode:screen" d="M50.3904 50.6295L54.1704 38.9795C49.0204 40.6595 44.1404 42.8795 39.6504 45.6295C37.7904 46.7695 35.6105 48.1695 33.2305 49.7395C36.9505 50.2795 41.1704 50.5795 45.9604 50.5795C56.8104 50.5695 43.1704 50.5995 50.3904 50.6395V50.6295Z" fill="url(#paint16_linear_1044_26282)"/>
<g style="mix-blend-mode:multiply" opacity="0.35">
<path d="M56.4609 55.4698L73.3009 7.17976C75.0409 2.27976 76.3109 0.989767 81.5109 0.799767L124.241 0.259766H74.4109L56.4709 55.4698H56.4609Z" fill="#9E2C19"/>
</g>
<g style="mix-blend-mode:screen">
<path d="M139.288 7.79971C135.808 5.26971 131.608 5.10971 129.908 7.43971C128.698 9.10971 129.098 11.6097 130.708 13.8197H143.198C143.008 11.7797 141.598 9.47971 139.278 7.79971H139.288Z" fill="white"/>
</g>
<g style="mix-blend-mode:multiply" opacity="0.6">
<path d="M144.688 79.0098L154.998 61.1598V55.6898L134.378 61.1598L124.078 43.2998L113.768 61.1598L93.1484 55.6898V61.1598L103.458 79.0098L93.1484 91.3998V96.8598H113.768L124.078 114.72L134.378 96.8598H154.998V91.3998L144.688 79.0098Z" fill="#2753A0"/>
</g>
<path d="M144.688 73.5499L154.998 55.6898V49.0098L134.378 55.6898L124.078 37.8398L113.768 55.6898L93.1484 49.0098V55.6898L103.458 73.5499L93.1484 84.7198V91.3998H113.768L124.078 109.25L134.378 91.3998H154.998V84.7198L144.688 73.5499Z" fill="#9B1B2E"/>
<path d="M144.688 66.8701L154.998 49.0101H134.378L124.078 31.1602L113.768 49.0101H93.1484L103.458 66.8701L93.1484 84.7202H113.768L124.078 102.58L134.378 84.7202H154.998L144.688 66.8701Z" fill="url(#paint17_radial_1044_26282)"/>
<path d="M154.999 84.7197H134.379V91.3997H154.999V84.7197Z" fill="#661625"/>
<path d="M113.768 91.3997L124.078 109.25V102.58L113.768 84.7197H93.1484V91.3997H113.768Z" fill="#661625"/>
<path style="mix-blend-mode:screen" d="M117.038 43.3506L113.768 49.0106H93.1484L103.458 66.8606L93.1484 84.7106H113.768L124.078 102.561L134.388 84.7106H155.008L144.698 66.8606L145.849 64.8706C137.589 55.4106 127.688 48.2606 117.048 43.3506H117.038Z" fill="url(#paint18_linear_1044_26282)"/>
<path d="M93.1484 49.0098L103.458 66.8698L101.528 70.2098L93.1484 55.6898V49.0098Z" fill="#661625"/>
<g style="mix-blend-mode:multiply" opacity="0.35">
<path d="M93.1484 49.0098L105.258 64.3498C106.638 66.1998 107.058 66.8598 105.258 69.3698L93.1484 84.7098L103.458 66.8598L93.1484 49.0098Z" fill="#9E2C19"/>
</g>
<g style="mix-blend-mode:screen" opacity="0.8">
<path d="M124.078 31.1602L134.018 50.7702L154.998 49.0101H134.378L124.078 31.1602Z" fill="#F3FAFF"/>
</g>
<g style="mix-blend-mode:screen" opacity="0.5">
<path d="M93.1484 84.7205L115.708 82.7705L124.078 102.581L113.768 84.7205H93.1484Z" fill="#F3FAFF"/>
</g>
<g style="mix-blend-mode:multiply" opacity="0.35">
<path d="M124.078 102.581L132.128 82.8806C133.008 81.0006 134.158 80.7906 135.498 81.0506L155.008 84.7306H134.388L124.078 102.581Z" fill="#9E2C19"/>
</g>
<path style="mix-blend-mode:screen" d="M149.749 58.0998L154.999 49.0098H138.559C142.419 51.8498 146.159 54.8798 149.749 58.0998Z" fill="url(#paint19_linear_1044_26282)"/>
<path style="mix-blend-mode:screen" d="M131.609 44.2001L124.079 31.1602L120.379 37.5702C124.189 39.6002 127.939 41.8201 131.609 44.2001Z" fill="url(#paint20_linear_1044_26282)"/>
<g style="mix-blend-mode:screen" opacity="0.5">
<path d="M131.59 66.1504C129.99 68.9204 125.25 69.1904 121.01 66.7404C116.77 64.2904 114.63 60.0604 116.23 57.2804C117.83 54.5104 122.57 54.2404 126.81 56.6904C131.05 59.1404 133.19 63.3704 131.59 66.1504Z" fill="#FCE265"/>
</g>
<g style="mix-blend-mode:screen" opacity="0.5">
<path d="M116.257 67.8504C115.747 68.7404 114.058 68.7204 112.488 67.8204C110.918 66.9104 110.058 65.4604 110.578 64.5704C111.088 63.6804 112.778 63.7004 114.348 64.6004C115.918 65.5104 116.777 66.9604 116.257 67.8504Z" fill="#FCE265"/>
</g>
<g style="mix-blend-mode:multiply" opacity="0.35">
<path fill-rule="evenodd" clip-rule="evenodd" d="M196.82 19.1297C192.44 18.6897 189.39 17.1097 187.39 13.1897L181.93 0.929688L188.42 20.6397C195.64 20.5997 196.83 20.5697 207.67 20.5797C213.79 20.5797 218.97 20.0897 223.36 19.2497C213.84 20.3997 204.07 19.8597 196.82 19.1397V19.1297Z" fill="#9E2C19"/>
</g>
<g style="mix-blend-mode:multiply" opacity="0.35">
<path fill-rule="evenodd" clip-rule="evenodd" d="M202.508 50.5799C211.798 50.5899 218.938 49.4299 224.418 47.6799C216.528 49.8699 209.898 49.7199 204.858 49.4099C201.388 49.1999 198.568 46.6499 197.098 43.4999L191.668 30.8799L198.088 50.6299C205.308 50.5899 191.668 50.5599 202.518 50.5699L202.508 50.5799Z" fill="#9E2C19"/>
</g>
<g style="mix-blend-mode:multiply" opacity="0.35">
<path fill-rule="evenodd" clip-rule="evenodd" d="M207.818 80.5898C212.108 79.2098 215.498 77.4999 218.188 75.6599C214.998 76.8699 209.018 77.7498 209.018 77.7498L201.398 60.8398V60.8598L207.818 80.5898Z" fill="#9E2C19"/>
</g>
<g style="mix-blend-mode:multiply" opacity="0.35">
<path d="M40.7991 20.5798C51.6491 20.5698 52.8291 20.5998 60.0491 20.6398L65.1891 5.0198L61.3691 13.5398C59.5391 18.0298 58.4491 19.5098 53.9691 19.5498C49.1391 19.5898 40.029 19.4898 35.399 19.3098C15.239 18.5198 3.36906 9.8098 0.789062 0.799805C0.789062 0.799805 2.39907 20.6198 40.7991 20.5698V20.5798Z" fill="#9E2C19"/>
</g>
<g style="mix-blend-mode:multiply" opacity="0.35">
<path d="M51.2509 44.8098C50.0309 47.3698 48.7209 49.5098 45.8909 49.4098C42.9609 49.3098 34.7409 49.2498 30.0409 48.1898C19.1309 45.7298 12.6209 41.6698 8.21094 36.6898C11.9209 42.5398 21.4709 50.6098 45.9709 50.5798C56.8209 50.5698 43.1809 50.5998 50.4009 50.6398L55.7109 34.2998L51.2609 44.8198L51.2509 44.8098Z" fill="#9E2C19"/>
</g>
<g style="mix-blend-mode:multiply" opacity="0.35">
<path d="M40.6495 80.59L46.2495 63.36C45.1995 65.56 43.1096 70.64 40.9896 75.34C39.5496 78.54 38.1696 78.14 35.9496 77.21C24.8996 72.61 22.3595 67.14 20.0195 60.71C20.0195 60.71 20.8595 74.22 40.6495 80.58V80.59Z" fill="#9E2C19"/>
</g>
<path d="M181.93 0.9198L242.06 1.9498C244.48 1.9898 245.6 3.7998 244.55 5.9798C243.46 8.2498 241.7 10.9698 238.82 13.3098C247.12 7.6698 247.68 0.799805 247.68 0.799805L181.93 0.9198Z" fill="#F3FEFF"/>
<path d="M191.66 30.8795L236.02 31.9195C241.2 32.0295 240.36 34.2295 239.01 36.9295C238.18 38.5895 237.04 40.4095 235.53 41.9295C242.09 36.5895 242.59 30.7695 242.59 30.7695L191.66 30.8895V30.8795Z" fill="#F3FEFF"/>
<path d="M223.8 70.6497C228.15 65.4597 228.45 60.7197 228.45 60.7197L201.44 60.8297H201.41L223.74 61.7797C227.04 61.9797 226.44 63.2197 226.06 64.8197C225.62 66.6697 224.88 68.8397 223.8 70.6497Z" fill="#F3FEFF"/>
<g style="mix-blend-mode:screen" opacity="0.5">
<path d="M18.2695 0.800041L66.5396 0.920036L64.9196 5.85004C64.9196 3.32004 63.7196 2.04004 60.8096 2.01004L18.2695 0.790039V0.800041Z" fill="#F3FAFF"/>
</g>
<g style="mix-blend-mode:screen" opacity="0.5">
<path d="M18.2695 30.8799H56.8096L55.0396 36.3399L55.2296 34.5299C55.3296 32.8199 54.7196 31.9199 51.5996 31.7699L18.2795 30.8799H18.2695Z" fill="#F3FAFF"/>
</g>
<g style="mix-blend-mode:screen" opacity="0.5">
<path d="M25.2305 60.7395L47.0804 60.8295L45.4204 65.9195L45.3204 63.5495C45.2604 62.2295 44.9005 61.7795 43.1005 61.6595L25.2405 60.7295L25.2305 60.7395Z" fill="#F3FAFF"/>
</g>
<g style="mix-blend-mode:screen">
<path d="M188.42 20.6301C193.07 20.6101 195.22 20.5801 199.06 20.5801C205.87 16.3101 210.4 9.97011 211.04 2.59011C211.09 2.01011 211.11 1.44012 211.11 0.870117L181.93 0.920113L188.42 20.6301Z" fill="white"/>
</g>
<path style="mix-blend-mode:screen" d="M5.87891 30.7598C5.87891 30.7598 6.159 33.9798 8.979 37.8098C13.169 35.4398 17.839 33.0198 22.829 30.7998L5.87891 30.7598Z" fill="url(#paint21_linear_1044_26282)"/>
<defs>
<radialGradient id="paint0_radial_1044_26282" cx="0" cy="0" r="1" gradientUnits="userSpaceOnUse" gradientTransform="translate(167.31 5.37977) scale(127.91 127.91)">
<stop offset="0.01" stop-color="#E85621"/>
<stop offset="1" stop-color="#E33A0B"/>
</radialGradient>
<radialGradient id="paint1_radial_1044_26282" cx="0" cy="0" r="1" gradientUnits="userSpaceOnUse" gradientTransform="translate(190.58 -12.0302) scale(176.96 176.96)">
<stop offset="0.01" stop-color="#E85621"/>
<stop offset="1" stop-color="#E33A0B"/>
</radialGradient>
<linearGradient id="paint2_linear_1044_26282" x1="198.22" y1="-24.6202" x2="118.01" y2="74.3198" gradientUnits="userSpaceOnUse">
<stop stop-color="#FFA369"/>
<stop offset="0.13" stop-color="#FD9D65"/>
<stop offset="0.29" stop-color="#F98E5C"/>
<stop offset="0.47" stop-color="#F3764C"/>
<stop offset="0.65" stop-color="#EA5335"/>
<stop offset="0.85" stop-color="#DE2819"/>
<stop offset="1" stop-color="#D40000"/>
</linearGradient>
<linearGradient id="paint3_linear_1044_26282" x1="70.4898" y1="135.63" x2="140.61" y2="47.7295" gradientUnits="userSpaceOnUse">
<stop stop-color="#D40000"/>
<stop offset="1" stop-color="#FFAF47"/>
</linearGradient>
<linearGradient id="paint4_linear_1044_26282" x1="124.229" y1="77.2297" x2="124.229" y2="103.95" gradientUnits="userSpaceOnUse">
<stop offset="0.63" stop-color="#F7814A"/>
<stop offset="1" stop-color="#F7E399"/>
</linearGradient>
<radialGradient id="paint5_radial_1044_26282" cx="0" cy="0" r="1" gradientUnits="userSpaceOnUse" gradientTransform="translate(88.5491 -19.7502) scale(141.97 141.97)">
<stop offset="0.01" stop-color="#E85621"/>
<stop offset="1" stop-color="#E33A0B"/>
</radialGradient>
<radialGradient id="paint6_radial_1044_26282" cx="0" cy="0" r="1" gradientUnits="userSpaceOnUse" gradientTransform="translate(88.5471 -19.75) scale(141.97 141.97)">
<stop offset="0.01" stop-color="#E85621"/>
<stop offset="1" stop-color="#E33A0B"/>
</radialGradient>
<radialGradient id="paint7_radial_1044_26282" cx="0" cy="0" r="1" gradientUnits="userSpaceOnUse" gradientTransform="translate(88.5475 -19.7503) scale(141.97 141.97)">
<stop offset="0.01" stop-color="#E85621"/>
<stop offset="1" stop-color="#E33A0B"/>
</radialGradient>
<radialGradient id="paint8_radial_1044_26282" cx="0" cy="0" r="1" gradientUnits="userSpaceOnUse" gradientTransform="translate(174.68 3.29981) scale(146.71 146.71)">
<stop offset="0.01" stop-color="#E85621"/>
<stop offset="1" stop-color="#E33A0B"/>
</radialGradient>
<radialGradient id="paint9_radial_1044_26282" cx="0" cy="0" r="1" gradientUnits="userSpaceOnUse" gradientTransform="translate(174.68 3.29999) scale(146.71 146.71)">
<stop offset="0.01" stop-color="#E85621"/>
<stop offset="1" stop-color="#E33A0B"/>
</radialGradient>
<radialGradient id="paint10_radial_1044_26282" cx="0" cy="0" r="1" gradientUnits="userSpaceOnUse" gradientTransform="translate(174.679 3.29974) scale(146.72 146.72)">
<stop offset="0.01" stop-color="#E85621"/>
<stop offset="1" stop-color="#E33A0B"/>
</radialGradient>
<linearGradient id="paint11_linear_1044_26282" x1="223.11" y1="-8.99019" x2="145.54" y2="96.4298" gradientUnits="userSpaceOnUse">
<stop stop-color="#FFA369"/>
<stop offset="0.13" stop-color="#FD9D65"/>
<stop offset="0.29" stop-color="#F98E5C"/>
<stop offset="0.47" stop-color="#F3764C"/>
<stop offset="0.65" stop-color="#EA5335"/>
<stop offset="0.85" stop-color="#DE2819"/>
<stop offset="1" stop-color="#D40000"/>
</linearGradient>
<linearGradient id="paint12_linear_1044_26282" x1="238.91" y1="2.62999" x2="161.35" y2="108.06" gradientUnits="userSpaceOnUse">
<stop stop-color="#FFA369"/>
<stop offset="0.13" stop-color="#FD9D65"/>
<stop offset="0.29" stop-color="#F98E5C"/>
<stop offset="0.47" stop-color="#F3764C"/>
<stop offset="0.65" stop-color="#EA5335"/>
<stop offset="0.85" stop-color="#DE2819"/>
<stop offset="1" stop-color="#D40000"/>
</linearGradient>
<linearGradient id="paint13_linear_1044_26282" x1="251.979" y1="12.2497" x2="174.409" y2="117.67" gradientUnits="userSpaceOnUse">
<stop stop-color="#FFA369"/>
<stop offset="0.13" stop-color="#FD9D65"/>
<stop offset="0.29" stop-color="#F98E5C"/>
<stop offset="0.47" stop-color="#F3764C"/>
<stop offset="0.65" stop-color="#EA5335"/>
<stop offset="0.85" stop-color="#DE2819"/>
<stop offset="1" stop-color="#D40000"/>
</linearGradient>
<linearGradient id="paint14_linear_1044_26282" x1="107.509" y1="-94.0502" x2="29.9391" y2="11.3698" gradientUnits="userSpaceOnUse">
<stop stop-color="#FFA369"/>
<stop offset="0.13" stop-color="#FD9D65"/>
<stop offset="0.29" stop-color="#F98E5C"/>
<stop offset="0.47" stop-color="#F3764C"/>
<stop offset="0.65" stop-color="#EA5335"/>
<stop offset="0.85" stop-color="#DE2819"/>
<stop offset="1" stop-color="#D40000"/>
</linearGradient>
<linearGradient id="paint15_linear_1044_26282" x1="10.5473" y1="100.44" x2="70.7472" y2="9.82961" gradientUnits="userSpaceOnUse">
<stop stop-color="#D40000"/>
<stop offset="1" stop-color="#FFAF47"/>
</linearGradient>
<linearGradient id="paint16_linear_1044_26282" x1="9.08054" y1="99.4595" x2="69.2806" y2="8.84964" gradientUnits="userSpaceOnUse">
<stop stop-color="#D40000"/>
<stop offset="1" stop-color="#FFAF47"/>
</linearGradient>
<radialGradient id="paint17_radial_1044_26282" cx="0" cy="0" r="1" gradientUnits="userSpaceOnUse" gradientTransform="translate(178.448 2.98016) scale(146.02 146.02)">
<stop offset="0.01" stop-color="#E85621"/>
<stop offset="1" stop-color="#E33A0B"/>
</radialGradient>
<linearGradient id="paint18_linear_1044_26282" x1="91.8584" y1="115.451" x2="150.938" y2="26.3506" gradientUnits="userSpaceOnUse">
<stop stop-color="#D40000"/>
<stop offset="1" stop-color="#FFAF47"/>
</linearGradient>
<linearGradient id="paint19_linear_1044_26282" x1="188.828" y1="-13.3003" x2="118.228" y2="92.3595" gradientUnits="userSpaceOnUse">
<stop stop-color="#FFA369"/>
<stop offset="0.13" stop-color="#FD9D65"/>
<stop offset="0.29" stop-color="#F98E5C"/>
<stop offset="0.47" stop-color="#F3764C"/>
<stop offset="0.65" stop-color="#EA5335"/>
<stop offset="0.85" stop-color="#DE2819"/>
<stop offset="1" stop-color="#D40000"/>
</linearGradient>
<linearGradient id="paint20_linear_1044_26282" x1="170.219" y1="-25.7398" x2="99.6197" y2="79.9308" gradientUnits="userSpaceOnUse">
<stop stop-color="#FFA369"/>
<stop offset="0.13" stop-color="#FD9D65"/>
<stop offset="0.29" stop-color="#F98E5C"/>
<stop offset="0.47" stop-color="#F3764C"/>
<stop offset="0.65" stop-color="#EA5335"/>
<stop offset="0.85" stop-color="#DE2819"/>
<stop offset="1" stop-color="#D40000"/>
</linearGradient>
<linearGradient id="paint21_linear_1044_26282" x1="106.659" y1="-94.6701" x2="29.0895" y2="10.7502" gradientUnits="userSpaceOnUse">
<stop stop-color="#FFA369"/>
<stop offset="0.13" stop-color="#FD9D65"/>
<stop offset="0.29" stop-color="#F98E5C"/>
<stop offset="0.47" stop-color="#F3764C"/>
<stop offset="0.65" stop-color="#EA5335"/>
<stop offset="0.85" stop-color="#DE2819"/>
<stop offset="1" stop-color="#D40000"/>
</linearGradient>
</defs>
</svg>
