<svg width="78" height="67" viewBox="0 0 78 67" fill="none" xmlns="http://www.w3.org/2000/svg">
<path d="M49 0.499999C64.7401 0.499999 77.5 13.2599 77.5 29L77.5 38C77.5 53.7401 64.7401 66.5 49 66.5L29 66.5C13.2599 66.5 0.499998 53.7401 0.499998 38L0.499999 29C0.499999 13.2599 13.2599 0.499997 29 0.499998L49 0.499999Z" fill="#381515" fill-opacity="0.5" stroke="#260B0D"/>
<path d="M18.2939 29.0498C18.2939 26.8141 19.0687 24.988 20.6182 23.5713C22.1787 22.1546 24.1875 21.4463 26.6445 21.4463C29.013 21.4463 30.9609 22.0938 32.4883 23.3887C34.0267 24.6836 34.7959 26.3327 34.7959 28.3359C34.7959 29.6198 34.4085 30.8926 33.6338 32.1543C32.859 33.4049 31.4535 35.0374 29.417 37.0518L24.4033 42.082V42.3643H35.1611V46H18.5264V43.0283L26.5117 34.8604C28.1497 33.2002 29.2399 31.9551 29.7822 31.125C30.3245 30.2839 30.5957 29.4427 30.5957 28.6016C30.5957 27.5501 30.2083 26.6813 29.4336 25.9951C28.6699 25.3089 27.696 24.9658 26.5117 24.9658C25.2611 24.9658 24.2484 25.3421 23.4736 26.0947C22.6989 26.8473 22.3115 27.8324 22.3115 29.0498V29.1162H18.2939V29.0498ZM50.7168 46V41.5342H39.0127V37.7158C40.9606 34.1299 44.2145 28.9059 48.7744 22.0439H54.8174V37.915H58.0547V41.5342H54.8174V46H50.7168ZM42.9805 37.7656V38.0146H50.7832V25.5303H50.5508C47.9609 29.3597 45.4375 33.4382 42.9805 37.7656Z" fill="#834444"/>
</svg>
