<svg width="109" height="67" viewBox="0 0 109 67" fill="none" xmlns="http://www.w3.org/2000/svg">
<path d="M0.5 29C0.5 13.2599 13.2599 0.5 29 0.5H80C95.7401 0.5 108.5 13.2599 108.5 29V38C108.5 53.7401 95.7401 66.5 80 66.5H29C13.2599 66.5 0.5 53.7401 0.5 38V29Z" fill="#381515" fill-opacity="0.5" stroke="#260B0D"/>
<path d="M20.041 21.4463C20.041 16.9752 23.6656 13.3506 28.1368 13.3506H81.2324C85.7036 13.3506 89.3282 16.9752 89.3282 21.4463V45.8048C89.3282 50.2759 85.7036 53.9005 81.2324 53.9005H28.1368C23.6656 53.9005 20.041 50.2759 20.041 45.8048V42.134C20.511 42.5931 21.1538 42.876 21.8626 42.876C23.3025 42.876 24.4698 41.7087 24.4698 40.2688V27.7205C24.4698 26.2806 23.3025 25.1133 21.8626 25.1133C21.1538 25.1133 20.511 25.3962 20.041 25.8552V21.4463Z" fill="#381515" stroke="#834444" stroke-width="3"/>
<path d="M38.73 33.0029L29.7349 24.0724C29.1829 23.5243 28.288 23.5243 27.736 24.0724C27.184 24.6204 27.184 25.5089 27.736 26.0569L34.3182 32.5919L18.4134 32.5919C17.6328 32.5919 17 33.2202 17 33.9952C17 34.7702 17.6328 35.3985 18.4134 35.3985L34.3182 35.3985L27.736 41.9335C27.184 42.4815 27.184 43.3701 27.736 43.9181C28.288 44.4661 29.1829 44.4661 29.7349 43.9181L38.73 34.9875C39.282 34.4395 39.282 33.551 38.73 33.0029Z" fill="#834444"/>
<path d="M39.0823 32.6481L30.0872 23.7175C29.3402 22.9759 28.1307 22.9759 27.3837 23.7175C26.6348 24.4611 26.6348 25.6682 27.3837 26.4118L33.1049 32.0919L18.4134 32.0919C17.3601 32.0919 16.5 32.9407 16.5 33.9952C16.5 35.0498 17.3601 35.8985 18.4134 35.8985L33.1049 35.8985L27.3837 41.5787C26.6348 42.3223 26.6348 43.5293 27.3837 44.2729C28.1307 45.0145 29.3402 45.0145 30.0872 44.2729L39.0823 35.3423C39.8313 34.5988 39.8313 33.3917 39.0823 32.6481Z" stroke="#381515" stroke-opacity="0.5"/>
<path d="M71.1469 33.0029L80.142 24.0724C80.694 23.5243 81.589 23.5243 82.141 24.0724C82.6929 24.6204 82.6929 25.5089 82.141 26.0569L75.5587 32.5919L91.4635 32.5919C92.2441 32.5919 92.877 33.2202 92.877 33.9952C92.877 34.7702 92.2441 35.3985 91.4635 35.3985L75.5587 35.3985L82.141 41.9335C82.6929 42.4815 82.6929 43.3701 82.141 43.9181C81.589 44.4661 80.694 44.4661 80.142 43.9181L71.1469 34.9875C70.5949 34.4395 70.5949 33.551 71.1469 33.0029Z" fill="#834444"/>
<path d="M70.7946 32.6481L79.7898 23.7175C80.5367 22.9759 81.7463 22.9759 82.4932 23.7175C83.2422 24.4611 83.2422 25.6682 82.4932 26.4118L76.772 32.0919L91.4635 32.0919C92.5169 32.0919 93.377 32.9407 93.377 33.9952C93.377 35.0498 92.5169 35.8985 91.4635 35.8985L76.772 35.8985L82.4932 41.5787C83.2422 42.3223 83.2422 43.5293 82.4932 44.2729C81.7463 45.0145 80.5367 45.0145 79.7898 44.2729L70.7946 35.3423C70.0457 34.5988 70.0457 33.3917 70.7946 32.6481Z" stroke="#381515" stroke-opacity="0.5"/>
</svg>
