<svg width="78" height="67" viewBox="0 0 78 67" fill="none" xmlns="http://www.w3.org/2000/svg">
<path d="M49 0.499999C64.7401 0.499999 77.5 13.2599 77.5 29L77.5 38C77.5 53.7401 64.7401 66.5 49 66.5L29 66.5C13.2599 66.5 0.499998 53.7401 0.499998 38L0.499999 29C0.499999 13.2599 13.2599 0.499997 29 0.499998L49 0.499999Z" fill="#381515" fill-opacity="0.5" stroke="#260B0D"/>
<path d="M38.75 42.4126C39.9915 42.4126 40.998 42.0101 40.998 41.5136C40.998 41.0171 39.9915 40.6146 38.75 40.6146C37.5085 40.6146 36.502 41.0171 36.502 41.5136C36.502 42.0101 37.5085 42.4126 38.75 42.4126Z" fill="#834444"/>
<path d="M60.5 29.7016C60.5 28.7516 60.493 26.8056 54.999 25.5016L55 14.5016C55 13.7306 54.646 13.0046 54.038 12.5306C53.43 12.0546 52.639 11.8866 51.892 12.0766L38.75 15.3736L25.607 12.0766C24.859 11.8876 24.068 12.0556 23.461 12.5306C22.855 13.0046 22.5 13.7296 22.5 14.5006V25.5016C17.007 26.8056 17 28.7506 17 29.7016C17 31.0826 18.119 32.2016 19.5 32.2016H21.57C21.441 32.8906 21.341 33.5846 21.265 34.2416C19.894 35.3956 19.015 37.1706 19.015 39.1546C19.015 41.9416 20.751 44.3116 23.152 45.1416C26.177 50.8016 32.152 54.4486 38.777 54.4486C45.408 54.4486 51.393 50.7926 54.417 45.1196C56.781 44.2666 58.484 41.9166 58.484 39.1546C58.484 37.2016 57.63 35.4526 56.296 34.2956C56.223 33.6256 56.118 32.9146 55.984 32.2036H58C59.381 32.2016 60.5 31.0816 60.5 29.7016ZM49.947 34.8276C49.925 34.6536 49.871 34.4856 49.761 34.3436C49.572 34.0976 49.279 33.9526 48.966 33.9526H41.466C41.155 33.9526 40.862 34.0976 40.673 34.3436C40.566 34.4886 40.511 34.6556 40.485 34.8276H37.006C36.984 34.6536 36.931 34.4856 36.82 34.3436C36.631 34.0976 36.338 33.9526 36.026 33.9526H28.526C28.215 33.9526 27.922 34.0976 27.733 34.3436C27.625 34.4886 27.571 34.6556 27.547 34.8276H25.524C25.52 34.7026 25.508 34.5776 25.508 34.4526C25.508 33.6616 25.592 32.9146 25.733 32.2026H51.762C51.901 32.9166 51.985 33.6636 51.985 34.4526C51.985 34.5776 51.975 34.7026 51.971 34.8276H49.947ZM52.468 41.4566C52.207 41.4566 51.96 41.3956 51.733 41.2946C49.899 46.6136 44.798 50.4466 38.778 50.4466C32.754 50.4466 27.647 46.6046 25.819 41.2756C25.578 41.3896 25.313 41.4566 25.034 41.4566C23.916 41.4566 23.016 40.4266 23.016 39.1526C23.016 37.8816 23.912 36.8506 25.03 36.8466C25.338 37.3736 25.69 37.8816 26.092 38.3666C25.898 37.6946 25.75 37.0126 25.654 36.3266H27.867L28.568 38.9596C28.685 39.3976 29.082 39.7016 29.535 39.7016H35.035C35.488 39.7016 35.885 39.3956 36.001 38.9596L36.703 36.3266H40.805L41.507 38.9596C41.623 39.3976 42.02 39.7016 42.473 39.7016H47.973C48.426 39.7016 48.824 39.3956 48.94 38.9596L49.641 36.3266H51.854C51.756 37.0126 51.61 37.6946 51.416 38.3666C51.814 37.8856 52.17 37.3766 52.478 36.8466C53.593 36.8506 54.492 37.8796 54.492 39.1526C54.484 40.4266 53.586 41.4566 52.468 41.4566Z" fill="#834444"/>
</svg>
