<svg width="78" height="67" viewBox="0 0 78 67" fill="none" xmlns="http://www.w3.org/2000/svg">
<path d="M49 0.499999C64.7401 0.499999 77.5 13.2599 77.5 29L77.5 38C77.5 53.7401 64.7401 66.5 49 66.5L29 66.5C13.2599 66.5 0.499998 53.7401 0.499998 38L0.499999 29C0.499999 13.2599 13.2599 0.499997 29 0.499998L49 0.499999Z" fill="#381515" fill-opacity="0.5" stroke="#EB3D3D"/>
<path d="M50.1371 31.8084C51.2876 33.0188 51.2876 34.9812 50.1371 36.1916L35.0292 52.086C33.1733 54.0385 30 52.6557 30 49.8944V18.1056C30 15.3443 33.1733 13.9615 35.0292 15.914L50.1371 31.8084Z" fill="#EB3D3D"/>
</svg>
