<svg width="54" height="77" viewBox="0 0 54 77" fill="none" xmlns="http://www.w3.org/2000/svg">
<path d="M29.5755 0L33.0424 3.41559L33.003 7.31662L29.5293 4.08397L29.5755 0Z" fill="#295C17"/>
<path d="M23.2407 28.905C21.9173 28.1772 20.5968 27.4487 19.2743 26.7209C19.0246 26.5847 18.7867 26.4413 18.5615 26.294C18.3354 26.146 18.123 25.9931 17.9214 25.8347C17.7189 25.6763 17.5291 25.5124 17.3512 25.3429C17.1732 25.1743 17.007 24.9992 16.8537 24.8203C16.5882 24.5098 16.3561 24.1923 16.1575 23.8676C15.9599 23.5421 15.7957 23.2103 15.6669 22.8729C15.5371 22.5332 15.4417 22.1887 15.3808 21.8355C15.3179 21.4823 15.2903 21.122 15.2982 20.7561C15.3041 20.3538 15.3483 19.9602 15.429 19.5737C15.5106 19.1873 15.6276 18.8095 15.7829 18.4381C15.9363 18.0683 16.129 17.7048 16.3571 17.3508C16.5842 16.996 16.8507 16.6484 17.1506 16.3086C17.4534 15.9689 17.7808 15.6513 18.1328 15.3583C18.4848 15.0645 18.8614 14.7952 19.2645 14.549C19.6676 14.3027 20.0953 14.0801 20.5476 13.8806C21.0029 13.681 21.4807 13.5044 21.9851 13.3516L25.8089 16.1494C25.3271 16.2936 24.8699 16.4615 24.4373 16.6507C24.0037 16.8408 23.5956 17.053 23.2112 17.2882C22.8258 17.5219 22.4649 17.7792 22.1296 18.0588C21.7934 18.3375 21.4807 18.6385 21.1917 18.9647C20.9046 19.2886 20.6519 19.6197 20.4346 19.957C20.2163 20.2952 20.0354 20.6413 19.8859 20.9953C19.7404 21.3492 19.6283 21.7088 19.5516 22.0786C19.4749 22.4469 19.4336 22.823 19.4287 23.2071C19.4238 23.5571 19.4494 23.9 19.5084 24.2366C19.5683 24.5732 19.6608 24.9034 19.7847 25.2257C19.9085 25.5504 20.0668 25.8664 20.2566 26.1768C20.4464 26.4865 20.6686 26.7906 20.9242 27.0883C21.0717 27.2586 21.231 27.4249 21.4001 27.5865C21.5702 27.7488 21.7521 27.9048 21.9448 28.0561C22.1385 28.2073 22.343 28.3531 22.5593 28.4948C22.7756 28.6374 23.0028 28.7736 23.2407 28.905Z" fill="#295C17"/>
<path d="M32.696 14.9799C33.813 15.8938 34.9289 16.8077 36.0468 17.7208C35.8305 17.5442 35.6024 17.3771 35.3655 17.2195C35.1265 17.0619 34.8768 16.9146 34.6153 16.7768C34.3537 16.639 34.0824 16.5115 33.8002 16.3927C33.516 16.2747 33.222 16.1655 32.9172 16.0673L29.4238 13.252C29.7434 13.3549 30.0501 13.4681 30.3481 13.5909C30.644 13.7152 30.9282 13.8491 31.2015 13.9916C31.4739 14.1357 31.7344 14.2902 31.9851 14.4541C32.2329 14.6204 32.4709 14.7946 32.696 14.9799Z" fill="#295C17"/>
<path d="M18.9493 39.4426C17.5541 38.8859 16.1589 38.33 14.7637 37.7725C15.2651 37.9728 15.7833 38.1661 16.3182 38.3514C16.853 38.5367 17.4046 38.7156 17.9739 38.8859C18.5442 39.0578 19.1302 39.2209 19.7309 39.3777C20.3356 39.5353 20.9551 39.685 21.5922 39.8251L25.4779 41.4074C24.8683 41.2712 24.2754 41.1287 23.7002 40.979C23.1241 40.8301 22.5636 40.6725 22.0189 40.5086C21.4762 40.3446 20.9472 40.1736 20.4359 39.9962C19.9266 39.8188 19.4291 39.6343 18.9493 39.4426Z" fill="#295C17"/>
<path d="M29.4251 13.2539L32.9185 16.0684L32.7632 31.7256L29.2363 29.665L29.4251 13.2539Z" fill="#295C17"/>
<path d="M22.1187 11.4561L21.986 13.3519C21.4825 13.5048 21.0037 13.6814 20.5485 13.8809C20.0962 14.0797 19.6675 14.303 19.2654 14.5493C18.8622 14.7956 18.4857 15.0657 18.1337 15.3587C17.7807 15.6517 17.4543 15.9693 17.1514 16.309C16.8506 16.6487 16.5851 16.9964 16.358 17.3512C16.1299 17.7052 15.9371 18.0687 15.7838 18.4385C15.6284 18.8099 15.5114 19.1876 15.4298 19.5741C15.3492 19.9598 15.3049 20.3542 15.299 20.7565C15.2912 21.1215 15.3187 21.4827 15.3816 21.8359C15.4426 22.1883 15.538 22.5335 15.6677 22.8733C15.7975 23.2106 15.9607 23.5425 16.1584 23.8679C16.356 24.1926 16.589 24.5094 16.8545 24.8206C17.1219 25.1319 17.4248 25.4265 17.762 25.7052C18.0993 25.9848 18.4739 26.2477 18.8839 26.4948C19.2939 26.7426 19.7393 26.9739 20.2191 27.1909C20.7009 27.4063 21.219 27.6066 21.7716 27.792L21.866 28.5585C20.8336 28.2418 19.9615 27.9345 19.2192 27.6304C18.4768 27.3255 17.8594 27.0238 17.3353 26.7189C16.8103 26.414 16.3766 26.1036 16.001 25.7828C15.6235 25.4621 15.3039 25.1295 15.0021 24.7802C14.6393 24.3985 14.3404 24.0398 14.0965 23.6866C13.8537 23.3334 13.6679 22.9849 13.5292 22.6254C13.3926 22.2659 13.3051 21.8945 13.2608 21.4937C13.2166 21.0938 13.2166 20.663 13.2529 20.1863C13.2352 19.6747 13.2559 19.2106 13.3198 18.7758C13.3847 18.3419 13.4968 17.9372 13.661 17.5444C13.8252 17.1524 14.0415 16.7715 14.3187 16.3858C14.595 15.9986 14.9323 15.6058 15.3364 15.1876C15.6972 14.7449 16.0542 14.3585 16.4524 14.0124C16.8476 13.6647 17.2812 13.3559 17.7925 13.0692C18.3057 12.7825 18.8947 12.5164 19.6026 12.2551C20.3086 11.9906 21.1345 11.7301 22.1187 11.4561Z" fill="#295C17"/>
<path d="M44.8711 10.1543C45.8022 11.1498 46.7343 12.1436 47.6635 13.1391C48.1394 13.6475 48.5759 14.1844 48.9722 14.7514C49.3704 15.3193 49.7283 15.9179 50.0478 16.5444C50.3673 17.1724 50.6466 17.8297 50.8865 18.5171C51.1274 19.2052 51.3279 19.9235 51.4912 20.6711L48.8699 18.0443C48.7027 17.2603 48.4923 16.5079 48.2416 15.7865C47.9899 15.0658 47.6979 14.3769 47.3636 13.7196C47.0303 13.0623 46.6557 12.4366 46.2388 11.8419C45.8258 11.2487 45.3686 10.6865 44.8711 10.1543Z" fill="#295C17"/>
<path d="M48.8665 18.0449L51.4877 20.6717L38.7982 22.3087L35.5723 19.7824L48.8665 18.0449Z" fill="#295C17"/>
<path d="M13.3203 48.2812L17.5895 49.4636C17.7114 50.0037 17.8628 50.5248 18.0418 51.0292C18.2217 51.5321 18.4301 52.0184 18.6671 52.4856C18.907 52.9512 19.1725 53.4003 19.4694 53.8303C19.7673 54.2611 20.0938 54.6721 20.4477 55.0657C20.8037 55.4609 21.1704 55.8267 21.5489 56.1673C21.9275 56.5078 22.3159 56.8206 22.716 57.1065C23.1172 57.3924 23.5282 57.6513 23.952 57.8834C24.3747 58.1162 24.8083 58.3213 25.2528 58.4987L21.3248 57.7559C20.8597 57.5706 20.4055 57.3559 19.964 57.1112C19.5205 56.8681 19.0909 56.5965 18.673 56.2964C18.2541 55.997 17.8471 55.6691 17.4518 55.3112C17.0576 54.9548 16.6741 54.5707 16.3015 54.1566C15.9298 53.744 15.5896 53.3132 15.2799 52.8618C14.9702 52.4104 14.6909 51.9407 14.4432 51.4505C14.1944 50.9611 13.9771 50.4519 13.7893 49.9237C13.6035 49.3947 13.4471 48.8475 13.3203 48.2812Z" fill="#295C17"/>
<path d="M32.7955 42.7223C33.9243 43.2069 35.053 43.6932 36.1808 44.1786C35.9291 44.0709 35.6666 43.9664 35.3932 43.8658C35.1199 43.7644 34.8357 43.6686 34.5418 43.5767C34.2488 43.4841 33.942 43.3962 33.6283 43.3122C33.3127 43.2283 32.9853 43.1483 32.65 43.0715L29.0996 41.5645C29.4516 41.6436 29.7938 41.7276 30.1231 41.8163C30.4535 41.9042 30.7721 41.9961 31.0808 42.0927C31.3886 42.1901 31.6855 42.2891 31.9706 42.3944C32.2558 42.5005 32.5311 42.609 32.7955 42.7223Z" fill="#295C17"/>
<path d="M0 50.0494L0.0167132 49.564L13.3208 48.2803L11.4221 48.951L0 50.0494Z" fill="#295C17"/>
<path d="M35.6497 18.1854L35.5711 19.7827C35.3774 18.9599 35.105 18.2083 34.7521 17.5249C34.3991 16.8423 33.9645 16.2293 33.4522 15.6853C32.939 15.142 32.3471 14.6676 31.6726 14.263C31.001 13.8583 30.2508 13.5217 29.421 13.254L27.5332 11.3027C28.95 11.747 30.124 12.1984 31.0974 12.6751C32.0747 13.1535 32.8505 13.6579 33.4689 14.2067C34.0894 14.7547 34.5515 15.3495 34.8995 16.0052C35.2486 16.6625 35.4846 17.3832 35.6497 18.1854Z" fill="#295C17"/>
<path d="M2.7692 23.7528C2.75249 23.5762 2.73382 23.4004 2.71612 23.2238C2.70236 23.0796 2.69251 22.9371 2.67383 22.793C2.75937 23.6395 2.90391 24.4742 3.11137 25.2891C3.31883 26.1032 3.58627 26.8991 3.92253 27.6673C4.25781 28.4355 4.65897 29.1775 5.12896 29.8847C5.59992 30.5935 6.13971 31.2666 6.75324 31.8986C7.47689 32.6453 8.33034 33.3415 9.31553 33.9924C10.2997 34.6458 11.4147 35.2524 12.6595 35.8194C13.9082 36.3864 15.2847 36.9131 16.792 37.404C18.3032 37.895 19.9442 38.3504 21.717 38.7725L21.5941 39.8273C19.9147 39.4536 18.3524 39.0275 16.906 38.5523C15.4637 38.0756 14.1373 37.5498 12.925 36.9724C11.7146 36.3959 10.6183 35.7695 9.63607 35.0916C8.65677 34.4153 7.78957 33.6875 7.03445 32.9099C6.40814 32.2636 5.84966 31.5873 5.35805 30.8825C4.86939 30.1785 4.44462 29.4436 4.08968 28.681C3.73572 27.9183 3.44763 27.1272 3.22739 26.3044C3.00911 25.4839 2.85573 24.6334 2.7692 23.7528Z" fill="#295C17"/>
<path d="M29.0951 41.5645L32.6455 43.0715L32.4852 59.0676L28.9023 58.3502L29.0951 41.5645Z" fill="#295C17"/>
<path d="M46.9728 16.6963L48.8665 18.0449L35.5723 19.7824L35.6509 18.1851L46.9728 16.6963Z" fill="#295C17"/>
<path d="M27.625 4.08715L29.5305 4.08398C30.8893 4.16714 32.1832 4.31364 33.4074 4.52271C34.6315 4.73337 35.7887 5.00737 36.8801 5.34473C37.9695 5.68368 38.9921 6.08598 39.9458 6.55242C40.8995 7.02045 41.7854 7.55263 42.5995 8.15054C43.4156 8.74765 44.1589 9.40178 44.8285 10.1114C45.501 10.8225 46.0979 11.5899 46.6219 12.4135C47.145 13.2395 47.5943 14.1201 47.9689 15.0577C48.3445 15.9978 48.6454 16.9924 48.8715 18.0457L46.9778 16.697C46.7881 15.9629 46.5226 15.1955 46.1854 14.4258C45.8481 13.6544 45.4352 12.8791 44.9495 12.1236C44.4647 11.3697 43.9043 10.6356 43.2721 9.94742C42.6389 9.26003 41.9339 8.61777 41.1552 8.04679C40.3794 7.4774 39.5132 6.97373 38.5585 6.53104C37.6067 6.09073 36.5665 5.70981 35.4377 5.38671C34.3109 5.0636 33.0957 4.79672 31.7919 4.58211C30.4911 4.36591 29.1008 4.20198 27.625 4.08715Z" fill="#295C17"/>
<path d="M11.4238 48.9518L13.3224 48.2803C13.4493 48.8473 13.6056 49.3945 13.7934 49.9227C13.9812 50.451 14.1985 50.9602 14.4473 51.4496C14.695 51.9398 14.9733 52.4094 15.284 52.8608C15.5937 53.3122 15.9339 53.7438 16.3056 54.1556C16.6772 54.5698 17.0607 54.9539 17.4559 55.3102C17.8512 55.6674 18.2582 55.996 18.6771 56.2954C19.095 56.5955 19.5246 56.8672 19.9681 57.1103C20.4095 57.355 20.8638 57.5696 21.3289 57.7549L21.4183 58.9824C20.5256 58.6229 19.7429 58.2839 19.0488 57.9465C18.3546 57.6108 17.746 57.2766 17.1983 56.9234C16.6516 56.5733 16.1649 56.2043 15.7146 55.8004C15.2643 55.3981 14.8484 54.9586 14.4443 54.4684C14.0451 54.0233 13.6754 53.5696 13.3401 53.1102C13.0058 52.6509 12.703 52.1869 12.4454 51.722C12.1848 51.2571 11.9666 50.7915 11.7955 50.3274C11.6224 49.8649 11.4966 49.4048 11.4238 48.9518Z" fill="#295C17"/>
<path d="M28.7946 67.9727L32.3991 68.2316L32.3214 76.0456L28.7012 76.1802L28.7946 67.9727Z" fill="#295C17"/>
<path d="M53.2655 46.016C53.0816 45.0023 52.8034 44.0401 52.4347 43.1317C52.065 42.2234 51.6048 41.3689 51.0503 40.5659C50.4987 39.7645 49.8557 39.0137 49.1212 38.3168C48.9737 38.1767 48.8183 38.0381 48.6571 37.9003C48.4968 37.7625 48.3287 37.6263 48.1557 37.4916C47.9816 37.357 47.8017 37.224 47.6159 37.0925C47.4281 36.961 47.2354 36.832 47.0368 36.7029C46.085 36.0915 45.1322 35.4793 44.1824 34.8672C44.3909 35.0018 44.5924 35.138 44.7891 35.275C44.9848 35.4128 45.1735 35.553 45.3564 35.6932C45.5383 35.8333 45.7123 35.9759 45.8814 36.1208C46.0506 36.2649 46.2118 36.4099 46.3672 36.5564C47.1361 37.2881 47.8106 38.0729 48.3887 38.9147C48.9678 39.7566 49.4486 40.6546 49.836 41.6057C50.2224 42.56 50.5115 43.5689 50.7032 44.6332C50.8969 45.6984 50.9923 46.8198 50.9893 47.995C50.9874 49.3096 50.8615 50.5759 50.6127 51.7907C50.365 53.0071 49.9933 54.172 49.4997 55.2878C49.0042 56.4029 48.3877 57.4664 47.6464 58.4785C46.9079 59.4906 46.0437 60.4504 45.0595 61.3564C44.0762 62.2647 42.9967 63.0828 41.8247 63.8114C40.6527 64.5407 39.3853 65.1814 38.0274 65.7326C36.6706 66.283 35.2213 66.7455 33.6806 67.1185C32.1409 67.4915 30.5116 67.7758 28.793 67.9714L32.3965 68.2303C34.0375 68.045 35.591 67.7758 37.059 67.421C38.5289 67.0654 39.9093 66.6267 41.2042 66.1024C42.4992 65.5766 43.7036 64.9676 44.8225 64.2739C45.9385 63.5801 46.9679 62.8017 47.9049 61.9377C48.842 61.0745 49.663 60.1622 50.3679 59.1992C51.0719 58.2362 51.6599 57.2225 52.1299 56.1621C52.5998 55.1017 52.9518 53.9907 53.1888 52.8321C53.4238 51.6751 53.5418 50.4698 53.5428 49.2177C53.5408 48.0979 53.4494 47.0304 53.2655 46.016Z" fill="#295C17"/>
<path d="M22.2208 4.29427L22.1166 4.34733L22.1766 0.281569L22.2808 0.257812L22.2208 4.29427ZM22.1156 11.4565L21.9829 13.3523L21.7675 27.7924L21.8619 28.5589L22.1156 11.4565ZM21.7125 38.7717L21.5896 39.8265L21.3231 57.755L21.4126 58.9824L21.7125 38.7717ZM21.2897 67.3056L21.1688 68.1522L21.0527 76.1008L21.1727 75.2455L21.2897 67.3056Z" fill="#295C17"/>
<path d="M26.9414 59.2471L28.9039 58.3514C29.5617 58.2492 30.191 58.1091 30.7898 57.9317C31.3866 57.7551 31.9578 57.5405 32.4957 57.2886C33.0355 57.0344 33.5438 56.7454 34.0226 56.4175C34.5014 56.0896 34.9498 55.7246 35.3677 55.3223L35.3903 55.685C34.8898 56.2021 34.3953 56.6464 33.8623 57.0312C33.3314 57.4145 32.7611 57.7392 32.1132 58.0172C31.4652 58.296 30.7376 58.5288 29.8891 58.7283C29.0426 58.9279 28.0731 59.0966 26.9414 59.2471Z" fill="#295C17"/>
<path d="M35.3926 55.6845L35.37 55.3218C35.7888 54.9179 36.1556 54.499 36.4702 54.061C36.7848 53.6223 37.0474 53.1669 37.2578 52.6949C37.4692 52.2222 37.6304 51.732 37.7356 51.2251C37.8457 50.7175 37.8998 50.1932 37.9037 49.6524C37.9077 49.1685 37.8683 48.7036 37.7828 48.2554C37.7002 47.8064 37.5734 47.3756 37.4023 46.9614C37.2322 46.5472 37.0169 46.1512 36.7583 45.7711C36.5017 45.3918 36.2008 45.0307 35.8567 44.6862C35.5125 44.3417 35.1133 44.0178 34.6591 43.7161C34.2039 43.4143 33.6946 43.1332 33.1321 42.8727C32.5688 42.6129 31.9503 42.3737 31.2768 42.1568C30.6052 41.9382 29.8786 41.7418 29.098 41.5652L27.1797 40.0479C28.4225 40.2965 29.4922 40.5594 30.4204 40.8334C31.3505 41.1106 32.1391 41.3997 32.8214 41.7077C33.5058 42.0158 34.08 42.3405 34.5834 42.6866C35.0858 43.0326 35.5155 43.3993 35.9048 43.7905C36.2942 44.1778 36.6432 44.569 36.9431 44.9744C37.243 45.3799 37.4967 45.802 37.6982 46.2502C37.8978 46.6977 38.0453 47.1728 38.1338 47.69C38.2233 48.2055 38.2528 48.7614 38.2174 49.3688C38.242 50.0412 38.2144 50.6486 38.124 51.214C38.0345 51.7779 37.8831 52.2998 37.6599 52.7987C37.4367 53.2976 37.1427 53.7736 36.7681 54.2487C36.3925 54.7215 35.9383 55.1935 35.3926 55.6845Z" fill="#295C17"/>
<path d="M27.6743 0.0522672L29.5758 0L29.5296 4.08397L27.6241 4.08714L27.6743 0.0522672ZM27.3056 29.8454L29.2347 29.664L29.4234 13.2529L27.5356 11.3016L27.3056 29.8454ZM26.9427 59.2465L28.9053 58.3508L29.098 41.5643L27.1797 40.047L26.9427 59.2465ZM26.7441 75.2989L28.6988 76.1795L28.7932 67.9728L26.8444 67.1286L26.7441 75.2989Z" fill="#295C17"/>
<path d="M26.7446 75.299L28.7003 76.1796L21.0566 76.1004L21.1756 75.2451L26.7446 75.299Z" fill="#295C17"/>
<path d="M44.8597 36.7079C45.5922 37.4056 46.2254 38.1722 46.7662 38.999C47.307 39.8265 47.7553 40.7127 48.1152 41.6456C48.4751 42.5785 48.7474 43.5581 48.9382 44.5726C49.1269 45.5886 49.2361 46.6371 49.2665 47.7078C49.2321 48.9099 49.0945 50.1002 48.8487 51.2628C48.6029 52.4269 48.2479 53.5625 47.7779 54.6578C47.3089 55.7522 46.7249 56.8071 46.0199 57.8065C45.3169 58.8059 44.494 59.7483 43.5451 60.6218C42.5983 61.4953 41.5364 62.2801 40.3605 62.9801C39.1865 63.681 37.9005 64.2979 36.5033 64.834C35.1071 65.3702 33.6018 65.8255 31.9903 66.208C30.3817 66.5882 28.666 66.8938 26.845 67.1291L26.7448 75.3002L21.1758 75.2463L21.2937 67.3072C19.6753 67.11 18.1504 66.8535 16.7198 66.5311C15.2911 66.2088 13.9559 65.8224 12.7121 65.3678C11.4713 64.9132 10.3219 64.3906 9.26494 63.7942C8.2119 63.1987 7.24736 62.5303 6.37425 61.7843C5.5041 61.0407 4.72144 60.2036 4.02335 59.3C3.32624 58.3972 2.71369 57.4279 2.18668 56.4158C1.65869 55.4046 1.21427 54.3513 0.85146 53.2814C0.487666 52.2139 0.205481 51.1289 0.00195312 50.0503L11.4241 48.9527C11.4959 49.4057 11.6227 49.8658 11.7938 50.3283C11.9649 50.7916 12.1832 51.2572 12.4437 51.7229C12.7013 52.1877 13.0041 52.6518 13.3384 53.1111C13.6737 53.5704 14.0434 54.0242 14.4426 54.4693C14.8477 54.9595 15.2636 55.399 15.7129 55.8013C16.1633 56.2052 16.65 56.5742 17.1966 56.9243C17.7453 57.2775 18.3529 57.6117 19.0471 57.9474C19.7412 58.2848 20.5229 58.6245 21.4166 58.9833L21.7165 38.7725C19.9438 38.3504 18.3028 37.895 16.7915 37.404C15.2843 36.9138 13.9068 36.3872 12.659 35.8194C11.4143 35.2532 10.3003 34.6457 9.31508 33.9924C8.33087 33.3414 7.47644 32.6453 6.75279 31.8985C6.03012 31.1533 5.40872 30.3503 4.88171 29.5014C4.35765 28.654 3.92798 27.7615 3.5868 26.8326C3.24857 25.906 2.99687 24.9446 2.82972 23.9618C2.66356 22.9798 2.58096 21.9741 2.57407 20.9588C2.62618 19.9428 2.78646 18.9236 3.048 17.921C3.30757 16.9208 3.66546 15.9364 4.11479 14.9893C4.56216 14.0437 5.09998 13.1354 5.7145 12.2841C6.32902 11.4351 7.0222 10.6432 7.78321 9.93125C8.62879 9.17416 9.56286 8.4939 10.5854 7.88807C11.6099 7.28225 12.7229 6.74928 13.9254 6.28521C15.1289 5.82114 16.4218 5.42597 17.8033 5.09573C19.1877 4.7655 20.6625 4.5002 22.2249 4.29509L22.2848 0.257844L27.6739 0.0527344L27.6238 4.08761C29.0996 4.20244 30.4899 4.36637 31.7897 4.58177C33.0934 4.79559 34.3077 5.06247 35.4355 5.38637C36.5642 5.70948 37.6045 6.09039 38.5563 6.53071C39.511 6.97339 40.3772 7.47706 41.153 8.04646C41.9317 8.61744 42.6376 9.25969 43.2698 9.94709C43.903 10.6353 44.4625 11.3694 44.9472 12.1233C45.4329 12.8788 45.8459 13.6541 46.1832 14.4254C46.5204 15.196 46.7859 15.9626 46.9756 16.6967L35.6538 18.1855C35.4876 17.3833 35.2526 16.6626 34.9026 16.0053C34.5545 15.3496 34.0924 14.7549 33.472 14.2069C32.8535 13.6581 32.0778 13.1536 31.1004 12.6753C30.127 12.1977 28.9531 11.7471 27.5362 11.3029L27.3062 29.8467C29.4899 30.3202 31.4957 30.812 33.3216 31.3252C35.1504 31.8423 36.7992 32.38 38.2633 32.9447C39.7332 33.5109 41.0173 34.1049 42.1155 34.7305C43.2168 35.3569 44.1321 36.0142 44.8597 36.7079ZM35.3922 55.6849C35.9379 55.1939 36.3922 54.7219 36.7687 54.2483C37.1434 53.774 37.4373 53.298 37.6605 52.7983C37.8837 52.2994 38.0351 51.7775 38.1246 51.2137C38.2151 50.6482 38.2426 50.0408 38.218 49.3685C38.2524 48.7611 38.2239 48.2059 38.1345 47.6896C38.046 47.1733 37.8985 46.6973 37.6989 46.2499C37.4983 45.8008 37.2437 45.3795 36.9438 44.9741C36.6439 44.5686 36.2948 44.1774 35.9055 43.7901C35.5161 43.3989 35.0864 43.0323 34.584 42.6862C34.0806 42.3401 33.5064 42.0154 32.8221 41.7074C32.1397 41.4001 31.3512 41.1102 30.421 40.8331C29.4929 40.5591 28.4231 40.2969 27.1803 40.0475L26.9424 59.247C28.0741 59.0973 29.0435 58.9278 29.8911 58.7275C30.7396 58.5279 31.4672 58.2951 32.1151 58.0163C32.7631 57.7384 33.3334 57.4145 33.8643 57.0304C34.3972 56.6463 34.8928 56.202 35.3922 55.6849ZM21.867 28.5582L22.1206 11.4557C21.1364 11.7297 20.3105 11.9903 19.6045 12.2532C18.8966 12.5145 18.3077 12.7806 17.7944 13.0673C17.2832 13.354 16.8496 13.6628 16.4543 14.0105C16.0571 14.3565 15.6992 14.743 15.3383 15.1857C14.9342 15.603 14.597 15.9966 14.3207 16.3839C14.0424 16.7703 13.8271 17.1505 13.6629 17.5425C13.4987 17.9353 13.3876 18.3399 13.3217 18.7739C13.2578 19.2087 13.2382 19.6728 13.2549 20.1843C13.2185 20.6611 13.2185 21.0919 13.2627 21.4918C13.307 21.8925 13.3935 22.2639 13.5312 22.6235C13.6688 22.983 13.8556 23.3315 14.0985 23.6847C14.3423 24.0379 14.6412 24.3958 15.004 24.7783C15.3059 25.1276 15.6245 25.4602 16.003 25.7809C16.3796 26.1016 16.8132 26.4121 17.3372 26.717C17.8613 27.0218 18.4788 27.3244 19.2211 27.6285C19.9624 27.9341 20.8346 28.2414 21.867 28.5582Z" fill="#428D28"/>
<path d="M1.04195 53.8453C0.957391 53.5895 0.904297 53.4375 0.904297 53.4375C1.17763 54.2255 1.49619 55.0047 1.859 55.7618C2.22378 56.5213 2.63183 57.2593 3.0851 57.9681C3.54131 58.6777 4.04177 59.3572 4.58844 59.997C5.1361 60.6361 5.73193 61.2356 6.37398 61.7836C7.24708 62.5296 8.21163 63.198 9.26467 63.7935C10.3226 64.3899 11.472 64.9125 12.7119 65.3671C13.9556 65.8217 15.2919 66.2081 16.7195 66.5305C18.1501 66.8528 19.6751 67.1093 21.2935 67.3065L21.1725 68.1531C19.6692 67.9931 18.2415 67.7556 16.8866 67.4404C15.5357 67.1244 14.2585 66.7316 13.055 66.262C11.8545 65.7932 10.7277 65.2475 9.67369 64.6235C8.62164 64.0018 7.64333 63.3041 6.73679 62.5296C6.08 61.9674 5.46844 61.3655 4.90308 60.7225C4.33871 60.0786 3.81858 59.3952 3.34466 58.6714C2.87075 57.9467 2.44205 57.1841 2.05761 56.3787C1.67415 55.5757 1.33593 54.7299 1.04195 53.8453Z" fill="#295C17"/>
<path d="M50.7018 44.635C50.51 43.5707 50.22 42.5618 49.8346 41.6075C49.4472 40.6556 48.9664 39.7583 48.3872 38.9165C47.8101 38.0747 47.1356 37.2899 46.3657 36.5582C45.5968 35.8288 44.6608 35.1374 43.5567 34.4825C42.4545 33.8308 41.1881 33.2186 39.7545 32.6421C38.3249 32.0687 36.7311 31.5334 34.9731 31.0368C33.221 30.5411 31.3076 30.0834 29.233 29.666L27.3039 29.8474C29.4877 30.3209 31.4934 30.8127 33.3193 31.3259C35.1481 31.843 36.797 32.3807 38.261 32.9454C39.7309 33.5116 41.015 34.1056 42.1133 34.7312C43.2135 35.3576 44.1289 36.0157 44.8565 36.7086C45.589 37.4063 46.2222 38.1729 46.7629 38.9997C47.3037 39.8272 47.7521 40.7134 48.1119 41.6463C48.4718 42.5792 48.7442 43.5588 48.9349 44.5733C49.1237 45.5893 49.2328 46.6378 49.2633 47.7085C49.2289 48.9107 49.0912 50.1009 48.8454 51.2635C48.5996 52.4276 48.2447 53.5632 47.7747 54.6585C47.3057 55.7529 46.7217 56.8078 46.0167 57.8072C45.3137 58.8066 44.4907 59.749 43.5419 60.6225C42.595 61.496 41.5332 62.2808 40.3572 62.9809C39.1833 63.6817 37.8972 64.2986 36.5 64.8348C35.1039 65.3709 33.5985 65.8262 31.987 66.2087C30.3785 66.5889 28.6627 66.8946 26.8418 67.1298L28.7905 67.974C30.5092 67.7784 32.1384 67.494 33.6782 67.121C35.2189 66.7481 36.6672 66.2864 38.025 65.7352C39.3829 65.184 40.6492 64.5433 41.8222 63.814C42.9942 63.0854 44.0729 62.2673 45.0571 61.359C46.0413 60.453 46.9055 59.4932 47.6439 58.4811C48.3853 57.469 49.0018 56.4055 49.4973 55.2904C49.9909 54.1746 50.3626 53.0097 50.6103 51.7933C50.8581 50.5785 50.9849 49.3122 50.9869 47.9976C50.9899 46.8216 50.8945 45.7002 50.7018 44.635Z" fill="#428D28"/>
<path d="M46.1804 14.4253C46.5176 15.1958 46.7831 15.9624 46.9728 16.6965L40.3508 17.5676C39.8444 9.65944 38.2447 7.31613 33.9431 5.00449C34.4544 5.12249 34.9539 5.24761 35.4327 5.38461C36.5615 5.70772 37.6017 6.08864 38.5535 6.52895C39.5082 6.97164 40.3744 7.4753 41.1502 8.0447C41.9289 8.61568 42.6348 9.25793 43.267 9.94533C43.9002 10.6335 44.4597 11.3676 44.9444 12.1215C45.4301 12.8794 45.8431 13.6539 46.1804 14.4253ZM43.5423 60.6208C44.4912 59.7473 45.3141 58.8049 46.0171 57.8055C46.7211 56.8061 47.3061 55.7512 47.7751 54.6568C48.2461 53.5616 48.6001 52.4259 48.8459 51.2618C49.0907 50.1 49.2293 48.9098 49.2637 47.7068C49.2333 46.6361 49.1241 45.5876 48.9354 44.5716C48.7446 43.5571 48.4723 42.5775 48.1124 41.6446C47.7525 40.7117 47.3042 39.8256 46.7634 38.998C46.2226 38.1712 45.5894 37.4046 44.8569 36.707C44.1293 36.014 43.214 35.3559 42.1137 34.7295C41.0145 34.1031 39.7304 33.5099 38.2614 32.9437C37.7108 32.7315 37.1347 32.5224 36.531 32.3173C46.6454 41.2819 52.2508 60.4593 20.1219 67.1503C20.5063 67.2065 20.8957 67.258 21.2919 67.3055L21.1739 75.2446L26.7429 75.2984L26.8432 67.1273C28.6642 66.8921 30.3799 66.5864 31.9885 66.2063C33.6009 65.8246 35.1053 65.3684 36.5015 64.8323C37.8986 64.2961 39.1847 63.6792 40.3587 62.9784C41.5336 62.2791 42.5955 61.4943 43.5423 60.6208ZM17.8015 5.09477C16.42 5.425 15.1261 5.82017 13.9236 6.28424C12.7211 6.74831 11.6081 7.28049 10.5836 7.88711C9.56104 8.49293 8.62698 9.1732 7.78141 9.93028C7.02039 10.6422 6.32721 11.4342 5.71269 12.2831C5.09818 13.1344 4.56035 14.0428 4.11298 14.9883C3.66365 15.9355 3.30575 16.9198 3.04618 17.92C2.78464 18.9234 2.62438 19.9426 2.57227 20.9579C2.57816 21.9731 2.66173 22.9789 2.8279 23.9609C2.99505 24.9437 3.24577 25.9058 3.58499 26.8316C3.92617 27.7598 4.35584 28.653 4.8799 29.5004C5.40691 30.3494 6.02733 31.1524 6.75098 31.8976C7.47464 32.6444 8.32808 33.3405 9.31327 33.9914C10.2975 34.6448 11.4125 35.2514 12.6572 35.8184C13.9059 36.3854 15.2824 36.9121 16.7897 37.4031C18.3009 37.8941 19.9419 38.3494 21.7147 38.7715L21.5004 53.1601C23.3233 54.2798 25.1796 55.1945 26.9828 55.7489L27.1775 40.0473C28.4203 40.296 29.4901 40.5589 30.4182 40.8329C31.3484 41.1101 32.1369 41.3991 32.8193 41.7072C33.5036 42.0153 34.0778 42.3399 34.5812 42.686C35.0836 43.0321 35.5133 43.3987 35.9027 43.79C36.292 44.1772 36.6411 44.5684 36.941 44.9739C37.2409 45.3794 37.4945 45.8015 37.6961 46.2497C37.8957 46.6971 38.0432 47.1723 38.1317 47.6894C38.2211 48.205 38.2506 48.7609 38.2152 49.3683C38.23 49.7825 38.2231 50.1697 38.1956 50.5404C44.1795 36.8614 16.127 38.0786 9.58465 28.5588C2.85151 18.765 10.5816 7.8879 22.2211 4.29492C20.6597 4.49924 19.1859 4.76374 17.8015 5.09477Z" fill="#428D28"/>
</svg>
