<svg width="79" height="79" viewBox="0 0 79 79" fill="none" xmlns="http://www.w3.org/2000/svg">
<path d="M63.6299 16.3851C50.6047 3.35991 29.4113 3.35991 16.3861 16.3851C3.3609 29.4103 3.36087 50.6038 16.3861 63.629C29.4113 76.6542 50.6048 76.6542 63.6299 63.629C76.6551 50.6038 76.6551 29.4103 63.6299 16.3851ZM40.008 66.9845C36.5042 66.9845 33.0888 66.32 29.8563 65.0091C26.5097 63.6521 23.5071 61.6581 20.932 59.083C18.357 56.508 16.3629 53.5053 15.0057 50.1585C13.695 46.9263 13.0305 43.5108 13.0305 40.0071C13.0305 36.5033 13.695 33.0879 15.0059 29.8554C16.3629 26.5088 18.3569 23.5061 20.932 20.9311C23.507 18.356 26.5097 16.362 29.8565 15.0048C33.0888 13.6941 36.5042 13.0296 40.008 13.0296C43.5117 13.0296 46.9272 13.6941 50.1594 15.0048C53.5062 16.362 56.5089 18.356 59.084 20.9311C61.659 23.5061 63.6531 26.5088 65.01 29.8554C66.3209 33.0879 66.9854 36.5033 66.9854 40.0071C66.9854 43.5108 66.3209 46.9263 65.0102 50.1585C63.653 53.5053 61.659 56.508 59.0839 59.083C56.5089 61.6581 53.5062 63.6522 50.1596 65.0091C46.9272 66.32 43.5118 66.9845 40.008 66.9845Z" fill="#F7C01E"/>
<path d="M40.0075 66.3832C54.575 66.3832 66.3842 54.574 66.3842 40.0066C66.3842 25.4391 54.575 13.6299 40.0075 13.6299C25.4401 13.6299 13.6309 25.4391 13.6309 40.0066C13.6309 54.574 25.4401 66.3832 40.0075 66.3832Z" fill="#F7AC1E"/>
<path d="M71.5243 52.8039C72.3466 50.7763 72.9747 48.6561 73.392 46.502C73.8049 44.3684 74.0144 42.1834 74.0142 40.0071C74.0144 37.8307 73.8049 35.6457 73.392 33.5121C72.9747 31.3581 72.3466 29.2378 71.5243 27.2102C69.8134 22.9914 67.3 19.2064 64.0539 15.9603C60.8078 12.7142 57.0227 10.2007 52.8039 8.48983C50.7763 7.66753 48.6561 7.03938 46.5021 6.62216C44.3684 6.20924 42.1834 5.99979 40.0071 6C37.8308 5.99979 35.6457 6.20924 33.5121 6.6222C31.3581 7.03942 29.2379 7.66756 27.2102 8.48986C22.9914 10.2007 19.2064 12.7142 15.9603 15.9603C12.7142 19.2064 10.2007 22.9914 8.48986 27.2102C7.66756 29.2379 7.03942 31.3581 6.6222 33.5121C6.20924 35.6457 5.99979 37.8308 6 40.0071C5.99979 42.1834 6.20924 44.3684 6.6222 46.5021C7.03939 48.6561 7.66756 50.7763 8.48986 52.8039C10.2007 57.0227 12.7142 60.8078 15.9603 64.0539C19.2064 67.3 22.9914 69.8134 27.2102 71.5243C29.2379 72.3466 31.3581 72.9747 33.5121 73.392C35.6457 73.8049 37.8308 74.0144 40.0071 74.0142C42.1834 74.0144 44.3684 73.8049 46.5021 73.392C48.6561 72.9748 50.7763 72.3466 52.8039 71.5243C57.0227 69.8134 60.8078 67.3 64.0539 64.0539C67.3 60.8078 69.8134 57.0227 71.5243 52.8039ZM16.3851 63.629C3.35993 50.6038 3.35993 29.4104 16.3851 16.3852C29.4104 3.35999 50.6038 3.35996 63.629 16.3852C76.6542 29.4104 76.6542 50.6038 63.629 63.629C50.6038 76.6542 29.4104 76.6542 16.3851 63.629Z" fill="#EA7F13"/>
<path d="M65.0109 50.1582C66.3216 46.9259 66.9861 43.5105 66.9861 40.0068C66.9861 36.503 66.3216 33.0876 65.0107 29.8551C63.6537 26.5085 61.6597 23.5058 59.0847 20.9308C56.5096 18.3557 53.507 16.3617 50.1602 15.0045C46.9279 13.6938 43.5124 13.0293 40.0087 13.0293C36.5049 13.0293 33.0895 13.6938 29.8572 15.0045C26.5104 16.3617 23.5077 18.3557 20.9327 20.9308C18.3576 23.5058 16.3636 26.5085 15.0066 29.8551C13.6957 33.0876 13.0312 36.503 13.0312 40.0068C13.0312 43.5105 13.6957 46.9259 15.0064 50.1582C16.3636 53.505 18.3577 56.5077 20.9327 59.0827C23.5077 61.6578 26.5104 63.6519 29.857 65.0088C33.0895 66.3197 36.5049 66.9842 40.0087 66.9842C43.5125 66.9842 46.9279 66.3197 50.1604 65.0088C53.507 63.6518 56.5096 61.6578 59.0847 59.0827C61.6597 56.5077 63.6537 53.505 65.0109 50.1582ZM21.3575 58.6579C11.0733 48.3736 11.0733 31.6399 21.3575 21.3556C31.6418 11.0714 48.3756 11.0714 58.6598 21.3556C68.9441 31.6399 68.9441 48.3736 58.6598 58.6579C48.3756 68.9422 31.6418 68.9421 21.3575 58.6579Z" fill="#EA7F13"/>
<g opacity="0.2">
<path d="M58.6591 21.3558L21.3568 58.6581C16.4378 53.7391 13.8717 47.3451 13.6582 40.8866L40.8876 13.6572C47.346 13.8707 53.7401 16.4369 58.6591 21.3558Z" fill="white"/>
<path d="M61.0421 24.0899L24.0899 61.0421C23.7303 60.7696 23.3757 60.4864 23.0273 60.1928L60.1928 23.0273C60.4863 23.3757 60.7695 23.7303 61.0421 24.0899Z" fill="white"/>
</g>
<path opacity="0.3" d="M29.8565 15.0047C26.5097 16.3619 23.5071 18.356 20.932 20.931C18.357 23.5061 16.3629 26.5087 15.0059 29.8553C13.695 33.0878 13.0306 36.5032 13.0306 40.007C13.0306 43.5108 13.695 46.9262 15.0057 50.1585C16.3629 53.5053 18.357 56.5079 20.932 59.083L16.3861 63.629C3.36088 50.6037 3.36088 29.4103 16.3861 16.3851C29.4113 3.35993 50.6048 3.3599 63.6299 16.3851L59.084 20.9311C56.5089 18.356 53.5063 16.3619 50.1595 15.0048C46.9272 13.6941 43.5118 13.0296 40.008 13.0296C36.5042 13.0296 33.0888 13.694 29.8565 15.0047Z" fill="white"/>
<path d="M23.2699 50V30.479H28.5889C30.5149 30.479 32.1529 30.776 33.5029 31.37C34.8709 31.964 35.9689 32.747 36.7969 33.719C37.6249 34.691 38.2279 35.771 38.6059 36.959C39.0019 38.129 39.1999 39.299 39.1999 40.469C39.1999 41.945 38.9389 43.268 38.4169 44.438C37.9129 45.608 37.2109 46.607 36.3109 47.435C35.4109 48.263 34.3759 48.902 33.2059 49.352C32.0539 49.784 30.8299 50 29.5339 50H23.2699ZM25.8889 47.489H29.0209C30.1009 47.489 31.0909 47.327 31.9909 47.003C32.9089 46.679 33.7009 46.211 34.3669 45.599C35.0509 44.987 35.5819 44.24 35.9599 43.358C36.3379 42.458 36.5269 41.441 36.5269 40.307C36.5269 39.101 36.3289 38.048 35.9329 37.148C35.5369 36.23 34.9969 35.465 34.3129 34.853C33.6289 34.241 32.8549 33.782 31.9909 33.476C31.1269 33.152 30.2179 32.99 29.2639 32.99H25.8889V47.489ZM57.936 48.542C57.612 48.758 57.171 49.001 56.613 49.271C56.055 49.541 55.398 49.766 54.642 49.946C53.904 50.126 53.094 50.216 52.212 50.216C50.7 50.198 49.332 49.928 48.108 49.406C46.902 48.884 45.876 48.173 45.03 47.273C44.184 46.373 43.527 45.338 43.059 44.168C42.609 42.98 42.384 41.72 42.384 40.388C42.384 38.93 42.618 37.589 43.086 36.365C43.572 35.123 44.247 34.052 45.111 33.152C45.975 32.234 46.992 31.523 48.162 31.019C49.35 30.515 50.646 30.263 52.05 30.263C53.22 30.263 54.282 30.425 55.236 30.749C56.19 31.055 57.009 31.424 57.693 31.856L56.64 34.286C56.1 33.926 55.443 33.584 54.669 33.26C53.913 32.936 53.067 32.774 52.131 32.774C51.177 32.774 50.277 32.963 49.431 33.341C48.585 33.719 47.838 34.25 47.19 34.934C46.542 35.618 46.029 36.419 45.651 37.337C45.291 38.237 45.111 39.209 45.111 40.253C45.111 41.315 45.273 42.305 45.597 43.223C45.939 44.123 46.416 44.906 47.028 45.572C47.658 46.238 48.414 46.76 49.296 47.138C50.178 47.516 51.168 47.705 52.266 47.705C53.256 47.705 54.138 47.552 54.912 47.246C55.686 46.94 56.325 46.598 56.829 46.22L57.936 48.542Z" fill="white"/>
</svg>
