<svg width="57" height="98" viewBox="0 0 57 98" fill="none" xmlns="http://www.w3.org/2000/svg">
<path d="M17.304 1.5C11.994 1.5 7.68945 5.80456 7.68945 11.1145L7.68946 86.3511C7.68946 91.661 11.994 95.9656 17.304 95.9656L45.5177 95.9656C50.8276 95.9656 55.1322 91.661 55.1322 86.3511L55.1322 11.1145C55.1322 5.80456 50.8276 1.5 45.5177 1.5L40.6001 1.5C41.3744 1.99406 41.8879 2.86072 41.8879 3.84732C41.8879 5.38403 40.6422 6.62977 39.1055 6.62977L24.5711 6.62977C23.0344 6.62977 21.7887 5.38403 21.7887 3.84733C21.7887 2.86073 22.3022 1.99406 23.0765 1.5L17.304 1.5Z" fill="#381515" stroke="#EB3D3D" stroke-width="3"/>
<path d="M26.8998 49.8825L16.481 60.2265C15.8416 60.8613 14.805 60.8613 14.1657 60.2265C13.5263 59.5918 13.5263 58.5626 14.1657 57.9278L21.7897 50.3585L3.36763 50.3585C2.46345 50.3585 1.73047 49.6308 1.73047 48.7331C1.73047 47.8354 2.46345 47.1077 3.36763 47.1077L21.7897 47.1077L14.1657 39.5384C13.5263 38.9037 13.5263 37.8745 14.1657 37.2397C14.805 36.605 15.8416 36.605 16.481 37.2397L26.8998 47.5838C27.5392 48.2186 27.5392 49.2477 26.8998 49.8825Z" fill="#EB3D3D"/>
<path d="M27.2521 50.2373L16.8333 60.5813C15.9989 61.4097 14.6477 61.4097 13.8134 60.5813C12.9771 59.751 12.9771 58.4033 13.8134 57.573L20.5764 50.8585L3.36763 50.8585C2.19071 50.8585 1.23047 49.9104 1.23047 48.7331C1.23047 47.5559 2.19071 46.6077 3.36763 46.6077L20.5764 46.6077L13.8134 39.8932C12.9771 39.0629 12.9771 37.7152 13.8134 36.8849C14.6477 36.0566 15.9989 36.0566 16.8333 36.8849L27.2521 47.229C28.0884 48.0593 28.0884 49.407 27.2521 50.2373Z" stroke="#381515" stroke-opacity="0.5"/>
</svg>
