<svg width="52" height="98" viewBox="0 0 52 98" fill="none" xmlns="http://www.w3.org/2000/svg">
<path d="M11.8469 1.5C6.53699 1.5 2.23242 5.80456 2.23242 11.1145L2.23243 86.3511C2.23243 91.661 6.53699 95.9656 11.8469 95.9656L40.0607 95.9656C45.3706 95.9656 49.6752 91.661 49.6752 86.3511L49.6751 11.1145C49.6751 5.80456 45.3706 1.5 40.0606 1.5L35.1431 1.5C35.9174 1.99406 36.4309 2.86072 36.4309 3.84732C36.4309 5.38403 35.1851 6.62977 33.6484 6.62977L19.1141 6.62977C17.5774 6.62977 16.3317 5.38403 16.3317 3.84733C16.3317 2.86073 16.8451 1.99406 17.6194 1.5L11.8469 1.5Z" fill="#381515" stroke="#834444" stroke-width="3"/>
<path d="M24.5429 59.1635L24.5428 59.1635C19.6841 58.306 15.3651 54.1651 15.3651 48.0773C15.3651 45.7453 16.392 43.8265 17.8064 42.2044L17.8066 42.2042C18.7432 41.129 19.7949 40.2401 20.7692 39.4742V42.3058C20.7692 42.712 20.9273 43.1036 21.2119 43.3938C21.4968 43.6844 21.8853 43.8494 22.2925 43.8494C22.6998 43.8494 23.0883 43.6844 23.3732 43.3938C23.6577 43.1036 23.8159 42.712 23.8159 42.3058V36.0437C23.8159 35.6374 23.6577 35.2458 23.3732 34.9556C23.0883 34.6651 22.6998 34.5 22.2925 34.5H16.1524C15.7452 34.5 15.3567 34.6651 15.0718 34.9556C14.7873 35.2458 14.6291 35.6374 14.6291 36.0437C14.6291 36.4499 14.7873 36.8415 15.0718 37.1317C15.3567 37.4223 15.7452 37.5874 16.1524 37.5874H18.075C17.2216 38.2964 16.2989 39.1361 15.4563 40.1028L15.4562 40.1028C13.7375 42.0748 12.2324 44.7085 12.2324 48.0773C12.2324 55.8925 17.833 61.2022 24.0046 62.292C24.2085 62.328 24.4175 62.3228 24.6193 62.2765C24.8212 62.2302 25.0116 62.1439 25.1798 62.0231L24.8881 61.617L25.1799 62.0231C25.348 61.9022 25.4906 61.7492 25.5998 61.5732C25.7091 61.3973 25.7829 61.2015 25.8176 60.9973C25.8524 60.7931 25.8473 60.5839 25.8027 60.3816C25.7581 60.1793 25.6748 59.9874 25.5571 59.817L25.1457 60.1012L25.5571 59.817C25.4393 59.6466 25.2894 59.5008 25.1154 59.3885C24.9414 59.2762 24.7469 59.1996 24.5429 59.1635ZM28.0446 34.7439L28.1427 35.2326L27.7543 35.3981L27.472 34.9858C27.472 34.9858 27.472 34.9858 27.472 34.9858C27.2992 35.1041 27.152 35.2559 27.0384 35.4318C26.9248 35.6077 26.8471 35.8043 26.8092 36.0103C26.7713 36.2163 26.7741 36.4278 26.8172 36.6327C26.8604 36.8376 26.9433 37.0322 27.0614 37.2051C27.1795 37.378 27.3307 37.5258 27.5065 37.6394C27.6809 37.7522 27.876 37.8291 28.0805 37.8651C32.8752 38.7862 37.0998 42.9004 37.0998 48.9227C37.0998 51.2567 36.0729 53.1734 34.6586 54.7933L34.6577 54.7943C33.7226 55.8711 32.6703 56.7588 31.6957 57.5269V54.6942C31.6957 54.288 31.5375 53.8964 31.2529 53.6062C30.968 53.3156 30.5795 53.1506 30.1723 53.1506C29.7651 53.1506 29.3766 53.3156 29.0917 53.6062C28.8071 53.8964 28.649 54.288 28.649 54.6942V60.9563C28.649 61.3626 28.8071 61.7542 29.0917 62.0444C29.3766 62.3349 29.7651 62.5 30.1723 62.5H36.3124C36.7196 62.5 37.1081 62.3349 37.393 62.0444C37.6776 61.7542 37.8357 61.3626 37.8357 60.9563C37.8357 60.5501 37.6776 60.1585 37.393 59.8683C37.1081 59.5777 36.7196 59.4126 36.3124 59.4126H34.3898C35.2433 58.7036 36.1659 57.8639 37.0086 56.8972L37.0088 56.897C38.7272 54.9232 40.2324 52.2916 40.2324 48.9227C40.2324 41.1935 34.7529 35.9146 28.6616 34.7455C28.4581 34.7036 28.2483 34.703 28.0446 34.7439Z" fill="#834444" stroke="#834444"/>
</svg>
