<svg width="132" height="132" viewBox="0 0 132 132" fill="none" xmlns="http://www.w3.org/2000/svg">
<path d="M27 78C41.9117 78 54 90.0883 54 105V120C54 126.627 59.3726 132 66 132C72.6274 132 78 126.627 78 120V105C78 90.0883 90.0883 78 105 78H120C126.627 78 132 72.6274 132 66C132 59.3726 126.627 54 120 54H105C90.0883 54 78 41.9117 78 27V12C78 5.37258 72.6274 0 66 0C59.3726 0 54 5.37258 54 12V27C54 41.9117 41.9117 54 27 54H12C5.37258 54 0 59.3726 0 66C0 72.6274 5.37258 78 12 78H27Z" fill="#D9D9D9"/>
<path d="M27 78C41.9117 78 54 90.0883 54 105V120C54 126.627 59.3726 132 66 132C72.6274 132 78 126.627 78 120V105C78 90.0883 90.0883 78 105 78H120C126.627 78 132 72.6274 132 66C132 59.3726 126.627 54 120 54H105C90.0883 54 78 41.9117 78 27V12C78 5.37258 72.6274 0 66 0C59.3726 0 54 5.37258 54 12V27C54 41.9117 41.9117 54 27 54H12C5.37258 54 0 59.3726 0 66C0 72.6274 5.37258 78 12 78H27Z" fill="url(#paint0_linear_503_5817)"/>
<defs>
<linearGradient id="paint0_linear_503_5817" x1="15" y1="15.6" x2="122.7" y2="118.8" gradientUnits="userSpaceOnUse">
<stop stop-color="#E24141"/>
<stop offset="1" stop-color="#8E0202"/>
</linearGradient>
</defs>
</svg>
