<svg width="96" height="96" viewBox="0 0 96 96" fill="none" xmlns="http://www.w3.org/2000/svg">
<path d="M79.4434 54.3684V71.2174C79.4434 71.6092 79.2475 71.9031 78.8557 72.099L48.9781 85.9112V54.7602L58.97 62.9888C59.4598 63.3806 60.1455 63.6745 60.8312 63.6745C61.5169 63.6745 61.8108 63.5765 62.2026 63.3806L79.3455 54.4663L79.4434 54.3684ZM37.0271 62.9888C36.5373 63.3806 35.8516 63.6745 35.1659 63.6745C34.4802 63.6745 34.1863 63.5765 33.7944 63.3806L16.6516 54.4663V71.3153C16.6516 71.7072 16.8475 72.001 17.2393 72.197L47.1169 86.0092V54.8582L37.1251 63.0868L37.0271 62.9888ZM91.1006 45.5521C91.1006 45.8459 90.9047 46.1398 90.6108 46.3357L61.321 61.5194C61.223 61.5194 61.0271 61.6174 60.8312 61.6174C60.6353 61.6174 60.3414 61.6174 60.2434 61.4214L47.9985 51.4296L35.7536 61.4214C35.5577 61.5194 35.3618 61.6174 35.1659 61.6174C34.97 61.6174 34.872 61.6174 34.6761 61.5194L5.38628 46.3357C5.0924 46.1398 4.89648 45.8459 4.89648 45.5521C4.89648 45.2582 4.99444 44.8663 5.28832 44.6704L16.1618 35.9521L6.36587 26.1561C6.16995 25.9602 6.07199 25.5684 6.07199 25.2745C6.07199 24.9806 6.36587 24.6868 6.65975 24.5888L37.1251 10.5806C37.5169 10.3847 37.9087 10.5806 38.2026 10.7765L47.9985 20.5725L57.7944 10.7765C58.0883 10.4827 58.4802 10.3847 58.872 10.5806L89.3373 24.5888C89.6312 24.6868 89.8271 24.9806 89.9251 25.2745C89.9251 25.5684 89.9251 25.9602 89.6312 26.1561L79.8353 35.9521L90.7087 44.6704C91.0026 44.8663 91.1006 45.1602 91.1006 45.5521ZM76.1128 36.05L47.9985 23.1194L19.8842 36.05L47.9985 48.9806L76.1128 36.05Z" fill="#EB3D3D"/>
</svg>
