<svg width="96" height="96" viewBox="0 0 96 96" fill="none" xmlns="http://www.w3.org/2000/svg">
<path d="M19.1043 45.6021C17.6643 45.2181 16.5123 44.0661 16.3203 42.5301L14.5923 32.1621H16.4163L15.5523 27.6501H11.9043C11.2323 27.6501 10.6563 27.9381 10.1763 28.4181C9.79234 28.8981 9.60034 29.5701 9.69634 30.2421L11.9043 43.2021C12.5763 47.2341 16.0323 50.1141 20.0643 50.1141H20.1603C20.1603 50.0181 20.1603 50.0181 20.1603 49.9221L19.1043 45.6021Z" fill="#EB3D3D"/>
<path d="M85.8252 28.514C85.4412 28.034 84.7692 27.746 84.0972 27.746H80.4492L79.5852 32.258H81.4092L79.6812 42.626C79.3932 44.162 78.3372 45.314 76.8972 45.698L76.0332 50.114V50.306H76.1292C80.1612 50.306 83.6172 47.426 84.2892 43.394L86.4012 30.338C86.4972 29.762 86.3052 29.09 85.8252 28.514Z" fill="#EB3D3D"/>
<path d="M66.6247 74.3055C66.3367 73.3455 65.4727 72.7695 64.5127 72.7695H31.4887C30.5287 72.7695 29.6647 73.4415 29.3767 74.3055L26.4007 83.4255C26.2087 84.0975 26.3047 84.8655 26.6887 85.4415C27.0727 86.0175 27.7447 86.4015 28.5127 86.4015H67.4887C68.2567 86.4015 68.9287 86.0175 69.3127 85.4415C69.6967 84.8655 69.8887 84.0975 69.6007 83.4255L66.6247 74.3055Z" fill="#EB3D3D"/>
<path d="M77.2804 11.8091C77.2804 10.5611 76.3204 9.60114 75.0724 9.60114H21.0244C19.7764 9.60114 18.8164 10.5611 18.8164 11.8091V20.1611H77.2804V11.8091Z" fill="#EB3D3D"/>
<path d="M19.4902 24.6736L24.3862 49.1536C25.7302 55.7776 31.5862 60.5776 38.4022 60.5776H39.8422V68.2576H56.3542V60.5776H57.7942C64.5142 60.5776 70.4662 55.7776 71.8102 49.1536L76.7062 24.6736H19.4902Z" fill="#EB3D3D"/>
</svg>
