<svg width="96" height="96" viewBox="0 0 96 96" fill="none" xmlns="http://www.w3.org/2000/svg">
<path d="M47.9999 62.0062C45.2295 62.0062 42.5213 61.1847 40.2178 59.6456C37.9144 58.1064 36.119 55.9188 35.0588 53.3593C33.9986 50.7998 33.7213 47.9834 34.2617 45.2663C34.8022 42.5491 36.1363 40.0533 38.0952 38.0943C40.0542 36.1354 42.55 34.8013 45.2672 34.2608C47.9843 33.7204 50.8007 33.9978 53.3602 35.0579C55.9197 36.1181 58.1073 37.9135 59.6465 40.2169C61.1856 42.5204 62.0071 45.2286 62.0071 47.999C62.0014 51.7122 60.5238 55.2716 57.8981 57.8972C55.2725 60.5229 51.7131 62.0005 47.9999 62.0062ZM75.7744 51.4244C76.0799 49.151 76.0799 46.8469 75.7744 44.5735L81.9926 38.2244C82.3525 37.8506 82.5827 37.3711 82.6495 36.8565C82.7163 36.3419 82.616 35.8195 82.3635 35.3662L75.9926 24.6317C75.7295 24.1827 75.3277 23.8314 74.8475 23.6307C74.3674 23.43 73.8351 23.3908 73.3308 23.519L64.7344 25.7008C62.8812 24.3073 60.8667 23.1425 58.7344 22.2317L56.5526 13.7881C56.4068 13.2867 56.1028 12.8459 55.6861 12.5313C55.2693 12.2168 54.762 12.0453 54.2399 12.0426H41.8253C41.3032 12.0453 40.7959 12.2168 40.3791 12.5313C39.9624 12.8459 39.6584 13.2867 39.5126 13.7881L37.0908 22.1881C34.9516 23.0986 32.9298 24.2634 31.0689 25.6571L22.4726 23.4753C21.9682 23.3508 21.4372 23.3917 20.9579 23.5921C20.4786 23.7924 20.0764 24.1416 19.8108 24.5881L13.7453 35.3662C13.4717 35.8061 13.3492 36.3234 13.3964 36.8393C13.4437 37.3552 13.6581 37.8415 14.0071 38.2244L20.138 44.5735C19.8326 46.8469 19.8326 49.151 20.138 51.4244L14.0071 57.7735C13.6473 58.1473 13.417 58.6269 13.3502 59.1414C13.2834 59.656 13.3837 60.1784 13.6362 60.6317L20.0071 71.3662C20.2702 71.8152 20.6721 72.1665 21.1522 72.3672C21.6323 72.5679 22.1646 72.6071 22.669 72.479L31.2653 70.2971C33.1139 71.6917 35.1295 72.8497 37.2653 73.7444L39.6871 82.2099C39.8201 82.6938 40.1028 83.1233 40.4947 83.4368C40.8866 83.7503 41.3676 83.9318 41.869 83.9553H54.2399C54.7872 84.0026 55.3341 83.8589 55.7875 83.5487C56.2409 83.2385 56.5729 82.7808 56.7271 82.2535L59.149 73.7881C61.2847 72.8934 63.3004 71.7353 65.149 70.3408L73.7453 72.5226C74.2001 72.5794 74.6616 72.5048 75.0753 72.3076C75.489 72.1104 75.8376 71.7989 76.0799 71.4099L82.2762 60.6971C82.5604 60.2608 82.6949 59.7438 82.6594 59.2243C82.624 58.7048 82.4206 58.2109 82.0799 57.8172L75.7744 51.4244Z" fill="#EB3D3D"/>
</svg>
