<svg width="78" height="143" viewBox="0 0 78 143" fill="none" xmlns="http://www.w3.org/2000/svg">
<path d="M49 0.499999C64.7401 0.499999 77.5 13.2599 77.5 29L77.5 114C77.5 129.74 64.7401 142.5 49 142.5L29 142.5C13.2599 142.5 0.500002 129.74 0.500003 114L0.500006 29C0.500007 13.2599 13.2599 0.499997 29 0.499998L49 0.499999Z" fill="#381515" fill-opacity="0.5" stroke="#EB3D3D"/>
<path d="M25.304 24.5C19.994 24.5 15.6895 28.8046 15.6895 34.1145L15.6895 109.351C15.6895 114.661 19.994 118.966 25.304 118.966L53.5177 118.966C58.8276 118.966 63.1322 114.661 63.1322 109.351L63.1322 34.1145C63.1322 28.8046 58.8276 24.5 53.5177 24.5L48.6001 24.5C49.3744 24.9941 49.8879 25.8607 49.8879 26.8473C49.8879 28.384 48.6422 29.6298 47.1055 29.6298L32.5711 29.6298C31.0344 29.6298 29.7887 28.384 29.7887 26.8473C29.7887 25.8607 30.3022 24.9941 31.0765 24.5L25.304 24.5Z" fill="#381515" stroke="#EB3D3D" stroke-width="3"/>
<path d="M34.8998 72.8825L24.481 83.2265C23.8416 83.8613 22.805 83.8613 22.1657 83.2265C21.5263 82.5918 21.5263 81.5626 22.1657 80.9278L29.7897 73.3585L11.3676 73.3585C10.4635 73.3585 9.73047 72.6308 9.73047 71.7331C9.73047 70.8354 10.4635 70.1077 11.3676 70.1077L29.7897 70.1077L22.1657 62.5384C21.5263 61.9037 21.5263 60.8745 22.1657 60.2397C22.805 59.605 23.8416 59.605 24.481 60.2397L34.8998 70.5838C35.5392 71.2186 35.5392 72.2477 34.8998 72.8825Z" fill="#EB3D3D"/>
<path d="M35.2521 73.2373L24.8333 83.5813C23.9989 84.4097 22.6477 84.4097 21.8134 83.5813C20.9771 82.751 20.9771 81.4033 21.8134 80.573L28.5764 73.8585L11.3676 73.8585C10.1907 73.8585 9.23047 72.9104 9.23047 71.7331C9.23047 70.5559 10.1907 69.6077 11.3676 69.6077L28.5764 69.6077L21.8134 62.8932C20.9771 62.0629 20.9771 60.7152 21.8134 59.8849C22.6477 59.0566 23.9989 59.0566 24.8333 59.8849L35.2521 70.229C36.0884 71.0593 36.0884 72.407 35.2521 73.2373Z" stroke="#381515" stroke-opacity="0.5"/>
</svg>
