<svg width="78" height="67" viewBox="0 0 78 67" fill="none" xmlns="http://www.w3.org/2000/svg">
<path d="M49 0.499999C64.7401 0.499999 77.5 13.2599 77.5 29L77.5 38C77.5 53.7401 64.7401 66.5 49 66.5L29 66.5C13.2599 66.5 0.499998 53.7401 0.499998 38L0.499999 29C0.499999 13.2599 13.2599 0.499997 29 0.499998L49 0.499999Z" fill="#381515" fill-opacity="0.5" stroke="#260B0D"/>
<path d="M43.1371 31.8084C44.2876 33.0188 44.2876 34.9812 43.1371 36.1916L28.0292 52.086C26.1733 54.0385 23 52.6557 23 49.8944V18.1056C23 15.3443 26.1733 13.9615 28.0292 15.914L43.1371 31.8084Z" fill="#834444"/>
<path d="M61.1371 31.8084C62.2876 33.0188 62.2876 34.9812 61.1371 36.1916L46.0292 52.086C44.1733 54.0385 41 52.6557 41 49.8944V18.1056C41 15.3443 44.1733 13.9615 46.0292 15.914L61.1371 31.8084Z" fill="#834444"/>
</svg>
