<svg width="78" height="67" viewBox="0 0 78 67" fill="none" xmlns="http://www.w3.org/2000/svg">
<path d="M49 0.499999C64.7401 0.499999 77.5 13.2599 77.5 29L77.5 38C77.5 53.7401 64.7401 66.5 49 66.5L29 66.5C13.2599 66.5 0.499998 53.7401 0.499998 38L0.499999 29C0.499999 13.2599 13.2599 0.499997 29 0.499998L49 0.499999Z" fill="#381515" fill-opacity="0.5" stroke="#EB3D3D"/>
<path d="M24.0898 35.375V32.0547H27.0117C28.2292 32.0547 29.2197 31.7227 29.9834 31.0586C30.7471 30.3835 31.1289 29.5091 31.1289 28.4355C31.1289 27.373 30.7526 26.5264 30 25.8955C29.2585 25.2536 28.2624 24.9326 27.0117 24.9326C25.7721 24.9326 24.765 25.2591 23.9902 25.9121C23.2266 26.5651 22.806 27.4561 22.7285 28.585H18.7275C18.8382 26.3825 19.6462 24.6449 21.1514 23.3721C22.6566 22.0882 24.6543 21.4463 27.1445 21.4463C29.4688 21.4463 31.4001 22.055 32.9385 23.2725C34.488 24.4788 35.2627 26.0007 35.2627 27.8379C35.2627 29.2435 34.8698 30.4443 34.084 31.4404C33.3092 32.4365 32.2578 33.0729 30.9297 33.3496V33.6318C32.5677 33.82 33.8571 34.4342 34.7979 35.4746C35.7497 36.515 36.2256 37.832 36.2256 39.4258C36.2256 41.4844 35.3623 43.1943 33.6357 44.5557C31.9202 45.917 29.762 46.5977 27.1611 46.5977C24.5824 46.5977 22.4795 45.9391 20.8525 44.6221C19.2367 43.305 18.3734 41.5508 18.2627 39.3594H22.3633C22.4518 40.4661 22.9333 41.3516 23.8076 42.0156C24.682 42.6686 25.8109 42.9951 27.1943 42.9951C28.5667 42.9951 29.6846 42.641 30.5479 41.9326C31.4222 41.2132 31.8594 40.2891 31.8594 39.1602C31.8594 37.987 31.4333 37.0628 30.5811 36.3877C29.7288 35.7126 28.5667 35.375 27.0947 35.375H24.0898ZM49.9053 46.5811C48.1455 46.5811 46.5905 46.1771 45.2402 45.3691C43.89 44.5612 42.8164 43.388 42.0195 41.8496C40.8906 39.8574 40.3262 37.334 40.3262 34.2793C40.3262 30.2507 41.1784 27.1074 42.8828 24.8496C44.5983 22.5807 46.9834 21.4463 50.0381 21.4463C52.2184 21.4463 54.0778 22.0439 55.6162 23.2393C57.1657 24.4235 58.1175 26.0007 58.4717 27.9707H54.1885C53.9229 27.0632 53.4137 26.3493 52.6611 25.8291C51.9196 25.2979 51.0342 25.0322 50.0049 25.0322C48.2562 25.0322 46.8893 25.807 45.9043 27.3564C44.9193 28.8949 44.4268 31.0365 44.4268 33.7812H44.709C45.2734 32.6413 46.098 31.7614 47.1826 31.1416C48.2673 30.5107 49.5124 30.1953 50.918 30.1953C53.1979 30.1953 55.0794 30.9479 56.5625 32.4531C58.0566 33.9583 58.8037 35.862 58.8037 38.1641C58.8037 40.6322 57.9681 42.652 56.2969 44.2236C54.6367 45.7952 52.5062 46.5811 49.9053 46.5811ZM49.8555 43.0117C51.2057 43.0117 52.3346 42.5635 53.2422 41.667C54.1497 40.7594 54.6035 39.6361 54.6035 38.2969C54.6035 36.9245 54.1608 35.8011 53.2754 34.9268C52.39 34.0413 51.2611 33.5986 49.8887 33.5986C48.5163 33.5986 47.3818 34.0358 46.4854 34.9102C45.5889 35.7845 45.1406 36.8913 45.1406 38.2305C45.1406 39.5918 45.5889 40.7318 46.4854 41.6504C47.3929 42.5579 48.5163 43.0117 49.8555 43.0117Z" fill="#EB3D3D"/>
</svg>
