<svg width="78" height="143" viewBox="0 0 78 143" fill="none" xmlns="http://www.w3.org/2000/svg">
<path d="M49 0.499999C64.7401 0.499999 77.5 13.2599 77.5 29L77.5 114C77.5 129.74 64.7401 142.5 49 142.5L29 142.5C13.2599 142.5 0.500002 129.74 0.500003 114L0.500006 29C0.500007 13.2599 13.2599 0.499997 29 0.499998L49 0.499999Z" fill="#381515" fill-opacity="0.5" stroke="#260B0D"/>
<path d="M24.8469 24.5C19.537 24.5 15.2324 28.8046 15.2324 34.1145L15.2324 109.351C15.2324 114.661 19.537 118.966 24.8469 118.966L53.0607 118.966C58.3706 118.966 62.6752 114.661 62.6752 109.351L62.6751 34.1145C62.6751 28.8046 58.3706 24.5 53.0606 24.5L48.1431 24.5C48.9174 24.9941 49.4309 25.8607 49.4309 26.8473C49.4309 28.384 48.1851 29.6298 46.6484 29.6298L32.1141 29.6298C30.5774 29.6298 29.3317 28.384 29.3317 26.8473C29.3317 25.8607 29.8451 24.9941 30.6194 24.5L24.8469 24.5Z" fill="#381515" stroke="#834444" stroke-width="3"/>
<path d="M37.5429 82.1635L37.5428 82.1635C32.6841 81.306 28.3651 77.1651 28.3651 71.0773C28.3651 68.7453 29.392 66.8265 30.8064 65.2044L30.8066 65.2042C31.7432 64.129 32.7949 63.2401 33.7692 62.4742V65.3058C33.7692 65.712 33.9273 66.1036 34.2119 66.3938C34.4968 66.6844 34.8853 66.8494 35.2925 66.8494C35.6998 66.8494 36.0883 66.6844 36.3732 66.3938C36.6577 66.1036 36.8159 65.712 36.8159 65.3058V59.0437C36.8159 58.6374 36.6577 58.2458 36.3732 57.9556C36.0883 57.6651 35.6998 57.5 35.2925 57.5H29.1524C28.7452 57.5 28.3567 57.6651 28.0718 57.9556C27.7873 58.2458 27.6291 58.6374 27.6291 59.0437C27.6291 59.4499 27.7873 59.8415 28.0718 60.1317C28.3567 60.4223 28.7452 60.5874 29.1524 60.5874H31.075C30.2216 61.2964 29.2989 62.1361 28.4563 63.1028L28.4562 63.1028C26.7375 65.0748 25.2324 67.7085 25.2324 71.0773C25.2324 78.8925 30.833 84.2022 37.0046 85.292C37.2085 85.328 37.4175 85.3228 37.6193 85.2765C37.8212 85.2302 38.0116 85.1439 38.1798 85.0231L37.8881 84.617L38.1799 85.0231C38.348 84.9022 38.4906 84.7492 38.5998 84.5732C38.7091 84.3973 38.7829 84.2015 38.8176 83.9973C38.8524 83.7931 38.8473 83.5839 38.8027 83.3816C38.7581 83.1793 38.6748 82.9874 38.5571 82.817L38.1457 83.1012L38.5571 82.817C38.4393 82.6466 38.2894 82.5008 38.1154 82.3885C37.9414 82.2762 37.7469 82.1996 37.5429 82.1635ZM41.0446 57.7439L41.1427 58.2326L40.7543 58.3981L40.472 57.9858C40.472 57.9858 40.472 57.9858 40.472 57.9858C40.2992 58.1041 40.152 58.2559 40.0384 58.4318C39.9248 58.6077 39.8471 58.8043 39.8092 59.0103C39.7713 59.2163 39.7741 59.4278 39.8172 59.6327C39.8604 59.8376 39.9433 60.0322 40.0614 60.2051C40.1795 60.378 40.3307 60.5258 40.5065 60.6394C40.6809 60.7522 40.876 60.8291 41.0805 60.8651C45.8752 61.7862 50.0998 65.9004 50.0998 71.9227C50.0998 74.2567 49.0729 76.1734 47.6586 77.7933L47.6577 77.7943C46.7226 78.8711 45.6703 79.7588 44.6957 80.5269V77.6942C44.6957 77.288 44.5375 76.8964 44.2529 76.6062C43.968 76.3156 43.5795 76.1506 43.1723 76.1506C42.7651 76.1506 42.3766 76.3156 42.0917 76.6062C41.8071 76.8964 41.649 77.288 41.649 77.6942V83.9563C41.649 84.3626 41.8071 84.7542 42.0917 85.0444C42.3766 85.3349 42.7651 85.5 43.1723 85.5H49.3124C49.7196 85.5 50.1081 85.3349 50.393 85.0444C50.6776 84.7542 50.8357 84.3626 50.8357 83.9563C50.8357 83.5501 50.6776 83.1585 50.393 82.8683C50.1081 82.5777 49.7196 82.4126 49.3124 82.4126H47.3898C48.2433 81.7036 49.1659 80.8639 50.0086 79.8972L50.0088 79.897C51.7272 77.9232 53.2324 75.2916 53.2324 71.9227C53.2324 64.1935 47.7529 58.9146 41.6616 57.7455C41.4581 57.7036 41.2483 57.703 41.0446 57.7439Z" fill="#834444" stroke="#834444"/>
</svg>
