<svg width="109" height="67" viewBox="0 0 109 67" fill="none" xmlns="http://www.w3.org/2000/svg">
<path d="M0.5 29C0.5 13.2599 13.2599 0.5 29 0.5H80C95.7401 0.5 108.5 13.2599 108.5 29V38C108.5 53.7401 95.7401 66.5 80 66.5H29C13.2599 66.5 0.5 53.7401 0.5 38V29Z" fill="#381515" fill-opacity="0.5" stroke="#260B0D"/>
<path d="M20.041 21.4463C20.041 16.9752 23.6656 13.3506 28.1368 13.3506H81.2324C85.7036 13.3506 89.3282 16.9752 89.3282 21.4463V45.8048C89.3282 50.2759 85.7036 53.9005 81.2324 53.9005H28.1368C23.6656 53.9005 20.041 50.2759 20.041 45.8048V42.134C20.511 42.5931 21.1538 42.876 21.8626 42.876C23.3025 42.876 24.4698 41.7087 24.4698 40.2688V27.7205C24.4698 26.2806 23.3025 25.1133 21.8626 25.1133C21.1538 25.1133 20.511 25.3962 20.041 25.8552V21.4463Z" fill="#381515" stroke="#834444" stroke-width="3"/>
<path d="M56.0586 29.73L64.9892 20.7349C65.5372 20.1829 65.5372 19.288 64.9892 18.736C64.4411 18.184 63.5526 18.184 63.0046 18.736L56.4696 25.3182V9.41345C56.4696 8.63282 55.8413 8 55.0663 8C54.2913 8 53.663 8.63282 53.663 9.41345V25.3182L47.128 18.736C46.58 18.184 45.6915 18.184 45.1434 18.736C44.5954 19.288 44.5954 20.1829 45.1434 20.7349L54.074 29.73C54.622 30.282 55.5106 30.282 56.0586 29.73Z" fill="#834444"/>
<path d="M56.4134 30.0823L65.344 21.0872C66.0856 20.3402 66.0856 19.1307 65.344 18.3837C64.6004 17.6348 63.3933 17.6348 62.6498 18.3837L56.9696 24.1049V9.41345C56.9696 8.36008 56.1209 7.5 55.0663 7.5C54.0117 7.5 53.163 8.36008 53.163 9.41345V24.1049L47.4828 18.3837C46.7393 17.6348 45.5322 17.6348 44.7886 18.3837C44.047 19.1307 44.047 20.3402 44.7886 21.0872L53.7192 30.0823C54.4628 30.8313 55.6698 30.8313 56.4134 30.0823Z" stroke="#381515" stroke-opacity="0.5"/>
<path d="M38.73 33.002L29.7349 24.0714C29.1829 23.5234 28.288 23.5234 27.736 24.0714C27.184 24.6194 27.184 25.5079 27.736 26.056L34.3182 32.5909L18.4134 32.5909C17.6328 32.5909 17 33.2192 17 33.9942C17 34.7693 17.6328 35.3975 18.4134 35.3975L34.3182 35.3975L27.736 41.9325C27.184 42.4806 27.184 43.3691 27.736 43.9171C28.288 44.4651 29.1829 44.4651 29.7349 43.9171L38.73 34.9865C39.282 34.4385 39.282 33.55 38.73 33.002Z" fill="#834444"/>
<path d="M39.0823 32.6471L30.0872 23.7166C29.3402 22.975 28.1307 22.975 27.3837 23.7166C26.6348 24.4601 26.6348 25.6672 27.3837 26.4108L33.1049 32.0909L18.4134 32.0909C17.3601 32.0909 16.5 32.9397 16.5 33.9942C16.5 35.0488 17.3601 35.8975 18.4134 35.8975L33.1049 35.8975L27.3837 41.5777C26.6348 42.3213 26.6348 43.5284 27.3837 44.2719C28.1307 45.0135 29.3402 45.0135 30.0872 44.2719L39.0823 35.3414C39.8313 34.5978 39.8313 33.3907 39.0823 32.6471Z" stroke="#381515" stroke-opacity="0.5"/>
<path d="M71.1469 33.002L80.142 24.0714C80.694 23.5234 81.589 23.5234 82.141 24.0714C82.6929 24.6194 82.6929 25.5079 82.141 26.056L75.5587 32.5909L91.4635 32.5909C92.2441 32.5909 92.877 33.2192 92.877 33.9942C92.877 34.7693 92.2441 35.3975 91.4635 35.3975L75.5587 35.3975L82.141 41.9325C82.6929 42.4806 82.6929 43.3691 82.141 43.9171C81.589 44.4651 80.694 44.4651 80.142 43.9171L71.1469 34.9865C70.5949 34.4385 70.5949 33.55 71.1469 33.002Z" fill="#834444"/>
<path d="M70.7946 32.6471L79.7898 23.7166C80.5367 22.975 81.7463 22.975 82.4932 23.7166C83.2422 24.4601 83.2422 25.6672 82.4932 26.4108L76.772 32.0909L91.4635 32.0909C92.5169 32.0909 93.377 32.9397 93.377 33.9942C93.377 35.0488 92.5169 35.8975 91.4635 35.8975L76.772 35.8975L82.4932 41.5777C83.2422 42.3213 83.2422 43.5284 82.4932 44.2719C81.7463 45.0135 80.5367 45.0135 79.7898 44.2719L70.7946 35.3414C70.0457 34.5978 70.0457 33.3907 70.7946 32.6471Z" stroke="#381515" stroke-opacity="0.5"/>
</svg>
