<svg width="78" height="67" viewBox="0 0 78 67" fill="none" xmlns="http://www.w3.org/2000/svg">
<path d="M49 0.499999C64.7401 0.499999 77.5 13.2599 77.5 29L77.5 38C77.5 53.7401 64.7401 66.5 49 66.5L29 66.5C13.2599 66.5 0.499998 53.7401 0.499998 38L0.499999 29C0.499999 13.2599 13.2599 0.499997 29 0.499998L49 0.499999Z" fill="#381515" fill-opacity="0.5" stroke="#260B0D"/>
<path d="M37.9969 21.9992C39.1966 22.0562 40.393 22.1638 41.6095 22.3815C46.0094 23.1685 48.3416 24.3746 53.0871 25.8843L56.2477 37.662C55.6961 38.1795 53.985 39.5931 51.6006 39.7568C51.7543 39.3501 51.7874 38.8815 51.6939 38.3809C51.5604 37.6663 51.164 36.8805 50.4868 36.1259C50.1349 35.734 49.8072 35.461 49.417 35.1337L38.4076 25.9015C38.2055 25.7321 37.9913 25.6039 37.769 25.5124C37.0995 25.2373 36.3936 25.3117 35.7362 25.6022C35.1193 25.8748 34.5435 26.3415 34.0904 26.8802C32.7993 28.4148 32.7929 30.7008 30.2888 31.3721C29.9711 31.4573 29.6894 31.4679 29.4718 31.4094C29.31 31.366 29.1913 31.2829 29.137 31.1646C28.9532 30.7651 29.8385 29.1893 29.9511 28.7158C30.0716 28.2093 30.1333 27.6603 30.1301 27.2565C30.1015 23.6855 35.2803 22.1641 37.9969 21.9992Z" fill="#834444"/>
<path d="M38.7571 46.4612C38.617 46.6758 38.4281 46.822 38.2112 46.9065C37.9822 46.9959 37.7159 47.0194 37.4356 46.9846C37.062 46.9382 36.6715 46.7893 36.3112 46.5547L21.8854 37.158L24.907 25.8989L30.2768 24.3573C29.6178 25.1606 29.2154 26.1241 29.2245 27.2637C29.2272 27.5951 29.1729 28.0613 29.0669 28.5066C28.8295 29.5043 27.8437 30.5197 28.3131 31.5405C28.4875 31.9195 28.8138 32.1713 29.2374 32.2851C29.6054 32.384 30.0497 32.3748 30.5232 32.2478C33.5218 31.444 33.4019 29.1074 34.7863 27.4616C35.1554 27.0229 35.6164 26.6463 36.1019 26.4319C36.5468 26.2353 37.009 26.1784 37.4244 26.3492C37.5593 26.4046 37.6934 26.486 37.8254 26.5965L46.7479 34.0787C47.6694 34.8514 48.9806 35.8023 49.8121 36.7287C50.3734 37.3541 50.6982 37.9851 50.8026 38.544C51.0002 39.6018 50.4089 40.194 49.4015 40.2481C48.9529 40.2721 48.4094 40.1931 47.7742 39.9853L42.1492 34.954C41.9629 34.7876 41.6766 34.8035 41.51 34.9895C41.3433 35.1755 41.3592 35.4612 41.5455 35.6276L47.1154 40.6097C47.5376 44.1504 44.5229 43.3558 43.9804 43.1855L38.8298 38.5105C38.6445 38.3421 38.3574 38.3556 38.1888 38.5407C38.0202 38.7256 38.0337 39.0122 38.219 39.1806L43.1484 43.6549C43.6033 44.4156 41.9457 46.5514 39.7208 45.3333L35.498 41.7027C35.3087 41.5392 35.0226 41.5598 34.8588 41.7487C34.6951 41.9377 34.7157 42.2234 34.905 42.387L38.9126 45.8327C39.0704 45.9683 38.8514 46.3168 38.7571 46.4612Z" fill="#834444"/>
<path d="M20.9447 37.1613C20.9217 37.2103 20.9082 37.2618 20.9039 37.3136L20.7248 37.9804C20.6173 38.3814 20.3548 38.7022 20.0187 38.8962C20.008 38.9024 19.9969 38.9081 19.9868 38.915C19.6572 39.0942 19.2607 39.153 18.8708 39.0486L15.1219 38.0457C15.1153 38.044 15.1087 38.0418 15.1021 38.0403C14.7086 37.9295 14.3943 37.6709 14.2041 37.3418C14.0101 37.0065 13.9436 36.597 14.0516 36.1948C14.0536 36.1872 14.056 36.1796 14.0577 36.1719L17.8285 22.121C17.936 21.72 18.1985 21.3991 18.5346 21.2052C18.5453 21.199 18.5564 21.1933 18.5666 21.1863C18.8962 21.0071 19.2928 20.9484 19.6826 21.0527L23.4318 22.0557C23.8333 22.1631 24.1548 22.4252 24.3489 22.7608C24.3552 22.7716 24.361 22.7826 24.3679 22.7927C24.5474 23.1218 24.6061 23.5178 24.5017 23.907L24.1172 25.34C24.0927 25.3906 24.0776 25.4458 24.0735 25.5028L20.9447 37.1613Z" fill="#834444"/>
<path d="M57.2239 37.797C57.227 37.7083 57.2039 37.6189 57.1552 37.5413L53.9371 25.5494C53.9396 25.4602 53.9155 25.3736 53.87 25.2998L53.496 23.9059C53.3915 23.5166 53.4503 23.1207 53.6298 22.7916C53.6367 22.7815 53.6434 22.7709 53.6496 22.7602C53.8439 22.4246 54.1643 22.1621 54.5659 22.0546L58.3151 21.0516C58.705 20.9472 59.1015 21.006 59.4312 21.1851C59.4413 21.1922 59.4517 21.1987 59.4625 21.205C59.7986 21.3989 60.0616 21.7189 60.1692 22.1198L63.9484 36.2019C64.0528 36.5912 63.9941 36.9871 63.8145 37.3162C63.8076 37.3264 63.8009 37.3367 63.7947 37.3476C63.6005 37.6832 63.28 37.9457 62.8784 38.0532L59.1292 39.0562C58.7393 39.1605 58.3428 39.1018 58.0131 38.9226C58.0031 38.9156 57.9926 38.9089 57.9818 38.9027C57.6457 38.7089 57.3827 38.3889 57.2751 37.9879L57.2239 37.797Z" fill="#834444"/>
</svg>
