<svg width="78" height="67" viewBox="0 0 78 67" fill="none" xmlns="http://www.w3.org/2000/svg">
<path d="M49 0.499999C64.7401 0.499999 77.5 13.2599 77.5 29L77.5 38C77.5 53.7401 64.7401 66.5 49 66.5L29 66.5C13.2599 66.5 0.499998 53.7401 0.499998 38L0.499999 29C0.499999 13.2599 13.2599 0.499997 29 0.499998L49 0.499999Z" fill="#381515" fill-opacity="0.5" stroke="#260B0D"/>
<path d="M52.1797 22.7234C54.3116 22.7234 56.0461 20.991 56.0461 18.8617C56.0461 16.7324 54.3116 15 52.1797 15C50.0478 15 48.3133 16.7324 48.3133 18.8618C48.3133 20.9911 50.0477 22.7234 52.1797 22.7234Z" fill="#834444"/>
<path d="M21.8664 45.2765C19.7345 45.2765 18 47.0088 18 49.1382C18 51.2676 19.7345 52.9999 21.8664 52.9999C23.9983 52.9999 25.7328 51.2675 25.7328 49.1381C25.7328 47.0088 23.9984 45.2765 21.8664 45.2765Z" fill="#834444"/>
<path d="M56.1336 45.2765C54.0017 45.2765 52.2672 47.0089 52.2672 49.1382C52.2672 51.2676 54.0017 53 56.1336 53C58.2655 53 60 51.2676 60 49.1382C60 47.0089 58.2655 45.2765 56.1336 45.2765Z" fill="#834444"/>
<path d="M39 32.9843C40.1808 30.7093 42.1334 28.8965 44.5085 27.891L42.8843 26.2687C43.05 24.0064 44.3507 22.0541 46.2185 20.9783C45.9821 20.3161 45.8523 19.6039 45.8523 18.8617C45.8523 18.4412 45.8946 18.0304 45.9734 17.6327H42.2949C36.8841 17.6327 32.4977 22.0138 32.4977 27.4181V27.5257C35.3202 28.4106 37.6583 30.3992 39 32.9843Z" fill="#834444"/>
<path d="M28.5437 47.8218C28.5437 48.5006 29.0946 49.0508 29.7742 49.0508H48.2258C48.9054 49.0508 49.4563 48.5006 49.4563 47.8218V43.7853H28.5437V47.8218Z" fill="#834444"/>
<path d="M49.4563 39.9498C51.4039 40.3135 53.0561 41.5251 54.0141 43.1844C54.6772 42.9482 55.3903 42.8185 56.1336 42.8185C56.5546 42.8185 56.9658 42.8607 57.3641 42.9394V38.0364C57.3641 33.3108 53.5286 29.48 48.7972 29.48C44.0659 29.48 40.2304 33.3107 40.2304 38.0364V41.3274H49.4562V39.9498H49.4563Z" fill="#834444"/>
<path d="M37.7695 38.0365C37.7695 33.3109 33.934 29.48 29.2027 29.48C24.4714 29.48 20.6359 33.3108 20.6359 38.0365V42.9395C21.0342 42.8608 21.4454 42.8186 21.8664 42.8186C22.6096 42.8186 23.3228 42.9483 23.9859 43.1845C24.944 41.5251 26.5961 40.3136 28.5437 39.9498V41.3274H37.7695V38.0365Z" fill="#834444"/>
</svg>
