<svg width="60" height="61" viewBox="0 0 60 61" fill="none" xmlns="http://www.w3.org/2000/svg">
<path d="M48.3262 12.6515C38.4336 2.59404 22.3374 2.59404 12.4448 12.6515C2.55226 22.7089 2.55224 39.0735 12.4448 49.1309C22.3374 59.1883 38.4337 59.1884 48.3262 49.1309C58.2188 39.0735 58.2188 22.7089 48.3262 12.6515ZM30.3855 51.7219C27.7244 51.7219 25.1304 51.2088 22.6754 50.1966C20.1336 49.1488 17.8531 47.6091 15.8974 45.6208C13.9417 43.6324 12.4272 41.3139 11.3964 38.7297C10.4009 36.2339 9.89629 33.5966 9.89629 30.8912C9.89629 28.1858 10.4009 25.5485 11.3966 23.0526C12.4272 20.4685 13.9417 18.15 15.8974 16.1616C17.8531 14.1733 20.1336 12.6336 22.6755 11.5856C25.1304 10.5736 27.7244 10.0605 30.3855 10.0605C33.0466 10.0605 35.6406 10.5736 38.0955 11.5856C40.6373 12.6336 42.9178 14.1733 44.8736 16.1616C46.8293 18.15 48.3438 20.4685 49.3744 23.0526C50.37 25.5485 50.8747 28.1858 50.8747 30.8912C50.8747 33.5966 50.37 36.2339 49.3745 38.7297C48.3438 41.3139 46.8293 43.6324 44.8735 45.6208C42.9178 47.6091 40.6373 49.1488 38.0956 50.1966C35.6406 51.2088 33.0466 51.7219 30.3855 51.7219Z" fill="#893F3F"/>
<path d="M30.3845 51.258C41.4484 51.258 50.4174 42.1395 50.4174 30.8912C50.4174 19.6429 41.4484 10.5244 30.3845 10.5244C19.3206 10.5244 10.3516 19.6429 10.3516 30.8912C10.3516 42.1395 19.3206 51.258 30.3845 51.258Z" fill="#A75858"/>
<path d="M54.3219 40.7725C54.9465 39.2069 55.4235 37.5698 55.7404 35.9065C56.0541 34.259 56.2131 32.5719 56.213 30.8914C56.2131 29.211 56.0541 27.5238 55.7404 25.8763C55.4235 24.2131 54.9465 22.5759 54.3219 21.0103C53.0225 17.7528 51.1136 14.8301 48.6482 12.3236C46.1828 9.81716 43.3081 7.8764 40.1039 6.55534C38.564 5.9204 36.9536 5.43538 35.3177 5.11322C33.6972 4.79438 32.0377 4.63265 30.3848 4.63281C28.7319 4.63265 27.0724 4.79438 25.4519 5.11324C23.8159 5.4354 22.2056 5.92042 20.6657 6.55536C17.4615 7.87642 14.5868 9.81719 12.1214 12.3237C9.65602 14.8302 7.74708 17.7528 6.44768 21.0103C5.82314 22.576 5.34607 24.2131 5.02919 25.8763C4.71556 27.5238 4.55648 29.211 4.55664 30.8914C4.55648 32.5719 4.71556 34.2591 5.02919 35.9065C5.34605 37.5698 5.82314 39.2069 6.44768 40.7725C7.74708 44.0301 9.65602 46.9527 12.1214 49.4592C14.5868 51.9657 17.4615 53.9065 20.6657 55.2275C22.2056 55.8625 23.816 56.3475 25.4519 56.6696C27.0724 56.9885 28.7319 57.1502 30.3848 57.1501C32.0377 57.1502 33.6972 56.9885 35.3177 56.6696C36.9537 56.3475 38.564 55.8625 40.1039 55.2275C43.3081 53.9065 46.1828 51.9657 48.6482 49.4592C51.1136 46.9527 53.0225 44.0301 54.3219 40.7725ZM12.4441 49.1312C2.55152 39.0737 2.55152 22.7092 12.4441 12.6517C22.3367 2.59432 38.433 2.5943 48.3255 12.6517C58.218 22.7092 58.2181 39.0737 48.3255 49.1312C38.4329 59.1886 22.3367 59.1886 12.4441 49.1312Z" fill="#893F3F"/>
<path d="M49.3767 38.7297C50.3721 36.2339 50.8768 33.5967 50.8768 30.8912C50.8768 28.1858 50.3721 25.5486 49.3765 23.0526C48.3459 20.4685 46.8314 18.15 44.8757 16.1617C42.92 14.1734 40.6395 12.6336 38.0976 11.5857C35.6427 10.5736 33.0487 10.0605 30.3876 10.0605C27.7265 10.0605 25.1325 10.5736 22.6776 11.5857C20.1358 12.6336 17.8553 14.1733 15.8995 16.1617C13.9438 18.15 12.4293 20.4685 11.3987 23.0526C10.4031 25.5486 9.89844 28.1858 9.89844 30.8912C9.89844 33.5967 10.4031 36.2339 11.3986 38.7297C12.4293 41.314 13.9438 43.6325 15.8996 45.6208C17.8553 47.6091 20.1358 49.1489 22.6775 50.1966C25.1326 51.2088 27.7266 51.7219 30.3876 51.7219C33.0487 51.7219 35.6427 51.2088 38.0978 50.1966C40.6395 49.1488 42.92 47.6091 44.8757 45.6208C46.8314 43.6325 48.3459 41.314 49.3767 38.7297ZM16.2222 45.2928C8.41137 37.3517 8.41137 24.4307 16.2222 16.4897C24.033 8.54872 36.7422 8.54872 44.553 16.4897C52.3639 24.4307 52.3639 37.3517 44.553 45.2928C36.7422 53.2338 24.033 53.2337 16.2222 45.2928Z" fill="#893F3F"/>
<g opacity="0.2">
<path d="M44.5509 16.4894L16.2201 45.2924C12.4841 41.4942 10.5352 36.557 10.373 31.5701L31.0536 10.5449C35.9587 10.7098 40.815 12.6912 44.5509 16.4894Z" fill="#E29898"/>
<path d="M46.3602 18.6007L18.2953 47.1334C18.0221 46.923 17.7529 46.7043 17.4883 46.4777L45.7152 17.7803C45.9382 18.0493 46.1532 18.3231 46.3602 18.6007Z" fill="#E29898"/>
</g>
<path opacity="0.3" d="M22.6755 11.5856C20.1336 12.6336 17.8532 14.1733 15.8974 16.1616C13.9417 18.15 12.4272 20.4685 11.3966 23.0525C10.401 25.5485 9.89632 28.1857 9.89632 30.8912C9.89632 33.5966 10.401 36.2338 11.3964 38.7297C12.4272 41.3139 13.9417 43.6324 15.8974 45.6207L12.4448 49.1309C2.55225 39.0735 2.55225 22.7089 12.4448 12.6515C22.3374 2.59405 38.4337 2.59403 48.3262 12.6515L44.8736 16.1616C42.9179 14.1733 40.6374 12.6336 38.0955 11.5856C35.6406 10.5736 33.0466 10.0605 30.3855 10.0605C27.7244 10.0605 25.1304 10.5735 22.6755 11.5856Z" fill="#E29898"/>
<path d="M17.6719 38.6072V23.534H21.7116C23.1744 23.534 24.4185 23.7633 25.4438 24.222C26.4828 24.6806 27.3167 25.2852 27.9455 26.0357C28.5744 26.7863 29.0324 27.6202 29.3195 28.5375C29.6202 29.4409 29.7706 30.3444 29.7706 31.2478C29.7706 32.3875 29.5724 33.409 29.1759 34.3124C28.7931 35.2159 28.26 35.9872 27.5764 36.6266C26.8929 37.2659 26.1068 37.7593 25.2182 38.1068C24.3433 38.4404 23.4136 38.6072 22.4293 38.6072H17.6719ZM19.661 36.6683H22.0397C22.86 36.6683 23.6119 36.5432 24.2954 36.293C24.9926 36.0428 25.5942 35.6815 26.1 35.2089C26.6195 34.7364 27.0228 34.1596 27.3098 33.4785C27.5969 32.7836 27.7405 31.9983 27.7405 31.1227C27.7405 30.1915 27.5901 29.3784 27.2893 28.6835C26.9886 27.9746 26.5785 27.3839 26.059 26.9114C25.5395 26.4388 24.9516 26.0844 24.2954 25.8481C23.6392 25.5979 22.9488 25.4728 22.2243 25.4728H19.661V36.6683Z" fill="#E29898"/>
<path d="M44.0006 37.4814C43.7545 37.6481 43.4195 37.8358 42.9957 38.0443C42.572 38.2527 42.073 38.4265 41.4988 38.5655C40.9383 38.7044 40.3231 38.7739 39.6532 38.7739C38.5049 38.76 37.4659 38.5516 36.5363 38.1485C35.6203 37.7454 34.8411 37.1964 34.1985 36.5015C33.556 35.8066 33.057 35.0074 32.7016 34.104C32.3598 33.1866 32.1889 32.2137 32.1889 31.1852C32.1889 30.0594 32.3666 29.024 32.7221 28.0789C33.0912 27.1198 33.6039 26.2929 34.2601 25.5979C34.9163 24.8891 35.6887 24.3401 36.5773 23.9509C37.4795 23.5618 38.4639 23.3672 39.5302 23.3672C40.4188 23.3672 41.2254 23.4923 41.9499 23.7425C42.6745 23.9787 43.2965 24.2637 43.816 24.5972L43.0163 26.4736C42.6061 26.1956 42.1071 25.9315 41.5193 25.6813C40.9451 25.4311 40.3026 25.3061 39.5917 25.3061C38.8671 25.3061 38.1836 25.452 37.5411 25.7439C36.8985 26.0357 36.3312 26.4458 35.839 26.9739C35.3469 27.5021 34.9573 28.1206 34.6702 28.8294C34.3968 29.5243 34.2601 30.2749 34.2601 31.081C34.2601 31.901 34.3831 32.6654 34.6292 33.3743C34.8889 34.0692 35.2512 34.6738 35.716 35.1881C36.1945 35.7023 36.7687 36.1054 37.4385 36.3973C38.1084 36.6891 38.8603 36.8351 39.6942 36.8351C40.4461 36.8351 41.116 36.7169 41.7038 36.4806C42.2917 36.2444 42.777 35.9803 43.1598 35.6884L44.0006 37.4814Z" fill="#E29898"/>
</svg>
