<svg width="96" height="96" viewBox="0 0 96 96" fill="none" xmlns="http://www.w3.org/2000/svg">
<g opacity="0.5">
<path d="M8 64C8 52.688 8 47.028 11.516 43.516C15.028 40 20.688 40 32 40H64C75.312 40 80.972 40 84.484 43.516C88 47.028 88 52.688 88 64C88 75.312 88 80.972 84.484 84.484C80.972 88 75.312 88 64 88H32C20.688 88 15.028 88 11.516 84.484C8 80.972 8 75.312 8 64Z" fill="black"/>
<path d="M8 64C8 52.688 8 47.028 11.516 43.516C15.028 40 20.688 40 32 40H64C75.312 40 80.972 40 84.484 43.516C88 47.028 88 52.688 88 64C88 75.312 88 80.972 84.484 84.484C80.972 88 75.312 88 64 88H32C20.688 88 15.028 88 11.516 84.484C8 80.972 8 75.312 8 64Z" fill="url(#paint0_linear_503_5812)"/>
</g>
<path d="M27 32C27 26.4305 29.2125 21.089 33.1508 17.1508C37.089 13.2125 42.4305 11 48 11C53.5695 11 58.911 13.2125 62.8492 17.1508C66.7875 21.089 69 26.4305 69 32V40.016C71.268 40.036 73.256 40.088 75 40.216V32C75 24.8392 72.1554 17.9716 67.0919 12.9081C62.0284 7.84464 55.1608 5 48 5C40.8392 5 33.9716 7.84464 28.9081 12.9081C23.8446 17.9716 21 24.8392 21 32V40.22C22.9973 40.0883 24.9983 40.0203 27 40.016V32Z" fill="black"/>
<path d="M27 32C27 26.4305 29.2125 21.089 33.1508 17.1508C37.089 13.2125 42.4305 11 48 11C53.5695 11 58.911 13.2125 62.8492 17.1508C66.7875 21.089 69 26.4305 69 32V40.016C71.268 40.036 73.256 40.088 75 40.216V32C75 24.8392 72.1554 17.9716 67.0919 12.9081C62.0284 7.84464 55.1608 5 48 5C40.8392 5 33.9716 7.84464 28.9081 12.9081C23.8446 17.9716 21 24.8392 21 32V40.22C22.9973 40.0883 24.9983 40.0203 27 40.016V32Z" fill="url(#paint1_linear_503_5812)"/>
<defs>
<linearGradient id="paint0_linear_503_5812" x1="17.0909" y1="45.6727" x2="52.3549" y2="101.99" gradientUnits="userSpaceOnUse">
<stop stop-color="#E24141"/>
<stop offset="1" stop-color="#8E0202"/>
</linearGradient>
<linearGradient id="paint1_linear_503_5812" x1="27.1364" y1="9.16236" x2="53.8944" y2="48.4742" gradientUnits="userSpaceOnUse">
<stop stop-color="#E24141"/>
<stop offset="1" stop-color="#8E0202"/>
</linearGradient>
</defs>
</svg>
